<?xml version="1.0" standalone="no"?>
<!DOCTYPE svg PUBLIC "-//W3C//DTD SVG 1.1//EN" "http://www.w3.org/Graphics/SVG/1.1/DTD/svg11.dtd" >
<svg>
<metadata>
Created by FontForge 20120731 at Mon Dec 15 16:51:30 2014
 By Orthosie Webhosting
Copyright 2005 Process Type Foundry. All rights reserved.
</metadata>
<defs>
<font id="BryantProMedium" horiz-adv-x="650" >
  <font-face 
    font-family="BryantProMedium"
    font-weight="500"
    font-stretch="normal"
    units-per-em="1000"
    panose-1="2 0 6 3 3 0 0 2 0 4"
    ascent="750"
    descent="-250"
    x-height="434"
    cap-height="674"
    bbox="-39 -278 1202 944"
    underline-thickness="20"
    underline-position="-113"
    unicode-range="U+0020-FB02"
  />
<missing-glyph horiz-adv-x="676" 
d="M105 0v666h466v-666h-466zM522 616h-340l340 -527v527zM154 576v-527h339z" />
    <glyph glyph-name="fi" unicode="fi" horiz-adv-x="609" 
d="M534 39q0 -20 -13 -33.5t-34 -13.5t-34 13.5t-13 33.5v356q0 20 13.5 33.5t33.5 13.5t33.5 -13.5t13.5 -33.5v-356zM432 565q0 23 16 39t39 16t39 -16t16 -39t-16 -39t-39 -16t-39 16t-16 39zM357 631q0 -17 -11.5 -28t-27.5 -11h-28q-41 0 -60.5 -19t-19.5 -66v-73h99
q17 0 28 -11t11 -28t-11 -28t-28 -11h-99v-317q0 -20 -13 -33.5t-34 -13.5t-34 13.5t-13 33.5v317h-59q-17 0 -28 11t-11 28t11 28t28 11h59v66q0 170 167 170h35q16 0 27.5 -11t11.5 -28z" />
    <glyph glyph-name="fl" unicode="fl" horiz-adv-x="609" 
d="M534 39q0 -20 -13 -33.5t-34 -13.5t-34 13.5t-13 33.5v588q0 20 13 33.5t34 13.5t34 -13.5t13 -33.5v-588zM357 631q0 -17 -11.5 -28t-27.5 -11h-28q-41 0 -60.5 -19t-19.5 -66v-73h99q17 0 28 -11t11 -28t-11 -28t-28 -11h-99v-317q0 -20 -13 -33.5t-34 -13.5t-34 13.5
t-13 33.5v317h-59q-17 0 -28 11t-11 28t11 28t28 11h59v66q0 170 167 170h35q16 0 27.5 -11t11.5 -28z" />
    <glyph glyph-name=".notdef" horiz-adv-x="676" 
d="M105 0v666h466v-666h-466zM522 616h-340l340 -527v527zM154 576v-527h339z" />
    <glyph glyph-name=".null" horiz-adv-x="0" 
 />
    <glyph glyph-name="nonmarkingreturn" horiz-adv-x="333" 
 />
    <glyph glyph-name="space" unicode=" " horiz-adv-x="290" 
 />
    <glyph glyph-name="exclam" unicode="!" horiz-adv-x="300" 
d="M197 369l-24 -174q-4 -23 -23 -23q-20 0 -24 23l-23 174v258q0 20 13 33.5t34 13.5t34 -13.5t13 -33.5v-258zM90 52q0 25 17.5 42.5t42.5 17.5t42.5 -17.5t17.5 -42.5t-17.5 -42.5t-42.5 -17.5t-42.5 17.5t-17.5 42.5z" />
    <glyph glyph-name="quotedbl" unicode="&#x22;" horiz-adv-x="411" 
d="M70 454v179q0 17 12 29t29 12t29 -12t12 -29v-179q0 -17 -12 -29t-29 -12t-29 12t-12 29zM259 454v179q0 17 12 29t29 12t29 -12t12 -29v-179q0 -17 -12 -29t-29 -12t-29 12t-12 29z" />
    <glyph glyph-name="numbersign" unicode="#" horiz-adv-x="728" 
d="M683 460q0 -16 -10.5 -27t-28.5 -11h-89l-18 -169h87q13 0 23 -9t10 -23q0 -16 -11 -27.5t-28 -11.5h-89l-16 -148q-4 -42 -43 -42q-17 0 -26.5 12t-7.5 29l16 149h-202l-16 -151q-5 -39 -42 -39q-40 0 -35 47l16 143h-83q-15 0 -25 9t-10 23q0 39 40 39h86l18 169h-87
q-14 0 -23 9t-9 23q0 16 10.5 27.5t29.5 11.5h87l15 142q4 39 43 39q38 0 34 -43l-15 -138h202l15 142q2 21 11.5 30t31.5 9q36 0 33 -43l-14 -138h89q13 0 22 -9.5t9 -23.5zM478 422h-202l-18 -169h202z" />
    <glyph glyph-name="dollar" unicode="$" horiz-adv-x="604" 
d="M539 185q0 -71 -49.5 -115.5t-145.5 -57.5v-83q0 -14 -10.5 -25t-25.5 -11q-16 0 -26.5 10.5t-10.5 25.5v82q-60 6 -129 36q-72 31 -72 70q0 17 9.5 26.5t23.5 9.5q12 0 22.5 -4.5t24 -13t19.5 -11.5q65 -34 141 -34q67 0 103.5 24t36.5 65q0 40 -35 64.5t-126 55.5
q-121 41 -166 84t-45 113q0 71 52.5 110.5t144.5 48.5v82q0 15 10.5 25.5t25.5 10.5t26 -10.5t11 -25.5v-83q42 -2 102 -23q34 -13 52.5 -26t18.5 -33q0 -36 -36 -36q-11 0 -25 6q-84 37 -149 37q-66 0 -104.5 -21t-38.5 -62t30.5 -62.5t125.5 -55.5q114 -40 164.5 -79.5
t50.5 -113.5z" />
    <glyph glyph-name="percent" unicode="%" horiz-adv-x="863" 
d="M803 150q0 -69 -45.5 -115.5t-119.5 -46.5t-119.5 46.5t-45.5 115.5q0 70 45.5 116t119.5 46t119.5 -46t45.5 -116zM674 641q0 -11 -11 -29l-409 -608q-11 -16 -29 -16q-17 0 -28 10t-11 24q0 12 13 31l408 608q11 17 30 17q37 0 37 -37zM726 150q0 41 -24 67.5t-64 26.5
q-39 0 -63.5 -26.5t-24.5 -67.5t24.5 -67.5t63.5 -26.5q40 0 64 26.5t24 67.5zM385 516q0 -69 -45.5 -115.5t-119.5 -46.5t-119.5 46.5t-45.5 115.5q0 70 45.5 116t119.5 46t119.5 -46t45.5 -116zM308 516q0 41 -24 67.5t-64 26.5q-39 0 -63.5 -26.5t-24.5 -67.5t24.5 -67.5
t63.5 -26.5q40 0 64 26.5t24 67.5z" />
    <glyph glyph-name="ampersand" unicode="&#x26;" horiz-adv-x="727" 
d="M705 53q0 -21 -29 -41q-36 -24 -86 -24q-82 0 -135 70q-81 -70 -201 -70q-94 0 -151.5 49t-57.5 128q0 133 180 214q-67 84 -67 155q0 66 42 105t117 39q62 0 102.5 -37.5t40.5 -101.5q0 -111 -119 -183l123 -177q24 32 60 107q12 24 37 24q19 0 30 -11.5t11 -29.5
q0 -17 -25 -62q-27 -49 -63 -92q19 -27 37 -40t44 -13q35 0 61 18q8 5 18 5q13 0 22 -8.5t9 -23.5zM380 530q0 36 -17.5 56.5t-48.5 20.5q-32 0 -51 -18.5t-19 -55.5q0 -47 57 -122q33 20 56 52.5t23 66.5zM406 122q-53 72 -138 195q-63 -33 -97 -67.5t-34 -81.5
q0 -46 33.5 -75.5t85.5 -29.5q79 0 150 59z" />
    <glyph glyph-name="quotesingle" unicode="'" horiz-adv-x="222" 
d="M70 454v179q0 17 12 29t29 12t29 -12t12 -29v-179q0 -17 -12 -29t-29 -12t-29 12t-12 29z" />
    <glyph glyph-name="parenleft" unicode="(" horiz-adv-x="332" 
d="M210 688q13 22 38 22q18 0 31 -11t13 -29q0 -14 -6 -24q-107 -180 -107 -376t107 -376q6 -10 6 -24q0 -18 -13 -29t-31 -11q-25 0 -38 22q-125 202 -125 418t125 418z" />
    <glyph glyph-name="parenright" unicode=")" horiz-adv-x="332" 
d="M122 688q125 -202 125 -418t-125 -418q-13 -22 -38 -22q-18 0 -31 11t-13 29q0 14 6 24q107 180 107 376t-107 376q-6 10 -6 24q0 18 13 29t31 11q25 0 38 -22z" />
    <glyph glyph-name="asterisk" unicode="*" horiz-adv-x="404" 
d="M202 578l52 85q6 11 20 11q26 0 26 -23q0 -7 -5 -15l-48 -79h93q11 0 17.5 -7t6.5 -18q0 -10 -7 -17t-17 -7h-93l48 -79q5 -10 5 -15q0 -10 -7.5 -16.5t-17.5 -6.5q-14 0 -23 14l-50 82l-50 -82q-9 -14 -23 -14q-10 0 -17.5 6.5t-7.5 16.5q0 5 5 15l48 79h-93
q-10 0 -17 7t-7 17q0 11 6.5 18t17.5 7h93l-48 79q-5 8 -5 15q0 23 26 23q14 0 20 -11z" />
    <glyph glyph-name="plus" unicode="+" horiz-adv-x="550" 
d="M500 323q0 -16 -11 -27t-27 -11h-145v-145q0 -18 -12 -30t-30 -12t-30 12t-12 30v145h-145q-16 0 -27 11t-11 27t11 27t27 11h145v145q0 18 12 30t30 12t30 -12t12 -30v-145h145q16 0 27 -11t11 -27z" />
    <glyph glyph-name="comma" unicode="," horiz-adv-x="229" 
d="M159 31q0 -99 -35 -168q-16 -30 -41 -30q-19 0 -30 10t-11 23q0 9 9 29q26 60 26 123v53q0 19 11 31.5t30 12.5t30 -12.5t11 -31.5v-40z" />
    <glyph glyph-name="hyphen" unicode="-" horiz-adv-x="447" 
d="M112 208q-17 0 -29.5 11t-12.5 29t12.5 29t29.5 11h223q17 0 29.5 -11t12.5 -29t-12.5 -29t-29.5 -11h-223z" />
    <glyph glyph-name="period" unicode="." horiz-adv-x="260" 
d="M70 52q0 25 17.5 42.5t42.5 17.5t42.5 -17.5t17.5 -42.5t-17.5 -42.5t-42.5 -17.5t-42.5 17.5t-17.5 42.5z" />
    <glyph glyph-name="slash" unicode="/" horiz-adv-x="439" 
d="M389 684q0 -5 -4 -17l-254 -744q-10 -30 -40 -30q-18 0 -29.5 11.5t-11.5 27.5q0 5 4 17l254 748q10 28 40 28q20 0 30.5 -11.5t10.5 -29.5z" />
    <glyph glyph-name="zero" unicode="0" horiz-adv-x="680" 
d="M625 333q0 -143 -77 -244t-208 -101t-208 101t-77 244t77 244t208 101t208 -101t77 -244zM531 333q0 112 -52.5 186.5t-138.5 74.5t-138.5 -74.5t-52.5 -186.5t52.5 -186.5t138.5 -74.5t138.5 74.5t52.5 186.5z" />
    <glyph glyph-name="one" unicode="1" horiz-adv-x="391" 
d="M296 39q0 -20 -13 -33.5t-34 -13.5t-34 13.5t-13 33.5v533l-118 -36q-8 -2 -12 -2q-18 0 -32.5 12t-14.5 31q0 31 34 41l169 52q12 4 22 4q21 0 33.5 -12.5t12.5 -35.5v-587z" />
    <glyph glyph-name="two" unicode="2" horiz-adv-x="634" 
d="M574 42q0 -18 -12 -30t-30 -12h-429q-17 0 -29 13t-12 30q0 113 50 172.5t169 120.5q60 31 83.5 44t55.5 35.5t43 42t11 43.5q0 46 -41 69.5t-112 23.5q-95 0 -182 -57q-10 -7 -22 -7q-18 0 -30 11.5t-12 27.5q0 38 69 71q81 38 182 38q110 0 176 -45.5t66 -130.5
q0 -69 -46.5 -116t-159.5 -105q-112 -57 -154 -95.5t-42 -101.5h366q18 0 30 -11.5t12 -30.5z" />
    <glyph glyph-name="three" unicode="3" horiz-adv-x="637" 
d="M577 191q0 -90 -73 -146.5t-189 -56.5q-150 0 -248 86q-17 13 -17 34q0 19 13 30t30 11q14 0 27 -10q47 -36 89 -53.5t106 -17.5q75 0 121.5 34t46.5 93q0 61 -48 90t-129 29h-56q-18 0 -30.5 12t-12.5 30t12.5 29.5t30.5 11.5h43q70 0 107.5 29t37.5 77q0 95 -125 95
q-65 0 -120 -29q-28 -14 -44 -14q-18 0 -28 10.5t-10 26.5q0 35 63 60q62 26 147 26q97 0 154 -44.5t57 -123.5q0 -101 -101 -144q146 -40 146 -175z" />
    <glyph glyph-name="four" unicode="4" horiz-adv-x="643" 
d="M625 215q0 -17 -11.5 -28t-28.5 -11h-92v-138q0 -20 -13.5 -33t-32.5 -13q-20 0 -33.5 13t-13.5 33v138h-334q-17 0 -29 11t-12 28q0 15 13 31l369 408q17 20 41 20q20 0 32.5 -12.5t12.5 -33.5v-374h92q17 0 28.5 -11t11.5 -28zM400 254v279l-251 -279h251z" />
    <glyph glyph-name="five" unicode="5" horiz-adv-x="638" 
d="M578 209q0 -93 -70.5 -157t-192.5 -64q-149 0 -239 79q-18 15 -18 33q0 20 12 31.5t30 11.5q16 0 26 -9q48 -35 90.5 -50.5t98.5 -15.5q76 0 122.5 39.5t46.5 101.5q0 61 -41 98t-116 37q-81 0 -164 -49q-13 -8 -26 -8q-23 0 -34 13t-8 32l47 296q7 38 45 38h293
q18 0 31 -12t13 -31q0 -17 -13 -29.5t-31 -12.5h-258l-30 -193q58 38 140 38q116 0 181 -60t65 -157z" />
    <glyph glyph-name="six" unicode="6" horiz-adv-x="638" 
d="M590 204q0 -94 -70 -155t-187 -61q-128 0 -198 69t-70 178q0 79 28 152.5t73.5 128t98.5 94.5t108 61q19 7 30 7q19 0 29.5 -10.5t10.5 -25.5q0 -24 -29 -40q-210 -115 -252 -280q61 91 194 91q107 0 170.5 -57.5t63.5 -151.5zM496 203q0 61 -43.5 96t-114.5 35
q-69 0 -118 -36t-49 -97q0 -62 43.5 -98t119.5 -36q75 0 118.5 38.5t43.5 97.5z" />
    <glyph glyph-name="seven" unicode="7" horiz-adv-x="574" 
d="M549 625q0 -14 -10 -26q-114 -143 -163.5 -268t-49.5 -293q0 -20 -12.5 -33t-34.5 -13t-34.5 13t-12.5 33q0 321 193 544h-352q-18 0 -30.5 12t-12.5 30t12.5 30t30.5 12h430q46 0 46 -41z" />
    <glyph glyph-name="eight" unicode="8" horiz-adv-x="652" 
d="M326 678q96 0 157.5 -48.5t61.5 -123.5q0 -86 -93 -139q63 -22 101.5 -67t38.5 -110q0 -87 -72 -144.5t-194 -57.5t-194 57.5t-72 144.5q0 65 38.5 110t101.5 67q-93 53 -93 139q0 75 61.5 123.5t157.5 48.5zM326 319q-76 0 -124 -34.5t-48 -91.5t48 -92t124 -35t124 35
t48 92t-48 91.5t-124 34.5zM199 499q0 -47 36.5 -76.5t90.5 -29.5t90.5 29.5t36.5 76.5t-34.5 74t-92.5 27t-92.5 -27t-34.5 -74z" />
    <glyph glyph-name="nine" unicode="9" horiz-adv-x="635" 
d="M52 462q0 91 73 153.5t186 62.5q129 0 197.5 -67t68.5 -180q0 -79 -28 -152.5t-73.5 -128t-98.5 -94.5t-108 -61q-19 -7 -30 -7q-19 0 -29.5 10.5t-10.5 25.5q0 24 29 40q210 115 252 280q-61 -91 -194 -91q-107 0 -170.5 57.5t-63.5 151.5zM146 463q0 -61 43.5 -96
t114.5 -35q69 0 118 36t49 97q0 62 -43.5 98t-119.5 36q-75 0 -118.5 -38.5t-43.5 -97.5z" />
    <glyph glyph-name="colon" unicode=":" horiz-adv-x="260" 
d="M70 52q0 25 17.5 42.5t42.5 17.5t42.5 -17.5t17.5 -42.5t-17.5 -42.5t-42.5 -17.5t-42.5 17.5t-17.5 42.5zM70 314q0 25 17.5 42.5t42.5 17.5t42.5 -17.5t17.5 -42.5t-17.5 -42.5t-42.5 -17.5t-42.5 17.5t-17.5 42.5z" />
    <glyph glyph-name="semicolon" unicode=";" horiz-adv-x="256" 
d="M170 30q0 -92 -38 -167q-16 -30 -41 -30q-19 0 -30 10t-11 23q0 9 9 29q23 53 23 122v53q0 20 12 32.5t32 12.5t32 -12.5t12 -32.5v-40zM66 314q0 25 17.5 42.5t42.5 17.5t42.5 -17.5t17.5 -42.5t-17.5 -42.5t-42.5 -17.5t-42.5 17.5t-17.5 42.5z" />
    <glyph glyph-name="less" unicode="&#x3c;" horiz-adv-x="555" 
d="M490 511q0 -24 -26 -37l-296 -151l296 -151q26 -13 26 -37q0 -16 -11.5 -28.5t-29.5 -12.5q-11 0 -22 6l-354 187q-23 11 -23 36t23 36l354 187q10 6 22 6q18 0 29.5 -12.5t11.5 -28.5z" />
    <glyph glyph-name="equal" unicode="=" horiz-adv-x="555" 
d="M475 409q0 -16 -11 -26.5t-27 -10.5h-320q-15 0 -26 10.5t-11 26.5t11 26.5t26 10.5h320q16 0 27 -10.5t11 -26.5zM475 237q0 -16 -11 -26.5t-27 -10.5h-320q-15 0 -26 10.5t-11 26.5t11 26.5t26 10.5h320q16 0 27 -10.5t11 -26.5z" />
    <glyph glyph-name="greater" unicode="&#x3e;" horiz-adv-x="555" 
d="M65 511q0 16 11.5 28.5t29.5 12.5q12 0 22 -6l354 -187q23 -11 23 -36t-23 -36l-354 -187q-10 -6 -22 -6q-18 0 -29.5 12.5t-11.5 28.5q0 24 26 37l296 151l-296 151q-26 13 -26 37z" />
    <glyph glyph-name="question" unicode="?" horiz-adv-x="483" 
d="M443 526q0 -45 -22.5 -79.5t-80.5 -83.5q-48 -40 -61.5 -61.5t-13.5 -60.5v-24q0 -20 -13 -33.5t-35 -13.5q-21 0 -33.5 13.5t-12.5 32.5v26q0 61 19.5 93t69.5 73q35 29 49.5 42.5t27 33.5t12.5 40q0 70 -114 70q-65 0 -134 -34q-12 -6 -26 -6q-16 0 -28 11t-12 28
q0 26 35 44q77 41 169 41q95 0 149.5 -38.5t54.5 -113.5zM160 52q0 25 17.5 42.5t42.5 17.5t42.5 -17.5t17.5 -42.5t-17.5 -42.5t-42.5 -17.5t-42.5 17.5t-17.5 42.5z" />
    <glyph glyph-name="at" unicode="@" horiz-adv-x="762" 
d="M531 212v13q-37 -54 -108 -54q-72 0 -116 48t-44 123t44 122.5t116 47.5q71 0 108 -52v14q0 141 -162 141q-117 0 -184.5 -76.5t-67.5 -196.5q0 -133 84.5 -212.5t231.5 -79.5q118 0 250 65q6 3 15 3q13 0 21.5 -9t8.5 -22q0 -16 -21 -29q-120 -70 -275 -70
q-179 0 -283 99t-104 255q0 148 88 242t238 94q109 0 171.5 -55t62.5 -160v-251q0 -15 -10.5 -26t-26.5 -11t-26.5 11t-10.5 26zM433 447q-44 0 -70 -29t-26 -76t26 -76.5t70 -29.5t71 29.5t27 76.5t-27.5 76t-70.5 29z" />
    <glyph glyph-name="A" unicode="A" horiz-adv-x="710" 
d="M398 646l264 -589q5 -12 5 -20q0 -19 -12 -32t-33 -13q-31 0 -43 28l-67 146h-314l-67 -146q-12 -28 -43 -28q-21 0 -33 13t-12 32q0 8 5 20l264 589q12 28 43 28t43 -28zM477 251l-122 283l-122 -283h244z" />
    <glyph glyph-name="B" unicode="B" horiz-adv-x="665" 
d="M615 188q0 -78 -61 -133t-172 -55h-244q-20 0 -34 14.5t-14 34.5v569q0 20 14 34t34 14h233q93 0 148.5 -45t55.5 -120q0 -48 -27.5 -86t-75.5 -58q65 -12 104 -54t39 -115zM478 489q0 45 -28 68t-76 23h-188v-186h190q48 0 75 28t27 67zM389 308h-203v-222h204
q60 0 94.5 31t34.5 81q0 52 -34.5 81t-95.5 29z" />
    <glyph glyph-name="C" unicode="C" horiz-adv-x="705" 
d="M388 678q80 0 146.5 -30.5t105.5 -79.5q13 -16 13 -34q0 -19 -12 -30.5t-31 -11.5q-23 0 -42 23q-68 76 -174 76q-117 0 -182 -73.5t-65 -184.5t65 -184.5t182 -73.5q106 0 174 76q19 23 42 23q19 0 31 -11.5t12 -30.5q0 -18 -13 -34q-39 -49 -105.5 -79.5t-146.5 -30.5
q-152 0 -245 100t-93 245t93 245t245 100z" />
    <glyph glyph-name="D" unicode="D" horiz-adv-x="708" 
d="M658 333q0 -146 -91 -239.5t-243 -93.5h-185q-20 0 -34.5 14.5t-14.5 34.5v568q0 20 14.5 34.5t34.5 14.5h185q152 0 243 -93.5t91 -239.5zM562 333q0 110 -64 177.5t-177 67.5h-135v-490h135q113 0 177 67.5t64 177.5z" />
    <glyph glyph-name="E" unicode="E" horiz-adv-x="605" 
d="M569 44q0 -19 -13.5 -31.5t-32.5 -12.5h-384q-21 0 -35 14t-14 34v570q0 20 14.5 34t34.5 14h369q19 0 32.5 -12.5t13.5 -31.5t-13.5 -31.5t-32.5 -12.5h-322v-193h182q18 0 31 -12.5t13 -31.5t-13 -31.5t-31 -12.5h-182v-209h337q19 0 32.5 -12t13.5 -32z" />
    <glyph glyph-name="F" unicode="F" horiz-adv-x="574" 
d="M556 621q0 -19 -13.5 -32t-31.5 -13h-325v-189h183q19 0 32 -13t13 -32t-13 -32t-32 -13h-183v-257q0 -20 -14 -34t-34 -14t-34 14t-14 34v578q0 20 14 34t34 14h373q19 0 32 -12.5t13 -32.5z" />
    <glyph glyph-name="G" unicode="G" horiz-adv-x="730" 
d="M668 126q0 -21 -11 -32q-45 -50 -115 -78t-153 -28q-151 0 -245 98t-94 247q0 151 95.5 248t241.5 97q145 0 226 -85q15 -15 15 -32q0 -19 -12 -31.5t-32 -12.5q-16 0 -32 12q-80 60 -165 60q-107 0 -173.5 -73.5t-66.5 -182.5q0 -112 64 -187t178 -75q117 0 185 60v123
h-159q-18 0 -31 12.5t-13 31.5q0 18 13 30.5t31 12.5h205q21 0 34.5 -13t13.5 -36v-166z" />
    <glyph glyph-name="H" unicode="H" horiz-adv-x="731" 
d="M641 41q0 -21 -13.5 -35t-34.5 -14q-20 0 -34 14.5t-14 34.5v256h-359v-256q0 -21 -13 -35t-34 -14t-35 14t-14 35v584q0 21 13.5 35t34.5 14t34.5 -14t13.5 -35v-238h359v238q0 21 14 35t34 14q21 0 34.5 -14t13.5 -35v-584z" />
    <glyph glyph-name="I" unicode="I" horiz-adv-x="286" 
d="M191 41q0 -21 -13 -35t-34 -14t-35 14t-14 35v584q0 21 13.5 35t35.5 14q21 0 34 -13.5t13 -35.5v-584z" />
    <glyph glyph-name="J" unicode="J" horiz-adv-x="609" 
d="M428 625q0 21 13.5 35t35.5 14q21 0 34 -13.5t13 -35.5v-368q0 -122 -63.5 -195.5t-187.5 -73.5q-92 0 -161 53t-81 135q-1 7 -1 22q0 20 12.5 31.5t33.5 11.5q22 0 31.5 -9.5t14.5 -30.5q16 -63 49.5 -95.5t103.5 -32.5q153 0 153 180v372z" />
    <glyph glyph-name="K" unicode="K" horiz-adv-x="671" 
d="M186 41q0 -21 -13 -35t-34 -14t-35 14t-14 35v584q0 21 13.5 35t35.5 14q21 0 34 -13.5t13 -35.5v-293l336 328q14 14 32 14t32.5 -13t14.5 -31q0 -22 -15 -35l-192 -188l217 -344q8 -13 8 -27q0 -16 -13 -30t-31 -14q-29 0 -42 22l-207 329l-140 -137v-165z" />
    <glyph glyph-name="L" unicode="L" horiz-adv-x="583" 
d="M139 0q-21 0 -35 14t-14 35v576q0 21 13.5 35t35.5 14q21 0 34 -13.5t13 -35.5v-535h319q18 0 31.5 -13t13.5 -31q0 -19 -13.5 -32.5t-31.5 -13.5h-366z" />
    <glyph glyph-name="M" unicode="M" horiz-adv-x="862" 
d="M431 126l253 519q14 29 43 29q20 0 32.5 -12t12.5 -33v-591q0 -19 -12.5 -32.5t-32.5 -13.5q-21 0 -33.5 13.5t-12.5 32.5v405l-208 -423q-13 -28 -42 -28t-42 28l-208 423v-405q0 -19 -12.5 -32.5t-33.5 -13.5q-20 0 -32.5 13.5t-12.5 32.5v591q0 21 12.5 33t32.5 12
q29 0 43 -29z" />
    <glyph glyph-name="N" unicode="N" horiz-adv-x="736" 
d="M646 37q0 -19 -12 -32t-34 -13t-36 17l-383 488v-460q0 -19 -12.5 -32t-33.5 -13q-20 0 -32.5 13t-12.5 32v591q0 22 12.5 34t34.5 12t36 -19l382 -486v459q0 21 13 33.5t33 12.5t32.5 -12.5t12.5 -33.5v-591z" />
    <glyph glyph-name="O" unicode="O" horiz-adv-x="786" 
d="M731 333q0 -144 -94.5 -244.5t-243.5 -100.5t-243.5 100.5t-94.5 244.5t94.5 244.5t243.5 100.5t243.5 -100.5t94.5 -244.5zM635 333q0 108 -65 183t-177 75t-177 -75t-65 -183t65 -183t177 -75t177 75t65 183z" />
    <glyph glyph-name="P" unicode="P" horiz-adv-x="652" 
d="M186 41q0 -21 -13 -35t-34 -14t-35 14t-14 35v576q0 22 13.5 35.5t35.5 13.5h254q110 0 168.5 -54t58.5 -144q0 -89 -58 -142t-169 -53h-207v-232zM412 578h-226v-217h226q53 0 82.5 30.5t29.5 76.5q0 47 -29.5 78.5t-82.5 31.5z" />
    <glyph glyph-name="Q" unicode="Q" horiz-adv-x="786" 
d="M653 -49q6 -11 6 -21q0 -16 -13 -28.5t-31 -12.5q-24 0 -36 21l-57 101q-64 -23 -129 -23q-149 0 -243.5 100.5t-94.5 244.5t94.5 244.5t243.5 100.5t243.5 -100.5t94.5 -244.5q0 -86 -36 -160t-100 -121zM635 333q0 108 -65 183t-177 75t-177 -75t-65 -183t65 -183
t177 -75q46 0 85 14l-50 89q-6 10 -6 21q0 19 12.5 30t30.5 11q24 0 36 -21l50 -88q84 73 84 202z" />
    <glyph glyph-name="R" unicode="R" horiz-adv-x="701" 
d="M186 41q0 -21 -13 -35t-34 -14t-35 14t-14 35v576q0 22 13.5 35.5t35.5 13.5h269q111 0 169 -53.5t58 -142.5q0 -68 -35 -114.5t-102 -65.5l112 -229q5 -12 5 -21q0 -19 -13 -33.5t-34 -14.5q-30 0 -43 27l-127 260h-212v-238zM427 578h-241v-215h241q53 0 82.5 30.5
t29.5 76.5q0 47 -29.5 77.5t-82.5 30.5z" />
    <glyph glyph-name="S" unicode="S" horiz-adv-x="634" 
d="M582 177q0 -83 -67 -136t-188 -53q-66 0 -129 20t-107 54q-26 21 -26 45q0 18 11.5 28.5t29.5 10.5q13 0 34 -12q49 -31 90.5 -46.5t97.5 -15.5q77 0 117.5 27.5t40.5 72.5q0 47 -38.5 70t-140.5 54q-131 39 -182.5 84.5t-51.5 117.5q0 87 70 133.5t186 46.5
q76 0 151 -28q81 -31 81 -68q0 -18 -10.5 -30.5t-30.5 -12.5q-11 0 -19 5q-86 49 -171 49q-161 0 -161 -93q0 -42 35 -64.5t129 -51.5q66 -21 107.5 -38t76 -41t50 -55t15.5 -73z" />
    <glyph glyph-name="T" unicode="T" horiz-adv-x="614" 
d="M589 620q0 -18 -13.5 -31t-32.5 -13h-187v-535q0 -21 -13 -35t-34 -14t-35 14t-14 35v535h-189q-19 0 -32.5 13t-13.5 31q0 20 13.5 33t32.5 13h472q19 0 32.5 -13t13.5 -33z" />
    <glyph glyph-name="U" unicode="U" horiz-adv-x="734" 
d="M367 -12q-131 0 -206 74.5t-75 203.5v359q0 21 13.5 35t35.5 14q21 0 34 -13.5t13 -35.5v-369q0 -83 48 -132t137 -49t137 49t48 132v369q0 22 13 35.5t34 13.5q22 0 35.5 -14t13.5 -35v-359q0 -129 -75 -203.5t-206 -74.5z" />
    <glyph glyph-name="V" unicode="V" 
d="M325 137l211 509q11 28 42 28q18 0 32 -12t14 -33q0 -7 -5 -20l-253 -590q-11 -27 -41 -27t-41 27l-253 590q-5 13 -5 20q0 21 14 33t32 12q31 0 42 -28z" />
    <glyph glyph-name="W" unicode="W" horiz-adv-x="978" 
d="M532 643l162 -481l164 480q10 32 43 32q19 0 31 -12t12 -31q0 -8 -3 -17l-203 -588q-11 -34 -45 -34q-32 0 -42 29l-162 481l-162 -481q-10 -29 -42 -29q-34 0 -45 34l-203 588q-3 9 -3 17q0 19 12 31t31 12q33 0 43 -32l164 -480l162 481q11 31 43 31t43 -31z" />
    <glyph glyph-name="X" unicode="X" horiz-adv-x="678" 
d="M149 657l190 -249l190 249q14 17 35 17q19 0 32.5 -12.5t13.5 -30.5q0 -14 -10 -28l-206 -268l209 -271q10 -13 10 -28q0 -18 -13 -31t-31 -13q-23 0 -37 18l-193 252l-193 -252q-14 -18 -37 -18q-18 0 -31 13t-13 31q0 15 10 28l209 271l-206 268q-10 14 -10 28
q0 18 13.5 30.5t32.5 12.5q21 0 35 -17z" />
    <glyph glyph-name="Y" unicode="Y" horiz-adv-x="596" 
d="M298 378l198 276q15 20 38 20q17 0 30.5 -12t13.5 -31q0 -14 -10 -29l-221 -309v-252q0 -21 -13.5 -35t-35.5 -14t-35.5 14t-13.5 35v252l-221 309q-10 15 -10 29q0 19 13.5 31t30.5 12q23 0 38 -20z" />
    <glyph glyph-name="Z" unicode="Z" horiz-adv-x="637" 
d="M582 44q0 -19 -12.5 -31.5t-31.5 -12.5h-424q-21 0 -33.5 12t-12.5 32q0 12 11 27l369 508h-329q-19 0 -32 12.5t-13 32.5q0 19 13 30.5t32 11.5h417q19 0 30.5 -11.5t11.5 -31.5q0 -13 -11 -29l-369 -507h340q18 0 31 -12t13 -31z" />
    <glyph glyph-name="bracketleft" unicode="[" horiz-adv-x="367" 
d="M194 606v-675h83q17 0 28.5 -11t11.5 -29t-11.5 -29t-28.5 -11h-132q-21 0 -33 12.5t-12 33.5v743q0 21 12 33.5t33 12.5h132q17 0 28.5 -11t11.5 -29t-11.5 -29t-28.5 -11h-83z" />
    <glyph glyph-name="backslash" unicode="\" horiz-adv-x="439" 
d="M50 684q0 18 11 29.5t31 11.5q29 0 39 -28l254 -748q4 -12 4 -17q0 -16 -11.5 -27.5t-29.5 -11.5q-30 0 -40 30l-254 744q-4 12 -4 17z" />
    <glyph glyph-name="bracketright" unicode="]" horiz-adv-x="367" 
d="M173 -69v675h-83q-17 0 -28.5 11t-11.5 29t11.5 29t28.5 11h132q21 0 33 -12.5t12 -33.5v-743q0 -21 -12 -33.5t-33 -12.5h-132q-17 0 -28.5 11t-11.5 29t11.5 29t28.5 11h83z" />
    <glyph glyph-name="asciicircum" unicode="^" horiz-adv-x="470" 
d="M270 653l144 -254q6 -11 6 -19q0 -17 -10.5 -27.5t-27.5 -10.5q-23 0 -35 21l-112 203l-112 -203q-12 -21 -35 -21q-17 0 -27.5 10.5t-10.5 27.5q0 8 6 19l144 254q12 21 35 21t35 -21z" />
    <glyph glyph-name="underscore" unicode="_" horiz-adv-x="441" 
d="M442 -54h-443v42h443v-42z" />
    <glyph glyph-name="grave" unicode="`" horiz-adv-x="327" 
d="M227 543q0 -15 -11.5 -26t-26.5 -11q-21 0 -34 18l-55 75q-10 12 -10 26q0 17 11.5 27t27.5 10q20 0 32 -17l56 -77q10 -12 10 -25z" />
    <glyph glyph-name="a" unicode="a" horiz-adv-x="517" 
d="M449 39q0 -21 -12 -34t-34 -13q-21 0 -33.5 13.5t-12.5 33.5v9q-47 -60 -141 -60q-73 0 -119.5 37.5t-46.5 97.5q0 65 47.5 100.5t122.5 35.5q81 0 135 -51v43q0 60 -28 87.5t-92 27.5q-49 0 -99 -18q-24 -8 -31 -8q-18 0 -29 11t-11 28q0 27 44 45q55 22 134 22
q99 0 152.5 -49t53.5 -140v-218zM355 123q0 32 -32.5 51.5t-74.5 19.5q-48 0 -76 -19t-28 -52t28 -52t74 -19q45 0 77 20t32 51z" />
    <glyph glyph-name="b" unicode="b" horiz-adv-x="579" 
d="M532 217q0 -99 -61 -164t-148 -65q-50 0 -92 23.5t-65 62.5v-34q0 -20 -12.5 -34t-33.5 -14t-33 13.5t-12 33.5v588q0 20 13 33.5t34 13.5t34 -13.5t13 -33.5v-267q54 86 154 86q88 0 148.5 -64t60.5 -165zM438 217q0 68 -36.5 109.5t-97.5 41.5q-59 0 -97 -44.5
t-38 -106.5t38 -106.5t97 -44.5q61 0 97.5 41.5t36.5 109.5z" />
    <glyph glyph-name="c" unicode="c" horiz-adv-x="501" 
d="M282 446q46 0 89 -18t66 -45q14 -16 14 -33q0 -16 -11.5 -27t-31.5 -11q-6 0 -12 2.5t-9.5 5t-10 8.5t-8.5 8q-36 31 -85 31q-67 0 -104 -43t-37 -107t37 -107t104 -43q49 0 85 31q2 2 8.5 8t10 8.5t9.5 5t12 2.5q20 0 31.5 -11t11.5 -27q0 -17 -14 -33q-23 -27 -66 -45
t-89 -18q-107 0 -170.5 65t-63.5 164t63.5 164t170.5 65z" />
    <glyph glyph-name="d" unicode="d" horiz-adv-x="579" 
d="M47 217q0 101 60.5 165t148.5 64q100 0 154 -86v267q0 20 13 33.5t34 13.5t34 -13.5t13 -33.5v-588q0 -20 -12 -33.5t-33 -13.5t-33.5 14t-12.5 34v34q-23 -39 -65 -62.5t-92 -23.5q-87 0 -148 65t-61 164zM141 217q0 -68 36.5 -109.5t97.5 -41.5q59 0 97 44.5t38 106.5
t-38 106.5t-97 44.5q-61 0 -97.5 -41.5t-36.5 -109.5z" />
    <glyph glyph-name="e" unicode="e" horiz-adv-x="527" 
d="M271 446q93 0 150.5 -66t57.5 -164q0 -32 -36 -32h-299q4 -54 39.5 -87.5t95.5 -33.5q64 0 116 49q15 15 31 15t27.5 -11t11.5 -28q0 -13 -12 -27q-29 -33 -76.5 -53t-101.5 -20q-108 0 -168 65.5t-60 163.5t63.5 163.5t160.5 65.5zM392 260q-6 47 -39 79t-82 32
q-50 0 -84 -31.5t-41 -79.5h246z" />
    <glyph glyph-name="f" unicode="f" horiz-adv-x="365" 
d="M357 631q0 -17 -11.5 -28t-27.5 -11h-28q-41 0 -60.5 -19t-19.5 -66v-73h99q17 0 28 -11t11 -28t-11 -28t-28 -11h-99v-317q0 -20 -13 -33.5t-34 -13.5t-34 13.5t-13 33.5v317h-59q-17 0 -28 11t-11 28t11 28t28 11h59v66q0 170 167 170h35q16 0 27.5 -11t11.5 -28z" />
    <glyph glyph-name="g" unicode="g" horiz-adv-x="579" 
d="M410 225q0 60 -37 101t-97 41t-97.5 -40t-37.5 -102q0 -61 37.5 -101.5t97.5 -40.5q59 0 96.5 41t37.5 101zM504 31q0 -226 -234 -226q-97 0 -174 44q-25 15 -25 37q0 23 20 34t47 -3q61 -36 126 -36q81 0 113.5 35.5t32.5 107.5v64q-21 -37 -62.5 -60.5t-89.5 -23.5
q-96 0 -153.5 63.5t-57.5 157.5t57.5 157.5t153.5 63.5q50 0 92 -23t63 -61v32q0 22 12.5 35t32.5 13q21 0 33.5 -13t12.5 -34v-364z" />
    <glyph glyph-name="h" unicode="h" horiz-adv-x="564" 
d="M494 39q0 -20 -12.5 -33.5t-34.5 -13.5q-21 0 -34 13.5t-13 33.5v200q0 55 -29.5 88.5t-83.5 33.5q-55 0 -86.5 -35t-31.5 -88v-199q0 -20 -13.5 -33.5t-33.5 -13.5q-21 0 -34 13.5t-13 33.5v587q0 22 13 35t34 13t34 -12t13 -36v-264q44 84 144 84q85 0 133 -56t48 -147
v-204z" />
    <glyph glyph-name="i" unicode="i" horiz-adv-x="244" 
d="M169 39q0 -20 -13 -33.5t-34 -13.5t-34 13.5t-13 33.5v356q0 20 13.5 33.5t33.5 13.5t33.5 -13.5t13.5 -33.5v-356zM67 565q0 23 16.5 39t38.5 16t38.5 -16t16.5 -39t-16.5 -39t-38.5 -16t-38.5 16t-16.5 39z" />
    <glyph glyph-name="j" unicode="j" horiz-adv-x="244" 
d="M169 -32q0 -82 -36.5 -122.5t-121.5 -40.5h-11q-16 0 -27.5 11.5t-11.5 27.5q0 17 11 28t28 11h2q42 0 57.5 18.5t15.5 60.5v433q0 20 13.5 33.5t33.5 13.5t33.5 -13.5t13.5 -33.5v-427zM67 565q0 23 16.5 39t38.5 16t38.5 -16t16.5 -39t-16.5 -39t-38.5 -16t-38.5 16
t-16.5 39z" />
    <glyph glyph-name="k" unicode="k" horiz-adv-x="498" 
d="M169 39q0 -20 -13 -33.5t-34 -13.5t-34 13.5t-13 33.5v588q0 20 13 33.5t34 13.5t34 -13.5t13 -33.5v-359l210 164q11 10 29 10q19 0 31 -12t12 -29q0 -19 -22 -36l-135 -105l154 -198q10 -13 10 -27q0 -18 -12 -30.5t-33 -12.5q-19 0 -32 18l-154 198l-58 -47v-122z" />
    <glyph glyph-name="l" unicode="l" horiz-adv-x="244" 
d="M169 39q0 -20 -13 -33.5t-34 -13.5t-34 13.5t-13 33.5v588q0 20 13 33.5t34 13.5t34 -13.5t13 -33.5v-588z" />
    <glyph glyph-name="m" unicode="m" horiz-adv-x="879" 
d="M809 39q0 -20 -13 -33.5t-34 -13.5q-20 0 -33.5 13.5t-13.5 33.5v200q0 55 -27 88.5t-80 33.5q-54 0 -86.5 -36t-32.5 -87v-199q0 -20 -13 -33.5t-34 -13.5t-34 13.5t-13 33.5v200q0 54 -28.5 88t-81.5 34q-55 0 -85.5 -35.5t-30.5 -87.5v-199q0 -20 -13 -33.5t-34 -13.5
q-20 0 -33.5 13.5t-13.5 33.5v355q0 21 13 34.5t34 13.5q23 0 35 -13.5t12 -34.5v-32q20 39 58 61.5t83 22.5q53 0 92.5 -24t60.5 -65q58 89 167 89q88 0 133.5 -54.5t45.5 -145.5v-207z" />
    <glyph glyph-name="n" unicode="n" horiz-adv-x="564" 
d="M494 39q0 -20 -12.5 -33.5t-34.5 -13.5q-21 0 -34 13.5t-13 33.5v200q0 55 -29.5 88.5t-83.5 33.5q-55 0 -86.5 -35t-31.5 -88v-199q0 -20 -13.5 -33.5t-33.5 -13.5q-21 0 -34 13.5t-13 33.5v355q0 22 13 35t34 13t34 -12t13 -36v-32q44 84 144 84q85 0 133 -56t48 -147
v-204z" />
    <glyph glyph-name="o" unicode="o" horiz-adv-x="552" 
d="M505 217q0 -97 -63.5 -163t-165.5 -66t-165.5 66t-63.5 163t63.5 163t165.5 66t165.5 -66t63.5 -163zM411 217q0 64 -36 106.5t-99 42.5t-99 -42.5t-36 -106.5t36 -106.5t99 -42.5t99 42.5t36 106.5z" />
    <glyph glyph-name="p" unicode="p" horiz-adv-x="579" 
d="M532 217q0 -101 -60.5 -165t-148.5 -64q-100 0 -154 86v-222q0 -20 -13 -33.5t-34 -13.5t-34 13.5t-13 33.5v543q0 20 12 33.5t33 13.5t33.5 -14t12.5 -34v-34q23 39 65 62.5t92 23.5q87 0 148 -65t61 -164zM438 217q0 68 -36.5 109.5t-97.5 41.5q-59 0 -97 -44.5
t-38 -106.5t38 -106.5t97 -44.5q61 0 97.5 41.5t36.5 109.5z" />
    <glyph glyph-name="q" unicode="q" horiz-adv-x="579" 
d="M47 217q0 99 61 164t148 65q50 0 92 -23.5t65 -62.5v34q0 20 12.5 34t33.5 14t33 -13.5t12 -33.5v-543q0 -20 -13 -33.5t-34 -13.5t-34 13.5t-13 33.5v222q-54 -86 -154 -86q-88 0 -148.5 64t-60.5 165zM141 217q0 -68 36.5 -109.5t97.5 -41.5q59 0 97 44.5t38 106.5
t-38 106.5t-97 44.5q-61 0 -97.5 -41.5t-36.5 -109.5z" />
    <glyph glyph-name="r" unicode="r" horiz-adv-x="352" 
d="M340 400q0 -19 -12.5 -31.5t-31.5 -12.5q-60 0 -93.5 -39t-33.5 -114v-164q0 -20 -13.5 -33.5t-33.5 -13.5q-22 0 -34.5 13.5t-12.5 33.5v355q0 21 13.5 34.5t34.5 13.5q20 0 33 -13t13 -35v-43q13 43 46.5 68t80.5 25q20 0 32 -12.5t12 -31.5z" />
    <glyph glyph-name="s" unicode="s" horiz-adv-x="462" 
d="M420 116q0 -57 -47 -92.5t-134 -35.5q-93 0 -159 51q-20 16 -20 39q0 15 10.5 24t25.5 9q18 0 37 -14q53 -39 113 -39q40 0 61.5 13.5t21.5 37.5t-21 37.5t-77 28.5q-91 25 -129.5 58.5t-38.5 88.5q0 56 48 90t129 34q66 0 124 -28q46 -22 46 -49q0 -35 -36 -35
q-15 0 -41 14q-43 23 -95 23q-84 0 -84 -48q0 -24 21 -36.5t81 -29.5q88 -25 126 -54.5t38 -86.5z" />
    <glyph glyph-name="t" unicode="t" horiz-adv-x="347" 
d="M222 39q0 -20 -13 -33.5t-34 -13.5t-34 13.5t-13 33.5v317h-76q-16 0 -27.5 11t-11.5 28t11.5 28t27.5 11h76v131q0 20 13 33.5t34 13.5t34 -13.5t13 -33.5v-131h86q16 0 27.5 -11t11.5 -28t-11.5 -28t-27.5 -11h-86v-317z" />
    <glyph glyph-name="u" unicode="u" horiz-adv-x="564" 
d="M70 395q0 20 12.5 33.5t34.5 13.5q21 0 34 -13.5t13 -33.5v-200q0 -55 29.5 -88.5t83.5 -33.5q55 0 86.5 35t31.5 88v199q0 20 13.5 33.5t33.5 13.5q21 0 34 -13.5t13 -33.5v-355q0 -22 -13 -35t-34 -13t-34 12t-13 36v32q-44 -84 -144 -84q-85 0 -133 56t-48 147v204z
" />
    <glyph glyph-name="v" unicode="v" horiz-adv-x="464" 
d="M107 416l125 -286l125 286q11 26 40 26q18 0 30 -12t12 -31q0 -9 -4 -18l-165 -364q-12 -25 -38 -25t-38 25l-165 364q-4 9 -4 18q0 19 12 31t30 12q29 0 40 -26z" />
    <glyph glyph-name="w" unicode="w" horiz-adv-x="675" 
d="M375 414l101 -271l88 269q10 30 38 30q18 0 30.5 -10.5t12.5 -29.5q0 -8 -4 -18l-123 -365q-10 -27 -39 -27q-30 0 -40 28l-102 277l-101 -277q-10 -28 -40 -28q-32 0 -39 27l-123 365q-4 10 -4 18q0 19 12.5 29.5t30.5 10.5q28 0 38 -30l88 -269l100 271q10 28 38 28
t38 -28z" />
    <glyph glyph-name="x" unicode="x" horiz-adv-x="500" 
d="M131 428l119 -148l119 148q12 14 31 14t31 -11.5t12 -29.5q0 -15 -11 -27l-131 -156l133 -157q11 -13 11 -28q0 -17 -12.5 -29t-29.5 -12q-21 0 -33 15l-120 149l-120 -149q-12 -15 -33 -15q-17 0 -29.5 12t-12.5 29q0 15 11 28l133 157l-131 156q-11 12 -11 27
q0 18 12 29.5t31 11.5t31 -14z" />
    <glyph glyph-name="y" unicode="y" horiz-adv-x="464" 
d="M439 399q0 -12 -4 -22q-62 -173 -132 -333q-39 -91 -80 -143.5t-105 -88.5q-10 -7 -24 -7q-18 0 -30 11.5t-12 26.5q0 24 24 39q43 28 67 55t47 70l-156 374q-4 12 -4 19q0 20 12 31t30 11q29 0 40 -26l128 -319l115 311q12 34 44 34q16 0 28 -10.5t12 -32.5z" />
    <glyph glyph-name="z" unicode="z" horiz-adv-x="482" 
d="M432 37q0 -16 -11.5 -26.5t-27.5 -10.5h-299q-16 0 -27.5 11.5t-11.5 25.5q0 17 10 30l240 291h-208q-16 0 -27.5 11t-11.5 28t11.5 27t27.5 10h291q19 0 30 -10.5t11 -28.5q0 -14 -10 -27l-241 -292h215q16 0 27.5 -10.5t11.5 -28.5z" />
    <glyph glyph-name="braceleft" unicode="{" horiz-adv-x="369" 
d="M239 153v-197q0 -31 29 -31h25q18 0 29.5 -11.5t11.5 -29.5t-11.5 -29t-29.5 -11h-43q-55 0 -80 27.5t-25 87.5v209q0 29 -13 42t-44 13h-6q-18 0 -30 11.5t-12 30.5t12 30.5t30 11.5h6q31 0 44 13t13 42v209q0 60 25 87.5t80 27.5h43q18 0 29.5 -11t11.5 -29
t-11.5 -29.5t-29.5 -11.5h-25q-29 0 -29 -31v-197q0 -104 -104 -112q104 -8 104 -112z" />
    <glyph glyph-name="bar" unicode="|" horiz-adv-x="292" 
d="M110 -162v861q0 15 10.5 25.5t25.5 10.5t25.5 -10.5t10.5 -25.5v-861q0 -15 -10.5 -25.5t-25.5 -10.5t-25.5 10.5t-10.5 25.5z" />
    <glyph glyph-name="braceright" unicode="}" horiz-adv-x="369" 
d="M130 -44v197q0 104 104 112q-104 8 -104 112v197q0 31 -29 31h-25q-18 0 -29.5 11.5t-11.5 29.5t11.5 29t29.5 11h43q55 0 80 -27.5t25 -87.5v-209q0 -29 13 -42t44 -13h6q18 0 30 -11.5t12 -30.5t-12 -30.5t-30 -11.5h-6q-31 0 -44 -13t-13 -42v-209q0 -60 -25 -87.5
t-80 -27.5h-43q-18 0 -29.5 11t-11.5 29t11.5 29.5t29.5 11.5h25q29 0 29 31z" />
    <glyph glyph-name="asciitilde" unicode="~" horiz-adv-x="528" 
d="M357 199q-45 0 -88 24q-5 3 -15.5 8.5t-13.5 7.5t-10.5 5.5t-10.5 4.5t-9 2.5t-11 2t-11 0.5q-29 0 -46 -23q-9 -14 -17 -22q-12 -14 -34 -14q-16 0 -26 10.5t-10 26.5q0 9 4 17q44 83 122 83q43 0 88 -24q8 -4 21.5 -11.5t17.5 -9.5t12.5 -5t14.5 -4t15 -1q28 0 45 22
q3 4 7.5 9.5t8.5 11.5q13 18 34 18q16 0 27 -11.5t11 -27.5q0 -9 -4 -17q-44 -83 -122 -83z" />
    <glyph glyph-name="nbspace" unicode="&#xa0;" horiz-adv-x="290" 
 />
    <glyph glyph-name="exclamdown" unicode="&#xa1;" horiz-adv-x="300" 
d="M173 243l24 -174v-217q0 -20 -13 -33.5t-34 -13.5t-34 13.5t-13 33.5v217l23 174q4 23 24 23q19 0 23 -23zM90 386q0 25 17.5 42.5t42.5 17.5t42.5 -17.5t17.5 -42.5t-17.5 -42.5t-42.5 -17.5t-42.5 17.5t-17.5 42.5z" />
    <glyph glyph-name="cent" unicode="&#xa2;" horiz-adv-x="558" 
d="M270 31v76q-89 13 -139.5 75.5t-50.5 150.5t50.5 150.5t139.5 75.5v76q0 18 11.5 30.5t31.5 12.5t31.5 -12.5t11.5 -30.5v-77q75 -14 113 -59q14 -16 14 -33q0 -16 -11.5 -27t-31.5 -11q-6 0 -12 2.5t-9.5 5t-10 8.5t-8.5 8q-36 31 -85 31q-67 0 -104 -43t-37 -107
t37 -107t104 -43q49 0 85 31q2 2 8.5 8t10 8.5t9.5 5t12 2.5q20 0 31.5 -11t11.5 -27q0 -17 -14 -33q-40 -47 -113 -59v-77q0 -18 -11.5 -30.5t-31.5 -12.5t-31.5 12.5t-11.5 30.5z" />
    <glyph glyph-name="sterling" unicode="&#xa3;" horiz-adv-x="672" 
d="M617 615q0 -18 -11 -29t-31 -11q-6 0 -18 4q-48 15 -105 15q-66 0 -95 -31t-29 -100v-91h213q17 0 28.5 -11t11.5 -28q0 -18 -11.5 -29t-28.5 -11h-213v-215h244q17 0 28.5 -10.5t11.5 -28.5q0 -17 -11.5 -28t-28.5 -11h-467q-17 0 -28.5 11t-11.5 28q0 18 11.5 28.5
t28.5 10.5h129v215h-117q-17 0 -28.5 11t-11.5 29t11.5 28.5t28.5 10.5h117v84q0 222 216 222q79 0 135 -24q32 -14 32 -39z" />
    <glyph glyph-name="currency" unicode="&#xa4;" horiz-adv-x="654" 
d="M457 515l66 67q10 10 25 10q16 0 26 -10t10 -25q0 -14 -11 -25l-67 -67q43 -57 43 -132q0 -74 -43 -133l67 -67q11 -9 11 -24t-10.5 -25.5t-25.5 -10.5q-14 0 -25 11l-66 67q-58 -40 -130 -40t-130 40l-66 -67q-11 -11 -25 -11q-15 0 -25.5 10.5t-10.5 25.5t11 24l67 67
q-43 59 -43 133q0 75 43 132l-67 67q-11 11 -11 25q0 15 10 25t26 10q15 0 25 -10l66 -67q58 40 130 40t130 -40zM194 333q0 -63 37 -103t96 -40t96 40t37 103t-37 103t-96 40t-96 -40t-37 -103z" />
    <glyph glyph-name="yen" unicode="&#xa5;" horiz-adv-x="608" 
d="M351 293v-51h147q14 0 24 -9.5t10 -23.5t-10 -23.5t-24 -9.5h-147v-136q0 -20 -12.5 -34t-34.5 -14t-34.5 14t-12.5 34v136h-147q-14 0 -24 9.5t-10 23.5t10 23.5t24 9.5h147v51l-21 33h-126q-14 0 -24 9.5t-10 23.5t10 23.5t24 9.5h84l-135 215q-9 13 -9 27
q0 19 12.5 29.5t29.5 10.5q25 0 40 -24l172 -280l172 280q15 24 40 24q17 0 29.5 -10.5t12.5 -29.5q0 -14 -9 -27l-136 -215h85q14 0 24 -9.5t10 -23.5t-10 -23.5t-24 -9.5h-126z" />
    <glyph glyph-name="brokenbar" unicode="&#xa6;" horiz-adv-x="292" 
d="M110 359v340q0 15 10.5 25.5t25.5 10.5t25.5 -10.5t10.5 -25.5v-340q0 -15 -10.5 -25.5t-25.5 -10.5t-25.5 10.5t-10.5 25.5zM110 -162v340q0 15 10.5 25.5t25.5 10.5t25.5 -10.5t10.5 -25.5v-340q0 -15 -10.5 -25.5t-25.5 -10.5t-25.5 10.5t-10.5 25.5z" />
    <glyph glyph-name="section" unicode="&#xa7;" horiz-adv-x="622" 
d="M547 258q0 -73 -77 -123q45 -39 45 -97q0 -63 -54 -105.5t-150 -42.5q-108 0 -197 60q-24 18 -24 42q0 14 10 24t27 10q21 0 43 -16q64 -43 145 -43q50 0 78 17.5t28 49.5q0 34 -30.5 53.5t-115.5 51.5q-5 2 -8 3q-105 39 -146 77t-41 98q0 79 83 119q-44 38 -44 100
q0 65 53.5 103.5t152.5 38.5q94 0 163 -42q30 -17 30 -43q0 -14 -9.5 -24t-26.5 -10q-11 0 -43 15q-57 27 -121 27q-105 0 -105 -64q0 -9 2 -16t4 -13t8 -12.5t10 -10.5t14 -9.5t15.5 -9t19.5 -9.5t21.5 -9l25 -10l27.5 -11q105 -43 146 -77.5t41 -91.5zM456 251
q0 34 -30 54.5t-115 52.5q-37 14 -84 34q-56 -26 -56 -70q0 -35 27.5 -53t117.5 -54q57 -23 87 -38q21 12 37 32.5t16 41.5z" />
    <glyph glyph-name="dieresis" unicode="&#xa8;" horiz-adv-x="384" 
d="M55 566q0 22 15 37t37 15t37 -15t15 -37t-15 -37t-37 -15t-37 15t-15 37zM225 566q0 22 15 37t37 15t37 -15t15 -37t-15 -37t-37 -15t-37 15t-15 37z" />
    <glyph glyph-name="copyright" unicode="&#xa9;" horiz-adv-x="802" 
d="M55 333q0 143 101 244t245 101t245 -101t101 -244t-101 -244t-245 -101t-245 101t-101 244zM112 333q0 -122 83 -208t206 -86t206 86t83 208t-83 208t-206 86t-206 -86t-83 -208zM415 503q78 0 128 -64q7 -9 7 -18q0 -22 -23 -22q-13 0 -20 9q-21 25 -41 36t-51 11
q-51 0 -83 -34.5t-32 -87.5t32 -87.5t83 -34.5q31 0 51 11t41 36q7 9 20 9q23 0 23 -22q0 -9 -7 -18q-50 -64 -128 -64q-75 0 -122 48t-47 122t47 122t122 48z" />
    <glyph glyph-name="ordfeminine" unicode="&#xaa;" horiz-adv-x="414" 
d="M342 407q0 -32 -31 -32q-14 0 -23 9t-9 23v2q-35 -37 -93 -37q-49 0 -80 25t-31 66q0 43 31.5 66.5t82.5 23.5q55 0 89 -30v32q0 38 -19 53.5t-60 15.5t-69 -13q-10 -5 -18 -5q-27 0 -27 26q0 16 23 27q34 19 96 19q66 0 102 -32.5t36 -93.5v-145zM278 462
q0 21 -20.5 34.5t-50.5 13.5q-32 0 -50.5 -12.5t-18.5 -34.5t19.5 -34.5t48.5 -12.5q30 0 51 13t21 33z" />
    <glyph glyph-name="guillemotleft" unicode="&#xab;" horiz-adv-x="591" 
d="M276 353q0 -13 -15 -28l-116 -111l116 -111q15 -15 15 -28q0 -17 -11.5 -28.5t-28.5 -11.5q-13 0 -26 11l-147 142q-13 13 -13 26t13 26l147 142q13 11 26 11q17 0 28.5 -11.5t11.5 -28.5zM516 353q0 -13 -15 -28l-116 -111l116 -111q15 -15 15 -28q0 -17 -11.5 -28.5
t-28.5 -11.5q-13 0 -26 11l-147 142q-13 13 -13 26t13 26l147 142q13 11 26 11q17 0 28.5 -11.5t11.5 -28.5z" />
    <glyph glyph-name="logicalnot" unicode="&#xac;" horiz-adv-x="615" 
d="M108 265q-16 0 -27 11t-11 27t11 27t27 11h374q16 0 27 -11t11 -27v-183q0 -18 -12 -30t-30 -12t-30 12t-12 30v145h-328z" />
    <glyph glyph-name="registered" unicode="&#xae;" horiz-adv-x="412" 
d="M40 512q0 70 47.5 118t118.5 48t118.5 -48t47.5 -118t-47.5 -118t-118.5 -48t-118.5 48t-47.5 118zM75 512q0 -55 35.5 -95t95.5 -40t95.5 40t35.5 95t-35.5 95t-95.5 40t-95.5 -40t-35.5 -95zM267 548q0 -32 -29 -44l31 -55q2 -4 2 -7q0 -11 -12 -11q-7 0 -11 8l-34 61
h-34v-57q0 -12 -12 -12t-12 12v141q0 12 12 12h46q26 0 39.5 -13t13.5 -35zM215 574h-35v-52h35q28 0 28 26t-28 26z" />
    <glyph glyph-name="macron" unicode="&#xaf;" horiz-adv-x="398" 
d="M88 523q-13 0 -23 9.5t-10 23.5t10 23.5t23 9.5h222q13 0 23 -9.5t10 -23.5t-10 -23.5t-23 -9.5h-222z" />
    <glyph glyph-name="degree" unicode="&#xb0;" horiz-adv-x="360" 
d="M305 555q0 -50 -35 -85.5t-90 -35.5t-90 35.5t-35 85.5t35 86.5t90 36.5t90 -36.5t35 -86.5zM180 488q29 0 46 19t17 48t-17 49t-46 20t-46 -20t-17 -49t17 -48t46 -19z" />
    <glyph glyph-name="plusminus" unicode="&#xb1;" horiz-adv-x="610" 
d="M118 73h374q16 0 27 -10t11 -26t-11 -26.5t-27 -10.5h-374q-16 0 -27 10.5t-11 26.5t10.5 26t27.5 10zM530 333q0 -16 -11 -27t-27 -11h-145v-135q0 -18 -12 -30t-30 -12t-30 12t-12 30v135h-145q-16 0 -27 11t-11 27t11 27t27 11h145v135q0 18 12 30t30 12t30 -12
t12 -30v-135h145q16 0 27 -11t11 -27z" />
    <glyph glyph-name="twosuperior" unicode="&#xb2;" horiz-adv-x="489" 
d="M286 422q-11 -6 -32 -17.5t-30 -17t-21.5 -14.5t-18 -17.5t-7.5 -19.5h201q15 0 25.5 -9.5t10.5 -25.5q0 -15 -10.5 -25t-25.5 -10h-251q-17 0 -27 10.5t-10 25.5q0 62 35 98.5t97 68.5q5 3 19 9.5t20 10t17.5 10t17.5 10.5t14 10.5t11.5 12t6.5 13t3 14.5q0 46 -73 46
q-46 0 -96 -23q-20 -9 -36.5 2t-16.5 29q0 22 29 36q61 29 125 29q69 0 107.5 -29t38.5 -85q0 -26 -8.5 -46.5t-30 -39t-36 -27.5t-48.5 -29z" />
    <glyph glyph-name="threesuperior" unicode="&#xb3;" horiz-adv-x="476" 
d="M160 478q0 15 10 24t25 9h36q38 0 56 15t18 38q0 22 -15.5 35.5t-42.5 13.5q-43 0 -92 -21q-8 -4 -17 -4q-13 0 -22 9t-9 21q0 24 29 37q53 23 108 23q66 0 102 -28t36 -80q0 -62 -67 -90q86 -18 86 -95q0 -52 -45 -88.5t-120 -36.5q-101 0 -154 55q-12 13 -12 27
q0 15 9.5 23.5t23.5 8.5q15 0 27 -11q44 -38 107 -38q39 0 63 18t24 45q0 58 -94 58h-35q-14 0 -24.5 8.5t-10.5 23.5z" />
    <glyph glyph-name="acute" unicode="&#xb4;" horiz-adv-x="327" 
d="M100 543q0 13 10 25l56 77q12 17 32 17q16 0 27.5 -10t11.5 -27q0 -14 -10 -26l-55 -75q-13 -18 -34 -18q-16 0 -27 11t-11 26z" />
    <glyph glyph-name="mu" unicode="&#xb5;" horiz-adv-x="564" 
d="M70 395q0 20 12.5 33.5t34.5 13.5q21 0 34 -13.5t13 -33.5v-200q0 -56 29 -89t84 -33t86.5 35t31.5 88v199q0 20 13.5 33.5t33.5 13.5q21 0 34 -13.5t13 -33.5v-355q0 -22 -13 -35t-34 -13t-34 12t-13 36v32q-44 -84 -144 -84q-46 0 -87 26v-162q0 -20 -13 -33.5
t-34 -13.5t-34 13.5t-13 33.5v543z" />
    <glyph glyph-name="paragraph" unicode="&#xb6;" horiz-adv-x="594" 
d="M55 476q0 82 57 136t138 54h210q16 0 27.5 -11t11.5 -28v-596q0 -17 -11.5 -28t-27.5 -11t-27.5 11t-11.5 28v559h-93v-746q0 -16 -11 -27.5t-28 -11.5t-28 11.5t-11 27.5v442q-81 0 -138 54t-57 136z" />
    <glyph glyph-name="periodcentered" unicode="&#xb7;" horiz-adv-x="260" 
d="M70 282q0 25 17.5 42.5t42.5 17.5t42.5 -17.5t17.5 -42.5t-17.5 -42.5t-42.5 -17.5t-42.5 17.5t-17.5 42.5z" />
    <glyph glyph-name="cedilla" unicode="&#xb8;" horiz-adv-x="317" 
d="M262 -115q0 -35 -27.5 -57.5t-81.5 -22.5q-36 0 -63 8q-30 9 -30 27q0 27 25 27q2 0 27 -5q20 -5 38 -5q42 0 42 26q0 22 -36 22q-11 0 -24.5 -2.5t-19.5 -2.5q-11 0 -18.5 5.5t-7.5 14.5q0 4 5 16l26 64h53l-20 -51q17 5 36 5q33 0 54.5 -18t21.5 -51z" />
    <glyph glyph-name="onesuperior" unicode="&#xb9;" horiz-adv-x="375" 
d="M187 303v286l-65 -20q-9 -3 -16 -3q-16 0 -26 10.5t-10 24.5q0 26 27 35l101 33q15 5 28 5q17 0 28 -11t11 -29v-331q0 -17 -11.5 -28t-27.5 -11t-27.5 11t-11.5 28z" />
    <glyph glyph-name="ordmasculine" unicode="&#xba;" horiz-adv-x="410" 
d="M360 525q0 -64 -44 -108.5t-111 -44.5t-111 44.5t-44 108.5t44 108.5t111 44.5t111 -44.5t44 -108.5zM112 525q0 -42 25.5 -70t67.5 -28t67.5 28t25.5 70t-25.5 70t-67.5 28t-67.5 -28t-25.5 -70z" />
    <glyph glyph-name="guillemotright" unicode="&#xbb;" horiz-adv-x="591" 
d="M315 353q0 17 11.5 28.5t28.5 11.5q13 0 26 -11l147 -142q13 -13 13 -26t-13 -26l-147 -142q-13 -11 -26 -11q-17 0 -28.5 11.5t-11.5 28.5q0 13 15 28l116 111l-116 111q-15 15 -15 28zM75 353q0 17 11.5 28.5t28.5 11.5q13 0 26 -11l147 -142q13 -13 13 -26t-13 -26
l-147 -142q-13 -11 -26 -11q-17 0 -28.5 11.5t-11.5 28.5q0 13 15 28l116 111l-116 111q-15 15 -15 28z" />
    <glyph glyph-name="onequarter" unicode="&#xbc;" horiz-adv-x="905" 
d="M559 167h127v134zM686 34v72h-186q-14 0 -24 8.5t-10 21.5q0 16 11 27q183 196 215 230q15 15 33 15q37 0 37 -42v-199h43q35 0 35 -30q0 -13 -9 -22t-26 -9h-43v-72q0 -16 -11 -27t-27 -11t-27 11t-11 27zM666 623l-411 -616q-13 -19 -33 -19q-14 0 -24.5 9t-10.5 23
q0 11 8 24l410 615q13 19 34 19q14 0 24.5 -9t10.5 -23q0 -10 -8 -23zM197 303v286l-65 -20q-9 -3 -16 -3q-16 0 -26 10.5t-10 24.5q0 26 27 35l101 33q15 5 28 5q17 0 28 -11t11 -29v-331q0 -17 -11.5 -28t-27.5 -11t-27.5 11t-11.5 28z" />
    <glyph glyph-name="onehalf" unicode="&#xbd;" horiz-adv-x="956" 
d="M666 623l-411 -616q-13 -19 -33 -19q-14 0 -24.5 9t-10.5 23q0 11 8 24l410 615q13 19 34 19q14 0 24.5 -9t10.5 -23q0 -10 -8 -23zM753 156q-11 -6 -32 -17.5t-30 -17t-21.5 -14.5t-18 -17.5t-7.5 -19.5h201q15 0 25.5 -9.5t10.5 -25.5q0 -15 -10.5 -25t-25.5 -10h-251
q-17 0 -27 10.5t-10 25.5q0 62 35 98.5t97 68.5q5 3 19 9.5t20 10t17.5 10t17.5 10.5t14 10.5t11.5 12t6.5 13t3 14.5q0 46 -73 46q-46 0 -96 -23q-20 -9 -36.5 2t-16.5 29q0 22 29 36q61 29 125 29q69 0 107.5 -29t38.5 -85q0 -26 -8.5 -46.5t-30 -39t-36 -27.5t-48.5 -29z
M197 303v286l-65 -20q-9 -3 -16 -3q-16 0 -26 10.5t-10 24.5q0 26 27 35l101 33q15 5 28 5q17 0 28 -11t11 -29v-331q0 -17 -11.5 -28t-27.5 -11t-27.5 11t-11.5 28z" />
    <glyph glyph-name="threequarters" unicode="&#xbe;" horiz-adv-x="1001" 
d="M160 478q0 15 10 24t25 9h36q38 0 56 15t18 38q0 22 -15.5 35.5t-42.5 13.5q-43 0 -92 -21q-8 -4 -17 -4q-13 0 -22 9t-9 21q0 24 29 37q53 23 108 23q66 0 102 -28t36 -80q0 -62 -67 -90q86 -18 86 -95q0 -52 -45 -88.5t-120 -36.5q-101 0 -154 55q-12 13 -12 27
q0 15 9.5 23.5t23.5 8.5q15 0 27 -11q44 -38 107 -38q39 0 63 18t24 45q0 58 -94 58h-35q-14 0 -24.5 8.5t-10.5 23.5zM655 167h127v134zM782 34v72h-186q-14 0 -24 8.5t-10 21.5q0 16 11 27q183 196 215 230q15 15 33 15q37 0 37 -42v-199h43q35 0 35 -30q0 -13 -9 -22
t-26 -9h-43v-72q0 -16 -11 -27t-27 -11t-27 11t-11 27zM762 623l-411 -616q-13 -19 -33 -19q-14 0 -24.5 9t-10.5 23q0 11 8 24l410 615q13 19 34 19q14 0 24.5 -9t10.5 -23q0 -10 -8 -23z" />
    <glyph glyph-name="questiondown" unicode="&#xbf;" horiz-adv-x="484" 
d="M449 -110q0 -22 -36 -43q-75 -42 -169 -42q-92 0 -148 38t-56 113q0 43 22 75.5t70 67.5q34 26 46 36t24 30t12 45v24q0 20 12.5 32t33.5 12q20 0 32 -12.5t12 -30.5v-27q0 -49 -20 -78t-67 -66q-6 -5 -19.5 -15t-18.5 -14.5t-14.5 -13t-13.5 -14t-9 -13.5t-6.5 -16.5
t-1.5 -18.5q0 -70 114 -70q65 0 138 36q12 5 23 5q17 0 28.5 -11t11.5 -29zM199 386q0 25 17.5 42.5t42.5 17.5t42.5 -17.5t17.5 -42.5t-17.5 -42.5t-42.5 -17.5t-42.5 17.5t-17.5 42.5z" />
    <glyph glyph-name="Agrave" unicode="&#xc0;" horiz-adv-x="710" 
d="M398 646l264 -589q5 -12 5 -20q0 -19 -12 -32t-33 -13q-31 0 -43 28l-67 146h-314l-67 -146q-12 -28 -43 -28q-21 0 -33 13t-12 32q0 8 5 20l264 589q12 28 43 28t43 -28zM477 251l-122 283l-122 -283h244zM384 766q0 -15 -11 -26.5t-26 -11.5q-21 0 -36 17l-47 55
q-12 14 -12 26q0 17 11 28.5t26 11.5q19 0 33 -16l49 -58q13 -15 13 -26z" />
    <glyph glyph-name="Aacute" unicode="&#xc1;" horiz-adv-x="710" 
d="M398 646l264 -589q5 -12 5 -20q0 -19 -12 -32t-33 -13q-31 0 -43 28l-67 146h-314l-67 -146q-12 -28 -43 -28q-21 0 -33 13t-12 32q0 8 5 20l264 589q12 28 43 28t43 -28zM477 251l-122 283l-122 -283h244zM312 766q0 11 13 26l49 58q14 16 33 16q15 0 26 -11.5t11 -28.5
q0 -12 -12 -26l-47 -55q-15 -17 -36 -17q-15 0 -26 11.5t-11 26.5z" />
    <glyph glyph-name="Acircumflex" unicode="&#xc2;" horiz-adv-x="710" 
d="M398 646l264 -589q5 -12 5 -20q0 -19 -12 -32t-33 -13q-31 0 -43 28l-67 146h-314l-67 -146q-12 -28 -43 -28q-21 0 -33 13t-12 32q0 8 5 20l264 589q12 28 43 28t43 -28zM477 251l-122 283l-122 -283h244zM379 860l90 -82q11 -11 11 -25q0 -13 -10 -22t-23 -9
q-12 0 -22 8l-70 64l-70 -64q-10 -8 -22 -8q-13 0 -23 9t-10 22q0 14 11 25l90 82q11 10 24 10t24 -10z" />
    <glyph glyph-name="Atilde" unicode="&#xc3;" horiz-adv-x="710" 
d="M398 646l264 -589q5 -12 5 -20q0 -19 -12 -32t-33 -13q-31 0 -43 28l-67 146h-314l-67 -146q-12 -28 -43 -28q-21 0 -33 13t-12 32q0 8 5 20l264 589q12 28 43 28t43 -28zM477 251l-122 283l-122 -283h244zM508 801q0 -27 -25 -48t-57 -21q-23 0 -75 21q-36 15 -54 15
q-19 0 -34 -18q-14 -17 -28 -17q-15 0 -25 8.5t-10 21.5q0 19 21 43q29 35 73 35q29 0 68 -17q49 -21 61 -21q15 0 29 16q12 14 24 14q13 0 22.5 -9t9.5 -23z" />
    <glyph glyph-name="Adieresis" unicode="&#xc4;" horiz-adv-x="710" 
d="M398 646l264 -589q5 -12 5 -20q0 -19 -12 -32t-33 -13q-31 0 -43 28l-67 146h-314l-67 -146q-12 -28 -43 -28q-21 0 -33 13t-12 32q0 8 5 20l264 589q12 28 43 28t43 -28zM477 251l-122 283l-122 -283h244zM210 781q0 22 15 37t37 15t37 -15t15 -37t-15 -37t-37 -15
t-37 15t-15 37zM397 781q0 22 15 37t37 15t37 -15t15 -37t-15 -37t-37 -15t-37 15t-15 37z" />
    <glyph glyph-name="Aring" unicode="&#xc5;" horiz-adv-x="710" 
d="M436 711q0 -44 -38 -67l264 -587q5 -12 5 -20q0 -19 -12 -32t-33 -13q-31 0 -43 28l-67 146h-314l-67 -146q-12 -28 -43 -28q-21 0 -33 13t-12 32q0 8 5 20l263 587q-37 23 -37 67q0 33 22.5 55t58.5 22t58.5 -22t22.5 -55zM477 251l-122 283l-122 -283h244zM320 711
q0 -16 9.5 -26t25.5 -10t25.5 10t9.5 26t-9.5 25.5t-25.5 9.5t-25.5 -9.5t-9.5 -25.5z" />
    <glyph glyph-name="AE" unicode="&#xc6;" horiz-adv-x="949" 
d="M355 666h497q19 0 32.5 -12.5t13.5 -31.5t-13.5 -31.5t-32.5 -12.5h-427l87 -193h200q18 0 31 -12.5t13 -31.5t-13 -31.5t-31 -12.5h-160l95 -209h220q19 0 32.5 -12t13.5 -32q0 -19 -13.5 -31.5t-32.5 -12.5h-249q-31 0 -43 28l-63 138h-314l-67 -146q-12 -28 -43 -28
q-21 0 -33 13t-12 32q0 8 5 20l264 581q12 28 43 28zM477 251l-122 275l-122 -275h244z" />
    <glyph glyph-name="Ccedilla" unicode="&#xc7;" horiz-adv-x="705" 
d="M388 678q80 0 146.5 -30.5t105.5 -79.5q13 -16 13 -34q0 -19 -12 -30.5t-31 -11.5q-23 0 -42 23q-68 76 -174 76q-117 0 -182 -73.5t-65 -184.5t65 -184.5t182 -73.5q106 0 174 76q19 23 42 23q19 0 31 -11.5t12 -30.5q0 -18 -13 -34q-37 -47 -98.5 -76.5t-136.5 -32.5
l-15 -40q17 5 36 5q33 0 54.5 -18t21.5 -51q0 -35 -27.5 -57.5t-81.5 -22.5q-36 0 -63 8q-30 9 -30 27q0 27 25 27q2 0 27 -5q20 -5 38 -5q42 0 42 26q0 22 -36 22q-11 0 -24.5 -2.5t-19.5 -2.5q-11 0 -18.5 5.5t-7.5 14.5q0 4 5 16q16 40 22 54q-138 12 -220.5 109.5
t-82.5 233.5q0 145 93 245t245 100z" />
    <glyph glyph-name="Egrave" unicode="&#xc8;" horiz-adv-x="605" 
d="M569 44q0 -19 -13.5 -31.5t-32.5 -12.5h-384q-21 0 -35 14t-14 34v570q0 20 14.5 34t34.5 14h369q19 0 32.5 -12.5t13.5 -31.5t-13.5 -31.5t-32.5 -12.5h-322v-193h182q18 0 31 -12.5t13 -31.5t-13 -31.5t-31 -12.5h-182v-209h337q19 0 32.5 -12t13.5 -32zM367 766
q0 -15 -11 -26.5t-26 -11.5q-21 0 -36 17l-47 55q-12 14 -12 26q0 17 11 28.5t26 11.5q19 0 33 -16l49 -58q13 -15 13 -26z" />
    <glyph glyph-name="Eacute" unicode="&#xc9;" horiz-adv-x="605" 
d="M569 44q0 -19 -13.5 -31.5t-32.5 -12.5h-384q-21 0 -35 14t-14 34v570q0 20 14.5 34t34.5 14h369q19 0 32.5 -12.5t13.5 -31.5t-13.5 -31.5t-32.5 -12.5h-322v-193h182q18 0 31 -12.5t13 -31.5t-13 -31.5t-31 -12.5h-182v-209h337q19 0 32.5 -12t13.5 -32zM271 766
q0 11 13 26l49 58q14 16 33 16q15 0 26 -11.5t11 -28.5q0 -12 -12 -26l-47 -55q-15 -17 -36 -17q-15 0 -26 11.5t-11 26.5z" />
    <glyph glyph-name="Ecircumflex" unicode="&#xca;" horiz-adv-x="605" 
d="M569 44q0 -19 -13.5 -31.5t-32.5 -12.5h-384q-21 0 -35 14t-14 34v570q0 20 14.5 34t34.5 14h369q19 0 32.5 -12.5t13.5 -31.5t-13.5 -31.5t-32.5 -12.5h-322v-193h182q18 0 31 -12.5t13 -31.5t-13 -31.5t-31 -12.5h-182v-209h337q19 0 32.5 -12t13.5 -32zM350 860
l90 -82q11 -11 11 -25q0 -13 -10 -22t-23 -9q-12 0 -22 8l-70 64l-70 -64q-10 -8 -22 -8q-13 0 -23 9t-10 22q0 14 11 25l90 82q11 10 24 10t24 -10z" />
    <glyph glyph-name="Edieresis" unicode="&#xcb;" horiz-adv-x="605" 
d="M569 44q0 -19 -13.5 -31.5t-32.5 -12.5h-384q-21 0 -35 14t-14 34v570q0 20 14.5 34t34.5 14h369q19 0 32.5 -12.5t13.5 -31.5t-13.5 -31.5t-32.5 -12.5h-322v-193h182q18 0 31 -12.5t13 -31.5t-13 -31.5t-31 -12.5h-182v-209h337q19 0 32.5 -12t13.5 -32zM180 781
q0 22 15 37t37 15t37 -15t15 -37t-15 -37t-37 -15t-37 15t-15 37zM367 781q0 22 15 37t37 15t37 -15t15 -37t-15 -37t-37 -15t-37 15t-15 37z" />
    <glyph glyph-name="Igrave" unicode="&#xcc;" horiz-adv-x="286" 
d="M191 41q0 -21 -13 -35t-34 -14t-35 14t-14 35v584q0 21 13.5 35t35.5 14q21 0 34 -13.5t13 -35.5v-584zM184 766q0 -15 -11 -26.5t-26 -11.5q-21 0 -36 17l-47 55q-12 14 -12 26q0 17 11 28.5t26 11.5q19 0 33 -16l49 -58q13 -15 13 -26z" />
    <glyph glyph-name="Iacute" unicode="&#xcd;" horiz-adv-x="286" 
d="M191 41q0 -21 -13 -35t-34 -14t-35 14t-14 35v584q0 21 13.5 35t35.5 14q21 0 34 -13.5t13 -35.5v-584zM97 766q0 11 13 26l49 58q14 16 33 16q15 0 26 -11.5t11 -28.5q0 -12 -12 -26l-47 -55q-15 -17 -36 -17q-15 0 -26 11.5t-11 26.5z" />
    <glyph glyph-name="Icircumflex" unicode="&#xce;" horiz-adv-x="286" 
d="M191 41q0 -21 -13 -35t-34 -14t-35 14t-14 35v584q0 21 13.5 35t35.5 14q21 0 34 -13.5t13 -35.5v-584zM167 860l90 -82q11 -11 11 -25q0 -13 -10 -22t-23 -9q-12 0 -22 8l-70 64l-70 -64q-10 -8 -22 -8q-13 0 -23 9t-10 22q0 14 11 25l90 82q11 10 24 10t24 -10z" />
    <glyph glyph-name="Idieresis" unicode="&#xcf;" horiz-adv-x="286" 
d="M191 41q0 -21 -13 -35t-34 -14t-35 14t-14 35v584q0 21 13.5 35t35.5 14q21 0 34 -13.5t13 -35.5v-584zM-2 781q0 22 15 37t37 15t37 -15t15 -37t-15 -37t-37 -15t-37 15t-15 37zM185 781q0 22 15 37t37 15t37 -15t15 -37t-15 -37t-37 -15t-37 15t-15 37z" />
    <glyph glyph-name="Eth" unicode="&#xd0;" horiz-adv-x="757" 
d="M707 333q0 -146 -91 -239.5t-243 -93.5h-185q-20 0 -34.5 14.5t-14.5 34.5v243h-64q-17 0 -29.5 12t-12.5 29q0 18 12.5 30t29.5 12h64v242q0 20 14.5 34.5t34.5 14.5h185q152 0 243 -93.5t91 -239.5zM611 333q0 110 -64 177.5t-177 67.5h-135v-203h117q17 0 29.5 -12
t12.5 -30q0 -17 -12.5 -29t-29.5 -12h-117v-204h135q113 0 177 67.5t64 177.5z" />
    <glyph glyph-name="Ntilde" unicode="&#xd1;" horiz-adv-x="736" 
d="M646 37q0 -19 -12 -32t-34 -13t-36 17l-383 488v-460q0 -19 -12.5 -32t-33.5 -13q-20 0 -32.5 13t-12.5 32v591q0 22 12.5 34t34.5 12t36 -19l382 -486v459q0 21 13 33.5t33 12.5t32.5 -12.5t12.5 -33.5v-591zM516 801q0 -27 -25 -48t-57 -21q-23 0 -75 21q-36 15 -54 15
q-19 0 -34 -18q-14 -17 -28 -17q-15 0 -25 8.5t-10 21.5q0 19 21 43q29 35 73 35q29 0 68 -17q49 -21 61 -21q15 0 29 16q12 14 24 14q13 0 22.5 -9t9.5 -23z" />
    <glyph glyph-name="Ograve" unicode="&#xd2;" horiz-adv-x="786" 
d="M731 333q0 -144 -94.5 -244.5t-243.5 -100.5t-243.5 100.5t-94.5 244.5t94.5 244.5t243.5 100.5t243.5 -100.5t94.5 -244.5zM635 333q0 108 -65 183t-177 75t-177 -75t-65 -183t65 -183t177 -75t177 75t65 183zM434 766q0 -15 -11 -26.5t-26 -11.5q-21 0 -36 17l-47 55
q-12 14 -12 26q0 17 11 28.5t26 11.5q19 0 33 -16l49 -58q13 -15 13 -26z" />
    <glyph glyph-name="Oacute" unicode="&#xd3;" horiz-adv-x="786" 
d="M731 333q0 -144 -94.5 -244.5t-243.5 -100.5t-243.5 100.5t-94.5 244.5t94.5 244.5t243.5 100.5t243.5 -100.5t94.5 -244.5zM635 333q0 108 -65 183t-177 75t-177 -75t-65 -183t65 -183t177 -75t177 75t65 183zM338 766q0 11 13 26l49 58q14 16 33 16q15 0 26 -11.5
t11 -28.5q0 -12 -12 -26l-47 -55q-15 -17 -36 -17q-15 0 -26 11.5t-11 26.5z" />
    <glyph glyph-name="Ocircumflex" unicode="&#xd4;" horiz-adv-x="786" 
d="M731 333q0 -144 -94.5 -244.5t-243.5 -100.5t-243.5 100.5t-94.5 244.5t94.5 244.5t243.5 100.5t243.5 -100.5t94.5 -244.5zM635 333q0 108 -65 183t-177 75t-177 -75t-65 -183t65 -183t177 -75t177 75t65 183zM417 860l90 -82q11 -11 11 -25q0 -13 -10 -22t-23 -9
q-12 0 -22 8l-70 64l-70 -64q-10 -8 -22 -8q-13 0 -23 9t-10 22q0 14 11 25l90 82q11 10 24 10t24 -10z" />
    <glyph glyph-name="Otilde" unicode="&#xd5;" horiz-adv-x="786" 
d="M731 333q0 -144 -94.5 -244.5t-243.5 -100.5t-243.5 100.5t-94.5 244.5t94.5 244.5t243.5 100.5t243.5 -100.5t94.5 -244.5zM635 333q0 108 -65 183t-177 75t-177 -75t-65 -183t65 -183t177 -75t177 75t65 183zM547 801q0 -27 -25 -48t-57 -21q-23 0 -75 21
q-36 15 -54 15q-19 0 -34 -18q-14 -17 -28 -17q-15 0 -25 8.5t-10 21.5q0 19 21 43q29 35 73 35q29 0 68 -17q49 -21 61 -21q15 0 29 16q12 14 24 14q13 0 22.5 -9t9.5 -23z" />
    <glyph glyph-name="Odieresis" unicode="&#xd6;" horiz-adv-x="786" 
d="M731 333q0 -144 -94.5 -244.5t-243.5 -100.5t-243.5 100.5t-94.5 244.5t94.5 244.5t243.5 100.5t243.5 -100.5t94.5 -244.5zM635 333q0 108 -65 183t-177 75t-177 -75t-65 -183t65 -183t177 -75t177 75t65 183zM248 781q0 22 15 37t37 15t37 -15t15 -37t-15 -37t-37 -15
t-37 15t-15 37zM435 781q0 22 15 37t37 15t37 -15t15 -37t-15 -37t-37 -15t-37 15t-15 37z" />
    <glyph glyph-name="multiply" unicode="&#xd7;" horiz-adv-x="504" 
d="M80 188q0 16 13 29l105 106l-103 102q-15 15 -15 35q0 14 11 24.5t28 10.5q15 0 35 -20l98 -97l98 97q20 20 35 20q17 0 28 -10.5t11 -24.5q0 -20 -15 -35l-103 -102l105 -106q13 -13 13 -29q0 -14 -12 -25t-29 -11q-15 0 -26 11l-105 106l-105 -106q-11 -11 -26 -11
q-17 0 -29 11t-12 25z" />
    <glyph glyph-name="Oslash" unicode="&#xd8;" horiz-adv-x="787" 
d="M63 -15l87 103q-95 98 -95 245q0 144 94.5 244.5t243.5 100.5q115 0 201 -64l86 101q11 13 23 13t20.5 -8t8.5 -21q0 -10 -7 -18l-88 -104q94 -100 94 -244t-94.5 -244.5t-243.5 -100.5q-114 0 -201 63l-87 -102q-9 -11 -22 -11q-11 0 -19.5 8.5t-8.5 19.5q0 9 8 19z
M151 333q0 -103 58 -175l328 388q-61 45 -144 45q-112 0 -177 -75t-65 -183zM635 333q0 103 -58 173l-328 -387q60 -44 144 -44q112 0 177 75t65 183z" />
    <glyph glyph-name="Ugrave" unicode="&#xd9;" horiz-adv-x="734" 
d="M367 -12q-131 0 -206 74.5t-75 203.5v359q0 21 13.5 35t35.5 14q21 0 34 -13.5t13 -35.5v-369q0 -83 48 -132t137 -49t137 49t48 132v369q0 22 13 35.5t34 13.5q22 0 35.5 -14t13.5 -35v-359q0 -129 -75 -203.5t-206 -74.5zM407 766q0 -15 -11 -26.5t-26 -11.5
q-21 0 -36 17l-47 55q-12 14 -12 26q0 17 11 28.5t26 11.5q19 0 33 -16l49 -58q13 -15 13 -26z" />
    <glyph glyph-name="Uacute" unicode="&#xda;" horiz-adv-x="734" 
d="M367 -12q-131 0 -206 74.5t-75 203.5v359q0 21 13.5 35t35.5 14q21 0 34 -13.5t13 -35.5v-369q0 -83 48 -132t137 -49t137 49t48 132v369q0 22 13 35.5t34 13.5q22 0 35.5 -14t13.5 -35v-359q0 -129 -75 -203.5t-206 -74.5zM319 766q0 11 13 26l49 58q14 16 33 16
q15 0 26 -11.5t11 -28.5q0 -12 -12 -26l-47 -55q-15 -17 -36 -17q-15 0 -26 11.5t-11 26.5z" />
    <glyph glyph-name="Ucircumflex" unicode="&#xdb;" horiz-adv-x="734" 
d="M367 -12q-131 0 -206 74.5t-75 203.5v359q0 21 13.5 35t35.5 14q21 0 34 -13.5t13 -35.5v-369q0 -83 48 -132t137 -49t137 49t48 132v369q0 22 13 35.5t34 13.5q22 0 35.5 -14t13.5 -35v-359q0 -129 -75 -203.5t-206 -74.5zM391 860l90 -82q11 -11 11 -25q0 -13 -10 -22
t-23 -9q-12 0 -22 8l-70 64l-70 -64q-10 -8 -22 -8q-13 0 -23 9t-10 22q0 14 11 25l90 82q11 10 24 10t24 -10z" />
    <glyph glyph-name="Udieresis" unicode="&#xdc;" horiz-adv-x="734" 
d="M367 -12q-131 0 -206 74.5t-75 203.5v359q0 21 13.5 35t35.5 14q21 0 34 -13.5t13 -35.5v-369q0 -83 48 -132t137 -49t137 49t48 132v369q0 22 13 35.5t34 13.5q22 0 35.5 -14t13.5 -35v-359q0 -129 -75 -203.5t-206 -74.5zM222 781q0 22 15 37t37 15t37 -15t15 -37
t-15 -37t-37 -15t-37 15t-15 37zM409 781q0 22 15 37t37 15t37 -15t15 -37t-15 -37t-37 -15t-37 15t-15 37z" />
    <glyph glyph-name="Yacute" unicode="&#xdd;" horiz-adv-x="596" 
d="M298 378l198 276q15 20 38 20q17 0 30.5 -12t13.5 -31q0 -14 -10 -29l-221 -309v-252q0 -21 -13.5 -35t-35.5 -14t-35.5 14t-13.5 35v252l-221 309q-10 15 -10 29q0 19 13.5 31t30.5 12q23 0 38 -20zM260 766q0 11 13 26l49 58q14 16 33 16q15 0 26 -11.5t11 -28.5
q0 -12 -12 -26l-47 -55q-15 -17 -36 -17q-15 0 -26 11.5t-11 26.5z" />
    <glyph glyph-name="Thorn" unicode="&#xde;" horiz-adv-x="652" 
d="M186 41q0 -21 -13 -35t-34 -14t-35 14t-14 35v584q0 21 13.5 35t35.5 14q21 0 34 -13.5t13 -35.5v-90h207q110 0 168.5 -54t58.5 -144q0 -89 -58 -142t-169 -53h-207v-101zM412 447h-226v-217h226q53 0 82.5 30.5t29.5 76.5q0 47 -29.5 78.5t-82.5 31.5z" />
    <glyph glyph-name="germandbls" unicode="&#xdf;" horiz-adv-x="643" 
d="M603 119q0 -56 -43.5 -93.5t-130.5 -37.5q-82 0 -136 36q-24 17 -24 37q0 16 10 26.5t27 10.5q9 0 35 -13q43 -25 92 -25q37 0 58.5 15t21.5 38q0 25 -18.5 41.5t-68.5 33.5q-71 25 -101 55t-30 75q0 47 53 109q20 23 29.5 35.5t18 29.5t8.5 32q0 36 -30 55.5t-80 19.5
q-120 0 -120 -120v-440q0 -20 -13 -33.5t-34 -13.5t-34 13.5t-13 33.5v435q0 97 55 150t159 53q94 0 147.5 -42.5t53.5 -112.5q0 -49 -51 -114q-6 -8 -17.5 -22t-15.5 -19.5t-10 -15t-8 -16t-2 -14.5q0 -19 17 -30.5t65 -32.5q7 -3 10 -4q66 -28 93 -58t27 -77z" />
    <glyph glyph-name="agrave" unicode="&#xe0;" horiz-adv-x="517" 
d="M449 39q0 -21 -12 -34t-34 -13q-21 0 -33.5 13.5t-12.5 33.5v9q-47 -60 -141 -60q-73 0 -119.5 37.5t-46.5 97.5q0 65 47.5 100.5t122.5 35.5q81 0 135 -51v43q0 60 -28 87.5t-92 27.5q-49 0 -99 -18q-24 -8 -31 -8q-18 0 -29 11t-11 28q0 27 44 45q55 22 134 22
q99 0 152.5 -49t53.5 -140v-218zM355 123q0 32 -32.5 51.5t-74.5 19.5q-48 0 -76 -19t-28 -52t28 -52t74 -19q45 0 77 20t32 51zM303 543q0 -15 -11.5 -26t-26.5 -11q-21 0 -34 18l-55 75q-10 12 -10 26q0 17 11.5 27t27.5 10q20 0 32 -17l56 -77q10 -12 10 -25z" />
    <glyph glyph-name="aacute" unicode="&#xe1;" horiz-adv-x="517" 
d="M449 39q0 -21 -12 -34t-34 -13q-21 0 -33.5 13.5t-12.5 33.5v9q-47 -60 -141 -60q-73 0 -119.5 37.5t-46.5 97.5q0 65 47.5 100.5t122.5 35.5q81 0 135 -51v43q0 60 -28 87.5t-92 27.5q-49 0 -99 -18q-24 -8 -31 -8q-18 0 -29 11t-11 28q0 27 44 45q55 22 134 22
q99 0 152.5 -49t53.5 -140v-218zM355 123q0 32 -32.5 51.5t-74.5 19.5q-48 0 -76 -19t-28 -52t28 -52t74 -19q45 0 77 20t32 51zM207 543q0 13 10 25l56 77q12 17 32 17q16 0 27.5 -10t11.5 -27q0 -14 -10 -26l-55 -75q-13 -18 -34 -18q-15 0 -26.5 11t-11.5 26z" />
    <glyph glyph-name="acircumflex" unicode="&#xe2;" horiz-adv-x="517" 
d="M449 39q0 -21 -12 -34t-34 -13q-21 0 -33.5 13.5t-12.5 33.5v9q-47 -60 -141 -60q-73 0 -119.5 37.5t-46.5 97.5q0 65 47.5 100.5t122.5 35.5q81 0 135 -51v43q0 60 -28 87.5t-92 27.5q-49 0 -99 -18q-24 -8 -31 -8q-18 0 -29 11t-11 28q0 27 44 45q55 22 134 22
q99 0 152.5 -49t53.5 -140v-218zM355 123q0 32 -32.5 51.5t-74.5 19.5q-48 0 -76 -19t-28 -52t28 -52t74 -19q45 0 77 20t32 51zM283 645l97 -87q11 -11 11 -25q0 -13 -10 -22t-23 -9q-12 0 -22 8l-77 70l-77 -70q-10 -8 -22 -8q-13 0 -23 9t-10 22q0 14 11 25l97 87
q11 10 24 10t24 -10z" />
    <glyph glyph-name="atilde" unicode="&#xe3;" horiz-adv-x="517" 
d="M449 39q0 -21 -12 -34t-34 -13q-21 0 -33.5 13.5t-12.5 33.5v9q-47 -60 -141 -60q-73 0 -119.5 37.5t-46.5 97.5q0 65 47.5 100.5t122.5 35.5q81 0 135 -51v43q0 60 -28 87.5t-92 27.5q-49 0 -99 -18q-24 -8 -31 -8q-18 0 -29 11t-11 28q0 27 44 45q55 22 134 22
q99 0 152.5 -49t53.5 -140v-218zM355 123q0 32 -32.5 51.5t-74.5 19.5q-48 0 -76 -19t-28 -52t28 -52t74 -19q45 0 77 20t32 51zM403 576q0 -26 -26 -47t-55 -21q-23 0 -71 21q-35 15 -47 15q-18 0 -32 -15q-18 -20 -30 -20q-14 0 -24 8.5t-10 20.5q0 16 21 42q26 33 64 33
q27 0 70 -18q42 -18 54 -18q17 0 31 15t23 15q13 0 22.5 -8.5t9.5 -22.5z" />
    <glyph glyph-name="adieresis" unicode="&#xe4;" horiz-adv-x="517" 
d="M449 39q0 -21 -12 -34t-34 -13q-21 0 -33.5 13.5t-12.5 33.5v9q-47 -60 -141 -60q-73 0 -119.5 37.5t-46.5 97.5q0 65 47.5 100.5t122.5 35.5q81 0 135 -51v43q0 60 -28 87.5t-92 27.5q-49 0 -99 -18q-24 -8 -31 -8q-18 0 -29 11t-11 28q0 27 44 45q55 22 134 22
q99 0 152.5 -49t53.5 -140v-218zM355 123q0 32 -32.5 51.5t-74.5 19.5q-48 0 -76 -19t-28 -52t28 -52t74 -19q45 0 77 20t32 51zM124 566q0 22 15 37t37 15t37 -15t15 -37t-15 -37t-37 -15t-37 15t-15 37zM294 566q0 22 15 37t37 15t37 -15t15 -37t-15 -37t-37 -15t-37 15
t-15 37z" />
    <glyph glyph-name="aring" unicode="&#xe5;" horiz-adv-x="517" 
d="M449 39q0 -21 -12 -34t-34 -13q-21 0 -33.5 13.5t-12.5 33.5v9q-47 -60 -141 -60q-73 0 -119.5 37.5t-46.5 97.5q0 65 47.5 100.5t122.5 35.5q81 0 135 -51v43q0 60 -28 87.5t-92 27.5q-49 0 -99 -18q-24 -8 -31 -8q-18 0 -29 11t-11 28q0 27 44 45q55 22 134 22
q99 0 152.5 -49t53.5 -140v-218zM355 123q0 32 -32.5 51.5t-74.5 19.5q-48 0 -76 -19t-28 -52t28 -52t74 -19q45 0 77 20t32 51zM336 566q0 -33 -23 -55.5t-59 -22.5t-59 22.5t-23 55.5t23 55t59 22t59 -22t23 -55zM219 566q0 -16 9.5 -26.5t25.5 -10.5t25.5 10.5t9.5 26.5
t-9.5 26t-25.5 10t-25.5 -10t-9.5 -26z" />
    <glyph glyph-name="ae" unicode="&#xe6;" horiz-adv-x="836" 
d="M580 446q92 0 150 -66t58 -164q0 -13 -8.5 -22t-25.5 -9h-301q3 -54 38.5 -88t95.5 -34q71 0 117 49q15 15 31 15q19 0 28.5 -11t9.5 -26q0 -13 -12 -28q-66 -74 -177 -74q-59 0 -105.5 23t-68.5 61q-62 -84 -185 -84q-80 0 -127.5 37.5t-47.5 97.5q0 65 47 100t123 35
q86 0 135 -51v44q0 60 -28 87.5t-92 27.5q-54 0 -99 -18q-20 -8 -31 -8q-18 0 -29 11t-11 28q0 27 44 45q53 22 134 22q113 0 163 -83q60 83 174 83zM702 258q-5 48 -38.5 81t-83.5 33q-51 0 -85.5 -32.5t-39.5 -81.5h247zM355 123q0 30 -31.5 50.5t-76.5 20.5
q-48 0 -76 -19t-28 -52t30 -52.5t74 -19.5q46 0 77 20.5t31 51.5z" />
    <glyph glyph-name="ccedilla" unicode="&#xe7;" horiz-adv-x="489" 
d="M282 446q46 0 89 -18t66 -45q14 -16 14 -33q0 -16 -11.5 -27t-31.5 -11q-6 0 -12 2.5t-9.5 5t-10 8.5t-8.5 8q-36 31 -85 31q-67 0 -104 -43t-37 -107t37 -107t104 -43q49 0 85 31q2 2 8.5 8t10 8.5t9.5 5t12 2.5q20 0 31.5 -11t11.5 -27q0 -17 -14 -33
q-21 -26 -60.5 -43.5t-83.5 -19.5l-15 -39q17 5 36 5q33 0 54.5 -18t21.5 -51q0 -35 -27.5 -57.5t-81.5 -22.5q-36 0 -63 8q-30 9 -30 27q0 27 25 27q2 0 27 -5q20 -5 38 -5q42 0 42 26q0 22 -36 22q-11 0 -24.5 -2.5t-19.5 -2.5q-11 0 -18.5 5.5t-7.5 14.5q0 4 5 16l22 55
q-90 12 -141.5 74.5t-51.5 151.5q0 99 63.5 164t170.5 65z" />
    <glyph glyph-name="egrave" unicode="&#xe8;" horiz-adv-x="527" 
d="M271 446q93 0 150.5 -66t57.5 -164q0 -32 -36 -32h-299q4 -54 39.5 -87.5t95.5 -33.5q64 0 116 49q15 15 31 15t27.5 -11t11.5 -28q0 -13 -12 -27q-29 -33 -76.5 -53t-101.5 -20q-108 0 -168 65.5t-60 163.5t63.5 163.5t160.5 65.5zM392 260q-6 47 -39 79t-82 32
q-50 0 -84 -31.5t-41 -79.5h246zM314 543q0 -15 -11 -26t-27 -11q-21 0 -34 18l-55 75q-10 12 -10 26q0 17 11.5 27t27.5 10q20 0 32 -17l56 -77q10 -12 10 -25z" />
    <glyph glyph-name="eacute" unicode="&#xe9;" horiz-adv-x="527" 
d="M271 446q93 0 150.5 -66t57.5 -164q0 -32 -36 -32h-299q4 -54 39.5 -87.5t95.5 -33.5q64 0 116 49q15 15 31 15t27.5 -11t11.5 -28q0 -13 -12 -27q-29 -33 -76.5 -53t-101.5 -20q-108 0 -168 65.5t-60 163.5t63.5 163.5t160.5 65.5zM392 260q-6 47 -39 79t-82 32
q-50 0 -84 -31.5t-41 -79.5h246zM211 543q0 13 10 25l56 77q12 17 32 17q16 0 27.5 -10t11.5 -27q0 -14 -10 -26l-55 -75q-13 -18 -34 -18q-15 0 -26.5 11t-11.5 26z" />
    <glyph glyph-name="ecircumflex" unicode="&#xea;" horiz-adv-x="527" 
d="M271 446q93 0 150.5 -66t57.5 -164q0 -32 -36 -32h-299q4 -54 39.5 -87.5t95.5 -33.5q64 0 116 49q15 15 31 15t27.5 -11t11.5 -28q0 -13 -12 -27q-29 -33 -76.5 -53t-101.5 -20q-108 0 -168 65.5t-60 163.5t63.5 163.5t160.5 65.5zM392 260q-6 47 -39 79t-82 32
q-50 0 -84 -31.5t-41 -79.5h246zM297 645l97 -87q11 -11 11 -25q0 -13 -10 -22t-23 -9q-12 0 -22 8l-77 70l-77 -70q-10 -8 -22 -8q-13 0 -23 9t-10 22q0 14 11 25l97 87q11 10 24 10t24 -10z" />
    <glyph glyph-name="edieresis" unicode="&#xeb;" horiz-adv-x="527" 
d="M271 446q93 0 150.5 -66t57.5 -164q0 -32 -36 -32h-299q4 -54 39.5 -87.5t95.5 -33.5q64 0 116 49q15 15 31 15t27.5 -11t11.5 -28q0 -13 -12 -27q-29 -33 -76.5 -53t-101.5 -20q-108 0 -168 65.5t-60 163.5t63.5 163.5t160.5 65.5zM392 260q-6 47 -39 79t-82 32
q-50 0 -84 -31.5t-41 -79.5h246zM136 566q0 22 15 37t37 15t37 -15t15 -37t-15 -37t-37 -15t-37 15t-15 37zM306 566q0 22 15 37t37 15t37 -15t15 -37t-15 -37t-37 -15t-37 15t-15 37z" />
    <glyph glyph-name="igrave" unicode="&#xec;" horiz-adv-x="244" 
d="M169 39q0 -20 -13 -33.5t-34 -13.5t-34 13.5t-13 33.5v356q0 20 13.5 33.5t33.5 13.5t33.5 -13.5t13.5 -33.5v-356zM162 543q0 -15 -11 -26t-27 -11q-21 0 -34 18l-55 75q-10 12 -10 26q0 17 11.5 27t27.5 10q20 0 32 -17l56 -77q10 -12 10 -25z" />
    <glyph glyph-name="iacute" unicode="&#xed;" horiz-adv-x="244" 
d="M169 39q0 -20 -13 -33.5t-34 -13.5t-34 13.5t-13 33.5v356q0 20 13.5 33.5t33.5 13.5t33.5 -13.5t13.5 -33.5v-356zM78 543q0 13 10 25l56 77q12 17 32 17q16 0 27.5 -10t11.5 -27q0 -14 -10 -26l-55 -75q-13 -18 -34 -18q-16 0 -27 11t-11 26z" />
    <glyph glyph-name="icircumflex" unicode="&#xee;" horiz-adv-x="244" 
d="M169 39q0 -20 -13 -33.5t-34 -13.5t-34 13.5t-13 33.5v356q0 20 13.5 33.5t33.5 13.5t33.5 -13.5t13.5 -33.5v-356zM146 645l97 -87q11 -11 11 -25q0 -13 -10 -22t-23 -9q-12 0 -22 8l-77 70l-77 -70q-10 -8 -22 -8q-13 0 -23 9t-10 22q0 14 11 25l97 87q11 10 24 10
t24 -10z" />
    <glyph glyph-name="idieresis" unicode="&#xef;" horiz-adv-x="244" 
d="M169 39q0 -20 -13 -33.5t-34 -13.5t-34 13.5t-13 33.5v356q0 20 13.5 33.5t33.5 13.5t33.5 -13.5t13.5 -33.5v-356zM-15 566q0 22 15 37t37 15t37 -15t15 -37t-15 -37t-37 -15t-37 15t-15 37zM155 566q0 22 15 37t37 15t37 -15t15 -37t-15 -37t-37 -15t-37 15t-15 37z
" />
    <glyph glyph-name="eth" unicode="&#xf0;" horiz-adv-x="548" 
d="M390 655q13 0 23 -8.5t10 -23.5t-11 -26l-37 -33q125 -128 125 -331q0 -100 -58.5 -172.5t-171.5 -72.5q-103 0 -161.5 60.5t-58.5 149.5q0 93 60.5 151.5t154.5 58.5q85 0 142 -53q-27 97 -90 158l-57 -50q-11 -8 -22 -8q-13 0 -23 10t-10 23q0 15 12 25l48 43
q-17 11 -87 52q-19 11 -19 32q0 17 10.5 27.5t27.5 10.5q11 0 27 -7q56 -27 101 -62l42 37q9 9 23 9zM408 198q0 62 -37.5 97.5t-98.5 35.5t-96 -37.5t-35 -95.5q0 -59 34 -96.5t96 -37.5q63 0 100 38t37 96z" />
    <glyph glyph-name="ntilde" unicode="&#xf1;" horiz-adv-x="564" 
d="M494 39q0 -20 -12.5 -33.5t-34.5 -13.5q-21 0 -34 13.5t-13 33.5v200q0 55 -29.5 88.5t-83.5 33.5q-55 0 -86.5 -35t-31.5 -88v-199q0 -20 -13.5 -33.5t-33.5 -13.5q-21 0 -34 13.5t-13 33.5v355q0 22 13 35t34 13t34 -12t13 -36v-32q44 84 144 84q85 0 133 -56t48 -147
v-204zM427 576q0 -26 -26 -47t-55 -21q-23 0 -71 21q-35 15 -47 15q-18 0 -32 -15q-18 -20 -30 -20q-14 0 -24 8.5t-10 20.5q0 16 21 42q26 33 64 33q27 0 70 -18q42 -18 54 -18q17 0 31 15t23 15q13 0 22.5 -8.5t9.5 -22.5z" />
    <glyph glyph-name="ograve" unicode="&#xf2;" horiz-adv-x="552" 
d="M505 217q0 -97 -63.5 -163t-165.5 -66t-165.5 66t-63.5 163t63.5 163t165.5 66t165.5 -66t63.5 -163zM411 217q0 64 -36 106.5t-99 42.5t-99 -42.5t-36 -106.5t36 -106.5t99 -42.5t99 42.5t36 106.5zM323 543q0 -15 -11.5 -26t-26.5 -11q-21 0 -34 18l-55 75
q-10 12 -10 26q0 17 11.5 27t27.5 10q20 0 32 -17l56 -77q10 -12 10 -25z" />
    <glyph glyph-name="oacute" unicode="&#xf3;" horiz-adv-x="552" 
d="M505 217q0 -97 -63.5 -163t-165.5 -66t-165.5 66t-63.5 163t63.5 163t165.5 66t165.5 -66t63.5 -163zM411 217q0 64 -36 106.5t-99 42.5t-99 -42.5t-36 -106.5t36 -106.5t99 -42.5t99 42.5t36 106.5zM223 543q0 13 10 25l56 77q12 17 32 17q16 0 27.5 -10t11.5 -27
q0 -14 -10 -26l-55 -75q-13 -18 -34 -18q-15 0 -26.5 11t-11.5 26z" />
    <glyph glyph-name="ocircumflex" unicode="&#xf4;" horiz-adv-x="552" 
d="M505 217q0 -97 -63.5 -163t-165.5 -66t-165.5 66t-63.5 163t63.5 163t165.5 66t165.5 -66t63.5 -163zM411 217q0 64 -36 106.5t-99 42.5t-99 -42.5t-36 -106.5t36 -106.5t99 -42.5t99 42.5t36 106.5zM300 645l97 -87q11 -11 11 -25q0 -13 -10 -22t-23 -9q-12 0 -22 8
l-77 70l-77 -70q-10 -8 -22 -8q-13 0 -23 9t-10 22q0 14 11 25l97 87q11 10 24 10t24 -10z" />
    <glyph glyph-name="otilde" unicode="&#xf5;" horiz-adv-x="552" 
d="M505 217q0 -97 -63.5 -163t-165.5 -66t-165.5 66t-63.5 163t63.5 163t165.5 66t165.5 -66t63.5 -163zM411 217q0 64 -36 106.5t-99 42.5t-99 -42.5t-36 -106.5t36 -106.5t99 -42.5t99 42.5t36 106.5zM425 576q0 -26 -26 -47t-55 -21q-23 0 -71 21q-35 15 -47 15
q-18 0 -32 -15q-18 -20 -30 -20q-14 0 -24 8.5t-10 20.5q0 16 21 42q26 33 64 33q27 0 70 -18q42 -18 54 -18q17 0 31 15t23 15q13 0 22.5 -8.5t9.5 -22.5z" />
    <glyph glyph-name="odieresis" unicode="&#xf6;" horiz-adv-x="552" 
d="M505 217q0 -97 -63.5 -163t-165.5 -66t-165.5 66t-63.5 163t63.5 163t165.5 66t165.5 -66t63.5 -163zM411 217q0 64 -36 106.5t-99 42.5t-99 -42.5t-36 -106.5t36 -106.5t99 -42.5t99 42.5t36 106.5zM139 566q0 22 15 37t37 15t37 -15t15 -37t-15 -37t-37 -15t-37 15
t-15 37zM309 566q0 22 15 37t37 15t37 -15t15 -37t-15 -37t-37 -15t-37 15t-15 37z" />
    <glyph glyph-name="divide" unicode="&#xf7;" horiz-adv-x="590" 
d="M515 332q0 -16 -11 -27t-27 -11h-364q-16 0 -27 11t-11 27t11 27t27 11h364q16 0 27 -11t11 -27zM243 507q0 22 15 37t37 15t37 -15t15 -37t-15 -37t-37 -15t-37 15t-15 37zM243 157q0 22 15 37t37 15t37 -15t15 -37t-15 -37t-37 -15t-37 15t-15 37z" />
    <glyph glyph-name="oslash" unicode="&#xf8;" horiz-adv-x="554" 
d="M56 -20l57 72q-65 63 -65 165q0 97 63.5 163t165.5 66q67 0 124 -34l57 72q10 12 20 12q11 0 19.5 -6.5t8.5 -19.5q0 -7 -8 -17l-57 -72q65 -65 65 -164q0 -97 -63.5 -163t-165.5 -66q-69 0 -124 33l-58 -73q-9 -10 -21 -10q-10 0 -17.5 7t-8.5 17q0 7 8 18zM142 217
q0 -56 27 -95l179 225q-30 19 -71 19q-63 0 -99 -42.5t-36 -106.5zM412 217q0 55 -27 94l-179 -225q28 -18 71 -18q63 0 99 42.5t36 106.5z" />
    <glyph glyph-name="ugrave" unicode="&#xf9;" horiz-adv-x="564" 
d="M70 395q0 20 12.5 33.5t34.5 13.5q21 0 34 -13.5t13 -33.5v-200q0 -55 29.5 -88.5t83.5 -33.5q55 0 86.5 35t31.5 88v199q0 20 13.5 33.5t33.5 13.5q21 0 34 -13.5t13 -33.5v-355q0 -22 -13 -35t-34 -13t-34 12t-13 36v32q-44 -84 -144 -84q-85 0 -133 56t-48 147v204z
M325 543q0 -15 -11.5 -26t-26.5 -11q-21 0 -34 18l-55 75q-10 12 -10 26q0 17 11.5 27t27.5 10q20 0 32 -17l56 -77q10 -12 10 -25z" />
    <glyph glyph-name="uacute" unicode="&#xfa;" horiz-adv-x="564" 
d="M70 395q0 20 12.5 33.5t34.5 13.5q21 0 34 -13.5t13 -33.5v-200q0 -55 29.5 -88.5t83.5 -33.5q55 0 86.5 35t31.5 88v199q0 20 13.5 33.5t33.5 13.5q21 0 34 -13.5t13 -33.5v-355q0 -22 -13 -35t-34 -13t-34 12t-13 36v32q-44 -84 -144 -84q-85 0 -133 56t-48 147v204z
M227 543q0 13 10 25l56 77q12 17 32 17q16 0 27.5 -10t11.5 -27q0 -14 -10 -26l-55 -75q-13 -18 -34 -18q-15 0 -26.5 11t-11.5 26z" />
    <glyph glyph-name="ucircumflex" unicode="&#xfb;" horiz-adv-x="564" 
d="M70 395q0 20 12.5 33.5t34.5 13.5q21 0 34 -13.5t13 -33.5v-200q0 -55 29.5 -88.5t83.5 -33.5q55 0 86.5 35t31.5 88v199q0 20 13.5 33.5t33.5 13.5q21 0 34 -13.5t13 -33.5v-355q0 -22 -13 -35t-34 -13t-34 12t-13 36v32q-44 -84 -144 -84q-85 0 -133 56t-48 147v204z
M307 645l97 -87q11 -11 11 -25q0 -13 -10 -22t-23 -9q-12 0 -22 8l-77 70l-77 -70q-10 -8 -22 -8q-13 0 -23 9t-10 22q0 14 11 25l97 87q11 10 24 10t24 -10z" />
    <glyph glyph-name="udieresis" unicode="&#xfc;" horiz-adv-x="564" 
d="M70 395q0 20 12.5 33.5t34.5 13.5q21 0 34 -13.5t13 -33.5v-200q0 -55 29.5 -88.5t83.5 -33.5q55 0 86.5 35t31.5 88v199q0 20 13.5 33.5t33.5 13.5q21 0 34 -13.5t13 -33.5v-355q0 -22 -13 -35t-34 -13t-34 12t-13 36v32q-44 -84 -144 -84q-85 0 -133 56t-48 147v204z
M144 566q0 22 15 37t37 15t37 -15t15 -37t-15 -37t-37 -15t-37 15t-15 37zM314 566q0 22 15 37t37 15t37 -15t15 -37t-15 -37t-37 -15t-37 15t-15 37z" />
    <glyph glyph-name="yacute" unicode="&#xfd;" horiz-adv-x="464" 
d="M439 399q0 -12 -4 -22q-62 -173 -132 -333q-39 -91 -80 -143.5t-105 -88.5q-10 -7 -24 -7q-18 0 -30 11.5t-12 26.5q0 24 24 39q43 28 67 55t47 70l-156 374q-4 12 -4 19q0 20 12 31t30 11q29 0 40 -26l128 -319l115 311q12 34 44 34q16 0 28 -10.5t12 -32.5zM181 543
q0 13 10 25l56 77q12 17 32 17q16 0 27.5 -10t11.5 -27q0 -14 -10 -26l-55 -75q-13 -18 -34 -18q-15 0 -26.5 11t-11.5 26z" />
    <glyph glyph-name="thorn" unicode="&#xfe;" horiz-adv-x="580" 
d="M532 217q0 -101 -60.5 -165t-148.5 -64q-100 0 -154 86v-222q0 -20 -13 -33.5t-34 -13.5t-34 13.5t-13 33.5v775q0 20 12 33.5t33 13.5t33.5 -14t12.5 -34v-266q23 39 65 62.5t92 23.5q87 0 148 -65t61 -164zM438 217q0 68 -36.5 109.5t-97.5 41.5q-59 0 -97 -44.5
t-38 -106.5t38 -106.5t97 -44.5q61 0 97.5 41.5t36.5 109.5z" />
    <glyph glyph-name="ydieresis" unicode="&#xff;" horiz-adv-x="464" 
d="M439 399q0 -12 -4 -22q-62 -173 -132 -333q-39 -91 -80 -143.5t-105 -88.5q-10 -7 -24 -7q-18 0 -30 11.5t-12 26.5q0 24 24 39q43 28 67 55t47 70l-156 374q-4 12 -4 19q0 20 12 31t30 11q29 0 40 -26l128 -319l115 311q12 34 44 34q16 0 28 -10.5t12 -32.5zM101 566
q0 22 15 37t37 15t37 -15t15 -37t-15 -37t-37 -15t-37 15t-15 37zM271 566q0 22 15 37t37 15t37 -15t15 -37t-15 -37t-37 -15t-37 15t-15 37z" />
    <glyph glyph-name="Amacron" unicode="&#x100;" horiz-adv-x="710" 
d="M398 646l264 -589q5 -12 5 -20q0 -19 -12 -32t-33 -13q-31 0 -43 28l-67 146h-314l-67 -146q-12 -28 -43 -28q-21 0 -33 13t-12 32q0 8 5 20l264 589q12 28 43 28t43 -28zM477 251l-122 283l-122 -283h244zM238 746q-13 0 -23.5 9.5t-10.5 25.5t10.5 25.5t23.5 9.5h235
q13 0 23.5 -9.5t10.5 -25.5t-10.5 -25.5t-23.5 -9.5h-235z" />
    <glyph glyph-name="amacron" unicode="&#x101;" horiz-adv-x="517" 
d="M449 39q0 -21 -12 -34t-34 -13q-21 0 -33.5 13.5t-12.5 33.5v9q-47 -60 -141 -60q-73 0 -119.5 37.5t-46.5 97.5q0 65 47.5 100.5t122.5 35.5q81 0 135 -51v43q0 60 -28 87.5t-92 27.5q-49 0 -99 -18q-24 -8 -31 -8q-18 0 -29 11t-11 28q0 27 44 45q55 22 134 22
q99 0 152.5 -49t53.5 -140v-218zM355 123q0 32 -32.5 51.5t-74.5 19.5q-48 0 -76 -19t-28 -52t28 -52t74 -19q45 0 77 20t32 51zM147 523q-13 0 -23 9.5t-10 23.5t10 23.5t23 9.5h222q13 0 23 -9.5t10 -23.5t-10 -23.5t-23 -9.5h-222z" />
    <glyph glyph-name="Abreve" unicode="&#x102;" horiz-adv-x="710" 
d="M398 646l264 -589q5 -12 5 -20q0 -19 -12 -32t-33 -13q-31 0 -43 28l-67 146h-314l-67 -146q-12 -28 -43 -28q-21 0 -33 13t-12 32q0 8 5 20l264 589q12 28 43 28t43 -28zM477 251l-122 283l-122 -283h244zM420 816q0 16 10 25.5t26 9.5q14 0 23.5 -9.5t9.5 -23.5
q0 -98 -134 -98t-134 98q0 14 9.5 23.5t23.5 9.5q16 0 26 -9.5t10 -25.5q0 -34 65 -34t65 34z" />
    <glyph glyph-name="abreve" unicode="&#x103;" horiz-adv-x="517" 
d="M449 39q0 -21 -12 -34t-34 -13q-21 0 -33.5 13.5t-12.5 33.5v9q-47 -60 -141 -60q-73 0 -119.5 37.5t-46.5 97.5q0 65 47.5 100.5t122.5 35.5q81 0 135 -51v43q0 60 -28 87.5t-92 27.5q-49 0 -99 -18q-24 -8 -31 -8q-18 0 -29 11t-11 28q0 27 44 45q55 22 134 22
q99 0 152.5 -49t53.5 -140v-218zM355 123q0 32 -32.5 51.5t-74.5 19.5q-48 0 -76 -19t-28 -52t28 -52t74 -19q45 0 77 20t32 51zM331 603q0 16 9.5 25.5t25.5 9.5q14 0 23.5 -9.5t9.5 -23.5q0 -106 -134 -106t-134 106q0 14 9.5 23.5t23.5 9.5q16 0 25.5 -9.5t9.5 -25.5
q0 -44 66 -44t66 44z" />
    <glyph glyph-name="Aogonek" unicode="&#x104;" horiz-adv-x="710" 
d="M664 -143q0 -25 -34 -33q-20 -5 -45 -5q-41 0 -63.5 19t-22.5 51q0 37 29 65.5t71 42.5q-13 8 -20 23l-67 146h-314l-67 -146q-12 -28 -43 -28q-21 0 -33 13t-12 32q0 8 5 20l264 589q12 28 43 28t43 -28l264 -589q5 -12 5 -20q0 -23 -16 -36q-22 -17 -33.5 -26.5
t-28 -31.5t-16.5 -40q0 -22 25 -22q13 0 25 2q41 7 41 -26zM477 251l-122 283l-122 -283h244z" />
    <glyph glyph-name="aogonek" unicode="&#x105;" horiz-adv-x="517" 
d="M449 39q0 -26 -19 -39q-81 -53 -81 -97q0 -22 25 -22q13 0 25 2q41 7 41 -25q0 -26 -34 -34q-20 -5 -45 -5q-41 0 -63.5 19t-22.5 51q0 38 31 68t72 42q-21 12 -21 41v8q-47 -60 -141 -60q-73 0 -119.5 37.5t-46.5 97.5q0 65 47.5 100.5t122.5 35.5q81 0 135 -51v43
q0 60 -28 87.5t-92 27.5q-49 0 -99 -18q-24 -8 -31 -8q-18 0 -29 11t-11 28q0 27 44 45q55 22 134 22q99 0 152.5 -49t53.5 -140v-218zM355 123q0 32 -32.5 51.5t-74.5 19.5q-48 0 -76 -19t-28 -52t28 -52t74 -19q45 0 77 20t32 51z" />
    <glyph glyph-name="Cacute" unicode="&#x106;" horiz-adv-x="705" 
d="M388 678q80 0 146.5 -30.5t105.5 -79.5q13 -16 13 -34q0 -19 -12 -30.5t-31 -11.5q-23 0 -42 23q-68 76 -174 76q-117 0 -182 -73.5t-65 -184.5t65 -184.5t182 -73.5q106 0 174 76q19 23 42 23q19 0 31 -11.5t12 -30.5q0 -18 -13 -34q-39 -49 -105.5 -79.5t-146.5 -30.5
q-152 0 -245 100t-93 245t93 245t245 100zM324 766q0 11 13 26l49 58q14 16 33 16q15 0 26 -11.5t11 -28.5q0 -12 -12 -26l-47 -55q-15 -17 -36 -17q-15 0 -26 11.5t-11 26.5z" />
    <glyph glyph-name="cacute" unicode="&#x107;" horiz-adv-x="493" 
d="M282 446q46 0 89 -18t66 -45q14 -16 14 -33q0 -16 -11.5 -27t-31.5 -11q-6 0 -12 2.5t-9.5 5t-10 8.5t-8.5 8q-36 31 -85 31q-67 0 -104 -43t-37 -107t37 -107t104 -43q49 0 85 31q2 2 8.5 8t10 8.5t9.5 5t12 2.5q20 0 31.5 -11t11.5 -27q0 -17 -14 -33q-23 -27 -66 -45
t-89 -18q-107 0 -170.5 65t-63.5 164t63.5 164t170.5 65zM208 543q0 13 10 25l56 77q12 17 32 17q16 0 27.5 -10t11.5 -27q0 -14 -10 -26l-55 -75q-13 -18 -34 -18q-16 0 -27 11t-11 26z" />
    <glyph glyph-name="Ccircumflex" unicode="&#x108;" horiz-adv-x="705" 
d="M388 678q80 0 146.5 -30.5t105.5 -79.5q13 -16 13 -34q0 -19 -12 -30.5t-31 -11.5q-23 0 -42 23q-68 76 -174 76q-117 0 -182 -73.5t-65 -184.5t65 -184.5t182 -73.5q106 0 174 76q19 23 42 23q19 0 31 -11.5t12 -30.5q0 -18 -13 -34q-39 -49 -105.5 -79.5t-146.5 -30.5
q-152 0 -245 100t-93 245t93 245t245 100zM410 860l90 -82q11 -11 11 -25q0 -13 -10 -22t-23 -9q-12 0 -22 8l-70 64l-70 -64q-10 -8 -22 -8q-13 0 -23 9t-10 22q0 14 11 25l90 82q11 10 24 10t24 -10z" />
    <glyph glyph-name="ccircumflex" unicode="&#x109;" horiz-adv-x="493" 
d="M282 446q46 0 89 -18t66 -45q14 -16 14 -33q0 -16 -11.5 -27t-31.5 -11q-6 0 -12 2.5t-9.5 5t-10 8.5t-8.5 8q-36 31 -85 31q-67 0 -104 -43t-37 -107t37 -107t104 -43q49 0 85 31q2 2 8.5 8t10 8.5t9.5 5t12 2.5q20 0 31.5 -11t11.5 -27q0 -17 -14 -33q-23 -27 -66 -45
t-89 -18q-107 0 -170.5 65t-63.5 164t63.5 164t170.5 65zM304 645l97 -87q11 -11 11 -25q0 -13 -10 -22t-23 -9q-12 0 -22 8l-77 70l-77 -70q-10 -8 -22 -8q-13 0 -23 9t-10 22q0 14 11 25l97 87q11 10 24 10t24 -10z" />
    <glyph glyph-name="Cdotaccent" unicode="&#x10a;" horiz-adv-x="705" 
d="M388 678q80 0 146.5 -30.5t105.5 -79.5q13 -16 13 -34q0 -19 -12 -30.5t-31 -11.5q-23 0 -42 23q-68 76 -174 76q-117 0 -182 -73.5t-65 -184.5t65 -184.5t182 -73.5q106 0 174 76q19 23 42 23q19 0 31 -11.5t12 -30.5q0 -18 -13 -34q-39 -49 -105.5 -79.5t-146.5 -30.5
q-152 0 -245 100t-93 245t93 245t245 100zM326 783q0 23 16 39t39 16t39 -16t16 -39t-16 -39t-39 -16t-39 16t-16 39z" />
    <glyph glyph-name="cdotaccent" unicode="&#x10b;" horiz-adv-x="493" 
d="M282 446q46 0 89 -18t66 -45q14 -16 14 -33q0 -16 -11.5 -27t-31.5 -11q-6 0 -12 2.5t-9.5 5t-10 8.5t-8.5 8q-36 31 -85 31q-67 0 -104 -43t-37 -107t37 -107t104 -43q49 0 85 31q2 2 8.5 8t10 8.5t9.5 5t12 2.5q20 0 31.5 -11t11.5 -27q0 -17 -14 -33q-23 -27 -66 -45
t-89 -18q-107 0 -170.5 65t-63.5 164t63.5 164t170.5 65zM219 565q0 23 16.5 39t38.5 16t38.5 -16t16.5 -39t-16.5 -39t-38.5 -16t-38.5 16t-16.5 39z" />
    <glyph glyph-name="Ccaron" unicode="&#x10c;" horiz-adv-x="705" 
d="M388 678q80 0 146.5 -30.5t105.5 -79.5q13 -16 13 -34q0 -19 -12 -30.5t-31 -11.5q-23 0 -42 23q-68 76 -174 76q-117 0 -182 -73.5t-65 -184.5t65 -184.5t182 -73.5q106 0 174 76q19 23 42 23q19 0 31 -11.5t12 -30.5q0 -18 -13 -34q-39 -49 -105.5 -79.5t-146.5 -30.5
q-152 0 -245 100t-93 245t93 245t245 100zM493 812l-90 -82q-11 -10 -24 -10t-24 10l-90 82q-11 11 -11 25q0 13 10 22t23 9q12 0 22 -8l70 -64l70 64q10 8 22 8q13 0 23 -9t10 -22q0 -14 -11 -25z" />
    <glyph glyph-name="ccaron" unicode="&#x10d;" horiz-adv-x="493" 
d="M282 446q46 0 89 -18t66 -45q14 -16 14 -33q0 -16 -11.5 -27t-31.5 -11q-6 0 -12 2.5t-9.5 5t-10 8.5t-8.5 8q-36 31 -85 31q-67 0 -104 -43t-37 -107t37 -107t104 -43q49 0 85 31q2 2 8.5 8t10 8.5t9.5 5t12 2.5q20 0 31.5 -11t11.5 -27q0 -17 -14 -33q-23 -27 -66 -45
t-89 -18q-107 0 -170.5 65t-63.5 164t63.5 164t170.5 65zM397 594l-97 -87q-11 -10 -24 -10t-24 10l-97 87q-11 11 -11 25q0 13 10 22t23 9q12 0 22 -8l77 -70l77 70q10 8 22 8q13 0 23 -9t10 -22q0 -14 -11 -25z" />
    <glyph glyph-name="Dcaron" unicode="&#x10e;" horiz-adv-x="708" 
d="M658 333q0 -146 -91 -239.5t-243 -93.5h-185q-20 0 -34.5 14.5t-14.5 34.5v568q0 20 14.5 34.5t34.5 14.5h185q152 0 243 -93.5t91 -239.5zM562 333q0 110 -64 177.5t-177 67.5h-135v-490h135q113 0 177 67.5t64 177.5zM442 812l-90 -82q-11 -10 -24 -10t-24 10l-90 82
q-11 11 -11 25q0 13 10 22t23 9q12 0 22 -8l70 -64l70 64q10 8 22 8q13 0 23 -9t10 -22q0 -14 -11 -25z" />
    <glyph glyph-name="dcaron" unicode="&#x10f;" horiz-adv-x="731" 
d="M47 217q0 101 60.5 165t148.5 64q100 0 154 -86v267q0 20 13 33.5t34 13.5t34 -13.5t13 -33.5v-588q0 -20 -12 -33.5t-33 -13.5t-33.5 14t-12.5 34v34q-23 -39 -65 -62.5t-92 -23.5q-87 0 -148 65t-61 164zM141 217q0 -68 36.5 -109.5t97.5 -41.5q59 0 97 44.5t38 106.5
t-38 106.5t-97 44.5q-61 0 -97.5 -41.5t-36.5 -109.5zM706 609q0 -51 -17 -111q-10 -33 -42 -33q-18 0 -29 13t-5 35q15 54 15 91v27q0 43 40 43q38 0 38 -43v-22z" />
    <glyph glyph-name="Dcroat" unicode="&#x110;" horiz-adv-x="757" 
d="M707 333q0 -146 -91 -239.5t-243 -93.5h-185q-20 0 -34.5 14.5t-14.5 34.5v243h-64q-17 0 -29.5 12t-12.5 29q0 18 12.5 30t29.5 12h64v242q0 20 14.5 34.5t34.5 14.5h185q152 0 243 -93.5t91 -239.5zM611 333q0 110 -64 177.5t-177 67.5h-135v-203h117q17 0 29.5 -12
t12.5 -30q0 -17 -12.5 -29t-29.5 -12h-117v-204h135q113 0 177 67.5t64 177.5z" />
    <glyph glyph-name="dcroat" unicode="&#x111;" horiz-adv-x="636" 
d="M410 500h-90q-41 0 -41 34t41 34h90v59q0 20 13 33.5t34 13.5t34 -13.5t13 -33.5v-59h61q41 0 41 -34t-41 -34h-61v-461q0 -20 -12 -33.5t-33 -13.5t-33.5 14t-12.5 34v34q-23 -39 -65 -62.5t-92 -23.5q-87 0 -148 65t-61 164q0 101 60.5 165t148.5 64q100 0 154 -86v140
zM141 217q0 -68 36.5 -109.5t97.5 -41.5q59 0 97 44.5t38 106.5t-38 106.5t-97 44.5q-61 0 -97.5 -41.5t-36.5 -109.5z" />
    <glyph glyph-name="Emacron" unicode="&#x112;" horiz-adv-x="605" 
d="M569 44q0 -19 -13.5 -31.5t-32.5 -12.5h-384q-21 0 -35 14t-14 34v570q0 20 14.5 34t34.5 14h369q19 0 32.5 -12.5t13.5 -31.5t-13.5 -31.5t-32.5 -12.5h-322v-193h182q18 0 31 -12.5t13 -31.5t-13 -31.5t-31 -12.5h-182v-209h337q19 0 32.5 -12t13.5 -32zM209 746
q-13 0 -23.5 9.5t-10.5 25.5t10.5 25.5t23.5 9.5h235q13 0 23.5 -9.5t10.5 -25.5t-10.5 -25.5t-23.5 -9.5h-235z" />
    <glyph glyph-name="emacron" unicode="&#x113;" horiz-adv-x="527" 
d="M271 446q93 0 150.5 -66t57.5 -164q0 -32 -36 -32h-299q4 -54 39.5 -87.5t95.5 -33.5q64 0 116 49q15 15 31 15t27.5 -11t11.5 -28q0 -13 -12 -27q-29 -33 -76.5 -53t-101.5 -20q-108 0 -168 65.5t-60 163.5t63.5 163.5t160.5 65.5zM392 260q-6 47 -39 79t-82 32
q-50 0 -84 -31.5t-41 -79.5h246zM165 523q-13 0 -23 9.5t-10 23.5t10 23.5t23 9.5h222q13 0 23 -9.5t10 -23.5t-10 -23.5t-23 -9.5h-222z" />
    <glyph glyph-name="Ebreve" unicode="&#x114;" horiz-adv-x="605" 
d="M569 44q0 -19 -13.5 -31.5t-32.5 -12.5h-384q-21 0 -35 14t-14 34v570q0 20 14.5 34t34.5 14h369q19 0 32.5 -12.5t13.5 -31.5t-13.5 -31.5t-32.5 -12.5h-322v-193h182q18 0 31 -12.5t13 -31.5t-13 -31.5t-31 -12.5h-182v-209h337q19 0 32.5 -12t13.5 -32zM390 816
q0 16 10 25.5t26 9.5q14 0 23.5 -9.5t9.5 -23.5q0 -98 -134 -98t-134 98q0 14 9.5 23.5t23.5 9.5q16 0 26 -9.5t10 -25.5q0 -34 65 -34t65 34z" />
    <glyph glyph-name="ebreve" unicode="&#x115;" horiz-adv-x="527" 
d="M271 446q93 0 150.5 -66t57.5 -164q0 -32 -36 -32h-299q4 -54 39.5 -87.5t95.5 -33.5q64 0 116 49q15 15 31 15t27.5 -11t11.5 -28q0 -13 -12 -27q-29 -33 -76.5 -53t-101.5 -20q-108 0 -168 65.5t-60 163.5t63.5 163.5t160.5 65.5zM392 260q-6 47 -39 79t-82 32
q-50 0 -84 -31.5t-41 -79.5h246zM341 603q0 16 9.5 25.5t25.5 9.5q14 0 23.5 -9.5t9.5 -23.5q0 -106 -134 -106t-134 106q0 14 9.5 23.5t23.5 9.5q16 0 25.5 -9.5t9.5 -25.5q0 -44 66 -44t66 44z" />
    <glyph glyph-name="Edotaccent" unicode="&#x116;" horiz-adv-x="605" 
d="M569 44q0 -19 -13.5 -31.5t-32.5 -12.5h-384q-21 0 -35 14t-14 34v570q0 20 14.5 34t34.5 14h369q19 0 32.5 -12.5t13.5 -31.5t-13.5 -31.5t-32.5 -12.5h-322v-193h182q18 0 31 -12.5t13 -31.5t-13 -31.5t-31 -12.5h-182v-209h337q19 0 32.5 -12t13.5 -32zM265 783
q0 23 16.5 39t38.5 16t38.5 -16t16.5 -39t-16.5 -39t-38.5 -16t-38.5 16t-16.5 39z" />
    <glyph glyph-name="edotaccent" unicode="&#x117;" horiz-adv-x="527" 
d="M271 446q93 0 150.5 -66t57.5 -164q0 -32 -36 -32h-299q4 -54 39.5 -87.5t95.5 -33.5q64 0 116 49q15 15 31 15t27.5 -11t11.5 -28q0 -13 -12 -27q-29 -33 -76.5 -53t-101.5 -20q-108 0 -168 65.5t-60 163.5t63.5 163.5t160.5 65.5zM392 260q-6 47 -39 79t-82 32
q-50 0 -84 -31.5t-41 -79.5h246zM219 565q0 23 16.5 39t38.5 16t38.5 -16t16.5 -39t-16.5 -39t-38.5 -16t-38.5 16t-16.5 39z" />
    <glyph glyph-name="Eogonek" unicode="&#x118;" horiz-adv-x="605" 
d="M569 44q0 -19 -13.5 -31.5t-32.5 -12.5h-150q-91 -60 -91 -97q0 -22 25 -22q13 0 25 2q41 7 41 -25q0 -26 -34 -34q-20 -5 -45 -5q-41 0 -63.5 19t-22.5 51q0 39 37 68.5t84 42.5h-190q-21 0 -35 14t-14 34v570q0 20 14.5 34t34.5 14h369q19 0 32.5 -12.5t13.5 -31.5
t-13.5 -31.5t-32.5 -12.5h-322v-193h182q18 0 31 -12.5t13 -31.5t-13 -31.5t-31 -12.5h-182v-209h337q19 0 32.5 -12t13.5 -32z" />
    <glyph glyph-name="eogonek" unicode="&#x119;" horiz-adv-x="527" 
d="M387 -142q0 -26 -35 -34q-20 -5 -45 -5q-86 0 -86 63q0 33 34 62.5t82 50.5q-35 -7 -62 -7q-108 0 -168 65.5t-60 163.5t63.5 163.5t160.5 65.5q93 0 150.5 -66t57.5 -164q0 -32 -36 -32h-299q4 -54 39.5 -87.5t95.5 -33.5q64 0 116 49q15 15 31 15t27.5 -11t11.5 -28
q0 -13 -12 -27q-13 -16 -35 -31q-40 -27 -81.5 -66.5t-41.5 -62.5q0 -20 25 -20q13 0 25 2q42 7 42 -25zM392 260q-6 47 -39 79t-82 32q-50 0 -84 -31.5t-41 -79.5h246z" />
    <glyph glyph-name="Ecaron" unicode="&#x11a;" horiz-adv-x="605" 
d="M569 44q0 -19 -13.5 -31.5t-32.5 -12.5h-384q-21 0 -35 14t-14 34v570q0 20 14.5 34t34.5 14h369q19 0 32.5 -12.5t13.5 -31.5t-13.5 -31.5t-32.5 -12.5h-322v-193h182q18 0 31 -12.5t13 -31.5t-13 -31.5t-31 -12.5h-182v-209h337q19 0 32.5 -12t13.5 -32zM445 812
l-90 -82q-11 -10 -24 -10t-24 10l-90 82q-11 11 -11 25q0 13 10 22t23 9q12 0 22 -8l70 -64l70 64q10 8 22 8q13 0 23 -9t10 -22q0 -14 -11 -25z" />
    <glyph glyph-name="ecaron" unicode="&#x11b;" horiz-adv-x="527" 
d="M271 446q93 0 150.5 -66t57.5 -164q0 -32 -36 -32h-299q4 -54 39.5 -87.5t95.5 -33.5q64 0 116 49q15 15 31 15t27.5 -11t11.5 -28q0 -13 -12 -27q-29 -33 -76.5 -53t-101.5 -20q-108 0 -168 65.5t-60 163.5t63.5 163.5t160.5 65.5zM392 260q-6 47 -39 79t-82 32
q-50 0 -84 -31.5t-41 -79.5h246zM395 594l-97 -87q-11 -10 -24 -10t-24 10l-97 87q-11 11 -11 25q0 13 10 22t23 9q12 0 22 -8l77 -70l77 70q10 8 22 8q13 0 23 -9t10 -22q0 -14 -11 -25z" />
    <glyph glyph-name="Gcircumflex" unicode="&#x11c;" horiz-adv-x="728" 
d="M668 126q0 -21 -11 -32q-45 -50 -115 -78t-153 -28q-151 0 -245 98t-94 247q0 151 95.5 248t241.5 97q145 0 226 -85q15 -15 15 -32q0 -19 -12 -31.5t-32 -12.5q-16 0 -32 12q-80 60 -165 60q-107 0 -173.5 -73.5t-66.5 -182.5q0 -112 64 -187t178 -75q117 0 185 60v123
h-159q-18 0 -31 12.5t-13 31.5q0 18 13 30.5t31 12.5h205q21 0 34.5 -13t13.5 -36v-166zM403 860l90 -82q11 -11 11 -25q0 -13 -10 -22t-23 -9q-12 0 -22 8l-70 64l-70 -64q-10 -8 -22 -8q-13 0 -23 9t-10 22q0 14 11 25l90 82q11 10 24 10t24 -10z" />
    <glyph glyph-name="gcircumflex" unicode="&#x11d;" horiz-adv-x="579" 
d="M410 225q0 60 -37 101t-97 41t-97.5 -40t-37.5 -102q0 -61 37.5 -101.5t97.5 -40.5q59 0 96.5 41t37.5 101zM504 31q0 -226 -234 -226q-97 0 -174 44q-25 15 -25 37q0 23 20 34t47 -3q61 -36 126 -36q81 0 113.5 35.5t32.5 107.5v64q-21 -37 -62.5 -60.5t-89.5 -23.5
q-96 0 -153.5 63.5t-57.5 157.5t57.5 157.5t153.5 63.5q50 0 92 -23t63 -61v32q0 22 12.5 35t32.5 13q21 0 33.5 -13t12.5 -34v-364zM322 645l97 -87q11 -11 11 -25q0 -13 -10 -22t-23 -9q-12 0 -22 8l-77 70l-77 -70q-10 -8 -22 -8q-13 0 -23 9t-10 22q0 14 11 25l97 87
q11 10 24 10t24 -10z" />
    <glyph glyph-name="Gbreve" unicode="&#x11e;" horiz-adv-x="728" 
d="M668 126q0 -21 -11 -32q-45 -50 -115 -78t-153 -28q-151 0 -245 98t-94 247q0 151 95.5 248t241.5 97q145 0 226 -85q15 -15 15 -32q0 -19 -12 -31.5t-32 -12.5q-16 0 -32 12q-80 60 -165 60q-107 0 -173.5 -73.5t-66.5 -182.5q0 -112 64 -187t178 -75q117 0 185 60v123
h-159q-18 0 -31 12.5t-13 31.5q0 18 13 30.5t31 12.5h205q21 0 34.5 -13t13.5 -36v-166zM446 816q0 16 10 25.5t26 9.5q14 0 23.5 -9.5t9.5 -23.5q0 -98 -134 -98t-134 98q0 14 9.5 23.5t23.5 9.5q16 0 26 -9.5t10 -25.5q0 -34 65 -34t65 34z" />
    <glyph glyph-name="gbreve" unicode="&#x11f;" horiz-adv-x="579" 
d="M410 225q0 60 -37 101t-97 41t-97.5 -40t-37.5 -102q0 -61 37.5 -101.5t97.5 -40.5q59 0 96.5 41t37.5 101zM504 31q0 -226 -234 -226q-97 0 -174 44q-25 15 -25 37q0 23 20 34t47 -3q61 -36 126 -36q81 0 113.5 35.5t32.5 107.5v64q-21 -37 -62.5 -60.5t-89.5 -23.5
q-96 0 -153.5 63.5t-57.5 157.5t57.5 157.5t153.5 63.5q50 0 92 -23t63 -61v32q0 22 12.5 35t32.5 13q21 0 33.5 -13t12.5 -34v-364zM356 603q0 16 9.5 25.5t25.5 9.5q14 0 23.5 -9.5t9.5 -23.5q0 -106 -134 -106t-134 106q0 14 9.5 23.5t23.5 9.5q16 0 25.5 -9.5t9.5 -25.5
q0 -44 66 -44t66 44z" />
    <glyph glyph-name="Gdotaccent" unicode="&#x120;" horiz-adv-x="728" 
d="M668 126q0 -21 -11 -32q-45 -50 -115 -78t-153 -28q-151 0 -245 98t-94 247q0 151 95.5 248t241.5 97q145 0 226 -85q15 -15 15 -32q0 -19 -12 -31.5t-32 -12.5q-16 0 -32 12q-80 60 -165 60q-107 0 -173.5 -73.5t-66.5 -182.5q0 -112 64 -187t178 -75q117 0 185 60v123
h-159q-18 0 -31 12.5t-13 31.5q0 18 13 30.5t31 12.5h205q21 0 34.5 -13t13.5 -36v-166zM327 783q0 23 16.5 39t38.5 16t38.5 -16t16.5 -39t-16.5 -39t-38.5 -16t-38.5 16t-16.5 39z" />
    <glyph glyph-name="gdotaccent" unicode="&#x121;" horiz-adv-x="579" 
d="M410 225q0 60 -37 101t-97 41t-97.5 -40t-37.5 -102q0 -61 37.5 -101.5t97.5 -40.5q59 0 96.5 41t37.5 101zM504 31q0 -226 -234 -226q-97 0 -174 44q-25 15 -25 37q0 23 20 34t47 -3q61 -36 126 -36q81 0 113.5 35.5t32.5 107.5v64q-21 -37 -62.5 -60.5t-89.5 -23.5
q-96 0 -153.5 63.5t-57.5 157.5t57.5 157.5t153.5 63.5q50 0 92 -23t63 -61v32q0 22 12.5 35t32.5 13q21 0 33.5 -13t12.5 -34v-364zM226 565q0 23 16 39t39 16t39 -16t16 -39t-16 -39t-39 -16t-39 16t-16 39z" />
    <glyph glyph-name="Gcommaaccent" unicode="&#x122;" horiz-adv-x="728" 
d="M668 126q0 -21 -11 -32q-45 -50 -115 -78t-153 -28q-151 0 -245 98t-94 247q0 151 95.5 248t241.5 97q145 0 226 -85q15 -15 15 -32q0 -19 -12 -31.5t-32 -12.5q-16 0 -32 12q-80 60 -165 60q-107 0 -173.5 -73.5t-66.5 -182.5q0 -112 64 -187t178 -75q117 0 185 60v123
h-159q-18 0 -31 12.5t-13 31.5q0 18 13 30.5t31 12.5h205q21 0 34.5 -13t13.5 -36v-166zM446 -134q0 -51 -17 -111q-10 -33 -42 -33q-18 0 -29 13t-5 35q15 54 15 91v27q0 43 40 43q38 0 38 -43v-22z" />
    <glyph glyph-name="gcommaaccent" unicode="&#x123;" horiz-adv-x="579" 
d="M237 577q0 51 17 111q10 33 42 33q18 0 29 -13t5 -35q-15 -54 -15 -91v-27q0 -43 -40 -43q-38 0 -38 43v22zM410 225q0 60 -37 101t-97 41t-97.5 -40t-37.5 -102q0 -61 37.5 -101.5t97.5 -40.5q59 0 96.5 41t37.5 101zM504 31q0 -226 -234 -226q-97 0 -174 44
q-25 15 -25 37q0 23 20 34t47 -3q61 -36 126 -36q81 0 113.5 35.5t32.5 107.5v64q-21 -37 -62.5 -60.5t-89.5 -23.5q-96 0 -153.5 63.5t-57.5 157.5t57.5 157.5t153.5 63.5q50 0 92 -23t63 -61v32q0 22 12.5 35t32.5 13q21 0 33.5 -13t12.5 -34v-364z" />
    <glyph glyph-name="Hcircumflex" unicode="&#x124;" horiz-adv-x="731" 
d="M641 41q0 -21 -13.5 -35t-34.5 -14q-20 0 -34 14.5t-14 34.5v256h-359v-256q0 -21 -13 -35t-34 -14t-35 14t-14 35v584q0 21 13.5 35t34.5 14t34.5 -14t13.5 -35v-238h359v238q0 21 14 35t34 14q21 0 34.5 -14t13.5 -35v-584zM389 860l90 -82q11 -11 11 -25
q0 -13 -10 -22t-23 -9q-12 0 -22 8l-70 64l-70 -64q-10 -8 -22 -8q-13 0 -23 9t-10 22q0 14 11 25l90 82q11 10 24 10t24 -10z" />
    <glyph glyph-name="hcircumflex" unicode="&#x125;" horiz-adv-x="564" 
d="M494 39q0 -20 -12.5 -33.5t-34.5 -13.5q-21 0 -34 13.5t-13 33.5v200q0 55 -29.5 88.5t-83.5 33.5q-55 0 -86.5 -35t-31.5 -88v-199q0 -20 -13.5 -33.5t-33.5 -13.5q-21 0 -34 13.5t-13 33.5v587q0 22 13 35t34 13t34 -12t13 -36v-264q44 84 144 84q85 0 133 -56t48 -147
v-204zM145 860l90 -82q11 -11 11 -25q0 -13 -10 -22t-23 -9q-12 0 -22 8l-70 64l-70 -64q-10 -8 -22 -8q-13 0 -23 9t-10 22q0 14 11 25l90 82q11 10 24 10t24 -10z" />
    <glyph glyph-name="Hbar" unicode="&#x126;" horiz-adv-x="841" 
d="M91 491q-41 0 -41 33t41 33h54v68q0 21 13.5 35t34.5 14t34.5 -14t13.5 -35v-68h359v68q0 21 14 35t34 14q21 0 34.5 -14t13.5 -35v-68h54q41 0 41 -33t-41 -33h-54v-450q0 -21 -13.5 -35t-34.5 -14q-20 0 -34 14.5t-14 34.5v256h-359v-256q0 -21 -13 -35t-34 -14t-35 14
t-14 35v450h-54zM241 387h359v104h-359v-104z" />
    <glyph glyph-name="hbar" unicode="&#x127;" horiz-adv-x="593" 
d="M523 39q0 -20 -12.5 -33.5t-34.5 -13.5q-21 0 -34 13.5t-13 33.5v200q0 55 -29.5 88.5t-83.5 33.5q-55 0 -86.5 -35t-31.5 -88v-199q0 -20 -13.5 -33.5t-33.5 -13.5q-21 0 -34 13.5t-13 33.5v461h-53q-41 0 -41 34t41 34h53v58q0 22 13 35t34 13t34 -12t13 -36v-58h90
q41 0 41 -34t-41 -34h-90v-138q44 84 144 84q85 0 133 -56t48 -147v-204z" />
    <glyph glyph-name="Itilde" unicode="&#x128;" horiz-adv-x="286" 
d="M191 41q0 -21 -13 -35t-34 -14t-35 14t-14 35v584q0 21 13.5 35t35.5 14q21 0 34 -13.5t13 -35.5v-584zM298 801q0 -27 -25 -48t-57 -21q-23 0 -75 21q-36 15 -54 15q-19 0 -34 -18q-14 -17 -28 -17q-15 0 -25 8.5t-10 21.5q0 19 21 43q29 35 73 35q29 0 68 -17
q49 -21 61 -21q15 0 29 16q12 14 24 14q13 0 22.5 -9t9.5 -23z" />
    <glyph glyph-name="itilde" unicode="&#x129;" horiz-adv-x="244" 
d="M169 39q0 -20 -13 -33.5t-34 -13.5t-34 13.5t-13 33.5v356q0 20 13.5 33.5t33.5 13.5t33.5 -13.5t13.5 -33.5v-356zM273 576q0 -26 -26 -47t-55 -21q-23 0 -71 21q-35 15 -47 15q-18 0 -32 -15q-18 -20 -30 -20q-14 0 -24 8.5t-10 20.5q0 16 21 42q26 33 64 33
q27 0 70 -18q42 -18 54 -18q17 0 31 15t23 15q13 0 22.5 -8.5t9.5 -22.5z" />
    <glyph glyph-name="Imacron" unicode="&#x12a;" horiz-adv-x="286" 
d="M191 41q0 -21 -13 -35t-34 -14t-35 14t-14 35v584q0 21 13.5 35t35.5 14q21 0 34 -13.5t13 -35.5v-584zM26 746q-13 0 -23.5 9.5t-10.5 25.5t10.5 25.5t23.5 9.5h235q13 0 23.5 -9.5t10.5 -25.5t-10.5 -25.5t-23.5 -9.5h-235z" />
    <glyph glyph-name="imacron" unicode="&#x12b;" horiz-adv-x="244" 
d="M169 39q0 -20 -13 -33.5t-34 -13.5t-34 13.5t-13 33.5v356q0 20 13.5 33.5t33.5 13.5t33.5 -13.5t13.5 -33.5v-356zM11 523q-13 0 -23 9.5t-10 23.5t10 23.5t23 9.5h222q13 0 23 -9.5t10 -23.5t-10 -23.5t-23 -9.5h-222z" />
    <glyph glyph-name="Ibreve" unicode="&#x12c;" horiz-adv-x="286" 
d="M191 41q0 -21 -13 -35t-34 -14t-35 14t-14 35v584q0 21 13.5 35t35.5 14q21 0 34 -13.5t13 -35.5v-584zM209 816q0 16 10 25.5t26 9.5q14 0 23.5 -9.5t9.5 -23.5q0 -98 -134 -98t-134 98q0 14 9.5 23.5t23.5 9.5q16 0 26 -9.5t10 -25.5q0 -34 65 -34t65 34z" />
    <glyph glyph-name="ibreve" unicode="&#x12d;" horiz-adv-x="244" 
d="M169 39q0 -20 -13 -33.5t-34 -13.5t-34 13.5t-13 33.5v356q0 20 13.5 33.5t33.5 13.5t33.5 -13.5t13.5 -33.5v-356zM188 603q0 16 9.5 25.5t25.5 9.5q14 0 23.5 -9.5t9.5 -23.5q0 -106 -134 -106t-134 106q0 14 9.5 23.5t23.5 9.5q16 0 25.5 -9.5t9.5 -25.5q0 -44 66 -44
t66 44z" />
    <glyph glyph-name="Iogonek" unicode="&#x12e;" horiz-adv-x="286" 
d="M196 -143q0 -17 -17.5 -27.5t-44.5 -10.5q-76 0 -76 65q0 28 21 59t50 51q-34 10 -34 47v584q0 21 13.5 35t35.5 14q21 0 34 -13.5t13 -35.5v-584q0 -19 -11 -33q-48 -66 -48 -110q0 -17 18 -17q5 0 15 2q14 3 22.5 -4t8.5 -22z" />
    <glyph glyph-name="iogonek" unicode="&#x12f;" horiz-adv-x="244" 
d="M169 39q0 -16 -10 -29q-48 -65 -48 -112q0 -17 18 -17q5 0 15 2q14 3 22.5 -4t8.5 -22q0 -17 -17.5 -27.5t-44.5 -10.5q-76 0 -76 65q0 28 21 59t50 51q-33 10 -33 45v356q0 20 13.5 33.5t33.5 13.5t33.5 -13.5t13.5 -33.5v-356zM67 565q0 23 16.5 39t38.5 16t38.5 -16
t16.5 -39t-16.5 -39t-38.5 -16t-38.5 16t-16.5 39z" />
    <glyph glyph-name="Idotaccent" unicode="&#x130;" horiz-adv-x="286" 
d="M191 41q0 -21 -13 -35t-34 -14t-35 14t-14 35v584q0 21 13.5 35t35.5 14q21 0 34 -13.5t13 -35.5v-584zM88 783q0 23 16 39t39 16t39 -16t16 -39t-16 -39t-39 -16t-39 16t-16 39z" />
    <glyph glyph-name="dotlessi" unicode="&#x131;" horiz-adv-x="244" 
d="M169 39q0 -20 -13 -33.5t-34 -13.5t-34 13.5t-13 33.5v356q0 20 13.5 33.5t33.5 13.5t33.5 -13.5t13.5 -33.5v-356z" />
    <glyph glyph-name="IJ" unicode="&#x132;" horiz-adv-x="895" 
d="M191 41q0 -21 -13 -35t-34 -14t-35 14t-14 35v584q0 21 13.5 35t35.5 14q21 0 34 -13.5t13 -35.5v-584zM714 625q0 21 13.5 35t35.5 14q21 0 34 -13.5t13 -35.5v-368q0 -122 -63.5 -195.5t-187.5 -73.5q-92 0 -161 53t-81 135q-1 7 -1 22q0 20 12.5 31.5t33.5 11.5
q22 0 31.5 -9.5t14.5 -30.5q16 -63 49.5 -95.5t103.5 -32.5q153 0 153 180v372z" />
    <glyph glyph-name="ij" unicode="&#x133;" horiz-adv-x="488" 
d="M169 39q0 -20 -13 -33.5t-34 -13.5t-34 13.5t-13 33.5v356q0 20 13.5 33.5t33.5 13.5t33.5 -13.5t13.5 -33.5v-356zM67 565q0 23 16.5 39t38.5 16t38.5 -16t16.5 -39t-16.5 -39t-38.5 -16t-38.5 16t-16.5 39zM413 -32q0 -82 -36.5 -122.5t-121.5 -40.5h-11
q-16 0 -27.5 11.5t-11.5 27.5q0 17 11 28t28 11h2q42 0 57.5 18.5t15.5 60.5v433q0 20 13.5 33.5t33.5 13.5t33.5 -13.5t13.5 -33.5v-427zM311 565q0 23 16.5 39t38.5 16t38.5 -16t16.5 -39t-16.5 -39t-38.5 -16t-38.5 16t-16.5 39z" />
    <glyph glyph-name="Jcircumflex" unicode="&#x134;" horiz-adv-x="609" 
d="M428 625q0 21 13.5 35t35.5 14q21 0 34 -13.5t13 -35.5v-368q0 -122 -63.5 -195.5t-187.5 -73.5q-92 0 -161 53t-81 135q-1 7 -1 22q0 20 12.5 31.5t33.5 11.5q22 0 31.5 -9.5t14.5 -30.5q16 -63 49.5 -95.5t103.5 -32.5q153 0 153 180v372zM502 860l90 -82
q11 -11 11 -25q0 -13 -10 -22t-23 -9q-12 0 -22 8l-70 64l-70 -64q-10 -8 -22 -8q-13 0 -23 9t-10 22q0 14 11 25l90 82q11 10 24 10t24 -10z" />
    <glyph glyph-name="jcircumflex" unicode="&#x135;" horiz-adv-x="244" 
d="M169 -32q0 -82 -36.5 -122.5t-121.5 -40.5h-11q-16 0 -27.5 11.5t-11.5 27.5q0 17 11 28t28 11h2q42 0 57.5 18.5t15.5 60.5v433q0 20 13.5 33.5t33.5 13.5t33.5 -13.5t13.5 -33.5v-427zM146 645l97 -87q11 -11 11 -25q0 -13 -10 -22t-23 -9q-12 0 -22 8l-77 70l-77 -70
q-10 -8 -22 -8q-13 0 -23 9t-10 22q0 14 11 25l97 87q11 10 24 10t24 -10z" />
    <glyph glyph-name="Kcommaaccent" unicode="&#x136;" horiz-adv-x="671" 
d="M186 41q0 -21 -13 -35t-34 -14t-35 14t-14 35v584q0 21 13.5 35t35.5 14q21 0 34 -13.5t13 -35.5v-293l336 328q14 14 32 14t32.5 -13t14.5 -31q0 -22 -15 -35l-192 -188l217 -344q8 -13 8 -27q0 -16 -13 -30t-31 -14q-29 0 -42 22l-207 329l-140 -137v-165zM383 -134
q0 -51 -17 -111q-10 -33 -42 -33q-18 0 -29 13t-5 35q15 54 15 91v27q0 43 40 43q38 0 38 -43v-22z" />
    <glyph glyph-name="kcommaaccent" unicode="&#x137;" horiz-adv-x="498" 
d="M169 39q0 -20 -13 -33.5t-34 -13.5t-34 13.5t-13 33.5v588q0 20 13 33.5t34 13.5t34 -13.5t13 -33.5v-359l210 164q11 10 29 10q19 0 31 -12t12 -29q0 -19 -22 -36l-135 -105l154 -198q10 -13 10 -27q0 -18 -12 -30.5t-33 -12.5q-19 0 -32 18l-154 198l-58 -47v-122z
M296 -134q0 -51 -17 -111q-10 -33 -42 -33q-18 0 -29 13t-5 35q15 54 15 91v27q0 43 40 43q38 0 38 -43v-22z" />
    <glyph glyph-name="kgreenlandic" unicode="&#x138;" horiz-adv-x="498" 
d="M169 39q0 -20 -13 -33.5t-34 -13.5t-34 13.5t-13 33.5v356q0 20 13 33.5t34 13.5t34 -13.5t13 -33.5v-127l210 164q11 10 29 10q19 0 31 -12t12 -29q0 -19 -22 -36l-135 -105l154 -198q10 -13 10 -27q0 -18 -12 -30.5t-33 -12.5q-19 0 -32 18l-154 198l-58 -47v-122z" />
    <glyph glyph-name="Lacute" unicode="&#x139;" horiz-adv-x="583" 
d="M139 0q-21 0 -35 14t-14 35v576q0 21 13.5 35t35.5 14q21 0 34 -13.5t13 -35.5v-535h319q18 0 31.5 -13t13.5 -31q0 -19 -13.5 -32.5t-31.5 -13.5h-366zM103 766q0 11 13 26l49 58q14 16 33 16q15 0 26 -11.5t11 -28.5q0 -12 -12 -26l-47 -55q-15 -17 -36 -17
q-15 0 -26 11.5t-11 26.5z" />
    <glyph glyph-name="lacute" unicode="&#x13a;" horiz-adv-x="244" 
d="M169 39q0 -20 -13 -33.5t-34 -13.5t-34 13.5t-13 33.5v588q0 20 13 33.5t34 13.5t34 -13.5t13 -33.5v-588zM78 766q0 11 13 26l49 58q14 16 33 16q15 0 26 -11.5t11 -28.5q0 -12 -12 -26l-47 -55q-15 -17 -36 -17q-15 0 -26 11.5t-11 26.5z" />
    <glyph glyph-name="Lcommaaccent" unicode="&#x13b;" horiz-adv-x="583" 
d="M139 0q-21 0 -35 14t-14 35v576q0 21 13.5 35t35.5 14q21 0 34 -13.5t13 -35.5v-535h319q18 0 31.5 -13t13.5 -31q0 -19 -13.5 -32.5t-31.5 -13.5h-366zM362 -134q0 -51 -17 -111q-10 -33 -42 -33q-18 0 -29 13t-5 35q15 54 15 91v27q0 43 40 43q38 0 38 -43v-22z" />
    <glyph glyph-name="lcommaaccent" unicode="&#x13c;" horiz-adv-x="244" 
d="M169 39q0 -20 -13 -33.5t-34 -13.5t-34 13.5t-13 33.5v588q0 20 13 33.5t34 13.5t34 -13.5t13 -33.5v-588zM157 -134q0 -51 -17 -111q-10 -33 -42 -33q-18 0 -29 13t-5 35q15 54 15 91v27q0 43 40 43q38 0 38 -43v-22z" />
    <glyph glyph-name="Lcaron" unicode="&#x13d;" horiz-adv-x="583" 
d="M139 0q-21 0 -35 14t-14 35v576q0 21 13.5 35t35.5 14q21 0 34 -13.5t13 -35.5v-535h319q18 0 31.5 -13t13.5 -31q0 -19 -13.5 -32.5t-31.5 -13.5h-366zM444 599q0 -51 -17 -111q-10 -33 -42 -33q-18 0 -29 13t-5 35q15 54 15 91v37q0 43 40 43q38 0 38 -43v-32z" />
    <glyph glyph-name="lcaron" unicode="&#x13e;" horiz-adv-x="396" 
d="M169 39q0 -20 -13 -33.5t-34 -13.5t-34 13.5t-13 33.5v588q0 20 13 33.5t34 13.5t34 -13.5t13 -33.5v-588zM371 599q0 -51 -17 -111q-10 -33 -42 -33q-18 0 -29 13t-5 35q15 54 15 91v37q0 43 40 43q38 0 38 -43v-32z" />
    <glyph glyph-name="Ldot" unicode="&#x13f;" horiz-adv-x="583" 
d="M139 0q-21 0 -35 14t-14 35v576q0 21 13.5 35t35.5 14q21 0 34 -13.5t13 -35.5v-535h319q18 0 31.5 -13t13.5 -31q0 -19 -13.5 -32.5t-31.5 -13.5h-366zM303 318q0 25 17.5 42.5t42.5 17.5t42.5 -17.5t17.5 -42.5t-17.5 -42.5t-42.5 -17.5t-42.5 17.5t-17.5 42.5z" />
    <glyph glyph-name="ldot" unicode="&#x140;" horiz-adv-x="420" 
d="M169 39q0 -20 -13 -33.5t-34 -13.5t-34 13.5t-13 33.5v588q0 20 13 33.5t34 13.5t34 -13.5t13 -33.5v-588zM270 219q0 25 17.5 42.5t42.5 17.5t42.5 -17.5t17.5 -42.5t-17.5 -42.5t-42.5 -17.5t-42.5 17.5t-17.5 42.5z" />
    <glyph glyph-name="Lslash" unicode="&#x141;" horiz-adv-x="625" 
d="M343 366l-115 -36v-240h319q18 0 31.5 -13t13.5 -31q0 -19 -13.5 -32.5t-31.5 -13.5h-366q-21 0 -35 14t-14 35v252l-51 -16q-9 -3 -17 -3q-16 0 -27.5 11t-11.5 27q0 30 29 39l78 24v242q0 21 13.5 35t35.5 14q21 0 34 -13.5t13 -35.5v-213l91 28q11 3 18 3
q16 0 27 -10.5t11 -27.5q0 -29 -32 -39z" />
    <glyph glyph-name="lslash" unicode="&#x142;" horiz-adv-x="355" 
d="M224 39q0 -20 -13 -33.5t-34 -13.5t-34 13.5t-13 33.5v195l-46 -14q-9 -3 -17 -3q-16 0 -27.5 11t-11.5 27q0 30 29 39l73 22v311q0 20 13 33.5t34 13.5t34 -13.5t13 -33.5v-283l60 19q10 3 18 3q17 0 27.5 -10t10.5 -28q0 -29 -32 -39l-84 -26v-224z" />
    <glyph glyph-name="Nacute" unicode="&#x143;" horiz-adv-x="736" 
d="M646 37q0 -19 -12 -32t-34 -13t-36 17l-383 488v-460q0 -19 -12.5 -32t-33.5 -13q-20 0 -32.5 13t-12.5 32v591q0 22 12.5 34t34.5 12t36 -19l382 -486v459q0 21 13 33.5t33 12.5t32.5 -12.5t12.5 -33.5v-591zM315 766q0 11 13 26l49 58q14 16 33 16q15 0 26 -11.5
t11 -28.5q0 -12 -12 -26l-47 -55q-15 -17 -36 -17q-15 0 -26 11.5t-11 26.5z" />
    <glyph glyph-name="nacute" unicode="&#x144;" horiz-adv-x="564" 
d="M494 39q0 -20 -12.5 -33.5t-34.5 -13.5q-21 0 -34 13.5t-13 33.5v200q0 55 -29.5 88.5t-83.5 33.5q-55 0 -86.5 -35t-31.5 -88v-199q0 -20 -13.5 -33.5t-33.5 -13.5q-21 0 -34 13.5t-13 33.5v355q0 22 13 35t34 13t34 -12t13 -36v-32q44 84 144 84q85 0 133 -56t48 -147
v-204zM226 543q0 13 10 25l56 77q12 17 32 17q16 0 27.5 -10t11.5 -27q0 -14 -10 -26l-55 -75q-13 -18 -34 -18q-16 0 -27 11t-11 26z" />
    <glyph glyph-name="Ncommaaccent" unicode="&#x145;" horiz-adv-x="736" 
d="M646 37q0 -19 -12 -32t-34 -13t-36 17l-383 488v-460q0 -19 -12.5 -32t-33.5 -13q-20 0 -32.5 13t-12.5 32v591q0 22 12.5 34t34.5 12t36 -19l382 -486v459q0 21 13 33.5t33 12.5t32.5 -12.5t12.5 -33.5v-591zM395 -134q0 -51 -17 -111q-10 -33 -42 -33q-18 0 -29 13
t-5 35q15 54 15 91v27q0 43 40 43q38 0 38 -43v-22z" />
    <glyph glyph-name="ncommaaccent" unicode="&#x146;" horiz-adv-x="564" 
d="M494 39q0 -20 -12.5 -33.5t-34.5 -13.5q-21 0 -34 13.5t-13 33.5v200q0 55 -29.5 88.5t-83.5 33.5q-55 0 -86.5 -35t-31.5 -88v-199q0 -20 -13.5 -33.5t-33.5 -13.5q-21 0 -34 13.5t-13 33.5v355q0 22 13 35t34 13t34 -12t13 -36v-32q44 84 144 84q85 0 133 -56t48 -147
v-204zM320 -134q0 -51 -17 -111q-10 -33 -42 -33q-18 0 -29 13t-5 35q15 54 15 91v27q0 43 40 43q38 0 38 -43v-22z" />
    <glyph glyph-name="Ncaron" unicode="&#x147;" horiz-adv-x="736" 
d="M646 37q0 -19 -12 -32t-34 -13t-36 17l-383 488v-460q0 -19 -12.5 -32t-33.5 -13q-20 0 -32.5 13t-12.5 32v591q0 22 12.5 34t34.5 12t36 -19l382 -486v459q0 21 13 33.5t33 12.5t32.5 -12.5t12.5 -33.5v-591zM484 812l-90 -82q-11 -10 -24 -10t-24 10l-90 82
q-11 11 -11 25q0 13 10 22t23 9q12 0 22 -8l70 -64l70 64q10 8 22 8q13 0 23 -9t10 -22q0 -14 -11 -25z" />
    <glyph glyph-name="ncaron" unicode="&#x148;" horiz-adv-x="564" 
d="M494 39q0 -20 -12.5 -33.5t-34.5 -13.5q-21 0 -34 13.5t-13 33.5v200q0 55 -29.5 88.5t-83.5 33.5q-55 0 -86.5 -35t-31.5 -88v-199q0 -20 -13.5 -33.5t-33.5 -13.5q-21 0 -34 13.5t-13 33.5v355q0 22 13 35t34 13t34 -12t13 -36v-32q44 84 144 84q85 0 133 -56t48 -147
v-204zM403 594l-97 -87q-11 -10 -24 -10t-24 10l-97 87q-11 11 -11 25q0 13 10 22t23 9q12 0 22 -8l77 -70l77 70q10 8 22 8q13 0 23 -9t10 -22q0 -14 -11 -25z" />
    <glyph glyph-name="Eng" unicode="&#x14a;" horiz-adv-x="736" 
d="M479 -117q43 0 59.5 17t16.5 57v63l-374 477v-460q0 -19 -12.5 -32t-33.5 -13q-20 0 -32.5 13t-12.5 32v591q0 22 12.5 34t34.5 12t36 -19l382 -486v459q0 21 13 33.5t33 12.5t32.5 -12.5t12.5 -33.5v-660q0 -82 -36.5 -122.5t-121.5 -40.5h-11q-17 0 -28 11.5t-11 27.5
q0 17 11 28t28 11h2z" />
    <glyph glyph-name="eng" unicode="&#x14b;" horiz-adv-x="564" 
d="M400 239q0 55 -29.5 88.5t-83.5 33.5q-55 0 -86.5 -35t-31.5 -88v-199q0 -20 -13.5 -33.5t-33.5 -13.5q-21 0 -34 13.5t-13 33.5v355q0 22 13 35t34 13t34 -12t13 -36v-32q44 84 144 84q85 0 133 -56t48 -147v-275q0 -82 -36.5 -122.5t-121.5 -40.5h-11q-17 0 -28 11.5
t-11 27.5q0 17 11 28t28 11h2q42 0 57.5 18.5t15.5 60.5v277z" />
    <glyph glyph-name="Omacron" unicode="&#x14c;" horiz-adv-x="786" 
d="M731 333q0 -144 -94.5 -244.5t-243.5 -100.5t-243.5 100.5t-94.5 244.5t94.5 244.5t243.5 100.5t243.5 -100.5t94.5 -244.5zM635 333q0 108 -65 183t-177 75t-177 -75t-65 -183t65 -183t177 -75t177 75t65 183zM276 746q-13 0 -23.5 9.5t-10.5 25.5t10.5 25.5t23.5 9.5
h235q13 0 23.5 -9.5t10.5 -25.5t-10.5 -25.5t-23.5 -9.5h-235z" />
    <glyph glyph-name="omacron" unicode="&#x14d;" horiz-adv-x="552" 
d="M505 217q0 -97 -63.5 -163t-165.5 -66t-165.5 66t-63.5 163t63.5 163t165.5 66t165.5 -66t63.5 -163zM411 217q0 64 -36 106.5t-99 42.5t-99 -42.5t-36 -106.5t36 -106.5t99 -42.5t99 42.5t36 106.5zM165 523q-13 0 -23 9.5t-10 23.5t10 23.5t23 9.5h222q13 0 23 -9.5
t10 -23.5t-10 -23.5t-23 -9.5h-222z" />
    <glyph glyph-name="Obreve" unicode="&#x14e;" horiz-adv-x="786" 
d="M731 333q0 -144 -94.5 -244.5t-243.5 -100.5t-243.5 100.5t-94.5 244.5t94.5 244.5t243.5 100.5t243.5 -100.5t94.5 -244.5zM635 333q0 108 -65 183t-177 75t-177 -75t-65 -183t65 -183t177 -75t177 75t65 183zM458 816q0 16 10 25.5t26 9.5q14 0 23.5 -9.5t9.5 -23.5
q0 -98 -134 -98t-134 98q0 14 9.5 23.5t23.5 9.5q16 0 26 -9.5t10 -25.5q0 -34 65 -34t65 34z" />
    <glyph glyph-name="obreve" unicode="&#x14f;" horiz-adv-x="552" 
d="M505 217q0 -97 -63.5 -163t-165.5 -66t-165.5 66t-63.5 163t63.5 163t165.5 66t165.5 -66t63.5 -163zM411 217q0 64 -36 106.5t-99 42.5t-99 -42.5t-36 -106.5t36 -106.5t99 -42.5t99 42.5t36 106.5zM342 603q0 16 9.5 25.5t25.5 9.5q14 0 23.5 -9.5t9.5 -23.5
q0 -106 -134 -106t-134 106q0 14 9.5 23.5t23.5 9.5q16 0 25.5 -9.5t9.5 -25.5q0 -44 66 -44t66 44z" />
    <glyph glyph-name="Ohungarumlaut" unicode="&#x150;" horiz-adv-x="786" 
d="M731 333q0 -144 -94.5 -244.5t-243.5 -100.5t-243.5 100.5t-94.5 244.5t94.5 244.5t243.5 100.5t243.5 -100.5t94.5 -244.5zM635 333q0 108 -65 183t-177 75t-177 -75t-65 -183t65 -183t177 -75t177 75t65 183zM273 760q0 12 11 27l43 62q15 20 33 20q15 0 27 -10t12 -27
q0 -14 -9 -27l-42 -59q-15 -21 -36 -21q-16 0 -27.5 10t-11.5 25zM449 760q0 12 11 27l43 62q15 20 33 20q15 0 27 -10t12 -27q0 -14 -9 -27l-42 -59q-15 -21 -36 -21q-16 0 -27.5 10t-11.5 25z" />
    <glyph glyph-name="ohungarumlaut" unicode="&#x151;" horiz-adv-x="552" 
d="M505 217q0 -97 -63.5 -163t-165.5 -66t-165.5 66t-63.5 163t63.5 163t165.5 66t165.5 -66t63.5 -163zM411 217q0 64 -36 106.5t-99 42.5t-99 -42.5t-36 -106.5t36 -106.5t99 -42.5t99 42.5t36 106.5zM163 543q0 13 10 25l56 77q12 17 32 17q16 0 27.5 -10t11.5 -27
q0 -14 -10 -26l-55 -75q-13 -18 -34 -18q-15 0 -26.5 11t-11.5 26zM325 543q0 13 10 25l56 77q12 17 32 17q16 0 27.5 -10t11.5 -27q0 -14 -10 -26l-55 -75q-13 -18 -34 -18q-15 0 -26.5 11t-11.5 26z" />
    <glyph glyph-name="OE" unicode="&#x152;" horiz-adv-x="1150" 
d="M1114 44q0 -19 -13.5 -31.5t-32.5 -12.5h-384q-22 0 -35.5 14t-13.5 34v49q-86 -109 -242 -109q-149 0 -243.5 100.5t-94.5 244.5t94.5 244.5t243.5 100.5q156 0 242 -109v49q0 20 14.5 34t34.5 14h369q19 0 32.5 -12.5t13.5 -31.5t-13.5 -31.5t-32.5 -12.5h-322v-193
h182q18 0 31 -12.5t13 -31.5t-13 -31.5t-31 -12.5h-182v-209h337q19 0 32.5 -12t13.5 -32zM635 333q0 108 -65 183t-177 75t-177 -75t-65 -183t65 -183t177 -75t177 75t65 183z" />
    <glyph glyph-name="oe" unicode="&#x153;" horiz-adv-x="892" 
d="M636 446q93 0 150.5 -65.5t57.5 -163.5q0 -32 -36 -32h-299q4 -54 39.5 -88t95.5 -34q64 0 116 49q15 15 31 15t27 -11t11 -27q0 -13 -12 -27q-29 -34 -76.5 -54t-100.5 -20q-122 0 -183 88q-29 -40 -76 -64t-104 -24q-102 0 -165.5 66t-63.5 163t63.5 163t165.5 66
q113 0 182 -90q61 90 177 90zM412 217q0 64 -36 106.5t-99 42.5t-99 -42.5t-36 -106.5t36 -106.5t99 -42.5t99 42.5t36 106.5zM758 258q-5 48 -39 81t-83 33q-51 0 -85 -32.5t-40 -81.5h247z" />
    <glyph glyph-name="Racute" unicode="&#x154;" horiz-adv-x="701" 
d="M186 41q0 -21 -13 -35t-34 -14t-35 14t-14 35v576q0 22 13.5 35.5t35.5 13.5h269q111 0 169 -53.5t58 -142.5q0 -68 -35 -114.5t-102 -65.5l112 -229q5 -12 5 -21q0 -19 -13 -33.5t-34 -14.5q-30 0 -43 27l-127 260h-212v-238zM427 578h-241v-215h241q53 0 82.5 30.5
t29.5 76.5q0 47 -29.5 77.5t-82.5 30.5zM295 766q0 11 13 26l49 58q14 16 33 16q15 0 26 -11.5t11 -28.5q0 -12 -12 -26l-47 -55q-15 -17 -36 -17q-15 0 -26 11.5t-11 26.5z" />
    <glyph glyph-name="racute" unicode="&#x155;" horiz-adv-x="352" 
d="M340 400q0 -19 -12.5 -31.5t-31.5 -12.5q-60 0 -93.5 -39t-33.5 -114v-164q0 -20 -13.5 -33.5t-33.5 -13.5q-22 0 -34.5 13.5t-12.5 33.5v355q0 21 13.5 34.5t34.5 13.5q20 0 33 -13t13 -35v-43q13 43 46.5 68t80.5 25q20 0 32 -12.5t12 -31.5zM136 543q0 13 10 25l56 77
q12 17 32 17q16 0 27.5 -10t11.5 -27q0 -14 -10 -26l-55 -75q-13 -18 -34 -18q-16 0 -27 11t-11 26z" />
    <glyph glyph-name="Rcommaaccent" unicode="&#x156;" horiz-adv-x="701" 
d="M186 41q0 -21 -13 -35t-34 -14t-35 14t-14 35v576q0 22 13.5 35.5t35.5 13.5h269q111 0 169 -53.5t58 -142.5q0 -68 -35 -114.5t-102 -65.5l112 -229q5 -12 5 -21q0 -19 -13 -33.5t-34 -14.5q-30 0 -43 27l-127 260h-212v-238zM427 578h-241v-215h241q53 0 82.5 30.5
t29.5 76.5q0 47 -29.5 77.5t-82.5 30.5zM384 -134q0 -51 -17 -111q-10 -33 -42 -33q-18 0 -29 13t-5 35q15 54 15 91v27q0 43 40 43q38 0 38 -43v-22z" />
    <glyph glyph-name="rcommaaccent" unicode="&#x157;" horiz-adv-x="352" 
d="M340 400q0 -19 -12.5 -31.5t-31.5 -12.5q-60 0 -93.5 -39t-33.5 -114v-164q0 -20 -13.5 -33.5t-33.5 -13.5q-22 0 -34.5 13.5t-12.5 33.5v355q0 21 13.5 34.5t34.5 13.5q20 0 33 -13t13 -35v-43q13 43 46.5 68t80.5 25q20 0 32 -12.5t12 -31.5zM157 -134q0 -51 -17 -111
q-10 -33 -42 -33q-18 0 -29 13t-5 35q15 54 15 91v27q0 43 40 43q38 0 38 -43v-22z" />
    <glyph glyph-name="Rcaron" unicode="&#x158;" horiz-adv-x="701" 
d="M186 41q0 -21 -13 -35t-34 -14t-35 14t-14 35v576q0 22 13.5 35.5t35.5 13.5h269q111 0 169 -53.5t58 -142.5q0 -68 -35 -114.5t-102 -65.5l112 -229q5 -12 5 -21q0 -19 -13 -33.5t-34 -14.5q-30 0 -43 27l-127 260h-212v-238zM427 578h-241v-215h241q53 0 82.5 30.5
t29.5 76.5q0 47 -29.5 77.5t-82.5 30.5zM454 812l-90 -82q-11 -10 -24 -10t-24 10l-90 82q-11 11 -11 25q0 13 10 22t23 9q12 0 22 -8l70 -64l70 64q10 8 22 8q13 0 23 -9t10 -22q0 -14 -11 -25z" />
    <glyph glyph-name="rcaron" unicode="&#x159;" horiz-adv-x="352" 
d="M340 400q0 -19 -12.5 -31.5t-31.5 -12.5q-60 0 -93.5 -39t-33.5 -114v-164q0 -20 -13.5 -33.5t-33.5 -13.5q-22 0 -34.5 13.5t-12.5 33.5v355q0 21 13.5 34.5t34.5 13.5q20 0 33 -13t13 -35v-43q13 43 46.5 68t80.5 25q20 0 32 -12.5t12 -31.5zM315 594l-97 -87
q-11 -10 -24 -10t-24 10l-97 87q-11 11 -11 25q0 13 10 22t23 9q12 0 22 -8l77 -70l77 70q10 8 22 8q13 0 23 -9t10 -22q0 -14 -11 -25z" />
    <glyph glyph-name="Sacute" unicode="&#x15a;" horiz-adv-x="634" 
d="M582 177q0 -83 -67 -136t-188 -53q-66 0 -129 20t-107 54q-26 21 -26 45q0 18 11.5 28.5t29.5 10.5q13 0 34 -12q49 -31 90.5 -46.5t97.5 -15.5q77 0 117.5 27.5t40.5 72.5q0 47 -38.5 70t-140.5 54q-131 39 -182.5 84.5t-51.5 117.5q0 87 70 133.5t186 46.5
q76 0 151 -28q81 -31 81 -68q0 -18 -10.5 -30.5t-30.5 -12.5q-11 0 -19 5q-86 49 -171 49q-161 0 -161 -93q0 -42 35 -64.5t129 -51.5q66 -21 107.5 -38t76 -41t50 -55t15.5 -73zM263 766q0 11 13 26l49 58q14 16 33 16q15 0 26 -11.5t11 -28.5q0 -12 -12 -26l-47 -55
q-15 -17 -36 -17q-15 0 -26 11.5t-11 26.5z" />
    <glyph glyph-name="sacute" unicode="&#x15b;" horiz-adv-x="462" 
d="M420 116q0 -57 -47 -92.5t-134 -35.5q-93 0 -159 51q-20 16 -20 39q0 15 10.5 24t25.5 9q18 0 37 -14q53 -39 113 -39q40 0 61.5 13.5t21.5 37.5t-21 37.5t-77 28.5q-91 25 -129.5 58.5t-38.5 88.5q0 56 48 90t129 34q66 0 124 -28q46 -22 46 -49q0 -35 -36 -35
q-15 0 -41 14q-43 23 -95 23q-84 0 -84 -48q0 -24 21 -36.5t81 -29.5q88 -25 126 -54.5t38 -86.5zM183 543q0 13 10 25l56 77q12 17 32 17q16 0 27.5 -10t11.5 -27q0 -14 -10 -26l-55 -75q-13 -18 -34 -18q-15 0 -26.5 11t-11.5 26z" />
    <glyph glyph-name="Scircumflex" unicode="&#x15c;" horiz-adv-x="634" 
d="M582 177q0 -83 -67 -136t-188 -53q-66 0 -129 20t-107 54q-26 21 -26 45q0 18 11.5 28.5t29.5 10.5q13 0 34 -12q49 -31 90.5 -46.5t97.5 -15.5q77 0 117.5 27.5t40.5 72.5q0 47 -38.5 70t-140.5 54q-131 39 -182.5 84.5t-51.5 117.5q0 87 70 133.5t186 46.5
q76 0 151 -28q81 -31 81 -68q0 -18 -10.5 -30.5t-30.5 -12.5q-11 0 -19 5q-86 49 -171 49q-161 0 -161 -93q0 -42 35 -64.5t129 -51.5q66 -21 107.5 -38t76 -41t50 -55t15.5 -73zM351 860l90 -82q11 -11 11 -25q0 -13 -10 -22t-23 -9q-12 0 -22 8l-70 64l-70 -64
q-10 -8 -22 -8q-13 0 -23 9t-10 22q0 14 11 25l90 82q11 10 24 10t24 -10z" />
    <glyph glyph-name="scircumflex" unicode="&#x15d;" horiz-adv-x="462" 
d="M420 116q0 -57 -47 -92.5t-134 -35.5q-93 0 -159 51q-20 16 -20 39q0 15 10.5 24t25.5 9q18 0 37 -14q53 -39 113 -39q40 0 61.5 13.5t21.5 37.5t-21 37.5t-77 28.5q-91 25 -129.5 58.5t-38.5 88.5q0 56 48 90t129 34q66 0 124 -28q46 -22 46 -49q0 -35 -36 -35
q-15 0 -41 14q-43 23 -95 23q-84 0 -84 -48q0 -24 21 -36.5t81 -29.5q88 -25 126 -54.5t38 -86.5zM271 645l97 -87q11 -11 11 -25q0 -13 -10 -22t-23 -9q-12 0 -22 8l-77 70l-77 -70q-10 -8 -22 -8q-13 0 -23 9t-10 22q0 14 11 25l97 87q11 10 24 10t24 -10z" />
    <glyph glyph-name="Scedilla" unicode="&#x15e;" horiz-adv-x="634" 
d="M443 -115q0 -35 -27.5 -57.5t-81.5 -22.5q-36 0 -63 8q-30 9 -30 27q0 27 25 27q2 0 27 -5q20 -5 38 -5q42 0 42 26q0 22 -36 22q-11 0 -24.5 -2.5t-19.5 -2.5q-11 0 -18.5 5.5t-7.5 14.5q0 4 5 16q16 40 22 54q-123 10 -203 72q-26 21 -26 45q0 18 11.5 28.5t29.5 10.5
q13 0 34 -12q49 -31 90.5 -46.5t97.5 -15.5q77 0 117.5 27.5t40.5 72.5q0 47 -38.5 70t-140.5 54q-131 39 -182.5 84.5t-51.5 117.5q0 87 70 133.5t186 46.5q76 0 151 -28q81 -31 81 -68q0 -18 -10.5 -30.5t-30.5 -12.5q-11 0 -19 5q-86 49 -171 49q-161 0 -161 -93
q0 -42 35 -64.5t129 -51.5q66 -21 107.5 -38t76 -41t50 -55t15.5 -73q0 -80 -61.5 -132t-174.5 -56l-15 -40q17 5 36 5q33 0 54.5 -18t21.5 -51z" />
    <glyph glyph-name="Scedilla" unicode="&#xf6c1;" horiz-adv-x="634" 
d="M443 -115q0 -35 -27.5 -57.5t-81.5 -22.5q-36 0 -63 8q-30 9 -30 27q0 27 25 27q2 0 27 -5q20 -5 38 -5q42 0 42 26q0 22 -36 22q-11 0 -24.5 -2.5t-19.5 -2.5q-11 0 -18.5 5.5t-7.5 14.5q0 4 5 16q16 40 22 54q-123 10 -203 72q-26 21 -26 45q0 18 11.5 28.5t29.5 10.5
q13 0 34 -12q49 -31 90.5 -46.5t97.5 -15.5q77 0 117.5 27.5t40.5 72.5q0 47 -38.5 70t-140.5 54q-131 39 -182.5 84.5t-51.5 117.5q0 87 70 133.5t186 46.5q76 0 151 -28q81 -31 81 -68q0 -18 -10.5 -30.5t-30.5 -12.5q-11 0 -19 5q-86 49 -171 49q-161 0 -161 -93
q0 -42 35 -64.5t129 -51.5q66 -21 107.5 -38t76 -41t50 -55t15.5 -73q0 -80 -61.5 -132t-174.5 -56l-15 -40q17 5 36 5q33 0 54.5 -18t21.5 -51z" />
    <glyph glyph-name="scedilla" unicode="&#x15f;" horiz-adv-x="462" 
d="M420 116q0 -54 -41.5 -88.5t-119.5 -38.5l-15 -40q17 5 36 5q33 0 54.5 -18t21.5 -51q0 -35 -27.5 -57.5t-81.5 -22.5q-36 0 -63 8q-30 9 -30 27q0 27 25 27q2 0 27 -5q20 -5 38 -5q42 0 42 26q0 22 -36 22q-11 0 -24.5 -2.5t-19.5 -2.5q-11 0 -18.5 5.5t-7.5 14.5
q0 4 5 16q16 40 22 54q-76 9 -127 49q-20 16 -20 39q0 15 10.5 24t25.5 9q18 0 37 -14q53 -39 113 -39q40 0 61.5 13.5t21.5 37.5t-21 37.5t-77 28.5q-91 25 -129.5 58.5t-38.5 88.5q0 56 48 90t129 34q66 0 124 -28q46 -22 46 -49q0 -35 -36 -35q-15 0 -41 14
q-43 23 -95 23q-84 0 -84 -48q0 -24 21 -36.5t81 -29.5q88 -25 126 -54.5t38 -86.5z" />
    <glyph glyph-name="scedilla" unicode="&#xf6c2;" horiz-adv-x="462" 
d="M420 116q0 -54 -41.5 -88.5t-119.5 -38.5l-15 -40q17 5 36 5q33 0 54.5 -18t21.5 -51q0 -35 -27.5 -57.5t-81.5 -22.5q-36 0 -63 8q-30 9 -30 27q0 27 25 27q2 0 27 -5q20 -5 38 -5q42 0 42 26q0 22 -36 22q-11 0 -24.5 -2.5t-19.5 -2.5q-11 0 -18.5 5.5t-7.5 14.5
q0 4 5 16q16 40 22 54q-76 9 -127 49q-20 16 -20 39q0 15 10.5 24t25.5 9q18 0 37 -14q53 -39 113 -39q40 0 61.5 13.5t21.5 37.5t-21 37.5t-77 28.5q-91 25 -129.5 58.5t-38.5 88.5q0 56 48 90t129 34q66 0 124 -28q46 -22 46 -49q0 -35 -36 -35q-15 0 -41 14
q-43 23 -95 23q-84 0 -84 -48q0 -24 21 -36.5t81 -29.5q88 -25 126 -54.5t38 -86.5z" />
    <glyph glyph-name="Scaron" unicode="&#x160;" horiz-adv-x="634" 
d="M582 177q0 -83 -67 -136t-188 -53q-66 0 -129 20t-107 54q-26 21 -26 45q0 18 11.5 28.5t29.5 10.5q13 0 34 -12q49 -31 90.5 -46.5t97.5 -15.5q77 0 117.5 27.5t40.5 72.5q0 47 -38.5 70t-140.5 54q-131 39 -182.5 84.5t-51.5 117.5q0 87 70 133.5t186 46.5
q76 0 151 -28q81 -31 81 -68q0 -18 -10.5 -30.5t-30.5 -12.5q-11 0 -19 5q-86 49 -171 49q-161 0 -161 -93q0 -42 35 -64.5t129 -51.5q66 -21 107.5 -38t76 -41t50 -55t15.5 -73zM437 812l-90 -82q-11 -10 -24 -10t-24 10l-90 82q-11 11 -11 25q0 13 10 22t23 9q12 0 22 -8
l70 -64l70 64q10 8 22 8q13 0 23 -9t10 -22q0 -14 -11 -25z" />
    <glyph glyph-name="scaron" unicode="&#x161;" horiz-adv-x="467" 
d="M420 116q0 -57 -47 -92.5t-134 -35.5q-93 0 -159 51q-20 16 -20 39q0 15 10.5 24t25.5 9q18 0 37 -14q53 -39 113 -39q40 0 61.5 13.5t21.5 37.5t-21 37.5t-77 28.5q-91 25 -129.5 58.5t-38.5 88.5q0 56 48 90t129 34q66 0 124 -28q46 -22 46 -49q0 -35 -36 -35
q-15 0 -41 14q-43 23 -95 23q-84 0 -84 -48q0 -24 21 -36.5t81 -29.5q88 -25 126 -54.5t38 -86.5zM366 594l-97 -87q-11 -10 -24 -10t-24 10l-97 87q-11 11 -11 25q0 13 10 22t23 9q12 0 22 -8l77 -70l77 70q10 8 22 8q13 0 23 -9t10 -22q0 -14 -11 -25z" />
    <glyph glyph-name="Tcommaaccent" unicode="&#x162;" horiz-adv-x="614" 
d="M589 620q0 -18 -13.5 -31t-32.5 -13h-187v-535q0 -21 -13 -35t-34 -14t-35 14t-14 35v535h-189q-19 0 -32.5 13t-13.5 31q0 20 13.5 33t32.5 13h472q19 0 32.5 -13t13.5 -33zM344 -134q0 -51 -17 -111q-10 -33 -42 -33q-18 0 -29 13t-5 35q15 54 15 91v27q0 43 40 43
q38 0 38 -43v-22z" />
    <glyph glyph-name="Tcommaaccent" unicode="&#x21a;" horiz-adv-x="614" 
d="M589 620q0 -18 -13.5 -31t-32.5 -13h-187v-535q0 -21 -13 -35t-34 -14t-35 14t-14 35v535h-189q-19 0 -32.5 13t-13.5 31q0 20 13.5 33t32.5 13h472q19 0 32.5 -13t13.5 -33zM344 -134q0 -51 -17 -111q-10 -33 -42 -33q-18 0 -29 13t-5 35q15 54 15 91v27q0 43 40 43
q38 0 38 -43v-22z" />
    <glyph glyph-name="tcommaaccent" unicode="&#x163;" horiz-adv-x="347" 
d="M222 39q0 -20 -13 -33.5t-34 -13.5t-34 13.5t-13 33.5v317h-76q-16 0 -27.5 11t-11.5 28t11.5 28t27.5 11h76v131q0 20 13 33.5t34 13.5t34 -13.5t13 -33.5v-131h86q16 0 27.5 -11t11.5 -28t-11.5 -28t-27.5 -11h-86v-317zM211 -134q0 -51 -17 -111q-10 -33 -42 -33
q-18 0 -29 13t-5 35q15 54 15 91v27q0 43 40 43q38 0 38 -43v-22z" />
    <glyph glyph-name="tcommaaccent" unicode="&#x21b;" horiz-adv-x="347" 
d="M222 39q0 -20 -13 -33.5t-34 -13.5t-34 13.5t-13 33.5v317h-76q-16 0 -27.5 11t-11.5 28t11.5 28t27.5 11h76v131q0 20 13 33.5t34 13.5t34 -13.5t13 -33.5v-131h86q16 0 27.5 -11t11.5 -28t-11.5 -28t-27.5 -11h-86v-317zM211 -134q0 -51 -17 -111q-10 -33 -42 -33
q-18 0 -29 13t-5 35q15 54 15 91v27q0 43 40 43q38 0 38 -43v-22z" />
    <glyph glyph-name="Tcaron" unicode="&#x164;" horiz-adv-x="614" 
d="M589 620q0 -18 -13.5 -31t-32.5 -13h-187v-535q0 -21 -13 -35t-34 -14t-35 14t-14 35v535h-189q-19 0 -32.5 13t-13.5 31q0 20 13.5 33t32.5 13h472q19 0 32.5 -13t13.5 -33zM421 812l-90 -82q-11 -10 -24 -10t-24 10l-90 82q-11 11 -11 25q0 13 10 22t23 9q12 0 22 -8
l70 -64l70 64q10 8 22 8q13 0 23 -9t10 -22q0 -14 -11 -25z" />
    <glyph glyph-name="tcaron" unicode="&#x165;" horiz-adv-x="410" 
d="M222 39q0 -20 -13 -33.5t-34 -13.5t-34 13.5t-13 33.5v317h-76q-16 0 -27.5 11t-11.5 28t11.5 28t27.5 11h76v131q0 20 13 33.5t34 13.5t34 -13.5t13 -33.5v-131h86q16 0 27.5 -11t11.5 -28t-11.5 -28t-27.5 -11h-86v-317zM410 688q0 -52 -17 -111q-10 -33 -42 -33
q-18 0 -29 13t-5 35q15 54 15 91v15q0 43 40 43q38 0 38 -43v-10z" />
    <glyph glyph-name="Tbar" unicode="&#x166;" horiz-adv-x="624" 
d="M119 310q-41 0 -41 33t41 33h146v200h-189q-19 0 -32.5 13t-13.5 31q0 20 13 33t33 13h472q20 0 33 -13t13 -33q0 -18 -13.5 -31t-32.5 -13h-187v-200h146q41 0 41 -33t-41 -33h-146v-269q0 -21 -13 -35t-34 -14t-35 14t-14 35v269h-146z" />
    <glyph glyph-name="tbar" unicode="&#x167;" horiz-adv-x="347" 
d="M54 189q-41 0 -41 33t41 33h74v101h-76q-16 0 -27.5 11t-11.5 28t11.5 28t27.5 11h76v131q0 20 13 33.5t34 13.5t34 -13.5t13 -33.5v-131h86q16 0 27.5 -11t11.5 -28t-11.5 -28t-27.5 -11h-86v-101h84q41 0 41 -33t-41 -33h-84v-150q0 -20 -13 -33.5t-34 -13.5t-34 13.5
t-13 33.5v150h-74z" />
    <glyph glyph-name="Utilde" unicode="&#x168;" horiz-adv-x="734" 
d="M367 -12q-131 0 -206 74.5t-75 203.5v359q0 21 13.5 35t35.5 14q21 0 34 -13.5t13 -35.5v-369q0 -83 48 -132t137 -49t137 49t48 132v369q0 22 13 35.5t34 13.5q22 0 35.5 -14t13.5 -35v-359q0 -129 -75 -203.5t-206 -74.5zM529 801q0 -27 -25 -48t-57 -21q-23 0 -75 21
q-36 15 -54 15q-19 0 -34 -18q-14 -17 -28 -17q-15 0 -25 8.5t-10 21.5q0 19 21 43q29 35 73 35q29 0 68 -17q49 -21 61 -21q15 0 29 16q12 14 24 14q13 0 22.5 -9t9.5 -23z" />
    <glyph glyph-name="utilde" unicode="&#x169;" horiz-adv-x="564" 
d="M70 395q0 20 12.5 33.5t34.5 13.5q21 0 34 -13.5t13 -33.5v-200q0 -55 29.5 -88.5t83.5 -33.5q55 0 86.5 35t31.5 88v199q0 20 13.5 33.5t33.5 13.5q21 0 34 -13.5t13 -33.5v-355q0 -22 -13 -35t-34 -13t-34 12t-13 36v32q-44 -84 -144 -84q-85 0 -133 56t-48 147v204z
M432 576q0 -26 -26 -47t-55 -21q-23 0 -71 21q-35 15 -47 15q-19 0 -32 -15q-18 -20 -30 -20q-14 0 -24 8.5t-10 20.5q0 16 21 42q26 33 64 33q27 0 70 -18q42 -18 54 -18q17 0 31 15t23 15q13 0 22.5 -8.5t9.5 -22.5z" />
    <glyph glyph-name="Umacron" unicode="&#x16a;" horiz-adv-x="734" 
d="M367 -12q-131 0 -206 74.5t-75 203.5v359q0 21 13.5 35t35.5 14q21 0 34 -13.5t13 -35.5v-369q0 -83 48 -132t137 -49t137 49t48 132v369q0 22 13 35.5t34 13.5q22 0 35.5 -14t13.5 -35v-359q0 -129 -75 -203.5t-206 -74.5zM250 746q-13 0 -23.5 9.5t-10.5 25.5
t10.5 25.5t23.5 9.5h235q13 0 23.5 -9.5t10.5 -25.5t-10.5 -25.5t-23.5 -9.5h-235z" />
    <glyph glyph-name="umacron" unicode="&#x16b;" horiz-adv-x="564" 
d="M70 395q0 20 12.5 33.5t34.5 13.5q21 0 34 -13.5t13 -33.5v-200q0 -55 29.5 -88.5t83.5 -33.5q55 0 86.5 35t31.5 88v199q0 20 13.5 33.5t33.5 13.5q21 0 34 -13.5t13 -33.5v-355q0 -22 -13 -35t-34 -13t-34 12t-13 36v32q-44 -84 -144 -84q-85 0 -133 56t-48 147v204z
M173 523q-13 0 -23 9.5t-10 23.5t10 23.5t23 9.5h222q13 0 23 -9.5t10 -23.5t-10 -23.5t-23 -9.5h-222z" />
    <glyph glyph-name="Ubreve" unicode="&#x16c;" horiz-adv-x="734" 
d="M367 -12q-131 0 -206 74.5t-75 203.5v359q0 21 13.5 35t35.5 14q21 0 34 -13.5t13 -35.5v-369q0 -83 48 -132t137 -49t137 49t48 132v369q0 22 13 35.5t34 13.5q22 0 35.5 -14t13.5 -35v-359q0 -129 -75 -203.5t-206 -74.5zM432 816q0 16 10 25.5t26 9.5q14 0 23.5 -9.5
t9.5 -23.5q0 -98 -134 -98t-134 98q0 14 9.5 23.5t23.5 9.5q16 0 26 -9.5t10 -25.5q0 -34 65 -34t65 34z" />
    <glyph glyph-name="ubreve" unicode="&#x16d;" horiz-adv-x="564" 
d="M70 395q0 20 12.5 33.5t34.5 13.5q21 0 34 -13.5t13 -33.5v-200q0 -55 29.5 -88.5t83.5 -33.5q55 0 86.5 35t31.5 88v199q0 20 13.5 33.5t33.5 13.5q21 0 34 -13.5t13 -33.5v-355q0 -22 -13 -35t-34 -13t-34 12t-13 36v32q-44 -84 -144 -84q-85 0 -133 56t-48 147v204z
M353 603q0 16 9.5 25.5t25.5 9.5q14 0 23.5 -9.5t9.5 -23.5q0 -106 -134 -106t-134 106q0 14 9.5 23.5t23.5 9.5q16 0 25.5 -9.5t9.5 -25.5q0 -44 66 -44t66 44z" />
    <glyph glyph-name="Uring" unicode="&#x16e;" horiz-adv-x="734" 
d="M367 -12q-131 0 -206 74.5t-75 203.5v359q0 21 13.5 35t35.5 14q21 0 34 -13.5t13 -35.5v-369q0 -83 48 -132t137 -49t137 49t48 132v369q0 22 13 35.5t34 13.5q22 0 35.5 -14t13.5 -35v-359q0 -129 -75 -203.5t-206 -74.5zM447 790q0 -34 -22.5 -56t-57.5 -22t-57.5 22
t-22.5 56q0 33 22 55t58 22t58 -22t22 -55zM331 790q0 -16 10 -26.5t26 -10.5t26 10.5t10 26.5t-10 26t-26 10t-26 -10t-10 -26z" />
    <glyph glyph-name="uring" unicode="&#x16f;" horiz-adv-x="564" 
d="M70 395q0 20 12.5 33.5t34.5 13.5q21 0 34 -13.5t13 -33.5v-200q0 -55 29.5 -88.5t83.5 -33.5q55 0 86.5 35t31.5 88v199q0 20 13.5 33.5t33.5 13.5q21 0 34 -13.5t13 -33.5v-355q0 -22 -13 -35t-34 -13t-34 12t-13 36v32q-44 -84 -144 -84q-85 0 -133 56t-48 147v204z
M364 566q0 -33 -23 -55.5t-59 -22.5t-59 22.5t-23 55.5t23 55t59 22t59 -22t23 -55zM247 566q0 -16 9.5 -26.5t25.5 -10.5t25.5 10.5t9.5 26.5t-9.5 26t-25.5 10t-25.5 -10t-9.5 -26z" />
    <glyph glyph-name="Uhungarumlaut" unicode="&#x170;" horiz-adv-x="734" 
d="M367 -12q-131 0 -206 74.5t-75 203.5v359q0 21 13.5 35t35.5 14q21 0 34 -13.5t13 -35.5v-369q0 -83 48 -132t137 -49t137 49t48 132v369q0 22 13 35.5t34 13.5q22 0 35.5 -14t13.5 -35v-359q0 -129 -75 -203.5t-206 -74.5zM233 760q0 12 11 27l43 62q15 20 33 20
q15 0 27 -10t12 -27q0 -14 -9 -27l-42 -59q-15 -21 -36 -21q-16 0 -27.5 10t-11.5 25zM409 760q0 12 11 27l43 62q15 20 33 20q15 0 27 -10t12 -27q0 -14 -9 -27l-42 -59q-15 -21 -36 -21q-16 0 -27.5 10t-11.5 25z" />
    <glyph glyph-name="uhungarumlaut" unicode="&#x171;" horiz-adv-x="564" 
d="M70 395q0 20 12.5 33.5t34.5 13.5q21 0 34 -13.5t13 -33.5v-200q0 -55 29.5 -88.5t83.5 -33.5q55 0 86.5 35t31.5 88v199q0 20 13.5 33.5t33.5 13.5q21 0 34 -13.5t13 -33.5v-355q0 -22 -13 -35t-34 -13t-34 12t-13 36v32q-44 -84 -144 -84q-85 0 -133 56t-48 147v204z
M156 543q0 13 10 25l56 77q12 17 32 17q16 0 27.5 -10t11.5 -27q0 -14 -10 -26l-55 -75q-13 -18 -34 -18q-16 0 -27 11t-11 26zM318 543q0 13 10 25l56 77q12 17 32 17q16 0 27.5 -10t11.5 -27q0 -14 -10 -26l-55 -75q-13 -18 -34 -18q-16 0 -27 11t-11 26z" />
    <glyph glyph-name="Uogonek" unicode="&#x172;" horiz-adv-x="734" 
d="M490 -142q0 -26 -34 -34q-20 -5 -45 -5q-86 0 -86 66q0 67 137 115q-44 -12 -95 -12q-131 0 -206 74.5t-75 203.5v359q0 21 13.5 35t35.5 14q21 0 34 -13.5t13 -35.5v-369q0 -83 48 -132t137 -49t137 49t48 132v369q0 22 13 35.5t34 13.5q22 0 35.5 -14t13.5 -35v-359
q0 -163 -118 -237q-131 -82 -131 -126q0 -22 25 -22q13 0 25 2q41 7 41 -25z" />
    <glyph glyph-name="uogonek" unicode="&#x173;" horiz-adv-x="564" 
d="M416 -1q-21 12 -21 41v32q-44 -84 -144 -84q-85 0 -133 56t-48 147v204q0 20 12.5 33.5t34.5 13.5q21 0 34 -13.5t13 -33.5v-200q0 -55 29.5 -88.5t83.5 -33.5q55 0 86.5 35t31.5 88v199q0 20 13.5 33.5t33.5 13.5q21 0 34 -13.5t13 -33.5v-356q0 -25 -21 -39
q-81 -53 -81 -97q0 -22 25 -22q13 0 25 2q41 7 41 -25q0 -26 -34 -34q-20 -5 -45 -5q-41 0 -63.5 19t-22.5 51q0 38 31 68t72 42z" />
    <glyph glyph-name="Wcircumflex" unicode="&#x174;" horiz-adv-x="978" 
d="M532 643l162 -481l164 480q10 32 43 32q19 0 31 -12t12 -31q0 -8 -3 -17l-203 -588q-11 -34 -45 -34q-32 0 -42 29l-162 481l-162 -481q-10 -29 -42 -29q-34 0 -45 34l-203 588q-3 9 -3 17q0 19 12 31t31 12q33 0 43 -32l164 -480l162 481q11 31 43 31t43 -31zM513 860
l90 -82q11 -11 11 -25q0 -13 -10 -22t-23 -9q-12 0 -22 8l-70 64l-70 -64q-10 -8 -22 -8q-13 0 -23 9t-10 22q0 14 11 25l90 82q11 10 24 10t24 -10z" />
    <glyph glyph-name="wcircumflex" unicode="&#x175;" horiz-adv-x="675" 
d="M375 414l101 -271l88 269q10 30 38 30q18 0 30.5 -10.5t12.5 -29.5q0 -8 -4 -18l-123 -365q-10 -27 -39 -27q-30 0 -40 28l-102 277l-101 -277q-10 -28 -40 -28q-32 0 -39 27l-123 365q-4 10 -4 18q0 19 12.5 29.5t30.5 10.5q28 0 38 -30l88 -269l100 271q10 28 38 28
t38 -28zM361 645l97 -87q11 -11 11 -25q0 -13 -10 -22t-23 -9q-12 0 -22 8l-77 70l-77 -70q-10 -8 -22 -8q-13 0 -23 9t-10 22q0 14 11 25l97 87q11 10 24 10t24 -10z" />
    <glyph glyph-name="Ycircumflex" unicode="&#x176;" horiz-adv-x="596" 
d="M298 378l198 276q15 20 38 20q17 0 30.5 -12t13.5 -31q0 -14 -10 -29l-221 -309v-252q0 -21 -13.5 -35t-35.5 -14t-35.5 14t-13.5 35v252l-221 309q-10 15 -10 29q0 19 13.5 31t30.5 12q23 0 38 -20zM322 860l90 -82q11 -11 11 -25q0 -13 -10 -22t-23 -9q-12 0 -22 8
l-70 64l-70 -64q-10 -8 -22 -8q-13 0 -23 9t-10 22q0 14 11 25l90 82q11 10 24 10t24 -10z" />
    <glyph glyph-name="ycircumflex" unicode="&#x177;" horiz-adv-x="464" 
d="M439 399q0 -12 -4 -22q-62 -173 -132 -333q-39 -91 -80 -143.5t-105 -88.5q-10 -7 -24 -7q-18 0 -30 11.5t-12 26.5q0 24 24 39q43 28 67 55t47 70l-156 374q-4 12 -4 19q0 20 12 31t30 11q29 0 40 -26l128 -319l115 311q12 34 44 34q16 0 28 -10.5t12 -32.5zM260 645
l97 -87q11 -11 11 -25q0 -13 -10 -22t-23 -9q-12 0 -22 8l-77 70l-77 -70q-10 -8 -22 -8q-13 0 -23 9t-10 22q0 14 11 25l97 87q11 10 24 10t24 -10z" />
    <glyph glyph-name="Ydieresis" unicode="&#x178;" horiz-adv-x="596" 
d="M298 378l198 276q15 20 38 20q17 0 30.5 -12t13.5 -31q0 -14 -10 -29l-221 -309v-252q0 -21 -13.5 -35t-35.5 -14t-35.5 14t-13.5 35v252l-221 309q-10 15 -10 29q0 19 13.5 31t30.5 12q23 0 38 -20zM153 781q0 22 15 37t37 15t37 -15t15 -37t-15 -37t-37 -15t-37 15
t-15 37zM340 781q0 22 15 37t37 15t37 -15t15 -37t-15 -37t-37 -15t-37 15t-15 37z" />
    <glyph glyph-name="Zacute" unicode="&#x179;" horiz-adv-x="637" 
d="M582 44q0 -19 -12.5 -31.5t-31.5 -12.5h-424q-21 0 -33.5 12t-12.5 32q0 12 11 27l369 508h-329q-19 0 -32 12.5t-13 32.5q0 19 13 30.5t32 11.5h417q19 0 30.5 -11.5t11.5 -31.5q0 -13 -11 -29l-369 -507h340q18 0 31 -12t13 -31zM273 766q0 11 13 26l49 58q14 16 33 16
q15 0 26 -11.5t11 -28.5q0 -12 -12 -26l-47 -55q-15 -17 -36 -17q-15 0 -26 11.5t-11 26.5z" />
    <glyph glyph-name="zacute" unicode="&#x17a;" horiz-adv-x="482" 
d="M432 37q0 -16 -11.5 -26.5t-27.5 -10.5h-299q-16 0 -27.5 11.5t-11.5 25.5q0 17 10 30l240 291h-208q-16 0 -27.5 11t-11.5 28t11.5 27t27.5 10h291q19 0 30 -10.5t11 -28.5q0 -14 -10 -27l-241 -292h215q16 0 27.5 -10.5t11.5 -28.5zM193 543q0 13 10 25l56 77
q12 17 32 17q16 0 27.5 -10t11.5 -27q0 -14 -10 -26l-55 -75q-13 -18 -34 -18q-15 0 -26.5 11t-11.5 26z" />
    <glyph glyph-name="Zdotaccent" unicode="&#x17b;" horiz-adv-x="637" 
d="M582 44q0 -19 -12.5 -31.5t-31.5 -12.5h-424q-21 0 -33.5 12t-12.5 32q0 12 11 27l369 508h-329q-19 0 -32 12.5t-13 32.5q0 19 13 30.5t32 11.5h417q19 0 30.5 -11.5t11.5 -31.5q0 -13 -11 -29l-369 -507h340q18 0 31 -12t13 -31zM267 783q0 23 16.5 39t38.5 16
t38.5 -16t16.5 -39t-16.5 -39t-38.5 -16t-38.5 16t-16.5 39z" />
    <glyph glyph-name="zdotaccent" unicode="&#x17c;" horiz-adv-x="482" 
d="M432 37q0 -16 -11.5 -26.5t-27.5 -10.5h-299q-16 0 -27.5 11.5t-11.5 25.5q0 17 10 30l240 291h-208q-16 0 -27.5 11t-11.5 28t11.5 27t27.5 10h291q19 0 30 -10.5t11 -28.5q0 -14 -10 -27l-241 -292h215q16 0 27.5 -10.5t11.5 -28.5zM190 565q0 23 16 39t39 16t39 -16
t16 -39t-16 -39t-39 -16t-39 16t-16 39z" />
    <glyph glyph-name="Zcaron" unicode="&#x17d;" horiz-adv-x="637" 
d="M582 44q0 -19 -12.5 -31.5t-31.5 -12.5h-424q-21 0 -33.5 12t-12.5 32q0 12 11 27l369 508h-329q-19 0 -32 12.5t-13 32.5q0 19 13 30.5t32 11.5h417q19 0 30.5 -11.5t11.5 -31.5q0 -13 -11 -29l-369 -507h340q18 0 31 -12t13 -31zM444 812l-90 -82q-11 -10 -24 -10
t-24 10l-90 82q-11 11 -11 25q0 13 10 22t23 9q12 0 22 -8l70 -64l70 64q10 8 22 8q13 0 23 -9t10 -22q0 -14 -11 -25z" />
    <glyph glyph-name="zcaron" unicode="&#x17e;" horiz-adv-x="482" 
d="M432 37q0 -16 -11.5 -26.5t-27.5 -10.5h-299q-16 0 -27.5 11.5t-11.5 25.5q0 17 10 30l240 291h-208q-16 0 -27.5 11t-11.5 28t11.5 27t27.5 10h291q19 0 30 -10.5t11 -28.5q0 -14 -10 -27l-241 -292h215q16 0 27.5 -10.5t11.5 -28.5zM373 594l-97 -87q-11 -10 -24 -10
t-24 10l-97 87q-11 11 -11 25q0 13 10 22t23 9q12 0 22 -8l77 -70l77 70q10 8 22 8q13 0 23 -9t10 -22q0 -14 -11 -25z" />
    <glyph glyph-name="florin" unicode="&#x192;" horiz-adv-x="565" 
d="M520 636q0 -43 -49 -43h-19q-43 0 -63.5 -19t-28.5 -64l-21 -120h76q15 0 25 -8.5t10 -24.5q0 -20 -12 -32.5t-34 -12.5h-79l-59 -336q-8 -43 -19 -71.5t-31.5 -52.5t-56 -35.5t-87.5 -11.5h-23q-17 0 -27 9t-10 24q0 22 13 33.5t33 11.5h20q45 0 64 18.5t27 64.5l61 346
h-58q-15 0 -25 9t-10 23q0 21 12.5 33.5t34.5 12.5h60l20 112q16 89 57 129t134 40h22q43 0 43 -35z" />
    <glyph glyph-name="Aringacute" unicode="&#x1fa;" horiz-adv-x="710" 
d="M436 711q0 -44 -38 -67l264 -587q5 -12 5 -20q0 -19 -12 -32t-33 -13q-31 0 -43 28l-67 146h-314l-67 -146q-12 -28 -43 -28q-21 0 -33 13t-12 32q0 8 5 20l263 587q-37 23 -37 67q0 33 22.5 55t58.5 22t58.5 -22t22.5 -55zM477 251l-122 283l-122 -283h244zM320 711
q0 -16 9.5 -26t25.5 -10t25.5 10t9.5 26t-9.5 25.5t-25.5 9.5t-25.5 -9.5t-9.5 -25.5zM318 858q0 13 10 25l32 44q12 17 32 17q16 0 26.5 -9t10.5 -26q0 -14 -10 -26l-31 -42q-13 -18 -34 -18q-16 0 -26 10.5t-10 24.5z" />
    <glyph glyph-name="aringacute" unicode="&#x1fb;" horiz-adv-x="517" 
d="M449 39q0 -21 -12 -34t-34 -13q-21 0 -33.5 13.5t-12.5 33.5v9q-47 -60 -141 -60q-73 0 -119.5 37.5t-46.5 97.5q0 65 47.5 100.5t122.5 35.5q81 0 135 -51v43q0 60 -28 87.5t-92 27.5q-49 0 -99 -18q-24 -8 -31 -8q-18 0 -29 11t-11 28q0 27 44 45q55 22 134 22
q99 0 152.5 -49t53.5 -140v-218zM355 123q0 32 -32.5 51.5t-74.5 19.5q-48 0 -76 -19t-28 -52t28 -52t74 -19q45 0 77 20t32 51zM344 566q0 -33 -23 -55.5t-59 -22.5t-59 22.5t-23 55.5t23 55t59 22t59 -22t23 -55zM227 566q0 -16 9.5 -26.5t25.5 -10.5t25.5 10.5t9.5 26.5
t-9.5 26t-25.5 10t-25.5 -10t-9.5 -26zM228 716q0 13 10 25l32 44q12 17 32 17q16 0 26.5 -9t10.5 -26q0 -14 -10 -26l-31 -42q-13 -18 -34 -18q-16 0 -26 10.5t-10 24.5z" />
    <glyph glyph-name="AEacute" unicode="&#x1fc;" horiz-adv-x="949" 
d="M355 666h497q19 0 32.5 -12.5t13.5 -31.5t-13.5 -31.5t-32.5 -12.5h-427l87 -193h200q18 0 31 -12.5t13 -31.5t-13 -31.5t-31 -12.5h-160l95 -209h220q19 0 32.5 -12t13.5 -32q0 -19 -13.5 -31.5t-32.5 -12.5h-249q-31 0 -43 28l-63 138h-314l-67 -146q-12 -28 -43 -28
q-21 0 -33 13t-12 32q0 8 5 20l264 581q12 28 43 28zM477 251l-122 275l-122 -275h244zM347 766q0 11 13 26l49 58q14 16 33 16q15 0 26 -11.5t11 -28.5q0 -12 -12 -26l-47 -55q-15 -17 -36 -17q-15 0 -26 11.5t-11 26.5z" />
    <glyph glyph-name="aeacute" unicode="&#x1fd;" horiz-adv-x="836" 
d="M580 446q92 0 150 -66t58 -164q0 -13 -8.5 -22t-25.5 -9h-301q3 -54 38.5 -88t95.5 -34q71 0 117 49q15 15 31 15q19 0 28.5 -11t9.5 -26q0 -13 -12 -28q-66 -74 -177 -74q-59 0 -105.5 23t-68.5 61q-62 -84 -185 -84q-80 0 -127.5 37.5t-47.5 97.5q0 65 47 100t123 35
q86 0 135 -51v44q0 60 -28 87.5t-92 27.5q-54 0 -99 -18q-20 -8 -31 -8q-18 0 -29 11t-11 28q0 27 44 45q53 22 134 22q113 0 163 -83q60 83 174 83zM702 258q-5 48 -38.5 81t-83.5 33q-51 0 -85.5 -32.5t-39.5 -81.5h247zM355 123q0 30 -31.5 50.5t-76.5 20.5
q-48 0 -76 -19t-28 -52t30 -52.5t74 -19.5q46 0 77 20.5t31 51.5zM252 543q0 13 10 25l56 77q12 17 32 17q16 0 27.5 -10t11.5 -27q0 -14 -10 -26l-55 -75q-13 -18 -34 -18q-16 0 -27 11t-11 26z" />
    <glyph glyph-name="Oslashacute" unicode="&#x1fe;" horiz-adv-x="787" 
d="M63 -15l87 103q-95 98 -95 245q0 144 94.5 244.5t243.5 100.5q115 0 201 -64l86 101q11 13 23 13t20.5 -8t8.5 -21q0 -10 -7 -18l-88 -104q94 -100 94 -244t-94.5 -244.5t-243.5 -100.5q-114 0 -201 63l-87 -102q-9 -11 -22 -11q-11 0 -19.5 8.5t-8.5 19.5q0 9 8 19z
M151 333q0 -103 58 -175l328 388q-61 45 -144 45q-112 0 -177 -75t-65 -183zM635 333q0 103 -58 173l-328 -387q60 -44 144 -44q112 0 177 75t65 183zM347 766q0 11 13 26l49 58q14 16 33 16q15 0 26 -11.5t11 -28.5q0 -12 -12 -26l-47 -55q-15 -17 -36 -17q-15 0 -26 11.5
t-11 26.5z" />
    <glyph glyph-name="oslashacute" unicode="&#x1ff;" horiz-adv-x="554" 
d="M56 -20l57 72q-65 63 -65 165q0 97 63.5 163t165.5 66q67 0 124 -34l57 72q10 12 20 12q11 0 19.5 -6.5t8.5 -19.5q0 -7 -8 -17l-57 -72q65 -65 65 -164q0 -97 -63.5 -163t-165.5 -66q-69 0 -124 33l-58 -73q-9 -10 -21 -10q-10 0 -17.5 7t-8.5 17q0 7 8 18zM142 217
q0 -56 27 -95l179 225q-30 19 -71 19q-63 0 -99 -42.5t-36 -106.5zM412 217q0 55 -27 94l-179 -225q28 -18 71 -18q63 0 99 42.5t36 106.5zM221 543q0 13 10 25l56 77q12 17 32 17q16 0 27.5 -10t11.5 -27q0 -14 -10 -26l-55 -75q-13 -18 -34 -18q-15 0 -26.5 11t-11.5 26z
" />
    <glyph glyph-name="Scommaaccent" unicode="&#x218;" horiz-adv-x="634" 
d="M582 177q0 -83 -67 -136t-188 -53q-66 0 -129 20t-107 54q-26 21 -26 45q0 18 11.5 28.5t29.5 10.5q13 0 34 -12q49 -31 90.5 -46.5t97.5 -15.5q77 0 117.5 27.5t40.5 72.5q0 47 -38.5 70t-140.5 54q-131 39 -182.5 84.5t-51.5 117.5q0 87 70 133.5t186 46.5
q76 0 151 -28q81 -31 81 -68q0 -18 -10.5 -30.5t-30.5 -12.5q-11 0 -19 5q-86 49 -171 49q-161 0 -161 -93q0 -42 35 -64.5t129 -51.5q66 -21 107.5 -38t76 -41t50 -55t15.5 -73zM373 -134q0 -51 -17 -111q-10 -33 -42 -33q-18 0 -29 13t-5 35q15 54 15 91v27q0 43 40 43
q38 0 38 -43v-22z" />
    <glyph glyph-name="scommaaccent" unicode="&#x219;" horiz-adv-x="467" 
d="M420 116q0 -57 -47 -92.5t-134 -35.5q-93 0 -159 51q-20 16 -20 39q0 15 10.5 24t25.5 9q18 0 37 -14q53 -39 113 -39q40 0 61.5 13.5t21.5 37.5t-21 37.5t-77 28.5q-91 25 -129.5 58.5t-38.5 88.5q0 56 48 90t129 34q66 0 124 -28q46 -22 46 -49q0 -35 -36 -35
q-15 0 -41 14q-43 23 -95 23q-84 0 -84 -48q0 -24 21 -36.5t81 -29.5q88 -25 126 -54.5t38 -86.5zM288 -134q0 -51 -17 -111q-10 -33 -42 -33q-18 0 -29 13t-5 35q15 54 15 91v27q0 43 40 43q38 0 38 -43v-22z" />
    <glyph glyph-name="circumflex" unicode="&#x2c6;" horiz-adv-x="374" 
d="M211 645l97 -87q11 -11 11 -25q0 -13 -10 -22t-23 -9q-12 0 -22 8l-77 70l-77 -70q-10 -8 -22 -8q-13 0 -23 9t-10 22q0 14 11 25l97 87q11 10 24 10t24 -10z" />
    <glyph glyph-name="caron" unicode="&#x2c7;" horiz-adv-x="374" 
d="M308 594l-97 -87q-11 -10 -24 -10t-24 10l-97 87q-11 11 -11 25q0 13 10 22t23 9q12 0 22 -8l77 -70l77 70q10 8 22 8q13 0 23 -9t10 -22q0 -14 -11 -25z" />
    <glyph glyph-name="breve" unicode="&#x2d8;" horiz-adv-x="378" 
d="M255 603q0 16 9.5 25.5t25.5 9.5q14 0 23.5 -9.5t9.5 -23.5q0 -106 -134 -106t-134 106q0 14 9.5 23.5t23.5 9.5q16 0 25.5 -9.5t9.5 -25.5q0 -44 66 -44t66 44z" />
    <glyph glyph-name="dotaccent" unicode="&#x2d9;" horiz-adv-x="254" 
d="M72 565q0 23 16 39t39 16t39 -16t16 -39t-16 -39t-39 -16t-39 16t-16 39z" />
    <glyph glyph-name="ring" unicode="&#x2da;" horiz-adv-x="294" 
d="M229 566q0 -33 -23 -55.5t-59 -22.5t-59 22.5t-23 55.5t23 55t59 22t59 -22t23 -55zM112 566q0 -16 9.5 -26.5t25.5 -10.5t25.5 10.5t9.5 26.5t-9.5 26t-25.5 10t-25.5 -10t-9.5 -26z" />
    <glyph glyph-name="ogonek" unicode="&#x2db;" horiz-adv-x="320" 
d="M235 -142q0 -26 -34 -34q-20 -5 -45 -5q-41 0 -63.5 19t-22.5 51q0 39 37 68.5t84 42.5h44q-91 -60 -91 -97q0 -22 25 -22q13 0 25 2q41 7 41 -25z" />
    <glyph glyph-name="tilde" unicode="&#x2dc;" horiz-adv-x="405" 
d="M350 576q0 -26 -26 -47t-55 -21q-23 0 -71 21q-35 15 -47 15q-19 0 -32 -15q-18 -20 -30 -20q-14 0 -24 8.5t-10 20.5q0 16 21 42q26 33 64 33q27 0 70 -18q42 -18 54 -18q17 0 31 15t23 15q13 0 22.5 -8.5t9.5 -22.5z" />
    <glyph glyph-name="hungarumlaut" unicode="&#x2dd;" horiz-adv-x="479" 
d="M100 543q0 13 10 25l56 77q12 17 32 17q16 0 27.5 -10t11.5 -27q0 -14 -10 -26l-55 -75q-13 -18 -34 -18q-16 0 -27 11t-11 26zM262 543q0 13 10 25l56 77q12 17 32 17q16 0 27.5 -10t11.5 -27q0 -14 -10 -26l-55 -75q-13 -18 -34 -18q-16 0 -27 11t-11 26z" />
    <glyph glyph-name="Omega" unicode="&#x3a9;" horiz-adv-x="840" 
d="M420 591q-110 0 -176.5 -70t-66.5 -186q0 -72 40.5 -138.5t110.5 -112.5q25 -16 25 -40q0 -19 -13 -31.5t-32 -12.5h-190q-18 0 -30.5 12.5t-12.5 31.5t12.5 32.5t30.5 13.5h82q-118 107 -118 248q0 148 94 244t244 96t244 -96t94 -244q0 -141 -118 -248h82
q18 0 30.5 -13.5t12.5 -32.5t-12.5 -31.5t-30.5 -12.5h-190q-19 0 -32 12.5t-13 31.5q0 24 25 40q70 46 110.5 112.5t40.5 138.5q0 116 -66.5 186t-176.5 70z" />
    <glyph glyph-name="pi" unicode="&#x3c0;" horiz-adv-x="642" 
d="M592 394q0 -18 -12 -29t-29 -11h-71v-242q0 -23 8.5 -33t32.5 -10h16q17 0 28 -9.5t11 -28.5q0 -37 -39 -37h-30q-115 0 -115 115v245h-152v-319q0 -18 -13 -30.5t-31 -12.5t-31 12.5t-13 30.5v319h-70q-16 0 -28 11.5t-12 28.5t12 28.5t28 11.5h469q17 0 29 -11t12 -29z
" />
    <glyph glyph-name="Wgrave" unicode="&#x1e80;" horiz-adv-x="978" 
d="M532 643l162 -481l164 480q10 32 43 32q19 0 31 -12t12 -31q0 -8 -3 -17l-203 -588q-11 -34 -45 -34q-32 0 -42 29l-162 481l-162 -481q-10 -29 -42 -29q-34 0 -45 34l-203 588q-3 9 -3 17q0 19 12 31t31 12q33 0 43 -32l164 -480l162 481q11 31 43 31t43 -31zM523 766
q0 -15 -11 -26.5t-26 -11.5q-21 0 -36 17l-47 55q-12 14 -12 26q0 17 11 28.5t26 11.5q19 0 33 -16l49 -58q13 -15 13 -26z" />
    <glyph glyph-name="wgrave" unicode="&#x1e81;" horiz-adv-x="675" 
d="M375 414l101 -271l88 269q10 30 38 30q18 0 30.5 -10.5t12.5 -29.5q0 -8 -4 -18l-123 -365q-10 -27 -39 -27q-30 0 -40 28l-102 277l-101 -277q-10 -28 -40 -28q-32 0 -39 27l-123 365q-4 10 -4 18q0 19 12.5 29.5t30.5 10.5q28 0 38 -30l88 -269l100 271q10 28 38 28
t38 -28zM365 543q0 -15 -11.5 -26t-26.5 -11q-21 0 -34 18l-55 75q-10 12 -10 26q0 17 11.5 27t27.5 10q20 0 32 -17l56 -77q10 -12 10 -25z" />
    <glyph glyph-name="Wacute" unicode="&#x1e82;" horiz-adv-x="978" 
d="M532 643l162 -481l164 480q10 32 43 32q19 0 31 -12t12 -31q0 -8 -3 -17l-203 -588q-11 -34 -45 -34q-32 0 -42 29l-162 481l-162 -481q-10 -29 -42 -29q-34 0 -45 34l-203 588q-3 9 -3 17q0 19 12 31t31 12q33 0 43 -32l164 -480l162 481q11 31 43 31t43 -31zM451 766
q0 11 13 26l49 58q14 16 33 16q15 0 26 -11.5t11 -28.5q0 -12 -12 -26l-47 -55q-15 -17 -36 -17q-15 0 -26 11.5t-11 26.5z" />
    <glyph glyph-name="wacute" unicode="&#x1e83;" horiz-adv-x="675" 
d="M375 414l101 -271l88 269q10 30 38 30q18 0 30.5 -10.5t12.5 -29.5q0 -8 -4 -18l-123 -365q-10 -27 -39 -27q-30 0 -40 28l-102 277l-101 -277q-10 -28 -40 -28q-32 0 -39 27l-123 365q-4 10 -4 18q0 19 12.5 29.5t30.5 10.5q28 0 38 -30l88 -269l100 271q10 28 38 28
t38 -28zM299 543q0 13 10 25l56 77q12 17 32 17q16 0 27.5 -10t11.5 -27q0 -14 -10 -26l-55 -75q-13 -18 -34 -18q-15 0 -26.5 11t-11.5 26z" />
    <glyph glyph-name="Wdieresis" unicode="&#x1e84;" horiz-adv-x="978" 
d="M532 643l162 -481l164 480q10 32 43 32q19 0 31 -12t12 -31q0 -8 -3 -17l-203 -588q-11 -34 -45 -34q-32 0 -42 29l-162 481l-162 -481q-10 -29 -42 -29q-34 0 -45 34l-203 588q-3 9 -3 17q0 19 12 31t31 12q33 0 43 -32l164 -480l162 481q11 31 43 31t43 -31zM344 781
q0 22 15 37t37 15t37 -15t15 -37t-15 -37t-37 -15t-37 15t-15 37zM531 781q0 22 15 37t37 15t37 -15t15 -37t-15 -37t-37 -15t-37 15t-15 37z" />
    <glyph glyph-name="wdieresis" unicode="&#x1e85;" horiz-adv-x="675" 
d="M375 414l101 -271l88 269q10 30 38 30q18 0 30.5 -10.5t12.5 -29.5q0 -8 -4 -18l-123 -365q-10 -27 -39 -27q-30 0 -40 28l-102 277l-101 -277q-10 -28 -40 -28q-32 0 -39 27l-123 365q-4 10 -4 18q0 19 12.5 29.5t30.5 10.5q28 0 38 -30l88 -269l100 271q10 28 38 28
t38 -28zM200 566q0 22 15 37t37 15t37 -15t15 -37t-15 -37t-37 -15t-37 15t-15 37zM370 566q0 22 15 37t37 15t37 -15t15 -37t-15 -37t-37 -15t-37 15t-15 37z" />
    <glyph glyph-name="Ygrave" unicode="&#x1ef2;" horiz-adv-x="596" 
d="M298 378l198 276q15 20 38 20q17 0 30.5 -12t13.5 -31q0 -14 -10 -29l-221 -309v-252q0 -21 -13.5 -35t-35.5 -14t-35.5 14t-13.5 35v252l-221 309q-10 15 -10 29q0 19 13.5 31t30.5 12q23 0 38 -20zM335 766q0 -15 -11 -26.5t-26 -11.5q-21 0 -36 17l-47 55
q-12 14 -12 26q0 17 11 28.5t26 11.5q19 0 33 -16l49 -58q13 -15 13 -26z" />
    <glyph glyph-name="ygrave" unicode="&#x1ef3;" horiz-adv-x="464" 
d="M439 399q0 -12 -4 -22q-62 -173 -132 -333q-39 -91 -80 -143.5t-105 -88.5q-10 -7 -24 -7q-18 0 -30 11.5t-12 26.5q0 24 24 39q43 28 67 55t47 70l-156 374q-4 12 -4 19q0 20 12 31t30 11q29 0 40 -26l128 -319l115 311q12 34 44 34q16 0 28 -10.5t12 -32.5zM280 543
q0 -15 -11 -26t-27 -11q-21 0 -34 18l-55 75q-10 12 -10 26q0 17 11.5 27t27.5 10q20 0 32 -17l56 -77q10 -12 10 -25z" />
    <glyph glyph-name="endash" unicode="&#x2013;" horiz-adv-x="592" 
d="M112 208q-17 0 -29.5 11t-12.5 29t12.5 29t29.5 11h368q17 0 29.5 -11t12.5 -29t-12.5 -29t-29.5 -11h-368z" />
    <glyph glyph-name="emdash" unicode="&#x2014;" horiz-adv-x="835" 
d="M112 208q-17 0 -29.5 11t-12.5 29t12.5 29t29.5 11h611q17 0 29.5 -11t12.5 -29t-12.5 -29t-29.5 -11h-611z" />
    <glyph glyph-name="quoteleft" unicode="&#x2018;" horiz-adv-x="252" 
d="M70 477q0 99 35 168q16 30 41 30q19 0 30 -10t11 -23q0 -9 -9 -29q-26 -60 -26 -123v-53q0 -19 -11 -31.5t-30 -12.5t-30 12.5t-11 31.5v40z" />
    <glyph glyph-name="quoteright" unicode="&#x2019;" horiz-adv-x="252" 
d="M182 591q0 -99 -35 -168q-16 -30 -41 -30q-19 0 -30 10t-11 23q0 9 9 29q26 60 26 123v53q0 19 11 31.5t30 12.5t30 -12.5t11 -31.5v-40z" />
    <glyph glyph-name="quotesinglbase" unicode="&#x201a;" horiz-adv-x="229" 
d="M159 31q0 -99 -35 -168q-16 -30 -41 -30q-19 0 -30 10t-11 23q0 9 9 29q26 60 26 123v53q0 19 11 31.5t30 12.5t30 -12.5t11 -31.5v-40z" />
    <glyph glyph-name="quotedblleft" unicode="&#x201c;" horiz-adv-x="438" 
d="M266 477q0 99 35 168q16 30 41 30q19 0 30 -10t11 -23q0 -9 -9 -29q-26 -60 -26 -123v-53q0 -19 -11 -31.5t-30 -12.5t-30 12.5t-11 31.5v40zM70 477q0 99 35 168q16 30 41 30q19 0 30 -10t11 -23q0 -9 -9 -29q-26 -60 -26 -123v-53q0 -19 -11 -31.5t-30 -12.5t-30 12.5
t-11 31.5v40z" />
    <glyph glyph-name="quotedblright" unicode="&#x201d;" horiz-adv-x="438" 
d="M182 591q0 -99 -35 -168q-16 -30 -41 -30q-19 0 -30 10t-11 23q0 9 9 29q26 60 26 123v53q0 19 11 31.5t30 12.5t30 -12.5t11 -31.5v-40zM378 591q0 -99 -35 -168q-16 -30 -41 -30q-19 0 -30 10t-11 23q0 9 9 29q26 60 26 123v53q0 19 11 31.5t30 12.5t30 -12.5t11 -31.5
v-40z" />
    <glyph glyph-name="quotedblbase" unicode="&#x201e;" horiz-adv-x="425" 
d="M159 31q0 -99 -35 -168q-16 -30 -41 -30q-19 0 -30 10t-11 23q0 9 9 29q26 60 26 123v53q0 19 11 31.5t30 12.5t30 -12.5t11 -31.5v-40zM355 31q0 -99 -35 -168q-16 -30 -41 -30q-19 0 -30 10t-11 23q0 9 9 29q26 60 26 123v53q0 19 11 31.5t30 12.5t30 -12.5t11 -31.5
v-40z" />
    <glyph glyph-name="dagger" unicode="&#x2020;" horiz-adv-x="486" 
d="M431 471q0 -18 -12 -29.5t-29 -11.5h-104v-467q0 -18 -12 -30.5t-31 -12.5t-31 12.5t-12 30.5v467h-104q-18 0 -29.5 11.5t-11.5 29.5t11.5 29.5t29.5 11.5h104v119q0 18 12 30.5t31 12.5t31 -12.5t12 -30.5v-119h104q17 0 29 -11.5t12 -29.5z" />
    <glyph glyph-name="daggerdbl" unicode="&#x2021;" horiz-adv-x="526" 
d="M451 123q0 -18 -12 -29.5t-29 -11.5h-104v-119q0 -18 -12 -30.5t-31 -12.5t-31 12.5t-12 30.5v119h-104q-18 0 -29.5 11.5t-11.5 29.5t11.5 29.5t29.5 11.5h104v266h-104q-18 0 -29.5 11.5t-11.5 29.5t11.5 29.5t29.5 11.5h104v119q0 18 12 30.5t31 12.5t31 -12.5
t12 -30.5v-119h104q17 0 29 -11.5t12 -29.5t-12 -29.5t-29 -11.5h-104v-266h104q17 0 29 -11.5t12 -29.5z" />
    <glyph glyph-name="bullet" unicode="&#x2022;" horiz-adv-x="382" 
d="M312 319q0 -50 -35.5 -85.5t-85.5 -35.5t-85.5 35.5t-35.5 85.5t35.5 85t85.5 35t85.5 -35t35.5 -85z" />
    <glyph glyph-name="ellipsis" unicode="&#x2026;" horiz-adv-x="780" 
d="M70 52q0 25 17.5 42.5t42.5 17.5t42.5 -17.5t17.5 -42.5t-17.5 -42.5t-42.5 -17.5t-42.5 17.5t-17.5 42.5zM330 52q0 25 17.5 42.5t42.5 17.5t42.5 -17.5t17.5 -42.5t-17.5 -42.5t-42.5 -17.5t-42.5 17.5t-17.5 42.5zM590 52q0 25 17.5 42.5t42.5 17.5t42.5 -17.5
t17.5 -42.5t-17.5 -42.5t-42.5 -17.5t-42.5 17.5t-17.5 42.5z" />
    <glyph glyph-name="perthousand" unicode="&#x2030;" horiz-adv-x="1262" 
d="M803 150q0 -69 -45.5 -115.5t-119.5 -46.5t-119.5 46.5t-45.5 115.5q0 70 45.5 116t119.5 46t119.5 -46t45.5 -116zM674 641q0 -11 -11 -29l-409 -608q-11 -16 -29 -16q-17 0 -28 10t-11 24q0 12 13 31l408 608q11 17 30 17q37 0 37 -37zM726 150q0 41 -24 67.5t-64 26.5
q-39 0 -63.5 -26.5t-24.5 -67.5t24.5 -67.5t63.5 -26.5q40 0 64 26.5t24 67.5zM385 516q0 -69 -45.5 -115.5t-119.5 -46.5t-119.5 46.5t-45.5 115.5q0 70 45.5 116t119.5 46t119.5 -46t45.5 -116zM308 516q0 41 -24 67.5t-64 26.5q-39 0 -63.5 -26.5t-24.5 -67.5t24.5 -67.5
t63.5 -26.5q40 0 64 26.5t24 67.5zM1202 150q0 -69 -45.5 -115.5t-119.5 -46.5t-119.5 46.5t-45.5 115.5q0 70 45.5 116t119.5 46t119.5 -46t45.5 -116zM1125 150q0 41 -24 67.5t-64 26.5q-39 0 -63.5 -26.5t-24.5 -67.5t24.5 -67.5t63.5 -26.5q40 0 64 26.5t24 67.5z" />
    <glyph glyph-name="guilsinglleft" unicode="&#x2039;" horiz-adv-x="351" 
d="M276 353q0 -13 -15 -28l-116 -111l116 -111q15 -15 15 -28q0 -17 -11.5 -28.5t-28.5 -11.5q-13 0 -26 11l-147 142q-13 13 -13 26t13 26l147 142q13 11 26 11q17 0 28.5 -11.5t11.5 -28.5z" />
    <glyph glyph-name="guilsinglright" unicode="&#x203a;" horiz-adv-x="351" 
d="M75 353q0 17 11.5 28.5t28.5 11.5q13 0 26 -11l147 -142q13 -13 13 -26t-13 -26l-147 -142q-13 -11 -26 -11q-17 0 -28.5 11.5t-11.5 28.5q0 13 15 28l116 111l-116 111q-15 15 -15 28z" />
    <glyph glyph-name="fraction" unicode="&#x2044;" horiz-adv-x="497" 
d="M484 623l-411 -616q-13 -19 -33 -19q-14 0 -24.5 9t-10.5 23q0 11 8 24l410 615q13 19 34 19q14 0 24.5 -9t10.5 -23q0 -10 -8 -23z" />
    <glyph glyph-name="Euro" unicode="&#x20ac;" horiz-adv-x="714" 
d="M420 678q145 0 226 -130q13 -22 13 -41q0 -20 -13 -30t-32 -10q-21 0 -40 32q-31 51 -67 74.5t-87 23.5q-66 0 -111.5 -42t-65.5 -111h179q14 0 24 -9.5t10 -23.5t-10 -23.5t-24 -9.5h-192q-3 -21 -3 -45q0 -23 3 -45h192q14 0 24 -9.5t10 -23.5t-10 -23.5t-24 -9.5h-179
q20 -70 65.5 -111.5t111.5 -41.5q51 0 87 23.5t67 74.5q19 32 40 32q19 0 32 -10t13 -30q0 -19 -13 -41q-81 -130 -226 -130q-105 0 -176 64.5t-96 169.5h-79q-14 0 -24 9.5t-10 23.5t10 23.5t24 9.5h68q-3 22 -3 45t3 45h-68q-14 0 -24 9.5t-10 23.5t10 23.5t24 9.5h79
q25 105 96 169.5t176 64.5z" />
    <glyph glyph-name="uni2113" unicode="&#x2113;" horiz-adv-x="555" 
d="M26 224q65 24 115 45v212q0 98 53.5 147.5t145.5 49.5q83 0 129 -43.5t46 -117.5q0 -120 -142 -217q-57 -39 -136 -75v-56q0 -48 22 -73t80 -25q48 0 116 26q25 8 40.5 -4.5t15.5 -32.5q0 -29 -33 -43q-64 -29 -148 -29q-189 0 -189 186v11q-29 -11 -87 -31
q-23 -8 -38.5 4t-15.5 31q0 25 26 35zM237 482v-169q184 93 184 199q0 39 -22 61.5t-62 22.5q-48 0 -74 -29t-26 -85z" />
    <glyph glyph-name="uni2116" unicode="&#x2116;" horiz-adv-x="1108" 
d="M646 37q0 -19 -12 -32t-34 -13t-36 17l-383 488v-460q0 -19 -12.5 -32t-33.5 -13q-20 0 -32.5 13t-12.5 32v591q0 22 12.5 34t34.5 12t36 -19l382 -486v459q0 21 13 33.5t33 12.5t32.5 -12.5t12.5 -33.5v-591zM1053 525q0 -67 -43 -110t-112 -43t-112 43t-43 110t43 110
t112 43t112 -43t43 -110zM812 525q0 -39 22 -63.5t64 -24.5t64 24.5t22 63.5t-22 63.5t-64 24.5t-64 -24.5t-22 -63.5zM783 248q-40 0 -40 35t40 35h230q40 0 40 -35t-40 -35h-230z" />
    <glyph glyph-name="trademark" unicode="&#x2122;" horiz-adv-x="751" 
d="M320 642q0 -10 -7 -17t-17 -7h-85v-224q0 -11 -7.5 -18.5t-18.5 -7.5q-12 0 -19 7.5t-7 18.5v224h-84q-11 0 -18 7t-7 17t7 17t18 7h221q10 0 17 -7t7 -17zM520 441l101 211q9 18 25 18q11 0 18 -7t7 -18v-253q0 -10 -7 -17t-18 -7t-18 7t-7 17v154l-77 -161
q-8 -17 -24 -17t-24 17l-77 161v-154q0 -10 -7 -17t-18 -7t-18 7t-7 17v253q0 11 7 18t18 7q16 0 25 -18z" />
    <glyph glyph-name="estimated" unicode="&#x212e;" horiz-adv-x="844" 
d="M779 333v-6q0 -16 -16 -16h-556v-213q92 -77 215 -77q84 0 149 28.5t130 90.5q7 7 15 7q7 0 12 -5t5 -11q0 -7 -7 -14q-66 -62 -137 -95.5t-167 -33.5q-149 0 -253 103t-104 242q0 140 106 242.5t251 102.5t251 -103.5t106 -241.5zM422 645q-122 0 -215 -81v-221h430v221
q-93 81 -215 81z" />
    <glyph glyph-name="partialdiff" unicode="&#x2202;" horiz-adv-x="566" 
d="M55 168q0 114 65 176.5t173 62.5q81 0 123 -45q-7 71 -50 137t-112 107q-23 14 -23 32q0 19 12 29.5t32 10.5q15 0 35 -13q88 -51 142 -139t54 -205q0 -152 -68.5 -243t-189.5 -91q-89 0 -141 53.5t-52 127.5zM401 214q0 53 -29 83.5t-85 30.5q-63 0 -101 -42.5
t-38 -111.5q0 -49 27 -78.5t79 -29.5q67 0 107 44.5t40 103.5z" />
    <glyph glyph-name="Delta" unicode="&#x2206;" horiz-adv-x="710" 
d="M393 647l249 -585q3 -6 5 -12q7 -19 -3.5 -34.5t-32.5 -15.5h-512q-22 0 -32.5 15.5t-3.5 34.5q2 6 5 12l249 585q12 27 38 27t38 -27zM171 83h368l-184 447z" />
    <glyph glyph-name="product" unicode="&#x220f;" horiz-adv-x="765" 
d="M275 37q0 -19 -12.5 -32t-32.5 -13t-32.5 13t-12.5 32v550h-102q-16 0 -27 12t-11 28t11 27.5t27 11.5h598q16 0 27.5 -12t11.5 -28t-11.5 -27.5t-27.5 -11.5h-101v-550q0 -19 -12.5 -32t-32.5 -13t-32.5 13t-12.5 32v550h-215v-550z" />
    <glyph glyph-name="summation" unicode="&#x2211;" horiz-adv-x="583" 
d="M414 317l-222 -306h281q18 0 29 -11.5t11 -28.5t-11.5 -28t-28.5 -11h-362q-18 0 -29.5 11t-11.5 28q0 14 8 25l250 345l-250 345q-8 11 -8 25q0 17 11.5 28t29.5 11h362q17 0 28.5 -11t11.5 -28t-11 -28.5t-29 -11.5h-281l222 -306q8 -11 8 -24t-8 -24z" />
    <glyph glyph-name="minus" unicode="&#x2212;" horiz-adv-x="562" 
d="M122 283q-17 0 -29.5 11t-12.5 29t12.5 29t29.5 11h318q17 0 29.5 -11t12.5 -29t-12.5 -29t-29.5 -11h-318z" />
    <glyph glyph-name="radical" unicode="&#x221a;" horiz-adv-x="538" 
d="M478 637q0 -7 -3 -17l-184 -600q-10 -28 -40 -28q-19 0 -32 18l-157 224q-7 11 -7 24q0 17 12 27.5t29 10.5q21 0 33 -18l110 -164l159 535q8 29 39 29q19 0 30 -11t11 -30z" />
    <glyph glyph-name="infinity" unicode="&#x221e;" horiz-adv-x="814" 
d="M749 233q0 -67 -44.5 -105.5t-116.5 -38.5q-95 0 -181 97q-86 -97 -181 -97q-72 0 -116.5 38.5t-44.5 105.5t44.5 105.5t116.5 38.5q95 0 181 -97q86 97 181 97q72 0 116.5 -38.5t44.5 -105.5zM227 306q-39 0 -61.5 -19t-22.5 -54t22.5 -54t61.5 -19q69 0 131 73
q-62 73 -131 73zM587 306q-69 0 -131 -73q62 -73 131 -73q39 0 61.5 19t22.5 54t-22.5 54t-61.5 19z" />
    <glyph glyph-name="integral" unicode="&#x222b;" horiz-adv-x="447" 
d="M169 511q0 78 40 121.5t121 43.5h13q19 0 31.5 -11t12.5 -30t-12.5 -30.5t-31.5 -11.5h-5q-39 0 -57 -19t-18 -61v-543q0 -78 -40 -121.5t-121 -43.5h-13q-19 0 -31.5 11t-12.5 30t12.5 30.5t31.5 11.5h5q39 0 57 19t18 61v543z" />
    <glyph glyph-name="approxequal" unicode="&#x2248;" horiz-adv-x="551" 
d="M481 431q0 -7 -3 -13q-15 -27 -47 -49.5t-72 -22.5q-28 0 -80 25q-46 22 -66 22q-22 0 -34.5 -5t-27.5 -20q-17 -17 -33 -17q-12 0 -22.5 8.5t-10.5 21.5q0 7 4 15q14 30 46 52t75 22q35 0 83 -23q52 -26 68 -26q33 0 65 32q10 10 22 10q15 0 24 -8.5t9 -23.5zM481 261
q0 -7 -3 -13q-15 -27 -47 -49.5t-72 -22.5q-32 0 -80 25q-42 22 -66 22q-22 0 -34.5 -5t-27.5 -20q-17 -17 -33 -17q-12 0 -22.5 8.5t-10.5 21.5q0 7 4 15q14 30 46 52t75 22q35 0 83 -23q52 -26 68 -26q33 0 65 32q10 10 22 10q15 0 24 -8.5t9 -23.5z" />
    <glyph glyph-name="notequal" unicode="&#x2260;" horiz-adv-x="555" 
d="M475 408q0 -16 -11 -26.5t-27 -10.5h-110l-51 -98h161q16 0 27 -10.5t11 -26.5t-11 -26.5t-27 -10.5h-200l-33 -63q-7 -14 -21 -14q-9 0 -16 6t-7 14q0 7 3 13l23 44h-69q-15 0 -26 10.5t-11 26.5t11 26.5t26 10.5h108l51 98h-159q-15 0 -26 10.5t-11 26.5t11 26.5
t26 10.5h197l36 68q7 12 20 12q10 0 16.5 -6t6.5 -15q0 -5 -4 -15l-24 -44h72q16 0 27 -10.5t11 -26.5z" />
    <glyph glyph-name="lessequal" unicode="&#x2264;" horiz-adv-x="601" 
d="M490 478q0 -21 -22 -32l-257 -122l257 -122q22 -11 22 -32q0 -17 -11.5 -29.5t-27.5 -12.5q-8 0 -20 6l-321 155q-22 12 -22 35t22 35l321 155q12 6 20 6q16 0 27.5 -12.5t11.5 -29.5zM484 72q16 0 26.5 -10t10.5 -25q0 -16 -10.5 -26.5t-26.5 -10.5h-370q-17 0 -28 10.5
t-11 26.5q0 15 11 25t28 10h370z" />
    <glyph glyph-name="greaterequal" unicode="&#x2265;" horiz-adv-x="601" 
d="M111 478q0 17 11.5 29.5t27.5 12.5q8 0 20 -6l321 -155q22 -12 22 -35t-22 -35l-321 -155q-12 -6 -20 -6q-16 0 -27.5 12.5t-11.5 29.5q0 21 22 32l257 122l-257 122q-22 11 -22 32zM117 72h370q17 0 28 -10t11 -25q0 -16 -11 -26.5t-28 -10.5h-370q-16 0 -26.5 10.5
t-10.5 26.5q0 15 10.5 25t26.5 10z" />
    <glyph glyph-name="lozenge" unicode="&#x25ca;" horiz-adv-x="668" 
d="M60 333q0 10 7 19l237 303q16 19 30 19t30 -19l237 -303q7 -9 7 -19t-7 -19l-237 -303q-16 -19 -30 -19t-30 19l-237 303q-7 9 -7 19zM334 104l178 229l-178 229l-178 -229z" />
    <glyph glyph-name="apple" unicode="&#xf8ff;" horiz-adv-x="846" 
d="M766 333h-333v-333h-333v666h666v-333z" />
    <glyph glyph-name="Acute" horiz-adv-x="332" 
d="M120 766q0 11 13 26l49 58q14 16 33 16q15 0 26 -11.5t11 -28.5q0 -12 -12 -26l-47 -55q-15 -17 -36 -17q-15 0 -26 11.5t-11 26.5z" />
    <glyph glyph-name="Breve" horiz-adv-x="438" 
d="M284 816q0 16 10 25.5t26 9.5q14 0 23.5 -9.5t9.5 -23.5q0 -98 -134 -98t-134 98q0 14 9.5 23.5t23.5 9.5q16 0 26 -9.5t10 -25.5q0 -34 65 -34t65 34z" />
    <glyph glyph-name="Caron" horiz-adv-x="420" 
d="M324 812l-90 -82q-11 -10 -24 -10t-24 10l-90 82q-11 11 -11 25q0 13 10 22t23 9q12 0 22 -8l70 -64l70 64q10 8 22 8q13 0 23 -9t10 -22q0 -14 -11 -25z" />
    <glyph glyph-name="Circumflex" horiz-adv-x="420" 
d="M234 860l90 -82q11 -11 11 -25q0 -13 -10 -22t-23 -9q-12 0 -22 8l-70 64l-70 -64q-10 -8 -22 -8q-13 0 -23 9t-10 22q0 14 11 25l90 82q11 10 24 10t24 -10z" />
    <glyph glyph-name="commaaccent" horiz-adv-x="325" 
d="M205 -134q0 -51 -17 -111q-10 -33 -42 -33q-18 0 -29 13t-5 35q15 54 15 91v27q0 43 40 43q38 0 38 -43v-22z" />
    <glyph glyph-name="Dieresis" horiz-adv-x="461" 
d="M85 781q0 22 15 37t37 15t37 -15t15 -37t-15 -37t-37 -15t-37 15t-15 37zM272 781q0 22 15 37t37 15t37 -15t15 -37t-15 -37t-37 -15t-37 15t-15 37z" />
    <glyph glyph-name="Dotaccent" horiz-adv-x="280" 
d="M85 783q0 23 16.5 39t38.5 16t38.5 -16t16.5 -39t-16.5 -39t-38.5 -16t-38.5 16t-16.5 39z" />
    <glyph glyph-name="Hungarumlaut" horiz-adv-x="492" 
d="M110 760q0 12 11 27l43 62q15 20 33 20q15 0 27 -10t12 -27q0 -14 -9 -27l-42 -59q-15 -21 -36 -21q-16 0 -27.5 10t-11.5 25zM286 760q0 12 11 27l43 62q15 20 33 20q15 0 27 -10t12 -27q0 -14 -9 -27l-42 -59q-15 -21 -36 -21q-16 0 -27.5 10t-11.5 25z" />
    <glyph glyph-name="Grave" horiz-adv-x="332" 
d="M212 766q0 -15 -11 -26.5t-26 -11.5q-21 0 -36 17l-47 55q-12 14 -12 26q0 17 11 28.5t26 11.5q19 0 33 -16l49 -58q13 -15 13 -26z" />
    <glyph glyph-name="Macron" horiz-adv-x="473" 
d="M119 746q-13 0 -23.5 9.5t-10.5 25.5t10.5 25.5t23.5 9.5h235q13 0 23.5 -9.5t10.5 -25.5t-10.5 -25.5t-23.5 -9.5h-235z" />
    <glyph glyph-name="Ring" horiz-adv-x="330" 
d="M245 790q0 -34 -22.5 -56t-57.5 -22t-57.5 22t-22.5 56q0 33 22 55t58 22t58 -22t22 -55zM129 790q0 -16 10 -26.5t26 -10.5t26 10.5t10 26.5t-10 26t-26 10t-26 -10t-10 -26z" />
    <glyph glyph-name="Tilde" horiz-adv-x="453" 
d="M383 801q0 -27 -25 -48t-57 -21q-23 0 -75 21q-36 15 -54 15q-19 0 -34 -18q-14 -17 -28 -17q-15 0 -25 8.5t-10 21.5q0 19 21 43q29 35 73 35q29 0 68 -17q49 -21 61 -21q15 0 29 16q12 14 24 14q13 0 22.5 -9t9.5 -23z" />
    <glyph glyph-name="a.salt" horiz-adv-x="571" 
d="M48 217q0 101 59 165t146 64q103 0 149 -84v33q0 20 13 33.5t34 13.5t34 -13.5t13 -33.5v-356q0 -20 -12 -33.5t-33 -13.5t-33.5 14t-12.5 34v32q-45 -84 -152 -84q-87 0 -146 64t-59 165zM142 217q0 -68 36 -109.5t96 -41.5q59 0 93.5 44.5t34.5 106.5t-34.5 106.5
t-93.5 44.5q-60 0 -96 -41.5t-36 -109.5z" />
    <glyph glyph-name="y.salt" horiz-adv-x="564" 
d="M395 79q-43 -81 -144 -81q-85 0 -133 56t-48 147v194q0 20 12.5 33.5t34.5 13.5q21 0 34 -13.5t13 -33.5v-190q0 -55 29.5 -88.5t83.5 -33.5q55 0 86.5 35t31.5 88v189q0 20 13.5 33.5t33.5 13.5q21 0 34 -13.5t13 -33.5v-362q0 -111 -56.5 -169.5t-169.5 -58.5
q-85 0 -160 42q-25 14 -25 38q0 21 18.5 31.5t45.5 -2.5q64 -34 120 -34q75 0 104 36t29 108v55z" />
    <glyph glyph-name="aacute.salt" horiz-adv-x="571" 
d="M232 543q0 13 10 25l56 77q12 17 32 17q16 0 27.5 -10t11.5 -27q0 -14 -10 -26l-55 -75q-13 -18 -34 -18q-16 0 -27 11t-11 26zM48 217q0 101 59 165t146 64q103 0 149 -84v33q0 20 13 33.5t34 13.5t34 -13.5t13 -33.5v-356q0 -20 -12 -33.5t-33 -13.5t-33.5 14t-12.5 34
v32q-45 -84 -152 -84q-87 0 -146 64t-59 165zM142 217q0 -68 36 -109.5t96 -41.5q59 0 93.5 44.5t34.5 106.5t-34.5 106.5t-93.5 44.5q-60 0 -96 -41.5t-36 -109.5z" />
    <glyph glyph-name="abreve.salt" horiz-adv-x="571" 
d="M48 217q0 101 59 165t146 64q103 0 149 -84v33q0 20 13 33.5t34 13.5t34 -13.5t13 -33.5v-356q0 -20 -12 -33.5t-33 -13.5t-33.5 14t-12.5 34v32q-45 -84 -152 -84q-87 0 -146 64t-59 165zM142 217q0 -68 36 -109.5t96 -41.5q59 0 93.5 44.5t34.5 106.5t-34.5 106.5
t-93.5 44.5q-60 0 -96 -41.5t-36 -109.5zM362 603q0 16 9.5 25.5t25.5 9.5q14 0 23.5 -9.5t9.5 -23.5q0 -106 -134 -106t-134 106q0 14 9.5 23.5t23.5 9.5q16 0 25.5 -9.5t9.5 -25.5q0 -44 66 -44t66 44z" />
    <glyph glyph-name="acircumflex.salt" horiz-adv-x="571" 
d="M323 645l97 -87q11 -11 11 -25q0 -13 -10 -22t-23 -9q-12 0 -22 8l-77 70l-77 -70q-10 -8 -22 -8q-13 0 -23 9t-10 22q0 14 11 25l97 87q11 10 24 10t24 -10zM48 217q0 101 59 165t146 64q103 0 149 -84v33q0 20 13 33.5t34 13.5t34 -13.5t13 -33.5v-356q0 -20 -12 -33.5
t-33 -13.5t-33.5 14t-12.5 34v32q-45 -84 -152 -84q-87 0 -146 64t-59 165zM142 217q0 -68 36 -109.5t96 -41.5q59 0 93.5 44.5t34.5 106.5t-34.5 106.5t-93.5 44.5q-60 0 -96 -41.5t-36 -109.5z" />
    <glyph glyph-name="adieresis.salt" horiz-adv-x="571" 
d="M152 566q0 22 15 37t37 15t37 -15t15 -37t-15 -37t-37 -15t-37 15t-15 37zM322 566q0 22 15 37t37 15t37 -15t15 -37t-15 -37t-37 -15t-37 15t-15 37zM48 217q0 101 59 165t146 64q103 0 149 -84v33q0 20 13 33.5t34 13.5t34 -13.5t13 -33.5v-356q0 -20 -12 -33.5
t-33 -13.5t-33.5 14t-12.5 34v32q-45 -84 -152 -84q-87 0 -146 64t-59 165zM142 217q0 -68 36 -109.5t96 -41.5q59 0 93.5 44.5t34.5 106.5t-34.5 106.5t-93.5 44.5q-60 0 -96 -41.5t-36 -109.5z" />
    <glyph glyph-name="amacron.salt" horiz-adv-x="571" 
d="M48 217q0 101 59 165t146 64q103 0 149 -84v33q0 20 13 33.5t34 13.5t34 -13.5t13 -33.5v-356q0 -20 -12 -33.5t-33 -13.5t-33.5 14t-12.5 34v32q-45 -84 -152 -84q-87 0 -146 64t-59 165zM142 217q0 -68 36 -109.5t96 -41.5q59 0 93.5 44.5t34.5 106.5t-34.5 106.5
t-93.5 44.5q-60 0 -96 -41.5t-36 -109.5zM182 523q-13 0 -23 9.5t-10 23.5t10 23.5t23 9.5h222q13 0 23 -9.5t10 -23.5t-10 -23.5t-23 -9.5h-222z" />
    <glyph glyph-name="agrave.salt" horiz-adv-x="571" 
d="M327 543q0 -15 -11.5 -26t-26.5 -11q-21 0 -34 18l-55 75q-10 12 -10 26q0 17 11.5 27t27.5 10q20 0 32 -17l56 -77q10 -12 10 -25zM48 217q0 101 59 165t146 64q103 0 149 -84v33q0 20 13 33.5t34 13.5t34 -13.5t13 -33.5v-356q0 -20 -12 -33.5t-33 -13.5t-33.5 14
t-12.5 34v32q-45 -84 -152 -84q-87 0 -146 64t-59 165zM142 217q0 -68 36 -109.5t96 -41.5q59 0 93.5 44.5t34.5 106.5t-34.5 106.5t-93.5 44.5q-60 0 -96 -41.5t-36 -109.5z" />
    <glyph glyph-name="aogonek.salt" horiz-adv-x="571" 
d="M488 -142q0 -26 -34 -34q-20 -5 -45 -5q-41 0 -63.5 19t-22.5 51q0 38 31 68t72 42q-21 12 -21 41v32q-45 -84 -152 -84q-87 0 -146 64t-59 165t59 165t146 64q103 0 149 -84v33q0 20 13 33.5t34 13.5t34 -13.5t13 -33.5v-356q0 -27 -18 -39q-81 -53 -81 -97
q0 -22 25 -22q13 0 25 2q41 7 41 -25zM142 217q0 -68 36 -109.5t96 -41.5q59 0 93.5 44.5t34.5 106.5t-34.5 106.5t-93.5 44.5q-60 0 -96 -41.5t-36 -109.5z" />
    <glyph glyph-name="atilde.salt" horiz-adv-x="571" 
d="M434 576q0 -26 -26 -47t-55 -21q-23 0 -71 21q-35 15 -47 15q-19 0 -32 -15q-18 -20 -30 -20q-14 0 -24 8.5t-10 20.5q0 16 21 42q26 33 64 33q27 0 70 -18q42 -18 54 -18q17 0 31 15t23 15q13 0 22.5 -8.5t9.5 -22.5zM48 217q0 101 59 165t146 64q103 0 149 -84v33
q0 20 13 33.5t34 13.5t34 -13.5t13 -33.5v-356q0 -20 -12 -33.5t-33 -13.5t-33.5 14t-12.5 34v32q-45 -84 -152 -84q-87 0 -146 64t-59 165zM142 217q0 -68 36 -109.5t96 -41.5q59 0 93.5 44.5t34.5 106.5t-34.5 106.5t-93.5 44.5q-60 0 -96 -41.5t-36 -109.5z" />
    <glyph glyph-name="aring.salt" horiz-adv-x="571" 
d="M366 566q0 -33 -23 -55.5t-59 -22.5t-59 22.5t-23 55.5t23 55t59 22t59 -22t23 -55zM249 566q0 -16 9.5 -26.5t25.5 -10.5t25.5 10.5t9.5 26.5t-9.5 26t-25.5 10t-25.5 -10t-9.5 -26zM48 217q0 101 59 165t146 64q103 0 149 -84v33q0 20 13 33.5t34 13.5t34 -13.5
t13 -33.5v-356q0 -20 -12 -33.5t-33 -13.5t-33.5 14t-12.5 34v32q-45 -84 -152 -84q-87 0 -146 64t-59 165zM142 217q0 -68 36 -109.5t96 -41.5q59 0 93.5 44.5t34.5 106.5t-34.5 106.5t-93.5 44.5q-60 0 -96 -41.5t-36 -109.5z" />
    <glyph glyph-name="aringacute.salt" horiz-adv-x="571" 
d="M48 217q0 101 59 165t146 64q103 0 149 -84v33q0 20 13 33.5t34 13.5t34 -13.5t13 -33.5v-356q0 -20 -12 -33.5t-33 -13.5t-33.5 14t-12.5 34v32q-45 -84 -152 -84q-87 0 -146 64t-59 165zM142 217q0 -68 36 -109.5t96 -41.5q59 0 93.5 44.5t34.5 106.5t-34.5 106.5
t-93.5 44.5q-60 0 -96 -41.5t-36 -109.5zM374 561q0 -33 -23 -55.5t-59 -22.5t-59 22.5t-23 55.5t23 55t59 22t59 -22t23 -55zM257 561q0 -16 9.5 -26.5t25.5 -10.5t25.5 10.5t9.5 26.5t-9.5 26t-25.5 10t-25.5 -10t-9.5 -26zM262 716q0 13 10 25l32 44q12 17 32 17
q16 0 26.5 -9t10.5 -26q0 -14 -10 -26l-31 -42q-13 -18 -34 -18q-16 0 -26 10.5t-10 24.5z" />
    <glyph glyph-name="yacute.salt" horiz-adv-x="564" 
d="M232 543q0 13 10 25l56 77q12 17 32 17q16 0 27.5 -10t11.5 -27q0 -14 -10 -26l-55 -75q-13 -18 -34 -18q-16 0 -27 11t-11 26zM395 79q-43 -81 -144 -81q-85 0 -133 56t-48 147v194q0 20 12.5 33.5t34.5 13.5q21 0 34 -13.5t13 -33.5v-190q0 -55 29.5 -88.5t83.5 -33.5
q55 0 86.5 35t31.5 88v189q0 20 13.5 33.5t33.5 13.5q21 0 34 -13.5t13 -33.5v-362q0 -111 -56.5 -169.5t-169.5 -58.5q-85 0 -160 42q-25 14 -25 38q0 21 18.5 31.5t45.5 -2.5q64 -34 120 -34q75 0 104 36t29 108v55z" />
    <glyph glyph-name="ycircumflex.salt" horiz-adv-x="564" 
d="M395 79q-43 -81 -144 -81q-85 0 -133 56t-48 147v194q0 20 12.5 33.5t34.5 13.5q21 0 34 -13.5t13 -33.5v-190q0 -55 29.5 -88.5t83.5 -33.5q55 0 86.5 35t31.5 88v189q0 20 13.5 33.5t33.5 13.5q21 0 34 -13.5t13 -33.5v-362q0 -111 -56.5 -169.5t-169.5 -58.5
q-85 0 -160 42q-25 14 -25 38q0 21 18.5 31.5t45.5 -2.5q64 -34 120 -34q75 0 104 36t29 108v55zM312 645l97 -87q11 -11 11 -25q0 -13 -10 -22t-23 -9q-12 0 -22 8l-77 70l-77 -70q-10 -8 -22 -8q-13 0 -23 9t-10 22q0 14 11 25l97 87q11 10 24 10t24 -10z" />
    <glyph glyph-name="ydieresis.salt" horiz-adv-x="564" 
d="M142 566q0 22 15 37t37 15t37 -15t15 -37t-15 -37t-37 -15t-37 15t-15 37zM312 566q0 22 15 37t37 15t37 -15t15 -37t-15 -37t-37 -15t-37 15t-15 37zM395 79q-43 -81 -144 -81q-85 0 -133 56t-48 147v194q0 20 12.5 33.5t34.5 13.5q21 0 34 -13.5t13 -33.5v-190
q0 -55 29.5 -88.5t83.5 -33.5q55 0 86.5 35t31.5 88v189q0 20 13.5 33.5t33.5 13.5q21 0 34 -13.5t13 -33.5v-362q0 -111 -56.5 -169.5t-169.5 -58.5q-85 0 -160 42q-25 14 -25 38q0 21 18.5 31.5t45.5 -2.5q64 -34 120 -34q75 0 104 36t29 108v55z" />
    <glyph glyph-name="ygrave.salt" horiz-adv-x="564" 
d="M395 79q-43 -81 -144 -81q-85 0 -133 56t-48 147v194q0 20 12.5 33.5t34.5 13.5q21 0 34 -13.5t13 -33.5v-190q0 -55 29.5 -88.5t83.5 -33.5q55 0 86.5 35t31.5 88v189q0 20 13.5 33.5t33.5 13.5q21 0 34 -13.5t13 -33.5v-362q0 -111 -56.5 -169.5t-169.5 -58.5
q-85 0 -160 42q-25 14 -25 38q0 21 18.5 31.5t45.5 -2.5q64 -34 120 -34q75 0 104 36t29 108v55zM326 543q0 -15 -11 -26t-27 -11q-21 0 -34 18l-55 75q-10 12 -10 26q0 17 11.5 27t27.5 10q20 0 32 -17l56 -77q10 -12 10 -25z" />
    <glyph glyph-name="a.swsh" horiz-adv-x="571" 
d="M48 217q0 101 59 165t146 64q103 0 149 -84v33q0 20 13 33.5t34 13.5t34 -13.5t13 -33.5v-356q0 -20 -12 -33.5t-33 -13.5t-33.5 14t-12.5 34v32q-45 -84 -152 -84q-87 0 -146 64t-59 165zM142 217q0 -68 36 -109.5t96 -41.5q59 0 93.5 44.5t34.5 106.5t-34.5 106.5
t-93.5 44.5q-60 0 -96 -41.5t-36 -109.5z" />
    <glyph glyph-name="y.swsh" horiz-adv-x="564" 
d="M395 79q-43 -81 -144 -81q-85 0 -133 56t-48 147v194q0 20 12.5 33.5t34.5 13.5q21 0 34 -13.5t13 -33.5v-190q0 -55 29.5 -88.5t83.5 -33.5q55 0 86.5 35t31.5 88v189q0 20 13.5 33.5t33.5 13.5q21 0 34 -13.5t13 -33.5v-362q0 -111 -56.5 -169.5t-169.5 -58.5
q-85 0 -160 42q-25 14 -25 38q0 21 18.5 31.5t45.5 -2.5q64 -34 120 -34q75 0 104 36t29 108v55z" />
    <glyph glyph-name="aacute.swsh" horiz-adv-x="571" 
d="M232 543q0 13 10 25l56 77q12 17 32 17q16 0 27.5 -10t11.5 -27q0 -14 -10 -26l-55 -75q-13 -18 -34 -18q-16 0 -27 11t-11 26zM48 217q0 101 59 165t146 64q103 0 149 -84v33q0 20 13 33.5t34 13.5t34 -13.5t13 -33.5v-356q0 -20 -12 -33.5t-33 -13.5t-33.5 14t-12.5 34
v32q-45 -84 -152 -84q-87 0 -146 64t-59 165zM142 217q0 -68 36 -109.5t96 -41.5q59 0 93.5 44.5t34.5 106.5t-34.5 106.5t-93.5 44.5q-60 0 -96 -41.5t-36 -109.5z" />
    <glyph glyph-name="abreve.swsh" horiz-adv-x="571" 
d="M48 217q0 101 59 165t146 64q103 0 149 -84v33q0 20 13 33.5t34 13.5t34 -13.5t13 -33.5v-356q0 -20 -12 -33.5t-33 -13.5t-33.5 14t-12.5 34v32q-45 -84 -152 -84q-87 0 -146 64t-59 165zM142 217q0 -68 36 -109.5t96 -41.5q59 0 93.5 44.5t34.5 106.5t-34.5 106.5
t-93.5 44.5q-60 0 -96 -41.5t-36 -109.5zM362 603q0 16 9.5 25.5t25.5 9.5q14 0 23.5 -9.5t9.5 -23.5q0 -106 -134 -106t-134 106q0 14 9.5 23.5t23.5 9.5q16 0 25.5 -9.5t9.5 -25.5q0 -44 66 -44t66 44z" />
    <glyph glyph-name="acircumflex.swsh" horiz-adv-x="571" 
d="M323 645l97 -87q11 -11 11 -25q0 -13 -10 -22t-23 -9q-12 0 -22 8l-77 70l-77 -70q-10 -8 -22 -8q-13 0 -23 9t-10 22q0 14 11 25l97 87q11 10 24 10t24 -10zM48 217q0 101 59 165t146 64q103 0 149 -84v33q0 20 13 33.5t34 13.5t34 -13.5t13 -33.5v-356q0 -20 -12 -33.5
t-33 -13.5t-33.5 14t-12.5 34v32q-45 -84 -152 -84q-87 0 -146 64t-59 165zM142 217q0 -68 36 -109.5t96 -41.5q59 0 93.5 44.5t34.5 106.5t-34.5 106.5t-93.5 44.5q-60 0 -96 -41.5t-36 -109.5z" />
    <glyph glyph-name="adieresis.swsh" horiz-adv-x="571" 
d="M152 566q0 22 15 37t37 15t37 -15t15 -37t-15 -37t-37 -15t-37 15t-15 37zM322 566q0 22 15 37t37 15t37 -15t15 -37t-15 -37t-37 -15t-37 15t-15 37zM48 217q0 101 59 165t146 64q103 0 149 -84v33q0 20 13 33.5t34 13.5t34 -13.5t13 -33.5v-356q0 -20 -12 -33.5
t-33 -13.5t-33.5 14t-12.5 34v32q-45 -84 -152 -84q-87 0 -146 64t-59 165zM142 217q0 -68 36 -109.5t96 -41.5q59 0 93.5 44.5t34.5 106.5t-34.5 106.5t-93.5 44.5q-60 0 -96 -41.5t-36 -109.5z" />
    <glyph glyph-name="amacron.swsh" horiz-adv-x="571" 
d="M48 217q0 101 59 165t146 64q103 0 149 -84v33q0 20 13 33.5t34 13.5t34 -13.5t13 -33.5v-356q0 -20 -12 -33.5t-33 -13.5t-33.5 14t-12.5 34v32q-45 -84 -152 -84q-87 0 -146 64t-59 165zM142 217q0 -68 36 -109.5t96 -41.5q59 0 93.5 44.5t34.5 106.5t-34.5 106.5
t-93.5 44.5q-60 0 -96 -41.5t-36 -109.5zM182 523q-13 0 -23 9.5t-10 23.5t10 23.5t23 9.5h222q13 0 23 -9.5t10 -23.5t-10 -23.5t-23 -9.5h-222z" />
    <glyph glyph-name="agrave.swsh" horiz-adv-x="571" 
d="M327 543q0 -15 -11.5 -26t-26.5 -11q-21 0 -34 18l-55 75q-10 12 -10 26q0 17 11.5 27t27.5 10q20 0 32 -17l56 -77q10 -12 10 -25zM48 217q0 101 59 165t146 64q103 0 149 -84v33q0 20 13 33.5t34 13.5t34 -13.5t13 -33.5v-356q0 -20 -12 -33.5t-33 -13.5t-33.5 14
t-12.5 34v32q-45 -84 -152 -84q-87 0 -146 64t-59 165zM142 217q0 -68 36 -109.5t96 -41.5q59 0 93.5 44.5t34.5 106.5t-34.5 106.5t-93.5 44.5q-60 0 -96 -41.5t-36 -109.5z" />
    <glyph glyph-name="aogonek.swsh" horiz-adv-x="571" 
d="M488 -142q0 -26 -34 -34q-20 -5 -45 -5q-41 0 -63.5 19t-22.5 51q0 38 31 68t72 42q-21 12 -21 41v32q-45 -84 -152 -84q-87 0 -146 64t-59 165t59 165t146 64q103 0 149 -84v33q0 20 13 33.5t34 13.5t34 -13.5t13 -33.5v-356q0 -27 -18 -39q-81 -53 -81 -97
q0 -22 25 -22q13 0 25 2q41 7 41 -25zM142 217q0 -68 36 -109.5t96 -41.5q59 0 93.5 44.5t34.5 106.5t-34.5 106.5t-93.5 44.5q-60 0 -96 -41.5t-36 -109.5z" />
    <glyph glyph-name="atilde.swsh" horiz-adv-x="571" 
d="M434 576q0 -26 -26 -47t-55 -21q-23 0 -71 21q-35 15 -47 15q-19 0 -32 -15q-18 -20 -30 -20q-14 0 -24 8.5t-10 20.5q0 16 21 42q26 33 64 33q27 0 70 -18q42 -18 54 -18q17 0 31 15t23 15q13 0 22.5 -8.5t9.5 -22.5zM48 217q0 101 59 165t146 64q103 0 149 -84v33
q0 20 13 33.5t34 13.5t34 -13.5t13 -33.5v-356q0 -20 -12 -33.5t-33 -13.5t-33.5 14t-12.5 34v32q-45 -84 -152 -84q-87 0 -146 64t-59 165zM142 217q0 -68 36 -109.5t96 -41.5q59 0 93.5 44.5t34.5 106.5t-34.5 106.5t-93.5 44.5q-60 0 -96 -41.5t-36 -109.5z" />
    <glyph glyph-name="aring.swsh" horiz-adv-x="571" 
d="M366 566q0 -33 -23 -55.5t-59 -22.5t-59 22.5t-23 55.5t23 55t59 22t59 -22t23 -55zM249 566q0 -16 9.5 -26.5t25.5 -10.5t25.5 10.5t9.5 26.5t-9.5 26t-25.5 10t-25.5 -10t-9.5 -26zM48 217q0 101 59 165t146 64q103 0 149 -84v33q0 20 13 33.5t34 13.5t34 -13.5
t13 -33.5v-356q0 -20 -12 -33.5t-33 -13.5t-33.5 14t-12.5 34v32q-45 -84 -152 -84q-87 0 -146 64t-59 165zM142 217q0 -68 36 -109.5t96 -41.5q59 0 93.5 44.5t34.5 106.5t-34.5 106.5t-93.5 44.5q-60 0 -96 -41.5t-36 -109.5z" />
    <glyph glyph-name="aringacute.swsh" horiz-adv-x="571" 
d="M48 217q0 101 59 165t146 64q103 0 149 -84v33q0 20 13 33.5t34 13.5t34 -13.5t13 -33.5v-356q0 -20 -12 -33.5t-33 -13.5t-33.5 14t-12.5 34v32q-45 -84 -152 -84q-87 0 -146 64t-59 165zM142 217q0 -68 36 -109.5t96 -41.5q59 0 93.5 44.5t34.5 106.5t-34.5 106.5
t-93.5 44.5q-60 0 -96 -41.5t-36 -109.5zM374 561q0 -33 -23 -55.5t-59 -22.5t-59 22.5t-23 55.5t23 55t59 22t59 -22t23 -55zM257 561q0 -16 9.5 -26.5t25.5 -10.5t25.5 10.5t9.5 26.5t-9.5 26t-25.5 10t-25.5 -10t-9.5 -26zM262 716q0 13 10 25l32 44q12 17 32 17
q16 0 26.5 -9t10.5 -26q0 -14 -10 -26l-31 -42q-13 -18 -34 -18q-16 0 -26 10.5t-10 24.5z" />
    <glyph glyph-name="yacute.swsh" horiz-adv-x="564" 
d="M232 543q0 13 10 25l56 77q12 17 32 17q16 0 27.5 -10t11.5 -27q0 -14 -10 -26l-55 -75q-13 -18 -34 -18q-16 0 -27 11t-11 26zM395 79q-43 -81 -144 -81q-85 0 -133 56t-48 147v194q0 20 12.5 33.5t34.5 13.5q21 0 34 -13.5t13 -33.5v-190q0 -55 29.5 -88.5t83.5 -33.5
q55 0 86.5 35t31.5 88v189q0 20 13.5 33.5t33.5 13.5q21 0 34 -13.5t13 -33.5v-362q0 -111 -56.5 -169.5t-169.5 -58.5q-85 0 -160 42q-25 14 -25 38q0 21 18.5 31.5t45.5 -2.5q64 -34 120 -34q75 0 104 36t29 108v55z" />
    <glyph glyph-name="ycircumflex.swsh" horiz-adv-x="564" 
d="M395 79q-43 -81 -144 -81q-85 0 -133 56t-48 147v194q0 20 12.5 33.5t34.5 13.5q21 0 34 -13.5t13 -33.5v-190q0 -55 29.5 -88.5t83.5 -33.5q55 0 86.5 35t31.5 88v189q0 20 13.5 33.5t33.5 13.5q21 0 34 -13.5t13 -33.5v-362q0 -111 -56.5 -169.5t-169.5 -58.5
q-85 0 -160 42q-25 14 -25 38q0 21 18.5 31.5t45.5 -2.5q64 -34 120 -34q75 0 104 36t29 108v55zM312 645l97 -87q11 -11 11 -25q0 -13 -10 -22t-23 -9q-12 0 -22 8l-77 70l-77 -70q-10 -8 -22 -8q-13 0 -23 9t-10 22q0 14 11 25l97 87q11 10 24 10t24 -10z" />
    <glyph glyph-name="ydieresis.swsh" horiz-adv-x="564" 
d="M142 566q0 22 15 37t37 15t37 -15t15 -37t-15 -37t-37 -15t-37 15t-15 37zM312 566q0 22 15 37t37 15t37 -15t15 -37t-15 -37t-37 -15t-37 15t-15 37zM395 79q-43 -81 -144 -81q-85 0 -133 56t-48 147v194q0 20 12.5 33.5t34.5 13.5q21 0 34 -13.5t13 -33.5v-190
q0 -55 29.5 -88.5t83.5 -33.5q55 0 86.5 35t31.5 88v189q0 20 13.5 33.5t33.5 13.5q21 0 34 -13.5t13 -33.5v-362q0 -111 -56.5 -169.5t-169.5 -58.5q-85 0 -160 42q-25 14 -25 38q0 21 18.5 31.5t45.5 -2.5q64 -34 120 -34q75 0 104 36t29 108v55z" />
    <glyph glyph-name="ygrave.swsh" horiz-adv-x="564" 
d="M395 79q-43 -81 -144 -81q-85 0 -133 56t-48 147v194q0 20 12.5 33.5t34.5 13.5q21 0 34 -13.5t13 -33.5v-190q0 -55 29.5 -88.5t83.5 -33.5q55 0 86.5 35t31.5 88v189q0 20 13.5 33.5t33.5 13.5q21 0 34 -13.5t13 -33.5v-362q0 -111 -56.5 -169.5t-169.5 -58.5
q-85 0 -160 42q-25 14 -25 38q0 21 18.5 31.5t45.5 -2.5q64 -34 120 -34q75 0 104 36t29 108v55zM326 543q0 -15 -11 -26t-27 -11q-21 0 -34 18l-55 75q-10 12 -10 26q0 17 11.5 27t27.5 10q20 0 32 -17l56 -77q10 -12 10 -25z" />
    <glyph glyph-name="minus.onum" horiz-adv-x="552" 
d="M117 175q-17 0 -29.5 11t-12.5 29t12.5 29t29.5 11h318q17 0 29.5 -11t12.5 -29t-12.5 -29t-29.5 -11h-318z" />
    <glyph glyph-name="multiply.onum" horiz-adv-x="544" 
d="M100 77q0 16 13 29l105 106l-103 102q-15 15 -15 35q0 14 11 24.5t28 10.5q15 0 35 -20l98 -97l98 97q20 20 35 20q17 0 28 -10.5t11 -24.5q0 -20 -15 -35l-103 -102l105 -106q13 -13 13 -29q0 -14 -12 -25t-29 -11q-15 0 -26 11l-105 106l-105 -106q-11 -11 -26 -11
q-17 0 -29 11t-12 25z" />
    <glyph glyph-name="numbersign.onum" horiz-adv-x="719" 
d="M674 392q0 -16 -10.5 -26t-28.5 -10h-87l-16 -149h85q14 0 23.5 -8.5t9.5 -22.5q0 -16 -10.5 -27t-28.5 -11h-87l-11 -104q-4 -42 -43 -42q-17 0 -26.5 12t-7.5 29l11 105h-202l-11 -107q-6 -39 -42 -39q-20 0 -28.5 13.5t-6.5 33.5l11 99h-83q-15 0 -25 9t-10 22
q0 38 40 38h86l17 149h-88q-14 0 -23 8.5t-9 21.5q0 16 10.5 27.5t29.5 11.5h88l12 110q4 39 43 39q38 0 34 -43l-12 -106h201l12 110q4 39 43 39q37 0 33 -43l-11 -106h87q13 0 22 -9.5t9 -23.5zM471 356h-201l-17 -149h202z" />
    <glyph glyph-name="dollar.onum" horiz-adv-x="560" 
d="M495 162q0 -67 -47 -108.5t-121 -51.5v-68q0 -17 -11.5 -28t-29.5 -11t-29.5 11t-11.5 28v69q-80 12 -157 63q-23 14 -23 37q0 17 12 29t30 12q14 0 31 -11q76 -53 149 -53q59 0 88.5 20.5t29.5 55.5q0 34 -28 53.5t-91 37.5q-114 32 -159 71t-45 100q0 63 44.5 101
t124.5 45v68q0 17 11.5 28t29.5 11t29.5 -11t11.5 -28v-69q57 -6 117 -35q28 -14 28 -40q0 -16 -11.5 -28t-28.5 -12q-12 0 -22 5q-70 33 -124 33q-120 0 -120 -66q0 -28 29.5 -47t102.5 -43q55 -18 83.5 -30t57 -31.5t39.5 -44.5t11 -62z" />
    <glyph glyph-name="plus.onum" horiz-adv-x="600" 
d="M525 217q0 -16 -11 -27t-27 -11h-145v-145q0 -18 -12 -30t-30 -12t-30 12t-12 30v145h-145q-16 0 -27 11t-11 27t11 27t27 11h145v145q0 18 12 30t30 12t30 -12t12 -30v-145h145q16 0 27 -11t11 -27z" />
    <glyph glyph-name="zero.onum" horiz-adv-x="614" 
d="M307 494q115 0 186 -72.5t71 -180.5t-71 -180.5t-186 -72.5t-186 72.5t-71 180.5t71 180.5t186 72.5zM470 241q0 74 -45 123.5t-118 49.5t-118 -49.5t-45 -123.5t45 -123.5t118 -49.5t118 49.5t45 123.5z" />
    <glyph glyph-name="one.onum" horiz-adv-x="393" 
d="M214 385l-129 -40q-9 -3 -16 -3q-19 0 -31.5 13.5t-12.5 30.5q0 32 37 43l181 54q10 4 19 4q22 0 34 -12.5t12 -35.5v-400q0 -20 -13 -33.5t-34 -13.5q-20 0 -33.5 13.5t-13.5 33.5v346z" />
    <glyph glyph-name="two.onum" horiz-adv-x="550" 
d="M505 40q0 -16 -11.5 -28t-28.5 -12h-350q-22 0 -36 13t-14 30q0 32 38 56q19 12 65 41.5t74 46.5q41 25 59 37t43 33t34.5 41t9.5 43q0 70 -103 70q-72 0 -138 -36q-14 -7 -27 -7q-18 0 -29 11.5t-11 27.5q0 24 27 40q84 47 179 47q97 0 146.5 -41t49.5 -108
q0 -64 -38 -107.5t-113 -91.5q-77 -49 -109 -66h243q17 0 28.5 -12t11.5 -28z" />
    <glyph glyph-name="three.onum" horiz-adv-x="546" 
d="M496 7q0 -87 -67 -144.5t-181 -57.5q-105 0 -190 50q-25 14 -25 38q0 16 11.5 28t28.5 12q13 0 24 -7q74 -41 149 -41q76 0 116.5 33.5t40.5 86.5q0 125 -194 125h-41q-18 0 -30 12.5t-12 29.5q0 18 12 30t30 12h24q88 0 133.5 31t45.5 83q0 86 -108 86q-53 0 -119 -33
q-13 -7 -26 -7q-17 0 -27.5 11.5t-10.5 27.5q0 26 28 41q78 40 158 40q93 0 145.5 -42.5t52.5 -116.5q0 -108 -124 -157q71 -9 113.5 -57t42.5 -114z" />
    <glyph glyph-name="four.onum" horiz-adv-x="621" 
d="M558 23h-86v-172q0 -19 -13.5 -32.5t-32.5 -13.5t-32.5 13.5t-13.5 32.5v172h-306q-18 0 -29.5 10.5t-11.5 28.5q0 14 14 30l341 377q17 18 40 18q44 0 44 -46v-341h86q17 0 29 -11t12 -27t-12 -27.5t-29 -11.5zM163 100h217v244z" />
    <glyph glyph-name="five.onum" horiz-adv-x="575" 
d="M525 18q0 -94 -68.5 -153.5t-185.5 -59.5q-106 0 -191 50q-25 15 -25 38q0 17 11.5 28t28.5 11q12 0 25 -7q81 -42 151 -42q79 0 120 36.5t41 93.5q0 58 -38 91.5t-108 33.5q-55 0 -112 -25q-19 -7 -28 -7q-22 0 -33.5 12.5t-9.5 30.5l37 293q5 40 46 40h264q18 0 30 -12
t12 -29t-12.5 -29.5t-29.5 -12.5h-227l-23 -200q44 21 99 21q103 0 164.5 -53t61.5 -149z" />
    <glyph glyph-name="six.onum" horiz-adv-x="597" 
d="M411 601q-94 -52 -155.5 -114t-90.5 -156q27 40 73 62.5t101 22.5q96 0 153.5 -56.5t57.5 -148.5q0 -96 -68 -159.5t-173 -63.5q-115 0 -178.5 66t-63.5 173q0 146 83.5 263.5t218.5 178.5q20 9 30 9q17 0 28 -11t11 -26q0 -25 -27 -40zM460 208q0 63 -35.5 98t-103.5 35
q-67 0 -110.5 -39t-43.5 -101t37.5 -99.5t108.5 -37.5q67 0 107 41t40 103z" />
    <glyph glyph-name="seven.onum" horiz-adv-x="516" 
d="M493 441q0 -15 -8 -34q-92 -197 -288 -573q-15 -29 -44 -29q-18 0 -30.5 11.5t-12.5 29.5q0 13 7 27q131 240 270 525h-308q-17 0 -29 12.5t-12 29.5t12 29.5t29 12.5h368q21 0 33.5 -11.5t12.5 -29.5z" />
    <glyph glyph-name="eight.onum" horiz-adv-x="618" 
d="M309 -12q-111 0 -180 56.5t-69 141.5q0 68 38 113.5t100 62.5q-95 48 -95 145q0 74 56.5 122.5t149.5 48.5t149.5 -48.5t56.5 -122.5q0 -97 -95 -145q62 -17 100 -62.5t38 -113.5q0 -85 -69 -141.5t-180 -56.5zM309 65q74 0 116 33.5t42 88.5q0 60 -43 96t-115 36
t-115 -36t-43 -96q0 -55 42 -88.5t116 -33.5zM192 499q0 -47 32.5 -76.5t84.5 -29.5t84.5 29.5t32.5 76.5q0 48 -30.5 75.5t-86.5 27.5t-86.5 -27.5t-30.5 -75.5z" />
    <glyph glyph-name="nine.onum" horiz-adv-x="598" 
d="M199 -118q94 52 155.5 113.5t90.5 155.5q-27 -40 -73 -62.5t-101 -22.5q-96 0 -153.5 56.5t-57.5 148.5q0 96 68 159.5t173 63.5q115 0 178.5 -66t63.5 -173q0 -146 -83.5 -263t-218.5 -178q-20 -9 -30 -9q-17 0 -28 11t-11 26q0 25 27 40zM150 274q0 -63 35.5 -98
t103.5 -35q67 0 110.5 39t43.5 101t-37.5 99.5t-108.5 37.5q-67 0 -107 -41t-40 -103z" />
    <glyph glyph-name="less.onum" horiz-adv-x="560" 
d="M495 405q0 -24 -26 -37l-296 -151l296 -151q26 -13 26 -37q0 -16 -11.5 -28.5t-29.5 -12.5q-12 0 -22 6l-354 187q-23 11 -23 36t23 36l354 187q10 6 22 6q18 0 29.5 -12.5t11.5 -28.5z" />
    <glyph glyph-name="equal.onum" horiz-adv-x="565" 
d="M480 296q0 -16 -11 -26.5t-27 -10.5h-320q-15 0 -26 10.5t-11 26.5t11 26.5t26 10.5h320q16 0 27 -10.5t11 -26.5zM480 124q0 -16 -11 -26.5t-27 -10.5h-320q-15 0 -26 10.5t-11 26.5t11 26.5t26 10.5h320q16 0 27 -10.5t11 -26.5z" />
    <glyph glyph-name="greater.onum" horiz-adv-x="560" 
d="M65 405q0 16 11.5 28.5t29.5 12.5q12 0 22 -6l354 -187q23 -11 23 -36t-23 -36l-354 -187q-10 -6 -22 -6q-18 0 -29.5 12.5t-11.5 28.5q0 24 26 37l296 151l-296 151q-26 13 -26 37z" />
    <glyph glyph-name="cent.onum" horiz-adv-x="548" 
d="M265 -51v86q-89 13 -139.5 75.5t-50.5 150.5t50.5 150.5t139.5 75.5v86q0 18 11.5 30.5t31.5 12.5t31.5 -12.5t11.5 -30.5v-87q75 -14 113 -59q14 -16 14 -33q0 -16 -11.5 -27t-31.5 -11q-6 0 -12 2.5t-9.5 5t-10 8.5t-8.5 8q-36 31 -85 31q-67 0 -104 -43t-37 -107
t37 -107t104 -43q49 0 85 31q2 2 8.5 8t10 8.5t9.5 5t12 2.5q20 0 31.5 -11t11.5 -27q0 -17 -14 -33q-40 -47 -113 -59v-87q0 -18 -11.5 -30.5t-31.5 -12.5t-31.5 12.5t-11.5 30.5z" />
    <glyph glyph-name="sterling.onum" horiz-adv-x="644" 
d="M315 244v-171h220q40 0 40 -35q0 -17 -11.5 -27.5t-28.5 -10.5h-430q-17 0 -28.5 10t-11.5 27t11.5 26.5t28.5 9.5h116v171h-103q-17 0 -28.5 9.5t-11.5 26.5t11.5 27t28.5 10h103v50q0 100 53 155.5t162 55.5q62 0 121 -25q32 -13 32 -42q0 -15 -11 -26.5t-29 -11.5
q-11 0 -20 4q-46 17 -89 17q-69 0 -97 -28.5t-28 -91.5v-57h189q17 0 28.5 -10t11.5 -27t-11.5 -26.5t-28.5 -9.5h-189z" />
    <glyph glyph-name="notequal.onum" horiz-adv-x="565" 
d="M480 296q0 -16 -11 -26.5t-27 -10.5h-110l-51 -98h161q16 0 27 -10.5t11 -26.5t-11 -26.5t-27 -10.5h-200l-33 -63q-7 -14 -21 -14q-10 0 -16.5 6t-6.5 14q0 7 3 13l23 44h-69q-15 0 -26 10.5t-11 26.5t11 26.5t26 10.5h108l51 98h-159q-15 0 -26 10.5t-11 26.5t11 26.5
t26 10.5h197l36 68q7 12 20 12q10 0 16.5 -6t6.5 -15q0 -5 -4 -15l-24 -44h72q16 0 27 -10.5t11 -26.5z" />
    <glyph glyph-name="plusminus.onum" horiz-adv-x="620" 
d="M123 0q-16 0 -27 10.5t-11 26.5t10.5 26t27.5 10h145v142h-145q-16 0 -27 10.5t-11 26.5t11 26.5t27 10.5h145v127q0 18 12 30t30 12t30 -12t12 -30v-127h145q16 0 27 -10.5t11 -26.5t-11 -26.5t-27 -10.5h-145v-142h145q16 0 27 -10t11 -26t-11 -26.5t-27 -10.5h-374z
" />
    <glyph glyph-name="yen.onum" horiz-adv-x="584" 
d="M521 510l-108 -171h77q12 0 20.5 -9t8.5 -21q0 -13 -8.5 -21.5t-20.5 -8.5h-115l-37 -58v-22h152q12 0 20.5 -9t8.5 -21q0 -13 -8.5 -21.5t-20.5 -8.5h-152v-99q0 -20 -13.5 -34t-32.5 -14t-32.5 14t-13.5 34v99h-152q-12 0 -20.5 8.5t-8.5 21.5q0 12 8.5 21t20.5 9h152
v22l-37 58h-115q-12 0 -20.5 8.5t-8.5 21.5q0 12 8.5 21t20.5 9h77l-108 171q-8 12 -8 25q0 18 12.5 28.5t30.5 10.5q22 0 35 -20l159 -254l159 254q13 20 35 20q18 0 30.5 -10.5t12.5 -28.5q0 -13 -8 -25z" />
    <glyph glyph-name="florin.onum" horiz-adv-x="538" 
d="M211 219h-69q-15 0 -25 9.5t-10 23.5q0 45 47 45h71l20 116q15 82 53.5 121.5t124.5 39.5h38q18 0 30 -9t12 -27t-12.5 -30t-37.5 -12h-25q-40 0 -60.5 -17.5t-27.5 -60.5l-21 -121h96q15 0 25 -10t10 -25q0 -19 -12.5 -31t-33.5 -12h-99l-45 -256q-15 -85 -54.5 -121.5
t-137.5 -36.5h-25q-14 0 -23.5 10.5t-9.5 25.5q0 42 45 42h19q45 0 64 17.5t27 61.5z" />
    <glyph glyph-name="approxequal.onum" horiz-adv-x="571" 
d="M486 328q0 -7 -3 -13q-15 -27 -47 -49.5t-72 -22.5q-37 0 -80 25q-37 22 -66 22q-22 0 -34.5 -5t-27.5 -20q-17 -17 -33 -17q-12 0 -22.5 8.5t-10.5 21.5q0 7 4 15q14 30 46 52t75 22q35 0 83 -23q52 -26 68 -26q33 0 65 32q10 10 22 10q15 0 24 -8.5t9 -23.5zM486 158
q0 -7 -3 -13q-15 -27 -47 -49.5t-72 -22.5q-11 0 -20 1t-19 5t-13.5 5t-15 7.5t-12.5 6.5q-40 22 -66 22q-22 0 -34.5 -5t-27.5 -20q-17 -17 -33 -17q-12 0 -22.5 8.5t-10.5 21.5q0 7 4 15q14 30 46 52t75 22q35 0 83 -23q52 -26 68 -26q33 0 65 32q10 10 22 10
q15 0 24 -8.5t9 -23.5z" />
    <glyph glyph-name="divide.onum" horiz-adv-x="600" 
d="M520 220q0 -16 -11 -27t-27 -11h-364q-16 0 -27 11t-11 27t11 27t27 11h364q16 0 27 -11t11 -27zM248 375q0 22 15 37t37 15t37 -15t15 -37t-15 -37t-37 -15t-37 15t-15 37zM248 65q0 22 15 37t37 15t37 -15t15 -37t-15 -37t-37 -15t-37 15t-15 37z" />
    <glyph glyph-name="Euro.onum" horiz-adv-x="700" 
d="M243 283q0 -29 2 -42h240q12 0 20.5 -9t8.5 -21q0 -13 -8.5 -21.5t-20.5 -8.5h-227q39 -114 167 -114q76 0 142 59q13 12 29 12t27.5 -11t11.5 -27q0 -17 -15 -32q-80 -80 -197 -80q-100 0 -167 52t-93 141h-84q-12 0 -20.5 8.5t-8.5 21.5q0 12 8.5 21t20.5 9h72
q-2 13 -2 42q0 28 2 42h-72q-12 0 -20.5 8.5t-8.5 21.5q0 12 8.5 21t20.5 9h84q26 89 93 141t167 52q117 0 197 -80q15 -15 15 -32q0 -16 -11.5 -27t-27.5 -11t-29 12q-66 59 -142 59q-127 0 -167 -114h227q12 0 20.5 -9t8.5 -21q0 -13 -8.5 -21.5t-20.5 -8.5h-240
q-2 -14 -2 -42z" />
    <glyph glyph-name="minus.tnum" 
d="M166 283q-17 0 -29.5 11t-12.5 29t12.5 29t29.5 11h318q17 0 29.5 -11t12.5 -29t-12.5 -29t-29.5 -11h-318z" />
    <glyph glyph-name="multiply.tnum" 
d="M153 188q0 16 13 29l105 106l-103 102q-15 15 -15 35q0 14 11 24.5t28 10.5q15 0 35 -20l98 -97l98 97q20 20 35 20q17 0 28 -10.5t11 -24.5q0 -20 -15 -35l-103 -102l105 -106q13 -13 13 -29q0 -14 -12 -25t-29 -11q-15 0 -26 11l-105 106l-105 -106q-11 -11 -26 -11
q-17 0 -29 11t-12 25z" />
    <glyph glyph-name="numbersign.tnum" horiz-adv-x="728" 
d="M683 460q0 -16 -10.5 -27t-28.5 -11h-89l-18 -169h87q13 0 23 -9t10 -23q0 -16 -11 -27.5t-28 -11.5h-89l-16 -148q-4 -42 -43 -42q-17 0 -26.5 12t-7.5 29l16 149h-202l-16 -151q-5 -39 -42 -39q-40 0 -35 47l16 143h-83q-15 0 -25 9t-10 23q0 39 40 39h86l18 169h-87
q-14 0 -23 9t-9 23q0 16 10.5 27.5t29.5 11.5h87l15 142q4 39 43 39q38 0 34 -43l-15 -138h202l15 142q2 21 11.5 30t31.5 9q36 0 33 -43l-14 -138h89q13 0 22 -9.5t9 -23.5zM478 422h-202l-18 -169h202z" />
    <glyph glyph-name="dollar.tnum" 
d="M567 185q0 -71 -49.5 -115.5t-145.5 -57.5v-83q0 -14 -10.5 -25t-25.5 -11q-16 0 -26.5 10.5t-10.5 25.5v82q-60 6 -129 36q-72 31 -72 70q0 17 9.5 26.5t23.5 9.5q12 0 22.5 -4.5t24 -13t19.5 -11.5q65 -34 141 -34q67 0 103.5 24t36.5 65q0 40 -35 64.5t-126 55.5
q-121 41 -166 84t-45 113q0 71 52.5 110.5t144.5 48.5v82q0 15 10.5 25.5t25.5 10.5t26 -10.5t11 -25.5v-83q42 -2 102 -23q34 -13 52.5 -26t18.5 -33q0 -36 -36 -36q-11 0 -25 6q-84 37 -149 37q-66 0 -104.5 -21t-38.5 -62t30.5 -62.5t125.5 -55.5q114 -40 164.5 -79.5
t50.5 -113.5z" />
    <glyph glyph-name="plus.tnum" 
d="M550 323q0 -16 -11 -27t-27 -11h-145v-145q0 -18 -12 -30t-30 -12t-30 12t-12 30v145h-145q-16 0 -27 11t-11 27t11 27t27 11h145v145q0 18 12 30t30 12t30 -12t12 -30v-145h145q16 0 27 -11t11 -27z" />
    <glyph glyph-name="zero.tnum" 
d="M604 333q0 -92 -30.5 -169t-95.5 -126.5t-153 -49.5t-153 49.5t-95.5 126.5t-30.5 169t30.5 169t95.5 126.5t153 49.5t153 -49.5t95.5 -126.5t30.5 -169zM511 333q0 113 -50.5 187.5t-135.5 74.5t-135.5 -74.5t-50.5 -187.5t50.5 -187.5t135.5 -74.5t135.5 74.5
t50.5 187.5z" />
    <glyph glyph-name="one.tnum" 
d="M108 0q-18 0 -30 11.5t-12 29.5q0 19 12 30t30 11h191v490l-141 -31q-26 -6 -42 7t-16 33q0 35 39 44l186 45q18 4 22 4q21 0 33.5 -12.5t12.5 -35.5v-544h175q18 0 30 -11t12 -30q0 -18 -12 -29.5t-30 -11.5h-460z" />
    <glyph glyph-name="two.tnum" 
d="M581 42q0 -18 -12 -30t-30 -12h-429q-17 0 -29 13t-12 30q0 113 50 172.5t169 120.5q60 31 83.5 44t55.5 35.5t43 42t11 43.5q0 46 -41 69.5t-112 23.5q-95 0 -182 -57q-10 -7 -22 -7q-18 0 -30 11.5t-12 27.5q0 38 69 71q81 38 182 38q110 0 176 -45.5t66 -130.5
q0 -69 -46.5 -116t-159.5 -105q-112 -57 -154 -95.5t-42 -101.5h366q18 0 30 -11.5t12 -30.5z" />
    <glyph glyph-name="three.tnum" 
d="M588 191q0 -90 -73 -146.5t-189 -56.5q-150 0 -248 86q-17 13 -17 34q0 19 13 30t30 11q14 0 27 -10q47 -36 89 -53.5t106 -17.5q75 0 121.5 34t46.5 93q0 61 -48 90t-129 29h-56q-18 0 -30.5 12t-12.5 30t12.5 29.5t30.5 11.5h43q70 0 107.5 29t37.5 77q0 95 -125 95
q-65 0 -120 -29q-28 -14 -44 -14q-18 0 -28 10.5t-10 26.5q0 35 63 60q62 26 147 26q97 0 154 -44.5t57 -123.5q0 -101 -101 -144q146 -40 146 -175z" />
    <glyph glyph-name="four.tnum" 
d="M499 38q0 -20 -13.5 -33t-32.5 -13q-20 0 -33.5 13t-13.5 33v135h-319q-18 0 -30.5 11t-12.5 28q0 12 11 40l162 392q13 30 43 30q23 0 36 -17t3 -41l-146 -365h253v171q0 20 13.5 33t33.5 13q19 0 32.5 -13t13.5 -33v-171h82q17 0 28.5 -11t11.5 -28t-11.5 -28
t-28.5 -11h-82v-135z" />
    <glyph glyph-name="five.tnum" 
d="M585 209q0 -93 -70.5 -157t-192.5 -64q-149 0 -239 79q-18 15 -18 33q0 20 12 31.5t30 11.5q15 0 26 -9q48 -35 90.5 -50.5t98.5 -15.5q76 0 122.5 39.5t46.5 101.5q0 61 -41 98t-116 37q-81 0 -164 -49q-13 -8 -26 -8q-23 0 -34 13t-8 32l47 296q7 38 45 38h293
q18 0 31 -12t13 -31q0 -17 -13 -29.5t-31 -12.5h-258l-30 -193q58 38 140 38q116 0 181 -60t65 -157z" />
    <glyph glyph-name="six.tnum" 
d="M593 204q0 -94 -70 -155t-187 -61q-128 0 -198 69t-70 178q0 79 28 152.5t73.5 128t98.5 94.5t108 61q19 7 30 7q19 0 29.5 -10.5t10.5 -25.5q0 -24 -29 -40q-210 -115 -252 -280q61 91 194 91q107 0 170.5 -57.5t63.5 -151.5zM499 203q0 61 -43.5 96t-114.5 35
q-69 0 -118 -36t-49 -97q0 -62 43.5 -98t119.5 -36q75 0 118.5 38.5t43.5 97.5z" />
    <glyph glyph-name="seven.tnum" 
d="M584 625q0 -14 -10 -26q-60 -76 -98.5 -133.5t-71.5 -126t-48 -142t-15 -159.5q0 -20 -12.5 -33t-34.5 -13t-34.5 13t-12.5 33q0 311 211 544h-350q-18 0 -30.5 12t-12.5 30t12.5 30t30.5 12h430q46 0 46 -41z" />
    <glyph glyph-name="eight.tnum" 
d="M325 678q96 0 157.5 -48.5t61.5 -123.5q0 -86 -93 -139q63 -22 101.5 -67t38.5 -110q0 -87 -72 -144.5t-194 -57.5t-194 57.5t-72 144.5q0 65 38.5 110t101.5 67q-93 53 -93 139q0 75 61.5 123.5t157.5 48.5zM325 319q-76 0 -124 -34.5t-48 -91.5t48 -92t124 -35t124 35
t48 92t-48 91.5t-124 34.5zM198 499q0 -47 36.5 -76.5t90.5 -29.5t90.5 29.5t36.5 76.5t-34.5 74t-92.5 27t-92.5 -27t-34.5 -74z" />
    <glyph glyph-name="nine.tnum" 
d="M55 462q0 91 73 153.5t186 62.5q129 0 197.5 -67t68.5 -180q0 -79 -28 -152.5t-73.5 -128t-98.5 -94.5t-108 -61q-19 -7 -30 -7q-19 0 -29.5 10.5t-10.5 25.5q0 24 29 40q210 115 252 280q-61 -91 -194 -91q-107 0 -170.5 57.5t-63.5 151.5zM149 463q0 -61 43.5 -96
t114.5 -35q69 0 118 36t49 97q0 62 -43.5 98t-119.5 36q-75 0 -118.5 -38.5t-43.5 -97.5z" />
    <glyph glyph-name="less.tnum" 
d="M530 511q0 -24 -26 -37l-296 -151l296 -151q26 -13 26 -37q0 -16 -11.5 -28.5t-29.5 -12.5q-11 0 -22 6l-354 187q-23 11 -23 36t23 36l354 187q11 6 22 6q18 0 29.5 -12.5t11.5 -28.5z" />
    <glyph glyph-name="equal.tnum" 
d="M522 409q0 -16 -11 -26.5t-27 -10.5h-320q-15 0 -26 10.5t-11 26.5t11 26.5t26 10.5h320q16 0 27 -10.5t11 -26.5zM522 237q0 -16 -11 -26.5t-27 -10.5h-320q-15 0 -26 10.5t-11 26.5t11 26.5t26 10.5h320q16 0 27 -10.5t11 -26.5z" />
    <glyph glyph-name="greater.tnum" 
d="M120 511q0 16 11.5 28.5t29.5 12.5q11 0 22 -6l354 -187q23 -11 23 -36t-23 -36l-354 -187q-11 -6 -22 -6q-18 0 -29.5 12.5t-11.5 28.5q0 24 26 37l296 151l-296 151q-26 13 -26 37z" />
    <glyph glyph-name="cent.tnum" 
d="M313 31v76q-89 13 -139.5 75.5t-50.5 150.5t50.5 150.5t139.5 75.5v76q0 18 11.5 30.5t31.5 12.5t31.5 -12.5t11.5 -30.5v-77q75 -14 113 -59q14 -16 14 -33q0 -16 -11.5 -27t-31.5 -11q-6 0 -12 2.5t-9.5 5t-10 8.5t-8.5 8q-36 31 -85 31q-67 0 -104 -43t-37 -107
t37 -107t104 -43q49 0 85 31q2 2 8.5 8t10 8.5t9.5 5t12 2.5q20 0 31.5 -11t11.5 -27q0 -17 -14 -33q-40 -47 -113 -59v-77q0 -18 -11.5 -30.5t-31.5 -12.5t-31.5 12.5t-11.5 30.5z" />
    <glyph glyph-name="sterling.tnum" 
d="M601 615q0 -18 -11 -29t-31 -11q-6 0 -18 4q-48 15 -105 15q-66 0 -95 -31t-29 -100v-91h213q17 0 28.5 -11t11.5 -28q0 -18 -11.5 -29t-28.5 -11h-213v-215h244q17 0 28.5 -10.5t11.5 -28.5q0 -17 -11.5 -28t-28.5 -11h-457q-17 0 -28.5 11t-11.5 28q0 18 11.5 28.5
t28.5 10.5h119v215h-107q-17 0 -28.5 11t-11.5 29t11.5 28.5t28.5 10.5h107v84q0 222 216 222q79 0 135 -24q32 -14 32 -39z" />
    <glyph glyph-name="notequal.tnum" 
d="M522 408q0 -16 -11 -26.5t-27 -10.5h-110l-51 -98h161q16 0 27 -10.5t11 -26.5t-11 -26.5t-27 -10.5h-200l-33 -63q-7 -14 -21 -14q-10 0 -16.5 6t-6.5 14q0 7 3 13l23 44h-69q-15 0 -26 10.5t-11 26.5t11 26.5t26 10.5h108l51 98h-159q-15 0 -26 10.5t-11 26.5t11 26.5
t26 10.5h197l36 68q7 12 20 12q10 0 16.5 -6t6.5 -15q0 -5 -4 -15l-24 -44h72q16 0 27 -10.5t11 -26.5z" />
    <glyph glyph-name="plusminus.tnum" 
d="M138 73h374q16 0 27 -10t11 -26t-11 -26.5t-27 -10.5h-374q-16 0 -27 10.5t-11 26.5t10.5 26t27.5 10zM550 333q0 -16 -11 -27t-27 -11h-145v-135q0 -18 -12 -30t-30 -12t-30 12t-12 30v135h-145q-16 0 -27 11t-11 27t11 27t27 11h145v135q0 18 12 30t30 12t30 -12
t12 -30v-135h145q16 0 27 -11t11 -27z" />
    <glyph glyph-name="yen.tnum" 
d="M372 293v-51h147q14 0 24 -9.5t10 -23.5t-10 -23.5t-24 -9.5h-147v-136q0 -20 -12.5 -34t-34.5 -14t-34.5 14t-12.5 34v136h-147q-14 0 -24 9.5t-10 23.5t10 23.5t24 9.5h147v51l-21 33h-126q-14 0 -24 9.5t-10 23.5t10 23.5t24 9.5h84l-135 215q-9 13 -9 27
q0 19 12.5 29.5t29.5 10.5q25 0 40 -24l172 -280l172 280q15 24 40 24q17 0 29.5 -10.5t12.5 -29.5q0 -14 -9 -27l-136 -215h85q14 0 24 -9.5t10 -23.5t-10 -23.5t-24 -9.5h-126z" />
    <glyph glyph-name="florin.tnum" 
d="M573 636q0 -43 -49 -43h-19q-43 0 -63.5 -19t-28.5 -64l-21 -120h76q15 0 25 -8.5t10 -24.5q0 -20 -12 -32.5t-34 -12.5h-79l-59 -336q-8 -43 -19 -71.5t-31.5 -52.5t-56 -35.5t-87.5 -11.5h-23q-17 0 -27 9t-10 24q0 22 13 33.5t33 11.5h20q45 0 64 18.5t27 64.5l61 346
h-58q-15 0 -25 9t-10 23q0 21 12.5 33.5t34.5 12.5h60l20 112q16 89 57 129t134 40h22q43 0 43 -35z" />
    <glyph glyph-name="approxequal.tnum" 
d="M523 431q0 -7 -3 -13q-15 -27 -47 -49.5t-72 -22.5q-28 0 -80 25q-46 22 -66 22q-22 0 -34.5 -5t-27.5 -20q-17 -17 -33 -17q-12 0 -22.5 8.5t-10.5 21.5q0 7 4 15q14 30 46 52t75 22q35 0 83 -23q52 -26 68 -26q33 0 65 32q10 10 22 10q15 0 24 -8.5t9 -23.5zM523 261
q0 -7 -3 -13q-15 -27 -47 -49.5t-72 -22.5q-32 0 -80 25q-42 22 -66 22q-22 0 -34.5 -5t-27.5 -20q-17 -17 -33 -17q-12 0 -22.5 8.5t-10.5 21.5q0 7 4 15q14 30 46 52t75 22q35 0 83 -23q52 -26 68 -26q33 0 65 32q10 10 22 10q15 0 24 -8.5t9 -23.5z" />
    <glyph glyph-name="divide.tnum" 
d="M545 332q0 -16 -11 -27t-27 -11h-364q-16 0 -27 11t-11 27t11 27t27 11h364q16 0 27 -11t11 -27zM273 507q0 22 15 37t37 15t37 -15t15 -37t-15 -37t-37 -15t-37 15t-15 37zM273 157q0 22 15 37t37 15t37 -15t15 -37t-15 -37t-37 -15t-37 15t-15 37z" />
    <glyph glyph-name="Euro.tnum" 
d="M140 372h-67q-14 0 -24 9.5t-10 24.5q0 13 10 23t24 10h74q12 105 76 172t163 67q68 0 119 -34t78 -83q7 -13 7 -26q0 -19 -12.5 -30t-29.5 -11q-26 0 -40 26q-43 75 -122 75q-61 0 -98 -42.5t-46 -113.5h168q15 0 24.5 -10t9.5 -24q0 -15 -10 -24t-24 -9h-176
q-1 -13 -1 -39t1 -39h176q14 0 24 -9t10 -24q0 -14 -9.5 -24t-24.5 -10h-168q9 -71 46 -113.5t98 -42.5q79 0 122 75q14 26 40 26q17 0 29.5 -11t12.5 -30q0 -13 -7 -26q-27 -49 -78 -83t-119 -34q-99 0 -163 67t-76 172h-74q-14 0 -24 10t-10 23q0 15 10 24.5t24 9.5h67
q-1 13 -1 39t1 39z" />
    <glyph glyph-name="minusonum.tnum" 
d="M166 175q-17 0 -29.5 11t-12.5 29t12.5 29t29.5 11h318q17 0 29.5 -11t12.5 -29t-12.5 -29t-29.5 -11h-318z" />
    <glyph glyph-name="multiplyonum.tnum" 
d="M153 77q0 16 13 29l105 106l-103 102q-15 15 -15 35q0 14 11 24.5t28 10.5q15 0 35 -20l98 -97l98 97q20 20 35 20q17 0 28 -10.5t11 -24.5q0 -20 -15 -35l-103 -102l105 -106q13 -13 13 -29q0 -14 -12 -25t-29 -11q-15 0 -26 11l-105 106l-105 -106q-11 -11 -26 -11
q-17 0 -29 11t-12 25z" />
    <glyph glyph-name="numbersignonum.tnum" 
d="M621 392q0 -16 -10.5 -26t-28.5 -10h-67l-16 -149h65q14 0 23.5 -8.5t9.5 -22.5q0 -16 -10.5 -27t-28.5 -11h-67l-11 -104q-4 -42 -43 -42q-17 0 -26.5 12t-7.5 29l11 105h-202l-11 -107q-6 -39 -42 -39q-20 0 -28.5 13.5t-6.5 33.5l11 99h-63q-15 0 -25 9t-10 22
q0 38 40 38h66l17 149h-68q-14 0 -23 8.5t-9 21.5q0 16 10.5 27.5t29.5 11.5h68l12 110q4 39 43 39q38 0 34 -43l-12 -106h201l12 110q4 39 43 39q37 0 33 -43l-11 -106h67q13 0 22 -9.5t9 -23.5zM438 356h-201l-17 -149h202z" />
    <glyph glyph-name="dollaronum.tnum" 
d="M540 162q0 -67 -47 -108.5t-121 -51.5v-68q0 -17 -11.5 -28t-29.5 -11t-29.5 11t-11.5 28v69q-80 12 -157 63q-23 14 -23 37q0 17 12 29t30 12q14 0 31 -11q76 -53 149 -53q59 0 88.5 20.5t29.5 55.5q0 34 -28 53.5t-91 37.5q-114 32 -159 71t-45 100q0 63 44.5 101
t124.5 45v68q0 17 11.5 28t29.5 11t29.5 -11t11.5 -28v-69q57 -6 117 -35q28 -14 28 -40q0 -16 -11.5 -28t-28.5 -12q-12 0 -22 5q-70 33 -124 33q-120 0 -120 -66q0 -28 29.5 -47t102.5 -43q55 -18 83.5 -30t57 -31.5t39.5 -44.5t11 -62z" />
    <glyph glyph-name="plusonum.tnum" 
d="M550 217q0 -16 -11 -27t-27 -11h-145v-145q0 -18 -12 -30t-30 -12t-30 12t-12 30v145h-145q-16 0 -27 11t-11 27t11 27t27 11h145v145q0 18 12 30t30 12t30 -12t12 -30v-145h145q16 0 27 -11t11 -27z" />
    <glyph glyph-name="zeroonum.tnum" 
d="M325 494q115 0 186 -72.5t71 -180.5t-71 -180.5t-186 -72.5t-186 72.5t-71 180.5t71 180.5t186 72.5zM488 241q0 74 -45 123.5t-118 49.5t-118 -49.5t-45 -123.5t45 -123.5t118 -49.5t118 49.5t45 123.5z" />
    <glyph glyph-name="oneonum.tnum" 
d="M295 385l-127 -35q-10 -3 -18 -3q-19 0 -31.5 13t-12.5 31q0 33 37 43l177 49q14 4 23 4q46 0 46 -48v-361h154q17 0 28.5 -11.5t11.5 -27.5t-11.5 -27.5t-28.5 -11.5h-419q-17 0 -28.5 11.5t-11.5 27.5t11.5 27.5t28.5 11.5h171v307z" />
    <glyph glyph-name="twoonum.tnum" 
d="M544 40q0 -16 -12 -28t-28 -12h-350q-22 0 -36 13t-14 30q0 32 38 56q19 12 65 41.5t74 46.5q41 25 59 37t43 33t34.5 41t9.5 43q0 70 -103 70q-72 0 -138 -36q-14 -7 -27 -7q-18 0 -29 11.5t-11 27.5q0 24 27 40q84 47 179 47q97 0 146.5 -41t49.5 -108
q0 -64 -38 -107.5t-113 -91.5q-77 -49 -109 -66h243q16 0 28 -12t12 -28z" />
    <glyph glyph-name="threeonum.tnum" 
d="M541 7q0 -87 -67 -144.5t-181 -57.5q-105 0 -190 50q-25 14 -25 38q0 16 11.5 28t28.5 12q13 0 24 -7q74 -41 149 -41q76 0 116.5 33.5t40.5 86.5q0 125 -194 125h-33q-18 0 -30 12.5t-12 29.5q0 18 12 30t30 12h16q88 0 133.5 31t45.5 83q0 86 -108 86q-53 0 -119 -33
q-13 -7 -26 -7q-17 0 -27.5 11.5t-10.5 27.5q0 26 28 41q78 40 158 40q93 0 145.5 -42.5t52.5 -116.5q0 -108 -124 -157q71 -9 113.5 -57t42.5 -114z" />
    <glyph glyph-name="fouronum.tnum" 
d="M574 23h-96v-172q0 -19 -13.5 -32.5t-32.5 -13.5t-32.5 13.5t-13.5 32.5v172h-306q-18 0 -29.5 10.5t-11.5 28.5q0 14 14 30l341 377q17 18 40 18q44 0 44 -46v-341h96q17 0 29 -11t12 -27t-12 -27.5t-29 -11.5zM169 100h217v244z" />
    <glyph glyph-name="fiveonum.tnum" 
d="M551 18q0 -94 -68.5 -153.5t-185.5 -59.5q-106 0 -191 50q-25 15 -25 38q0 17 11.5 28t28.5 11q12 0 25 -7q81 -42 151 -42q79 0 120 36.5t41 93.5q0 58 -38 91.5t-108 33.5q-55 0 -112 -25q-19 -7 -28 -7q-22 0 -33.5 12.5t-9.5 30.5l37 293q5 40 46 40h260q18 0 30 -12
t12 -29t-12.5 -29.5t-29.5 -12.5h-223l-23 -200q44 21 99 21q103 0 164.5 -53t61.5 -149z" />
    <glyph glyph-name="sixonum.tnum" 
d="M427 601q-94 -52 -155.5 -114t-90.5 -156q27 40 73 62.5t101 22.5q96 0 153.5 -56.5t57.5 -148.5q0 -96 -68 -159.5t-173 -63.5q-115 0 -178.5 66t-63.5 173q0 146 83.5 263.5t218.5 178.5q20 9 30 9q17 0 28 -11t11 -26q0 -25 -27 -40zM476 208q0 63 -35.5 98t-103.5 35
q-67 0 -110.5 -39t-43.5 -101t37.5 -99.5t108.5 -37.5q67 0 107 41t40 103z" />
    <glyph glyph-name="sevenonum.tnum" 
d="M567 441q0 -15 -8 -34q-92 -197 -288 -573q-15 -29 -44 -29q-18 0 -30.5 11.5t-12.5 29.5q0 13 7 27q131 240 270 525h-328q-17 0 -29 12.5t-12 29.5t12 29.5t29 12.5h388q21 0 33.5 -11.5t12.5 -29.5z" />
    <glyph glyph-name="eightonum.tnum" 
d="M325 -12q-111 0 -180 56.5t-69 141.5q0 68 38 113.5t100 62.5q-95 48 -95 145q0 74 56.5 122.5t149.5 48.5t149.5 -48.5t56.5 -122.5q0 -97 -95 -145q62 -17 100 -62.5t38 -113.5q0 -85 -69 -141.5t-180 -56.5zM325 65q74 0 116 33.5t42 88.5q0 60 -43 96t-115 36
t-115 -36t-43 -96q0 -55 42 -88.5t116 -33.5zM208 499q0 -47 32.5 -76.5t84.5 -29.5t84.5 29.5t32.5 76.5q0 48 -30.5 75.5t-86.5 27.5t-86.5 -27.5t-30.5 -75.5z" />
    <glyph glyph-name="nineonum.tnum" 
d="M222 -118q94 52 155.5 113.5t90.5 155.5q-27 -40 -73 -62.5t-101 -22.5q-96 0 -153.5 56.5t-57.5 148.5q0 96 68 159.5t173 63.5q115 0 178.5 -66t63.5 -173q0 -146 -83.5 -263t-218.5 -178q-20 -9 -30 -9q-17 0 -28 11t-11 26q0 25 27 40zM173 274q0 -63 35.5 -98
t103.5 -35q67 0 110.5 39t43.5 101t-37.5 99.5t-108.5 37.5q-67 0 -107 -41t-40 -103z" />
    <glyph glyph-name="lessonum.tnum" 
d="M545 405q0 -24 -26 -37l-296 -151l296 -151q26 -13 26 -37q0 -16 -11.5 -28.5t-29.5 -12.5q-12 0 -22 6l-354 187q-23 11 -23 36t23 36l354 187q10 6 22 6q18 0 29.5 -12.5t11.5 -28.5z" />
    <glyph glyph-name="equalonum.tnum" 
d="M522 296q0 -16 -11 -26.5t-27 -10.5h-320q-15 0 -26 10.5t-11 26.5t11 26.5t26 10.5h320q16 0 27 -10.5t11 -26.5zM522 124q0 -16 -11 -26.5t-27 -10.5h-320q-15 0 -26 10.5t-11 26.5t11 26.5t26 10.5h320q16 0 27 -10.5t11 -26.5z" />
    <glyph glyph-name="greateronum.tnum" 
d="M105 405q0 16 11.5 28.5t29.5 12.5q12 0 22 -6l354 -187q23 -11 23 -36t-23 -36l-354 -187q-10 -6 -22 -6q-18 0 -29.5 12.5t-11.5 28.5q0 24 26 37l296 151l-296 151q-26 13 -26 37z" />
    <glyph glyph-name="centonum.tnum" 
d="M313 -51v86q-89 13 -139.5 75.5t-50.5 150.5t50.5 150.5t139.5 75.5v86q0 18 11.5 30.5t31.5 12.5t31.5 -12.5t11.5 -30.5v-87q75 -14 113 -59q14 -16 14 -33q0 -16 -11.5 -27t-31.5 -11q-6 0 -12 2.5t-9.5 5t-10 8.5t-8.5 8q-36 31 -85 31q-67 0 -104 -43t-37 -107
t37 -107t104 -43q49 0 85 31q2 2 8.5 8t10 8.5t9.5 5t12 2.5q20 0 31.5 -11t11.5 -27q0 -17 -14 -33q-40 -47 -113 -59v-87q0 -18 -11.5 -30.5t-31.5 -12.5t-31.5 12.5t-11.5 30.5z" />
    <glyph glyph-name="sterlingonum.tnum" 
d="M309 244v-171h220q40 0 40 -35q0 -17 -11.5 -27.5t-28.5 -10.5h-430q-17 0 -28.5 10t-11.5 27t11.5 26.5t28.5 9.5h116v171h-103q-17 0 -28.5 9.5t-11.5 26.5t11.5 27t28.5 10h103v50q0 100 53 155.5t162 55.5q62 0 121 -25q32 -13 32 -42q0 -15 -11 -26.5t-29 -11.5
q-11 0 -20 4q-46 17 -89 17q-69 0 -97 -28.5t-28 -91.5v-57h189q17 0 28.5 -10t11.5 -27t-11.5 -26.5t-28.5 -9.5h-189z" />
    <glyph glyph-name="notequalonum.tnum" 
d="M522 296q0 -16 -11 -26.5t-27 -10.5h-110l-51 -98h161q16 0 27 -10.5t11 -26.5t-11 -26.5t-27 -10.5h-200l-33 -63q-7 -14 -21 -14q-10 0 -16.5 6t-6.5 14q0 7 3 13l23 44h-69q-15 0 -26 10.5t-11 26.5t11 26.5t26 10.5h108l51 98h-159q-15 0 -26 10.5t-11 26.5t11 26.5
t26 10.5h197l36 68q7 12 20 12q10 0 16.5 -6t6.5 -15q0 -5 -4 -15l-24 -44h72q16 0 27 -10.5t11 -26.5z" />
    <glyph glyph-name="plusminusonum.tnum" 
d="M138 0q-16 0 -27 10.5t-11 26.5t10.5 26t27.5 10h145v142h-145q-16 0 -27 10.5t-11 26.5t11 26.5t27 10.5h145v127q0 18 12 30t30 12t30 -12t12 -30v-127h145q16 0 27 -10.5t11 -26.5t-11 -26.5t-27 -10.5h-145v-142h145q16 0 27 -10t11 -26t-11 -26.5t-27 -10.5h-374z
" />
    <glyph glyph-name="yenonum.tnum" 
d="M554 510l-108 -171h77q12 0 20.5 -9t8.5 -21q0 -13 -8.5 -21.5t-20.5 -8.5h-115l-37 -58v-22h152q12 0 20.5 -9t8.5 -21q0 -13 -8.5 -21.5t-20.5 -8.5h-152v-99q0 -20 -13.5 -34t-32.5 -14t-32.5 14t-13.5 34v99h-152q-12 0 -20.5 8.5t-8.5 21.5q0 12 8.5 21t20.5 9h152
v22l-37 58h-115q-12 0 -20.5 8.5t-8.5 21.5q0 12 8.5 21t20.5 9h77l-108 171q-8 12 -8 25q0 18 12.5 28.5t30.5 10.5q22 0 35 -20l159 -254l159 254q13 20 35 20q18 0 30.5 -10.5t12.5 -28.5q0 -13 -8 -25z" />
    <glyph glyph-name="florinonum.tnum" 
d="M279 219h-69q-15 0 -25 9.5t-10 23.5q0 45 47 45h71l20 116q15 82 53.5 121.5t124.5 39.5h38q18 0 30 -9t12 -27t-12.5 -30t-37.5 -12h-25q-40 0 -60.5 -17.5t-27.5 -60.5l-21 -121h96q15 0 25 -10t10 -25q0 -19 -12.5 -31t-33.5 -12h-99l-45 -256q-15 -85 -54.5 -121.5
t-137.5 -36.5h-25q-14 0 -23.5 10.5t-9.5 25.5q0 42 45 42h19q45 0 64 17.5t27 61.5z" />
    <glyph glyph-name="approxequalonum.tnum" 
d="M523 328q0 -7 -3 -13q-15 -27 -47 -49.5t-72 -22.5q-37 0 -80 25q-37 22 -66 22q-22 0 -34.5 -5t-27.5 -20q-17 -17 -33 -17q-12 0 -22.5 8.5t-10.5 21.5q0 7 4 15q14 30 46 52t75 22q35 0 83 -23q52 -26 68 -26q33 0 65 32q10 10 22 10q15 0 24 -8.5t9 -23.5zM523 158
q0 -7 -3 -13q-15 -27 -47 -49.5t-72 -22.5q-11 0 -20 1t-19 5t-13.5 5t-15 7.5t-12.5 6.5q-40 22 -66 22q-22 0 -34.5 -5t-27.5 -20q-17 -17 -33 -17q-12 0 -22.5 8.5t-10.5 21.5q0 7 4 15q14 30 46 52t75 22q35 0 83 -23q52 -26 68 -26q33 0 65 32q10 10 22 10
q15 0 24 -8.5t9 -23.5z" />
    <glyph glyph-name="divideonum.tnum" 
d="M545 220q0 -16 -11 -27t-27 -11h-364q-16 0 -27 11t-11 27t11 27t27 11h364q16 0 27 -11t11 -27zM273 375q0 22 15 37t37 15t37 -15t15 -37t-15 -37t-37 -15t-37 15t-15 37zM273 65q0 22 15 37t37 15t37 -15t15 -37t-15 -37t-37 -15t-37 15t-15 37z" />
    <glyph glyph-name="Euroonum.tnum" 
d="M203 283q0 -29 2 -42h240q12 0 20.5 -9t8.5 -21q0 -13 -8.5 -21.5t-20.5 -8.5h-227q39 -114 167 -114q76 0 142 59q13 12 29 12t27.5 -11t11.5 -27q0 -17 -15 -32q-80 -80 -197 -80q-100 0 -167 52t-93 141h-84q-12 0 -20.5 8.5t-8.5 21.5q0 12 8.5 21t20.5 9h72
q-2 13 -2 42q0 28 2 42h-72q-12 0 -20.5 8.5t-8.5 21.5q0 12 8.5 21t20.5 9h84q26 89 93 141t167 52q117 0 197 -80q15 -15 15 -32q0 -16 -11.5 -27t-27.5 -11t-29 12q-66 59 -142 59q-127 0 -167 -114h227q12 0 20.5 -9t8.5 -21q0 -13 -8.5 -21.5t-20.5 -8.5h-240
q-2 -14 -2 -42z" />
    <glyph glyph-name="parenleft.smcp" horiz-adv-x="332" 
d="M210 668q13 22 38 22q18 0 31 -11t13 -29q0 -14 -6 -24q-107 -180 -107 -376t107 -376q6 -10 6 -24q0 -18 -13 -29t-31 -11q-25 0 -38 22q-125 202 -125 418t125 418z" />
    <glyph glyph-name="parenright.smcp" horiz-adv-x="332" 
d="M122 668q125 -202 125 -418t-125 -418q-13 -22 -38 -22q-18 0 -31 11t-13 29q0 14 6 24q107 180 107 376t-107 376q-6 10 -6 24q0 18 13 29t31 11q25 0 38 -22z" />
    </font>
</defs>
</svg>
