<?xml version="1.0" standalone="no"?>
<!DOCTYPE svg PUBLIC "-//W3C//DTD SVG 1.1//EN" "http://www.w3.org/Graphics/SVG/1.1/DTD/svg11.dtd" >
<svg>
<metadata>
Created by FontForge 20120731 at Mon Dec 15 16:46:36 2014
 By Orthosie Webhosting
Copyright 2005 Process Type Foundry. All rights reserved.
</metadata>
<defs>
<font id="BryantProBold" horiz-adv-x="650" >
  <font-face 
    font-family="BryantProBold"
    font-weight="700"
    font-stretch="normal"
    units-per-em="1000"
    panose-1="2 0 8 3 3 0 0 2 0 3"
    ascent="750"
    descent="-250"
    x-height="434"
    cap-height="674"
    bbox="-47 -292 1208 953"
    underline-thickness="20"
    underline-position="-113"
    unicode-range="U+0020-FB02"
  />
<missing-glyph horiz-adv-x="666" 
d="M100 0v666h466v-666h-466zM517 616h-340l340 -527v527zM149 576v-527h339z" />
    <glyph glyph-name="fi" unicode="fi" horiz-adv-x="641" 
d="M443 573q0 29 19.5 48.5t48.5 19.5t48.5 -19.5t19.5 -48.5t-19.5 -48.5t-48.5 -19.5t-48.5 19.5t-19.5 48.5zM451 52v330q0 25 17.5 42.5t42.5 17.5t42.5 -17.5t17.5 -42.5v-330q0 -25 -17.5 -42.5t-42.5 -17.5t-42.5 17.5t-17.5 42.5zM116 495q0 80 43.5 127.5
t128.5 47.5h40q21 0 35.5 -14.5t14.5 -35.5t-14.5 -35.5t-35.5 -14.5h-28q-64 0 -64 -63v-73h82q21 0 35.5 -14.5t14.5 -35.5t-14.5 -35.5t-35.5 -14.5h-82v-282q0 -25 -17.5 -42.5t-42.5 -17.5t-42.5 17.5t-17.5 42.5v282h-51q-21 0 -35.5 14.5t-14.5 35.5t14.5 35.5
t35.5 14.5h51v61z" />
    <glyph glyph-name="fl" unicode="fl" horiz-adv-x="643" 
d="M453 52v562q0 25 17.5 42.5t42.5 17.5t42.5 -17.5t17.5 -42.5v-562q0 -25 -17.5 -42.5t-42.5 -17.5t-42.5 17.5t-17.5 42.5zM116 495q0 80 43.5 127.5t128.5 47.5h40q21 0 35.5 -14.5t14.5 -35.5t-14.5 -35.5t-35.5 -14.5h-28q-64 0 -64 -63v-73h82q21 0 35.5 -14.5
t14.5 -35.5t-14.5 -35.5t-35.5 -14.5h-82v-282q0 -25 -17.5 -42.5t-42.5 -17.5t-42.5 17.5t-17.5 42.5v282h-51q-21 0 -35.5 14.5t-14.5 35.5t14.5 35.5t35.5 14.5h51v61z" />
    <glyph glyph-name=".notdef" horiz-adv-x="666" 
d="M100 0v666h466v-666h-466zM517 616h-340l340 -527v527zM149 576v-527h339z" />
    <glyph glyph-name=".null" horiz-adv-x="0" 
 />
    <glyph glyph-name="nonmarkingreturn" horiz-adv-x="333" 
 />
    <glyph glyph-name="space" unicode=" " horiz-adv-x="290" 
 />
    <glyph glyph-name="exclam" unicode="!" horiz-adv-x="298" 
d="M209 381l-31 -156q-4 -28 -29 -28t-29 28l-31 156v233q0 25 17.5 42.5t42.5 17.5t42.5 -17.5t17.5 -42.5v-233zM218 62q0 -28 -20 -48.5t-49 -20.5t-49 20.5t-20 48.5t20 48t49 20t49 -20t20 -48z" />
    <glyph glyph-name="quotedbl" unicode="&#x22;" horiz-adv-x="409" 
d="M349 450q0 -21 -15 -36t-36 -15t-36 15t-15 36v173q0 21 15 36t36 15t36 -15t15 -36v-173zM162 450q0 -21 -15 -36t-36 -15t-36 15t-15 36v173q0 21 15 36t36 15t36 -15t15 -36v-173z" />
    <glyph glyph-name="numbersign" unicode="#" horiz-adv-x="735" 
d="M110 412q-17 0 -28.5 11.5t-11.5 28.5q0 21 13 35.5t37 14.5h81l13 123q2 21 16.5 35t37.5 14q19 0 31.5 -13t12.5 -31v-5l-13 -123h181l13 123q2 22 16.5 35.5t37.5 13.5q20 0 32 -12.5t12 -30.5v-6l-13 -123h83q16 0 27.5 -12t11.5 -29q0 -20 -14 -34.5t-35 -14.5h-83
l-16 -150h83q16 0 27.5 -11.5t11.5 -28.5q0 -20 -14 -35t-35 -15h-83l-14 -131q-2 -21 -16.5 -35t-37.5 -14q-18 0 -31 12.5t-13 31.5v5l14 131h-181l-14 -131q-2 -22 -16.5 -35.5t-37.5 -13.5q-18 0 -31 12.5t-13 31.5v5l14 131h-81q-16 0 -27.5 11.5t-11.5 28.5
q0 22 14 36t35 14h81l16 150h-81zM289 412l-16 -150h181l16 150h-181z" />
    <glyph glyph-name="dollar" unicode="$" horiz-adv-x="589" 
d="M257 -61v73q-39 4 -93 21q-104 38 -104 91q0 22 12.5 34.5t34.5 12.5q18 0 29 -7q33 -20 50 -28.5t49.5 -17.5t69.5 -9q55 0 85 19.5t30 53.5q0 36 -32 59t-105 47q-117 38 -166 83.5t-49 119.5q0 71 50.5 113t142.5 50v73q0 19 13.5 32.5t32.5 13.5t32.5 -13.5
t13.5 -32.5v-73q28 -3 70 -13q39 -11 68.5 -30.5t29.5 -44.5q0 -20 -11.5 -34.5t-34.5 -14.5q-13 0 -22 4q-2 1 -14 6t-14.5 5.5t-13 4.5t-14 5t-13 4t-14 4l-13.5 3t-15.5 2.5t-15 1t-17.5 0.5q-126 0 -126 -66q0 -34 27.5 -54t112.5 -50q109 -39 160 -80t51 -116
q0 -69 -47 -117t-138 -61v-74q0 -19 -13.5 -32.5t-32.5 -13.5t-32.5 13.5t-13.5 32.5z" />
    <glyph glyph-name="percent" unicode="%" horiz-adv-x="860" 
d="M383 513q0 -70 -48 -117.5t-121 -47.5t-121 47.5t-48 117.5t48 117.5t121 47.5t121 -47.5t48 -117.5zM288 513q0 34 -21 57.5t-53 23.5t-53 -23.5t-21 -57.5t21 -57.5t53 -23.5t53 23.5t21 57.5zM252 8q-14 -20 -37 -20q-20 0 -33 14.5t-13 32.5q0 15 9 27l428 596
q14 20 37 20q20 0 33.5 -13.5t13.5 -32.5q0 -14 -9 -28zM810 153q0 -70 -48 -117.5t-121 -47.5t-121 47.5t-48 117.5t48 117.5t121 47.5t121 -47.5t48 -117.5zM715 153q0 34 -20.5 57.5t-53.5 23.5t-53.5 -23.5t-20.5 -57.5t20.5 -57.5t53.5 -23.5t53.5 23.5t20.5 57.5z" />
    <glyph glyph-name="ampersand" unicode="&#x26;" horiz-adv-x="734" 
d="M722 68q0 -35 -42 -57.5t-89 -22.5q-91 0 -139 62q-81 -62 -197 -62q-107 0 -163.5 48t-56.5 131q0 134 177 208q-65 74 -65 148q0 70 46 112.5t126 42.5q71 0 111 -42t40 -106q0 -104 -110 -184l105 -146q38 53 60 95q14 27 43 27q21 0 34.5 -13t13.5 -36
q0 -24 -30.5 -72.5t-57.5 -78.5q22 -40 64 -40q26 0 52 13.5t36 13.5q18 0 30 -10.5t12 -30.5zM369 520q0 31 -14 49.5t-40 18.5t-41.5 -18.5t-15.5 -46.5q0 -54 51 -108q25 17 42.5 45t17.5 60zM393 127q-9 13 -54.5 73.5t-70.5 95.5q-54 -27 -82.5 -55t-28.5 -71
q0 -39 26 -62.5t75 -23.5q79 0 135 43z" />
    <glyph glyph-name="quotesingle" unicode="'" horiz-adv-x="222" 
d="M162 450q0 -21 -15 -36t-36 -15t-36 15t-15 36v173q0 21 15 36t36 15t36 -15t15 -36v-173z" />
    <glyph glyph-name="parenleft" unicode="(" horiz-adv-x="337" 
d="M307 -121q0 -20 -15.5 -34.5t-36.5 -14.5q-26 0 -44 25q-64 89 -100 198t-36 217t36 217t100 198q18 25 44 25q21 0 36.5 -14.5t15.5 -34.5q0 -14 -8 -28q-104 -199 -104 -363t104 -363q8 -14 8 -28z" />
    <glyph glyph-name="parenright" unicode=")" horiz-adv-x="337" 
d="M30 -121q0 14 8 28q104 199 104 363t-104 363q-8 14 -8 28q0 20 15.5 34.5t36.5 14.5q26 0 44 -25q64 -89 100 -198t36 -217t-36 -217t-100 -198q-18 -25 -44 -25q-21 0 -36.5 14.5t-15.5 34.5z" />
    <glyph glyph-name="asterisk" unicode="*" horiz-adv-x="398" 
d="M96 418q0 9 5 17l42 66h-78q-13 0 -21.5 8.5t-8.5 21.5t8.5 21.5t21.5 8.5h78l-42 66q-5 8 -5 18q0 12 9.5 20.5t21.5 8.5q16 0 25 -14l47 -73l47 73q9 14 25 14q12 0 21.5 -8.5t9.5 -20.5q0 -10 -5 -18l-43 -66h79q13 0 21.5 -8.5t8.5 -21.5t-8.5 -21.5t-21.5 -8.5h-79
l43 -66q5 -8 5 -17q0 -13 -9 -21.5t-21 -8.5q-16 0 -26 14l-47 73l-47 -73q-10 -14 -26 -14q-12 0 -21 8.5t-9 21.5z" />
    <glyph glyph-name="plus" unicode="+" horiz-adv-x="600" 
d="M535 323q0 -19 -14.5 -33.5t-33.5 -14.5h-134v-134q0 -22 -15.5 -37.5t-37.5 -15.5t-37.5 15.5t-15.5 37.5v134h-134q-20 0 -34 14t-14 34t14 34t34 14h134v134q0 22 15.5 37.5t37.5 15.5t37.5 -15.5t15.5 -37.5v-134h134q19 0 33.5 -14.5t14.5 -33.5z" />
    <glyph glyph-name="comma" unicode="," horiz-adv-x="246" 
d="M181 49q0 -115 -46 -186q-21 -33 -51 -33q-24 0 -38 12.5t-14 29.5q0 13 11 33q32 58 32 139v30q0 25 14 40.5t39 15.5t39 -15.5t14 -40.5v-25z" />
    <glyph glyph-name="hyphen" unicode="-" horiz-adv-x="428" 
d="M368 248q0 -21 -15.5 -36t-36.5 -15h-204q-21 0 -36.5 15t-15.5 36q0 22 15.5 37t36.5 15h204q21 0 36.5 -15t15.5 -37z" />
    <glyph glyph-name="period" unicode="." horiz-adv-x="257" 
d="M197 62q0 -28 -20.5 -48.5t-48.5 -20.5t-48 20t-20 49q0 28 20 48t48 20q29 0 49 -20t20 -48z" />
    <glyph glyph-name="slash" unicode="/" horiz-adv-x="427" 
d="M141 -72q-12 -35 -50 -35q-22 0 -36.5 15.5t-14.5 36.5q0 9 3 18l246 726q13 36 51 36q24 0 38 -15.5t14 -36.5q0 -8 -3 -17z" />
    <glyph glyph-name="zero" unicode="0" horiz-adv-x="674" 
d="M629 333q0 -144 -78.5 -244.5t-213.5 -100.5t-213.5 100.5t-78.5 244.5t78.5 244.5t213.5 100.5t213.5 -100.5t78.5 -244.5zM509 333q0 106 -48.5 171.5t-123.5 65.5t-123.5 -65.5t-48.5 -171.5t48.5 -171.5t123.5 -65.5t123.5 65.5t48.5 171.5z" />
    <glyph glyph-name="one" unicode="1" horiz-adv-x="393" 
d="M84 512q-8 -2 -12 -2q-23 0 -40 16t-17 40q0 40 39 52l174 52q12 4 20 4q26 0 43 -16.5t17 -44.5v-561q0 -25 -17.5 -42.5t-42.5 -17.5q-24 0 -42 17.5t-18 42.5v491z" />
    <glyph glyph-name="two" unicode="2" horiz-adv-x="628" 
d="M578 54q0 -22 -15.5 -38t-37.5 -16h-420q-22 0 -37.5 16.5t-15.5 38.5q0 101 59.5 166.5t160.5 114.5q113 55 138 73q42 32 42 77q0 41 -37.5 62.5t-99.5 21.5q-53 0 -89 -10.5t-82 -39.5q-13 -8 -26 -8q-23 0 -38 14.5t-15 34.5q0 28 24 48t73 40q72 29 159 29
q113 0 182 -50t69 -140q0 -73 -47 -122.5t-148 -99.5q-52 -26 -77 -39.5t-55.5 -34.5t-42.5 -41t-12 -43h335q22 0 37.5 -16t15.5 -38z" />
    <glyph glyph-name="three" unicode="3" horiz-adv-x="632" 
d="M582 194q0 -97 -75 -151.5t-193 -54.5q-69 0 -137.5 22t-115.5 65q-21 21 -21 43q0 26 16 39.5t38 13.5q16 0 30 -10q47 -36 87.5 -53.5t102.5 -17.5q67 0 107.5 29t40.5 81q0 100 -163 100h-56q-22 0 -37 16t-15 36q0 22 14.5 37t37.5 15h44q129 0 129 93q0 39 -28.5 59
t-77.5 20q-57 0 -105 -22q-40 -19 -57 -19q-23 0 -35.5 13.5t-12.5 33.5q0 45 87 76q59 20 133 20q100 0 158 -45.5t58 -126.5q0 -96 -90 -141q136 -42 136 -171z" />
    <glyph glyph-name="four" unicode="4" horiz-adv-x="638" 
d="M576 167h-79v-116q0 -25 -17 -42t-42 -17t-42 17t-17 42v116h-312q-22 0 -37 14t-15 36q0 19 17 39l359 396q21 22 49 22t42.5 -16.5t14.5 -42.5v-348h79q22 0 37 -14.5t15 -35.5t-15 -35.5t-37 -14.5zM171 267h208v231z" />
    <glyph glyph-name="five" unicode="5" horiz-adv-x="626" 
d="M574 216q0 -104 -76.5 -166t-191.5 -62q-149 0 -238 74q-23 20 -23 43q0 25 15.5 40t37.5 15q15 0 30 -9q49 -33 86.5 -46.5t91.5 -13.5q68 0 108 33t40 88q0 52 -40 83.5t-98 31.5q-77 0 -149 -36q-14 -7 -29 -7q-29 0 -43.5 16.5t-11.5 39.5l44 277q3 23 18.5 36
t38.5 13h282q22 0 38.5 -16t16.5 -39q0 -22 -16.5 -38t-38.5 -16h-237l-24 -151q20 11 55.5 19t62.5 8q118 0 184.5 -60.5t66.5 -156.5z" />
    <glyph glyph-name="six" unicode="6" horiz-adv-x="628" 
d="M416 574q-186 -84 -235 -227q27 33 76 51t101 18q106 0 169 -60t63 -151q0 -93 -73.5 -155t-185.5 -62q-132 0 -204 69.5t-72 180.5q0 245 226 388q82 52 152 52q22 0 35.5 -11t13.5 -31t-14.5 -32.5t-51.5 -29.5zM470 204q0 50 -35.5 80.5t-101.5 30.5q-62 0 -102.5 -31
t-40.5 -81q0 -53 37.5 -83.5t101.5 -30.5q58 0 99.5 31t41.5 84z" />
    <glyph glyph-name="seven" unicode="7" horiz-adv-x="573" 
d="M558 613q0 -16 -10 -29q-110 -138 -155.5 -256t-45.5 -277q0 -25 -17 -42t-43 -17q-27 0 -43.5 17t-16.5 42q0 159 42.5 281.5t129.5 225.5h-326q-22 0 -37.5 16t-15.5 38t15.5 38t37.5 16h430q55 0 55 -53z" />
    <glyph glyph-name="eight" unicode="8" horiz-adv-x="638" 
d="M590 194q0 -87 -73.5 -146.5t-197.5 -59.5t-197.5 59.5t-73.5 146.5q0 118 125 172q-76 58 -76 136q0 76 61.5 126t160.5 50t160 -50t61 -126q0 -79 -75 -136q125 -54 125 -172zM424 491q0 37 -28.5 62t-76.5 25q-49 0 -77 -24t-28 -63q0 -42 29.5 -67t75.5 -25
q45 0 75 25.5t30 66.5zM470 197q0 46 -40.5 77t-110.5 31t-110.5 -31t-40.5 -77q0 -48 41.5 -78.5t109.5 -30.5t109.5 30.5t41.5 78.5z" />
    <glyph glyph-name="nine" unicode="9" horiz-adv-x="625" 
d="M223 90q92 39 147.5 93.5t80.5 135.5q-27 -34 -75.5 -51.5t-99.5 -17.5q-111 0 -171.5 59t-60.5 152t75 155t184 62q129 0 201.5 -70t72.5 -180q0 -131 -60 -228t-159 -160q-82 -52 -152 -52q-22 0 -35.5 11t-13.5 31t14.5 32t51.5 28zM164 462q0 -51 34.5 -82.5
t102.5 -31.5q61 0 102 32.5t41 82.5q0 53 -39 82.5t-103 29.5q-59 0 -98.5 -29.5t-39.5 -83.5z" />
    <glyph glyph-name="colon" unicode=":" horiz-adv-x="257" 
d="M197 306q0 -28 -20.5 -48.5t-48.5 -20.5t-48 20t-20 49q0 28 20 48t48 20q29 0 49 -20t20 -48zM197 62q0 -28 -20.5 -48.5t-48.5 -20.5t-48 20t-20 49q0 28 20 48t48 20q29 0 49 -20t20 -48z" />
    <glyph glyph-name="semicolon" unicode=";" horiz-adv-x="257" 
d="M197 305q0 -28 -20 -48t-49 -20t-49 20t-20 48q0 29 20.5 49t48.5 20t48.5 -20t20.5 -49zM183 49q0 -112 -48 -186q-21 -33 -51 -33q-24 0 -38 12.5t-14 29.5q0 9 11 33q30 64 30 139v30q0 24 15 40t40 16t40 -15.5t15 -40.5v-25z" />
    <glyph glyph-name="less" unicode="&#x3c;" horiz-adv-x="559" 
d="M467 456l-287 -133l287 -133q27 -14 27 -44q0 -22 -15 -37t-37 -15q-15 0 -28 7l-346 176q-28 16 -28 46t28 46l346 176q13 7 28 7q22 0 37 -15t15 -37q0 -30 -27 -44z" />
    <glyph glyph-name="equal" unicode="=" horiz-adv-x="566" 
d="M491 414q0 -20 -13.5 -33.5t-33.5 -13.5h-322q-20 0 -33.5 13.5t-13.5 33.5t13.5 33.5t33.5 13.5h322q20 0 33.5 -13.5t13.5 -33.5zM491 233q0 -19 -13.5 -33t-33.5 -14h-322q-20 0 -33.5 14t-13.5 33t13.5 33t33.5 14h322q20 0 33.5 -14t13.5 -33z" />
    <glyph glyph-name="greater" unicode="&#x3e;" horiz-adv-x="559" 
d="M379 323l-287 133q-27 16 -27 44q0 22 15 37t37 15q15 0 28 -7l346 -176q28 -16 28 -46t-28 -46l-346 -176q-13 -7 -28 -7q-22 0 -37 15t-15 37q0 31 27 44z" />
    <glyph glyph-name="question" unicode="?" horiz-adv-x="473" 
d="M443 515q0 -43 -18.5 -74.5t-63.5 -65.5q-41 -31 -52.5 -41t-21 -28t-9.5 -45v-16q0 -24 -16 -40t-43 -16q-25 0 -40.5 16t-15.5 39v20q0 57 18.5 87.5t61.5 64.5q7 6 24 18.5t23.5 18t16 15.5t13 19.5t3.5 21.5q0 61 -96 61q-55 0 -123 -28q-13 -5 -27 -5q-22 0 -37 14
t-15 36q0 33 47 57q65 34 160 34q96 0 153.5 -42.5t57.5 -120.5zM290 62q0 -28 -20 -48.5t-49 -20.5q-28 0 -48 20.5t-20 48.5t20 48t48 20q29 0 49 -20t20 -48z" />
    <glyph glyph-name="at" unicode="@" horiz-adv-x="762" 
d="M738 102q0 -19 -24 -33q-135 -81 -295 -81q-173 0 -278.5 98.5t-105.5 256.5q0 149 85 242t233 93q116 0 177.5 -57t61.5 -162v-241q0 -19 -12.5 -31.5t-31.5 -12.5q-18 0 -31.5 12.5t-13.5 30.5q-12 -21 -40 -33.5t-54 -12.5q-69 0 -112 49.5t-43 119.5q0 71 42.5 120
t112.5 49q67 0 96 -47v14q0 61 -39 95t-115 34q-110 0 -171.5 -73t-61.5 -189q0 -129 79.5 -205.5t223.5 -76.5q127 0 264 70q12 6 19 6q15 0 24.5 -9.5t9.5 -25.5zM503 340q0 38 -21.5 63.5t-58.5 25.5t-58.5 -25.5t-21.5 -63.5t21.5 -63.5t58.5 -25.5t58.5 25.5t21.5 63.5
z" />
    <glyph glyph-name="A" unicode="A" horiz-adv-x="694" 
d="M552 25l-57 122h-296l-57 -122q-18 -33 -51 -33q-26 0 -42 17t-16 40q0 12 6 24l256 569q14 32 52 32t52 -32l256 -569q6 -12 6 -24q0 -23 -16 -40t-42 -17q-34 0 -51 33zM451 254l-104 254l-104 -254h208z" />
    <glyph glyph-name="B" unicode="B" horiz-adv-x="660" 
d="M618 191q0 -79 -62.5 -135t-173.5 -56h-241q-25 0 -43 18t-18 44v543q0 25 18 43t43 18h231q98 0 154 -45.5t56 -119.5q0 -95 -106 -143q66 -15 104 -59.5t38 -107.5zM459 483q0 34 -22 54t-60 20h-175v-151h175q40 0 61 22.5t21 54.5zM496 205q0 39 -28 65.5t-77 26.5
h-189v-188h190q47 0 75.5 26t28.5 70z" />
    <glyph glyph-name="C" unicode="C" horiz-adv-x="667" 
d="M380 101q75 0 147 55q20 14 40 14q25 0 40 -16.5t15 -39.5q0 -22 -19 -41q-41 -42 -101 -63.5t-122 -21.5q-149 0 -244.5 95t-95.5 250t95.5 250t244.5 95q62 0 122 -21.5t101 -63.5q19 -19 19 -41q0 -23 -15 -39.5t-40 -16.5q-20 0 -40 14q-72 55 -147 55
q-97 0 -157 -65.5t-60 -166.5t60 -166.5t157 -65.5z" />
    <glyph glyph-name="D" unicode="D" horiz-adv-x="699" 
d="M657 333q0 -143 -91.5 -238t-240.5 -95h-183q-26 0 -44 18t-18 44v543q0 25 18 43t44 18h183q149 0 240.5 -95t91.5 -238zM535 333q0 99 -57.5 159.5t-158.5 60.5h-117v-440h117q101 0 158.5 60.5t57.5 159.5z" />
    <glyph glyph-name="E" unicode="E" horiz-adv-x="605" 
d="M575 56q0 -24 -17 -40t-41 -16h-375q-26 0 -44 18t-18 43v544q0 25 18 43t44 18h360q24 0 41 -16t17 -40t-17 -40.5t-41 -16.5h-300v-159h165q23 0 40 -16.5t17 -40.5t-16.5 -40t-40.5 -16h-165v-168h315q24 0 41 -16.5t17 -40.5z" />
    <glyph glyph-name="F" unicode="F" horiz-adv-x="572" 
d="M564 609q0 -24 -17 -41t-40 -17h-305v-156h170q23 0 39.5 -17t16.5 -41t-16.5 -40.5t-39.5 -16.5h-170v-227q0 -25 -18 -43t-43 -18t-43 18t-18 43v552q0 25 18 43t43 18h366q24 0 40.5 -16.5t16.5 -40.5z" />
    <glyph glyph-name="G" unicode="G" horiz-adv-x="719" 
d="M669 147q0 -21 -14 -39q-47 -58 -120.5 -89t-152.5 -31q-155 0 -248.5 99.5t-93.5 245.5q0 151 97 248t243 97q62 0 122 -21.5t101 -63.5q19 -19 19 -41q0 -23 -15 -39.5t-40 -16.5q-20 0 -40 14q-72 55 -147 55q-97 0 -157 -65.5t-60 -166.5q0 -105 58.5 -171.5
t160.5 -66.5t167 60v103h-130q-23 0 -39.5 16t-16.5 39q0 24 16.5 39.5t39.5 15.5h188q26 0 44 -18t18 -44v-159z" />
    <glyph glyph-name="H" unicode="H" horiz-adv-x="720" 
d="M640 54q0 -26 -18 -44t-43 -18t-43 18t-18 44v232h-316v-232q0 -26 -17.5 -44t-42.5 -18q-26 0 -44 18t-18 44v558q0 26 18 44t44 18q25 0 42.5 -18t17.5 -44v-212h316v212q0 26 18 44t43 18t43 -18t18 -44v-558z" />
    <glyph glyph-name="I" unicode="I" horiz-adv-x="292" 
d="M207 54q0 -26 -17.5 -44t-42.5 -18t-43.5 18t-18.5 44v558q0 26 18.5 44t43.5 18t42.5 -18t17.5 -44v-558z" />
    <glyph glyph-name="J" unicode="J" horiz-adv-x="609" 
d="M534 262q0 -124 -66.5 -199t-194.5 -75q-94 0 -165 55.5t-87 143.5q-1 4 -1 14q0 26 16 42t43 16q46 0 59 -48q31 -114 135 -114q71 0 105 42.5t34 116.5v356q0 25 18 43.5t43 18.5t43 -18.5t18 -43.5v-350z" />
    <glyph glyph-name="K" unicode="K" horiz-adv-x="665" 
d="M202 54q0 -26 -17.5 -44t-42.5 -18q-26 0 -44 18t-18 44v558q0 26 18 44t44 18q25 0 42.5 -18t17.5 -44v-245l301 291q16 16 40 16q23 0 41 -16.5t18 -39.5q0 -28 -18 -44l-174 -168l203 -324q10 -14 10 -34q0 -22 -15 -39t-41 -17q-35 0 -51 25l-191 307l-123 -119v-151
z" />
    <glyph glyph-name="L" unicode="L" horiz-adv-x="574" 
d="M494 0h-352q-26 0 -44 18t-18 44v550q0 26 18 44t44 18q25 0 42.5 -18t17.5 -44v-497h292q23 0 40 -16.5t17 -40.5t-16.5 -40.5t-40.5 -17.5z" />
    <glyph glyph-name="M" unicode="M" horiz-adv-x="832" 
d="M752 49q0 -24 -16.5 -40.5t-41.5 -16.5q-24 0 -40.5 17t-16.5 40v333l-170 -358q-15 -32 -50 -32q-34 0 -50 32l-172 358v-332q0 -23 -17 -40.5t-41 -17.5q-23 0 -40 17.5t-17 40.5v567q0 24 16.5 40.5t40.5 16.5q34 0 54 -36l226 -469l224 469q17 36 53 36
q27 0 42.5 -16t15.5 -42v-567z" />
    <glyph glyph-name="N" unicode="N" horiz-adv-x="722" 
d="M642 49q0 -24 -16.5 -40.5t-41.5 -16.5q-28 0 -44 21l-345 436v-400q0 -24 -17 -40.5t-41 -16.5q-23 0 -40 17t-17 40v567q0 24 16.5 41t43.5 17q26 0 42 -21l345 -436v399q0 24 16 41t41 17t41.5 -17t16.5 -41v-567z" />
    <glyph glyph-name="O" unicode="O" horiz-adv-x="774" 
d="M729 333q0 -146 -98 -245.5t-244 -99.5t-244 99.5t-98 245.5t98 245.5t244 99.5t244 -99.5t98 -245.5zM606 333q0 99 -60 167t-159 68t-159 -68t-60 -167t60 -167t159 -68t159 68t60 167z" />
    <glyph glyph-name="P" unicode="P" horiz-adv-x="654" 
d="M630 461q0 -90 -59 -146.5t-178 -56.5h-191v-205q0 -25 -18 -43t-43 -18t-43 18t-18 43v552q0 25 18 43t43 18h252q118 0 177.5 -57t59.5 -148zM507 461q0 37 -25 65t-72 28h-208v-183h208q47 0 72 26.5t25 63.5z" />
    <glyph glyph-name="Q" unicode="Q" horiz-adv-x="774" 
d="M652 -63q0 -22 -15.5 -37t-39.5 -15q-33 0 -48 29l-51 91q-54 -17 -111 -17q-146 0 -244 99.5t-98 245.5t98 245.5t244 99.5t244 -99.5t98 -245.5q0 -85 -36 -157.5t-99 -120.5l50 -90q8 -14 8 -28zM606 333q0 99 -60 167t-159 68t-159 -68t-60 -167t60 -167t159 -68
q29 0 56 6l-44 79q-7 13 -7 27q0 21 16.5 37.5t38.5 16.5q32 0 48 -29l42 -78q69 69 69 176z" />
    <glyph glyph-name="R" unicode="R" horiz-adv-x="691" 
d="M628 79q7 -14 7 -26q0 -24 -17 -42.5t-44 -18.5q-38 0 -54 33l-117 241h-201v-213q0 -25 -18 -43t-43 -18t-43 18t-18 43v552q0 25 18 43t43 18h257q120 0 178.5 -53.5t58.5 -146.5q0 -130 -110 -178zM512 465q0 36 -25 62.5t-72 26.5h-213v-183h213q47 0 72 28t25 66z
" />
    <glyph glyph-name="S" unicode="S" horiz-adv-x="624" 
d="M578 186q0 -90 -67 -144t-191 -54q-62 0 -125.5 18.5t-105.5 51.5q-34 27 -34 58q0 23 14 37.5t37 14.5q16 0 31 -9q3 -2 19 -12l20 -12.5t18 -10.5t21 -10t21 -7t25.5 -7t27.5 -3.5t33 -1.5q68 0 101 23.5t33 60.5t-34 59.5t-125 46.5q-132 35 -183.5 82t-51.5 124
q0 90 71 138.5t193 48.5q64 0 128 -18q41 -12 72.5 -33.5t31.5 -48.5q0 -22 -13 -38.5t-37 -16.5q-14 0 -24 5q-92 42 -157 42q-143 0 -143 -76q0 -35 32 -54t128 -47q60 -17 96 -31.5t71 -38t51 -57.5t16 -80z" />
    <glyph glyph-name="T" unicode="T" horiz-adv-x="621" 
d="M601 608q0 -24 -16.5 -40.5t-41.5 -16.5h-171v-497q0 -26 -18 -44t-44 -18q-25 0 -42.5 18t-17.5 44v497h-172q-24 0 -41 17t-17 40q0 24 16.5 41t41.5 17h465q24 0 41 -17t17 -41z" />
    <glyph glyph-name="U" unicode="U" horiz-adv-x="722" 
d="M524 256v356q0 26 18 44t43 18t43 -18t18 -44v-343q0 -130 -76 -205.5t-209 -75.5t-209 75.5t-76 205.5v343q0 26 18 44t43 18t43 -18t18 -44v-356q0 -72 42.5 -115t120.5 -43t120.5 43t42.5 115z" />
    <glyph glyph-name="V" unicode="V" horiz-adv-x="661" 
d="M635 617q0 -11 -5 -24l-247 -568q-15 -33 -52 -33q-38 0 -52 33l-248 568q-5 12 -5 23q0 23 16.5 40.5t39.5 17.5q39 0 53 -33l195 -465l197 465q15 33 51 33q24 0 40.5 -17t16.5 -40z" />
    <glyph glyph-name="W" unicode="W" horiz-adv-x="974" 
d="M541 635l144 -428l151 427q12 40 54 40q26 0 41 -16.5t15 -40.5q0 -8 -3 -17l-203 -570q-12 -38 -56 -38q-41 0 -54 37l-143 432l-143 -432q-13 -37 -54 -37q-44 0 -56 38l-203 570q-3 9 -3 17q0 24 15 40.5t41 16.5q42 0 54 -40l151 -427l144 428q14 39 54 39t54 -39z
" />
    <glyph glyph-name="X" unicode="X" horiz-adv-x="666" 
d="M56 47q0 21 12 36l195 252l-192 249q-12 15 -12 33q0 23 17 40t41 17q27 0 43 -21l173 -226l173 226q16 21 43 21q24 0 41 -17t17 -40q0 -18 -12 -33l-192 -249l195 -252q12 -15 12 -36q0 -23 -16 -39t-39 -16q-30 0 -47 23l-175 228l-175 -228q-18 -23 -47 -23
q-23 0 -39 16t-16 39z" />
    <glyph glyph-name="Y" unicode="Y" horiz-adv-x="588" 
d="M355 54q0 -26 -17.5 -44t-42.5 -18t-43.5 18t-18.5 44v239l-212 290q-11 17 -11 34q0 23 16.5 40t38.5 17q28 0 47 -25l182 -248l182 248q19 25 47 25q22 0 38.5 -17t16.5 -40q0 -19 -11 -34l-212 -290v-239z" />
    <glyph glyph-name="Z" unicode="Z" horiz-adv-x="640" 
d="M590 57q0 -23 -16.5 -40t-40.5 -17h-413q-24 0 -41 16.5t-17 40.5q0 18 13 34l342 462h-296q-23 0 -40 17t-17 40t17 39.5t40 16.5h409q23 0 40 -16.5t17 -39.5q0 -19 -13 -35l-342 -462h301q23 0 40 -16.5t17 -39.5z" />
    <glyph glyph-name="bracketleft" unicode="[" horiz-adv-x="378" 
d="M333 -99q0 -20 -15 -35t-36 -15h-136q-23 0 -39.5 17t-16.5 41v718q0 25 16.5 42t39.5 17h136q21 0 36 -15t15 -36t-15 -35.5t-36 -14.5h-74v-633h74q21 0 36 -14.5t15 -36.5z" />
    <glyph glyph-name="backslash" unicode="\" horiz-adv-x="427" 
d="M286 -72l-248 728q-3 9 -3 17q0 22 14.5 37t37.5 15q38 0 51 -36l246 -726q3 -9 3 -18q0 -21 -13.5 -36.5t-37.5 -15.5q-38 0 -50 35z" />
    <glyph glyph-name="bracketright" unicode="]" horiz-adv-x="378" 
d="M45 -99q0 22 15 36.5t36 14.5h74v633h-74q-21 0 -36 14.5t-15 35.5t15 36t36 15h136q23 0 39.5 -17t16.5 -42v-718q0 -24 -16.5 -41t-39.5 -17h-136q-21 0 -36 15t-15 35z" />
    <glyph glyph-name="asciicircum" unicode="^" horiz-adv-x="448" 
d="M413 381q0 -21 -13.5 -34.5t-35.5 -13.5q-28 0 -42 24l-98 175l-98 -175q-14 -24 -43 -24q-22 0 -35 13.5t-13 34.5q0 13 7 24l139 244q15 25 43 25t41 -24l141 -245q7 -14 7 -24z" />
    <glyph glyph-name="underscore" unicode="_" horiz-adv-x="452" 
d="M453 -77h-454v64h454v-64z" />
    <glyph glyph-name="grave" unicode="`" horiz-adv-x="316" 
d="M116 666q24 0 38 -19l60 -78q12 -14 12 -30q0 -18 -15 -32t-33 -14q-25 0 -39 19l-58 78q-11 15 -11 29q0 21 13 34t33 13z" />
    <glyph glyph-name="a" unicode="a" horiz-adv-x="518" 
d="M340 52v2q-41 -66 -129 -66q-71 0 -113.5 38.5t-42.5 98.5q0 66 45 101.5t117 35.5q78 0 121 -46v32q0 52 -22.5 74t-79.5 22q-32 0 -70.5 -11t-48.5 -11q-22 0 -36.5 14t-14.5 35q0 23 21 39t53 23t58 10t49 3q102 0 156.5 -48.5t54.5 -141.5v-204q0 -25 -16.5 -42.5
t-42.5 -17.5q-25 0 -42 17.5t-17 42.5zM338 125q0 23 -24.5 40t-59.5 17q-37 0 -58.5 -15.5t-21.5 -41.5t22.5 -41.5t57.5 -15.5t59.5 16.5t24.5 40.5z" />
    <glyph glyph-name="b" unicode="b" horiz-adv-x="566" 
d="M70 52v562q0 25 17.5 42.5t42.5 17.5t42.5 -17.5t17.5 -42.5v-239q43 71 133 71q94 0 148.5 -67.5t54.5 -161.5t-54 -161.5t-149 -67.5q-90 0 -137 71v-6q0 -25 -16 -43t-42 -18t-42 17.5t-16 42.5zM406 217q0 54 -29.5 90.5t-79.5 36.5q-49 0 -78 -37t-29 -90t28.5 -90
t78.5 -37t79.5 36.5t29.5 90.5z" />
    <glyph glyph-name="c" unicode="c" horiz-adv-x="484" 
d="M276 446q101 0 154 -59q17 -19 17 -41q0 -20 -13 -33t-34 -13q-20 0 -37 12q-43 32 -86 32q-55 0 -86 -37t-31 -90t31 -90t86 -37q43 0 86 32q17 12 37 12q21 0 34 -13t13 -33q0 -22 -17 -41q-53 -59 -154 -59q-106 0 -171 65.5t-65 163.5t65 163.5t171 65.5z" />
    <glyph glyph-name="d" unicode="d" horiz-adv-x="566" 
d="M496 614v-562q0 -25 -16 -42.5t-42 -17.5t-42 18t-16 43v6q-47 -71 -137 -71q-95 0 -149 67.5t-54 161.5t54.5 161.5t148.5 67.5q90 0 133 -71v239q0 25 17.5 42.5t42.5 17.5t42.5 -17.5t17.5 -42.5zM160 217q0 -54 29.5 -90.5t79.5 -36.5t78.5 37t28.5 90t-29 90t-78 37
q-50 0 -79.5 -36.5t-29.5 -90.5z" />
    <glyph glyph-name="e" unicode="e" horiz-adv-x="519" 
d="M474 217q0 -16 -10.5 -27.5t-32.5 -11.5h-266q5 -42 32 -68.5t76 -26.5q55 0 92 29q25 20 44 20q22 0 35 -12.5t13 -31.5q0 -33 -43 -60q-63 -40 -146 -40q-108 0 -168 65t-60 164t64 164t162 65q93 0 150.5 -65t57.5 -164zM360 263q-7 37 -31.5 62t-62.5 25
q-41 0 -67.5 -24t-31.5 -63h193z" />
    <glyph glyph-name="f" unicode="f" horiz-adv-x="383" 
d="M116 495q0 80 43.5 127.5t128.5 47.5h40q21 0 35.5 -14.5t14.5 -35.5t-14.5 -35.5t-35.5 -14.5h-28q-64 0 -64 -63v-73h82q21 0 35.5 -14.5t14.5 -35.5t-14.5 -35.5t-35.5 -14.5h-82v-282q0 -25 -17.5 -42.5t-42.5 -17.5t-42.5 17.5t-17.5 42.5v282h-51q-21 0 -35.5 14.5
t-14.5 35.5t14.5 35.5t35.5 14.5h51v61z" />
    <glyph glyph-name="g" unicode="g" horiz-adv-x="566" 
d="M496 27q0 -222 -239 -222q-85 0 -157 37q-32 16 -32 48q0 44 48 44q16 0 58 -17q45 -17 85 -17q64 0 90.5 29t26.5 91v57q-43 -71 -133 -71q-95 0 -149 63.5t-54 156.5t53.5 156.5t149.5 63.5q90 0 137 -71v6q0 26 16 43.5t42 17.5t42 -17.5t16 -42.5v-355zM160 226
q0 -52 29 -85t80 -33q49 0 78 34.5t29 83.5q0 50 -28.5 84t-78.5 34q-51 0 -80 -33t-29 -85z" />
    <glyph glyph-name="h" unicode="h" horiz-adv-x="560" 
d="M190 373q40 73 129 73q82 0 129 -57t47 -149v-188q0 -25 -17.5 -42.5t-42.5 -17.5t-42.5 17.5t-17.5 42.5v182q0 46 -23 75t-68 29q-47 0 -70.5 -30t-23.5 -74v-182q0 -25 -17.5 -42.5t-42.5 -17.5t-42.5 17.5t-17.5 42.5v562q0 25 17.5 42.5t42.5 17.5t42.5 -17.5
t17.5 -42.5v-241z" />
    <glyph glyph-name="i" unicode="i" horiz-adv-x="260" 
d="M62 573q0 29 20 48.5t48 19.5t48 -19.5t20 -48.5t-20 -48.5t-48 -19.5t-48 19.5t-20 48.5zM70 52v330q0 25 17.5 42.5t42.5 17.5t42.5 -17.5t17.5 -42.5v-330q0 -25 -17.5 -42.5t-42.5 -17.5t-42.5 17.5t-17.5 42.5z" />
    <glyph glyph-name="j" unicode="j" horiz-adv-x="260" 
d="M190 382v-407q0 -170 -173 -170h-14q-21 0 -35.5 14.5t-14.5 35.5t14.5 35.5t35.5 14.5h2q65 0 65 65v412q0 25 18 42.5t43 17.5t42 -17.5t17 -42.5zM63 573q0 29 19.5 48.5t48.5 19.5t48.5 -19.5t19.5 -48.5t-19.5 -48.5t-48.5 -19.5t-48.5 19.5t-19.5 48.5z" />
    <glyph glyph-name="k" unicode="k" horiz-adv-x="506" 
d="M460 80q10 -13 10 -31q0 -24 -15.5 -40.5t-40.5 -16.5t-41 23l-132 178l-51 -40v-101q0 -25 -17.5 -42.5t-42.5 -17.5t-42.5 17.5t-17.5 42.5v561q0 25 17.5 43t42.5 18t42.5 -18t17.5 -43v-324l183 141q15 12 34 12q25 0 41 -16t16 -40q0 -20 -26 -40l-111 -86z" />
    <glyph glyph-name="l" unicode="l" horiz-adv-x="260" 
d="M70 52v562q0 25 17.5 42.5t42.5 17.5t42.5 -17.5t17.5 -42.5v-562q0 -25 -17.5 -42.5t-42.5 -17.5t-42.5 17.5t-17.5 42.5z" />
    <glyph glyph-name="m" unicode="m" horiz-adv-x="851" 
d="M786 52q0 -25 -18 -42.5t-43 -17.5t-42.5 17.5t-17.5 42.5v182q0 47 -21.5 75.5t-65.5 28.5q-46 0 -68 -30t-22 -74v-182q0 -25 -17.5 -42.5t-42.5 -17.5t-43 17.5t-18 42.5v182q0 47 -21.5 75.5t-65.5 28.5q-47 0 -68.5 -29.5t-21.5 -74.5v-182q0 -25 -17.5 -42.5
t-42.5 -17.5t-42.5 17.5t-17.5 42.5v329q0 26 16.5 43.5t43.5 17.5q26 0 43 -18t17 -43v-8q40 73 125 73q93 0 140 -75q52 75 154 75q88 0 132.5 -54.5t44.5 -147.5v-192z" />
    <glyph glyph-name="n" unicode="n" horiz-adv-x="560" 
d="M375 234q0 46 -23 75t-68 29q-47 0 -70.5 -30t-23.5 -74v-182q0 -25 -17.5 -42.5t-42.5 -17.5t-42.5 17.5t-17.5 42.5v329q0 28 17 44.5t43 16.5t43 -16.5t17 -44.5v-8q40 73 129 73q82 0 129 -57t47 -149v-188q0 -25 -17.5 -42.5t-42.5 -17.5t-42.5 17.5t-17.5 42.5v182
z" />
    <glyph glyph-name="o" unicode="o" horiz-adv-x="542" 
d="M500 217q0 -96 -64.5 -162.5t-164.5 -66.5t-164.5 66.5t-64.5 162.5t64.5 162.5t164.5 66.5t164.5 -66.5t64.5 -162.5zM382 217q0 52 -30.5 88.5t-80.5 36.5t-80.5 -36.5t-30.5 -88.5t30.5 -88.5t80.5 -36.5t80.5 36.5t30.5 88.5z" />
    <glyph glyph-name="p" unicode="p" horiz-adv-x="566" 
d="M70 -135v517q0 25 16 42.5t42 17.5t42 -18t16 -43v-6q47 71 137 71q95 0 149 -67.5t54 -161.5t-54.5 -161.5t-148.5 -67.5q-90 0 -133 71v-194q0 -25 -17.5 -42.5t-42.5 -17.5t-42.5 17.5t-17.5 42.5zM406 217q0 54 -29.5 90.5t-79.5 36.5t-78.5 -37t-28.5 -90t29 -90
t78 -37q50 0 79.5 36.5t29.5 90.5z" />
    <glyph glyph-name="q" unicode="q" horiz-adv-x="566" 
d="M496 382v-517q0 -25 -17.5 -42.5t-42.5 -17.5t-42.5 17.5t-17.5 42.5v194q-43 -71 -133 -71q-94 0 -148.5 67.5t-54.5 161.5t54 161.5t149 67.5q90 0 137 -71v6q0 25 16 43t42 18t42 -17.5t16 -42.5zM160 217q0 -54 29.5 -90.5t79.5 -36.5q49 0 78 37t29 90t-28.5 90
t-78.5 37t-79.5 -36.5t-29.5 -90.5z" />
    <glyph glyph-name="r" unicode="r" horiz-adv-x="372" 
d="M362 392q0 -23 -15 -38.5t-39 -15.5q-54 0 -85.5 -35t-31.5 -95v-156q0 -25 -17.5 -42.5t-42.5 -17.5t-43 17.5t-18 42.5v329q0 27 17 44t44 17q25 0 42.5 -18t17.5 -43v-11q33 76 117 76q25 0 39.5 -15.5t14.5 -38.5z" />
    <glyph glyph-name="s" unicode="s" horiz-adv-x="459" 
d="M408 359q0 -44 -46 -44q-8 0 -53 19q-39 16 -74 16q-62 0 -62 -33q0 -18 16.5 -28t66.5 -23q83 -23 123 -53t40 -91t-48 -97.5t-132 -36.5q-97 0 -158 45q-26 19 -26 51q0 17 13 28t31 11q21 0 47 -17q48 -30 96 -30q63 0 63 36q0 17 -17.5 27t-64.5 23q-91 24 -127.5 61
t-36.5 93q0 57 47 93.5t132 36.5q60 0 109 -23q61 -28 61 -64z" />
    <glyph glyph-name="t" unicode="t" horiz-adv-x="379" 
d="M126 52v282h-67q-21 0 -35 14.5t-14 35.5t14 35.5t35 14.5h67v124q0 25 17.5 42.5t42.5 17.5t42.5 -17.5t17.5 -42.5v-124h78q21 0 35.5 -14.5t14.5 -35.5t-14.5 -35.5t-35.5 -14.5h-78v-282q0 -25 -17.5 -42.5t-42.5 -17.5t-42.5 17.5t-17.5 42.5z" />
    <glyph glyph-name="u" unicode="u" horiz-adv-x="558" 
d="M183 200q0 -46 23 -75t68 -29q47 0 70.5 30t23.5 74v182q0 25 17.5 42.5t42.5 17.5t42.5 -17.5t17.5 -42.5v-329q0 -28 -17 -44.5t-43 -16.5t-43 16.5t-17 44.5v8q-40 -73 -129 -73q-82 0 -129 57t-47 149v188q0 25 17.5 42.5t42.5 17.5t42.5 -17.5t17.5 -42.5v-182z" />
    <glyph glyph-name="v" unicode="v" horiz-adv-x="464" 
d="M442 387q0 -10 -5 -22l-156 -341q-15 -32 -49 -32t-49 32l-156 341q-5 12 -5 22q0 23 15.5 39t38.5 16q37 0 50 -32l106 -249l106 249q14 32 50 32q24 0 39 -16t15 -39z" />
    <glyph glyph-name="w" unicode="w" horiz-adv-x="668" 
d="M383 406l83 -230l70 232q11 34 47 34q24 0 39.5 -14.5t15.5 -37.5q0 -8 -4 -20l-115 -344q-11 -34 -51 -34q-36 0 -50 36l-84 242l-84 -242q-14 -36 -50 -36q-40 0 -51 34l-115 344q-4 12 -4 20q0 23 15.5 37.5t39.5 14.5q36 0 47 -34l70 -232l83 230q13 36 49 36t49 -36
z" />
    <glyph glyph-name="x" unicode="x" horiz-adv-x="492" 
d="M104 442q23 0 38 -18l104 -125l104 125q15 18 38 18q25 0 40 -14.5t15 -37.5q0 -20 -13 -34l-117 -138l120 -140q12 -15 12 -34q0 -21 -16 -36.5t-37 -15.5q-26 0 -41 18l-105 127l-105 -127q-15 -18 -41 -18q-21 0 -37 15.5t-16 36.5q0 19 12 34l120 140l-117 138
q-13 14 -13 34q0 23 15 37.5t40 14.5z" />
    <glyph glyph-name="y" unicode="y" horiz-adv-x="469" 
d="M327 61q-74 -182 -186 -249q-11 -7 -27 -7q-22 0 -38 15t-16 35q0 26 29 49q34 27 53.5 50t35.5 58l-143 353q-5 12 -5 22q0 23 15 39t39 16q37 0 50 -32l112 -288l94 288q10 32 50 32q23 0 38 -16t15 -39q0 -12 -4 -22q-47 -143 -112 -304z" />
    <glyph glyph-name="z" unicode="z" horiz-adv-x="481" 
d="M439 49q0 -21 -14.5 -35t-35.5 -14h-289q-19 0 -34.5 15t-15.5 34q0 21 13 37l213 250h-176q-21 0 -35.5 14t-14.5 35t14.5 35t35.5 14h283q23 0 37.5 -15t14.5 -37q0 -18 -13 -34l-213 -250h180q21 0 35.5 -14t14.5 -35z" />
    <glyph glyph-name="braceleft" unicode="{" horiz-adv-x="373" 
d="M348 640q0 -19 -13.5 -32.5t-32.5 -13.5h-26q-24 0 -24 -26v-185q0 -55 -28.5 -86.5t-85.5 -31.5q57 -1 85.5 -33.5t28.5 -86.5v-182q0 -28 24 -28h26q19 0 32.5 -13t13.5 -33q0 -19 -13.5 -32t-32.5 -13h-67q-101 0 -101 113v209q0 23 -10.5 34t-36.5 11h-4
q-22 0 -37.5 16t-15.5 38t15.5 37.5t37.5 15.5h4q26 0 36.5 11t10.5 34v210q0 113 101 113h67q19 0 32.5 -13.5t13.5 -32.5z" />
    <glyph glyph-name="bar" unicode="|" horiz-adv-x="286" 
d="M181 -160q0 -16 -11 -27t-27 -11t-27 11t-11 27v857q0 16 11 27t27 11t27 -11t11 -27v-857z" />
    <glyph glyph-name="braceright" unicode="}" horiz-adv-x="373" 
d="M25 640q0 19 13.5 32.5t32.5 13.5h67q101 0 101 -113v-210q0 -23 10.5 -34t36.5 -11h4q22 0 37.5 -15.5t15.5 -37.5t-15.5 -38t-37.5 -16h-4q-26 0 -36.5 -11t-10.5 -34v-209q0 -113 -101 -113h-67q-19 0 -32.5 13t-13.5 32q0 20 13.5 33t32.5 13h26q24 0 24 28v182
q0 54 28.5 86.5t85.5 33.5q-57 0 -85.5 31.5t-28.5 86.5v185q0 26 -24 26h-26q-19 0 -32.5 13.5t-13.5 32.5z" />
    <glyph glyph-name="asciitilde" unicode="~" horiz-adv-x="509" 
d="M474 290q0 -8 -4 -20q-16 -39 -49 -62.5t-74 -23.5q-35 0 -87 30q-47 28 -78 28q-33 0 -50 -30q-14 -27 -41 -27q-20 0 -33 12.5t-13 32.5q0 10 3 19q15 42 49 66t78 24q42 0 106 -34q39 -23 63 -23q27 0 42 25q15 28 43 28q20 0 32.5 -13t12.5 -32z" />
    <glyph glyph-name="nbspace" unicode="&#xa0;" horiz-adv-x="290" 
 />
    <glyph glyph-name="exclamdown" unicode="&#xa1;" horiz-adv-x="298" 
d="M178 214l31 -126v-223q0 -25 -17.5 -42.5t-42.5 -17.5t-42.5 17.5t-17.5 42.5v223l31 126q4 28 29 28t29 -28zM218 377q0 -28 -20 -48t-49 -20t-49 20t-20 48q0 29 20 49t49 20t49 -20t20 -49z" />
    <glyph glyph-name="cent" unicode="&#xa2;" horiz-adv-x="547" 
d="M257 34v74q-86 15 -136.5 77t-50.5 148t50.5 148t136.5 77v74q0 19 13.5 32.5t32.5 13.5t32.5 -13.5t13.5 -32.5v-74q71 -11 111 -55q17 -19 17 -41q0 -20 -13 -33t-34 -13t-37 12q-43 32 -86 32q-55 0 -86 -37t-31 -90t31 -90t86 -37q43 0 86 32q16 12 37 12t34 -13
t13 -33q0 -22 -17 -41q-40 -43 -111 -56v-73q0 -19 -13.5 -32.5t-32.5 -13.5t-32.5 13.5t-13.5 32.5z" />
    <glyph glyph-name="sterling" unicode="&#xa3;" horiz-adv-x="663" 
d="M338 280v-180h210q21 0 36 -14t15 -36t-15 -36t-36 -14h-442q-21 0 -36 14t-15 36t15 36t36 14h112v180h-102q-21 0 -36 14t-15 36t15 36t36 14h102v71q0 108 56 167.5t170 59.5q68 0 131 -27q38 -16 38 -49q0 -22 -14.5 -36.5t-39.5 -14.5q-7 0 -21 4q-46 15 -92 15
q-108 0 -108 -109v-81h174q21 0 36 -14t15 -36t-15 -36t-36 -14h-174z" />
    <glyph glyph-name="currency" unicode="&#xa4;" horiz-adv-x="640" 
d="M542 333q0 -69 -36 -125l61 -60q13 -15 13 -31q0 -18 -12.5 -31.5t-32.5 -13.5q-18 0 -31 13l-61 61q-54 -35 -123 -35q-68 0 -124 35l-60 -61q-13 -13 -31 -13q-20 0 -32.5 13.5t-12.5 31.5q0 16 13 31l61 60q-36 56 -36 125t36 124l-61 61q-13 15 -13 31
q0 18 12.5 31.5t32.5 13.5q18 0 31 -13l60 -61q56 35 124 35q69 0 123 -35l61 61q13 13 31 13q20 0 32.5 -13.5t12.5 -31.5q0 -16 -13 -31l-61 -61q36 -55 36 -124zM428 333q0 51 -29.5 86t-78.5 35t-78.5 -35t-29.5 -86t29.5 -86t78.5 -35t78.5 35t29.5 86z" />
    <glyph glyph-name="yen" unicode="&#xa5;" horiz-adv-x="610" 
d="M305 391l158 258q18 25 47 25q22 0 38.5 -13.5t16.5 -36.5q0 -17 -11 -34l-127 -199h76q15 0 25.5 -10.5t10.5 -25.5t-10.5 -25.5t-25.5 -10.5h-122l-16 -26v-42h138q15 0 25.5 -10.5t10.5 -25.5t-10.5 -25.5t-25.5 -10.5h-138v-125q0 -26 -17 -44t-43 -18t-43 18t-17 44
v125h-138q-15 0 -25.5 10.5t-10.5 25.5t10.5 25.5t25.5 10.5h138v42l-17 26h-121q-15 0 -25.5 10.5t-10.5 25.5t10.5 25.5t25.5 10.5h75l-126 199q-11 17 -11 34q0 23 16 36.5t39 13.5q29 0 47 -25z" />
    <glyph glyph-name="brokenbar" unicode="&#xa6;" horiz-adv-x="285" 
d="M180 344q0 -16 -11 -27t-27 -11t-26.5 11t-10.5 27v353q0 16 10.5 27t26.5 11t27 -11t11 -27v-353zM180 -160q0 -16 -11 -27t-27 -11t-26.5 11t-10.5 27v354q0 16 10.5 26.5t26.5 10.5t27 -10.5t11 -26.5v-354z" />
    <glyph glyph-name="section" unicode="&#xa7;" horiz-adv-x="617" 
d="M557 259q0 -75 -75 -120q36 -37 36 -94q0 -66 -56.5 -110.5t-155.5 -44.5q-48 0 -100.5 15t-88.5 38q-32 20 -32 54q0 18 12.5 30.5t33.5 12.5t56 -20q56 -32 125 -32q86 0 86 52q0 29 -31.5 47.5t-116.5 48.5q-107 39 -146 76t-39 99q0 73 75 117q-36 39 -36 99
q0 68 55.5 109.5t156.5 41.5q103 0 174 -45q33 -21 33 -52q0 -18 -13 -31.5t-34 -13.5q-10 0 -18.5 2.5t-21 9t-16.5 8.5q-52 24 -113 24q-36 0 -59.5 -13t-23.5 -39q0 -33 28 -49.5t117 -49.5q112 -40 150 -72.5t38 -97.5zM302 342q-50 16 -81 31q-39 -19 -39 -52
q0 -31 25.5 -47t112.5 -48q53 -20 80 -33q40 25 40 56q0 30 -27.5 48t-110.5 45z" />
    <glyph glyph-name="dieresis" unicode="&#xa8;" horiz-adv-x="430" 
d="M370 558q0 -25 -18 -42.5t-43 -17.5t-42.5 17.5t-17.5 42.5t17.5 43t42.5 18t43 -17.5t18 -43.5zM181 558q0 -25 -17.5 -42.5t-42.5 -17.5t-43 17.5t-18 42.5q0 26 18 43.5t43 17.5t42.5 -18t17.5 -43z" />
    <glyph glyph-name="copyright" unicode="&#xa9;" horiz-adv-x="781" 
d="M736 333q0 -146 -98.5 -245.5t-246.5 -99.5t-247 99.5t-99 245.5t99 245.5t247 99.5t246.5 -99.5t98.5 -245.5zM671 333q0 124 -79 204.5t-201 80.5t-201.5 -80.5t-79.5 -204.5t79.5 -204.5t201.5 -80.5t201 80.5t79 204.5zM486 411q-42 35 -82 35q-47 0 -76.5 -31.5
t-29.5 -81.5t29.5 -81.5t76.5 -31.5q40 0 82 35q24 20 43.5 1t0.5 -41q-23 -27 -57.5 -41.5t-68.5 -14.5q-78 0 -126 48.5t-48 125.5t48 125.5t126 48.5q34 0 68.5 -14.5t57.5 -41.5q19 -22 -0.5 -41t-43.5 1z" />
    <glyph glyph-name="ordfeminine" unicode="&#xaa;" horiz-adv-x="391" 
d="M250 415v1q-26 -44 -86 -44q-47 0 -75.5 26t-28.5 66q0 44 30 67.5t78 23.5q53 0 81 -31v27q0 30 -15.5 44.5t-52.5 14.5q-23 0 -48.5 -7.5t-31.5 -7.5q-14 0 -24 9.5t-10 23.5q0 28 41 39t80 11q68 0 104.5 -32.5t36.5 -94.5v-136q0 -17 -10.5 -28.5t-28.5 -11.5
q-17 0 -28.5 11.5t-11.5 28.5zM249 464q0 18 -16 28t-40 10q-25 0 -39.5 -10.5t-14.5 -27.5q0 -18 15 -28t39 -10t40 11t16 27z" />
    <glyph glyph-name="guillemotleft" unicode="&#xab;" horiz-adv-x="593" 
d="M288 83q0 -20 -14.5 -34t-34.5 -14q-18 0 -31 13l-143 133q-15 12 -15 32q0 21 15 35l142 131q16 14 32 14q20 0 34 -14t14 -34q0 -21 -15 -34l-106 -98l107 -98q15 -14 15 -32zM528 83q0 -20 -14.5 -34t-34.5 -14q-18 0 -31 13l-143 133q-15 12 -15 32q0 21 15 35
l142 131q16 14 32 14q20 0 34 -14t14 -34q0 -21 -15 -34l-106 -98l107 -98q15 -14 15 -32z" />
    <glyph glyph-name="logicalnot" unicode="&#xac;" horiz-adv-x="600" 
d="M462 81q-22 0 -37.5 15.5t-15.5 37.5v124h-296q-20 0 -34 14t-14 34t14 34t34 14h354q19 0 33.5 -14t14.5 -34v-172q0 -22 -15.5 -37.5t-37.5 -15.5z" />
    <glyph glyph-name="registered" unicode="&#xae;" horiz-adv-x="402" 
d="M367 511q0 -71 -44.5 -118t-120.5 -47t-121.5 47t-45.5 118t45.5 119t121.5 48t120.5 -48t44.5 -119zM328 511q0 55 -33.5 93t-92.5 38q-60 0 -94 -38t-34 -93q0 -54 34 -91.5t94 -37.5t93 37t33 92zM178 496v-47q0 -15 -14 -15t-14 15v131q0 14 14 14h44q57 0 57 -49
q0 -33 -26 -43l27 -47q4 -7 0.5 -14t-12.5 -7q-7 0 -12 7l-31 55h-33zM212 569h-34v-48h34q25 0 25 24t-25 24z" />
    <glyph glyph-name="macron" unicode="&#xaf;" horiz-adv-x="386" 
d="M341 561q0 -15 -12 -27t-27 -12h-219q-15 0 -26.5 12t-11.5 27t11.5 26.5t26.5 11.5h219q15 0 27 -11.5t12 -26.5z" />
    <glyph glyph-name="degree" unicode="&#xb0;" horiz-adv-x="370" 
d="M185 418q-57 0 -93.5 37.5t-36.5 92.5q0 54 36.5 92t93.5 38t93.5 -38t36.5 -92q0 -55 -36.5 -92.5t-93.5 -37.5zM185 619q-31 0 -49 -20.5t-18 -50.5t18 -50.5t49 -20.5t49 20.5t18 50.5t-18 50.5t-49 20.5z" />
    <glyph glyph-name="plusminus" unicode="&#xb1;" horiz-adv-x="640" 
d="M555 345q0 -19 -14.5 -33.5t-33.5 -14.5h-134v-116q0 -22 -15.5 -37.5t-37.5 -15.5t-37.5 15.5t-15.5 37.5v116h-134q-20 0 -34 14t-14 34t14 34t34 14h134v112q0 22 15.5 37.5t37.5 15.5t37.5 -15.5t15.5 -37.5v-112h134q19 0 33.5 -14.5t14.5 -33.5zM133 0
q-20 0 -34 13t-14 32q0 20 13.5 32.5t34.5 12.5h374q20 0 34 -13t14 -32t-14 -32t-34 -13h-374z" />
    <glyph glyph-name="twosuperior" unicode="&#xb2;" horiz-adv-x="471" 
d="M282 417q-8 -4 -23.5 -12t-22 -12t-18 -10.5t-16.5 -10t-11.5 -9t-10 -11t-4.5 -10.5h192q16 0 27 -11t11 -27t-11 -27t-27 -11h-249q-17 0 -28 11.5t-11 27.5q0 44 21.5 77.5t46.5 50.5t67 38q40 20 57 29.5t32 24.5t15 32q0 42 -73 42q-37 0 -91 -22q-24 -10 -41.5 1.5
t-17.5 31.5q0 27 31 41q57 27 122 27q70 0 111.5 -30.5t41.5 -87.5q0 -50 -29 -80t-91 -63z" />
    <glyph glyph-name="threesuperior" unicode="&#xb3;" horiz-adv-x="454" 
d="M143 477q0 16 11 26t27 10h36q70 0 70 49q0 20 -15 32t-41 12q-38 0 -77 -16q-11 -4 -22 -4q-35 0 -35 33q0 27 30 38q52 21 108 21q63 0 99.5 -29t36.5 -80q0 -62 -66 -90q84 -19 84 -94q0 -55 -45 -90t-119 -35q-93 0 -154 53q-16 15 -16 31q0 15 10 25.5t26 10.5
q14 0 27 -10q47 -38 106 -38q37 0 59 15.5t22 41.5q0 52 -90 52h-34q-16 0 -27 10t-11 26z" />
    <glyph glyph-name="acute" unicode="&#xb4;" horiz-adv-x="316" 
d="M200 666q20 0 33 -13t13 -34q0 -14 -11 -29l-58 -78q-14 -19 -39 -19q-18 0 -33 14t-15 32q0 16 12 30l60 78q14 19 38 19z" />
    <glyph glyph-name="mu" unicode="&#xb5;" horiz-adv-x="560" 
d="M185 200q0 -46 23 -75t68 -29q47 0 70.5 30t23.5 74v182q0 25 17.5 42.5t42.5 17.5t42.5 -17.5t17.5 -42.5v-329q0 -28 -17 -44.5t-43 -16.5t-43 16.5t-17 44.5v8q-40 -73 -129 -73q-29 0 -56 8v-131q0 -25 -17.5 -42.5t-42.5 -17.5t-42.5 17.5t-17.5 42.5v517
q0 25 17.5 42.5t42.5 17.5t42.5 -17.5t17.5 -42.5v-182z" />
    <glyph glyph-name="paragraph" unicode="&#xb6;" horiz-adv-x="585" 
d="M45 468q0 85 57.5 141.5t140.5 56.5h215q18 0 30 -12t12 -30v-590q0 -18 -12 -30t-30 -12t-30 12t-12 30v556h-89v-743q0 -18 -12 -30t-30 -12t-30 12t-12 30v423q-83 0 -140.5 56.5t-57.5 141.5z" />
    <glyph glyph-name="periodcentered" unicode="&#xb7;" horiz-adv-x="257" 
d="M197 292q0 -28 -20.5 -48.5t-48.5 -20.5t-48 20t-20 49q0 28 20 48t48 20q29 0 49 -20t20 -48z" />
    <glyph glyph-name="cedilla" unicode="&#xb8;" horiz-adv-x="304" 
d="M264 -119q0 -33 -29.5 -54.5t-86.5 -21.5q-98 0 -98 38q0 12 6.5 19.5t17.5 7.5q10 0 31 -5.5t41 -5.5q41 0 41 24q0 22 -38 22q-8 0 -21.5 -2.5t-21.5 -2.5q-10 -1 -17 5.5t-7 16.5t29 78h58l-21 -54q11 4 27 4q89 0 89 -69z" />
    <glyph glyph-name="onesuperior" unicode="&#xb9;" horiz-adv-x="364" 
d="M180 306v275l-61 -18q-24 -7 -39 5t-15 31q0 30 33 40l103 31q12 4 21 4q18 0 30 -11.5t12 -31.5v-325q0 -17 -12.5 -29.5t-29.5 -12.5t-29.5 12.5t-12.5 29.5z" />
    <glyph glyph-name="ordmasculine" unicode="&#xba;" horiz-adv-x="396" 
d="M351 525q0 -64 -43.5 -108.5t-109.5 -44.5t-109.5 44.5t-43.5 108.5t43.5 108.5t109.5 44.5t109.5 -44.5t43.5 -108.5zM272 525q0 35 -20.5 59.5t-53.5 24.5t-53.5 -24.5t-20.5 -59.5t20.5 -59.5t53.5 -24.5t53.5 24.5t20.5 59.5z" />
    <glyph glyph-name="guillemotright" unicode="&#xbb;" horiz-adv-x="593" 
d="M305 83q0 19 15 32l107 98l-106 98q-15 13 -15 34q0 20 14 34t34 14q16 0 32 -14l142 -131q15 -14 15 -35q0 -20 -15 -32l-143 -133q-13 -13 -31 -13q-20 0 -34.5 14t-14.5 34zM65 83q0 19 15 32l107 98l-106 98q-15 13 -15 34q0 20 14 34t34 14q16 0 32 -14l142 -131
q15 -14 15 -35q0 -20 -15 -32l-143 -133q-13 -13 -31 -13q-20 0 -34.5 14t-14.5 34z" />
    <glyph glyph-name="onequarter" unicode="&#xbc;" horiz-adv-x="893" 
d="M800 104h-40v-67q0 -17 -11.5 -29t-29.5 -12t-29 12t-11 29v67h-181q-15 0 -26 9t-11 23q0 17 12 30l212 226q16 16 36 16q39 0 39 -43v-195h40q38 0 38 -32q0 -15 -10 -24.5t-28 -9.5zM563 170h116v121zM662 619l-407 -610q-15 -21 -35 -21q-16 0 -28 10t-12 25
q0 9 8 22l408 613q14 20 37 20q15 0 26.5 -9.5t11.5 -24.5q0 -12 -9 -25zM190 306v275l-61 -18q-24 -7 -39 5t-15 31q0 30 33 40l103 31q12 4 21 4q18 0 30 -11.5t12 -31.5v-325q0 -17 -12.5 -29.5t-29.5 -12.5t-29.5 12.5t-12.5 29.5z" />
    <glyph glyph-name="onehalf" unicode="&#xbd;" horiz-adv-x="941" 
d="M662 619l-407 -610q-15 -21 -35 -21q-16 0 -28 10t-12 25q0 9 8 22l408 613q14 20 37 20q15 0 26.5 -9.5t11.5 -24.5q0 -12 -9 -25zM190 306v275l-61 -18q-24 -7 -39 5t-15 31q0 30 33 40l103 31q12 4 21 4q18 0 30 -11.5t12 -31.5v-325q0 -17 -12.5 -29.5t-29.5 -12.5
t-29.5 12.5t-12.5 29.5zM752 151q-8 -4 -23.5 -12t-22 -12t-18 -10.5t-16.5 -10t-11.5 -9t-10 -11t-4.5 -10.5h192q16 0 27 -11t11 -27t-11 -27t-27 -11h-249q-17 0 -28 11.5t-11 27.5q0 44 21.5 77.5t46.5 50.5t67 38q40 20 57 29.5t32 24.5t15 32q0 42 -73 42
q-37 0 -91 -22q-24 -10 -41.5 1.5t-17.5 31.5q0 27 31 41q57 27 122 27q70 0 111.5 -30.5t41.5 -87.5q0 -50 -29 -80t-91 -63z" />
    <glyph glyph-name="threequarters" unicode="&#xbe;" horiz-adv-x="986" 
d="M893 104h-40v-67q0 -17 -11.5 -29t-29.5 -12t-29 12t-11 29v67h-181q-15 0 -26 9t-11 23q0 17 12 30l212 226q16 16 36 16q39 0 39 -43v-195h40q38 0 38 -32q0 -15 -10 -24.5t-28 -9.5zM656 170h116v121zM755 619l-407 -610q-15 -21 -35 -21q-15 0 -27.5 10t-12.5 25
q0 9 8 22l408 613q14 20 37 20q15 0 26.5 -9.5t11.5 -24.5q0 -12 -9 -25zM148 477q0 16 11 26t27 10h36q70 0 70 49q0 20 -15 32t-41 12q-38 0 -77 -16q-11 -4 -22 -4q-35 0 -35 33q0 27 30 38q52 21 108 21q63 0 99.5 -29t36.5 -80q0 -62 -66 -90q84 -19 84 -94
q0 -55 -45 -90t-119 -35q-93 0 -154 53q-16 15 -16 31q0 15 10 25.5t26 10.5q14 0 27 -10q47 -38 106 -38q37 0 59 15.5t22 41.5q0 52 -90 52h-34q-16 0 -27 10t-11 26z" />
    <glyph glyph-name="questiondown" unicode="&#xbf;" horiz-adv-x="473" 
d="M30 -38q0 76 88 137q4 3 15.5 10.5t15.5 10.5t12.5 9.5t12 10t8.5 9.5t7 11.5t4 12.5t2 15v16q0 24 16.5 40t42.5 16q25 0 40.5 -16t15.5 -39v-20q0 -46 -18 -71.5t-62 -56.5q-56 -39 -68 -56q-12 -16 -12 -34q0 -54 96 -54q55 0 123 28q13 5 27 5q22 0 37 -14t15 -36
q0 -34 -47 -57q-69 -34 -160 -34q-94 0 -152.5 40t-58.5 117zM183 377q0 29 20.5 49t48.5 20t48 -20.5t20 -48.5t-20 -48t-48 -20q-29 0 -49 20t-20 48z" />
    <glyph glyph-name="Agrave" unicode="&#xc0;" horiz-adv-x="694" 
d="M552 25l-57 122h-296l-57 -122q-18 -33 -51 -33q-26 0 -42 17t-16 40q0 12 6 24l256 569q14 32 52 32t52 -32l256 -569q6 -12 6 -24q0 -23 -16 -40t-42 -17q-34 0 -51 33zM451 254l-104 254l-104 -254h208zM290 879q24 0 38 -19l47 -61q12 -14 12 -30q0 -18 -15 -32
t-33 -14q-25 0 -39 19l-45 61q-11 15 -11 29q0 21 13 34t33 13z" />
    <glyph glyph-name="Aacute" unicode="&#xc1;" horiz-adv-x="694" 
d="M552 25l-57 122h-296l-57 -122q-18 -33 -51 -33q-26 0 -42 17t-16 40q0 12 6 24l256 569q14 32 52 32t52 -32l256 -569q6 -12 6 -24q0 -23 -16 -40t-42 -17q-34 0 -51 33zM451 254l-104 254l-104 -254h208zM403 879q20 0 33 -13t13 -34q0 -14 -11 -29l-45 -61
q-14 -19 -39 -19q-18 0 -33 14t-15 32q0 16 12 30l47 61q14 19 38 19z" />
    <glyph glyph-name="Acircumflex" unicode="&#xc2;" horiz-adv-x="694" 
d="M552 25l-57 122h-296l-57 -122q-18 -33 -51 -33q-26 0 -42 17t-16 40q0 12 6 24l256 569q14 32 52 32t52 -32l256 -569q6 -12 6 -24q0 -23 -16 -40t-42 -17q-34 0 -51 33zM451 254l-104 254l-104 -254h208zM373 858l95 -73q14 -12 14 -29q0 -16 -12.5 -27.5t-27.5 -11.5
q-14 0 -26 9l-69 53l-69 -53q-12 -9 -26 -9q-15 0 -27.5 11.5t-12.5 27.5q0 17 14 29l95 73q14 11 26 11t26 -11z" />
    <glyph glyph-name="Atilde" unicode="&#xc3;" horiz-adv-x="694" 
d="M552 25l-57 122h-296l-57 -122q-18 -33 -51 -33q-26 0 -42 17t-16 40q0 12 6 24l256 569q14 32 52 32t52 -32l256 -569q6 -12 6 -24q0 -23 -16 -40t-42 -17q-34 0 -51 33zM451 254l-104 254l-104 -254h208zM503 810q0 -29 -28.5 -49.5t-62.5 -20.5q-20 0 -54 16t-50 16
q-20 0 -38.5 -16t-31.5 -16q-16 0 -27.5 10.5t-11.5 26.5q0 29 31.5 51.5t69.5 22.5q23 0 56.5 -15t47.5 -15t33 13t29 13q15 0 26 -10t11 -27z" />
    <glyph glyph-name="Adieresis" unicode="&#xc4;" horiz-adv-x="694" 
d="M552 25l-57 122h-296l-57 -122q-18 -33 -51 -33q-26 0 -42 17t-16 40q0 12 6 24l256 569q14 32 52 32t52 -32l256 -569q6 -12 6 -24q0 -23 -16 -40t-42 -17q-34 0 -51 33zM451 254l-104 254l-104 -254h208zM513 794q0 -25 -18 -42.5t-43 -17.5t-42.5 17.5t-17.5 42.5
t17.5 43t42.5 18q26 0 43.5 -17.5t17.5 -43.5zM303 794q0 -25 -17.5 -42.5t-42.5 -17.5t-43 17.5t-18 42.5q0 26 18 43.5t43 17.5t42.5 -18t17.5 -43z" />
    <glyph glyph-name="Aring" unicode="&#xc5;" horiz-adv-x="694" 
d="M432 708q0 -40 -34 -64l257 -571q6 -12 6 -24q0 -23 -16 -40t-42 -17q-35 0 -51 33l-57 122h-296l-57 -122q-18 -33 -51 -33q-26 0 -42 17t-16 40q0 12 6 24l257 571q-34 24 -34 64q0 35 24.5 57t60.5 22q37 0 61 -22t24 -57zM451 254l-104 254l-104 -254h208zM379 708
q0 14 -9.5 23t-22.5 9t-22 -8.5t-9 -23.5t9 -23.5t22 -8.5t22.5 9.5t9.5 22.5z" />
    <glyph glyph-name="AE" unicode="&#xc6;" horiz-adv-x="948" 
d="M599 0q-34 0 -51 33l-53 114h-296l-57 -122q-17 -33 -51 -33q-26 0 -42 17t-16 40q0 12 6 24l256 561q14 32 52 32h498q24 0 41 -16.5t17 -40.5t-17 -41t-41 -17h-408l71 -156h202q23 0 40 -17t17 -41t-17 -40.5t-40 -16.5h-150l75 -165h225q24 0 41 -17t17 -41
t-17 -40.5t-41 -16.5h-261zM451 254l-104 254l-104 -254h208z" />
    <glyph glyph-name="Ccedilla" unicode="&#xc7;" horiz-adv-x="667" 
d="M501 -119q0 -33 -29.5 -54.5t-86.5 -21.5q-98 0 -98 38q0 12 6.5 19.5t17.5 7.5q10 0 31 -5.5t41 -5.5q41 0 41 24q0 22 -38 22q-8 0 -21.5 -2.5t-21.5 -2.5q-10 -1 -17 5.5t-7 16.5q0 12 24 68q-135 12 -219 105t-84 238q0 155 95.5 250t244.5 95q62 0 122 -21.5
t101 -63.5q19 -19 19 -41q0 -23 -15 -39.5t-40 -16.5q-20 0 -40 14q-72 55 -147 55q-97 0 -157 -65.5t-60 -166.5t60 -166.5t157 -65.5q75 0 147 55q20 14 40 14q25 0 40 -16.5t15 -39.5q0 -22 -19 -41q-74 -77 -202 -84l-16 -43q11 4 27 4q89 0 89 -69z" />
    <glyph glyph-name="Egrave" unicode="&#xc8;" horiz-adv-x="605" 
d="M575 56q0 -24 -17 -40t-41 -16h-375q-26 0 -44 18t-18 43v544q0 25 18 43t44 18h360q24 0 41 -16t17 -40t-17 -40.5t-41 -16.5h-300v-159h165q23 0 40 -16.5t17 -40.5t-16.5 -40t-40.5 -16h-165v-168h315q24 0 41 -16.5t17 -40.5zM267 879q24 0 38 -19l47 -61
q12 -14 12 -30q0 -18 -15 -32t-33 -14q-25 0 -39 19l-45 61q-11 15 -11 29q0 21 13 34t33 13z" />
    <glyph glyph-name="Eacute" unicode="&#xc9;" horiz-adv-x="605" 
d="M575 56q0 -24 -17 -40t-41 -16h-375q-26 0 -44 18t-18 43v544q0 25 18 43t44 18h360q24 0 41 -16t17 -40t-17 -40.5t-41 -16.5h-300v-159h165q23 0 40 -16.5t17 -40.5t-16.5 -40t-40.5 -16h-165v-168h315q24 0 41 -16.5t17 -40.5zM369 879q20 0 33 -13t13 -34
q0 -14 -11 -29l-45 -61q-14 -19 -39 -19q-18 0 -33 14t-15 32q0 16 12 30l47 61q14 19 38 19z" />
    <glyph glyph-name="Ecircumflex" unicode="&#xca;" horiz-adv-x="605" 
d="M575 56q0 -24 -17 -40t-41 -16h-375q-26 0 -44 18t-18 43v544q0 25 18 43t44 18h360q24 0 41 -16t17 -40t-17 -40.5t-41 -16.5h-300v-159h165q23 0 40 -16.5t17 -40.5t-16.5 -40t-40.5 -16h-165v-168h315q24 0 41 -16.5t17 -40.5zM354 858l95 -73q14 -12 14 -29
q0 -16 -12.5 -27.5t-27.5 -11.5q-14 0 -26 9l-69 53l-69 -53q-12 -9 -26 -9q-15 0 -27.5 11.5t-12.5 27.5q0 17 14 29l95 73q14 11 26 11t26 -11z" />
    <glyph glyph-name="Edieresis" unicode="&#xcb;" horiz-adv-x="605" 
d="M575 56q0 -24 -17 -40t-41 -16h-375q-26 0 -44 18t-18 43v544q0 25 18 43t44 18h360q24 0 41 -16t17 -40t-17 -40.5t-41 -16.5h-300v-159h165q23 0 40 -16.5t17 -40.5t-16.5 -40t-40.5 -16h-165v-168h315q24 0 41 -16.5t17 -40.5zM491 794q0 -25 -18 -42.5t-43 -17.5
t-42.5 17.5t-17.5 42.5t17.5 43t42.5 18q26 0 43.5 -17.5t17.5 -43.5zM281 794q0 -25 -17.5 -42.5t-42.5 -17.5t-43 17.5t-18 42.5q0 26 18 43.5t43 17.5t42.5 -18t17.5 -43z" />
    <glyph glyph-name="Igrave" unicode="&#xcc;" horiz-adv-x="292" 
d="M207 54q0 -26 -17.5 -44t-42.5 -18t-43.5 18t-18.5 44v558q0 26 18.5 44t43.5 18t42.5 -18t17.5 -44v-558zM95 879q24 0 38 -19l47 -61q12 -14 12 -30q0 -18 -15 -32t-33 -14q-25 0 -39 19l-45 61q-11 15 -11 29q0 21 13 34t33 13z" />
    <glyph glyph-name="Iacute" unicode="&#xcd;" horiz-adv-x="292" 
d="M207 54q0 -26 -17.5 -44t-42.5 -18t-43.5 18t-18.5 44v558q0 26 18.5 44t43.5 18t42.5 -18t17.5 -44v-558zM196 879q20 0 33 -13t13 -34q0 -14 -11 -29l-45 -61q-14 -19 -39 -19q-18 0 -33 14t-15 32q0 16 12 30l47 61q14 19 38 19z" />
    <glyph glyph-name="Icircumflex" unicode="&#xce;" horiz-adv-x="292" 
d="M207 54q0 -26 -17.5 -44t-42.5 -18t-43.5 18t-18.5 44v558q0 26 18.5 44t43.5 18t42.5 -18t17.5 -44v-558zM172 858l95 -73q14 -12 14 -29q0 -16 -12.5 -27.5t-27.5 -11.5q-14 0 -26 9l-69 53l-69 -53q-12 -9 -26 -9q-15 0 -27.5 11.5t-12.5 27.5q0 17 14 29l95 73
q14 11 26 11t26 -11z" />
    <glyph glyph-name="Idieresis" unicode="&#xcf;" horiz-adv-x="292" 
d="M207 54q0 -26 -17.5 -44t-42.5 -18t-43.5 18t-18.5 44v558q0 26 18.5 44t43.5 18t42.5 -18t17.5 -44v-558zM312 794q0 -25 -18 -42.5t-43 -17.5t-42.5 17.5t-17.5 42.5t17.5 43t42.5 18t43 -17.5t18 -43.5zM102 794q0 -25 -17.5 -42.5t-42.5 -17.5t-43 17.5t-18 42.5
q0 26 17.5 43.5t43.5 17.5q25 0 42.5 -18t17.5 -43z" />
    <glyph glyph-name="Eth" unicode="&#xd0;" horiz-adv-x="746" 
d="M704 333q0 -143 -91.5 -238t-240.5 -95h-183q-25 0 -43.5 18t-18.5 44v219h-56q-22 0 -37.5 15.5t-15.5 36.5q0 22 15.5 37.5t37.5 15.5h56v219q0 25 18 43t44 18h183q149 0 240.5 -95t91.5 -238zM400 333q0 -21 -15.5 -36.5t-37.5 -15.5h-98v-168h117q101 0 158.5 60.5
t57.5 159.5t-57.5 159.5t-158.5 60.5h-117v-167h98q22 0 37.5 -15.5t15.5 -37.5z" />
    <glyph glyph-name="Ntilde" unicode="&#xd1;" horiz-adv-x="722" 
d="M642 49q0 -24 -16.5 -40.5t-41.5 -16.5q-28 0 -44 21l-345 436v-400q0 -24 -17 -40.5t-41 -16.5q-23 0 -40 17t-17 40v567q0 24 16.5 41t43.5 17q26 0 42 -21l345 -436v399q0 24 16 41t41 17t41.5 -17t16.5 -41v-567zM514 810q0 -29 -28.5 -49.5t-62.5 -20.5
q-20 0 -54 16t-50 16q-20 0 -38.5 -16t-31.5 -16q-16 0 -27.5 10.5t-11.5 26.5q0 29 31.5 51.5t69.5 22.5q23 0 56.5 -15t47.5 -15t33 13t29 13q15 0 26 -10t11 -27z" />
    <glyph glyph-name="Ograve" unicode="&#xd2;" horiz-adv-x="774" 
d="M729 333q0 -146 -98 -245.5t-244 -99.5t-244 99.5t-98 245.5t98 245.5t244 99.5t244 -99.5t98 -245.5zM606 333q0 99 -60 167t-159 68t-159 -68t-60 -167t60 -167t159 -68t159 68t60 167zM339 879q24 0 38 -19l47 -61q12 -14 12 -30q0 -18 -15 -32t-33 -14q-25 0 -39 19
l-45 61q-11 15 -11 29q0 21 13 34t33 13z" />
    <glyph glyph-name="Oacute" unicode="&#xd3;" horiz-adv-x="774" 
d="M729 333q0 -146 -98 -245.5t-244 -99.5t-244 99.5t-98 245.5t98 245.5t244 99.5t244 -99.5t98 -245.5zM606 333q0 99 -60 167t-159 68t-159 -68t-60 -167t60 -167t159 -68t159 68t60 167zM435 879q20 0 33 -13t13 -34q0 -14 -11 -29l-45 -61q-14 -19 -39 -19
q-18 0 -33 14t-15 32q0 16 12 30l47 61q14 19 38 19z" />
    <glyph glyph-name="Ocircumflex" unicode="&#xd4;" horiz-adv-x="774" 
d="M729 333q0 -146 -98 -245.5t-244 -99.5t-244 99.5t-98 245.5t98 245.5t244 99.5t244 -99.5t98 -245.5zM606 333q0 99 -60 167t-159 68t-159 -68t-60 -167t60 -167t159 -68t159 68t60 167zM413 858l95 -73q14 -12 14 -29q0 -16 -12.5 -27.5t-27.5 -11.5q-14 0 -26 9
l-69 53l-69 -53q-12 -9 -26 -9q-15 0 -27.5 11.5t-12.5 27.5q0 17 14 29l95 73q14 11 26 11t26 -11z" />
    <glyph glyph-name="Otilde" unicode="&#xd5;" horiz-adv-x="774" 
d="M729 333q0 -146 -98 -245.5t-244 -99.5t-244 99.5t-98 245.5t98 245.5t244 99.5t244 -99.5t98 -245.5zM606 333q0 99 -60 167t-159 68t-159 -68t-60 -167t60 -167t159 -68t159 68t60 167zM547 810q0 -29 -28.5 -49.5t-62.5 -20.5q-20 0 -54 16t-50 16q-20 0 -38.5 -16
t-31.5 -16q-16 0 -27.5 10.5t-11.5 26.5q0 29 31.5 51.5t69.5 22.5q23 0 56.5 -15t47.5 -15t33 13t29 13q15 0 26 -10t11 -27z" />
    <glyph glyph-name="Odieresis" unicode="&#xd6;" horiz-adv-x="774" 
d="M729 333q0 -146 -98 -245.5t-244 -99.5t-244 99.5t-98 245.5t98 245.5t244 99.5t244 -99.5t98 -245.5zM606 333q0 99 -60 167t-159 68t-159 -68t-60 -167t60 -167t159 -68t159 68t60 167zM553 794q0 -25 -18 -42.5t-43 -17.5t-42.5 17.5t-17.5 42.5t17.5 43t42.5 18
q26 0 43.5 -17.5t17.5 -43.5zM343 794q0 -25 -17.5 -42.5t-42.5 -17.5t-43 17.5t-18 42.5q0 26 18 43.5t43 17.5t42.5 -18t17.5 -43z" />
    <glyph glyph-name="multiply" unicode="&#xd7;" horiz-adv-x="490" 
d="M420 173q0 -19 -14 -33.5t-34 -14.5t-34 14l-93 93l-93 -93q-14 -14 -34 -14t-34 14.5t-14 33.5q0 20 14 34l93 93l-93 93q-14 14 -14 34t14 34.5t34 14.5t34 -14l93 -93l93 93q14 14 34 14t34 -14t14 -34q0 -21 -14 -35l-93 -93l93 -93q14 -14 14 -34z" />
    <glyph glyph-name="Oslash" unicode="&#xd8;" horiz-adv-x="774" 
d="M99 -52q-10 -10 -24 -10q-12 0 -21 8.5t-9 21.5t8 21l87 101q-95 98 -95 243q0 146 98 245.5t244 99.5q111 0 201 -63l88 103q9 10 23 10q13 0 21.5 -8.5t8.5 -21.5q0 -12 -7 -20l-88 -103q95 -100 95 -242q0 -146 -98 -245.5t-244 -99.5q-112 0 -201 62zM168 333
q0 -90 48 -153l298 348q-54 40 -127 40q-99 0 -159 -68t-60 -167zM606 333q0 89 -48 152l-298 -348q53 -39 127 -39q99 0 159 68t60 167z" />
    <glyph glyph-name="Ugrave" unicode="&#xd9;" horiz-adv-x="722" 
d="M524 256v356q0 26 18 44t43 18t43 -18t18 -44v-343q0 -130 -76 -205.5t-209 -75.5t-209 75.5t-76 205.5v343q0 26 18 44t43 18t43 -18t18 -44v-356q0 -72 42.5 -115t120.5 -43t120.5 43t42.5 115zM318 879q24 0 38 -19l47 -61q12 -14 12 -30q0 -18 -15 -32t-33 -14
q-25 0 -39 19l-45 61q-11 15 -11 29q0 21 13 34t33 13z" />
    <glyph glyph-name="Uacute" unicode="&#xda;" horiz-adv-x="722" 
d="M524 256v356q0 26 18 44t43 18t43 -18t18 -44v-343q0 -130 -76 -205.5t-209 -75.5t-209 75.5t-76 205.5v343q0 26 18 44t43 18t43 -18t18 -44v-356q0 -72 42.5 -115t120.5 -43t120.5 43t42.5 115zM413 879q20 0 33 -13t13 -34q0 -14 -11 -29l-45 -61q-14 -19 -39 -19
q-18 0 -33 14t-15 32q0 16 12 30l47 61q14 19 38 19z" />
    <glyph glyph-name="Ucircumflex" unicode="&#xdb;" horiz-adv-x="722" 
d="M524 256v356q0 26 18 44t43 18t43 -18t18 -44v-343q0 -130 -76 -205.5t-209 -75.5t-209 75.5t-76 205.5v343q0 26 18 44t43 18t43 -18t18 -44v-356q0 -72 42.5 -115t120.5 -43t120.5 43t42.5 115zM387 858l95 -73q14 -12 14 -29q0 -16 -12.5 -27.5t-27.5 -11.5
q-14 0 -26 9l-69 53l-69 -53q-12 -9 -26 -9q-15 0 -27.5 11.5t-12.5 27.5q0 17 14 29l95 73q14 11 26 11t26 -11z" />
    <glyph glyph-name="Udieresis" unicode="&#xdc;" horiz-adv-x="722" 
d="M524 256v356q0 26 18 44t43 18t43 -18t18 -44v-343q0 -130 -76 -205.5t-209 -75.5t-209 75.5t-76 205.5v343q0 26 18 44t43 18t43 -18t18 -44v-356q0 -72 42.5 -115t120.5 -43t120.5 43t42.5 115zM527 794q0 -25 -18 -42.5t-43 -17.5t-42.5 17.5t-17.5 42.5t17.5 43
t42.5 18q26 0 43.5 -17.5t17.5 -43.5zM317 794q0 -25 -17.5 -42.5t-42.5 -17.5t-43 17.5t-18 42.5q0 26 18 43.5t43 17.5t42.5 -18t17.5 -43z" />
    <glyph glyph-name="Yacute" unicode="&#xdd;" horiz-adv-x="588" 
d="M355 54q0 -26 -17.5 -44t-42.5 -18t-43.5 18t-18.5 44v239l-212 290q-11 17 -11 34q0 23 16.5 40t38.5 17q28 0 47 -25l182 -248l182 248q19 25 47 25q22 0 38.5 -17t16.5 -40q0 -19 -11 -34l-212 -290v-239zM336 879q20 0 33 -13t13 -34q0 -14 -11 -29l-45 -61
q-14 -19 -39 -19q-18 0 -33 14t-15 32q0 16 12 30l47 61q14 19 38 19z" />
    <glyph glyph-name="Thorn" unicode="&#xde;" horiz-adv-x="654" 
d="M630 333q0 -90 -59 -146.5t-178 -56.5h-191v-77q0 -25 -18 -43t-43 -18t-43 18t-18 43v559q0 26 18 44t44 18q25 0 42.5 -18t17.5 -44v-74h191q118 0 177.5 -57t59.5 -148zM507 333q0 37 -25 65t-72 28h-208v-183h208q47 0 72 26.5t25 63.5z" />
    <glyph glyph-name="germandbls" unicode="&#xdf;" horiz-adv-x="641" 
d="M294 677q98 0 152.5 -45t54.5 -116q0 -52 -42 -102q-6 -7 -16 -18.5t-14 -16.5t-10.5 -13t-9 -13t-4.5 -12t-2 -13q0 -18 16 -28.5t76 -33.5q110 -41 110 -137q0 -62 -44 -101.5t-139 -39.5q-80 0 -130 30q-31 20 -31 48q0 20 12 33.5t35 13.5q9 0 15.5 -2.5t15.5 -7.5
t13 -7q42 -20 75 -20q32 0 48 11.5t16 30.5q0 20 -16 35t-59 30q-74 27 -104 59.5t-30 78.5q0 21 11 44t20.5 36t29.5 35q42 48 42 74q0 32 -25 49.5t-67 17.5q-45 0 -73.5 -25t-28.5 -78v-422q0 -25 -17.5 -42.5t-42.5 -17.5t-43 17.5t-18 42.5v416q0 100 58.5 154.5
t165.5 54.5z" />
    <glyph glyph-name="agrave" unicode="&#xe0;" horiz-adv-x="518" 
d="M340 52v2q-41 -66 -129 -66q-71 0 -113.5 38.5t-42.5 98.5q0 66 45 101.5t117 35.5q78 0 121 -46v32q0 52 -22.5 74t-79.5 22q-32 0 -70.5 -11t-48.5 -11q-22 0 -36.5 14t-14.5 35q0 23 21 39t53 23t58 10t49 3q102 0 156.5 -48.5t54.5 -141.5v-204q0 -25 -16.5 -42.5
t-42.5 -17.5q-25 0 -42 17.5t-17 42.5zM338 125q0 23 -24.5 40t-59.5 17q-37 0 -58.5 -15.5t-21.5 -41.5t22.5 -41.5t57.5 -15.5t59.5 16.5t24.5 40.5zM201 666q24 0 38 -19l60 -78q12 -14 12 -30q0 -18 -15 -32t-33 -14q-25 0 -39 19l-58 78q-11 15 -11 29q0 21 13 34
t33 13z" />
    <glyph glyph-name="aacute" unicode="&#xe1;" horiz-adv-x="518" 
d="M340 52v2q-41 -66 -129 -66q-71 0 -113.5 38.5t-42.5 98.5q0 66 45 101.5t117 35.5q78 0 121 -46v32q0 52 -22.5 74t-79.5 22q-32 0 -70.5 -11t-48.5 -11q-22 0 -36.5 14t-14.5 35q0 23 21 39t53 23t58 10t49 3q102 0 156.5 -48.5t54.5 -141.5v-204q0 -25 -16.5 -42.5
t-42.5 -17.5q-25 0 -42 17.5t-17 42.5zM338 125q0 23 -24.5 40t-59.5 17q-37 0 -58.5 -15.5t-21.5 -41.5t22.5 -41.5t57.5 -15.5t59.5 16.5t24.5 40.5zM324 666q20 0 33 -13t13 -34q0 -14 -11 -29l-58 -78q-14 -19 -39 -19q-18 0 -33 14t-15 32q0 16 12 30l60 78
q14 19 38 19z" />
    <glyph glyph-name="acircumflex" unicode="&#xe2;" horiz-adv-x="518" 
d="M340 52v2q-41 -66 -129 -66q-71 0 -113.5 38.5t-42.5 98.5q0 66 45 101.5t117 35.5q78 0 121 -46v32q0 52 -22.5 74t-79.5 22q-32 0 -70.5 -11t-48.5 -11q-22 0 -36.5 14t-14.5 35q0 23 21 39t53 23t58 10t49 3q102 0 156.5 -48.5t54.5 -141.5v-204q0 -25 -16.5 -42.5
t-42.5 -17.5q-25 0 -42 17.5t-17 42.5zM338 125q0 23 -24.5 40t-59.5 17q-37 0 -58.5 -15.5t-21.5 -41.5t22.5 -41.5t57.5 -15.5t59.5 16.5t24.5 40.5zM239 649q11 10 26 10q16 0 27 -10l100 -88q13 -13 13 -30q0 -15 -12 -26.5t-27 -11.5q-14 0 -26 9l-75 66l-74 -66
q-12 -9 -26 -9q-15 0 -26.5 11t-11.5 27q0 18 12 30z" />
    <glyph glyph-name="atilde" unicode="&#xe3;" horiz-adv-x="518" 
d="M340 52v2q-41 -66 -129 -66q-71 0 -113.5 38.5t-42.5 98.5q0 66 45 101.5t117 35.5q78 0 121 -46v32q0 52 -22.5 74t-79.5 22q-32 0 -70.5 -11t-48.5 -11q-22 0 -36.5 14t-14.5 35q0 23 21 39t53 23t58 10t49 3q102 0 156.5 -48.5t54.5 -141.5v-204q0 -25 -16.5 -42.5
t-42.5 -17.5q-25 0 -42 17.5t-17 42.5zM338 125q0 23 -24.5 40t-59.5 17q-37 0 -58.5 -15.5t-21.5 -41.5t22.5 -41.5t57.5 -15.5t59.5 16.5t24.5 40.5zM415 569q0 -29 -28.5 -49.5t-62.5 -20.5q-20 0 -54 16t-50 16q-20 0 -38.5 -16t-31.5 -16q-16 0 -27.5 10.5t-11.5 26.5
q0 29 31.5 51.5t69.5 22.5q23 0 56.5 -15t47.5 -15t33 13t29 13q15 0 26 -10t11 -27z" />
    <glyph glyph-name="adieresis" unicode="&#xe4;" horiz-adv-x="518" 
d="M340 52v2q-41 -66 -129 -66q-71 0 -113.5 38.5t-42.5 98.5q0 66 45 101.5t117 35.5q78 0 121 -46v32q0 52 -22.5 74t-79.5 22q-32 0 -70.5 -11t-48.5 -11q-22 0 -36.5 14t-14.5 35q0 23 21 39t53 23t58 10t49 3q102 0 156.5 -48.5t54.5 -141.5v-204q0 -25 -16.5 -42.5
t-42.5 -17.5q-25 0 -42 17.5t-17 42.5zM338 125q0 23 -24.5 40t-59.5 17q-37 0 -58.5 -15.5t-21.5 -41.5t22.5 -41.5t57.5 -15.5t59.5 16.5t24.5 40.5zM424 558q0 -25 -18 -42.5t-43 -17.5t-42.5 17.5t-17.5 42.5t17.5 43t42.5 18t43 -17.5t18 -43.5zM235 558
q0 -25 -17.5 -42.5t-42.5 -17.5t-43 17.5t-18 42.5q0 26 18 43.5t43 17.5t42.5 -18t17.5 -43z" />
    <glyph glyph-name="aring" unicode="&#xe5;" horiz-adv-x="518" 
d="M340 52v2q-41 -66 -129 -66q-71 0 -113.5 38.5t-42.5 98.5q0 66 45 101.5t117 35.5q78 0 121 -46v32q0 52 -22.5 74t-79.5 22q-32 0 -70.5 -11t-48.5 -11q-22 0 -36.5 14t-14.5 35q0 23 21 39t53 23t58 10t49 3q102 0 156.5 -48.5t54.5 -141.5v-204q0 -25 -16.5 -42.5
t-42.5 -17.5q-25 0 -42 17.5t-17 42.5zM338 125q0 23 -24.5 40t-59.5 17q-37 0 -58.5 -15.5t-21.5 -41.5t22.5 -41.5t57.5 -15.5t59.5 16.5t24.5 40.5zM349 563q0 -35 -24.5 -58.5t-60.5 -23.5q-35 0 -60 24t-25 58q0 35 25 58.5t60 23.5q36 0 60.5 -23t24.5 -59zM302 563
q0 17 -10.5 27t-27.5 10q-16 0 -26.5 -10t-10.5 -27q0 -16 10 -26.5t27 -10.5q18 0 28 10.5t10 26.5z" />
    <glyph glyph-name="ae" unicode="&#xe6;" horiz-adv-x="817" 
d="M772 217q0 -16 -10.5 -27.5t-32.5 -11.5h-266q5 -42 32 -68.5t76 -26.5q55 0 92 29q25 20 44 20q22 0 35 -12.5t13 -31.5q0 -33 -43 -60q-63 -40 -146 -40q-55 0 -98.5 18t-62.5 49q-45 -36 -85.5 -51.5t-95.5 -15.5q-76 0 -122.5 38.5t-46.5 98.5q0 66 45 101.5
t117 35.5q78 0 121 -46v32q0 52 -22.5 74t-79.5 22q-32 0 -70.5 -11t-48.5 -11q-22 0 -36.5 14t-14.5 35q0 23 21 39t53 23t58 10t49 3q95 0 154 -62q57 62 163 62q93 0 150.5 -65t57.5 -164zM338 125q0 23 -24.5 40t-59.5 17q-37 0 -58.5 -15.5t-21.5 -41.5t22.5 -41.5
t57.5 -15.5t59.5 16.5t24.5 40.5zM658 263q-7 37 -31.5 62t-62.5 25q-41 0 -67.5 -24t-31.5 -63h193z" />
    <glyph glyph-name="ccedilla" unicode="&#xe7;" horiz-adv-x="482" 
d="M390 -119q0 -33 -29.5 -54.5t-86.5 -21.5q-98 0 -98 38q0 12 6.5 19.5t17.5 7.5q10 0 31 -5.5t41 -5.5q41 0 41 24q0 22 -38 22q-8 0 -21.5 -2.5t-21.5 -2.5q-10 -1 -17 5.5t-7 16.5q0 9 25 69q-89 13 -141 75.5t-52 150.5q0 98 65 163.5t171 65.5q101 0 154 -59
q17 -19 17 -41q0 -20 -13 -33t-34 -13q-20 0 -37 12q-43 32 -86 32q-55 0 -86 -37t-31 -90t31 -90t86 -37q43 0 86 32q17 12 37 12q21 0 34 -13t13 -33q0 -22 -17 -41q-48 -54 -140 -58l-16 -43q11 4 27 4q89 0 89 -69z" />
    <glyph glyph-name="egrave" unicode="&#xe8;" horiz-adv-x="519" 
d="M474 217q0 -16 -10.5 -27.5t-32.5 -11.5h-266q5 -42 32 -68.5t76 -26.5q55 0 92 29q25 20 44 20q22 0 35 -12.5t13 -31.5q0 -33 -43 -60q-63 -40 -146 -40q-108 0 -168 65t-60 164t64 164t162 65q93 0 150.5 -65t57.5 -164zM360 263q-7 37 -31.5 62t-62.5 25
q-41 0 -67.5 -24t-31.5 -63h193zM189 666q24 0 38 -19l60 -78q12 -14 12 -30q0 -18 -15 -32t-33 -14q-25 0 -39 19l-58 78q-11 15 -11 29q0 21 13 34t33 13z" />
    <glyph glyph-name="eacute" unicode="&#xe9;" horiz-adv-x="519" 
d="M474 217q0 -16 -10.5 -27.5t-32.5 -11.5h-266q5 -42 32 -68.5t76 -26.5q55 0 92 29q25 20 44 20q22 0 35 -12.5t13 -31.5q0 -33 -43 -60q-63 -40 -146 -40q-108 0 -168 65t-60 164t64 164t162 65q93 0 150.5 -65t57.5 -164zM360 263q-7 37 -31.5 62t-62.5 25
q-41 0 -67.5 -24t-31.5 -63h193zM323 666q20 0 33 -13t13 -34q0 -14 -11 -29l-58 -78q-14 -19 -39 -19q-18 0 -33 14t-15 32q0 16 12 30l60 78q14 19 38 19z" />
    <glyph glyph-name="ecircumflex" unicode="&#xea;" horiz-adv-x="519" 
d="M474 217q0 -16 -10.5 -27.5t-32.5 -11.5h-266q5 -42 32 -68.5t76 -26.5q55 0 92 29q25 20 44 20q22 0 35 -12.5t13 -31.5q0 -33 -43 -60q-63 -40 -146 -40q-108 0 -168 65t-60 164t64 164t162 65q93 0 150.5 -65t57.5 -164zM360 263q-7 37 -31.5 62t-62.5 25
q-41 0 -67.5 -24t-31.5 -63h193zM247 649q11 10 26 10q16 0 27 -10l100 -88q13 -13 13 -30q0 -15 -12 -26.5t-27 -11.5q-14 0 -26 9l-75 66l-74 -66q-12 -9 -26 -9q-15 0 -26.5 11t-11.5 27q0 18 12 30z" />
    <glyph glyph-name="edieresis" unicode="&#xeb;" horiz-adv-x="519" 
d="M474 217q0 -16 -10.5 -27.5t-32.5 -11.5h-266q5 -42 32 -68.5t76 -26.5q55 0 92 29q25 20 44 20q22 0 35 -12.5t13 -31.5q0 -33 -43 -60q-63 -40 -146 -40q-108 0 -168 65t-60 164t64 164t162 65q93 0 150.5 -65t57.5 -164zM360 263q-7 37 -31.5 62t-62.5 25
q-41 0 -67.5 -24t-31.5 -63h193zM423 558q0 -25 -18 -42.5t-43 -17.5t-42.5 17.5t-17.5 42.5t17.5 43t42.5 18q26 0 43.5 -17.5t17.5 -43.5zM234 558q0 -25 -17.5 -42.5t-42.5 -17.5t-43 17.5t-18 42.5q0 26 17.5 43.5t43.5 17.5q25 0 42.5 -18t17.5 -43z" />
    <glyph glyph-name="igrave" unicode="&#xec;" horiz-adv-x="260" 
d="M70 52v330q0 25 17.5 42.5t42.5 17.5t42.5 -17.5t17.5 -42.5v-330q0 -25 -17.5 -42.5t-42.5 -17.5t-42.5 17.5t-17.5 42.5zM59 666q24 0 38 -19l60 -78q12 -14 12 -30q0 -18 -15 -32t-33 -14q-25 0 -39 19l-58 78q-11 15 -11 29q0 21 13 34t33 13z" />
    <glyph glyph-name="iacute" unicode="&#xed;" horiz-adv-x="260" 
d="M70 52v330q0 25 17.5 42.5t42.5 17.5t42.5 -17.5t17.5 -42.5v-330q0 -25 -17.5 -42.5t-42.5 -17.5t-42.5 17.5t-17.5 42.5zM185 666q20 0 33 -13t13 -34q0 -14 -11 -29l-58 -78q-14 -19 -39 -19q-18 0 -33 14t-15 32q0 16 12 30l60 78q14 19 38 19z" />
    <glyph glyph-name="icircumflex" unicode="&#xee;" horiz-adv-x="260" 
d="M70 52v330q0 25 17.5 42.5t42.5 17.5t42.5 -17.5t17.5 -42.5v-330q0 -25 -17.5 -42.5t-42.5 -17.5t-42.5 17.5t-17.5 42.5zM103 649q11 10 26 10q16 0 27 -10l100 -88q13 -13 13 -30q0 -15 -12 -26.5t-27 -11.5q-14 0 -26 9l-75 66l-74 -66q-12 -9 -26 -9q-15 0 -26.5 11
t-11.5 27q0 18 12 30z" />
    <glyph glyph-name="idieresis" unicode="&#xef;" horiz-adv-x="260" 
d="M70 52v330q0 25 17.5 42.5t42.5 17.5t42.5 -17.5t17.5 -42.5v-330q0 -25 -17.5 -42.5t-42.5 -17.5t-42.5 17.5t-17.5 42.5zM285 558q0 -25 -18 -42.5t-43 -17.5t-42.5 17.5t-17.5 42.5t17.5 43t42.5 18q26 0 43.5 -17.5t17.5 -43.5zM96 558q0 -25 -17.5 -42.5
t-42.5 -17.5t-43 17.5t-18 42.5q0 26 17.5 43.5t43.5 17.5q25 0 42.5 -18t17.5 -43z" />
    <glyph glyph-name="eth" unicode="&#xf0;" horiz-adv-x="515" 
d="M346 659q17 0 28 -11.5t11 -27.5q0 -17 -12 -29l-29 -29q136 -149 136 -343q0 -95 -57 -163t-162 -68q-100 0 -160.5 62t-60.5 151q0 92 57 150.5t151 58.5q54 0 96 -29q-20 62 -71 110l-30 -30q-12 -12 -29 -12q-16 0 -27.5 11.5t-11.5 27.5q0 17 12 29l28 28
q-8 7 -29 23.5t-31 24.5q-16 13 -16 35q0 21 14 35.5t34 14.5q17 0 42 -17q31 -21 58 -44l30 30q12 12 29 12zM363 201q0 50 -28.5 80.5t-73.5 30.5q-47 0 -75.5 -30t-28.5 -81q0 -47 29 -79t75 -32q49 0 75.5 32t26.5 79z" />
    <glyph glyph-name="ntilde" unicode="&#xf1;" horiz-adv-x="560" 
d="M375 234q0 46 -23 75t-68 29q-47 0 -70.5 -30t-23.5 -74v-182q0 -25 -17.5 -42.5t-42.5 -17.5t-42.5 17.5t-17.5 42.5v329q0 28 17 44.5t43 16.5t43 -16.5t17 -44.5v-8q40 73 129 73q82 0 129 -57t47 -149v-188q0 -25 -17.5 -42.5t-42.5 -17.5t-42.5 17.5t-17.5 42.5v182
zM440 569q0 -29 -28.5 -49.5t-62.5 -20.5q-20 0 -54 16t-50 16q-20 0 -38.5 -16t-31.5 -16q-16 0 -27.5 10.5t-11.5 26.5q0 29 31.5 51.5t69.5 22.5q23 0 56.5 -15t47.5 -15t33 13t29 13q15 0 26 -10t11 -27z" />
    <glyph glyph-name="ograve" unicode="&#xf2;" horiz-adv-x="542" 
d="M500 217q0 -96 -64.5 -162.5t-164.5 -66.5t-164.5 66.5t-64.5 162.5t64.5 162.5t164.5 66.5t164.5 -66.5t64.5 -162.5zM382 217q0 52 -30.5 88.5t-80.5 36.5t-80.5 -36.5t-30.5 -88.5t30.5 -88.5t80.5 -36.5t80.5 36.5t30.5 88.5zM194 666q24 0 38 -19l60 -78
q12 -14 12 -30q0 -18 -15 -32t-33 -14q-25 0 -39 19l-58 78q-11 15 -11 29q0 21 13 34t33 13z" />
    <glyph glyph-name="oacute" unicode="&#xf3;" horiz-adv-x="542" 
d="M500 217q0 -96 -64.5 -162.5t-164.5 -66.5t-164.5 66.5t-64.5 162.5t64.5 162.5t164.5 66.5t164.5 -66.5t64.5 -162.5zM382 217q0 52 -30.5 88.5t-80.5 36.5t-80.5 -36.5t-30.5 -88.5t30.5 -88.5t80.5 -36.5t80.5 36.5t30.5 88.5zM325 666q20 0 33 -13t13 -34
q0 -14 -11 -29l-58 -78q-14 -19 -39 -19q-18 0 -33 14t-15 32q0 16 12 30l60 78q14 19 38 19z" />
    <glyph glyph-name="ocircumflex" unicode="&#xf4;" horiz-adv-x="542" 
d="M500 217q0 -96 -64.5 -162.5t-164.5 -66.5t-164.5 66.5t-64.5 162.5t64.5 162.5t164.5 66.5t164.5 -66.5t64.5 -162.5zM382 217q0 52 -30.5 88.5t-80.5 36.5t-80.5 -36.5t-30.5 -88.5t30.5 -88.5t80.5 -36.5t80.5 36.5t30.5 88.5zM244 649q11 10 26 10q16 0 27 -10
l100 -88q13 -13 13 -30q0 -15 -12 -26.5t-27 -11.5q-14 0 -26 9l-75 66l-74 -66q-12 -9 -26 -9q-15 0 -26.5 11t-11.5 27q0 18 12 30z" />
    <glyph glyph-name="otilde" unicode="&#xf5;" horiz-adv-x="542" 
d="M500 217q0 -96 -64.5 -162.5t-164.5 -66.5t-164.5 66.5t-64.5 162.5t64.5 162.5t164.5 66.5t164.5 -66.5t64.5 -162.5zM382 217q0 52 -30.5 88.5t-80.5 36.5t-80.5 -36.5t-30.5 -88.5t30.5 -88.5t80.5 -36.5t80.5 36.5t30.5 88.5zM433 569q0 -29 -28.5 -49.5t-62.5 -20.5
q-20 0 -54 16t-50 16q-20 0 -38.5 -16t-31.5 -16q-16 0 -27.5 10.5t-11.5 26.5q0 29 31.5 51.5t69.5 22.5q23 0 56.5 -15t47.5 -15t33 13t29 13q15 0 26 -10t11 -27z" />
    <glyph glyph-name="odieresis" unicode="&#xf6;" horiz-adv-x="542" 
d="M500 217q0 -96 -64.5 -162.5t-164.5 -66.5t-164.5 66.5t-64.5 162.5t64.5 162.5t164.5 66.5t164.5 -66.5t64.5 -162.5zM382 217q0 52 -30.5 88.5t-80.5 36.5t-80.5 -36.5t-30.5 -88.5t30.5 -88.5t80.5 -36.5t80.5 36.5t30.5 88.5zM426 558q0 -25 -18 -42.5t-43 -17.5
t-42.5 17.5t-17.5 42.5t17.5 43t42.5 18t43 -17.5t18 -43.5zM237 558q0 -25 -17.5 -42.5t-42.5 -17.5t-43 17.5t-18 42.5q0 26 18 43.5t43 17.5t42.5 -18t17.5 -43z" />
    <glyph glyph-name="divide" unicode="&#xf7;" horiz-adv-x="600" 
d="M482 267h-364q-20 0 -34 14t-14 34t14 34t34 14h364q20 0 34 -14.5t14 -33.5t-14 -33.5t-34 -14.5zM359 145q0 -24 -17.5 -41.5t-41.5 -17.5q-25 0 -42 17.5t-17 41.5q0 25 17 42t42 17q24 0 41.5 -17t17.5 -42zM359 485q0 -24 -17.5 -41.5t-41.5 -17.5q-25 0 -42 17.5
t-17 41.5q0 25 17 42t42 17q24 0 41.5 -17t17.5 -42z" />
    <glyph glyph-name="oslash" unicode="&#xf8;" horiz-adv-x="542" 
d="M85 -53q-7 -9 -18 -9q-9 0 -17 7.5t-8 17.5q0 7 5 14l61 76q-66 64 -66 164q0 96 64.5 162.5t164.5 66.5q69 0 125 -35l62 77q6 8 17 8t18 -7t7 -18q0 -9 -5 -15l-61 -76q66 -64 66 -163q0 -96 -64.5 -162.5t-164.5 -66.5q-69 0 -125 35zM160 217q0 -43 20 -75l148 184
q-26 16 -57 16q-50 0 -80.5 -36.5t-30.5 -88.5zM382 217q0 42 -20 74l-148 -184q24 -15 57 -15q50 0 80.5 36.5t30.5 88.5z" />
    <glyph glyph-name="ugrave" unicode="&#xf9;" horiz-adv-x="558" 
d="M183 200q0 -46 23 -75t68 -29q47 0 70.5 30t23.5 74v182q0 25 17.5 42.5t42.5 17.5t42.5 -17.5t17.5 -42.5v-329q0 -28 -17 -44.5t-43 -16.5t-43 16.5t-17 44.5v8q-40 -73 -129 -73q-82 0 -129 57t-47 149v188q0 25 17.5 42.5t42.5 17.5t42.5 -17.5t17.5 -42.5v-182z
M215 666q24 0 38 -19l60 -78q12 -14 12 -30q0 -18 -15 -32t-33 -14q-25 0 -39 19l-58 78q-11 15 -11 29q0 21 13 34t33 13z" />
    <glyph glyph-name="uacute" unicode="&#xfa;" horiz-adv-x="558" 
d="M183 200q0 -46 23 -75t68 -29q47 0 70.5 30t23.5 74v182q0 25 17.5 42.5t42.5 17.5t42.5 -17.5t17.5 -42.5v-329q0 -28 -17 -44.5t-43 -16.5t-43 16.5t-17 44.5v8q-40 -73 -129 -73q-82 0 -129 57t-47 149v188q0 25 17.5 42.5t42.5 17.5t42.5 -17.5t17.5 -42.5v-182z
M339 666q20 0 33 -13t13 -34q0 -14 -11 -29l-58 -78q-14 -19 -39 -19q-18 0 -33 14t-15 32q0 16 12 30l60 78q14 19 38 19z" />
    <glyph glyph-name="ucircumflex" unicode="&#xfb;" horiz-adv-x="558" 
d="M183 200q0 -46 23 -75t68 -29q47 0 70.5 30t23.5 74v182q0 25 17.5 42.5t42.5 17.5t42.5 -17.5t17.5 -42.5v-329q0 -28 -17 -44.5t-43 -16.5t-43 16.5t-17 44.5v8q-40 -73 -129 -73q-82 0 -129 57t-47 149v188q0 25 17.5 42.5t42.5 17.5t42.5 -17.5t17.5 -42.5v-182z
M250 649q11 10 26 10q16 0 27 -10l100 -88q13 -13 13 -30q0 -15 -12 -26.5t-27 -11.5q-14 0 -26 9l-75 66l-74 -66q-12 -9 -26 -9q-15 0 -26.5 11t-11.5 27q0 18 12 30z" />
    <glyph glyph-name="udieresis" unicode="&#xfc;" horiz-adv-x="558" 
d="M183 200q0 -46 23 -75t68 -29q47 0 70.5 30t23.5 74v182q0 25 17.5 42.5t42.5 17.5t42.5 -17.5t17.5 -42.5v-329q0 -28 -17 -44.5t-43 -16.5t-43 16.5t-17 44.5v8q-40 -73 -129 -73q-82 0 -129 57t-47 149v188q0 25 17.5 42.5t42.5 17.5t42.5 -17.5t17.5 -42.5v-182z
M433 558q0 -25 -18 -42.5t-43 -17.5t-42.5 17.5t-17.5 42.5t17.5 43t42.5 18q26 0 43.5 -17.5t17.5 -43.5zM244 558q0 -25 -17.5 -42.5t-42.5 -17.5t-43 17.5t-18 42.5q0 26 17.5 43.5t43.5 17.5q25 0 42.5 -18t17.5 -43z" />
    <glyph glyph-name="yacute" unicode="&#xfd;" horiz-adv-x="464" 
d="M322 61q-74 -182 -186 -249q-11 -7 -27 -7q-22 0 -38 15t-16 35q0 26 29 49q34 27 53.5 50t35.5 58l-143 353q-5 12 -5 22q0 23 15 39t39 16q37 0 50 -32l112 -288l94 288q10 32 50 32q23 0 38 -16t15 -39q0 -12 -4 -22q-47 -143 -112 -304zM297 666q20 0 33 -13t13 -34
q0 -14 -11 -29l-58 -78q-14 -19 -39 -19q-18 0 -33 14t-15 32q0 16 12 30l60 78q14 19 38 19z" />
    <glyph glyph-name="thorn" unicode="&#xfe;" horiz-adv-x="566" 
d="M70 -135v749q0 25 16 42.5t42 17.5t42 -18t16 -43v-238q47 71 137 71q95 0 149 -67.5t54 -161.5t-54.5 -161.5t-148.5 -67.5q-90 0 -133 71v-194q0 -25 -17.5 -42.5t-42.5 -17.5t-42.5 17.5t-17.5 42.5zM406 217q0 54 -29.5 90.5t-79.5 36.5t-78.5 -37t-28.5 -90t29 -90
t78 -37q50 0 79.5 36.5t29.5 90.5z" />
    <glyph glyph-name="ydieresis" unicode="&#xff;" horiz-adv-x="464" 
d="M322 61q-74 -182 -186 -249q-11 -7 -27 -7q-22 0 -38 15t-16 35q0 26 29 49q34 27 53.5 50t35.5 58l-143 353q-5 12 -5 22q0 23 15 39t39 16q37 0 50 -32l112 -288l94 288q10 32 50 32q23 0 38 -16t15 -39q0 -12 -4 -22q-47 -143 -112 -304zM389 558q0 -25 -18 -42.5
t-43 -17.5t-42.5 17.5t-17.5 42.5t17.5 43t42.5 18q26 0 43.5 -17.5t17.5 -43.5zM200 558q0 -25 -17.5 -42.5t-42.5 -17.5t-43 17.5t-18 42.5q0 26 17.5 43.5t43.5 17.5q25 0 42.5 -18t17.5 -43z" />
    <glyph glyph-name="Amacron" unicode="&#x100;" horiz-adv-x="694" 
d="M552 25l-57 122h-296l-57 -122q-18 -33 -51 -33q-26 0 -42 17t-16 40q0 12 6 24l256 569q14 32 52 32t52 -32l256 -569q6 -12 6 -24q0 -23 -16 -40t-42 -17q-34 0 -51 33zM451 254l-104 254l-104 -254h208zM464 743h-233q-17 0 -29 11.5t-12 29.5t12 29.5t29 11.5h233
q17 0 29 -11.5t12 -29.5t-12 -29.5t-29 -11.5z" />
    <glyph glyph-name="amacron" unicode="&#x101;" horiz-adv-x="518" 
d="M340 52v2q-41 -66 -129 -66q-71 0 -113.5 38.5t-42.5 98.5q0 66 45 101.5t117 35.5q78 0 121 -46v32q0 52 -22.5 74t-79.5 22q-32 0 -70.5 -11t-48.5 -11q-22 0 -36.5 14t-14.5 35q0 23 21 39t53 23t58 10t49 3q102 0 156.5 -48.5t54.5 -141.5v-204q0 -25 -16.5 -42.5
t-42.5 -17.5q-25 0 -42 17.5t-17 42.5zM338 125q0 23 -24.5 40t-59.5 17q-37 0 -58.5 -15.5t-21.5 -41.5t22.5 -41.5t57.5 -15.5t59.5 16.5t24.5 40.5zM407 561q0 -15 -12 -27t-27 -12h-219q-15 0 -26.5 12t-11.5 27t11.5 26.5t26.5 11.5h219q15 0 27 -11.5t12 -26.5z" />
    <glyph glyph-name="Abreve" unicode="&#x102;" horiz-adv-x="694" 
d="M552 25l-57 122h-296l-57 -122q-18 -33 -51 -33q-26 0 -42 17t-16 40q0 12 6 24l256 569q14 32 52 32t52 -32l256 -569q6 -12 6 -24q0 -23 -16 -40t-42 -17q-34 0 -51 33zM451 254l-104 254l-104 -254h208zM493 830q0 -53 -38.5 -82.5t-107.5 -29.5t-107 29.5t-38 84.5
q0 15 10.5 24.5t25.5 10.5q16 1 28 -9t12 -29q0 -44 69 -44t69 44q0 17 11 27t26 10q16 0 28 -9.5t12 -26.5z" />
    <glyph glyph-name="abreve" unicode="&#x103;" horiz-adv-x="518" 
d="M340 52v2q-41 -66 -129 -66q-71 0 -113.5 38.5t-42.5 98.5q0 66 45 101.5t117 35.5q78 0 121 -46v32q0 52 -22.5 74t-79.5 22q-32 0 -70.5 -11t-48.5 -11q-22 0 -36.5 14t-14.5 35q0 23 21 39t53 23t58 10t49 3q102 0 156.5 -48.5t54.5 -141.5v-204q0 -25 -16.5 -42.5
t-42.5 -17.5q-25 0 -42 17.5t-17 42.5zM338 125q0 23 -24.5 40t-59.5 17q-37 0 -58.5 -15.5t-21.5 -41.5t22.5 -41.5t57.5 -15.5t59.5 16.5t24.5 40.5zM408 609q0 -55 -36 -88.5t-102 -33.5q-67 0 -102 33.5t-35 90.5q0 15 10.5 24.5t25.5 10.5q16 1 28 -9t12 -29
q0 -24 15 -39t46 -15q61 0 61 54q0 17 11 27t26 10q16 0 28 -9.5t12 -26.5z" />
    <glyph glyph-name="Aogonek" unicode="&#x104;" horiz-adv-x="694" 
d="M652 -140q0 -21 -24 -33t-63 -12q-48 0 -72 20t-24 52q0 35 34 65.5t75 44.5q-14 7 -26 28l-57 122h-296l-57 -122q-18 -33 -51 -33q-26 0 -42 17t-16 40q0 12 6 24l256 569q14 32 52 32t52 -32l256 -569q6 -12 6 -24q0 -28 -32 -51q-70 -50 -70 -90q0 -24 30 -24
q8 0 19.5 2.5t17.5 2.5q12 0 19 -8.5t7 -20.5zM451 254l-104 254l-104 -254h208z" />
    <glyph glyph-name="aogonek" unicode="&#x105;" horiz-adv-x="518" 
d="M448 -140q0 -21 -24 -33t-63 -12q-48 0 -72 20t-24 52q0 35 34 65.5t75 44.5q-34 15 -34 55v2q-41 -66 -129 -66q-71 0 -113.5 38.5t-42.5 98.5q0 66 45 101.5t117 35.5q78 0 121 -46v32q0 52 -22.5 74t-79.5 22q-32 0 -70.5 -11t-48.5 -11q-22 0 -36.5 14t-14.5 35
q0 23 21 39t53 23t58 10t49 3q102 0 156.5 -48.5t54.5 -141.5v-201q0 -32 -34 -58q-23 -18 -35.5 -29.5t-23 -27.5t-10.5 -32q0 -24 30 -24q8 0 19.5 2.5t17.5 2.5q12 0 19 -8.5t7 -20.5zM338 125q0 23 -24.5 40t-59.5 17q-37 0 -58.5 -15.5t-21.5 -41.5t22.5 -41.5
t57.5 -15.5t59.5 16.5t24.5 40.5z" />
    <glyph glyph-name="Cacute" unicode="&#x106;" horiz-adv-x="667" 
d="M380 101q75 0 147 55q20 14 40 14q25 0 40 -16.5t15 -39.5q0 -22 -19 -41q-41 -42 -101 -63.5t-122 -21.5q-149 0 -244.5 95t-95.5 250t95.5 250t244.5 95q62 0 122 -21.5t101 -63.5q19 -19 19 -41q0 -23 -15 -39.5t-40 -16.5q-20 0 -40 14q-72 55 -147 55
q-97 0 -157 -65.5t-60 -166.5t60 -166.5t157 -65.5zM408 879q20 0 33 -13t13 -34q0 -14 -11 -29l-45 -61q-14 -19 -39 -19q-18 0 -33 14t-15 32q0 16 12 30l47 61q14 19 38 19z" />
    <glyph glyph-name="cacute" unicode="&#x107;" horiz-adv-x="482" 
d="M276 446q101 0 154 -59q17 -19 17 -41q0 -20 -13 -33t-34 -13q-20 0 -37 12q-43 32 -86 32q-55 0 -86 -37t-31 -90t31 -90t86 -37q43 0 86 32q17 12 37 12q21 0 34 -13t13 -33q0 -22 -17 -41q-53 -59 -154 -59q-106 0 -171 65.5t-65 163.5t65 163.5t171 65.5zM308 666
q20 0 33 -13t13 -34q0 -14 -11 -29l-58 -78q-14 -19 -39 -19q-18 0 -33 14t-15 32q0 16 12 30l60 78q14 19 38 19z" />
    <glyph glyph-name="Ccircumflex" unicode="&#x108;" horiz-adv-x="667" 
d="M380 101q75 0 147 55q20 14 40 14q25 0 40 -16.5t15 -39.5q0 -22 -19 -41q-41 -42 -101 -63.5t-122 -21.5q-149 0 -244.5 95t-95.5 250t95.5 250t244.5 95q62 0 122 -21.5t101 -63.5q19 -19 19 -41q0 -23 -15 -39.5t-40 -16.5q-20 0 -40 14q-72 55 -147 55
q-97 0 -157 -65.5t-60 -166.5t60 -166.5t157 -65.5zM394 858l95 -73q14 -12 14 -29q0 -16 -12.5 -27.5t-27.5 -11.5q-14 0 -26 9l-69 53l-69 -53q-12 -9 -26 -9q-15 0 -27.5 11.5t-12.5 27.5q0 17 14 29l95 73q14 11 26 11t26 -11z" />
    <glyph glyph-name="ccircumflex" unicode="&#x109;" horiz-adv-x="482" 
d="M276 446q101 0 154 -59q17 -19 17 -41q0 -20 -13 -33t-34 -13q-20 0 -37 12q-43 32 -86 32q-55 0 -86 -37t-31 -90t31 -90t86 -37q43 0 86 32q17 12 37 12q21 0 34 -13t13 -33q0 -22 -17 -41q-53 -59 -154 -59q-106 0 -171 65.5t-65 163.5t65 163.5t171 65.5zM242 649
q11 10 26 10q16 0 27 -10l100 -88q13 -13 13 -30q0 -15 -12 -26.5t-27 -11.5q-14 0 -26 9l-75 66l-74 -66q-12 -9 -26 -9q-15 0 -26.5 11t-11.5 27q0 18 12 30z" />
    <glyph glyph-name="Cdotaccent" unicode="&#x10a;" horiz-adv-x="667" 
d="M380 101q75 0 147 55q20 14 40 14q25 0 40 -16.5t15 -39.5q0 -22 -19 -41q-41 -42 -101 -63.5t-122 -21.5q-149 0 -244.5 95t-95.5 250t95.5 250t244.5 95q62 0 122 -21.5t101 -63.5q19 -19 19 -41q0 -23 -15 -39.5t-40 -16.5q-20 0 -40 14q-72 55 -147 55
q-97 0 -157 -65.5t-60 -166.5t60 -166.5t157 -65.5zM306 794q0 28 20 48t48 20t48 -20t20 -48t-20 -48t-48 -20t-48 20t-20 48z" />
    <glyph glyph-name="cdotaccent" unicode="&#x10b;" horiz-adv-x="482" 
d="M276 446q101 0 154 -59q17 -19 17 -41q0 -20 -13 -33t-34 -13q-20 0 -37 12q-43 32 -86 32q-55 0 -86 -37t-31 -90t31 -90t86 -37q43 0 86 32q17 12 37 12q21 0 34 -13t13 -33q0 -22 -17 -41q-53 -59 -154 -59q-106 0 -171 65.5t-65 163.5t65 163.5t171 65.5zM200 573
q0 29 20 48.5t48 19.5t48 -19.5t20 -48.5t-20 -48.5t-48 -19.5t-48 19.5t-20 48.5z" />
    <glyph glyph-name="Ccaron" unicode="&#x10c;" horiz-adv-x="667" 
d="M380 101q75 0 147 55q20 14 40 14q25 0 40 -16.5t15 -39.5q0 -22 -19 -41q-41 -42 -101 -63.5t-122 -21.5q-149 0 -244.5 95t-95.5 250t95.5 250t244.5 95q62 0 122 -21.5t101 -63.5q19 -19 19 -41q0 -23 -15 -39.5t-40 -16.5q-20 0 -40 14q-72 55 -147 55
q-97 0 -157 -65.5t-60 -166.5t60 -166.5t157 -65.5zM502 800l-95 -73q-14 -11 -26 -11t-26 11l-95 73q-14 12 -14 29q0 15 12.5 27t27.5 12q14 0 26 -9l69 -53l69 53q12 9 26 9q15 0 27.5 -12t12.5 -27q0 -17 -14 -29z" />
    <glyph glyph-name="ccaron" unicode="&#x10d;" horiz-adv-x="482" 
d="M276 446q101 0 154 -59q17 -19 17 -41q0 -20 -13 -33t-34 -13q-20 0 -37 12q-43 32 -86 32q-55 0 -86 -37t-31 -90t31 -90t86 -37q43 0 86 32q17 12 37 12q21 0 34 -13t13 -33q0 -22 -17 -41q-53 -59 -154 -59q-106 0 -171 65.5t-65 163.5t65 163.5t171 65.5zM241 494
l-102 88q-12 12 -12 30q0 16 11.5 27t26.5 11q14 0 26 -9l76 -66l77 66q12 9 26 9q15 0 27 -11.5t12 -26.5q0 -17 -13 -30l-102 -88q-11 -10 -27 -10q-15 0 -26 10z" />
    <glyph glyph-name="Dcaron" unicode="&#x10e;" horiz-adv-x="699" 
d="M657 333q0 -143 -91.5 -238t-240.5 -95h-183q-26 0 -44 18t-18 44v543q0 25 18 43t44 18h183q149 0 240.5 -95t91.5 -238zM535 333q0 99 -57.5 159.5t-158.5 60.5h-117v-440h117q101 0 158.5 60.5t57.5 159.5zM450 800l-95 -73q-14 -11 -26 -11t-26 11l-95 73
q-14 12 -14 29q0 15 12.5 27t27.5 12q14 0 26 -9l69 -53l69 53q12 9 26 9q15 0 27.5 -12t12.5 -27q0 -17 -14 -29z" />
    <glyph glyph-name="dcaron" unicode="&#x10f;" horiz-adv-x="723" 
d="M496 614v-562q0 -25 -16 -42.5t-42 -17.5t-42 18t-16 43v6q-47 -71 -137 -71q-95 0 -149 67.5t-54 161.5t54.5 161.5t148.5 67.5q90 0 133 -71v239q0 25 17.5 42.5t42.5 17.5t42.5 -17.5t17.5 -42.5zM160 217q0 -54 29.5 -90.5t79.5 -36.5t78.5 37t28.5 90t-29 90t-78 37
q-50 0 -79.5 -36.5t-29.5 -90.5zM724 593q0 -69 -24 -126q-16 -37 -52 -37q-25 0 -38.5 12.5t-13.5 29.5q0 9 9 38q13 46 13 87v21q0 25 14 40.5t39 15.5t39 -15.5t14 -40.5v-25z" />
    <glyph glyph-name="Dcroat" unicode="&#x110;" horiz-adv-x="811" 
d="M704 333q0 -143 -91.5 -238t-240.5 -95h-183q-25 0 -43.5 18t-18.5 44v219h-56q-22 0 -37.5 15.5t-15.5 36.5q0 22 15.5 37.5t37.5 15.5h56v219q0 25 18 43t44 18h183q149 0 240.5 -95t91.5 -238zM400 333q0 -21 -15.5 -36.5t-37.5 -15.5h-98v-168h117q101 0 158.5 60.5
t57.5 159.5t-57.5 159.5t-158.5 60.5h-117v-167h98q22 0 37.5 -15.5t15.5 -37.5z" />
    <glyph glyph-name="dcroat" unicode="&#x111;" horiz-adv-x="626" 
d="M259 489q-17 0 -29 12t-12 29t12 29t29 12h117v43q0 25 17.5 42.5t42.5 17.5t42.5 -17.5t17.5 -42.5v-43h67q17 0 29 -12t12 -29t-12 -29t-29 -12h-67v-437q0 -25 -16 -42.5t-42 -17.5t-42 18t-16 43v6q-47 -71 -137 -71q-95 0 -149 67.5t-54 161.5t54.5 161.5
t148.5 67.5q90 0 133 -71v114h-117zM160 217q0 -54 29.5 -90.5t79.5 -36.5t78.5 37t28.5 90t-29 90t-78 37q-50 0 -79.5 -36.5t-29.5 -90.5z" />
    <glyph glyph-name="Emacron" unicode="&#x112;" horiz-adv-x="605" 
d="M575 56q0 -24 -17 -40t-41 -16h-375q-26 0 -44 18t-18 43v544q0 25 18 43t44 18h360q24 0 41 -16t17 -40t-17 -40.5t-41 -16.5h-300v-159h165q23 0 40 -16.5t17 -40.5t-16.5 -40t-40.5 -16h-165v-168h315q24 0 41 -16.5t17 -40.5zM444 743h-233q-17 0 -29 11.5t-12 29.5
t12 29.5t29 11.5h233q17 0 29 -11.5t12 -29.5t-12 -29.5t-29 -11.5z" />
    <glyph glyph-name="emacron" unicode="&#x113;" horiz-adv-x="519" 
d="M474 217q0 -16 -10.5 -27.5t-32.5 -11.5h-266q5 -42 32 -68.5t76 -26.5q55 0 92 29q25 20 44 20q22 0 35 -12.5t13 -31.5q0 -33 -43 -60q-63 -40 -146 -40q-108 0 -168 65t-60 164t64 164t162 65q93 0 150.5 -65t57.5 -164zM360 263q-7 37 -31.5 62t-62.5 25
q-41 0 -67.5 -24t-31.5 -63h193zM414 561q0 -15 -12 -27t-27 -12h-219q-15 0 -26.5 12t-11.5 27t11.5 26.5t26.5 11.5h219q15 0 27 -11.5t12 -26.5z" />
    <glyph glyph-name="Ebreve" unicode="&#x114;" horiz-adv-x="605" 
d="M575 56q0 -24 -17 -40t-41 -16h-375q-26 0 -44 18t-18 43v544q0 25 18 43t44 18h360q24 0 41 -16t17 -40t-17 -40.5t-41 -16.5h-300v-159h165q23 0 40 -16.5t17 -40.5t-16.5 -40t-40.5 -16h-165v-168h315q24 0 41 -16.5t17 -40.5zM473 830q0 -53 -38.5 -82.5
t-107.5 -29.5t-107 29.5t-38 84.5q0 15 10.5 24.5t25.5 10.5q16 1 28 -9t12 -29q0 -44 69 -44t69 44q0 17 11 27t26 10q16 0 28 -9.5t12 -26.5z" />
    <glyph glyph-name="ebreve" unicode="&#x115;" horiz-adv-x="519" 
d="M474 217q0 -16 -10.5 -27.5t-32.5 -11.5h-266q5 -42 32 -68.5t76 -26.5q55 0 92 29q25 20 44 20q22 0 35 -12.5t13 -31.5q0 -33 -43 -60q-63 -40 -146 -40q-108 0 -168 65t-60 164t64 164t162 65q93 0 150.5 -65t57.5 -164zM360 263q-7 37 -31.5 62t-62.5 25
q-41 0 -67.5 -24t-31.5 -63h193zM409 609q0 -55 -36 -88.5t-102 -33.5q-67 0 -102 33.5t-35 90.5q0 15 10.5 24.5t25.5 10.5q16 1 28 -9t12 -29q0 -24 15 -39t46 -15q61 0 61 54q0 17 11 27t26 10q16 0 28 -9.5t12 -26.5z" />
    <glyph glyph-name="Edotaccent" unicode="&#x116;" horiz-adv-x="605" 
d="M575 56q0 -24 -17 -40t-41 -16h-375q-26 0 -44 18t-18 43v544q0 25 18 43t44 18h360q24 0 41 -16t17 -40t-17 -40.5t-41 -16.5h-300v-159h165q23 0 40 -16.5t17 -40.5t-16.5 -40t-40.5 -16h-165v-168h315q24 0 41 -16.5t17 -40.5zM261 794q0 28 19.5 48t48.5 20t48.5 -20
t19.5 -48t-19.5 -48t-48.5 -20t-48.5 20t-19.5 48z" />
    <glyph glyph-name="edotaccent" unicode="&#x117;" horiz-adv-x="519" 
d="M474 217q0 -16 -10.5 -27.5t-32.5 -11.5h-266q5 -42 32 -68.5t76 -26.5q55 0 92 29q25 20 44 20q22 0 35 -12.5t13 -31.5q0 -33 -43 -60q-63 -40 -146 -40q-108 0 -168 65t-60 164t64 164t162 65q93 0 150.5 -65t57.5 -164zM360 263q-7 37 -31.5 62t-62.5 25
q-41 0 -67.5 -24t-31.5 -63h193zM200 573q0 29 20 48.5t48 19.5t48 -19.5t20 -48.5t-20 -48.5t-48 -19.5t-48 19.5t-20 48.5z" />
    <glyph glyph-name="Eogonek" unicode="&#x118;" horiz-adv-x="605" 
d="M437 -140q0 -21 -24 -33t-63 -12q-48 0 -72 20t-24 52q0 37 38.5 69t79.5 44h-230q-26 0 -44 18t-18 43v544q0 25 18 43t44 18h360q24 0 41 -16t17 -40t-17 -40.5t-41 -16.5h-300v-159h165q23 0 40 -16.5t17 -40.5t-16.5 -40t-40.5 -16h-165v-168h315q24 0 41 -16.5
t17 -40.5t-17 -40t-41 -16h-99q-74 -49 -74 -92q0 -24 30 -24q8 0 19.5 2.5t17.5 2.5q12 0 19 -8.5t7 -20.5z" />
    <glyph glyph-name="eogonek" unicode="&#x119;" horiz-adv-x="519" 
d="M474 217q0 -16 -10.5 -27.5t-32.5 -11.5h-266q5 -42 32 -68.5t76 -26.5q55 0 92 29q25 20 44 20q22 0 35 -12.5t13 -31.5q0 -33 -43 -60q-2 -1 -6 -3.5t-7.5 -4.5t-7.5 -4q-102 -63 -102 -108q0 -24 30 -24q8 0 19.5 2.5t17.5 2.5q12 0 19 -8.5t7 -20.5q0 -21 -24 -33
t-63 -12q-96 0 -96 69q0 61 113 108q-20 -4 -46 -4q-108 0 -168 65t-60 164t64 164t162 65q93 0 150.5 -65t57.5 -164zM360 263q-7 37 -31.5 62t-62.5 25q-41 0 -67.5 -24t-31.5 -63h193z" />
    <glyph glyph-name="Ecaron" unicode="&#x11a;" horiz-adv-x="605" 
d="M575 56q0 -24 -17 -40t-41 -16h-375q-26 0 -44 18t-18 43v544q0 25 18 43t44 18h360q24 0 41 -16t17 -40t-17 -40.5t-41 -16.5h-300v-159h165q23 0 40 -16.5t17 -40.5t-16.5 -40t-40.5 -16h-165v-168h315q24 0 41 -16.5t17 -40.5zM451 800l-95 -73q-14 -11 -26 -11
t-26 11l-95 73q-14 12 -14 29q0 15 12.5 27t27.5 12q14 0 26 -9l69 -53l69 53q12 9 26 9q15 0 27.5 -12t12.5 -27q0 -17 -14 -29z" />
    <glyph glyph-name="ecaron" unicode="&#x11b;" horiz-adv-x="519" 
d="M474 217q0 -16 -10.5 -27.5t-32.5 -11.5h-266q5 -42 32 -68.5t76 -26.5q55 0 92 29q25 20 44 20q22 0 35 -12.5t13 -31.5q0 -33 -43 -60q-63 -40 -146 -40q-108 0 -168 65t-60 164t64 164t162 65q93 0 150.5 -65t57.5 -164zM360 263q-7 37 -31.5 62t-62.5 25
q-41 0 -67.5 -24t-31.5 -63h193zM244 494l-102 88q-12 12 -12 30q0 16 11.5 27t26.5 11q14 0 26 -9l76 -66l77 66q12 9 26 9q15 0 27 -11.5t12 -26.5q0 -17 -13 -30l-102 -88q-11 -10 -27 -10q-15 0 -26 10z" />
    <glyph glyph-name="Gcircumflex" unicode="&#x11c;" horiz-adv-x="719" 
d="M669 147q0 -21 -14 -39q-47 -58 -120.5 -89t-152.5 -31q-155 0 -248.5 99.5t-93.5 245.5q0 151 97 248t243 97q62 0 122 -21.5t101 -63.5q19 -19 19 -41q0 -23 -15 -39.5t-40 -16.5q-20 0 -40 14q-72 55 -147 55q-97 0 -157 -65.5t-60 -166.5q0 -105 58.5 -171.5
t160.5 -66.5t167 60v103h-130q-23 0 -39.5 16t-16.5 39q0 24 16.5 39.5t39.5 15.5h188q26 0 44 -18t18 -44v-159zM395 858l95 -73q14 -12 14 -29q0 -16 -12.5 -27.5t-27.5 -11.5q-14 0 -26 9l-69 53l-69 -53q-12 -9 -26 -9q-15 0 -27.5 11.5t-12.5 27.5q0 17 14 29l95 73
q14 11 26 11t26 -11z" />
    <glyph glyph-name="gcircumflex" unicode="&#x11d;" horiz-adv-x="566" 
d="M496 27q0 -222 -239 -222q-85 0 -157 37q-32 16 -32 48q0 44 48 44q16 0 58 -17q45 -17 85 -17q64 0 90.5 29t26.5 91v57q-43 -71 -133 -71q-95 0 -149 63.5t-54 156.5t53.5 156.5t149.5 63.5q90 0 137 -71v6q0 26 16 43.5t42 17.5t42 -17.5t16 -42.5v-355zM160 226
q0 -52 29 -85t80 -33q49 0 78 34.5t29 83.5q0 50 -28.5 84t-78.5 34q-51 0 -80 -33t-29 -85zM268 649q11 10 26 10q16 0 27 -10l100 -88q13 -13 13 -30q0 -15 -12 -26.5t-27 -11.5q-14 0 -26 9l-75 66l-74 -66q-12 -9 -26 -9q-15 0 -26.5 11t-11.5 27q0 18 12 30z" />
    <glyph glyph-name="Gbreve" unicode="&#x11e;" horiz-adv-x="719" 
d="M669 147q0 -21 -14 -39q-47 -58 -120.5 -89t-152.5 -31q-155 0 -248.5 99.5t-93.5 245.5q0 151 97 248t243 97q62 0 122 -21.5t101 -63.5q19 -19 19 -41q0 -23 -15 -39.5t-40 -16.5q-20 0 -40 14q-72 55 -147 55q-97 0 -157 -65.5t-60 -166.5q0 -105 58.5 -171.5
t160.5 -66.5t167 60v103h-130q-23 0 -39.5 16t-16.5 39q0 24 16.5 39.5t39.5 15.5h188q26 0 44 -18t18 -44v-159zM519 830q0 -53 -38.5 -82.5t-107.5 -29.5t-107 29.5t-38 84.5q0 15 10.5 24.5t25.5 10.5q16 1 28 -9t12 -29q0 -44 69 -44t69 44q0 17 11 27t26 10
q16 0 28 -9.5t12 -26.5z" />
    <glyph glyph-name="gbreve" unicode="&#x11f;" horiz-adv-x="566" 
d="M496 27q0 -222 -239 -222q-85 0 -157 37q-32 16 -32 48q0 44 48 44q16 0 58 -17q45 -17 85 -17q64 0 90.5 29t26.5 91v57q-43 -71 -133 -71q-95 0 -149 63.5t-54 156.5t53.5 156.5t149.5 63.5q90 0 137 -71v6q0 26 16 43.5t42 17.5t42 -17.5t16 -42.5v-355zM160 226
q0 -52 29 -85t80 -33q49 0 78 34.5t29 83.5q0 50 -28.5 84t-78.5 34q-51 0 -80 -33t-29 -85zM433 609q0 -55 -36 -88.5t-102 -33.5q-67 0 -102 33.5t-35 90.5q0 15 10.5 24.5t25.5 10.5q16 1 28 -9t12 -29q0 -24 15 -39t46 -15q61 0 61 54q0 17 11 27t26 10q16 0 28 -9.5
t12 -26.5z" />
    <glyph glyph-name="Gdotaccent" unicode="&#x120;" horiz-adv-x="719" 
d="M669 147q0 -21 -14 -39q-47 -58 -120.5 -89t-152.5 -31q-155 0 -248.5 99.5t-93.5 245.5q0 151 97 248t243 97q62 0 122 -21.5t101 -63.5q19 -19 19 -41q0 -23 -15 -39.5t-40 -16.5q-20 0 -40 14q-72 55 -147 55q-97 0 -157 -65.5t-60 -166.5q0 -105 58.5 -171.5
t160.5 -66.5t167 60v103h-130q-23 0 -39.5 16t-16.5 39q0 24 16.5 39.5t39.5 15.5h188q26 0 44 -18t18 -44v-159zM304 794q0 28 20 48t48 20t48 -20t20 -48t-20 -48t-48 -20t-48 20t-20 48z" />
    <glyph glyph-name="gdotaccent" unicode="&#x121;" horiz-adv-x="566" 
d="M496 27q0 -222 -239 -222q-85 0 -157 37q-32 16 -32 48q0 44 48 44q16 0 58 -17q45 -17 85 -17q64 0 90.5 29t26.5 91v57q-43 -71 -133 -71q-95 0 -149 63.5t-54 156.5t53.5 156.5t149.5 63.5q90 0 137 -71v6q0 26 16 43.5t42 17.5t42 -17.5t16 -42.5v-355zM160 226
q0 -52 29 -85t80 -33q49 0 78 34.5t29 83.5q0 50 -28.5 84t-78.5 34q-51 0 -80 -33t-29 -85zM208 573q0 29 20 48.5t48 19.5t48 -19.5t20 -48.5t-20 -48.5t-48 -19.5t-48 19.5t-20 48.5z" />
    <glyph glyph-name="Gcommaaccent" unicode="&#x122;" horiz-adv-x="719" 
d="M669 147q0 -21 -14 -39q-47 -58 -120.5 -89t-152.5 -31q-155 0 -248.5 99.5t-93.5 245.5q0 151 97 248t243 97q62 0 122 -21.5t101 -63.5q19 -19 19 -41q0 -23 -15 -39.5t-40 -16.5q-20 0 -40 14q-72 55 -147 55q-97 0 -157 -65.5t-60 -166.5q0 -105 58.5 -171.5
t160.5 -66.5t167 60v103h-130q-23 0 -39.5 16t-16.5 39q0 24 16.5 39.5t39.5 15.5h188q26 0 44 -18t18 -44v-159zM461 -131q0 -67 -24 -124q-16 -37 -52 -37q-25 0 -38.5 12.5t-13.5 29.5q0 9 9 38q13 46 13 85v11q0 25 14 40.5t39 15.5t39 -15.5t14 -40.5v-15z" />
    <glyph glyph-name="gcommaaccent" unicode="&#x123;" horiz-adv-x="566" 
d="M214 576q0 58 25 117q18 42 52 42q26 0 38 -13.5t12 -31.5q0 -15 -9 -38q-16 -42 -16 -80v-11q0 -25 -13 -40.5t-38 -15.5t-38 15t-13 41v15zM496 27q0 -222 -239 -222q-85 0 -157 37q-32 16 -32 48q0 44 48 44q16 0 58 -17q45 -17 85 -17q64 0 90.5 29t26.5 91v57
q-43 -71 -133 -71q-95 0 -149 63.5t-54 156.5t53.5 156.5t149.5 63.5q90 0 137 -71v6q0 26 16 43.5t42 17.5t42 -17.5t16 -42.5v-355zM160 226q0 -52 29 -85t80 -33q49 0 78 34.5t29 83.5q0 50 -28.5 84t-78.5 34q-51 0 -80 -33t-29 -85z" />
    <glyph glyph-name="Hcircumflex" unicode="&#x124;" horiz-adv-x="720" 
d="M640 54q0 -26 -18 -44t-43 -18t-43 18t-18 44v232h-316v-232q0 -26 -17.5 -44t-42.5 -18q-26 0 -44 18t-18 44v558q0 26 18 44t44 18q25 0 42.5 -18t17.5 -44v-212h316v212q0 26 18 44t43 18t43 -18t18 -44v-558zM386 858l95 -73q14 -12 14 -29q0 -16 -12.5 -27.5
t-27.5 -11.5q-14 0 -26 9l-69 53l-69 -53q-12 -9 -26 -9q-15 0 -27.5 11.5t-12.5 27.5q0 17 14 29l95 73q14 11 26 11t26 -11z" />
    <glyph glyph-name="hcircumflex" unicode="&#x125;" horiz-adv-x="560" 
d="M190 373q40 73 129 73q82 0 129 -57t47 -149v-188q0 -25 -17.5 -42.5t-42.5 -17.5t-42.5 17.5t-17.5 42.5v182q0 46 -23 75t-68 29q-47 0 -70.5 -30t-23.5 -74v-182q0 -25 -17.5 -42.5t-42.5 -17.5t-42.5 17.5t-17.5 42.5v562q0 25 17.5 42.5t42.5 17.5t42.5 -17.5
t17.5 -42.5v-241zM156 858l95 -73q14 -12 14 -29q0 -16 -12.5 -27.5t-27.5 -11.5q-14 0 -26 9l-69 53l-69 -53q-12 -9 -26 -9q-15 0 -27.5 11.5t-12.5 27.5q0 17 14 29l95 73q14 11 26 11t26 -11z" />
    <glyph glyph-name="Hbar" unicode="&#x126;" horiz-adv-x="772" 
d="M61 483q-18 0 -29.5 10t-11.5 27t11.5 27t29.5 10h45v55q0 26 18 44t44 18q25 0 42.5 -18t17.5 -44v-55h316v55q0 26 18 44t43 18t43 -18t18 -44v-55h45q18 0 29.5 -10t11.5 -27t-11.5 -27t-29.5 -10h-45v-429q0 -26 -18 -44t-43 -18t-43 18t-18 44v232h-316v-232
q0 -26 -17.5 -44t-42.5 -18q-26 0 -44 18t-18 44v429h-45zM228 400h316v83h-316v-83z" />
    <glyph glyph-name="hbar" unicode="&#x127;" horiz-adv-x="591" 
d="M56 494q-17 0 -29 11t-12 28t12 28t29 11h45v42q0 25 17.5 42.5t42.5 17.5t42.5 -17.5t17.5 -42.5v-42h99q17 0 29 -11t12 -28t-12 -28t-29 -11h-99v-121q40 73 129 73q82 0 129 -57t47 -149v-188q0 -25 -17.5 -42.5t-42.5 -17.5t-42.5 17.5t-17.5 42.5v182q0 46 -23 75
t-68 29q-47 0 -70.5 -30t-23.5 -74v-182q0 -25 -17.5 -42.5t-42.5 -17.5t-42.5 17.5t-17.5 42.5v442h-45z" />
    <glyph glyph-name="Itilde" unicode="&#x128;" horiz-adv-x="292" 
d="M207 54q0 -26 -17.5 -44t-42.5 -18t-43.5 18t-18.5 44v558q0 26 18.5 44t43.5 18t42.5 -18t17.5 -44v-558zM304 810q0 -29 -28.5 -49.5t-62.5 -20.5q-20 0 -54 16t-50 16q-20 0 -38.5 -16t-31.5 -16q-16 0 -27.5 10.5t-11.5 26.5q0 29 31.5 51.5t69.5 22.5q23 0 56.5 -15
t47.5 -15t33 13t29 13q15 0 26 -10t11 -27z" />
    <glyph glyph-name="itilde" unicode="&#x129;" horiz-adv-x="260" 
d="M70 52v330q0 25 17.5 42.5t42.5 17.5t42.5 -17.5t17.5 -42.5v-330q0 -25 -17.5 -42.5t-42.5 -17.5t-42.5 17.5t-17.5 42.5zM287 569q0 -29 -28.5 -49.5t-62.5 -20.5q-20 0 -54 16t-50 16q-20 0 -38.5 -16t-31.5 -16q-16 0 -27.5 10.5t-11.5 26.5q0 29 31.5 51.5
t69.5 22.5q23 0 56.5 -15t47.5 -15t33 13t29 13q15 0 26 -10t11 -27z" />
    <glyph glyph-name="Imacron" unicode="&#x12a;" horiz-adv-x="292" 
d="M207 54q0 -26 -17.5 -44t-42.5 -18t-43.5 18t-18.5 44v558q0 26 18.5 44t43.5 18t42.5 -18t17.5 -44v-558zM263 743h-233q-17 0 -29 11.5t-12 29.5t12 29.5t29 11.5h233q17 0 29 -11.5t12 -29.5t-12 -29.5t-29 -11.5z" />
    <glyph glyph-name="imacron" unicode="&#x12b;" horiz-adv-x="260" 
d="M70 52v330q0 25 17.5 42.5t42.5 17.5t42.5 -17.5t17.5 -42.5v-330q0 -25 -17.5 -42.5t-42.5 -17.5t-42.5 17.5t-17.5 42.5zM278 561q0 -15 -12 -27t-27 -12h-219q-15 0 -26.5 12t-11.5 27t11.5 26.5t26.5 11.5h219q15 0 27 -11.5t12 -26.5z" />
    <glyph glyph-name="Ibreve" unicode="&#x12c;" horiz-adv-x="292" 
d="M207 54q0 -26 -17.5 -44t-42.5 -18t-43.5 18t-18.5 44v558q0 26 18.5 44t43.5 18t42.5 -18t17.5 -44v-558zM292 830q0 -53 -38.5 -82.5t-107.5 -29.5t-107 29.5t-38 84.5q0 15 10.5 24.5t25.5 10.5q16 1 28 -9t12 -29q0 -44 69 -44t69 44q0 17 11 27t26 10q16 0 28 -9.5
t12 -26.5z" />
    <glyph glyph-name="ibreve" unicode="&#x12d;" horiz-adv-x="260" 
d="M70 52v330q0 25 17.5 42.5t42.5 17.5t42.5 -17.5t17.5 -42.5v-330q0 -25 -17.5 -42.5t-42.5 -17.5t-42.5 17.5t-17.5 42.5zM268 609q0 -55 -36 -88.5t-102 -33.5q-67 0 -102 33.5t-35 90.5q0 15 10.5 24.5t25.5 10.5q16 1 28 -9t12 -29q0 -24 15 -39t46 -15q61 0 61 54
q0 17 11 27t26 10q16 0 28 -9.5t12 -26.5z" />
    <glyph glyph-name="Iogonek" unicode="&#x12e;" horiz-adv-x="292" 
d="M226 -142q0 -43 -77 -43q-48 0 -72 20t-24 52q0 38 27.5 65.5t64.5 39.5q-25 1 -42.5 19t-17.5 43v558q0 26 18.5 44t43.5 18t42.5 -18t17.5 -44v-558q0 -21 -15 -42q-49 -64 -49 -104q0 -24 30 -24q6 0 15 1.5t12 1.5q12 0 19 -8.5t7 -20.5z" />
    <glyph glyph-name="iogonek" unicode="&#x12f;" horiz-adv-x="260" 
d="M209 -142q0 -43 -77 -43q-48 0 -72 20t-24 52q0 34 28 63t62 42q-23 2 -39.5 19t-16.5 41v330q0 25 17.5 42.5t42.5 17.5t42.5 -17.5t17.5 -42.5v-326q0 -25 -18 -47q-46 -54 -46 -101q0 -24 30 -24q6 0 15 1.5t12 1.5q12 0 19 -8.5t7 -20.5zM62 573q0 29 20 48.5
t48 19.5t48 -19.5t20 -48.5t-20 -48.5t-48 -19.5t-48 19.5t-20 48.5z" />
    <glyph glyph-name="Idotaccent" unicode="&#x130;" horiz-adv-x="292" 
d="M207 54q0 -26 -17.5 -44t-42.5 -18t-43.5 18t-18.5 44v558q0 26 18.5 44t43.5 18t42.5 -18t17.5 -44v-558zM78 794q0 28 20 48t48 20t48 -20t20 -48t-20 -48t-48 -20t-48 20t-20 48z" />
    <glyph glyph-name="dotlessi" unicode="&#x131;" horiz-adv-x="260" 
d="M70 52v330q0 25 17.5 42.5t42.5 17.5t42.5 -17.5t17.5 -42.5v-330q0 -25 -17.5 -42.5t-42.5 -17.5t-42.5 17.5t-17.5 42.5z" />
    <glyph glyph-name="IJ" unicode="&#x132;" horiz-adv-x="901" 
d="M207 54q0 -26 -17.5 -44t-42.5 -18t-43.5 18t-18.5 44v558q0 26 18.5 44t43.5 18t42.5 -18t17.5 -44v-558zM826 262q0 -124 -66.5 -199t-194.5 -75q-94 0 -165 55.5t-87 143.5q-1 4 -1 14q0 26 16 42t43 16q46 0 59 -48q31 -114 135 -114q71 0 105 42.5t34 116.5v356
q0 25 18 43.5t43 18.5t43 -18.5t18 -43.5v-350z" />
    <glyph glyph-name="ij" unicode="&#x133;" horiz-adv-x="524" 
d="M62 573q0 29 20 48.5t48 19.5t48 -19.5t20 -48.5t-20 -48.5t-48 -19.5t-48 19.5t-20 48.5zM70 52v330q0 25 17.5 42.5t42.5 17.5t42.5 -17.5t17.5 -42.5v-330q0 -25 -17.5 -42.5t-42.5 -17.5t-42.5 17.5t-17.5 42.5zM453 382v-407q0 -170 -173 -170h-14q-21 0 -35.5 14.5
t-14.5 35.5t14.5 35.5t35.5 14.5h2q65 0 65 65v412q0 25 18 42.5t43 17.5t42 -17.5t17 -42.5zM326 573q0 29 20 48.5t48 19.5t48 -19.5t20 -48.5t-20 -48.5t-48 -19.5t-48 19.5t-20 48.5z" />
    <glyph glyph-name="Jcircumflex" unicode="&#x134;" horiz-adv-x="609" 
d="M534 262q0 -124 -66.5 -199t-194.5 -75q-94 0 -165 55.5t-87 143.5q-1 4 -1 14q0 26 16 42t43 16q46 0 59 -48q31 -114 135 -114q71 0 105 42.5t34 116.5v356q0 25 18 43.5t43 18.5t43 -18.5t18 -43.5v-350zM498 858l95 -73q14 -12 14 -29q0 -16 -12.5 -27.5t-27.5 -11.5
q-14 0 -26 9l-69 53l-69 -53q-12 -9 -26 -9q-15 0 -27.5 11.5t-12.5 27.5q0 17 14 29l95 73q14 11 26 11t26 -11z" />
    <glyph glyph-name="jcircumflex" unicode="&#x135;" horiz-adv-x="264" 
d="M194 382v-408q0 -170 -174 -170h-14q-21 0 -35.5 14.5t-14.5 35.5t14.5 35.5t35.5 14.5h2q65 0 65 65v413q0 25 18 42.5t43 17.5t42.5 -17.5t17.5 -42.5zM107 649q11 10 26 10q16 0 27 -10l100 -88q13 -13 13 -30q0 -15 -12 -26.5t-27 -11.5q-14 0 -26 9l-75 66l-74 -66
q-12 -9 -26 -9q-15 0 -26.5 11t-11.5 27q0 18 12 30z" />
    <glyph glyph-name="Kcommaaccent" unicode="&#x136;" horiz-adv-x="665" 
d="M202 54q0 -26 -17.5 -44t-42.5 -18q-26 0 -44 18t-18 44v558q0 26 18 44t44 18q25 0 42.5 -18t17.5 -44v-245l301 291q16 16 40 16q23 0 41 -16.5t18 -39.5q0 -28 -18 -44l-174 -168l203 -324q10 -14 10 -34q0 -22 -15 -39t-41 -17q-35 0 -51 25l-191 307l-123 -119v-151
zM406 -131q0 -67 -24 -124q-16 -37 -52 -37q-25 0 -38.5 12.5t-13.5 29.5q0 9 9 38q13 46 13 85v11q0 25 14 40.5t39 15.5t39 -15.5t14 -40.5v-15z" />
    <glyph glyph-name="kcommaaccent" unicode="&#x137;" horiz-adv-x="506" 
d="M460 80q10 -13 10 -31q0 -24 -15.5 -40.5t-40.5 -16.5t-41 23l-132 178l-51 -40v-101q0 -25 -17.5 -42.5t-42.5 -17.5t-42.5 17.5t-17.5 42.5v561q0 25 17.5 43t42.5 18t42.5 -18t17.5 -43v-324l183 141q15 12 34 12q25 0 41 -16t16 -40q0 -20 -26 -40l-111 -86z
M323 -131q0 -67 -24 -124q-16 -37 -52 -37q-25 0 -38.5 12.5t-13.5 29.5q0 9 9 38q13 46 13 85v11q0 25 14 40.5t39 15.5t39 -15.5t14 -40.5v-15z" />
    <glyph glyph-name="kgreenlandic" unicode="&#x138;" horiz-adv-x="510" 
d="M463 80q11 -14 11 -32q0 -23 -16 -39.5t-41 -16.5q-23 0 -41 23l-133 169l-53 -41v-91q0 -25 -17.5 -42.5t-42.5 -17.5t-42.5 17.5t-17.5 42.5v329q0 25 17.5 43t42.5 18t42.5 -18t17.5 -43v-102l183 150q16 13 35 13q25 0 40.5 -15t15.5 -39q0 -21 -28 -45l-109 -93z
" />
    <glyph glyph-name="Lacute" unicode="&#x139;" horiz-adv-x="574" 
d="M494 0h-352q-26 0 -44 18t-18 44v550q0 26 18 44t44 18q25 0 42.5 -18t17.5 -44v-497h292q23 0 40 -16.5t17 -40.5t-16.5 -40.5t-40.5 -17.5zM194 879q20 0 33 -13t13 -34q0 -14 -11 -29l-45 -61q-14 -19 -39 -19q-18 0 -33 14t-15 32q0 16 12 30l47 61q14 19 38 19z" />
    <glyph glyph-name="lacute" unicode="&#x13a;" horiz-adv-x="260" 
d="M70 52v562q0 25 17.5 42.5t42.5 17.5t42.5 -17.5t17.5 -42.5v-562q0 -25 -17.5 -42.5t-42.5 -17.5t-42.5 17.5t-17.5 42.5zM172 879q20 0 33 -13t13 -34q0 -14 -11 -29l-45 -61q-14 -19 -39 -19q-18 0 -33 14t-15 32q0 16 12 30l47 61q14 19 38 19z" />
    <glyph glyph-name="Lcommaaccent" unicode="&#x13b;" horiz-adv-x="574" 
d="M494 0h-352q-26 0 -44 18t-18 44v550q0 26 18 44t44 18q25 0 42.5 -18t17.5 -44v-497h292q23 0 40 -16.5t17 -40.5t-16.5 -40.5t-40.5 -17.5zM373 -131q0 -67 -24 -124q-16 -37 -52 -37q-25 0 -38.5 12.5t-13.5 29.5q0 9 9 38q13 46 13 85v11q0 25 14 40.5t39 15.5
t39 -15.5t14 -40.5v-15z" />
    <glyph glyph-name="lcommaaccent" unicode="&#x13c;" horiz-adv-x="260" 
d="M70 52v562q0 25 17.5 42.5t42.5 17.5t42.5 -17.5t17.5 -42.5v-562q0 -25 -17.5 -42.5t-42.5 -17.5t-42.5 17.5t-17.5 42.5zM180 -131q0 -67 -24 -124q-16 -37 -52 -37q-25 0 -38.5 12.5t-13.5 29.5q0 9 9 38q13 46 13 85v11q0 25 14 40.5t39 15.5t39 -15.5t14 -40.5v-15z
" />
    <glyph glyph-name="Lcaron" unicode="&#x13d;" horiz-adv-x="574" 
d="M494 0h-352q-26 0 -44 18t-18 44v550q0 26 18 44t44 18q25 0 42.5 -18t17.5 -44v-497h292q23 0 40 -16.5t17 -40.5t-16.5 -40.5t-40.5 -17.5zM465 593q0 -69 -24 -126q-16 -37 -52 -37q-25 0 -38.5 12.5t-13.5 29.5q0 9 9 38q13 46 13 87v21q0 25 14 40.5t39 15.5
t39 -15.5t14 -40.5v-25z" />
    <glyph glyph-name="lcaron" unicode="&#x13e;" horiz-adv-x="427" 
d="M70 52v562q0 25 17.5 42.5t42.5 17.5t42.5 -17.5t17.5 -42.5v-562q0 -25 -17.5 -42.5t-42.5 -17.5t-42.5 17.5t-17.5 42.5zM422 593q0 -69 -24 -126q-16 -37 -52 -37q-25 0 -38.5 12.5t-13.5 29.5q0 9 9 38q13 46 13 87v21q0 25 14 40.5t39 15.5t39 -15.5t14 -40.5v-25z
" />
    <glyph glyph-name="Ldot" unicode="&#x13f;" horiz-adv-x="574" 
d="M494 0h-352q-26 0 -44 18t-18 44v550q0 26 18 44t44 18q25 0 42.5 -18t17.5 -44v-497h292q23 0 40 -16.5t17 -40.5t-16.5 -40.5t-40.5 -17.5zM437 345q0 -29 -20.5 -49t-48.5 -20t-48 20t-20 49t20 48.5t48 19.5q29 0 49 -20t20 -48z" />
    <glyph glyph-name="ldot" unicode="&#x140;" horiz-adv-x="437" 
d="M407 255q0 -29 -20.5 -49t-48.5 -20t-48 20t-20 49t20 48.5t48 19.5q29 0 49 -20t20 -48zM70 52v562q0 25 17.5 42.5t42.5 17.5t42.5 -17.5t17.5 -42.5v-562q0 -25 -17.5 -42.5t-42.5 -17.5t-42.5 17.5t-17.5 42.5z" />
    <glyph glyph-name="Lslash" unicode="&#x141;" horiz-adv-x="648" 
d="M360 476q22 0 37 -14.5t15 -37.5q0 -37 -36 -49l-118 -39v-221h310q23 0 40 -16.5t17 -40.5t-16.5 -40.5t-40.5 -17.5h-370q-26 0 -44 18t-18 44v233l-43 -14q-8 -3 -16 -3q-21 0 -36.5 15.5t-15.5 37.5q0 37 35 49l76 25v207q0 26 18 44t44 18q25 0 42.5 -18t17.5 -44
v-167l85 28q9 3 17 3z" />
    <glyph glyph-name="lslash" unicode="&#x142;" horiz-adv-x="411" 
d="M265 52q0 -25 -17.5 -42.5t-42.5 -17.5t-42.5 17.5t-17.5 42.5v252l-55 -18q-8 -3 -16 -3q-23 0 -37.5 15.5t-14.5 37.5q0 37 35 49l88 28v200q0 25 17 43t43 18t43 -18t17 -43v-160l61 20q9 3 17 3q23 0 37.5 -15t14.5 -37q0 -38 -36 -49l-94 -31v-292z" />
    <glyph glyph-name="Nacute" unicode="&#x143;" horiz-adv-x="722" 
d="M642 49q0 -24 -16.5 -40.5t-41.5 -16.5q-28 0 -44 21l-345 436v-400q0 -24 -17 -40.5t-41 -16.5q-23 0 -40 17t-17 40v567q0 24 16.5 41t43.5 17q26 0 42 -21l345 -436v399q0 24 16 41t41 17t41.5 -17t16.5 -41v-567zM410 879q20 0 33 -13t13 -34q0 -14 -11 -29l-45 -61
q-14 -19 -39 -19q-18 0 -33 14t-15 32q0 16 12 30l47 61q14 19 38 19z" />
    <glyph glyph-name="nacute" unicode="&#x144;" horiz-adv-x="560" 
d="M375 234q0 46 -23 75t-68 29q-47 0 -70.5 -30t-23.5 -74v-182q0 -25 -17.5 -42.5t-42.5 -17.5t-42.5 17.5t-17.5 42.5v329q0 28 17 44.5t43 16.5t43 -16.5t17 -44.5v-8q40 73 129 73q82 0 129 -57t47 -149v-188q0 -25 -17.5 -42.5t-42.5 -17.5t-42.5 17.5t-17.5 42.5v182
zM336 666q20 0 33 -13t13 -34q0 -14 -11 -29l-58 -78q-14 -19 -39 -19q-18 0 -33 14t-15 32q0 16 12 30l60 78q14 19 38 19z" />
    <glyph glyph-name="Ncommaaccent" unicode="&#x145;" horiz-adv-x="722" 
d="M642 49q0 -24 -16.5 -40.5t-41.5 -16.5q-28 0 -44 21l-345 436v-400q0 -24 -17 -40.5t-41 -16.5q-23 0 -40 17t-17 40v567q0 24 16.5 41t43.5 17q26 0 42 -21l345 -436v399q0 24 16 41t41 17t41.5 -17t16.5 -41v-567zM420 -131q0 -67 -24 -124q-16 -37 -52 -37
q-25 0 -38.5 12.5t-13.5 29.5q0 9 9 38q13 46 13 85v11q0 25 14 40.5t39 15.5t39 -15.5t14 -40.5v-15z" />
    <glyph glyph-name="ncommaaccent" unicode="&#x146;" horiz-adv-x="560" 
d="M375 234q0 46 -23 75t-68 29q-47 0 -70.5 -30t-23.5 -74v-182q0 -25 -17.5 -42.5t-42.5 -17.5t-42.5 17.5t-17.5 42.5v329q0 28 17 44.5t43 16.5t43 -16.5t17 -44.5v-8q40 73 129 73q82 0 129 -57t47 -149v-188q0 -25 -17.5 -42.5t-42.5 -17.5t-42.5 17.5t-17.5 42.5v182
zM337 -131q0 -67 -24 -124q-16 -37 -52 -37q-25 0 -38.5 12.5t-13.5 29.5q0 9 9 38q13 46 13 85v11q0 25 14 40.5t39 15.5t39 -15.5t14 -40.5v-15z" />
    <glyph glyph-name="Ncaron" unicode="&#x147;" horiz-adv-x="722" 
d="M642 49q0 -24 -16.5 -40.5t-41.5 -16.5q-28 0 -44 21l-345 436v-400q0 -24 -17 -40.5t-41 -16.5q-23 0 -40 17t-17 40v567q0 24 16.5 41t43.5 17q26 0 42 -21l345 -436v399q0 24 16 41t41 17t41.5 -17t16.5 -41v-567zM487 800l-95 -73q-14 -11 -26 -11t-26 11l-95 73
q-14 12 -14 29q0 15 12.5 27t27.5 12q14 0 26 -9l69 -53l69 53q12 9 26 9q15 0 27.5 -12t12.5 -27q0 -17 -14 -29z" />
    <glyph glyph-name="ncaron" unicode="&#x148;" horiz-adv-x="560" 
d="M375 234q0 46 -23 75t-68 29q-47 0 -70.5 -30t-23.5 -74v-182q0 -25 -17.5 -42.5t-42.5 -17.5t-42.5 17.5t-17.5 42.5v329q0 28 17 44.5t43 16.5t43 -16.5t17 -44.5v-8q40 73 129 73q82 0 129 -57t47 -149v-188q0 -25 -17.5 -42.5t-42.5 -17.5t-42.5 17.5t-17.5 42.5v182
zM262 494l-102 88q-12 12 -12 30q0 16 11.5 27t26.5 11q14 0 26 -9l76 -66l77 66q12 9 26 9q15 0 27 -11.5t12 -26.5q0 -17 -13 -30l-102 -88q-11 -10 -27 -10q-15 0 -26 10z" />
    <glyph glyph-name="Eng" unicode="&#x14a;" horiz-adv-x="722" 
d="M642 -25q0 -170 -174 -170h-14q-21 0 -35.5 14.5t-14.5 35.5t14.5 35.5t35.5 14.5h2q71 0 71 65v59l-332 420v-400q0 -24 -17 -40.5t-41 -16.5q-23 0 -40 17t-17 40v567q0 24 16.5 41t43.5 17q26 0 42 -21l345 -436v399q0 24 16 41t41 17t41.5 -17t16.5 -41v-641z" />
    <glyph glyph-name="eng" unicode="&#x14b;" horiz-adv-x="560" 
d="M375 234q0 46 -23 75t-68 29q-47 0 -70.5 -30t-23.5 -74v-182q0 -25 -17.5 -42.5t-42.5 -17.5t-42.5 17.5t-17.5 42.5v329q0 28 17 44.5t43 16.5t43 -16.5t17 -44.5v-8q40 73 129 73q82 0 129 -57t47 -149v-265q0 -170 -174 -170h-14q-21 0 -35.5 14.5t-14.5 35.5
t14.5 35.5t35.5 14.5h2q36 0 51 14.5t15 44.5v270z" />
    <glyph glyph-name="Omacron" unicode="&#x14c;" horiz-adv-x="774" 
d="M729 333q0 -146 -98 -245.5t-244 -99.5t-244 99.5t-98 245.5t98 245.5t244 99.5t244 -99.5t98 -245.5zM606 333q0 99 -60 167t-159 68t-159 -68t-60 -167t60 -167t159 -68t159 68t60 167zM504 743h-233q-17 0 -29 11.5t-12 29.5t12 29.5t29 11.5h233q17 0 29 -11.5
t12 -29.5t-12 -29.5t-29 -11.5z" />
    <glyph glyph-name="omacron" unicode="&#x14d;" horiz-adv-x="542" 
d="M500 217q0 -96 -64.5 -162.5t-164.5 -66.5t-164.5 66.5t-64.5 162.5t64.5 162.5t164.5 66.5t164.5 -66.5t64.5 -162.5zM382 217q0 52 -30.5 88.5t-80.5 36.5t-80.5 -36.5t-30.5 -88.5t30.5 -88.5t80.5 -36.5t80.5 36.5t30.5 88.5zM419 561q0 -15 -12 -27t-27 -12h-219
q-15 0 -26.5 12t-11.5 27t11.5 26.5t26.5 11.5h219q15 0 27 -11.5t12 -26.5z" />
    <glyph glyph-name="Obreve" unicode="&#x14e;" horiz-adv-x="774" 
d="M729 333q0 -146 -98 -245.5t-244 -99.5t-244 99.5t-98 245.5t98 245.5t244 99.5t244 -99.5t98 -245.5zM606 333q0 99 -60 167t-159 68t-159 -68t-60 -167t60 -167t159 -68t159 68t60 167zM533 830q0 -53 -38.5 -82.5t-107.5 -29.5t-107 29.5t-38 84.5q0 15 10.5 24.5
t25.5 10.5q16 1 28 -9t12 -29q0 -44 69 -44t69 44q0 17 11 27t26 10q16 0 28 -9.5t12 -26.5z" />
    <glyph glyph-name="obreve" unicode="&#x14f;" horiz-adv-x="542" 
d="M500 217q0 -96 -64.5 -162.5t-164.5 -66.5t-164.5 66.5t-64.5 162.5t64.5 162.5t164.5 66.5t164.5 -66.5t64.5 -162.5zM382 217q0 52 -30.5 88.5t-80.5 36.5t-80.5 -36.5t-30.5 -88.5t30.5 -88.5t80.5 -36.5t80.5 36.5t30.5 88.5zM409 609q0 -55 -36 -88.5t-102 -33.5
q-67 0 -102 33.5t-35 90.5q0 15 10.5 24.5t25.5 10.5q16 1 28 -9t12 -29q0 -24 15 -39t46 -15q61 0 61 54q0 17 11 27t26 10q16 0 28 -9.5t12 -26.5z" />
    <glyph glyph-name="Ohungarumlaut" unicode="&#x150;" horiz-adv-x="774" 
d="M729 333q0 -146 -98 -245.5t-244 -99.5t-244 99.5t-98 245.5t98 245.5t244 99.5t244 -99.5t98 -245.5zM606 333q0 99 -60 167t-159 68t-159 -68t-60 -167t60 -167t159 -68t159 68t60 167zM250 758q0 16 10 29l44 61q13 19 39 19q19 0 33 -13.5t14 -33.5q0 -14 -9 -27
l-45 -60q-16 -20 -36 -20q-22 0 -36 12.5t-14 32.5zM446 758q0 16 10 29l44 61q13 19 39 19q19 0 33 -13.5t14 -33.5q0 -14 -9 -27l-45 -60q-16 -20 -36 -20q-22 0 -36 12.5t-14 32.5z" />
    <glyph glyph-name="ohungarumlaut" unicode="&#x151;" horiz-adv-x="542" 
d="M500 217q0 -96 -64.5 -162.5t-164.5 -66.5t-164.5 66.5t-64.5 162.5t64.5 162.5t164.5 66.5t164.5 -66.5t64.5 -162.5zM382 217q0 52 -30.5 88.5t-80.5 36.5t-80.5 -36.5t-30.5 -88.5t30.5 -88.5t80.5 -36.5t80.5 36.5t30.5 88.5zM256 663q19 0 31.5 -12t12.5 -33
q0 -13 -11 -28l-58 -79q-15 -18 -38 -18q-17 0 -31.5 13t-14.5 31q0 15 12 29l60 79q13 18 37 18zM436 663q19 0 31.5 -12t12.5 -33q0 -13 -11 -28l-58 -79q-15 -18 -38 -18q-17 0 -31.5 13t-14.5 31q0 15 12 29l60 79q13 18 37 18z" />
    <glyph glyph-name="OE" unicode="&#x152;" horiz-adv-x="1131" 
d="M1101 57q0 -24 -17 -40.5t-41 -16.5h-375q-26 0 -44 18t-18 44v23q-35 -44 -95 -70.5t-124 -26.5q-146 0 -244 99.5t-98 245.5t98 245.5t244 99.5q64 0 122.5 -25.5t96.5 -71.5v24q0 25 18 43t44 18h360q24 0 41 -16.5t17 -40.5t-17 -41t-41 -17h-300v-156h165
q23 0 40 -17t17 -41t-17 -40.5t-40 -16.5h-165v-165h315q24 0 41 -17t17 -41zM606 333q0 99 -60 167t-159 68t-159 -68t-60 -167t60 -167t159 -68t159 68t60 167z" />
    <glyph glyph-name="oe" unicode="&#x153;" horiz-adv-x="861" 
d="M816 217q0 -16 -10.5 -27.5t-32.5 -11.5h-266q5 -42 32 -68.5t76 -26.5q55 0 92 29q25 20 44 20q22 0 35 -12.5t13 -31.5q0 -33 -43 -60q-63 -40 -146 -40q-110 0 -172 69q-66 -69 -167 -69q-100 0 -164.5 66.5t-64.5 162.5t64.5 162.5t164.5 66.5q103 0 169 -71
q65 71 168 71q93 0 150.5 -65t57.5 -164zM382 217q0 52 -30.5 88.5t-80.5 36.5t-80.5 -36.5t-30.5 -88.5t30.5 -88.5t80.5 -36.5t80.5 36.5t30.5 88.5zM702 263q-7 37 -31.5 62t-62.5 25q-41 0 -67.5 -24t-31.5 -63h193z" />
    <glyph glyph-name="Racute" unicode="&#x154;" horiz-adv-x="691" 
d="M628 79q7 -14 7 -26q0 -24 -17 -42.5t-44 -18.5q-38 0 -54 33l-117 241h-201v-213q0 -25 -18 -43t-43 -18t-43 18t-18 43v552q0 25 18 43t43 18h257q120 0 178.5 -53.5t58.5 -146.5q0 -130 -110 -178zM512 465q0 36 -25 62.5t-72 26.5h-213v-183h213q47 0 72 28t25 66z
M382 879q20 0 33 -13t13 -34q0 -14 -11 -29l-45 -61q-14 -19 -39 -19q-18 0 -33 14t-15 32q0 16 12 30l47 61q14 19 38 19z" />
    <glyph glyph-name="racute" unicode="&#x155;" horiz-adv-x="372" 
d="M362 392q0 -23 -15 -38.5t-39 -15.5q-54 0 -85.5 -35t-31.5 -95v-156q0 -25 -17.5 -42.5t-42.5 -17.5t-43 17.5t-18 42.5v329q0 27 17 44t44 17q25 0 42.5 -18t17.5 -43v-11q33 76 117 76q25 0 39.5 -15.5t14.5 -38.5zM270 666q20 0 33 -13t13 -34q0 -14 -11 -29l-58 -78
q-14 -19 -39 -19q-18 0 -33 14t-15 32q0 16 12 30l60 78q14 19 38 19z" />
    <glyph glyph-name="Rcommaaccent" unicode="&#x156;" horiz-adv-x="691" 
d="M628 79q7 -14 7 -26q0 -24 -17 -42.5t-44 -18.5q-38 0 -54 33l-117 241h-201v-213q0 -25 -18 -43t-43 -18t-43 18t-18 43v552q0 25 18 43t43 18h257q120 0 178.5 -53.5t58.5 -146.5q0 -130 -110 -178zM512 465q0 36 -25 62.5t-72 26.5h-213v-183h213q47 0 72 28t25 66z
M409 -131q0 -67 -24 -124q-16 -37 -52 -37q-25 0 -38.5 12.5t-13.5 29.5q0 9 9 38q13 46 13 85v11q0 25 14 40.5t39 15.5t39 -15.5t14 -40.5v-15z" />
    <glyph glyph-name="rcommaaccent" unicode="&#x157;" horiz-adv-x="372" 
d="M362 392q0 -23 -15 -38.5t-39 -15.5q-54 0 -85.5 -35t-31.5 -95v-156q0 -25 -17.5 -42.5t-42.5 -17.5t-43 17.5t-18 42.5v329q0 27 17 44t44 17q25 0 42.5 -18t17.5 -43v-11q33 76 117 76q25 0 39.5 -15.5t14.5 -38.5zM183 -131q0 -67 -24 -124q-16 -37 -52 -37
q-25 0 -38.5 12.5t-13.5 29.5q0 9 9 38q13 46 13 85v11q0 25 14 40.5t39 15.5t39 -15.5t14 -40.5v-15z" />
    <glyph glyph-name="Rcaron" unicode="&#x158;" horiz-adv-x="691" 
d="M628 79q7 -14 7 -26q0 -24 -17 -42.5t-44 -18.5q-38 0 -54 33l-117 241h-201v-213q0 -25 -18 -43t-43 -18t-43 18t-18 43v552q0 25 18 43t43 18h257q120 0 178.5 -53.5t58.5 -146.5q0 -130 -110 -178zM512 465q0 36 -25 62.5t-72 26.5h-213v-183h213q47 0 72 28t25 66z
M463 800l-95 -73q-14 -11 -26 -11t-26 11l-95 73q-14 12 -14 29q0 15 12.5 27t27.5 12q14 0 26 -9l69 -53l69 53q12 9 26 9q15 0 27.5 -12t12.5 -27q0 -17 -14 -29z" />
    <glyph glyph-name="rcaron" unicode="&#x159;" horiz-adv-x="372" 
d="M362 392q0 -23 -15 -38.5t-39 -15.5q-54 0 -85.5 -35t-31.5 -95v-156q0 -25 -17.5 -42.5t-42.5 -17.5t-43 17.5t-18 42.5v329q0 27 17 44t44 17q25 0 42.5 -18t17.5 -43v-11q33 76 117 76q25 0 39.5 -15.5t14.5 -38.5zM180 494l-102 88q-12 12 -12 30q0 16 11.5 27
t26.5 11q14 0 26 -9l76 -66l77 66q12 9 26 9q15 0 27 -11.5t12 -26.5q0 -17 -13 -30l-102 -88q-11 -10 -27 -10q-15 0 -26 10z" />
    <glyph glyph-name="Sacute" unicode="&#x15a;" horiz-adv-x="624" 
d="M578 186q0 -90 -67 -144t-191 -54q-62 0 -125.5 18.5t-105.5 51.5q-34 27 -34 58q0 23 14 37.5t37 14.5q16 0 31 -9q3 -2 19 -12l20 -12.5t18 -10.5t21 -10t21 -7t25.5 -7t27.5 -3.5t33 -1.5q68 0 101 23.5t33 60.5t-34 59.5t-125 46.5q-132 35 -183.5 82t-51.5 124
q0 90 71 138.5t193 48.5q64 0 128 -18q41 -12 72.5 -33.5t31.5 -48.5q0 -22 -13 -38.5t-37 -16.5q-14 0 -24 5q-92 42 -157 42q-143 0 -143 -76q0 -35 32 -54t128 -47q60 -17 96 -31.5t71 -38t51 -57.5t16 -80zM364 879q20 0 33 -13t13 -34q0 -14 -11 -29l-45 -61
q-14 -19 -39 -19q-18 0 -33 14t-15 32q0 16 12 30l47 61q14 19 38 19z" />
    <glyph glyph-name="sacute" unicode="&#x15b;" horiz-adv-x="459" 
d="M408 359q0 -44 -46 -44q-8 0 -53 19q-39 16 -74 16q-62 0 -62 -33q0 -18 16.5 -28t66.5 -23q83 -23 123 -53t40 -91t-48 -97.5t-132 -36.5q-97 0 -158 45q-26 19 -26 51q0 17 13 28t31 11q21 0 47 -17q48 -30 96 -30q63 0 63 36q0 17 -17.5 27t-64.5 23q-91 24 -127.5 61
t-36.5 93q0 57 47 93.5t132 36.5q60 0 109 -23q61 -28 61 -64zM286 666q20 0 33 -13t13 -34q0 -14 -11 -29l-58 -78q-14 -19 -39 -19q-18 0 -33 14t-15 32q0 16 12 30l60 78q14 19 38 19z" />
    <glyph glyph-name="Scircumflex" unicode="&#x15c;" horiz-adv-x="624" 
d="M578 186q0 -90 -67 -144t-191 -54q-62 0 -125.5 18.5t-105.5 51.5q-34 27 -34 58q0 23 14 37.5t37 14.5q16 0 31 -9q3 -2 19 -12l20 -12.5t18 -10.5t21 -10t21 -7t25.5 -7t27.5 -3.5t33 -1.5q68 0 101 23.5t33 60.5t-34 59.5t-125 46.5q-132 35 -183.5 82t-51.5 124
q0 90 71 138.5t193 48.5q64 0 128 -18q41 -12 72.5 -33.5t31.5 -48.5q0 -22 -13 -38.5t-37 -16.5q-14 0 -24 5q-92 42 -157 42q-143 0 -143 -76q0 -35 32 -54t128 -47q60 -17 96 -31.5t71 -38t51 -57.5t16 -80zM352 858l95 -73q14 -12 14 -29q0 -16 -12.5 -27.5t-27.5 -11.5
q-14 0 -26 9l-69 53l-69 -53q-12 -9 -26 -9q-15 0 -27.5 11.5t-12.5 27.5q0 17 14 29l95 73q14 11 26 11t26 -11z" />
    <glyph glyph-name="scircumflex" unicode="&#x15d;" horiz-adv-x="459" 
d="M408 359q0 -44 -46 -44q-8 0 -53 19q-39 16 -74 16q-62 0 -62 -33q0 -18 16.5 -28t66.5 -23q83 -23 123 -53t40 -91t-48 -97.5t-132 -36.5q-97 0 -158 45q-26 19 -26 51q0 17 13 28t31 11q21 0 47 -17q48 -30 96 -30q63 0 63 36q0 17 -17.5 27t-64.5 23q-91 24 -127.5 61
t-36.5 93q0 57 47 93.5t132 36.5q60 0 109 -23q61 -28 61 -64zM219 649q11 10 26 10q16 0 27 -10l100 -88q13 -13 13 -30q0 -15 -12 -26.5t-27 -11.5q-14 0 -26 9l-75 66l-74 -66q-12 -9 -26 -9q-15 0 -26.5 11t-11.5 27q0 18 12 30z" />
    <glyph glyph-name="Scedilla" unicode="&#x15e;" horiz-adv-x="624" 
d="M450 -119q0 -33 -29.5 -54.5t-86.5 -21.5q-98 0 -98 38q0 12 6.5 19.5t17.5 7.5q10 0 31 -5.5t41 -5.5q41 0 41 24q0 22 -38 22q-9 0 -22.5 -2.5t-20.5 -2.5q-10 -1 -17 5.5t-7 16.5q0 11 24 67q-126 9 -203 69q-34 27 -34 58q0 23 14 37.5t37 14.5q16 0 31 -9
q3 -2 19 -12l20 -12.5t18 -10.5t21 -10t21 -7t25.5 -7t27.5 -3.5t33 -1.5q68 0 101 23.5t33 60.5t-34 59.5t-125 46.5q-132 35 -183.5 82t-51.5 124q0 90 71 138.5t193 48.5q64 0 128 -18q41 -12 72.5 -33.5t31.5 -48.5q0 -22 -13 -38.5t-37 -16.5q-14 0 -24 5
q-92 42 -157 42q-143 0 -143 -76q0 -35 32 -54t128 -47q60 -17 96 -31.5t71 -38t51 -57.5t16 -80q0 -84 -59 -137t-169 -60l-16 -43q11 4 27 4q89 0 89 -69z" />
    <glyph glyph-name="Scedilla" unicode="&#xf6c1;" horiz-adv-x="624" 
d="M450 -119q0 -33 -29.5 -54.5t-86.5 -21.5q-98 0 -98 38q0 12 6.5 19.5t17.5 7.5q10 0 31 -5.5t41 -5.5q41 0 41 24q0 22 -38 22q-9 0 -22.5 -2.5t-20.5 -2.5q-10 -1 -17 5.5t-7 16.5q0 11 24 67q-126 9 -203 69q-34 27 -34 58q0 23 14 37.5t37 14.5q16 0 31 -9
q3 -2 19 -12l20 -12.5t18 -10.5t21 -10t21 -7t25.5 -7t27.5 -3.5t33 -1.5q68 0 101 23.5t33 60.5t-34 59.5t-125 46.5q-132 35 -183.5 82t-51.5 124q0 90 71 138.5t193 48.5q64 0 128 -18q41 -12 72.5 -33.5t31.5 -48.5q0 -22 -13 -38.5t-37 -16.5q-14 0 -24 5
q-92 42 -157 42q-143 0 -143 -76q0 -35 32 -54t128 -47q60 -17 96 -31.5t71 -38t51 -57.5t16 -80q0 -84 -59 -137t-169 -60l-16 -43q11 4 27 4q89 0 89 -69z" />
    <glyph glyph-name="scedilla" unicode="&#x15f;" horiz-adv-x="459" 
d="M408 359q0 -44 -46 -44q-8 0 -53 19q-39 16 -77 16q-62 0 -62 -33q0 -18 17.5 -28t68.5 -23q83 -23 123 -53t40 -91q0 -59 -44 -95t-125 -39l-16 -42q11 4 27 4q89 0 89 -69q0 -33 -29.5 -54.5t-86.5 -21.5q-98 0 -98 38q0 12 6.5 19.5t17.5 7.5q10 0 31 -5.5t41 -5.5
q41 0 41 24q0 22 -38 22q-9 0 -22.5 -2.5t-20.5 -2.5q-10 -1 -17 5.5t-7 16.5q0 9 25 69q-68 9 -112 42q-26 19 -26 51q0 17 13 28t31 11q21 0 47 -17q48 -30 96 -30q63 0 63 36q0 17 -17.5 27t-64.5 23q-93 25 -130 61.5t-37 92.5q0 57 47 93.5t132 36.5q63 0 112 -23
q61 -28 61 -64z" />
    <glyph glyph-name="scedilla" unicode="&#xf6c2;" horiz-adv-x="459" 
d="M408 359q0 -44 -46 -44q-8 0 -53 19q-39 16 -77 16q-62 0 -62 -33q0 -18 17.5 -28t68.5 -23q83 -23 123 -53t40 -91q0 -59 -44 -95t-125 -39l-16 -42q11 4 27 4q89 0 89 -69q0 -33 -29.5 -54.5t-86.5 -21.5q-98 0 -98 38q0 12 6.5 19.5t17.5 7.5q10 0 31 -5.5t41 -5.5
q41 0 41 24q0 22 -38 22q-9 0 -22.5 -2.5t-20.5 -2.5q-10 -1 -17 5.5t-7 16.5q0 9 25 69q-68 9 -112 42q-26 19 -26 51q0 17 13 28t31 11q21 0 47 -17q48 -30 96 -30q63 0 63 36q0 17 -17.5 27t-64.5 23q-93 25 -130 61.5t-37 92.5q0 57 47 93.5t132 36.5q63 0 112 -23
q61 -28 61 -64z" />
    <glyph glyph-name="Scaron" unicode="&#x160;" horiz-adv-x="624" 
d="M578 186q0 -90 -67 -144t-191 -54q-62 0 -125.5 18.5t-105.5 51.5q-34 27 -34 58q0 23 14 37.5t37 14.5q16 0 31 -9q3 -2 19 -12l20 -12.5t18 -10.5t21 -10t21 -7t25.5 -7t27.5 -3.5t33 -1.5q68 0 101 23.5t33 60.5t-34 59.5t-125 46.5q-132 35 -183.5 82t-51.5 124
q0 90 71 138.5t193 48.5q64 0 128 -18q41 -12 72.5 -33.5t31.5 -48.5q0 -22 -13 -38.5t-37 -16.5q-14 0 -24 5q-92 42 -157 42q-143 0 -143 -76q0 -35 32 -54t128 -47q60 -17 96 -31.5t71 -38t51 -57.5t16 -80zM449 800l-95 -73q-14 -11 -26 -11t-26 11l-95 73
q-14 12 -14 29q0 15 12.5 27t27.5 12q14 0 26 -9l69 -53l69 53q12 9 26 9q15 0 27.5 -12t12.5 -27q0 -17 -14 -29z" />
    <glyph glyph-name="scaron" unicode="&#x161;" horiz-adv-x="459" 
d="M408 359q0 -44 -46 -44q-8 0 -53 19q-39 16 -74 16q-62 0 -62 -33q0 -18 16.5 -28t66.5 -23q83 -23 123 -53t40 -91t-48 -97.5t-132 -36.5q-97 0 -158 45q-26 19 -26 51q0 17 13 28t31 11q21 0 47 -17q48 -30 96 -30q63 0 63 36q0 17 -17.5 27t-64.5 23q-91 24 -127.5 61
t-36.5 93q0 57 47 93.5t132 36.5q60 0 109 -23q61 -28 61 -64zM218 494l-102 88q-12 12 -12 30q0 16 11.5 27t26.5 11q14 0 26 -9l76 -66l77 66q12 9 26 9q15 0 27 -11.5t12 -26.5q0 -17 -13 -30l-102 -88q-11 -10 -27 -10q-15 0 -26 10z" />
    <glyph glyph-name="Tcommaaccent" unicode="&#x162;" horiz-adv-x="621" 
d="M601 608q0 -24 -16.5 -40.5t-41.5 -16.5h-171v-497q0 -26 -18 -44t-44 -18q-25 0 -42.5 18t-17.5 44v497h-172q-24 0 -41 17t-17 40q0 24 16.5 41t41.5 17h465q24 0 41 -17t17 -41zM361 -131q0 -67 -24 -124q-16 -37 -52 -37q-25 0 -38.5 12.5t-13.5 29.5q0 9 9 38
q13 46 13 85v11q0 25 14 40.5t39 15.5t39 -15.5t14 -40.5v-15z" />
    <glyph glyph-name="Tcommaaccent" unicode="&#x21a;" horiz-adv-x="621" 
d="M601 608q0 -24 -16.5 -40.5t-41.5 -16.5h-171v-497q0 -26 -18 -44t-44 -18q-25 0 -42.5 18t-17.5 44v497h-172q-24 0 -41 17t-17 40q0 24 16.5 41t41.5 17h465q24 0 41 -17t17 -41zM361 -131q0 -67 -24 -124q-16 -37 -52 -37q-25 0 -38.5 12.5t-13.5 29.5q0 9 9 38
q13 46 13 85v11q0 25 14 40.5t39 15.5t39 -15.5t14 -40.5v-15z" />
    <glyph glyph-name="tcommaaccent" unicode="&#x163;" horiz-adv-x="379" 
d="M126 52v282h-67q-21 0 -35 14.5t-14 35.5t14 35.5t35 14.5h67v124q0 25 17.5 42.5t42.5 17.5t42.5 -17.5t17.5 -42.5v-124h78q21 0 35.5 -14.5t14.5 -35.5t-14.5 -35.5t-35.5 -14.5h-78v-282q0 -25 -17.5 -42.5t-42.5 -17.5t-42.5 17.5t-17.5 42.5zM240 -131
q0 -67 -24 -124q-16 -37 -52 -37q-25 0 -38.5 12.5t-13.5 29.5q0 9 9 38q13 46 13 85v11q0 25 14 40.5t39 15.5t39 -15.5t14 -40.5v-15z" />
    <glyph glyph-name="tcommaaccent" unicode="&#x21b;" horiz-adv-x="379" 
d="M126 52v282h-67q-21 0 -35 14.5t-14 35.5t14 35.5t35 14.5h67v124q0 25 17.5 42.5t42.5 17.5t42.5 -17.5t17.5 -42.5v-124h78q21 0 35.5 -14.5t14.5 -35.5t-14.5 -35.5t-35.5 -14.5h-78v-282q0 -25 -17.5 -42.5t-42.5 -17.5t-42.5 17.5t-17.5 42.5zM240 -131
q0 -67 -24 -124q-16 -37 -52 -37q-25 0 -38.5 12.5t-13.5 29.5q0 9 9 38q13 46 13 85v11q0 25 14 40.5t39 15.5t39 -15.5t14 -40.5v-15z" />
    <glyph glyph-name="Tcaron" unicode="&#x164;" horiz-adv-x="621" 
d="M601 608q0 -24 -16.5 -40.5t-41.5 -16.5h-171v-497q0 -26 -18 -44t-44 -18q-25 0 -42.5 18t-17.5 44v497h-172q-24 0 -41 17t-17 40q0 24 16.5 41t41.5 17h465q24 0 41 -17t17 -41zM431 800l-95 -73q-14 -11 -26 -11t-26 11l-95 73q-14 12 -14 29q0 15 12.5 27t27.5 12
q14 0 26 -9l69 -53l69 53q12 9 26 9q15 0 27.5 -12t12.5 -27q0 -17 -14 -29z" />
    <glyph glyph-name="tcaron" unicode="&#x165;" horiz-adv-x="460" 
d="M126 52v282h-67q-21 0 -35 14.5t-14 35.5t14 35.5t35 14.5h67v124q0 25 17.5 42.5t42.5 17.5t42.5 -17.5t17.5 -42.5v-124h78q21 0 35.5 -14.5t14.5 -35.5t-14.5 -35.5t-35.5 -14.5h-78v-282q0 -25 -17.5 -42.5t-42.5 -17.5t-42.5 17.5t-17.5 42.5zM470 674
q0 -57 -19 -111q-16 -41 -50 -41q-24 0 -37.5 13.5t-13.5 33.5q0 7 1.5 13t4 13.5t3.5 11.5q8 32 8 71v21q0 25 14 40.5t39 15.5q50 0 50 -56v-25z" />
    <glyph glyph-name="Tbar" unicode="&#x166;" horiz-adv-x="621" 
d="M96 286q-17 0 -30 12.5t-13 29.5t13 29.5t30 12.5h154v181h-172q-24 0 -41 17t-17 40q0 24 16.5 41t41.5 17h465q24 0 41 -17t17 -41t-16.5 -40.5t-41.5 -16.5h-171v-181h154q17 0 30 -12.5t13 -29.5t-13 -29.5t-30 -12.5h-154v-232q0 -26 -18 -44t-44 -18
q-25 0 -42.5 18t-17.5 44v232h-154z" />
    <glyph glyph-name="tbar" unicode="&#x167;" horiz-adv-x="379" 
d="M53 159q-18 0 -30.5 11.5t-12.5 28.5t12.5 28.5t30.5 11.5h73v95h-67q-21 0 -35 14.5t-14 35.5t14 35.5t35 14.5h67v124q0 25 17.5 42.5t42.5 17.5t42.5 -17.5t17.5 -42.5v-124h78q21 0 35.5 -14.5t14.5 -35.5t-14.5 -35.5t-35.5 -14.5h-78v-95h77q18 0 30.5 -11.5
t12.5 -28.5t-12.5 -28.5t-30.5 -11.5h-77v-107q0 -25 -17.5 -42.5t-42.5 -17.5t-42.5 17.5t-17.5 42.5v107h-73z" />
    <glyph glyph-name="Utilde" unicode="&#x168;" horiz-adv-x="722" 
d="M524 256v356q0 26 18 44t43 18t43 -18t18 -44v-343q0 -130 -76 -205.5t-209 -75.5t-209 75.5t-76 205.5v343q0 26 18 44t43 18t43 -18t18 -44v-356q0 -72 42.5 -115t120.5 -43t120.5 43t42.5 115zM520 810q0 -29 -28.5 -49.5t-62.5 -20.5q-20 0 -54 16t-50 16
q-20 0 -38.5 -16t-31.5 -16q-16 0 -27.5 10.5t-11.5 26.5q0 29 31.5 51.5t69.5 22.5q23 0 56.5 -15t47.5 -15t33 13t29 13q15 0 26 -10t11 -27z" />
    <glyph glyph-name="utilde" unicode="&#x169;" horiz-adv-x="558" 
d="M183 200q0 -46 23 -75t68 -29q47 0 70.5 30t23.5 74v182q0 25 17.5 42.5t42.5 17.5t42.5 -17.5t17.5 -42.5v-329q0 -28 -17 -44.5t-43 -16.5t-43 16.5t-17 44.5v8q-40 -73 -129 -73q-82 0 -129 57t-47 149v188q0 25 17.5 42.5t42.5 17.5t42.5 -17.5t17.5 -42.5v-182z
M433 569q0 -29 -28.5 -49.5t-62.5 -20.5q-20 0 -54 16t-50 16q-20 0 -38.5 -16t-31.5 -16q-16 0 -27.5 10.5t-11.5 26.5q0 29 31.5 51.5t69.5 22.5q23 0 56.5 -15t47.5 -15t33 13t29 13q15 0 26 -10t11 -27z" />
    <glyph glyph-name="Umacron" unicode="&#x16a;" horiz-adv-x="722" 
d="M524 256v356q0 26 18 44t43 18t43 -18t18 -44v-343q0 -130 -76 -205.5t-209 -75.5t-209 75.5t-76 205.5v343q0 26 18 44t43 18t43 -18t18 -44v-356q0 -72 42.5 -115t120.5 -43t120.5 43t42.5 115zM478 743h-233q-17 0 -29 11.5t-12 29.5t12 29.5t29 11.5h233
q17 0 29 -11.5t12 -29.5t-12 -29.5t-29 -11.5z" />
    <glyph glyph-name="umacron" unicode="&#x16b;" horiz-adv-x="558" 
d="M183 200q0 -46 23 -75t68 -29q47 0 70.5 30t23.5 74v182q0 25 17.5 42.5t42.5 17.5t42.5 -17.5t17.5 -42.5v-329q0 -28 -17 -44.5t-43 -16.5t-43 16.5t-17 44.5v8q-40 -73 -129 -73q-82 0 -129 57t-47 149v188q0 25 17.5 42.5t42.5 17.5t42.5 -17.5t17.5 -42.5v-182z
M429 561q0 -15 -12 -27t-27 -12h-219q-15 0 -26.5 12t-11.5 27t11.5 26.5t26.5 11.5h219q15 0 27 -11.5t12 -26.5z" />
    <glyph glyph-name="Ubreve" unicode="&#x16c;" horiz-adv-x="722" 
d="M524 256v356q0 26 18 44t43 18t43 -18t18 -44v-343q0 -130 -76 -205.5t-209 -75.5t-209 75.5t-76 205.5v343q0 26 18 44t43 18t43 -18t18 -44v-356q0 -72 42.5 -115t120.5 -43t120.5 43t42.5 115zM507 830q0 -53 -38.5 -82.5t-107.5 -29.5t-107 29.5t-38 84.5
q0 15 10.5 24.5t25.5 10.5q16 1 28 -9t12 -29q0 -44 69 -44t69 44q0 17 11 27t26 10q16 0 28 -9.5t12 -26.5z" />
    <glyph glyph-name="ubreve" unicode="&#x16d;" horiz-adv-x="558" 
d="M183 200q0 -46 23 -75t68 -29q47 0 70.5 30t23.5 74v182q0 25 17.5 42.5t42.5 17.5t42.5 -17.5t17.5 -42.5v-329q0 -28 -17 -44.5t-43 -16.5t-43 16.5t-17 44.5v8q-40 -73 -129 -73q-82 0 -129 57t-47 149v188q0 25 17.5 42.5t42.5 17.5t42.5 -17.5t17.5 -42.5v-182z
M419 609q0 -55 -36 -88.5t-102 -33.5q-67 0 -102 33.5t-35 90.5q0 15 10.5 24.5t25.5 10.5q16 1 28 -9t12 -29q0 -24 15 -39t46 -15q61 0 61 54q0 17 11 27t26 10q16 0 28 -9.5t12 -26.5z" />
    <glyph glyph-name="Uring" unicode="&#x16e;" horiz-adv-x="722" 
d="M524 256v356q0 26 18 44t43 18t43 -18t18 -44v-343q0 -130 -76 -205.5t-209 -75.5t-209 75.5t-76 205.5v343q0 26 18 44t43 18t43 -18t18 -44v-356q0 -72 42.5 -115t120.5 -43t120.5 43t42.5 115zM446 791q0 -35 -24.5 -57t-60.5 -22t-60.5 22t-24.5 57t24 57t61 22
t61 -22t24 -57zM398 791q0 15 -10 25t-27 10q-16 0 -26.5 -10t-10.5 -25t10.5 -25t26.5 -10q17 0 27 10t10 25z" />
    <glyph glyph-name="uring" unicode="&#x16f;" horiz-adv-x="558" 
d="M183 200q0 -46 23 -75t68 -29q47 0 70.5 30t23.5 74v182q0 25 17.5 42.5t42.5 17.5t42.5 -17.5t17.5 -42.5v-329q0 -28 -17 -44.5t-43 -16.5t-43 16.5t-17 44.5v8q-40 -73 -129 -73q-82 0 -129 57t-47 149v188q0 25 17.5 42.5t42.5 17.5t42.5 -17.5t17.5 -42.5v-182z
M366 563q0 -35 -24.5 -58.5t-60.5 -23.5q-35 0 -60 24t-25 58q0 35 25 58.5t60 23.5q36 0 60.5 -23t24.5 -59zM319 563q0 17 -10.5 27t-27.5 10t-27 -10t-10 -27q0 -16 10 -26.5t27 -10.5q18 0 28 10.5t10 26.5z" />
    <glyph glyph-name="Uhungarumlaut" unicode="&#x170;" horiz-adv-x="722" 
d="M524 256v356q0 26 18 44t43 18t43 -18t18 -44v-343q0 -130 -76 -205.5t-209 -75.5t-209 75.5t-76 205.5v343q0 26 18 44t43 18t43 -18t18 -44v-356q0 -72 42.5 -115t120.5 -43t120.5 43t42.5 115zM213 758q0 16 10 29l44 61q13 19 39 19q19 0 33 -13.5t14 -33.5
q0 -14 -9 -27l-45 -60q-16 -20 -36 -20q-22 0 -36 12.5t-14 32.5zM409 758q0 16 10 29l44 61q13 19 39 19q19 0 33 -13.5t14 -33.5q0 -14 -9 -27l-45 -60q-16 -20 -36 -20q-22 0 -36 12.5t-14 32.5z" />
    <glyph glyph-name="uhungarumlaut" unicode="&#x171;" horiz-adv-x="558" 
d="M183 200q0 -46 23 -75t68 -29q47 0 70.5 30t23.5 74v182q0 25 17.5 42.5t42.5 17.5t42.5 -17.5t17.5 -42.5v-329q0 -28 -17 -44.5t-43 -16.5t-43 16.5t-17 44.5v8q-40 -73 -129 -73q-82 0 -129 57t-47 149v188q0 25 17.5 42.5t42.5 17.5t42.5 -17.5t17.5 -42.5v-182z
M240 663q19 0 31.5 -12t12.5 -33q0 -13 -11 -28l-58 -79q-15 -18 -38 -18q-17 0 -31.5 13t-14.5 31q0 15 12 29l60 79q14 18 37 18zM420 663q19 0 31.5 -12t12.5 -33q0 -13 -11 -28l-58 -79q-15 -18 -38 -18q-17 0 -31.5 13t-14.5 31q0 15 12 29l60 79q13 18 37 18z" />
    <glyph glyph-name="Uogonek" unicode="&#x172;" horiz-adv-x="722" 
d="M503 -140q0 -21 -24 -33t-63 -12q-96 0 -96 66q0 34 34 64.5t78 49.5q-38 -7 -71 -7q-133 0 -209 75.5t-76 205.5v343q0 26 18 44t43 18t43 -18t18 -44v-356q0 -72 42.5 -115t120.5 -43t120.5 43t42.5 115v356q0 26 18 44t43 18t43 -18t18 -44v-343q0 -88 -31.5 -144.5
t-92.5 -97.5q-31 -21 -50.5 -35.5t-40.5 -39t-21 -44.5q0 -24 30 -24q8 0 19.5 2.5t17.5 2.5q12 0 19 -8.5t7 -20.5z" />
    <glyph glyph-name="uogonek" unicode="&#x173;" horiz-adv-x="558" 
d="M484 -140q0 -21 -24 -33t-63 -12q-96 0 -96 65q0 37 37 67t80 46q-22 3 -36 18.5t-14 41.5v8q-40 -73 -129 -73q-82 0 -129 57t-47 149v188q0 25 17.5 42.5t42.5 17.5t42.5 -17.5t17.5 -42.5v-182q0 -46 23 -75t68 -29q47 0 70.5 30t23.5 74v182q0 25 17.5 42.5
t42.5 17.5t42.5 -17.5t17.5 -42.5v-329q0 -21 -10 -36q-9 -13 -32.5 -34.5t-39 -40.5t-15.5 -34q0 -24 30 -24q8 0 19.5 2.5t17.5 2.5q12 0 19 -8.5t7 -20.5z" />
    <glyph glyph-name="Wcircumflex" unicode="&#x174;" horiz-adv-x="974" 
d="M541 635l144 -428l151 427q12 40 54 40q26 0 41 -16.5t15 -40.5q0 -8 -3 -17l-203 -570q-12 -38 -56 -38q-41 0 -54 37l-143 432l-143 -432q-13 -37 -54 -37q-44 0 -56 38l-203 570q-3 9 -3 17q0 24 15 40.5t41 16.5q42 0 54 -40l151 -427l144 428q14 39 54 39t54 -39z
M512 858l95 -73q14 -12 14 -29q0 -16 -12.5 -27.5t-27.5 -11.5q-14 0 -26 9l-69 53l-69 -53q-12 -9 -26 -9q-15 0 -27.5 11.5t-12.5 27.5q0 17 14 29l95 73q14 11 26 11t26 -11z" />
    <glyph glyph-name="wcircumflex" unicode="&#x175;" horiz-adv-x="668" 
d="M383 406l83 -230l70 232q11 34 47 34q24 0 39.5 -14.5t15.5 -37.5q0 -8 -4 -20l-115 -344q-11 -34 -51 -34q-36 0 -50 36l-84 242l-84 -242q-14 -36 -50 -36q-40 0 -51 34l-115 344q-4 12 -4 20q0 23 15.5 37.5t39.5 14.5q36 0 47 -34l70 -232l83 230q13 36 49 36t49 -36
zM307 649q11 10 26 10q16 0 27 -10l100 -88q13 -13 13 -30q0 -15 -12 -26.5t-27 -11.5q-14 0 -26 9l-75 66l-74 -66q-12 -9 -26 -9q-15 0 -26.5 11t-11.5 27q0 18 12 30z" />
    <glyph glyph-name="Ycircumflex" unicode="&#x176;" horiz-adv-x="588" 
d="M355 54q0 -26 -17.5 -44t-42.5 -18t-43.5 18t-18.5 44v239l-212 290q-11 17 -11 34q0 23 16.5 40t38.5 17q28 0 47 -25l182 -248l182 248q19 25 47 25q22 0 38.5 -17t16.5 -40q0 -19 -11 -34l-212 -290v-239zM320 858l95 -73q14 -12 14 -29q0 -16 -12.5 -27.5
t-27.5 -11.5q-14 0 -26 9l-69 53l-69 -53q-12 -9 -26 -9q-15 0 -27.5 11.5t-12.5 27.5q0 17 14 29l95 73q14 11 26 11t26 -11z" />
    <glyph glyph-name="ycircumflex" unicode="&#x177;" horiz-adv-x="464" 
d="M322 61q-74 -182 -186 -249q-11 -7 -27 -7q-22 0 -38 15t-16 35q0 26 29 49q34 27 53.5 50t35.5 58l-143 353q-5 12 -5 22q0 23 15 39t39 16q37 0 50 -32l112 -288l94 288q10 32 50 32q23 0 38 -16t15 -39q0 -12 -4 -22q-47 -143 -112 -304zM210 649q11 10 26 10
q16 0 27 -10l100 -88q13 -13 13 -30q0 -15 -12 -26.5t-27 -11.5q-14 0 -26 9l-75 66l-74 -66q-12 -9 -26 -9q-15 0 -26.5 11t-11.5 27q0 18 12 30z" />
    <glyph glyph-name="Ydieresis" unicode="&#x178;" horiz-adv-x="588" 
d="M355 54q0 -26 -17.5 -44t-42.5 -18t-43.5 18t-18.5 44v239l-212 290q-11 17 -11 34q0 23 16.5 40t38.5 17q28 0 47 -25l182 -248l182 248q19 25 47 25q22 0 38.5 -17t16.5 -40q0 -19 -11 -34l-212 -290v-239zM459 794q0 -25 -18 -42.5t-43 -17.5t-42.5 17.5t-17.5 42.5
t17.5 43t42.5 18q26 0 43.5 -17.5t17.5 -43.5zM249 794q0 -25 -17.5 -42.5t-42.5 -17.5t-43 17.5t-18 42.5q0 26 18 43.5t43 17.5t42.5 -18t17.5 -43z" />
    <glyph glyph-name="Zacute" unicode="&#x179;" horiz-adv-x="640" 
d="M590 57q0 -23 -16.5 -40t-40.5 -17h-413q-24 0 -41 16.5t-17 40.5q0 18 13 34l342 462h-296q-23 0 -40 17t-17 40t17 39.5t40 16.5h409q23 0 40 -16.5t17 -39.5q0 -19 -13 -35l-342 -462h301q23 0 40 -16.5t17 -39.5zM369 879q20 0 33 -13t13 -34q0 -14 -11 -29l-45 -61
q-14 -19 -39 -19q-18 0 -33 14t-15 32q0 16 12 30l47 61q14 19 38 19z" />
    <glyph glyph-name="zacute" unicode="&#x17a;" horiz-adv-x="481" 
d="M439 49q0 -21 -14.5 -35t-35.5 -14h-289q-19 0 -34.5 15t-15.5 34q0 21 13 37l213 250h-176q-21 0 -35.5 14t-14.5 35t14.5 35t35.5 14h283q23 0 37.5 -15t14.5 -37q0 -18 -13 -34l-213 -250h180q21 0 35.5 -14t14.5 -35zM304 666q20 0 33 -13t13 -34q0 -14 -11 -29
l-58 -78q-14 -19 -39 -19q-18 0 -33 14t-15 32q0 16 12 30l60 78q14 19 38 19z" />
    <glyph glyph-name="Zdotaccent" unicode="&#x17b;" horiz-adv-x="640" 
d="M590 57q0 -23 -16.5 -40t-40.5 -17h-413q-24 0 -41 16.5t-17 40.5q0 18 13 34l342 462h-296q-23 0 -40 17t-17 40t17 39.5t40 16.5h409q23 0 40 -16.5t17 -39.5q0 -19 -13 -35l-342 -462h301q23 0 40 -16.5t17 -39.5zM260 794q0 28 20 48t48 20t48 -20t20 -48t-20 -48
t-48 -20t-48 20t-20 48z" />
    <glyph glyph-name="zdotaccent" unicode="&#x17c;" horiz-adv-x="481" 
d="M439 49q0 -21 -14.5 -35t-35.5 -14h-289q-19 0 -34.5 15t-15.5 34q0 21 13 37l213 250h-176q-21 0 -35.5 14t-14.5 35t14.5 35t35.5 14h283q23 0 37.5 -15t14.5 -37q0 -18 -13 -34l-213 -250h180q21 0 35.5 -14t14.5 -35zM179 573q0 29 19.5 48.5t48.5 19.5t48.5 -19.5
t19.5 -48.5t-19.5 -48.5t-48.5 -19.5t-48.5 19.5t-19.5 48.5z" />
    <glyph glyph-name="Zcaron" unicode="&#x17d;" horiz-adv-x="640" 
d="M590 57q0 -23 -16.5 -40t-40.5 -17h-413q-24 0 -41 16.5t-17 40.5q0 18 13 34l342 462h-296q-23 0 -40 17t-17 40t17 39.5t40 16.5h409q23 0 40 -16.5t17 -39.5q0 -19 -13 -35l-342 -462h301q23 0 40 -16.5t17 -39.5zM452 800l-95 -73q-14 -11 -26 -11t-26 11l-95 73
q-14 12 -14 29q0 15 12.5 27t27.5 12q14 0 26 -9l69 -53l69 53q12 9 26 9q15 0 27.5 -12t12.5 -27q0 -17 -14 -29z" />
    <glyph glyph-name="zcaron" unicode="&#x17e;" horiz-adv-x="481" 
d="M439 49q0 -21 -14.5 -35t-35.5 -14h-289q-19 0 -34.5 15t-15.5 34q0 21 13 37l213 250h-176q-21 0 -35.5 14t-14.5 35t14.5 35t35.5 14h283q23 0 37.5 -15t14.5 -37q0 -18 -13 -34l-213 -250h180q21 0 35.5 -14t14.5 -35zM228 494l-102 88q-12 12 -12 30q0 16 11.5 27
t26.5 11q14 0 26 -9l76 -66l77 66q12 9 26 9q15 0 27 -11.5t12 -26.5q0 -17 -13 -30l-102 -88q-11 -10 -27 -10q-15 0 -26 10z" />
    <glyph glyph-name="florin" unicode="&#x192;" horiz-adv-x="554" 
d="M208 294h-56q-19 0 -30.5 11.5t-11.5 29.5q0 26 18 42.5t42 16.5h56l18 101q31 175 203 175h22q50 0 50 -41q0 -26 -15 -42.5t-47 -16.5h-16q-63 0 -74 -63l-20 -113h71q19 0 30.5 -11.5t11.5 -29.5q0 -25 -16.5 -42t-43.5 -17h-71l-55 -314q-15 -86 -59 -130.5
t-144 -44.5h-30q-18 0 -29.5 11.5t-11.5 29.5q0 28 17.5 43.5t41.5 15.5h18q34 0 51 15t23 48z" />
    <glyph glyph-name="Aringacute" unicode="&#x1fa;" horiz-adv-x="694" 
d="M432 708q0 -40 -34 -64l257 -571q6 -12 6 -24q0 -23 -16 -40t-42 -17q-35 0 -51 33l-57 122h-296l-57 -122q-18 -33 -51 -33q-26 0 -42 17t-16 40q0 12 6 24l257 571q-34 24 -34 64q0 35 24.5 57t60.5 22q37 0 61 -22t24 -57zM451 254l-104 254l-104 -254h208zM379 708
q0 14 -9.5 23t-22.5 9t-22 -8.5t-9 -23.5t9 -23.5t22 -8.5t22.5 9.5t9.5 22.5zM394 953q19 0 31 -12.5t12 -30.5q0 -14 -11 -29l-32 -44q-14 -19 -39 -19q-18 0 -31.5 12t-13.5 30q0 16 12 30l34 44q14 19 38 19z" />
    <glyph glyph-name="aringacute" unicode="&#x1fb;" horiz-adv-x="518" 
d="M351 563q0 -35 -24.5 -58.5t-60.5 -23.5t-60.5 23.5t-24.5 58.5t25 58.5t60 23.5q36 0 60.5 -23t24.5 -59zM297 563q0 15 -8.5 24t-22.5 9t-22.5 -9t-8.5 -24t8.5 -24t22.5 -9t22.5 9t8.5 24zM312 822q20 0 33 -13t13 -34q0 -14 -11 -29l-32 -44q-14 -19 -39 -19
q-18 0 -33 14t-15 32q0 16 12 30l34 44q14 19 38 19zM340 52v2q-41 -66 -129 -66q-71 0 -113.5 38.5t-42.5 98.5q0 66 45 101.5t117 35.5q78 0 121 -46v32q0 52 -22.5 74t-79.5 22q-32 0 -70.5 -11t-48.5 -11q-22 0 -36.5 14t-14.5 35q0 23 21 39t53 23t58 10t49 3
q102 0 156.5 -48.5t54.5 -141.5v-204q0 -25 -16.5 -42.5t-42.5 -17.5q-25 0 -42 17.5t-17 42.5zM338 125q0 23 -24.5 40t-59.5 17q-37 0 -58.5 -15.5t-21.5 -41.5t22.5 -41.5t57.5 -15.5t59.5 16.5t24.5 40.5z" />
    <glyph glyph-name="AEacute" unicode="&#x1fc;" horiz-adv-x="948" 
d="M599 0q-34 0 -51 33l-53 114h-296l-57 -122q-17 -33 -51 -33q-26 0 -42 17t-16 40q0 12 6 24l256 561q14 32 52 32h498q24 0 41 -16.5t17 -40.5t-17 -41t-41 -17h-408l71 -156h202q23 0 40 -17t17 -41t-17 -40.5t-40 -16.5h-150l75 -165h225q24 0 41 -17t17 -41
t-17 -40.5t-41 -16.5h-261zM451 254l-104 254l-104 -254h208zM444 879q20 0 33 -13t13 -34q0 -14 -11 -29l-45 -61q-14 -19 -39 -19q-18 0 -33 14t-15 32q0 16 12 30l47 61q14 19 38 19z" />
    <glyph glyph-name="aeacute" unicode="&#x1fd;" horiz-adv-x="817" 
d="M772 217q0 -16 -10.5 -27.5t-32.5 -11.5h-266q5 -42 32 -68.5t76 -26.5q55 0 92 29q25 20 44 20q22 0 35 -12.5t13 -31.5q0 -33 -43 -60q-63 -40 -146 -40q-55 0 -98.5 18t-62.5 49q-45 -36 -85.5 -51.5t-95.5 -15.5q-76 0 -122.5 38.5t-46.5 98.5q0 66 45 101.5
t117 35.5q78 0 121 -46v32q0 52 -22.5 74t-79.5 22q-32 0 -70.5 -11t-48.5 -11q-22 0 -36.5 14t-14.5 35q0 23 21 39t53 23t58 10t49 3q95 0 154 -62q57 62 163 62q93 0 150.5 -65t57.5 -164zM338 125q0 23 -24.5 40t-59.5 17q-37 0 -58.5 -15.5t-21.5 -41.5t22.5 -41.5
t57.5 -15.5t59.5 16.5t24.5 40.5zM658 263q-7 37 -31.5 62t-62.5 25q-41 0 -67.5 -24t-31.5 -63h193zM350 666q20 0 33 -13t13 -34q0 -14 -11 -29l-58 -78q-14 -19 -39 -19q-18 0 -33 14t-15 32q0 16 12 30l60 78q14 19 38 19z" />
    <glyph glyph-name="Oslashacute" unicode="&#x1fe;" horiz-adv-x="774" 
d="M99 -52q-10 -10 -24 -10q-12 0 -21 8.5t-9 21.5t8 21l87 101q-95 98 -95 243q0 146 98 245.5t244 99.5q111 0 201 -63l88 103q9 10 23 10q13 0 21.5 -8.5t8.5 -21.5q0 -12 -7 -20l-88 -103q95 -100 95 -242q0 -146 -98 -245.5t-244 -99.5q-112 0 -201 62zM168 333
q0 -90 48 -153l298 348q-54 40 -127 40q-99 0 -159 -68t-60 -167zM606 333q0 89 -48 152l-298 -348q53 -39 127 -39q99 0 159 68t60 167zM448 879q20 0 33 -13t13 -34q0 -14 -11 -29l-45 -61q-14 -19 -39 -19q-18 0 -33 14t-15 32q0 16 12 30l47 61q14 19 38 19z" />
    <glyph glyph-name="oslashacute" unicode="&#x1ff;" horiz-adv-x="542" 
d="M85 -53q-7 -9 -18 -9q-9 0 -17 7.5t-8 17.5q0 7 5 14l61 76q-66 64 -66 164q0 96 64.5 162.5t164.5 66.5q69 0 125 -35l62 77q6 8 17 8t18 -7t7 -18q0 -9 -5 -15l-61 -76q66 -64 66 -163q0 -96 -64.5 -162.5t-164.5 -66.5q-69 0 -125 35zM160 217q0 -43 20 -75l148 184
q-26 16 -57 16q-50 0 -80.5 -36.5t-30.5 -88.5zM382 217q0 42 -20 74l-148 -184q24 -15 57 -15q50 0 80.5 36.5t30.5 88.5zM349 666q20 0 33 -13t13 -34q0 -14 -11 -29l-58 -78q-14 -19 -39 -19q-18 0 -33 14t-15 32q0 16 12 30l60 78q14 19 38 19z" />
    <glyph glyph-name="Scommaaccent" unicode="&#x218;" horiz-adv-x="624" 
d="M578 186q0 -90 -67 -144t-191 -54q-62 0 -125.5 18.5t-105.5 51.5q-34 27 -34 58q0 23 14 37.5t37 14.5q16 0 31 -9q3 -2 19 -12l20 -12.5t18 -10.5t21 -10t21 -7t25.5 -7t27.5 -3.5t33 -1.5q68 0 101 23.5t33 60.5t-34 59.5t-125 46.5q-132 35 -183.5 82t-51.5 124
q0 90 71 138.5t193 48.5q64 0 128 -18q41 -12 72.5 -33.5t31.5 -48.5q0 -22 -13 -38.5t-37 -16.5q-14 0 -24 5q-92 42 -157 42q-143 0 -143 -76q0 -35 32 -54t128 -47q60 -17 96 -31.5t71 -38t51 -57.5t16 -80zM388 -131q0 -67 -24 -124q-16 -37 -52 -37q-25 0 -38.5 12.5
t-13.5 29.5q0 9 9 38q13 46 13 85v11q0 25 14 40.5t39 15.5t39 -15.5t14 -40.5v-15z" />
    <glyph glyph-name="scommaaccent" unicode="&#x219;" horiz-adv-x="459" 
d="M408 359q0 -44 -46 -44q-8 0 -53 19q-39 16 -74 16q-62 0 -62 -33q0 -18 16.5 -28t66.5 -23q83 -23 123 -53t40 -91t-48 -97.5t-132 -36.5q-97 0 -158 45q-26 19 -26 51q0 17 13 28t31 11q21 0 47 -17q48 -30 96 -30q63 0 63 36q0 17 -17.5 27t-64.5 23q-91 24 -127.5 61
t-36.5 93q0 57 47 93.5t132 36.5q60 0 109 -23q61 -28 61 -64zM295 -131q0 -67 -24 -124q-16 -37 -52 -37q-25 0 -38.5 12.5t-13.5 29.5q0 9 9 38q13 46 13 85v11q0 25 14 40.5t39 15.5t39 -15.5t14 -40.5v-15z" />
    <glyph glyph-name="circumflex" unicode="&#x2c6;" horiz-adv-x="368" 
d="M157 649q11 10 26 10q16 0 27 -10l100 -88q13 -13 13 -30q0 -15 -12 -26.5t-27 -11.5q-14 0 -26 9l-75 66l-74 -66q-12 -9 -26 -9q-15 0 -26.5 11t-11.5 27q0 18 12 30z" />
    <glyph glyph-name="caron" unicode="&#x2c7;" horiz-adv-x="372" 
d="M159 494l-102 88q-12 12 -12 30q0 16 11.5 27t26.5 11q14 0 26 -9l76 -66l77 66q12 9 26 9q15 0 27 -11.5t12 -26.5q0 -17 -13 -30l-102 -88q-11 -10 -27 -10q-15 0 -26 10z" />
    <glyph glyph-name="breve" unicode="&#x2d8;" horiz-adv-x="365" 
d="M320 609q0 -55 -36 -88.5t-102 -33.5q-67 0 -102 33.5t-35 90.5q0 15 10.5 24.5t25.5 10.5q16 1 28 -9t12 -29q0 -24 15 -39t46 -15q61 0 61 54q0 17 11 27t26 10q16 0 28 -9.5t12 -26.5z" />
    <glyph glyph-name="dotaccent" unicode="&#x2d9;" horiz-adv-x="260" 
d="M62 573q0 29 20 48.5t48 19.5t48 -19.5t20 -48.5t-20 -48.5t-48 -19.5t-48 19.5t-20 48.5z" />
    <glyph glyph-name="ring" unicode="&#x2da;" horiz-adv-x="280" 
d="M225 563q0 -35 -24.5 -58.5t-60.5 -23.5q-35 0 -60 24t-25 58q0 35 25 58.5t60 23.5q36 0 60.5 -23t24.5 -59zM178 563q0 17 -10.5 27t-27.5 10q-16 0 -26.5 -10t-10.5 -27q0 -16 10 -26.5t27 -10.5q18 0 28 10.5t10 26.5z" />
    <glyph glyph-name="ogonek" unicode="&#x2db;" horiz-adv-x="318" 
d="M243 -140q0 -21 -24 -33t-63 -12q-48 0 -72 20t-24 52q0 37 38.5 69t79.5 44h46q-74 -49 -74 -92q0 -24 30 -24q8 0 19.5 2.5t17.5 2.5q12 0 19 -8.5t7 -20.5z" />
    <glyph glyph-name="tilde" unicode="&#x2dc;" horiz-adv-x="394" 
d="M349 569q0 -29 -28.5 -49.5t-62.5 -20.5q-20 0 -54 16t-50 16q-20 0 -38.5 -16t-31.5 -16q-16 0 -27.5 10.5t-11.5 26.5q0 29 31.5 51.5t69.5 22.5q23 0 56.5 -15t47.5 -15t33 13t29 13q15 0 26 -10t11 -27z" />
    <glyph glyph-name="hungarumlaut" unicode="&#x2dd;" horiz-adv-x="493" 
d="M199 663q19 0 31.5 -12t12.5 -33q0 -13 -11 -28l-58 -79q-15 -18 -38 -18q-17 0 -31.5 13t-14.5 31q0 15 12 29l60 79q14 18 37 18zM379 663q19 0 31.5 -12t12.5 -33q0 -13 -11 -28l-58 -79q-15 -18 -38 -18q-17 0 -31.5 13t-14.5 31q0 15 12 29l60 79q14 18 37 18z" />
    <glyph glyph-name="Omega" unicode="&#x3a9;" horiz-adv-x="842" 
d="M762 337q0 -61 -25 -119.5t-68 -102.5h52q23 0 39.5 -17t16.5 -41t-16.5 -40.5t-39.5 -16.5h-184q-23 0 -39.5 16.5t-16.5 40.5q0 31 28 50q131 90 131 226q0 103 -60.5 168t-158.5 65t-158.5 -65t-60.5 -168q0 -136 131 -226q28 -19 28 -50q0 -24 -16.5 -40.5
t-39.5 -16.5h-184q-23 0 -39.5 16.5t-16.5 40.5t16.5 41t39.5 17h52q-43 44 -68 102.5t-25 119.5q0 148 93.5 244.5t247.5 96.5t247.5 -96.5t93.5 -244.5z" />
    <glyph glyph-name="pi" unicode="&#x3c0;" horiz-adv-x="615" 
d="M362 105v233h-114v-292q0 -22 -15.5 -38t-37.5 -16q-23 0 -38.5 16t-15.5 38v292h-58q-20 0 -34 14t-14 34t14.5 34t33.5 14h443q20 0 34.5 -14t14.5 -34t-14.5 -34t-34.5 -14h-57v-229q0 -25 27 -25h14q20 0 34 -13.5t14 -32.5t-14 -32.5t-34 -13.5h-32
q-55 0 -85.5 28.5t-30.5 84.5z" />
    <glyph glyph-name="Wgrave" unicode="&#x1e80;" horiz-adv-x="974" 
d="M541 635l144 -428l151 427q12 40 54 40q26 0 41 -16.5t15 -40.5q0 -8 -3 -17l-203 -570q-12 -38 -56 -38q-41 0 -54 37l-143 432l-143 -432q-13 -37 -54 -37q-44 0 -56 38l-203 570q-3 9 -3 17q0 24 15 40.5t41 16.5q42 0 54 -40l151 -427l144 428q14 39 54 39t54 -39z
M430 879q24 0 38 -19l47 -61q12 -14 12 -30q0 -18 -15 -32t-33 -14q-25 0 -39 19l-45 61q-11 15 -11 29q0 21 13 34t33 13z" />
    <glyph glyph-name="wgrave" unicode="&#x1e81;" horiz-adv-x="668" 
d="M383 406l83 -230l70 232q11 34 47 34q24 0 39.5 -14.5t15.5 -37.5q0 -8 -4 -20l-115 -344q-11 -34 -51 -34q-36 0 -50 36l-84 242l-84 -242q-14 -36 -50 -36q-40 0 -51 34l-115 344q-4 12 -4 20q0 23 15.5 37.5t39.5 14.5q36 0 47 -34l70 -232l83 230q13 36 49 36t49 -36
zM263 666q24 0 38 -19l60 -78q12 -14 12 -30q0 -18 -15 -32t-33 -14q-25 0 -39 19l-58 78q-11 15 -11 29q0 21 13 34t33 13z" />
    <glyph glyph-name="Wacute" unicode="&#x1e82;" horiz-adv-x="974" 
d="M541 635l144 -428l151 427q12 40 54 40q26 0 41 -16.5t15 -40.5q0 -8 -3 -17l-203 -570q-12 -38 -56 -38q-41 0 -54 37l-143 432l-143 -432q-13 -37 -54 -37q-44 0 -56 38l-203 570q-3 9 -3 17q0 24 15 40.5t41 16.5q42 0 54 -40l151 -427l144 428q14 39 54 39t54 -39z
M540 879q20 0 33 -13t13 -34q0 -14 -11 -29l-45 -61q-14 -19 -39 -19q-18 0 -33 14t-15 32q0 16 12 30l47 61q14 19 38 19z" />
    <glyph glyph-name="wacute" unicode="&#x1e83;" horiz-adv-x="668" 
d="M383 406l83 -230l70 232q11 34 47 34q24 0 39.5 -14.5t15.5 -37.5q0 -8 -4 -20l-115 -344q-11 -34 -51 -34q-36 0 -50 36l-84 242l-84 -242q-14 -36 -50 -36q-40 0 -51 34l-115 344q-4 12 -4 20q0 23 15.5 37.5t39.5 14.5q36 0 47 -34l70 -232l83 230q13 36 49 36t49 -36
zM398 666q20 0 33 -13t13 -34q0 -14 -11 -29l-58 -78q-14 -19 -39 -19q-18 0 -33 14t-15 32q0 16 12 30l60 78q14 19 38 19z" />
    <glyph glyph-name="Wdieresis" unicode="&#x1e84;" horiz-adv-x="974" 
d="M541 635l144 -428l151 427q12 40 54 40q26 0 41 -16.5t15 -40.5q0 -8 -3 -17l-203 -570q-12 -38 -56 -38q-41 0 -54 37l-143 432l-143 -432q-13 -37 -54 -37q-44 0 -56 38l-203 570q-3 9 -3 17q0 24 15 40.5t41 16.5q42 0 54 -40l151 -427l144 428q14 39 54 39t54 -39z
M653 794q0 -25 -18 -42.5t-43 -17.5t-42.5 17.5t-17.5 42.5t17.5 43t42.5 18q26 0 43.5 -17.5t17.5 -43.5zM443 794q0 -25 -17.5 -42.5t-42.5 -17.5t-43 17.5t-18 42.5q0 26 18 43.5t43 17.5t42.5 -18t17.5 -43z" />
    <glyph glyph-name="wdieresis" unicode="&#x1e85;" horiz-adv-x="668" 
d="M383 406l83 -230l70 232q11 34 47 34q24 0 39.5 -14.5t15.5 -37.5q0 -8 -4 -20l-115 -344q-11 -34 -51 -34q-36 0 -50 36l-84 242l-84 -242q-14 -36 -50 -36q-40 0 -51 34l-115 344q-4 12 -4 20q0 23 15.5 37.5t39.5 14.5q36 0 47 -34l70 -232l83 230q13 36 49 36t49 -36
zM489 558q0 -25 -18 -42.5t-43 -17.5t-42.5 17.5t-17.5 42.5t17.5 43t42.5 18q26 0 43.5 -17.5t17.5 -43.5zM300 558q0 -25 -17.5 -42.5t-42.5 -17.5t-43 17.5t-18 42.5q0 26 17.5 43.5t43.5 17.5q25 0 42.5 -18t17.5 -43z" />
    <glyph glyph-name="Ygrave" unicode="&#x1ef2;" horiz-adv-x="588" 
d="M355 54q0 -26 -17.5 -44t-42.5 -18t-43.5 18t-18.5 44v239l-212 290q-11 17 -11 34q0 23 16.5 40t38.5 17q28 0 47 -25l182 -248l182 248q19 25 47 25q22 0 38.5 -17t16.5 -40q0 -19 -11 -34l-212 -290v-239zM236 879q24 0 38 -19l47 -61q12 -14 12 -30q0 -18 -15 -32
t-33 -14q-25 0 -39 19l-45 61q-11 15 -11 29q0 21 13 34t33 13z" />
    <glyph glyph-name="ygrave" unicode="&#x1ef3;" horiz-adv-x="464" 
d="M322 61q-74 -182 -186 -249q-11 -7 -27 -7q-22 0 -38 15t-16 35q0 26 29 49q34 27 53.5 50t35.5 58l-143 353q-5 12 -5 22q0 23 15 39t39 16q37 0 50 -32l112 -288l94 288q10 32 50 32q23 0 38 -16t15 -39q0 -12 -4 -22q-47 -143 -112 -304zM178 666q24 0 38 -19l60 -78
q12 -14 12 -30q0 -18 -15 -32t-33 -14q-25 0 -39 19l-58 78q-11 15 -11 29q0 21 13 34t33 13z" />
    <glyph glyph-name="endash" unicode="&#x2013;" horiz-adv-x="604" 
d="M544 248q0 -21 -15.5 -36t-36.5 -15h-380q-21 0 -36.5 15t-15.5 36q0 22 15.5 37t36.5 15h380q21 0 36.5 -15t15.5 -37z" />
    <glyph glyph-name="emdash" unicode="&#x2014;" horiz-adv-x="868" 
d="M808 248q0 -21 -15.5 -36t-36.5 -15h-644q-21 0 -36.5 15t-15.5 36q0 22 15.5 37t36.5 15h644q21 0 36.5 -15t15.5 -37z" />
    <glyph glyph-name="quoteleft" unicode="&#x2018;" horiz-adv-x="249" 
d="M60 456q0 115 46 186q21 33 51 33q24 0 38 -12.5t14 -29.5q0 -13 -11 -33q-32 -58 -32 -139v-30q0 -25 -14 -40.5t-39 -15.5t-39 15.5t-14 40.5v25z" />
    <glyph glyph-name="quoteright" unicode="&#x2019;" horiz-adv-x="249" 
d="M209 594q0 -115 -46 -186q-21 -33 -51 -33q-24 0 -38 12.5t-14 29.5q0 13 11 33q32 58 32 139v30q0 25 14 40.5t39 15.5t39 -15.5t14 -40.5v-25z" />
    <glyph glyph-name="quotesinglbase" unicode="&#x201a;" horiz-adv-x="246" 
d="M181 49q0 -115 -46 -186q-21 -33 -51 -33q-24 0 -38 12.5t-14 29.5q0 13 11 33q32 58 32 139v30q0 25 14 40.5t39 15.5t39 -15.5t14 -40.5v-25z" />
    <glyph glyph-name="quotedblleft" unicode="&#x201c;" horiz-adv-x="460" 
d="M271 456q0 115 46 186q21 33 51 33q24 0 38 -12.5t14 -29.5q0 -13 -11 -33q-32 -58 -32 -139v-30q0 -25 -14 -40.5t-39 -15.5t-39 15.5t-14 40.5v25zM60 456q0 115 46 186q21 33 51 33q24 0 38 -12.5t14 -29.5q0 -13 -11 -33q-32 -58 -32 -139v-30q0 -25 -14 -40.5
t-39 -15.5t-39 15.5t-14 40.5v25z" />
    <glyph glyph-name="quotedblright" unicode="&#x201d;" horiz-adv-x="460" 
d="M209 594q0 -115 -46 -186q-21 -33 -51 -33q-24 0 -38 12.5t-14 29.5q0 13 11 33q32 58 32 139v30q0 25 14 40.5t39 15.5t39 -15.5t14 -40.5v-25zM420 594q0 -115 -46 -186q-21 -33 -51 -33q-24 0 -38 12.5t-14 29.5q0 13 11 33q32 58 32 139v30q0 25 14 40.5t39 15.5
t39 -15.5t14 -40.5v-25z" />
    <glyph glyph-name="quotedblbase" unicode="&#x201e;" horiz-adv-x="457" 
d="M181 49q0 -115 -46 -186q-21 -33 -51 -33q-24 0 -38 12.5t-14 29.5q0 13 11 33q32 58 32 139v30q0 25 14 40.5t39 15.5t39 -15.5t14 -40.5v-25zM392 49q0 -115 -46 -186q-21 -33 -51 -33q-24 0 -38 12.5t-14 29.5q0 13 11 33q32 58 32 139v30q0 25 14 40.5t39 15.5
t39 -15.5t14 -40.5v-25z" />
    <glyph glyph-name="dagger" unicode="&#x2020;" horiz-adv-x="457" 
d="M407 467q0 -18 -12 -30.5t-30 -12.5h-90v-457q0 -19 -13.5 -33t-33.5 -14q-19 0 -32.5 13.5t-13.5 33.5v457h-89q-18 0 -30.5 12.5t-12.5 30.5t12.5 30t30.5 12h89v118q0 20 13.5 33.5t32.5 13.5q20 0 33.5 -14t13.5 -33v-118h90q18 0 30 -12t12 -30z" />
    <glyph glyph-name="daggerdbl" unicode="&#x2021;" horiz-adv-x="487" 
d="M422 126q0 -18 -12.5 -30.5t-30.5 -12.5h-89v-116q0 -19 -14 -33t-33 -14t-33 14t-14 33v116h-88q-18 0 -30.5 12.5t-12.5 30.5t12.5 30.5t30.5 12.5h88v255h-88q-18 0 -30.5 12.5t-12.5 30.5t12.5 30.5t30.5 12.5h88v117q0 19 14 33t33 14t33 -14t14 -33v-117h89
q18 0 30.5 -12.5t12.5 -30.5t-12.5 -30.5t-30.5 -12.5h-89v-255h89q18 0 30.5 -12.5t12.5 -30.5z" />
    <glyph glyph-name="bullet" unicode="&#x2022;" horiz-adv-x="374" 
d="M314 317q0 -53 -37 -90t-90 -37t-90 37t-37 90t37 90t90 37t90 -37t37 -90z" />
    <glyph glyph-name="ellipsis" unicode="&#x2026;" horiz-adv-x="772" 
d="M712 62q0 -28 -20 -48.5t-49 -20.5t-49 20.5t-20 48.5t20 48t49 20t49 -20t20 -48zM454 62q0 -29 -20 -49t-48 -20t-48.5 20.5t-20.5 48.5t20 48t49 20q28 0 48 -20t20 -48zM197 62q0 -28 -20.5 -48.5t-48.5 -20.5t-48 20t-20 49q0 28 20 48t48 20q29 0 49 -20t20 -48z
" />
    <glyph glyph-name="perthousand" unicode="&#x2030;" horiz-adv-x="1258" 
d="M383 513q0 -70 -48 -117.5t-121 -47.5t-121 47.5t-48 117.5t48 117.5t121 47.5t121 -47.5t48 -117.5zM288 513q0 34 -21 57.5t-53 23.5t-53 -23.5t-21 -57.5t21 -57.5t53 -23.5t53 23.5t21 57.5zM252 8q-14 -20 -37 -20q-20 0 -33 14.5t-13 32.5q0 15 9 27l428 596
q14 20 37 20q20 0 33.5 -13.5t13.5 -32.5q0 -14 -9 -28zM810 153q0 -70 -48 -117.5t-121 -47.5t-121 47.5t-48 117.5t48 117.5t121 47.5t121 -47.5t48 -117.5zM715 153q0 34 -20.5 57.5t-53.5 23.5t-53.5 -23.5t-20.5 -57.5t20.5 -57.5t53.5 -23.5t53.5 23.5t20.5 57.5z
M1208 153q0 -70 -48 -117.5t-121 -47.5t-121 47.5t-48 117.5t48 117.5t121 47.5t121 -47.5t48 -117.5zM1113 153q0 34 -20.5 57.5t-53.5 23.5t-53.5 -23.5t-20.5 -57.5t20.5 -57.5t53.5 -23.5t53.5 23.5t20.5 57.5z" />
    <glyph glyph-name="guilsinglleft" unicode="&#x2039;" horiz-adv-x="353" 
d="M288 83q0 -20 -14.5 -34t-34.5 -14q-18 0 -31 13l-143 133q-15 12 -15 32q0 21 15 35l142 131q16 14 32 14q20 0 34 -14t14 -34q0 -21 -15 -34l-106 -98l107 -98q15 -14 15 -32z" />
    <glyph glyph-name="guilsinglright" unicode="&#x203a;" horiz-adv-x="353" 
d="M65 83q0 19 15 32l107 98l-106 98q-15 13 -15 34q0 20 14 34t34 14q16 0 32 -14l142 -131q15 -14 15 -35q0 -20 -15 -32l-143 -133q-13 -13 -31 -13q-20 0 -34.5 14t-14.5 34z" />
    <glyph glyph-name="fraction" unicode="&#x2044;" horiz-adv-x="506" 
d="M80 5q-11 -17 -31 -17q-17 0 -28 11.5t-11 26.5q0 11 7 21l409 614q12 17 32 17q17 0 27.5 -11.5t10.5 -26.5q0 -12 -6 -21z" />
    <glyph glyph-name="Euro" unicode="&#x20ac;" horiz-adv-x="692" 
d="M134 368h-68q-15 0 -25.5 10.5t-10.5 25.5t10.5 25.5t25.5 10.5h79q25 108 98.5 173t180.5 65q65 0 119 -27.5t86 -68.5q18 -23 18 -41q0 -22 -16 -36t-37 -14q-27 0 -45 23q-51 64 -120 64q-61 0 -103.5 -36.5t-61.5 -101.5h168q15 0 25.5 -10.5t10.5 -25.5t-10.5 -25.5
t-25.5 -10.5h-181q-1 -11 -1 -35t1 -35h181q15 0 25.5 -10.5t10.5 -25.5t-10.5 -25.5t-25.5 -10.5h-168q19 -65 61.5 -101.5t103.5 -36.5q69 0 120 64q18 23 45 23q21 0 37 -14t16 -36q0 -18 -18 -41q-32 -41 -86 -68.5t-119 -27.5q-107 0 -180.5 65t-98.5 173h-79
q-15 0 -25.5 10.5t-10.5 25.5t10.5 25.5t25.5 10.5h68q-1 11 -1 35t1 35z" />
    <glyph glyph-name="uni2113" unicode="&#x2113;" horiz-adv-x="608" 
d="M43 230q67 23 121 45v206q0 95 56.5 146t151.5 51q86 0 136 -46.5t50 -121.5q0 -170 -274 -289v-45q0 -42 21 -64t74 -22q37 0 108 23q11 3 20 3q22 0 35 -13t13 -36q0 -36 -41 -53q-65 -26 -146 -26q-103 0 -153 50.5t-51 134.5q-49 -18 -86 -29q-11 -3 -19 -3
q-21 0 -34 14t-13 33q0 31 31 42zM284 482v-152q160 76 160 175q0 31 -19.5 51t-53.5 20q-41 0 -64 -24.5t-23 -69.5z" />
    <glyph glyph-name="uni2116" unicode="&#x2116;" horiz-adv-x="1118" 
d="M652 49q0 -24 -16.5 -40.5t-41.5 -16.5q-28 0 -44 21l-345 436v-400q0 -24 -17 -40.5t-41 -16.5q-23 0 -40 17t-17 40v567q0 24 16.5 41t43.5 17q26 0 42 -21l345 -436v399q0 24 16 41t41 17t41.5 -17t16.5 -41v-567zM1063 525q0 -67 -43.5 -110t-114.5 -43t-114.5 43
t-43.5 110t43.5 110t114.5 43t114.5 -43t43.5 -110zM978 525q0 34 -20.5 57t-52.5 23t-52.5 -23t-20.5 -57t20.5 -57t52.5 -23t52.5 23t20.5 57zM1061 277q0 -19 -13.5 -31t-33.5 -12h-218q-20 0 -33.5 12t-13.5 31t13.5 31t33.5 12h218q20 0 33.5 -12t13.5 -31z" />
    <glyph glyph-name="trademark" unicode="&#x2122;" horiz-adv-x="732" 
d="M662 395q0 -11 -8 -19t-20 -8q-11 0 -19 8t-8 19v131l-72 -144q-8 -14 -23 -14q-17 0 -24 14l-71 144v-131q0 -11 -8 -19t-20 -8t-20 8t-8 19v247q0 12 8 20t20 8q17 0 26 -17l97 -198l97 198q7 17 25 17q12 0 20 -8t8 -20v-247zM312 639q0 -12 -8 -20t-20 -8h-82v-214
q0 -13 -8.5 -21t-20.5 -8q-13 0 -21.5 8t-8.5 21v214h-80q-12 0 -20 8t-8 20q0 11 8 19t20 8h221q12 0 20 -8t8 -19z" />
    <glyph glyph-name="estimated" unicode="&#x212e;" horiz-adv-x="834" 
d="M774 333v-6q0 -16 -16 -16h-556v-213q92 -77 215 -77q84 0 149 28.5t130 90.5q7 7 15 7q7 0 12 -5t5 -11q0 -7 -7 -14q-66 -62 -137 -95.5t-167 -33.5q-149 0 -253 103t-104 242q0 140 106 242.5t251 102.5t251 -103.5t106 -241.5zM417 645q-122 0 -215 -81v-221h430v221
q-93 81 -215 81z" />
    <glyph glyph-name="partialdiff" unicode="&#x2202;" horiz-adv-x="541" 
d="M491 314q0 -66 -14 -122.5t-44 -103.5t-82 -73.5t-122 -26.5q-83 0 -133.5 51t-50.5 125q0 111 62 180.5t176 69.5q49 0 91 -28q-16 71 -51 117t-93 89q-17 13 -17 35q0 24 15 37.5t42 13.5q22 0 43 -17q178 -135 178 -347zM242 93q55 0 87.5 38.5t32.5 92.5
q0 37 -20.5 61t-58.5 24q-54 0 -86.5 -35.5t-32.5 -96.5q0 -38 22 -61t56 -23z" />
    <glyph glyph-name="Delta" unicode="&#x2206;" horiz-adv-x="714" 
d="M104 0q-25 0 -39.5 21t-6.5 45l251 575q13 33 48 33q33 0 48 -33l251 -575q8 -23 -4.5 -44.5t-38.5 -21.5h-509zM357 497l-162 -393h323z" />
    <glyph glyph-name="product" unicode="&#x220f;" horiz-adv-x="763" 
d="M476 46v522h-189v-522q0 -22 -15.5 -38t-38.5 -16t-38.5 16t-15.5 38v522h-90q-20 0 -34.5 14.5t-14.5 34.5t14.5 34.5t34.5 14.5h585q20 0 34.5 -14.5t14.5 -34.5t-14.5 -34.5t-34.5 -14.5h-90v-522q0 -22 -16 -38t-38 -16t-38 16t-16 38z" />
    <glyph glyph-name="summation" unicode="&#x2211;" horiz-adv-x="569" 
d="M55 -17q0 15 7 26l259 332l-258 331q-8 13 -8 28q0 21 14 35.5t36 14.5h354q21 0 35.5 -14.5t14.5 -35.5t-14.5 -36t-35.5 -15h-247l219 -279q9 -12 9 -29q0 -14 -9 -29l-219 -279h247q21 0 35.5 -14.5t14.5 -35.5t-14.5 -36t-35.5 -15h-354q-21 0 -35.5 15t-14.5 36z
" />
    <glyph glyph-name="minus" unicode="&#x2212;" horiz-adv-x="514" 
d="M444 298q0 -21 -15.5 -36t-36.5 -15h-270q-21 0 -36.5 15t-15.5 36q0 22 15.5 37t36.5 15h270q21 0 36.5 -15t15.5 -37z" />
    <glyph glyph-name="radical" unicode="&#x221a;" horiz-adv-x="542" 
d="M214 14l-146 206q-8 13 -8 29q0 20 15.5 35t35.5 15q25 0 42 -23l85 -121l145 486q11 37 48 37q23 0 37 -15t14 -37q0 -8 -3 -17l-174 -582q-10 -35 -52 -35q-23 0 -39 22z" />
    <glyph glyph-name="infinity" unicode="&#x221e;" horiz-adv-x="803" 
d="M151 232q0 -31 20 -46t53 -15q51 0 115 61q-67 60 -115 60q-73 0 -73 -60zM653 232q0 31 -22.5 45.5t-51.5 14.5q-46 0 -115 -60q66 -61 115 -61q74 0 74 61zM402 292q47 43 86.5 65t86.5 22q76 0 124.5 -38t48.5 -109q0 -70 -49.5 -109t-123.5 -39q-46 0 -85.5 22.5
t-87.5 66.5q-49 -44 -88.5 -66.5t-85.5 -22.5q-74 0 -123.5 37.5t-49.5 110.5t48.5 110t124.5 37q46 0 85 -22t89 -65z" />
    <glyph glyph-name="integral" unicode="&#x222b;" horiz-adv-x="424" 
d="M260 523v-552q0 -76 -41.5 -121t-122.5 -45h-19q-19 0 -33 13.5t-14 33.5t13.5 34t33.5 14h8q60 0 60 60v552q0 76 41 121t122 45h19q19 0 33 -14t14 -33q0 -20 -13.5 -34t-33.5 -14h-8q-59 0 -59 -60z" />
    <glyph glyph-name="approxequal" unicode="&#x2248;" horiz-adv-x="538" 
d="M415 454q8 8 22 8q17 0 29 -11.5t12 -28.5q0 -25 -41.5 -58.5t-92.5 -33.5q-32 0 -71 23.5t-66 23.5q-22 0 -52.5 -19t-42.5 -19q-15 0 -28.5 11t-13.5 27q0 30 43 62.5t97 32.5q36 0 79 -25t59 -25q30 0 67 32zM415 276q8 8 22 8q17 0 29 -11.5t12 -28.5
q0 -25 -41.5 -58.5t-92.5 -33.5q-32 0 -71 24t-66 24q-22 0 -52.5 -19.5t-42.5 -19.5q-15 0 -28.5 11.5t-13.5 27.5q0 30 43 62t97 32q36 0 79 -25t59 -25q30 0 67 32z" />
    <glyph glyph-name="notequal" unicode="&#x2260;" horiz-adv-x="566" 
d="M212 127q-8 -14 -24 -14q-12 0 -19.5 7.5t-7.5 17.5q0 8 3 15l18 36h-60q-20 0 -33.5 13.5t-13.5 33.5t13.5 33.5t33.5 13.5h108l40 82h-148q-20 0 -33.5 13.5t-13.5 33.5t13.5 33.5t33.5 13.5h196l33 65q6 15 24 15q12 0 19.5 -8t7.5 -18q0 -7 -3 -15l-20 -39h65
q20 0 33.5 -13.5t13.5 -33.5t-13.5 -33.5t-33.5 -13.5h-113l-40 -82h153q20 0 33.5 -13.5t13.5 -33.5t-13.5 -33.5t-33.5 -13.5h-201z" />
    <glyph glyph-name="lessequal" unicode="&#x2264;" horiz-adv-x="599" 
d="M529 49q0 -21 -14 -35t-34 -14h-367q-21 0 -35 14t-14 35q0 20 14 33.5t35 13.5h367q20 0 34 -13.5t14 -33.5zM103 296q-27 17 -27 44q0 26 27 43l315 146q16 7 25 7q18 0 32 -14t14 -35q0 -27 -24 -41l-240 -106l240 -106q24 -14 24 -40q0 -22 -14.5 -36t-31.5 -14
q-11 0 -25 7z" />
    <glyph glyph-name="greaterequal" unicode="&#x2265;" horiz-adv-x="599" 
d="M70 49q0 20 14 33.5t34 13.5h367q21 0 35 -13.5t14 -33.5q0 -21 -14 -35t-35 -14h-367q-20 0 -34 14t-14 35zM496 296l-315 -145q-14 -7 -25 -7q-18 0 -32 14t-14 36q0 26 24 40l240 106l-240 106q-24 14 -24 41q0 21 14 35t32 14q9 0 25 -7l315 -146q27 -17 27 -43
q0 -27 -27 -44z" />
    <glyph glyph-name="lozenge" unicode="&#x25ca;" horiz-adv-x="694" 
d="M55 333q0 10 9 21l245 297q18 23 38 23t38 -23l245 -297q9 -11 9 -21t-9 -21l-245 -297q-18 -23 -38 -23t-38 23l-245 297q-9 11 -9 21zM347 127l168 206l-168 206l-168 -206z" />
    <glyph glyph-name="apple" unicode="&#xf8ff;" horiz-adv-x="831" 
d="M756 333h-333v-333h-333v666h666v-333z" />
    <glyph glyph-name="Acute" horiz-adv-x="323" 
d="M207 879q20 0 33 -13t13 -34q0 -14 -11 -29l-45 -61q-14 -19 -39 -19q-18 0 -33 14t-15 32q0 16 12 30l47 61q14 19 38 19z" />
    <glyph glyph-name="Breve" horiz-adv-x="441" 
d="M366 830q0 -53 -38.5 -82.5t-107.5 -29.5t-107 29.5t-38 84.5q0 15 10.5 24.5t25.5 10.5q16 1 28 -9t12 -29q0 -44 69 -44t69 44q0 17 11 27t26 10q16 0 28 -9.5t12 -26.5z" />
    <glyph glyph-name="Caron" horiz-adv-x="420" 
d="M331 800l-95 -73q-14 -11 -26 -11t-26 11l-95 73q-14 12 -14 29q0 15 12.5 27t27.5 12q14 0 26 -9l69 -53l69 53q12 9 26 9q15 0 27.5 -12t12.5 -27q0 -17 -14 -29z" />
    <glyph glyph-name="Circumflex" horiz-adv-x="420" 
d="M236 858l95 -73q14 -12 14 -29q0 -16 -12.5 -27.5t-27.5 -11.5q-14 0 -26 9l-69 53l-69 -53q-12 -9 -26 -9q-15 0 -27.5 11.5t-12.5 27.5q0 17 14 29l95 73q14 11 26 11t26 -11z" />
    <glyph glyph-name="commaaccent" horiz-adv-x="356" 
d="M231 -131q0 -67 -24 -124q-16 -37 -52 -37q-25 0 -38.5 12.5t-13.5 29.5q0 9 9 38q13 46 13 85v11q0 25 14 40.5t39 15.5t39 -15.5t14 -40.5v-15z" />
    <glyph glyph-name="Dieresis" horiz-adv-x="481" 
d="M406 794q0 -25 -18 -42.5t-43 -17.5t-42.5 17.5t-17.5 42.5t17.5 43t42.5 18t43 -17.5t18 -43.5zM196 794q0 -25 -17.5 -42.5t-42.5 -17.5t-43 17.5t-18 42.5q0 26 17.5 43.5t43.5 17.5q25 0 42.5 -18t17.5 -43z" />
    <glyph glyph-name="Dotaccent" horiz-adv-x="286" 
d="M75 794q0 28 19.5 48t48.5 20t48.5 -20t19.5 -48t-19.5 -48t-48.5 -20t-48.5 20t-19.5 48z" />
    <glyph glyph-name="Hungarumlaut" horiz-adv-x="506" 
d="M100 758q0 16 10 29l44 61q13 19 39 19q19 0 33 -13.5t14 -33.5q0 -14 -9 -27l-45 -60q-16 -20 -36 -20q-22 0 -36 12.5t-14 32.5zM296 758q0 16 10 29l44 61q13 19 39 19q19 0 33 -13.5t14 -33.5q0 -14 -9 -27l-45 -60q-16 -20 -36 -20q-22 0 -36 12.5t-14 32.5z" />
    <glyph glyph-name="Grave" horiz-adv-x="323" 
d="M116 879q24 0 38 -19l47 -61q12 -14 12 -30q0 -18 -15 -32t-33 -14q-25 0 -39 19l-45 61q-11 15 -11 29q0 21 13 34t33 13z" />
    <glyph glyph-name="Macron" horiz-adv-x="465" 
d="M349 743h-233q-17 0 -29 11.5t-12 29.5t12 29.5t29 11.5h233q17 0 29 -11.5t12 -29.5t-12 -29.5t-29 -11.5z" />
    <glyph glyph-name="Ring" horiz-adv-x="320" 
d="M245 791q0 -35 -24.5 -57t-60.5 -22t-60.5 22t-24.5 57t24 57t61 22t61 -22t24 -57zM197 791q0 15 -10 25t-27 10q-16 0 -26.5 -10t-10.5 -25t10.5 -25t26.5 -10q17 0 27 10t10 25z" />
    <glyph glyph-name="Tilde" horiz-adv-x="429" 
d="M369 810q0 -29 -28.5 -49.5t-62.5 -20.5q-20 0 -54 16t-50 16q-20 0 -38.5 -16t-31.5 -16q-16 0 -27.5 10.5t-11.5 26.5q0 29 31.5 51.5t69.5 22.5q23 0 56.5 -15t47.5 -15t33 13t29 13q15 0 26 -10t11 -27z" />
    <glyph glyph-name="a.salt" horiz-adv-x="568" 
d="M498 382v-330q0 -25 -16 -42.5t-42 -17.5t-42 18t-16 43v7q-44 -72 -137 -72q-95 0 -149 67.5t-54 161.5t54.5 161.5t148.5 67.5q91 0 133 -71v7q0 25 17.5 42.5t42.5 17.5t42.5 -17.5t17.5 -42.5zM162 217q0 -54 29.5 -90.5t79.5 -36.5t78.5 37t28.5 90t-29 90t-78 37
q-50 0 -79.5 -36.5t-29.5 -90.5z" />
    <glyph glyph-name="y.salt" horiz-adv-x="560" 
d="M185 210q0 -46 23 -75t68 -29q47 0 70.5 30t23.5 74v172q0 25 17.5 42.5t42.5 17.5t42.5 -17.5t17.5 -42.5v-355q0 -110 -56 -166t-177 -56q-80 0 -142 32q-32 16 -32 49q0 44 48 44q21 0 54 -15t77 -15q62 0 85 28t23 89v54q-40 -73 -129 -73q-82 0 -129 57t-47 149v178
q0 25 17.5 42.5t42.5 17.5t42.5 -17.5t17.5 -42.5v-172z" />
    <glyph glyph-name="aacute.salt" horiz-adv-x="568" 
d="M340 666q20 0 33 -13t13 -34q0 -14 -11 -29l-58 -78q-14 -19 -39 -19q-18 0 -33 14t-15 32q0 16 12 30l60 78q14 19 38 19zM498 382v-330q0 -25 -16 -42.5t-42 -17.5t-42 18t-16 43v7q-44 -72 -137 -72q-95 0 -149 67.5t-54 161.5t54.5 161.5t148.5 67.5q91 0 133 -71v7
q0 25 17.5 42.5t42.5 17.5t42.5 -17.5t17.5 -42.5zM162 217q0 -54 29.5 -90.5t79.5 -36.5t78.5 37t28.5 90t-29 90t-78 37q-50 0 -79.5 -36.5t-29.5 -90.5z" />
    <glyph glyph-name="abreve.salt" horiz-adv-x="568" 
d="M498 382v-330q0 -25 -16 -42.5t-42 -17.5t-42 18t-16 43v7q-44 -72 -137 -72q-95 0 -149 67.5t-54 161.5t54.5 161.5t148.5 67.5q91 0 133 -71v7q0 25 17.5 42.5t42.5 17.5t42.5 -17.5t17.5 -42.5zM162 217q0 -54 29.5 -90.5t79.5 -36.5t78.5 37t28.5 90t-29 90t-78 37
q-50 0 -79.5 -36.5t-29.5 -90.5zM431 609q0 -55 -36 -88.5t-102 -33.5q-67 0 -102 33.5t-35 90.5q0 15 10.5 24.5t25.5 10.5q16 1 28 -9t12 -29q0 -24 15 -39t46 -15q61 0 61 54q0 17 11 27t26 10q16 0 28 -9.5t12 -26.5z" />
    <glyph glyph-name="acircumflex.salt" horiz-adv-x="568" 
d="M266 649q11 10 26 10q16 0 27 -10l100 -88q13 -13 13 -30q0 -15 -12 -26.5t-27 -11.5q-14 0 -26 9l-75 66l-74 -66q-12 -9 -26 -9q-15 0 -26.5 11t-11.5 27q0 18 12 30zM498 382v-330q0 -25 -16 -42.5t-42 -17.5t-42 18t-16 43v7q-44 -72 -137 -72q-95 0 -149 67.5
t-54 161.5t54.5 161.5t148.5 67.5q91 0 133 -71v7q0 25 17.5 42.5t42.5 17.5t42.5 -17.5t17.5 -42.5zM162 217q0 -54 29.5 -90.5t79.5 -36.5t78.5 37t28.5 90t-29 90t-78 37q-50 0 -79.5 -36.5t-29.5 -90.5z" />
    <glyph glyph-name="adieresis.salt" horiz-adv-x="568" 
d="M447 558q0 -25 -18 -42.5t-43 -17.5t-42.5 17.5t-17.5 42.5t17.5 43t42.5 18q26 0 43.5 -17.5t17.5 -43.5zM258 558q0 -25 -17.5 -42.5t-42.5 -17.5t-43 17.5t-18 42.5q0 26 17.5 43.5t43.5 17.5q25 0 42.5 -18t17.5 -43zM498 382v-330q0 -25 -16 -42.5t-42 -17.5t-42 18
t-16 43v7q-44 -72 -137 -72q-95 0 -149 67.5t-54 161.5t54.5 161.5t148.5 67.5q91 0 133 -71v7q0 25 17.5 42.5t42.5 17.5t42.5 -17.5t17.5 -42.5zM162 217q0 -54 29.5 -90.5t79.5 -36.5t78.5 37t28.5 90t-29 90t-78 37q-50 0 -79.5 -36.5t-29.5 -90.5z" />
    <glyph glyph-name="agrave.salt" horiz-adv-x="568" 
d="M219 666q24 0 38 -19l60 -78q12 -14 12 -30q0 -18 -15 -32t-33 -14q-25 0 -39 19l-58 78q-11 15 -11 29q0 21 13 34t33 13zM498 382v-330q0 -25 -16 -42.5t-42 -17.5t-42 18t-16 43v7q-44 -72 -137 -72q-95 0 -149 67.5t-54 161.5t54.5 161.5t148.5 67.5q91 0 133 -71v7
q0 25 17.5 42.5t42.5 17.5t42.5 -17.5t17.5 -42.5zM162 217q0 -54 29.5 -90.5t79.5 -36.5t78.5 37t28.5 90t-29 90t-78 37q-50 0 -79.5 -36.5t-29.5 -90.5z" />
    <glyph glyph-name="amacron.salt" horiz-adv-x="568" 
d="M498 382v-330q0 -25 -16 -42.5t-42 -17.5t-42 18t-16 43v7q-44 -72 -137 -72q-95 0 -149 67.5t-54 161.5t54.5 161.5t148.5 67.5q91 0 133 -71v7q0 25 17.5 42.5t42.5 17.5t42.5 -17.5t17.5 -42.5zM162 217q0 -54 29.5 -90.5t79.5 -36.5t78.5 37t28.5 90t-29 90t-78 37
q-50 0 -79.5 -36.5t-29.5 -90.5zM443 561q0 -15 -12 -27t-27 -12h-219q-15 0 -26.5 12t-11.5 27t11.5 26.5t26.5 11.5h219q15 0 27 -11.5t12 -26.5z" />
    <glyph glyph-name="aogonek.salt" horiz-adv-x="568" 
d="M496 -140q0 -21 -24 -33t-63 -12q-48 0 -72 21.5t-24 53.5q0 37 33 66t70 41q-34 15 -34 56v7q-44 -72 -137 -72q-95 0 -149 67.5t-54 161.5t54.5 161.5t148.5 67.5q91 0 133 -71v7q0 25 17.5 42.5t42.5 17.5t42.5 -17.5t17.5 -42.5v-330q0 -34 -33 -55q-62 -40 -62 -88
q0 -25 27 -25q8 0 21 2.5t19 2.5q12 0 19 -8.5t7 -20.5zM162 217q0 -54 29.5 -90.5t79.5 -36.5t78.5 37t28.5 90t-29 90t-78 37q-50 0 -79.5 -36.5t-29.5 -90.5z" />
    <glyph glyph-name="aring.salt" horiz-adv-x="568" 
d="M377 563q0 -35 -24.5 -58.5t-60.5 -23.5q-35 0 -60 24t-25 58q0 35 25 58.5t60 23.5q36 0 60.5 -23t24.5 -59zM330 563q0 17 -10.5 27t-27.5 10q-16 0 -26.5 -10t-10.5 -27q0 -16 10 -26.5t27 -10.5q18 0 28 10.5t10 26.5zM498 382v-330q0 -25 -16 -42.5t-42 -17.5
t-42 18t-16 43v7q-44 -72 -137 -72q-95 0 -149 67.5t-54 161.5t54.5 161.5t148.5 67.5q91 0 133 -71v7q0 25 17.5 42.5t42.5 17.5t42.5 -17.5t17.5 -42.5zM162 217q0 -54 29.5 -90.5t79.5 -36.5t78.5 37t28.5 90t-29 90t-78 37q-50 0 -79.5 -36.5t-29.5 -90.5z" />
    <glyph glyph-name="aringacute.salt" horiz-adv-x="568" 
d="M498 382v-330q0 -25 -16 -42.5t-42 -17.5t-42 18t-16 43v7q-44 -72 -137 -72q-95 0 -149 67.5t-54 161.5t54.5 161.5t148.5 67.5q91 0 133 -71v7q0 25 17.5 42.5t42.5 17.5t42.5 -17.5t17.5 -42.5zM162 217q0 -54 29.5 -90.5t79.5 -36.5t78.5 37t28.5 90t-29 90t-78 37
q-50 0 -79.5 -36.5t-29.5 -90.5zM364 563q0 -35 -24.5 -58.5t-60.5 -23.5t-60.5 23.5t-24.5 58.5t25 58.5t60 23.5q36 0 60.5 -23t24.5 -59zM310 563q0 15 -8.5 24t-22.5 9t-22.5 -9t-8.5 -24t8.5 -24t22.5 -9t22.5 9t8.5 24zM322 822q20 0 33 -13t13 -34q0 -14 -11 -29
l-32 -44q-14 -19 -39 -19q-18 0 -33 14t-15 32q0 16 12 30l34 44q14 19 38 19z" />
    <glyph glyph-name="atilde.salt" horiz-adv-x="568" 
d="M443 569q0 -29 -28.5 -49.5t-62.5 -20.5q-20 0 -54 16t-50 16q-20 0 -38.5 -16t-31.5 -16q-16 0 -27.5 10.5t-11.5 26.5q0 29 31.5 51.5t69.5 22.5q23 0 56.5 -15t47.5 -15t33 13t29 13q15 0 26 -10t11 -27zM498 382v-330q0 -25 -16 -42.5t-42 -17.5t-42 18t-16 43v7
q-44 -72 -137 -72q-95 0 -149 67.5t-54 161.5t54.5 161.5t148.5 67.5q91 0 133 -71v7q0 25 17.5 42.5t42.5 17.5t42.5 -17.5t17.5 -42.5zM162 217q0 -54 29.5 -90.5t79.5 -36.5t78.5 37t28.5 90t-29 90t-78 37q-50 0 -79.5 -36.5t-29.5 -90.5z" />
    <glyph glyph-name="yacute.salt" horiz-adv-x="560" 
d="M341 666q20 0 33 -13t13 -34q0 -14 -11 -29l-58 -78q-14 -19 -39 -19q-18 0 -33 14t-15 32q0 16 12 30l60 78q14 19 38 19zM185 210q0 -46 23 -75t68 -29q47 0 70.5 30t23.5 74v172q0 25 17.5 42.5t42.5 17.5t42.5 -17.5t17.5 -42.5v-355q0 -110 -56 -166t-177 -56
q-80 0 -142 32q-32 16 -32 49q0 44 48 44q21 0 54 -15t77 -15q62 0 85 28t23 89v54q-40 -73 -129 -73q-82 0 -129 57t-47 149v178q0 25 17.5 42.5t42.5 17.5t42.5 -17.5t17.5 -42.5v-172z" />
    <glyph glyph-name="ycircumflex.salt" horiz-adv-x="560" 
d="M185 210q0 -46 23 -75t68 -29q47 0 70.5 30t23.5 74v172q0 25 17.5 42.5t42.5 17.5t42.5 -17.5t17.5 -42.5v-355q0 -110 -56 -166t-177 -56q-80 0 -142 32q-32 16 -32 49q0 44 48 44q21 0 54 -15t77 -15q62 0 85 28t23 89v54q-40 -73 -129 -73q-82 0 -129 57t-47 149v178
q0 25 17.5 42.5t42.5 17.5t42.5 -17.5t17.5 -42.5v-172zM259 649q11 10 26 10q16 0 27 -10l100 -88q13 -13 13 -30q0 -15 -12 -26.5t-27 -11.5q-14 0 -26 9l-75 66l-74 -66q-12 -9 -26 -9q-15 0 -26.5 11t-11.5 27q0 18 12 30z" />
    <glyph glyph-name="ydieresis.salt" horiz-adv-x="560" 
d="M438 558q0 -25 -18 -42.5t-43 -17.5t-42.5 17.5t-17.5 42.5t17.5 43t42.5 18t43 -17.5t18 -43.5zM249 558q0 -25 -17.5 -42.5t-42.5 -17.5t-43 17.5t-18 42.5q0 26 18 43.5t43 17.5t42.5 -18t17.5 -43zM185 210q0 -46 23 -75t68 -29q47 0 70.5 30t23.5 74v172
q0 25 17.5 42.5t42.5 17.5t42.5 -17.5t17.5 -42.5v-355q0 -110 -56 -166t-177 -56q-80 0 -142 32q-32 16 -32 49q0 44 48 44q21 0 54 -15t77 -15q62 0 85 28t23 89v54q-40 -73 -129 -73q-82 0 -129 57t-47 149v178q0 25 17.5 42.5t42.5 17.5t42.5 -17.5t17.5 -42.5v-172z
" />
    <glyph glyph-name="ygrave.salt" horiz-adv-x="560" 
d="M185 210q0 -46 23 -75t68 -29q47 0 70.5 30t23.5 74v172q0 25 17.5 42.5t42.5 17.5t42.5 -17.5t17.5 -42.5v-355q0 -110 -56 -166t-177 -56q-80 0 -142 32q-32 16 -32 49q0 44 48 44q21 0 54 -15t77 -15q62 0 85 28t23 89v54q-40 -73 -129 -73q-82 0 -129 57t-47 149v178
q0 25 17.5 42.5t42.5 17.5t42.5 -17.5t17.5 -42.5v-172zM229 666q24 0 38 -19l60 -78q12 -14 12 -30q0 -18 -15 -32t-33 -14q-25 0 -39 19l-58 78q-11 15 -11 29q0 21 13 34t33 13z" />
    <glyph glyph-name="a.swsh" horiz-adv-x="568" 
d="M498 382v-330q0 -25 -16 -42.5t-42 -17.5t-42 18t-16 43v7q-44 -72 -137 -72q-95 0 -149 67.5t-54 161.5t54.5 161.5t148.5 67.5q91 0 133 -71v7q0 25 17.5 42.5t42.5 17.5t42.5 -17.5t17.5 -42.5zM162 217q0 -54 29.5 -90.5t79.5 -36.5t78.5 37t28.5 90t-29 90t-78 37
q-50 0 -79.5 -36.5t-29.5 -90.5z" />
    <glyph glyph-name="y.swsh" horiz-adv-x="560" 
d="M185 210q0 -46 23 -75t68 -29q47 0 70.5 30t23.5 74v172q0 25 17.5 42.5t42.5 17.5t42.5 -17.5t17.5 -42.5v-355q0 -110 -56 -166t-177 -56q-80 0 -142 32q-32 16 -32 49q0 44 48 44q21 0 54 -15t77 -15q62 0 85 28t23 89v54q-40 -73 -129 -73q-82 0 -129 57t-47 149v178
q0 25 17.5 42.5t42.5 17.5t42.5 -17.5t17.5 -42.5v-172z" />
    <glyph glyph-name="aacute.swsh" horiz-adv-x="568" 
d="M340 666q20 0 33 -13t13 -34q0 -14 -11 -29l-58 -78q-14 -19 -39 -19q-18 0 -33 14t-15 32q0 16 12 30l60 78q14 19 38 19zM498 382v-330q0 -25 -16 -42.5t-42 -17.5t-42 18t-16 43v7q-44 -72 -137 -72q-95 0 -149 67.5t-54 161.5t54.5 161.5t148.5 67.5q91 0 133 -71v7
q0 25 17.5 42.5t42.5 17.5t42.5 -17.5t17.5 -42.5zM162 217q0 -54 29.5 -90.5t79.5 -36.5t78.5 37t28.5 90t-29 90t-78 37q-50 0 -79.5 -36.5t-29.5 -90.5z" />
    <glyph glyph-name="abreve.swsh" horiz-adv-x="568" 
d="M498 382v-330q0 -25 -16 -42.5t-42 -17.5t-42 18t-16 43v7q-44 -72 -137 -72q-95 0 -149 67.5t-54 161.5t54.5 161.5t148.5 67.5q91 0 133 -71v7q0 25 17.5 42.5t42.5 17.5t42.5 -17.5t17.5 -42.5zM162 217q0 -54 29.5 -90.5t79.5 -36.5t78.5 37t28.5 90t-29 90t-78 37
q-50 0 -79.5 -36.5t-29.5 -90.5zM431 609q0 -55 -36 -88.5t-102 -33.5q-67 0 -102 33.5t-35 90.5q0 15 10.5 24.5t25.5 10.5q16 1 28 -9t12 -29q0 -24 15 -39t46 -15q61 0 61 54q0 17 11 27t26 10q16 0 28 -9.5t12 -26.5z" />
    <glyph glyph-name="acircumflex.swsh" horiz-adv-x="568" 
d="M266 649q11 10 26 10q16 0 27 -10l100 -88q13 -13 13 -30q0 -15 -12 -26.5t-27 -11.5q-14 0 -26 9l-75 66l-74 -66q-12 -9 -26 -9q-15 0 -26.5 11t-11.5 27q0 18 12 30zM498 382v-330q0 -25 -16 -42.5t-42 -17.5t-42 18t-16 43v7q-44 -72 -137 -72q-95 0 -149 67.5
t-54 161.5t54.5 161.5t148.5 67.5q91 0 133 -71v7q0 25 17.5 42.5t42.5 17.5t42.5 -17.5t17.5 -42.5zM162 217q0 -54 29.5 -90.5t79.5 -36.5t78.5 37t28.5 90t-29 90t-78 37q-50 0 -79.5 -36.5t-29.5 -90.5z" />
    <glyph glyph-name="adieresis.swsh" horiz-adv-x="568" 
d="M447 558q0 -25 -18 -42.5t-43 -17.5t-42.5 17.5t-17.5 42.5t17.5 43t42.5 18q26 0 43.5 -17.5t17.5 -43.5zM258 558q0 -25 -17.5 -42.5t-42.5 -17.5t-43 17.5t-18 42.5q0 26 17.5 43.5t43.5 17.5q25 0 42.5 -18t17.5 -43zM498 382v-330q0 -25 -16 -42.5t-42 -17.5t-42 18
t-16 43v7q-44 -72 -137 -72q-95 0 -149 67.5t-54 161.5t54.5 161.5t148.5 67.5q91 0 133 -71v7q0 25 17.5 42.5t42.5 17.5t42.5 -17.5t17.5 -42.5zM162 217q0 -54 29.5 -90.5t79.5 -36.5t78.5 37t28.5 90t-29 90t-78 37q-50 0 -79.5 -36.5t-29.5 -90.5z" />
    <glyph glyph-name="agrave.swsh" horiz-adv-x="568" 
d="M219 666q24 0 38 -19l60 -78q12 -14 12 -30q0 -18 -15 -32t-33 -14q-25 0 -39 19l-58 78q-11 15 -11 29q0 21 13 34t33 13zM498 382v-330q0 -25 -16 -42.5t-42 -17.5t-42 18t-16 43v7q-44 -72 -137 -72q-95 0 -149 67.5t-54 161.5t54.5 161.5t148.5 67.5q91 0 133 -71v7
q0 25 17.5 42.5t42.5 17.5t42.5 -17.5t17.5 -42.5zM162 217q0 -54 29.5 -90.5t79.5 -36.5t78.5 37t28.5 90t-29 90t-78 37q-50 0 -79.5 -36.5t-29.5 -90.5z" />
    <glyph glyph-name="amacron.swsh" horiz-adv-x="568" 
d="M498 382v-330q0 -25 -16 -42.5t-42 -17.5t-42 18t-16 43v7q-44 -72 -137 -72q-95 0 -149 67.5t-54 161.5t54.5 161.5t148.5 67.5q91 0 133 -71v7q0 25 17.5 42.5t42.5 17.5t42.5 -17.5t17.5 -42.5zM162 217q0 -54 29.5 -90.5t79.5 -36.5t78.5 37t28.5 90t-29 90t-78 37
q-50 0 -79.5 -36.5t-29.5 -90.5zM443 561q0 -15 -12 -27t-27 -12h-219q-15 0 -26.5 12t-11.5 27t11.5 26.5t26.5 11.5h219q15 0 27 -11.5t12 -26.5z" />
    <glyph glyph-name="aogonek.swsh" horiz-adv-x="568" 
d="M496 -140q0 -21 -24 -33t-63 -12q-48 0 -72 21.5t-24 53.5q0 37 33 66t70 41q-34 15 -34 56v7q-44 -72 -137 -72q-95 0 -149 67.5t-54 161.5t54.5 161.5t148.5 67.5q91 0 133 -71v7q0 25 17.5 42.5t42.5 17.5t42.5 -17.5t17.5 -42.5v-330q0 -34 -33 -55q-62 -40 -62 -88
q0 -25 27 -25q8 0 21 2.5t19 2.5q12 0 19 -8.5t7 -20.5zM162 217q0 -54 29.5 -90.5t79.5 -36.5t78.5 37t28.5 90t-29 90t-78 37q-50 0 -79.5 -36.5t-29.5 -90.5z" />
    <glyph glyph-name="aring.swsh" horiz-adv-x="568" 
d="M377 563q0 -35 -24.5 -58.5t-60.5 -23.5q-35 0 -60 24t-25 58q0 35 25 58.5t60 23.5q36 0 60.5 -23t24.5 -59zM330 563q0 17 -10.5 27t-27.5 10q-16 0 -26.5 -10t-10.5 -27q0 -16 10 -26.5t27 -10.5q18 0 28 10.5t10 26.5zM498 382v-330q0 -25 -16 -42.5t-42 -17.5
t-42 18t-16 43v7q-44 -72 -137 -72q-95 0 -149 67.5t-54 161.5t54.5 161.5t148.5 67.5q91 0 133 -71v7q0 25 17.5 42.5t42.5 17.5t42.5 -17.5t17.5 -42.5zM162 217q0 -54 29.5 -90.5t79.5 -36.5t78.5 37t28.5 90t-29 90t-78 37q-50 0 -79.5 -36.5t-29.5 -90.5z" />
    <glyph glyph-name="aringacute.swsh" horiz-adv-x="568" 
d="M498 382v-330q0 -25 -16 -42.5t-42 -17.5t-42 18t-16 43v7q-44 -72 -137 -72q-95 0 -149 67.5t-54 161.5t54.5 161.5t148.5 67.5q91 0 133 -71v7q0 25 17.5 42.5t42.5 17.5t42.5 -17.5t17.5 -42.5zM162 217q0 -54 29.5 -90.5t79.5 -36.5t78.5 37t28.5 90t-29 90t-78 37
q-50 0 -79.5 -36.5t-29.5 -90.5zM364 563q0 -35 -24.5 -58.5t-60.5 -23.5t-60.5 23.5t-24.5 58.5t25 58.5t60 23.5q36 0 60.5 -23t24.5 -59zM310 563q0 15 -8.5 24t-22.5 9t-22.5 -9t-8.5 -24t8.5 -24t22.5 -9t22.5 9t8.5 24zM322 822q20 0 33 -13t13 -34q0 -14 -11 -29
l-32 -44q-14 -19 -39 -19q-18 0 -33 14t-15 32q0 16 12 30l34 44q14 19 38 19z" />
    <glyph glyph-name="atilde.swsh" horiz-adv-x="568" 
d="M443 569q0 -29 -28.5 -49.5t-62.5 -20.5q-20 0 -54 16t-50 16q-20 0 -38.5 -16t-31.5 -16q-16 0 -27.5 10.5t-11.5 26.5q0 29 31.5 51.5t69.5 22.5q23 0 56.5 -15t47.5 -15t33 13t29 13q15 0 26 -10t11 -27zM498 382v-330q0 -25 -16 -42.5t-42 -17.5t-42 18t-16 43v7
q-44 -72 -137 -72q-95 0 -149 67.5t-54 161.5t54.5 161.5t148.5 67.5q91 0 133 -71v7q0 25 17.5 42.5t42.5 17.5t42.5 -17.5t17.5 -42.5zM162 217q0 -54 29.5 -90.5t79.5 -36.5t78.5 37t28.5 90t-29 90t-78 37q-50 0 -79.5 -36.5t-29.5 -90.5z" />
    <glyph glyph-name="yacute.swsh" horiz-adv-x="560" 
d="M341 666q20 0 33 -13t13 -34q0 -14 -11 -29l-58 -78q-14 -19 -39 -19q-18 0 -33 14t-15 32q0 16 12 30l60 78q14 19 38 19zM185 210q0 -46 23 -75t68 -29q47 0 70.5 30t23.5 74v172q0 25 17.5 42.5t42.5 17.5t42.5 -17.5t17.5 -42.5v-355q0 -110 -56 -166t-177 -56
q-80 0 -142 32q-32 16 -32 49q0 44 48 44q21 0 54 -15t77 -15q62 0 85 28t23 89v54q-40 -73 -129 -73q-82 0 -129 57t-47 149v178q0 25 17.5 42.5t42.5 17.5t42.5 -17.5t17.5 -42.5v-172z" />
    <glyph glyph-name="ycircumflex.swsh" horiz-adv-x="560" 
d="M185 210q0 -46 23 -75t68 -29q47 0 70.5 30t23.5 74v172q0 25 17.5 42.5t42.5 17.5t42.5 -17.5t17.5 -42.5v-355q0 -110 -56 -166t-177 -56q-80 0 -142 32q-32 16 -32 49q0 44 48 44q21 0 54 -15t77 -15q62 0 85 28t23 89v54q-40 -73 -129 -73q-82 0 -129 57t-47 149v178
q0 25 17.5 42.5t42.5 17.5t42.5 -17.5t17.5 -42.5v-172zM259 649q11 10 26 10q16 0 27 -10l100 -88q13 -13 13 -30q0 -15 -12 -26.5t-27 -11.5q-14 0 -26 9l-75 66l-74 -66q-12 -9 -26 -9q-15 0 -26.5 11t-11.5 27q0 18 12 30z" />
    <glyph glyph-name="ydieresis.swsh" horiz-adv-x="560" 
d="M438 558q0 -25 -18 -42.5t-43 -17.5t-42.5 17.5t-17.5 42.5t17.5 43t42.5 18t43 -17.5t18 -43.5zM249 558q0 -25 -17.5 -42.5t-42.5 -17.5t-43 17.5t-18 42.5q0 26 18 43.5t43 17.5t42.5 -18t17.5 -43zM185 210q0 -46 23 -75t68 -29q47 0 70.5 30t23.5 74v172
q0 25 17.5 42.5t42.5 17.5t42.5 -17.5t17.5 -42.5v-355q0 -110 -56 -166t-177 -56q-80 0 -142 32q-32 16 -32 49q0 44 48 44q21 0 54 -15t77 -15q62 0 85 28t23 89v54q-40 -73 -129 -73q-82 0 -129 57t-47 149v178q0 25 17.5 42.5t42.5 17.5t42.5 -17.5t17.5 -42.5v-172z
" />
    <glyph glyph-name="ygrave.swsh" horiz-adv-x="560" 
d="M185 210q0 -46 23 -75t68 -29q47 0 70.5 30t23.5 74v172q0 25 17.5 42.5t42.5 17.5t42.5 -17.5t17.5 -42.5v-355q0 -110 -56 -166t-177 -56q-80 0 -142 32q-32 16 -32 49q0 44 48 44q21 0 54 -15t77 -15q62 0 85 28t23 89v54q-40 -73 -129 -73q-82 0 -129 57t-47 149v178
q0 25 17.5 42.5t42.5 17.5t42.5 -17.5t17.5 -42.5v-172zM229 666q24 0 38 -19l60 -78q12 -14 12 -30q0 -18 -15 -32t-33 -14q-25 0 -39 19l-58 78q-11 15 -11 29q0 21 13 34t33 13z" />
    <glyph glyph-name="minus.onum" horiz-adv-x="514" 
d="M444 248q0 -21 -15.5 -36t-36.5 -15h-270q-21 0 -36.5 15t-15.5 36q0 22 15.5 37t36.5 15h270q21 0 36.5 -15t15.5 -37z" />
    <glyph glyph-name="multiply.onum" horiz-adv-x="520" 
d="M435 83q0 -19 -14.5 -33.5t-33.5 -14.5q-20 0 -34 14l-93 93l-93 -93q-14 -14 -34 -14q-19 0 -33.5 14.5t-14.5 33.5q0 20 14 34l93 93l-93 93q-14 14 -14 34t14 34.5t34 14.5t34 -14l93 -93l93 93q14 14 34 14t34 -14t14 -34q0 -21 -14 -35l-93 -93l93 -93
q14 -14 14 -34z" />
    <glyph glyph-name="numbersign.onum" horiz-adv-x="723" 
d="M113 346q-17 0 -28.5 10.5t-11.5 27.5q0 22 13.5 35.5t36.5 13.5h78l10 92q2 22 16 35.5t37 13.5t34 -13.5t9 -35.5l-10 -92h173l10 92q5 49 53 49q23 0 34 -14.5t9 -34.5l-10 -92h76q17 0 28 -11t11 -29q0 -20 -13.5 -33.5t-35.5 -13.5h-76l-14 -134h76q17 0 28 -10
t11 -28q0 -21 -13.5 -35t-35.5 -14h-76l-8 -84q-5 -49 -53 -49q-21 0 -33 14.5t-10 34.5l8 84h-173l-9 -84q-6 -49 -53 -49q-22 0 -33.5 14.5t-9.5 34.5l9 84h-78q-17 0 -28 11.5t-11 27.5q0 23 14 35.5t35 12.5h78l14 134h-78zM287 346l-14 -134h173l14 134h-173z" />
    <glyph glyph-name="dollar.onum" horiz-adv-x="552" 
d="M231 -55v58q-76 11 -140 52q-33 20 -33 51q0 20 13.5 33.5t34.5 13.5q20 0 37 -12q67 -44 139 -44q45 0 72 17t27 46q0 30 -26.5 46t-93.5 36q-103 30 -146 68t-43 99q0 65 44 105t123 49v58q0 21 14.5 35.5t35.5 14.5t35.5 -14.5t14.5 -35.5v-59q54 -8 110 -32
q34 -16 34 -48q0 -20 -13.5 -34.5t-34.5 -14.5q-12 0 -26 6q-68 30 -127 30q-94 0 -94 -52q0 -25 23.5 -38.5t85.5 -32.5q110 -34 155 -69.5t45 -102.5q0 -68 -43.5 -113.5t-122.5 -57.5v-58q0 -21 -14.5 -35.5t-35.5 -14.5t-35.5 14.5t-14.5 35.5z" />
    <glyph glyph-name="plus.onum" horiz-adv-x="580" 
d="M515 217q0 -19 -14.5 -33.5t-33.5 -14.5h-124v-124q0 -22 -15.5 -37.5t-37.5 -15.5t-37.5 15.5t-15.5 37.5v124h-124q-20 0 -34 14t-14 34t14 34t34 14h124v124q0 22 15.5 37.5t37.5 15.5t37.5 -15.5t15.5 -37.5v-124h124q19 0 33.5 -14.5t14.5 -33.5z" />
    <glyph glyph-name="zero.onum" horiz-adv-x="608" 
d="M563 241q0 -110 -73 -181.5t-186 -71.5t-186 71.5t-73 181.5t73 181.5t186 71.5t186 -71.5t73 -181.5zM165 241q0 -66 38.5 -108.5t100.5 -42.5t100.5 42.5t38.5 108.5t-38.5 108.5t-100.5 42.5t-100.5 -42.5t-38.5 -108.5z" />
    <glyph glyph-name="one.onum" horiz-adv-x="394" 
d="M89 325q-8 -2 -12 -2q-23 0 -40 16t-17 40q0 40 39 52l175 52q12 4 20 4q27 0 43.5 -16t16.5 -45v-374q0 -25 -17.5 -42.5t-42.5 -17.5q-24 0 -42 17.5t-18 42.5v304z" />
    <glyph glyph-name="two.onum" horiz-adv-x="557" 
d="M517 50q0 -20 -14 -35t-37 -15h-351q-27 0 -43.5 15.5t-16.5 36.5q0 39 35 60q61 37 146 87q75 43 100.5 70.5t25.5 60.5q0 61 -91 61q-46 0 -117 -26q-13 -5 -24 -5q-22 0 -35.5 14.5t-13.5 35.5q0 34 37 51q74 33 158 33q96 0 151 -39.5t55 -113.5q0 -108 -112 -181
q-73 -48 -101 -61h197q22 0 36.5 -13.5t14.5 -35.5z" />
    <glyph glyph-name="three.onum" horiz-adv-x="545" 
d="M500 10q0 -93 -71 -149t-183 -56q-111 0 -201 53q-23 13 -23 43q0 24 16 36.5t38 12.5q11 0 37 -11q69 -32 127 -32q66 0 103 27.5t37 73.5q0 106 -168 106h-40q-23 0 -38.5 16t-15.5 38q0 24 15 39t39 15h5q79 0 126 28t47 71q0 71 -97 71q-43 0 -111 -28q-11 -5 -24 -5
q-22 0 -36 14t-14 34q0 32 38 51q72 36 158 36q95 0 150.5 -43.5t55.5 -120.5q0 -48 -30 -89t-86 -63q64 -12 105 -54t41 -114z" />
    <glyph glyph-name="four.onum" horiz-adv-x="620" 
d="M558 14h-77v-150q0 -25 -16.5 -42t-41.5 -17t-41.5 17t-16.5 42v150h-288q-22 0 -37 13t-15 34q0 19 17 39l334 365q21 22 49 22q56 0 56 -59v-320h77q23 0 37.5 -13t14.5 -34t-14.5 -34t-37.5 -13zM175 108h190v208z" />
    <glyph glyph-name="five.onum" horiz-adv-x="560" 
d="M525 20q0 -91 -69 -153t-194 -62q-106 0 -187 49q-25 16 -25 44q0 24 15 37t39 13q12 0 30 -9q65 -35 132 -35q71 0 105.5 32t34.5 81q0 51 -36.5 77t-98.5 26q-43 0 -101 -21q-19 -7 -30 -7q-29 0 -43.5 15.5t-11.5 38.5l39 287q3 23 18.5 36t38.5 13h253q23 0 39 -16
t16 -38t-16 -37t-39 -15h-203l-22 -166q39 14 85 14q101 0 166 -54t65 -150z" />
    <glyph glyph-name="six.onum" horiz-adv-x="589" 
d="M394 574q-80 -45 -129.5 -90.5t-86.5 -124.5q59 65 154 65q100 0 157.5 -61.5t57.5 -153.5q0 -96 -68.5 -158.5t-180.5 -62.5q-114 0 -181 68.5t-67 175.5q0 226 190 372q96 74 164 74q22 0 36 -12.5t14 -29.5q0 -20 -12 -31t-48 -31zM431 210q0 50 -32 83.5t-92 33.5
t-95 -34.5t-35 -88.5q0 -52 32.5 -85.5t93.5 -33.5q58 0 93 35t35 90z" />
    <glyph glyph-name="seven.onum" horiz-adv-x="514" 
d="M496 430q0 -20 -8 -38q-51 -107 -134 -277.5t-127 -261.5q-23 -48 -61 -48t-50 30.5t3 54.5q215 429 242 486h-286q-22 0 -37.5 15.5t-15.5 37.5t15.5 37.5t37.5 15.5h361q26 0 43 -13.5t17 -38.5z" />
    <glyph glyph-name="eight.onum" horiz-adv-x="620" 
d="M521 503q0 -85 -77 -137q54 -20 90 -62.5t36 -109.5q0 -89 -68 -147.5t-192 -58.5t-192 58.5t-68 147.5q0 67 36 109.5t90 62.5q-77 52 -77 137q0 77 56 126t155 49t155 -49t56 -126zM310 87q66 0 103.5 31t37.5 77q0 51 -36.5 80.5t-104.5 29.5t-104.5 -29.5
t-36.5 -80.5q0 -46 37.5 -77t103.5 -31zM310 399q43 0 69 25t26 67q0 40 -25 64.5t-70 24.5t-70 -24.5t-25 -64.5q0 -42 26 -67t69 -25z" />
    <glyph glyph-name="nine.onum" horiz-adv-x="589" 
d="M214 -90q71 42 116 86.5t84 126.5q-59 -65 -154 -65q-100 0 -157.5 61t-57.5 153q0 96 70 159t179 63q115 0 180 -66.5t65 -176.5q0 -234 -179 -372q-96 -74 -162 -74q-24 0 -37 12t-13 30q0 8 2.5 14t5 10.5t10.5 10t12.5 8.5t16.5 9.5t19 10.5zM161 272q0 -50 32 -83.5
t92 -33.5t95 34.5t35 88.5q0 52 -32.5 85.5t-93.5 33.5q-58 0 -93 -35t-35 -90z" />
    <glyph glyph-name="less.onum" horiz-adv-x="554" 
d="M472 350l-287 -133l287 -133q27 -14 27 -44q0 -22 -15 -37t-37 -15q-15 0 -28 7l-346 176q-28 16 -28 46t28 46l346 176q13 7 28 7q22 0 37 -15t15 -37q0 -30 -27 -44z" />
    <glyph glyph-name="equal.onum" horiz-adv-x="556" 
d="M481 299q0 -19 -13.5 -33t-33.5 -14h-312q-20 0 -33.5 14t-13.5 33t13.5 33t33.5 14h312q20 0 33.5 -14t13.5 -33zM481 123q0 -19 -13.5 -33t-33.5 -14h-312q-20 0 -33.5 14t-13.5 33t13.5 33t33.5 14h312q20 0 33.5 -14t13.5 -33z" />
    <glyph glyph-name="greater.onum" horiz-adv-x="554" 
d="M369 217l-287 133q-27 14 -27 44q0 22 15 37t37 15q15 0 28 -7l346 -176q28 -16 28 -46t-28 -46l-346 -176q-13 -7 -28 -7q-22 0 -37 15t-15 37q0 30 27 44z" />
    <glyph glyph-name="cent.onum" horiz-adv-x="563" 
d="M264 -44v80q-87 17 -140.5 78t-53.5 147t53.5 147t140.5 77v81q0 21 14.5 35.5t35.5 14.5t35.5 -14.5t14.5 -35.5v-81q78 -13 117 -54q17 -19 17 -41q0 -20 -13 -33t-34 -13t-37 12q-43 32 -96 32q-57 0 -92.5 -35.5t-35.5 -91.5t35.5 -91.5t92.5 -35.5q53 0 96 32
q16 12 37 12t34 -13t13 -33q0 -22 -17 -41q-36 -39 -117 -56v-79q0 -21 -14.5 -35.5t-35.5 -14.5t-35.5 14.5t-14.5 35.5z" />
    <glyph glyph-name="sterling.onum" horiz-adv-x="654" 
d="M333 233v-139h200q22 0 36.5 -12.5t14.5 -34.5t-14.5 -34.5t-36.5 -12.5h-422q-22 0 -36.5 12.5t-14.5 34.5t14.5 34.5t36.5 12.5h102v139h-92q-22 0 -36.5 12.5t-14.5 34.5t14.5 34.5t36.5 12.5h92v32q0 102 56.5 160.5t169.5 58.5q62 0 120 -25q40 -17 40 -50
q0 -23 -14.5 -37t-40.5 -14q-7 0 -21 4q-47 15 -82 15q-56 0 -82 -26t-26 -81v-37h164q22 0 36.5 -12.5t14.5 -34.5t-14.5 -34.5t-36.5 -12.5h-164z" />
    <glyph glyph-name="notequal.onum" horiz-adv-x="566" 
d="M212 14q-8 -14 -24 -14q-12 0 -19.5 7.5t-7.5 17.5q0 7 3 15l18 36h-55q-19 0 -33 14t-14 33t14 33t33 14h103l40 82h-143q-19 0 -33 14t-14 33t14 33t33 14h191l33 65q6 15 24 15q12 0 19.5 -8t7.5 -18q0 -8 -3 -15l-20 -39h60q19 0 33 -14t14 -33t-14 -33t-33 -14h-108
l-40 -82h148q19 0 33 -14t14 -33t-14 -33t-33 -14h-196z" />
    <glyph glyph-name="plusminus.onum" horiz-adv-x="610" 
d="M128 0q-20 0 -34 13.5t-14 32.5q0 20 14 33t34 13h124v121h-124q-20 0 -34 13.5t-14 32.5q0 20 14 33t34 13h124v106q0 22 15.5 37.5t37.5 15.5t37.5 -15.5t15.5 -37.5v-106h124q20 0 34 -13.5t14 -32.5t-14 -32.5t-34 -13.5h-124v-121h124q20 0 34 -13.5t14 -32.5
t-14 -32.5t-34 -13.5h-354z" />
    <glyph glyph-name="yen.onum" horiz-adv-x="586" 
d="M530 491l-96 -150h56q15 0 25.5 -10.5t10.5 -25.5t-10.5 -25.5t-25.5 -10.5h-102l-36 -56v-8h138q15 0 25.5 -10t10.5 -25t-10.5 -25t-25.5 -10h-138v-81q0 -26 -17 -44t-42 -18t-42 18t-17 44v81h-138q-15 0 -25.5 10t-10.5 25t10.5 25t25.5 10h138v8l-36 56h-102
q-15 0 -25.5 10.5t-10.5 25.5t10.5 25.5t25.5 10.5h56l-96 150q-11 17 -11 34q0 23 14.5 36t37.5 13q30 0 48 -27l148 -244l148 244q18 27 48 27q23 0 37.5 -13t14.5 -36q0 -17 -11 -34z" />
    <glyph glyph-name="florin.onum" horiz-adv-x="535" 
d="M190 202h-54q-19 0 -31.5 12t-12.5 30q0 28 16 43t44 15h56l18 102q15 84 57 127t134 43h32q51 0 51 -44q0 -24 -15 -40t-47 -16h-16q-63 0 -74 -63l-19 -109h81q19 0 30.5 -11.5t11.5 -29.5q0 -25 -16.5 -42t-43.5 -17h-81l-40 -230q-15 -84 -58.5 -125.5t-143.5 -41.5
h-23q-18 0 -29.5 11.5t-11.5 29.5q0 28 17.5 43.5t41.5 15.5h11q35 0 51.5 13t21.5 44z" />
    <glyph glyph-name="approxequal.onum" horiz-adv-x="568" 
d="M430 364q8 8 22 8q17 0 29 -11.5t12 -28.5q0 -25 -41.5 -58.5t-92.5 -33.5q-32 0 -71 23.5t-66 23.5q-22 0 -52.5 -19t-42.5 -19q-15 0 -28.5 11t-13.5 27q0 30 43 62.5t97 32.5q37 0 80 -25t58 -25q30 0 67 32zM430 186q8 8 22 8q17 0 29 -11.5t12 -28.5
q0 -25 -41.5 -58.5t-92.5 -33.5q-32 0 -71 24t-66 24q-22 0 -52.5 -19.5t-42.5 -19.5q-15 0 -28.5 11.5t-13.5 27.5q0 30 43 62t97 32q37 0 80 -25t58 -25q30 0 67 32z" />
    <glyph glyph-name="divide.onum" horiz-adv-x="600" 
d="M482 173h-364q-20 0 -34 14t-14 34t14 34t34 14h364q20 0 34 -14.5t14 -33.5t-14 -33.5t-34 -14.5zM359 71q0 -24 -17.5 -41.5t-41.5 -17.5q-25 0 -42 17.5t-17 41.5q0 25 17 42t42 17q24 0 41.5 -17t17.5 -42zM359 371q0 -24 -17.5 -41.5t-41.5 -17.5q-25 0 -42 17.5
t-17 41.5q0 25 17 42t42 17q24 0 41.5 -17t17.5 -42z" />
    <glyph glyph-name="Euro.onum" horiz-adv-x="678" 
d="M423 578q114 0 182 -62q18 -16 18 -41q0 -20 -13.5 -33t-34.5 -13t-37 12q-49 36 -112 36q-110 0 -151 -90h180q15 0 25 -10t10 -25t-10 -25t-25 -10h-199q-2 -22 -2 -34q0 -8 2 -34h199q15 0 25 -10t10 -25t-10 -25t-25 -10h-180q40 -90 151 -90q63 0 112 36
q16 12 37 12t34.5 -13t13.5 -33q0 -25 -18 -41q-68 -62 -182 -62q-106 0 -176 52.5t-97 138.5h-75q-15 0 -25 10t-10 25t10 25t25 10h61q-1 11 -1 34t1 34h-61q-15 0 -25 10t-10 25t10 25t25 10h75q27 86 97 138.5t176 52.5z" />
    <glyph glyph-name="minus.tnum" 
d="M512 298q0 -21 -15.5 -36t-36.5 -15h-270q-21 0 -36.5 15t-15.5 36q0 22 15.5 37t36.5 15h270q21 0 36.5 -15t15.5 -37z" />
    <glyph glyph-name="multiply.tnum" 
d="M500 173q0 -19 -14 -33.5t-34 -14.5t-34 14l-93 93l-93 -93q-14 -14 -34 -14t-34 14.5t-14 33.5q0 20 14 34l93 93l-93 93q-14 14 -14 34t14 34.5t34 14.5t34 -14l93 -93l93 93q14 14 34 14t34 -14t14 -34q0 -21 -14 -35l-93 -93l93 -93q14 -14 14 -34z" />
    <glyph glyph-name="numbersign.tnum" horiz-adv-x="735" 
d="M110 412q-17 0 -28.5 11.5t-11.5 28.5q0 21 13 35.5t37 14.5h81l13 123q2 21 16.5 35t37.5 14q19 0 31.5 -13t12.5 -31v-5l-13 -123h181l13 123q2 22 16.5 35.5t37.5 13.5q20 0 32 -12.5t12 -30.5v-6l-13 -123h83q16 0 27.5 -12t11.5 -29q0 -20 -14 -34.5t-35 -14.5h-83
l-16 -150h83q16 0 27.5 -11.5t11.5 -28.5q0 -20 -14 -35t-35 -15h-83l-14 -131q-2 -21 -16.5 -35t-37.5 -14q-18 0 -31 12.5t-13 31.5v5l14 131h-181l-14 -131q-2 -22 -16.5 -35.5t-37.5 -13.5q-18 0 -31 12.5t-13 31.5v5l14 131h-81q-16 0 -27.5 11.5t-11.5 28.5
q0 22 14 36t35 14h81l16 150h-81zM289 412l-16 -150h181l16 150h-181z" />
    <glyph glyph-name="dollar.tnum" 
d="M292 -61v73q-45 5 -93 21q-104 38 -104 91q0 22 12.5 34.5t34.5 12.5q18 0 29 -7q33 -20 50 -28.5t49.5 -17.5t69.5 -9q55 0 85 19.5t30 53.5q0 35 -31 57t-106 48q-118 41 -166.5 86t-48.5 118q0 71 50.5 113t142.5 50v73q0 19 13.5 32.5t32.5 13.5t32.5 -13.5
t13.5 -32.5v-73q28 -3 70 -13q39 -11 68.5 -30.5t29.5 -44.5q0 -20 -11.5 -34.5t-34.5 -14.5q-13 0 -22 4q-32 14 -48 19.5t-42 11t-54 5.5q-126 0 -126 -66q0 -33 26.5 -51t113.5 -51q110 -41 160.5 -82t50.5 -116q0 -69 -47 -117t-138 -61v-74q0 -19 -13.5 -32.5
t-32.5 -13.5t-32.5 13.5t-13.5 32.5z" />
    <glyph glyph-name="plus.tnum" 
d="M560 323q0 -19 -14 -33.5t-34 -14.5h-134v-134q0 -22 -15.5 -37.5t-37.5 -15.5t-37.5 15.5t-15.5 37.5v134h-134q-20 0 -34 14t-14 34t14 34t34 14h134v134q0 22 15.5 37.5t37.5 15.5t37.5 -15.5t15.5 -37.5v-134h134q20 0 34 -14.5t14 -33.5z" />
    <glyph glyph-name="zero.tnum" 
d="M611 333q0 -145 -76 -245t-210 -100t-210 100t-76 245t76 245t210 100t210 -100t76 -245zM491 333q0 107 -46 172t-120 65t-120 -65t-46 -172t46 -172t120 -65t120 65t46 172z" />
    <glyph glyph-name="one.tnum" 
d="M130 0q-22 0 -37.5 16t-15.5 38t15.5 38t37.5 16h156v437l-125 -27q-8 -2 -15 -2q-23 0 -40 16t-17 40q0 43 39 52l189 47q11 3 29 3q27 0 43.5 -16t16.5 -45v-505h139q22 0 37.5 -16t15.5 -38t-15.5 -38t-37.5 -16h-415z" />
    <glyph glyph-name="two.tnum" 
d="M588 54q0 -22 -15.5 -38t-37.5 -16h-420q-22 0 -37.5 16.5t-15.5 38.5q0 101 59.5 166.5t160.5 114.5q113 55 138 73q42 32 42 77q0 41 -37.5 62.5t-99.5 21.5q-53 0 -89 -10.5t-82 -39.5q-13 -8 -26 -8q-23 0 -38 14.5t-15 34.5q0 28 24 48t73 40q72 29 159 29
q113 0 182 -50t69 -140q0 -73 -47 -122.5t-148 -99.5q-52 -26 -77 -39.5t-55.5 -34.5t-42.5 -41t-12 -43h335q22 0 37.5 -16t15.5 -38z" />
    <glyph glyph-name="three.tnum" 
d="M595 194q0 -97 -75 -151.5t-193 -54.5q-69 0 -137.5 22t-115.5 65q-21 21 -21 43q0 26 16 39.5t38 13.5q16 0 30 -10q47 -36 87.5 -53.5t102.5 -17.5q67 0 107.5 29t40.5 81q0 100 -163 100h-56q-22 0 -37 16t-15 36q0 22 14.5 37t37.5 15h44q129 0 129 93q0 39 -28.5 59
t-77.5 20q-57 0 -105 -22q-40 -19 -57 -19q-23 0 -35.5 13.5t-12.5 33.5q0 45 87 76q59 20 133 20q100 0 158 -45.5t58 -126.5q0 -96 -90 -141q136 -42 136 -171z" />
    <glyph glyph-name="four.tnum" 
d="M316 596l-136 -336h219v141q0 25 17 42t42 17t42 -17t17 -42v-141h69q22 0 37.5 -15t15.5 -37t-15.5 -37t-37.5 -15h-69v-105q0 -25 -17 -42t-42 -17t-42 17t-17 42v105h-284q-30 0 -51 16t-21 43q0 13 4 22l161 396q9 22 20.5 31.5t32.5 9.5q26 0 42.5 -15t16.5 -41
q0 -13 -4 -22z" />
    <glyph glyph-name="five.tnum" 
d="M596 216q0 -104 -76.5 -166t-191.5 -62q-149 0 -238 74q-23 20 -23 43q0 25 15.5 40t37.5 15q15 0 30 -9q49 -33 86.5 -46.5t91.5 -13.5q68 0 108 33t40 88q0 52 -40 83.5t-98 31.5q-77 0 -149 -36q-14 -7 -29 -7q-29 0 -43.5 16.5t-11.5 39.5l44 277q3 23 18.5 36
t38.5 13h282q22 0 38.5 -16t16.5 -39q0 -22 -16.5 -38t-38.5 -16h-237l-24 -151q20 11 55.5 19t62.5 8q118 0 184.5 -60.5t66.5 -156.5z" />
    <glyph glyph-name="six.tnum" 
d="M421 574q-186 -84 -235 -227q27 33 76 51t101 18q106 0 169 -60t63 -151q0 -93 -73.5 -155t-185.5 -62q-132 0 -204 69.5t-72 180.5q0 245 226 388q82 52 152 52q22 0 35.5 -11t13.5 -31t-14.5 -32.5t-51.5 -29.5zM475 204q0 50 -35.5 80.5t-101.5 30.5q-62 0 -102.5 -31
t-40.5 -81q0 -53 37.5 -83.5t101.5 -30.5q58 0 99.5 31t41.5 84z" />
    <glyph glyph-name="seven.tnum" 
d="M617 613q0 -16 -10 -29q-115 -133 -174 -250.5t-85 -282.5q-4 -26 -19 -42.5t-41 -16.5q-32 0 -48 21t-12 47q47 321 230 498h-346q-22 0 -37.5 16t-15.5 38t15.5 38t37.5 16h450q55 0 55 -53z" />
    <glyph glyph-name="eight.tnum" 
d="M596 194q0 -87 -73.5 -146.5t-197.5 -59.5t-197.5 59.5t-73.5 146.5q0 118 125 172q-76 58 -76 136q0 76 61.5 126t160.5 50t160 -50t61 -126q0 -79 -75 -136q125 -54 125 -172zM430 491q0 37 -28.5 62t-76.5 25q-49 0 -77 -24t-28 -63q0 -42 29.5 -67t75.5 -25
q45 0 75 25.5t30 66.5zM476 197q0 46 -40.5 77t-110.5 31t-110.5 -31t-40.5 -77q0 -48 41.5 -78.5t109.5 -30.5t109.5 30.5t41.5 78.5z" />
    <glyph glyph-name="nine.tnum" 
d="M234 90q92 39 147.5 93.5t80.5 135.5q-27 -34 -75.5 -51.5t-99.5 -17.5q-111 0 -171.5 59t-60.5 152t75 155t184 62q129 0 201.5 -70t72.5 -180q0 -131 -60 -228t-159 -160q-82 -52 -152 -52q-22 0 -35.5 11t-13.5 31t14.5 32t51.5 28zM175 462q0 -51 34.5 -82.5
t102.5 -31.5q61 0 102 32.5t41 82.5q0 53 -39 82.5t-103 29.5q-59 0 -98.5 -29.5t-39.5 -83.5z" />
    <glyph glyph-name="less.tnum" 
d="M513 456l-287 -133l287 -133q27 -15 27 -44q0 -22 -15 -37t-37 -15q-15 0 -28 7l-346 176q-28 16 -28 46t28 46l346 176q13 7 28 7q22 0 37 -15t15 -37q0 -30 -27 -44z" />
    <glyph glyph-name="equal.tnum" 
d="M533 414q0 -20 -13.5 -33.5t-33.5 -13.5h-322q-20 0 -33.5 13.5t-13.5 33.5t13.5 33.5t33.5 13.5h322q20 0 33.5 -13.5t13.5 -33.5zM533 233q0 -19 -13.5 -33t-33.5 -14h-322q-20 0 -33.5 14t-13.5 33t13.5 33t33.5 14h322q20 0 33.5 -14t13.5 -33z" />
    <glyph glyph-name="greater.tnum" 
d="M424 323l-287 133q-27 14 -27 44q0 22 15 37t37 15q15 0 28 -7l346 -176q28 -16 28 -46t-28 -46l-346 -176q-13 -7 -28 -7q-22 0 -37 15t-15 37q0 31 27 44z" />
    <glyph glyph-name="cent.tnum" 
d="M301 34v74q-86 15 -136.5 77t-50.5 148t50.5 148t136.5 77v74q0 19 13.5 32.5t32.5 13.5t32.5 -13.5t13.5 -32.5v-74q71 -11 111 -55q17 -19 17 -41q0 -20 -13 -33t-34 -13t-37 12q-43 32 -86 32q-55 0 -86 -37t-31 -90t31 -90t86 -37q43 0 86 32q16 12 37 12t34 -13
t13 -33q0 -22 -17 -41q-40 -43 -111 -56v-73q0 -19 -13.5 -32.5t-32.5 -13.5t-32.5 13.5t-13.5 32.5z" />
    <glyph glyph-name="sterling.tnum" 
d="M328 280v-180h210q21 0 36 -14t15 -36t-15 -36t-36 -14h-433q-21 0 -36 14t-15 36t15 36t36 14h103v180h-93q-21 0 -36 14t-15 36t15 36t36 14h93v71q0 108 56 167.5t170 59.5q60 0 113 -21q42 -17 42 -50q0 -22 -14 -36.5t-40 -14.5q-7 0 -21 4q-39 10 -78 10
q-108 0 -108 -109v-81h184q21 0 36 -14t15 -36t-15 -36t-36 -14h-184z" />
    <glyph glyph-name="notequal.tnum" 
d="M254 127q-8 -14 -24 -14q-12 0 -19.5 7.5t-7.5 17.5q0 8 3 15l18 36h-60q-20 0 -33.5 13.5t-13.5 33.5t13.5 33.5t33.5 13.5h108l40 82h-148q-20 0 -33.5 13.5t-13.5 33.5t13.5 33.5t33.5 13.5h196l33 65q6 15 24 15q12 0 19.5 -8t7.5 -18q0 -7 -3 -15l-20 -39h65
q20 0 33.5 -13.5t13.5 -33.5t-13.5 -33.5t-33.5 -13.5h-113l-40 -82h153q20 0 33.5 -13.5t13.5 -33.5t-13.5 -33.5t-33.5 -13.5h-201z" />
    <glyph glyph-name="plusminus.tnum" 
d="M560 345q0 -19 -14 -33.5t-34 -14.5h-134v-116q0 -22 -15.5 -37.5t-37.5 -15.5t-37.5 15.5t-15.5 37.5v116h-134q-20 0 -34 14t-14 34t14 34t34 14h134v112q0 22 15.5 37.5t37.5 15.5t37.5 -15.5t15.5 -37.5v-112h134q20 0 34 -14.5t14 -33.5zM138 0q-20 0 -34 13t-14 32
q0 20 13.5 32.5t34.5 12.5h374q20 0 34 -13t14 -32t-14 -32t-34 -13h-374z" />
    <glyph glyph-name="yen.tnum" 
d="M325 391l158 258q18 25 47 25q22 0 38.5 -13.5t16.5 -36.5q0 -17 -11 -34l-127 -199h76q15 0 25.5 -10.5t10.5 -25.5t-10.5 -25.5t-25.5 -10.5h-122l-16 -26v-42h138q15 0 25.5 -10.5t10.5 -25.5t-10.5 -25.5t-25.5 -10.5h-138v-125q0 -26 -17 -44t-43 -18t-43 18t-17 44
v125h-138q-15 0 -25.5 10.5t-10.5 25.5t10.5 25.5t25.5 10.5h138v42l-17 26h-121q-15 0 -25.5 10.5t-10.5 25.5t10.5 25.5t25.5 10.5h75l-126 199q-11 17 -11 34q0 23 16 36.5t39 13.5q29 0 47 -25z" />
    <glyph glyph-name="florin.tnum" 
d="M256 294h-80q-18 0 -30 13t-12 31q0 26 17.5 41t42.5 15h80l18 101q15 87 59 131t137 44h44q24 0 39.5 -11.5t15.5 -34.5q0 -54 -62 -54h-36q-63 0 -74 -63l-20 -113h85q20 0 34 -12.5t14 -32.5q0 -24 -16.5 -39.5t-43.5 -15.5h-91l-55 -314q-15 -86 -59 -130.5
t-144 -44.5h-43q-19 0 -33.5 13t-14.5 33q0 28 17 41t42 13h38q35 0 51.5 14.5t22.5 48.5z" />
    <glyph glyph-name="approxequal.tnum" 
d="M468 454q8 8 22 8q17 0 29 -11.5t12 -28.5q0 -25 -41.5 -58.5t-92.5 -33.5q-32 0 -71 23.5t-66 23.5q-22 0 -52.5 -19t-42.5 -19q-15 0 -28.5 11t-13.5 27q0 30 43 62.5t97 32.5q37 0 80 -25t58 -25q30 0 67 32zM468 276q8 8 22 8q17 0 29 -11.5t12 -28.5
q0 -25 -41.5 -58.5t-92.5 -33.5q-32 0 -71 24t-66 24q-22 0 -52.5 -19.5t-42.5 -19.5q-15 0 -28.5 11.5t-13.5 27.5q0 30 43 62t97 32q37 0 80 -25t58 -25q30 0 67 32z" />
    <glyph glyph-name="divide.tnum" 
d="M507 267h-364q-20 0 -34 14t-14 34t14 34t34 14h364q19 0 33.5 -14.5t14.5 -33.5t-14.5 -33.5t-33.5 -14.5zM384 145q0 -24 -17.5 -41.5t-41.5 -17.5q-25 0 -42 17.5t-17 41.5q0 25 17 42t42 17q24 0 41.5 -17t17.5 -42zM384 485q0 -24 -17.5 -41.5t-41.5 -17.5
q-25 0 -42 17.5t-17 41.5q0 25 17 42t42 17q24 0 41.5 -17t17.5 -42z" />
    <glyph glyph-name="Euro.tnum" 
d="M121 368h-58q-15 0 -25.5 10.5t-10.5 25.5t10.5 25.5t25.5 10.5h69q17 106 85 172t174 66q65 0 117.5 -28t85.5 -70q18 -23 18 -41q0 -22 -14.5 -35t-35.5 -13q-26 0 -45 24q-50 63 -121 63q-60 0 -97.5 -39t-47.5 -99h208q15 0 25.5 -10.5t10.5 -25.5t-10.5 -25.5
t-25.5 -10.5h-221q-1 -11 -1 -35t1 -35h221q15 0 25.5 -10.5t10.5 -25.5t-10.5 -25.5t-25.5 -10.5h-208q10 -60 47.5 -99t97.5 -39q71 0 121 63q19 24 45 24q21 0 35.5 -13t14.5 -35q0 -18 -18 -41q-33 -42 -85.5 -70t-117.5 -28q-106 0 -174 66t-85 172h-69
q-15 0 -25.5 10.5t-10.5 25.5t10.5 25.5t25.5 10.5h58q-1 11 -1 35t1 35z" />
    <glyph glyph-name="minusonum.tnum" 
d="M512 248q0 -21 -15.5 -36t-36.5 -15h-270q-21 0 -36.5 15t-15.5 36q0 22 15.5 37t36.5 15h270q21 0 36.5 -15t15.5 -37z" />
    <glyph glyph-name="multiplyonum.tnum" 
d="M500 83q0 -19 -14 -33.5t-34 -14.5t-34 14l-93 93l-93 -93q-14 -14 -34 -14t-34 14.5t-14 33.5q0 20 14 34l93 93l-93 93q-14 14 -14 34t14 34.5t34 14.5t34 -14l93 -93l93 93q14 14 34 14t34 -14t14 -34q0 -21 -14 -35l-93 -93l93 -93q14 -14 14 -34z" />
    <glyph glyph-name="numbersignonum.tnum" 
d="M90 346q-17 0 -28.5 10.5t-11.5 27.5q0 22 13.5 35.5t36.5 13.5h58l10 92q2 22 16 35.5t37 13.5t33.5 -13.5t8.5 -35.5l-10 -92h172l10 92q5 49 51 49q23 0 34 -14.5t9 -34.5l-10 -92h56q17 0 28 -11t11 -29q0 -20 -13.5 -33.5t-35.5 -13.5h-56l-14 -134h56q17 0 28 -10
t11 -28q0 -21 -13.5 -35t-35.5 -14h-56l-8 -84q-5 -49 -53 -49q-21 0 -32 14.5t-9 34.5l8 84h-172l-9 -84q-6 -49 -52 -49q-22 0 -33.5 14.5t-9.5 34.5l9 84h-58q-16 0 -27.5 11.5t-11.5 27.5q0 23 14 35.5t35 12.5h58l14 134h-58zM243 346l-14 -134h172l14 134h-172z" />
    <glyph glyph-name="dollaronum.tnum" 
d="M278 -55v58q-76 11 -140 52q-33 20 -33 51q0 20 13.5 33.5t34.5 13.5q20 0 37 -12q67 -44 139 -44q45 0 72 17t27 46q0 30 -26.5 46t-93.5 36q-103 30 -146 68t-43 99q0 65 44 105t123 49v58q0 21 14.5 35.5t35.5 14.5t35.5 -14.5t14.5 -35.5v-59q54 -8 110 -32
q34 -16 34 -48q0 -20 -13.5 -34.5t-34.5 -14.5q-12 0 -26 6q-68 30 -127 30q-94 0 -94 -52q0 -25 23.5 -38.5t85.5 -32.5q110 -34 155 -69.5t45 -102.5q0 -68 -43.5 -113.5t-122.5 -57.5v-58q0 -21 -14.5 -35.5t-35.5 -14.5t-35.5 14.5t-14.5 35.5z" />
    <glyph glyph-name="plusonum.tnum" 
d="M550 217q0 -19 -14 -33.5t-34 -14.5h-124v-124q0 -22 -15.5 -37.5t-37.5 -15.5t-37.5 15.5t-15.5 37.5v124h-124q-20 0 -34 14t-14 34t14 34t34 14h124v124q0 22 15.5 37.5t37.5 15.5t37.5 -15.5t15.5 -37.5v-124h124q20 0 34 -14.5t14 -33.5z" />
    <glyph glyph-name="zeroonum.tnum" 
d="M584 241q0 -110 -73 -181.5t-186 -71.5t-186 71.5t-73 181.5t73 181.5t186 71.5t186 -71.5t73 -181.5zM186 241q0 -66 38.5 -108.5t100.5 -42.5t100.5 42.5t38.5 108.5t-38.5 108.5t-100.5 42.5t-100.5 -42.5t-38.5 -108.5z" />
    <glyph glyph-name="oneonum.tnum" 
d="M136 0q-22 0 -37.5 15t-15.5 37t15.5 37t37.5 15h165v254l-117 -25q-8 -2 -15 -2q-23 0 -40 15.5t-17 39.5q0 44 44 54l176 44q11 3 29 3q27 0 43.5 -16t16.5 -45v-322h148q22 0 37.5 -15t15.5 -37t-15.5 -37t-37.5 -15h-433z" />
    <glyph glyph-name="twoonum.tnum" 
d="M556 50q0 -20 -14 -35t-37 -15h-351q-27 0 -43.5 15.5t-16.5 36.5q0 39 35 60q61 37 146 87q75 43 100.5 70.5t25.5 60.5q0 61 -91 61q-46 0 -117 -26q-13 -5 -24 -5q-22 0 -35.5 14.5t-13.5 35.5q0 34 37 51q74 33 158 33q96 0 151 -39.5t55 -113.5q0 -108 -112 -181
q-73 -48 -101 -61h197q22 0 36.5 -13.5t14.5 -35.5z" />
    <glyph glyph-name="threeonum.tnum" 
d="M564 10q0 -93 -71 -149t-183 -56q-111 0 -201 53q-23 13 -23 43q0 24 16 36.5t38 12.5q11 0 37 -11q69 -32 127 -32q66 0 103 27.5t37 73.5q0 106 -168 106h-40q-23 0 -38.5 16t-15.5 38q0 24 15 39t39 15h5q79 0 126 28t47 71q0 71 -97 71q-43 0 -111 -28q-11 -5 -24 -5
q-22 0 -36 14t-14 34q0 32 38 51q72 36 158 36q95 0 150.5 -43.5t55.5 -120.5q0 -48 -30 -89t-86 -63q64 -12 105 -54t41 -114z" />
    <glyph glyph-name="fouronum.tnum" 
d="M568 14h-80v-150q0 -25 -16.5 -42t-41.5 -17t-41.5 17t-16.5 42v150h-288q-22 0 -37 13t-15 34q0 19 17 39l334 365q21 22 49 22q56 0 56 -59v-320h80q23 0 37.5 -13t14.5 -34t-14.5 -34t-37.5 -13zM182 108h190v208z" />
    <glyph glyph-name="fiveonum.tnum" 
d="M561 20q0 -91 -69 -153t-194 -62q-106 0 -187 49q-25 16 -25 44q0 25 15 38t39 13q12 0 30 -9q65 -35 132 -35q69 0 104 32t35 80q0 51 -36 76.5t-98 25.5q-43 0 -101 -21q-19 -7 -30 -7q-29 0 -43.5 16t-11.5 39l39 287q3 23 18.5 36t38.5 13h249q23 0 39 -16t16 -38
t-16 -37t-39 -15h-199l-22 -166q39 14 85 14q101 0 166 -54t65 -150z" />
    <glyph glyph-name="sixonum.tnum" 
d="M420 574q-80 -45 -129.5 -90.5t-86.5 -124.5q59 65 154 65q100 0 157.5 -61.5t57.5 -153.5q0 -96 -68.5 -158.5t-180.5 -62.5q-114 0 -181 68.5t-67 175.5q0 226 190 372q96 74 164 74q22 0 36 -12.5t14 -29.5q0 -20 -12 -31t-48 -31zM457 210q0 50 -32 83.5t-92 33.5
t-95 -34.5t-35 -88.5q0 -52 32.5 -85.5t93.5 -33.5q58 0 93 35t35 90z" />
    <glyph glyph-name="sevenonum.tnum" 
d="M569 430q0 -20 -8 -38q-51 -107 -134 -277.5t-127 -261.5q-23 -48 -61 -48t-50 30.5t3 54.5q215 429 242 486h-296q-22 0 -37.5 15.5t-15.5 37.5t15.5 37.5t37.5 15.5h371q26 0 43 -13.5t17 -38.5z" />
    <glyph glyph-name="eightonum.tnum" 
d="M536 503q0 -85 -77 -137q54 -20 90 -62.5t36 -109.5q0 -89 -68 -147.5t-192 -58.5t-192 58.5t-68 147.5q0 67 36 109.5t90 62.5q-77 52 -77 137q0 77 56 126t155 49t155 -49t56 -126zM325 87q66 0 103.5 31t37.5 77q0 51 -36.5 80.5t-104.5 29.5t-104.5 -29.5
t-36.5 -80.5q0 -46 37.5 -77t103.5 -31zM325 399q43 0 69 25t26 67q0 40 -25 64.5t-70 24.5t-70 -24.5t-25 -64.5q0 -42 26 -67t69 -25z" />
    <glyph glyph-name="nineonum.tnum" 
d="M247 -90q71 42 116 86.5t84 126.5q-59 -65 -154 -65q-100 0 -157.5 61t-57.5 153q0 96 70 159t179 63q115 0 180 -66.5t65 -176.5q0 -234 -179 -372q-96 -74 -162 -74q-24 0 -37 12t-13 30q0 8 2.5 14t5 10.5t10.5 10t12.5 8.5t16.5 9.5t19 10.5zM194 272q0 -50 32 -83.5
t92 -33.5t95 34.5t35 88.5q0 52 -32.5 85.5t-93.5 33.5q-58 0 -93 -35t-35 -90z" />
    <glyph glyph-name="lessonum.tnum" 
d="M509 350l-287 -133l287 -133q27 -14 27 -44q0 -22 -15 -37t-37 -15q-15 0 -28 7l-346 176q-28 16 -28 46t28 46l346 176q13 7 28 7q22 0 37 -15t15 -37q0 -30 -27 -44z" />
    <glyph glyph-name="equalonum.tnum" 
d="M528 299q0 -19 -14 -33t-33 -14h-312q-19 0 -33 14t-14 33t14 33t33 14h312q19 0 33 -14t14 -33zM528 123q0 -19 -14 -33t-33 -14h-312q-19 0 -33 14t-14 33t14 33t33 14h312q19 0 33 -14t14 -33z" />
    <glyph glyph-name="greateronum.tnum" 
d="M428 217l-287 133q-27 14 -27 44q0 22 15 37t37 15q15 0 28 -7l346 -176q28 -16 28 -46t-28 -46l-346 -176q-13 -7 -28 -7q-22 0 -37 15t-15 37q0 30 27 44z" />
    <glyph glyph-name="centonum.tnum" 
d="M305 -44v80q-87 17 -140.5 78t-53.5 147t53.5 147t140.5 77v81q0 21 14.5 35.5t35.5 14.5t35.5 -14.5t14.5 -35.5v-81q78 -13 117 -54q17 -19 17 -41q0 -20 -13 -33t-34 -13t-37 12q-43 32 -96 32q-57 0 -92.5 -35.5t-35.5 -91.5t35.5 -91.5t92.5 -35.5q53 0 96 32
q16 12 37 12t34 -13t13 -33q0 -22 -17 -41q-36 -39 -117 -56v-79q0 -21 -14.5 -35.5t-35.5 -14.5t-35.5 14.5t-14.5 35.5z" />
    <glyph glyph-name="sterlingonum.tnum" 
d="M346 233v-139h200q22 0 36.5 -12.5t14.5 -34.5t-14.5 -34.5t-36.5 -12.5h-422q-22 0 -36.5 12.5t-14.5 34.5t14.5 34.5t36.5 12.5h102v139h-92q-22 0 -36.5 12.5t-14.5 34.5t14.5 34.5t36.5 12.5h92v32q0 102 56.5 160.5t169.5 58.5q62 0 120 -25q40 -17 40 -50
q0 -23 -14.5 -37t-40.5 -14q-7 0 -21 4q-47 15 -82 15q-56 0 -82 -26t-26 -81v-37h164q22 0 36.5 -12.5t14.5 -34.5t-14.5 -34.5t-36.5 -12.5h-164z" />
    <glyph glyph-name="notequalonum.tnum" 
d="M254 14q-8 -14 -24 -14q-12 0 -19.5 7.5t-7.5 17.5q0 7 3 15l18 36h-55q-19 0 -33 14t-14 33t14 33t33 14h103l40 82h-143q-19 0 -33 14t-14 33t14 33t33 14h191l33 65q6 15 24 15q12 0 19.5 -8t7.5 -18q0 -8 -3 -15l-20 -39h60q19 0 33 -14t14 -33t-14 -33t-33 -14h-108
l-40 -82h148q19 0 33 -14t14 -33t-14 -33t-33 -14h-196z" />
    <glyph glyph-name="plusminusonum.tnum" 
d="M148 0q-20 0 -34 13.5t-14 32.5q0 20 14 33t34 13h124v121h-124q-20 0 -34 13.5t-14 32.5q0 20 14 33t34 13h124v106q0 22 15.5 37.5t37.5 15.5t37.5 -15.5t15.5 -37.5v-106h124q20 0 34 -13.5t14 -32.5t-14 -32.5t-34 -13.5h-124v-121h124q20 0 34 -13.5t14 -32.5
t-14 -32.5t-34 -13.5h-354z" />
    <glyph glyph-name="yenonum.tnum" 
d="M562 491l-96 -150h56q15 0 25.5 -10.5t10.5 -25.5t-10.5 -25.5t-25.5 -10.5h-102l-36 -56v-8h138q15 0 25.5 -10t10.5 -25t-10.5 -25t-25.5 -10h-138v-81q0 -26 -17 -44t-42 -18t-42 18t-17 44v81h-138q-15 0 -25.5 10t-10.5 25t10.5 25t25.5 10h138v8l-36 56h-102
q-15 0 -25.5 10.5t-10.5 25.5t10.5 25.5t25.5 10.5h56l-96 150q-11 17 -11 34q0 23 14.5 36t37.5 13q30 0 48 -27l148 -244l148 244q18 27 48 27q23 0 37.5 -13t14.5 -36q0 -17 -11 -34z" />
    <glyph glyph-name="florinonum.tnum" 
d="M262 202h-54q-19 0 -31.5 12t-12.5 30q0 28 16 43t44 15h56l18 102q15 84 57 127t134 43h32q51 0 51 -44q0 -24 -15 -40t-47 -16h-16q-63 0 -74 -63l-19 -109h81q19 0 30.5 -11.5t11.5 -29.5q0 -25 -16.5 -42t-43.5 -17h-81l-40 -230q-15 -84 -58.5 -125.5t-143.5 -41.5
h-23q-18 0 -29.5 11.5t-11.5 29.5q0 28 17.5 43.5t41.5 15.5h11q35 0 51.5 13t21.5 44z" />
    <glyph glyph-name="approxequalonum.tnum" 
d="M466 364q8 8 22 8q17 0 29 -11.5t12 -28.5q0 -25 -41.5 -58.5t-92.5 -33.5q-32 0 -71 23.5t-66 23.5q-22 0 -52.5 -19t-42.5 -19q-15 0 -28.5 11t-13.5 27q0 30 43 62.5t97 32.5q37 0 80 -25t58 -25q30 0 67 32zM466 186q8 8 22 8q17 0 29 -11.5t12 -28.5
q0 -25 -41.5 -58.5t-92.5 -33.5q-32 0 -71 24t-66 24q-22 0 -52.5 -19.5t-42.5 -19.5q-15 0 -28.5 11.5t-13.5 27.5q0 30 43 62t97 32q37 0 80 -25t58 -25q30 0 67 32z" />
    </font>
</defs>
</svg>
