<?xml version="1.0" encoding="UTF-8" standalone="no"?>
<svg width="16px" height="14px" viewBox="0 0 16 14" version="1.1" xmlns="http://www.w3.org/2000/svg" xmlns:xlink="http://www.w3.org/1999/xlink">
    <!-- Generator: Sketch 49.1 (51147) - http://www.bohemiancoding.com/sketch -->
    <title>archive</title>
    <desc>Created with Sketch.</desc>
    <defs></defs>
    <g id="Welcome" stroke="none" stroke-width="1" fill="none" fill-rule="evenodd">
        <g id="Dashboard-Archived-Search-Checkbox" transform="translate(-1232.000000, -437.000000)" fill="#FFFFFF" fill-rule="nonzero" stroke="#666666">
            <g id="Content" transform="translate(-26.000000, -52.000000)">
                <g id="Table-Contents">
                    <g transform="translate(70.000000, 189.000000)">
                        <g id="Row-Copy-4" transform="translate(0.000000, 288.000000)">
                            <g id="archive" transform="translate(1189.000000, 13.000000)">
                                <path d="M1,11.1 C1,11.5978125 1.38303571,12 1.85714286,12 L12.1428571,12 C12.6169643,12 13,11.5978125 13,11.1 L13,3 L1,3 L1,11.1 Z M5,5.375 C5,5.16875 5.16875,5 5.375,5 L8.625,5 C8.83125,5 9,5.16875 9,5.375 L9,5.625 C9,5.83125 8.83125,6 8.625,6 L5.375,6 C5.16875,6 5,5.83125 5,5.625 L5,5.375 Z M13.125,0 L0.875,0 C0.391015625,0 0,0.446875 0,1 L0,2.5 C0,2.775 0.196875,3 0.4375,3 L13.5625,3 C13.803125,3 14,2.775 14,2.5 L14,1 C14,0.446875 13.6089844,0 13.125,0 Z" id="Shape"></path>
                            </g>
                        </g>
                    </g>
                </g>
            </g>
        </g>
    </g>
</svg>