<?xml version="1.0" encoding="UTF-8" standalone="no"?>
<svg width="18px" height="18px" viewBox="0 0 18 18" version="1.1" xmlns="http://www.w3.org/2000/svg" xmlns:xlink="http://www.w3.org/1999/xlink">
    <!-- Generator: Sketch 49.1 (51147) - http://www.bohemiancoding.com/sketch -->
    <title>archive</title>
    <desc>Created with Sketch.</desc>
    <defs></defs>
    <g id="Welcome" stroke="none" stroke-width="1" fill="none" fill-rule="evenodd">
        <g id="Dashboard-Archived-Search-Result" transform="translate(-1231.000000, -462.000000)">
            <g id="archive" transform="translate(1232.000000, 463.000000)">
                <path d="M2,13.1 C2,13.5978125 2.38303571,14 2.85714286,14 L13.1428571,14 C13.6169643,14 14,13.5978125 14,13.1 L14,5 L2,5 L2,13.1 Z M6,7.375 C6,7.16875 6.16875,7 6.375,7 L9.625,7 C9.83125,7 10,7.16875 10,7.375 L10,7.625 C10,7.83125 9.83125,8 9.625,8 L6.375,8 C6.16875,8 6,7.83125 6,7.625 L6,7.375 Z M14.125,2 L1.875,2 C1.39101563,2 1,2.446875 1,3 L1,4.5 C1,4.775 1.196875,5 1.4375,5 L14.5625,5 C14.803125,5 15,4.775 15,4.5 L15,3 C15,2.446875 14.6089844,2 14.125,2 Z" id="Shape" stroke="#666666" stroke-width="1.5" fill="#FFFFFF" fill-rule="nonzero"></path>
                <path d="M4.46153846,15.5 L15.5384615,0.5" id="Line" stroke="#FFFFFF" stroke-width="2" stroke-linecap="square"></path>
                <rect id="Rectangle-6" fill="#666666" transform="translate(8.328964, 7.707758) rotate(-52.000000) translate(-8.328964, -7.707758) " x="-0.671035968" y="6.70775826" width="18" height="2" rx="1"></rect>
                <path d="M0.461538462,15.5 L11.5384615,0.5" id="Line-Copy-2" stroke="#FFFFFF" stroke-width="2" stroke-linecap="square"></path>
            </g>
        </g>
    </g>
</svg>