<?xml version="1.0" standalone="no"?>
<!DOCTYPE svg PUBLIC "-//W3C//DTD SVG 1.1//EN" "http://www.w3.org/Graphics/SVG/1.1/DTD/svg11.dtd" >
<svg xmlns="http://www.w3.org/2000/svg">
<metadata></metadata>
<defs>
<font id="MatterhornBold" horiz-adv-x="628" >
<font-face units-per-em="1000" ascent="750" descent="-250" />
<missing-glyph horiz-adv-x="270" />
<glyph unicode="&#xd;" horiz-adv-x="270" />
<glyph unicode=" "  horiz-adv-x="270" />
<glyph unicode="&#x09;" horiz-adv-x="270" />
<glyph unicode="&#xa0;" horiz-adv-x="270" />
<glyph unicode="!" horiz-adv-x="279" d="M55 71q0 37 24 60.5t61 23.5q36 0 60 -23.5t24 -60.5t-24 -61t-60 -24q-37 0 -61 24t-24 61zM72 700h135l-12 -457h-111z" />
<glyph unicode="&#x22;" horiz-adv-x="435" d="M55 714h124l-16 -287h-104zM266 714h124l-16 -287h-104z" />
<glyph unicode="#" horiz-adv-x="682" d="M55 183v88h110l21 158h-99v88h111l24 183h98l-24 -183h133l24 183h98l-24 -183h100v-88h-111l-21 -158h100v-88h-111l-24 -183h-99l24 183h-132l-24 -183h-99l24 183h-99zM264 271h132l21 158h-132z" />
<glyph unicode="$" horiz-adv-x="537" d="M55 32v125q77 -60 174 -60q58 0 91.5 26t33.5 67q0 35 -30.5 62t-73.5 48t-86.5 45.5t-74 68t-30.5 103.5q0 77 46 126.5t125 64.5v91h101v-87q78 -9 126 -38v-124q-71 54 -157 54q-50 0 -79 -22t-29 -58q0 -33 30.5 -59.5t73.5 -47.5t86.5 -46.5t74 -70t30.5 -104.5 q0 -75 -44.5 -127.5t-117.5 -71.5v-115h-101v104q-101 4 -169 46z" />
<glyph unicode="%" horiz-adv-x="964" d="M55 501q0 89 49.5 144t127.5 55t127.5 -55t49.5 -144t-49.5 -144t-127.5 -55t-127.5 55t-49.5 144zM152 501q0 -53 22 -84t58 -31t57.5 31t21.5 84q0 52 -21.5 83.5t-57.5 31.5t-58 -31.5t-22 -83.5zM262 -14l344 728h96l-344 -728h-96zM555 199q0 89 49.5 144t127.5 55 t127.5 -55t49.5 -144t-49.5 -144t-127.5 -55t-127.5 55t-49.5 144zM653 199q0 -53 21.5 -84t57.5 -31t58 31t22 84q0 52 -22 83.5t-58 31.5t-57.5 -31.5t-21.5 -83.5z" />
<glyph unicode="&#x26;" horiz-adv-x="679" d="M55 169q0 70 40.5 120.5t111.5 96.5q-69 88 -69 165q0 67 49.5 115t137.5 48q77 0 126 -39t49 -108q0 -63 -39 -106.5t-111 -88.5l121 -136q19 45 30 104h99q-16 -103 -58 -182l141 -158h-145l-62 71q-83 -85 -208 -85q-98 0 -155.5 50.5t-57.5 132.5zM176 186 q0 -45 31.5 -71.5t80.5 -26.5q71 0 125 57l-148 172q-89 -64 -89 -131zM248 548q0 -50 43 -108q50 33 75.5 61t25.5 62q0 30 -20 49t-50 19q-32 0 -53 -22.5t-21 -60.5z" />
<glyph unicode="'" horiz-adv-x="224" d="M55 714h124l-16 -287h-104z" />
<glyph unicode="(" horiz-adv-x="411" d="M75 322q0 263 171 468h130q-75 -81 -125.5 -200.5t-50.5 -267.5q0 -147 50.5 -266.5t125.5 -200.5h-129q-172 202 -172 467z" />
<glyph unicode=")" horiz-adv-x="411" d="M35 -145q75 81 125.5 200.5t50.5 266.5q0 148 -50.5 267.5t-125.5 200.5h130q171 -205 171 -468q0 -265 -172 -467h-129z" />
<glyph unicode="*" horiz-adv-x="550" d="M55 532l30 98l148 -58l-10 158h102l-10 -158l149 58l31 -98l-154 -39l102 -122l-84 -61l-84 134l-84 -134l-84 61l101 122z" />
<glyph unicode="+" horiz-adv-x="643" d="M55 236v106h213v228h106v-228h214v-106h-214v-229h-106v229h-213z" />
<glyph unicode="," horiz-adv-x="250" d="M39 71q0 37 24 60.5t61 23.5q38 0 62.5 -27t24.5 -76q0 -57 -33.5 -117t-96.5 -108l-39 43q70 60 76 116q-34 2 -56.5 26t-22.5 59z" />
<glyph unicode="-" horiz-adv-x="373" d="M55 248v103h263v-103h-263z" />
<glyph unicode="." horiz-adv-x="247" d="M39 71q0 37 24 60.5t61 23.5q36 0 60 -23.5t24 -60.5t-24 -61t-60 -24q-37 0 -61 24t-24 61z" />
<glyph unicode="/" horiz-adv-x="379" d="M15 -74l237 848h112l-237 -848h-112z" />
<glyph unicode="0" horiz-adv-x="653" d="M60 350q0 164 72 264t194 100t194.5 -100t72.5 -264t-72.5 -264t-194.5 -100t-194 100t-72 264zM191 350q0 -117 36.5 -187.5t98.5 -70.5t98.5 70.5t36.5 187.5t-36.5 187.5t-98.5 70.5t-98.5 -70.5t-36.5 -187.5z" />
<glyph unicode="1" horiz-adv-x="370" d="M20 598v102h250v-700h-124v598h-126z" />
<glyph unicode="2" horiz-adv-x="553" d="M30 0v47l193 232q64 76 92.5 127t28.5 97q0 48 -32.5 76.5t-88.5 28.5q-84 0 -173 -71v121q83 56 189 56q105 0 169 -57.5t64 -149.5q0 -57 -30.5 -114.5t-96.5 -135.5l-131 -154h279v-103h-463z" />
<glyph unicode="3" horiz-adv-x="547" d="M50 20v110q73 -39 157 -39q70 0 111.5 35t41.5 89q0 57 -45.5 92.5t-133.5 35.5l-30 -2v57l148 200h-247v102h419v-48l-171 -229q82 -15 134.5 -70.5t52.5 -137.5q0 -99 -70.5 -164t-196.5 -65q-94 0 -170 34z" />
<glyph unicode="4" horiz-adv-x="592" d="M10 139v62l386 506h60v-469h96v-99h-96v-139h-122v139h-324zM146 238h188v246z" />
<glyph unicode="5" horiz-adv-x="568" d="M60 21v109q82 -41 162 -41q70 0 113.5 34t43.5 93q0 57 -44 91.5t-113 34.5q-63 0 -140 -28l23 386h375v-102h-270q-8 -105 -11 -163q45 5 54 5q110 0 181 -61.5t71 -162.5q0 -99 -73 -164.5t-199 -65.5q-95 0 -173 35z" />
<glyph unicode="6" horiz-adv-x="591" d="M40 219q0 78 54 157l226 324h149l-183 -249q12 2 26 2q99 0 166.5 -66.5t67.5 -167.5q0 -103 -71 -168t-182 -65t-182 65t-71 168zM167 220q0 -59 36 -96t90 -37t89.5 37t35.5 96t-35.5 96t-89.5 37t-90 -37t-36 -96z" />
<glyph unicode="7" horiz-adv-x="518" d="M22 598v102h476v-48l-300 -652h-133l277 598h-320z" />
<glyph unicode="8" horiz-adv-x="612" d="M55 183q0 74 45.5 117.5t103.5 64.5q-58 28 -90 65.5t-32 98.5q0 88 67 136.5t163 48.5t159 -48t63 -126q0 -64 -38.5 -106t-87.5 -64q67 -31 108 -74t41 -112q0 -89 -71.5 -143.5t-181.5 -54.5q-111 0 -180 55t-69 142zM182 185q0 -45 34.5 -75t89.5 -30q54 0 89 29 t35 74q0 23 -9.5 42t-19.5 31t-34.5 26.5t-36.5 20.5t-43 20q-105 -47 -105 -138zM209 534q0 -43 29.5 -69t87.5 -53q84 47 84 121q0 38 -27 62.5t-70 24.5t-73.5 -24t-30.5 -62z" />
<glyph unicode="9" horiz-adv-x="591" d="M45 481q0 103 71 168t182 65t182 -65.5t71 -168.5q0 -78 -55 -156l-226 -324h-149l183 248q-11 -1 -26 -1q-98 0 -165.5 66.5t-67.5 167.5zM172 480q0 -59 36 -96t90 -37t89.5 37t35.5 96t-35.5 95.5t-89.5 36.5t-90 -37t-36 -95z" />
<glyph unicode=":" horiz-adv-x="279" d="M55 71q0 37 24 60.5t61 23.5q36 0 60 -23.5t24 -60.5t-24 -61t-60 -24q-37 0 -61 24t-24 61zM55 417q0 37 24 61t61 24q36 0 60 -24t24 -61t-24 -61t-60 -24q-37 0 -61 24t-24 61z" />
<glyph unicode=";" horiz-adv-x="282" d="M55 71q0 37 24 60.5t61 23.5q38 0 62.5 -27t24.5 -76q0 -57 -33.5 -117t-96.5 -108l-39 43q70 60 76 116q-34 2 -56.5 26t-22.5 59zM55 417q0 37 24 61t61 24q36 0 60 -24t24 -61t-24 -61t-60 -24q-37 0 -61 24t-24 61z" />
<glyph unicode="&#x3c;" horiz-adv-x="618" d="M35 235v107l508 235v-120l-382 -169l382 -168v-120z" />
<glyph unicode="=" horiz-adv-x="743" d="M95 116v106h553v-106h-553zM95 355v106h553v-106h-553z" />
<glyph unicode="&#x3e;" horiz-adv-x="618" d="M75 0v120l381 168l-381 169v120l508 -235v-107z" />
<glyph unicode="?" horiz-adv-x="429" d="M47 577v106q72 31 141 31q91 0 146.5 -44.5t55.5 -118.5q0 -40 -17.5 -73t-42.5 -56t-50 -45.5t-42.5 -52t-17.5 -64.5q0 -11 1 -17h-102q-3 21 -3 38q0 46 22.5 86t49 64t49 53.5t22.5 56.5q0 32 -23.5 50t-66.5 18q-60 0 -122 -32zM85 71q0 37 24 60.5t61 23.5 q36 0 60 -23.5t24 -60.5t-24 -61t-60 -24q-37 0 -61 24t-24 61z" />
<glyph unicode="@" horiz-adv-x="916" d="M55 262q0 193 121 322.5t312 129.5q162 0 267.5 -99t105.5 -255q0 -122 -59 -196.5t-149 -74.5q-37 0 -65.5 15t-38.5 30l-10 15q-61 -48 -126 -48q-73 0 -112 47t-39 129q0 100 52.5 168t130.5 68q56 0 97 -43l4 39h93l-26 -277q-3 -29 10.5 -45t37.5 -16q44 0 73 49 t29 137q0 124 -76.5 198.5t-200.5 74.5q-147 0 -240 -103.5t-93 -259.5q0 -134 79.5 -208t209.5 -74q104 0 182 49l44 -73q-105 -62 -234 -62q-168 0 -273.5 97.5t-105.5 265.5zM365 291q0 -42 17.5 -70.5t56.5 -28.5q42 0 78 27l18 176q-28 28 -71 28q-48 0 -73.5 -39.5 t-25.5 -92.5z" />
<glyph unicode="A" horiz-adv-x="662" d="M1 0l286 704h88l286 -704h-135l-51 132h-289l-51 -132h-134zM222 229h216l-107 282z" />
<glyph unicode="B" horiz-adv-x="648" d="M92 0v700h234q115 0 177 -48t62 -125q0 -53 -29.5 -93.5t-86.5 -55.5v-2q70 -14 112 -63.5t42 -113.5q0 -89 -71 -144t-199 -55h-241zM219 102h108q72 0 108 30t36 81q0 50 -36.5 81t-107.5 31h-108v-223zM219 425h102q57 0 84 25t27 61q0 38 -26.5 62.5t-84.5 24.5h-102 v-173z" />
<glyph unicode="C" horiz-adv-x="643" d="M50 350q0 160 97 262t248 102q107 0 193 -46v-130q-85 65 -182 65q-102 0 -162 -69t-60 -184t60 -184t162 -69q99 0 182 64v-129q-82 -46 -193 -46q-151 0 -248 101.5t-97 262.5z" />
<glyph unicode="D" horiz-adv-x="716" d="M92 0v700h174q200 0 300 -94.5t100 -255.5t-100 -255.5t-300 -94.5h-174zM219 105h47q133 0 199.5 63t66.5 182t-66.5 182t-199.5 63h-47v-490z" />
<glyph unicode="E" horiz-adv-x="577" d="M92 0v700h420v-105h-293v-175h253v-105h-253v-210h293v-105h-420z" />
<glyph unicode="F" horiz-adv-x="542" d="M92 0v700h405v-105h-278v-194h248v-105h-248v-296h-127z" />
<glyph unicode="G" horiz-adv-x="711" d="M50 350q0 160 99.5 262t255.5 102q117 0 213 -46v-125q-91 60 -202 60q-107 0 -169.5 -69t-62.5 -184t63 -184t170 -69q50 0 92 12v145h-108v98h235v-320q-98 -46 -229 -46q-157 0 -257 101.5t-100 262.5z" />
<glyph unicode="H" horiz-adv-x="751" d="M92 0v700h127v-278h312v278h127v-700h-127v317h-312v-317h-127z" />
<glyph unicode="I" horiz-adv-x="312" d="M92 0v700h127v-700h-127z" />
<glyph unicode="J" horiz-adv-x="434" d="M5 6v115q50 -25 111 -25q52 0 78 29.5t26 76.5v498h127v-497q0 -106 -59 -161.5t-155 -55.5q-80 0 -128 20z" />
<glyph unicode="K" horiz-adv-x="656" d="M92 0v700h127v-335l263 335h161l-256 -313l273 -387h-157l-194 291l-90 -80v-211h-127z" />
<glyph unicode="L" horiz-adv-x="517" d="M92 0v700h127v-595h293v-105h-420z" />
<glyph unicode="M" horiz-adv-x="915" d="M92 0v704h85l280 -384l280 384h85v-704h-127v456l-218 -297h-40l-218 297v-456h-127z" />
<glyph unicode="N" horiz-adv-x="797" d="M92 0v704h85l400 -475v471h127v-704h-85l-400 474v-470h-127z" />
<glyph unicode="O" horiz-adv-x="808" d="M50 350q0 161 98.5 262.5t255.5 101.5t255.5 -101.5t98.5 -262.5t-98.5 -262.5t-255.5 -101.5t-255.5 101.5t-98.5 262.5zM184 350q0 -115 60.5 -184.5t159.5 -69.5t159.5 69.5t60.5 184.5t-60.5 184t-159.5 69t-159.5 -69t-60.5 -184z" />
<glyph unicode="P" horiz-adv-x="609" d="M92 0v700h219q126 0 195.5 -65t69.5 -168q0 -102 -69.5 -167t-195.5 -65h-92v-235h-127zM219 340h83q140 0 140 127q0 128 -140 128h-83v-255z" />
<glyph unicode="Q" horiz-adv-x="808" d="M50 350q0 161 98.5 262.5t255.5 101.5t255.5 -101.5t98.5 -262.5q0 -152 -90 -253l124 -139h-137l-66 75q-80 -47 -185 -47q-157 0 -255.5 101.5t-98.5 262.5zM184 350q0 -115 60.5 -184.5t159.5 -69.5q58 0 107 27l-103 117l79 63l96 -109q41 65 41 156q0 115 -60.5 184 t-159.5 69t-159.5 -69t-60.5 -184z" />
<glyph unicode="R" horiz-adv-x="642" d="M92 0v700h221q121 0 189.5 -62.5t68.5 -159.5q0 -65 -32 -115.5t-91 -77.5l198 -285h-151l-170 257h-106v-257h-127zM219 362h79q139 0 139 116q0 117 -139 117h-79v-233z" />
<glyph unicode="S" horiz-adv-x="537" d="M55 32v125q75 -60 174 -60q58 0 91.5 26t33.5 67q0 35 -30.5 62t-73.5 48t-86.5 46t-74 68.5t-30.5 102.5q0 92 64.5 144.5t169.5 52.5q97 0 164 -40v-123q-74 54 -157 54q-50 0 -79.5 -22.5t-29.5 -58.5q0 -33 30.5 -60t74 -48.5t87 -47t74 -69.5t30.5 -103 q0 -97 -71 -153.5t-179 -56.5q-106 0 -182 46z" />
<glyph unicode="T" horiz-adv-x="554" d="M2 595v105h549v-105h-211v-595h-127v595h-211z" />
<glyph unicode="U" horiz-adv-x="745" d="M87 264v436h127v-437q0 -168 158 -168t158 168v437h127v-436q0 -138 -76.5 -208t-208.5 -70t-208.5 69t-76.5 209z" />
<glyph unicode="V" horiz-adv-x="642" d="M1 700h134l186 -511l185 511h135l-276 -704h-88z" />
<glyph unicode="W" horiz-adv-x="955" d="M5 700h129l137 -473l164 477h85l164 -477l137 473h128l-212 -704h-88l-172 501l-172 -501h-88z" />
<glyph unicode="X" horiz-adv-x="643" d="M17 0l233 362l-218 338h149l140 -237l140 237h150l-219 -338l234 -362h-150l-155 260l-155 -260h-149z" />
<glyph unicode="Y" horiz-adv-x="581" d="M-2 700h140l152 -305l152 305h141l-229 -428v-272h-127v272z" />
<glyph unicode="Z" horiz-adv-x="573" d="M39 0v70l314 525h-304v105h470v-70l-315 -525h330v-105h-495z" />
<glyph unicode="[" horiz-adv-x="442" d="M115 -145v935h262v-104h-136v-727h136v-104h-262z" />
<glyph unicode="\" horiz-adv-x="379" d="M15 774h112l237 -848h-112z" />
<glyph unicode="]" horiz-adv-x="442" d="M65 -41h136v727h-136v104h262v-935h-262v104z" />
<glyph unicode="^" horiz-adv-x="549" d="M55 369l159 345h121l159 -345h-118l-102 244l-101 -244h-118z" />
<glyph unicode="_" horiz-adv-x="586" d="M-15 -160h616v-90h-616v90z" />
<glyph unicode="`" horiz-adv-x="383" d="M45 760h164l119 -147h-109z" />
<glyph unicode="a" horiz-adv-x="549" d="M40 148q0 72 56.5 119.5t154.5 47.5q36 0 91 -11v37q0 95 -110 95q-81 0 -154 -42v106q85 34 176 34q100 0 154 -45t54 -130v-218q0 -56 45 -56l22 5v-82q-26 -13 -75 -13q-42 0 -67.5 20t-33.5 49q-57 -78 -151 -78q-73 0 -117.5 43t-44.5 119zM162 154 q0 -32 20.5 -51.5t59.5 -19.5q67 0 100 56v87q-35 10 -69 10q-50 0 -80.5 -23t-30.5 -59z" />
<glyph unicode="b" horiz-adv-x="642" d="M75 0q7 55 7 132v598h120v-251q67 55 155 55q104 0 171 -78t67 -196q0 -119 -66.5 -196.5t-171.5 -77.5q-104 0 -173 71l-11 -57h-98zM202 136q56 -48 123 -48q66 0 106 45t40 127q0 83 -41.5 129.5t-107.5 46.5q-68 0 -120 -49v-251z" />
<glyph unicode="c" horiz-adv-x="512" d="M47 260q0 124 76 199t196 75q83 0 143 -31v-108q-60 41 -130 41q-75 0 -118 -47t-43 -129t43 -129t118 -47q68 0 130 40v-108q-62 -30 -143 -30q-120 0 -196 75t-76 199z" />
<glyph unicode="d" horiz-adv-x="642" d="M47 260q0 118 67 196t171 78q88 0 155 -55v251h120v-598q0 -34 2 -67t4 -49l1 -16h-98q-7 29 -12 57q-28 -29 -73.5 -50t-98.5 -21q-105 0 -171.5 77.5t-66.5 196.5zM171 260q0 -82 40 -127t106 -45q67 0 123 48v251q-52 49 -120 49q-66 0 -107.5 -46.5t-41.5 -129.5z " />
<glyph unicode="e" horiz-adv-x="584" d="M47 260q0 120 72 197t184 77q104 0 168.5 -65t64.5 -174l-3 -61h-359q5 -73 46.5 -112t118.5 -39q92 0 172 53v-100q-78 -50 -191 -50q-123 0 -198 75.5t-75 198.5zM176 318h237q1 58 -30 90.5t-81 32.5q-52 0 -85 -34t-41 -89z" />
<glyph unicode="f" horiz-adv-x="365" d="M22 423v97h85v49q0 78 40.5 119.5t112.5 41.5q64 0 93 -13v-98q-34 13 -69 13q-58 0 -58 -60v-52h121v-97h-121v-423h-119v423h-85z" />
<glyph unicode="g" horiz-adv-x="643" d="M47 266q0 118 65 193t169 75q105 0 177 -72l12 58h97q-7 -55 -7 -132v-383q0 -119 -74 -187t-195 -68q-68 0 -123 19t-83 40v110q31 -25 83 -48t114 -23q75 0 116.5 39t41.5 113v43q-65 -47 -147 -47q-111 0 -178.5 75t-67.5 195zM171 264q0 -79 38.5 -124.5t104.5 -45.5 q76 0 126 50v236q-57 51 -128 51q-64 0 -102.5 -43.5t-38.5 -123.5z" />
<glyph unicode="h" d="M82 0v730h120v-279q69 83 167 83q65 0 107.5 -31t57.5 -72.5t15 -91.5v-339h-120v321q0 55 -28 83.5t-77 28.5q-37 0 -69.5 -19t-52.5 -41v-373h-120z" />
<glyph unicode="i" horiz-adv-x="285" d="M72 666q0 30 19.5 48t50.5 18t50.5 -18t19.5 -48t-19.5 -47.5t-50.5 -17.5t-50.5 17.5t-19.5 47.5zM82 0v520h120v-520h-120z" />
<glyph unicode="j" horiz-adv-x="285" d="M-24 -146q18 -6 44 -6q31 0 46.5 16t15.5 56v600h120v-596q0 -91 -37 -133t-119 -42q-17 0 -34.5 2.5t-26.5 4.5l-9 2v96zM72 666q0 30 19.5 48t50.5 18t50.5 -18t19.5 -48t-19.5 -47.5t-50.5 -17.5t-50.5 17.5t-19.5 47.5z" />
<glyph unicode="k" horiz-adv-x="561" d="M82 0v730h120v-452l196 242h144l-188 -220l207 -300h-139l-140 220l-80 -69v-151h-120z" />
<glyph unicode="l" horiz-adv-x="339" d="M82 166v564h120v-568q0 -40 17 -56t51 -16q14 0 27.5 2t20.5 4l6 3v-101q-40 -12 -86 -12q-81 0 -118.5 43.5t-37.5 136.5z" />
<glyph unicode="m" horiz-adv-x="931" d="M75 520h110q7 -30 12 -73q70 87 161 87q112 0 152 -98q76 98 173 98q89 0 129 -57.5t40 -137.5v-339h-120v321q0 56 -25 84t-69 28q-34 0 -65 -20t-48 -42q2 -22 2 -32v-339h-120v321q0 56 -25 84t-69 28q-62 0 -111 -60v-373h-120v388q0 34 -2 67t-4 49z" />
<glyph unicode="n" d="M75 520h110q7 -30 12 -74q74 88 172 88q65 0 107.5 -31t57.5 -72.5t15 -91.5v-339h-120v321q0 55 -28 83.5t-77 28.5q-37 0 -69.5 -19t-52.5 -41v-373h-120v388q0 34 -2 67t-4 49z" />
<glyph unicode="o" horiz-adv-x="624" d="M47 260q0 121 74 197.5t191 76.5t190.5 -76.5t73.5 -197.5t-73.5 -197.5t-190.5 -76.5t-191 76.5t-74 197.5zM172 260q0 -82 38 -129t102 -47t101.5 47t37.5 129t-37.5 129t-101.5 47t-102 -47t-38 -129z" />
<glyph unicode="p" horiz-adv-x="642" d="M75 520h98q7 -29 11 -58q70 72 173 72q104 0 171 -78t67 -196q0 -119 -66.5 -196.5t-171.5 -77.5q-86 0 -155 54v-290h-120v638q0 34 -2 67t-4 49zM202 132q52 -49 120 -49q66 0 107.5 46.5t41.5 130.5q0 81 -40 126t-106 45q-70 0 -123 -48v-251z" />
<glyph unicode="q" horiz-adv-x="642" d="M47 260q0 118 67 196t171 78q102 0 172 -72l12 58h98q-7 -55 -7 -132v-638h-120v290q-69 -54 -155 -54q-105 0 -171.5 77.5t-66.5 196.5zM171 260q0 -84 41.5 -130.5t107.5 -46.5q68 0 120 49v251q-56 48 -123 48q-66 0 -106 -45t-40 -126z" />
<glyph unicode="r" horiz-adv-x="411" d="M75 520h110q9 -39 12 -81h2q57 95 147 95q15 0 29.5 -3t21.5 -5l7 -3v-114q-30 11 -76 11q-36 0 -67.5 -13t-44.5 -26l-14 -13v-368h-120v388q0 34 -2 67t-4 49z" />
<glyph unicode="s" horiz-adv-x="472" d="M55 28v106q72 -51 160 -51q41 0 64.5 16.5t23.5 42.5q0 25 -25 43t-60.5 32t-71.5 31.5t-61 50.5t-25 80q0 71 53 113t138 42q88 0 145 -35v-107q-58 43 -140 45q-37 0 -57 -14.5t-20 -36.5q0 -23 25 -40t60.5 -31.5t71.5 -32.5t61 -53t25 -83q0 -73 -56.5 -116.5 t-147.5 -43.5q-49 0 -94.5 13t-68.5 29z" />
<glyph unicode="t" horiz-adv-x="386" d="M22 423v97h85v117l120 25v-142h123v-97h-123v-261q0 -73 67 -73q14 0 29 2.5t23 4.5l8 2v-101q-42 -11 -88 -11q-159 0 -159 178v259h-85z" />
<glyph unicode="u" d="M78 181v339h120v-322q0 -55 28.5 -83.5t77.5 -28.5q37 0 70 19.5t51 40.5v374h120v-388q0 -34 1.5 -67t3.5 -49l2 -16h-110q-7 29 -12 73q-73 -87 -171 -87q-95 0 -138 57.5t-43 137.5z" />
<glyph unicode="v" horiz-adv-x="531" d="M5 520h124l136 -343l136 343h124l-225 -524h-69z" />
<glyph unicode="w" horiz-adv-x="813" d="M5 520h121l114 -324l131 328h70l132 -328q18 54 56 162l57 162h121q-128 -350 -193 -524h-69q-110 281 -139 352q-110 -281 -139 -352h-69q-166 451 -193 524z" />
<glyph unicode="x" horiz-adv-x="538" d="M9 0l197 269l-184 251h141l106 -160l106 160h140l-184 -251l198 -269h-141l-119 178l-120 -178h-140z" />
<glyph unicode="y" horiz-adv-x="516" d="M3 -130q24 -10 54 -10q95 0 143 142l6 19l-202 499h128l131 -352l117 352h126l-185 -517q-46 -132 -107 -192.5t-147 -60.5q-16 0 -32 3t-24 6l-8 3v108z" />
<glyph unicode="z" horiz-adv-x="472" d="M25 0v57l246 369h-236v94h397v-57l-246 -369h256v-94h-417z" />
<glyph unicode="{" horiz-adv-x="408" d="M55 278v89q55 0 77.5 20t22.5 62q0 30 -17 100t-17 104q0 69 50 103t172 34v-90q-51 0 -73.5 -13.5t-22.5 -48.5q0 -27 15 -93t15 -97q0 -54 -29.5 -85t-78.5 -37v-7q51 -8 79.5 -39t28.5 -84q0 -30 -15 -96t-15 -93q0 -35 22.5 -48.5t73.5 -13.5v-90q-122 0 -172 34 t-50 103q0 34 17 104t17 100q0 42 -22.5 62t-77.5 20z" />
<glyph unicode="|" horiz-adv-x="357" d="M115 -170v980h127v-980h-127z" />
<glyph unicode="}" horiz-adv-x="408" d="M65 -55q51 0 73 13.5t22 48.5q0 27 -15 93t-15 96q0 53 29 84t79 39v7q-49 6 -78.5 37t-29.5 85q0 31 15 97t15 93q0 35 -22.5 48.5t-72.5 13.5v90q122 0 172 -34t50 -103q0 -34 -17 -104t-17 -100q0 -42 22 -62t78 -20v-89q-56 0 -78 -20t-22 -62q0 -30 17 -100t17 -104 q0 -69 -50 -103t-172 -34v90z" />
<glyph unicode="~" horiz-adv-x="711" d="M75 209q0 87 42.5 140.5t118.5 53.5q34 0 69 -13t58.5 -28.5t52.5 -28.5t53 -13q33 0 51 23t18 61h98q0 -87 -43.5 -140.5t-119.5 -53.5q-53 0 -126 41t-105 41q-33 0 -51.5 -22.5t-18.5 -60.5h-97z" />
<glyph unicode="&#xa1;" horiz-adv-x="279" d="M55 449q0 37 24 61t60 24q37 0 61 -24t24 -61t-24 -61t-61 -24q-36 0 -60 24t-24 61zM72 -180l12 457h111l12 -457h-135z" />
<glyph unicode="&#xa2;" horiz-adv-x="515" d="M50 260q0 119 69.5 193t183.5 80l21 111h93l-23 -118q41 -9 71 -23v-108q-60 41 -131 41q-75 0 -117.5 -47t-42.5 -129t42.5 -129t117.5 -47q69 0 131 40v-108q-64 -30 -143 -30q-16 0 -30 2l-18 -98h-92l22 118q-72 31 -113 96.5t-41 155.5z" />
<glyph unicode="&#xa3;" horiz-adv-x="560" d="M57 307v80h68q-15 58 -15 124q0 96 63.5 149.5t162.5 53.5q35 0 68 -8t48 -16l16 -9v-106q-56 36 -133 36q-43 0 -70 -27.5t-27 -77.5q0 -65 13 -119h168v-80h-149q7 -40 7 -77q0 -39 -14.5 -69.5t-28.5 -40.5l-14 -11l2 -4q16 6 44 6q23 0 65 -7.5t67 -7.5 q31 0 57.5 8.5t38.5 17.5l11 8v-104q-3 -4 -10 -10.5t-32 -17t-54 -10.5q-49 0 -107 20t-93 20q-26 0 -53.5 -10t-41.5 -20l-14 -11l-40 65q4 2 11 6.5t25 19t32 31t25 42.5t11 54q0 40 -17 102h-90z" />
<glyph unicode="&#xa4;" horiz-adv-x="639" d="M55 136l72 73q-35 56 -35 123q0 69 35 122l-72 73l69 69l72 -73q55 36 123 36q67 0 122 -36l74 73l69 -69l-73 -73q35 -56 35 -122q0 -67 -35 -123l73 -73l-69 -69l-73 73q-55 -35 -123 -35q-66 0 -123 34l-72 -72zM195 332q0 -59 35 -97.5t89 -38.5q55 0 90 38.5 t35 97.5t-35 97.5t-90 38.5q-54 0 -89 -38.5t-35 -97.5z" />
<glyph unicode="&#xa5;" horiz-adv-x="587" d="M1 700h140l152 -306l152 306h141l-192 -358h126v-77h-163v-66h163v-77h-163v-122h-127v122h-162v77h162v66h-162v77h124z" />
<glyph unicode="&#xa6;" horiz-adv-x="357" d="M115 -170v435h127v-435h-127zM115 375v435h127v-435h-127z" />
<glyph unicode="&#xa7;" horiz-adv-x="582" d="M75 -53q76 -54 171 -54q58 0 91.5 23t33.5 62q0 31 -30 54.5t-73 41.5t-86 40t-73 62t-30 95q0 84 71 131q-71 51 -71 131q0 84 64.5 132.5t168.5 48.5q99 0 165 -37v-114q-75 50 -156 50q-50 0 -79 -20.5t-29 -54.5q0 -30 30.5 -52.5t73.5 -41t86 -41t73.5 -63.5 t30.5 -97q0 -81 -69 -131q69 -53 69 -130q0 -88 -71 -140t-179 -52q-105 0 -182 42v115zM203 277q0 -10 3.5 -19t8 -16t14 -15t16.5 -13t21.5 -12.5t22.5 -11.5t26 -12t25 -12q41 27 41 73q0 18 -8 32.5t-29.5 28.5t-33.5 20t-47 22q-3 2 -5 2.5t-5 2l-5 2.5 q-45 -23 -45 -72z" />
<glyph unicode="&#xa8;" horiz-adv-x="449" d="M55 672q0 28 18.5 46.5t46.5 18.5t46 -18.5t18 -46.5t-18 -46.5t-46 -18.5t-46.5 18.5t-18.5 46.5zM264 672q0 28 19 46.5t47 18.5q27 0 45.5 -18.5t18.5 -46.5t-18.5 -46.5t-45.5 -18.5q-28 0 -47 18.5t-19 46.5z" />
<glyph unicode="&#xa9;" horiz-adv-x="858" d="M65 350q0 151 106.5 257.5t257.5 106.5t257.5 -106.5t106.5 -257.5t-106.5 -257.5t-257.5 -106.5t-257.5 106.5t-106.5 257.5zM152 350q0 -122 80.5 -204.5t196.5 -82.5t196 82.5t80 204.5t-80 204.5t-196 82.5t-196.5 -82.5t-80.5 -204.5zM248 350q0 89 54 145.5 t139 56.5q61 0 109 -27v-85q-54 42 -103 42q-54 0 -85 -36t-31 -96t31 -96t85 -36q51 0 103 42v-85q-45 -27 -109 -27q-85 0 -139 56t-54 146z" />
<glyph unicode="&#xaa;" horiz-adv-x="459" d="M65 218v64h329v-64h-329zM65 461q0 50 39 82.5t105 32.5q33 0 55 -6v16q0 57 -67 57q-14 0 -28 -2.5t-27.5 -7t-21 -8t-18.5 -9.5l-12 -5v76q61 27 121 27q67 0 103 -30t36 -86v-141q0 -33 25 -33l18 4v-58q-22 -11 -53 -11q-48 0 -66 38q-37 -43 -97 -43q-50 0 -81 28.5 t-31 78.5zM152 465q0 -19 13.5 -31t38.5 -12q39 0 60 33v58q-17 5 -40 5q-33 0 -52.5 -15t-19.5 -38z" />
<glyph unicode="&#xab;" horiz-adv-x="598" d="M40 210v107l233 200v-109l-136 -145l136 -144v-109zM270 210v107l233 200v-109l-136 -145l136 -144v-109z" />
<glyph unicode="&#xac;" horiz-adv-x="700" d="M55 328v108h570v-299h-108v191h-462z" />
<glyph unicode="&#xae;" horiz-adv-x="858" d="M65 350q0 151 106.5 257.5t257.5 106.5t257.5 -106.5t106.5 -257.5t-106.5 -257.5t-257.5 -106.5t-257.5 106.5t-106.5 257.5zM152 350q0 -121 80.5 -204t196.5 -83q115 0 195.5 82.5t80.5 204.5q0 121 -80.5 204t-195.5 83t-196 -83t-81 -204zM301 154v387h125 q67 0 105.5 -34.5t38.5 -89.5q0 -72 -64 -106l109 -157h-96l-88 139h-51v-139h-79zM380 359h38q69 0 69 58t-69 58h-38v-116z" />
<glyph unicode="&#xaf;" horiz-adv-x="414" d="M55 638v91h304v-91h-304z" />
<glyph unicode="&#xb0;" horiz-adv-x="404" d="M35 546q0 70 48 119t118 49t119 -49t49 -119t-49 -118t-119 -48t-118 48t-48 118zM125 546q0 -33 21.5 -56t54.5 -23q34 0 56 23t22 56q0 35 -22 58t-56 23q-33 0 -54.5 -23t-21.5 -58z" />
<glyph unicode="&#xb1;" horiz-adv-x="723" d="M95 0v101h533v-101h-533zM95 321v101h215v154h101v-154h217v-101h-217v-160h-101v160h-215z" />
<glyph unicode="&#xb2;" horiz-adv-x="362" d="M55 332v41l97 116q56 66 56 102q0 18 -12 28t-33 10q-38 0 -99 -45v90q50 33 107 33q56 0 91 -32t35 -82q0 -57 -65 -131l-46 -54h121v-76h-252z" />
<glyph unicode="&#xb3;" horiz-adv-x="350" d="M55 344v80q53 -21 94 -21q26 0 41.5 13.5t15.5 32.5q0 50 -102 50v36l66 89h-114v76h231v-41l-74 -99q37 -12 59.5 -41.5t22.5 -69.5q0 -54 -38 -89t-105 -35q-51 0 -97 19z" />
<glyph unicode="&#xb4;" horiz-adv-x="393" d="M55 613l119 147h164l-174 -147h-109z" />
<glyph unicode="&#xb5;" horiz-adv-x="661" d="M82 -179v699h120v-322q0 -55 28.5 -83.5t77.5 -28.5q37 0 70 19.5t51 40.5v374h120v-368q0 -62 54 -62q8 0 16.5 2t12.5 4l4 1v-95q-32 -12 -72 -12q-104 0 -127 85h-2q-23 -34 -67.5 -61.5t-104.5 -27.5q-34 0 -61 11v-176h-120z" />
<glyph unicode="&#xb6;" horiz-adv-x="745" d="M55 465q0 107 68 171t190 64h337v-950h-113v850h-106v-850h-113v481h-5q-122 0 -190 63.5t-68 170.5z" />
<glyph unicode="&#xb7;" horiz-adv-x="319" d="M75 341q0 37 24 60.5t61 23.5q36 0 60 -23.5t24 -60.5t-24 -61t-60 -24q-37 0 -61 24t-24 61z" />
<glyph unicode="&#xb8;" horiz-adv-x="322" d="M55 -179q33 -17 70 -17q22 0 35 11t13 30q0 24 -27 38t-74 14l58 103h88l-39 -62q41 -9 66 -33t25 -60q0 -49 -40.5 -76.5t-96.5 -27.5q-19 0 -38.5 3t-29.5 6l-10 3v68z" />
<glyph unicode="&#xb9;" horiz-adv-x="258" d="M55 624v76h148v-368h-86v292h-62z" />
<glyph unicode="&#xba;" horiz-adv-x="479" d="M65 216v66h349v-66h-349zM65 534q0 79 49 129.5t126 50.5t125.5 -50.5t48.5 -129.5q0 -80 -48.5 -130t-125.5 -50t-126 50.5t-49 129.5zM154 534q0 -52 23 -81t63 -29t63 29t23 81q0 51 -23.5 80.5t-62.5 29.5t-62.5 -29.5t-23.5 -80.5z" />
<glyph unicode="&#xbb;" horiz-adv-x="598" d="M95 10v109l136 144l-136 145v109l233 -200v-107zM325 10v109l136 144l-136 145v109l233 -200v-107z" />
<glyph unicode="&#xbc;" horiz-adv-x="755" d="M55 624v76h148v-368h-86v292h-62zM138 -14l344 728h97l-344 -728h-97zM409 69v46l196 256h48v-229h47v-73h-47v-69h-86v69h-158zM494 142h73v95z" />
<glyph unicode="&#xbd;" horiz-adv-x="794" d="M55 624v76h148v-368h-86v292h-62zM138 -14l344 728h97l-344 -728h-97zM487 0v41l97 116q56 66 56 102q0 38 -45 38q-38 0 -99 -45v90q50 33 107 33q56 0 91 -32t35 -83q0 -54 -65 -130l-46 -54h121v-76h-252z" />
<glyph unicode="&#xbe;" horiz-adv-x="818" d="M55 344v80q53 -21 94 -21q26 0 41.5 13.5t15.5 32.5q0 50 -102 50v36l66 89h-114v76h231v-41l-74 -99q37 -12 59.5 -41.5t22.5 -69.5q0 -54 -38 -89t-105 -35q-51 0 -97 19zM202 -14l344 728h96l-344 -728h-96zM473 69v46l195 256h48v-229h47v-73h-47v-69h-85v69h-158z M557 142h74v95z" />
<glyph unicode="&#xbf;" horiz-adv-x="452" d="M55 -32q0 41 17.5 74t42.5 56t50 45.5t42.5 52t17.5 64.5q0 11 -1 17h102q3 -21 3 -38q0 -46 -22.5 -86.5t-49 -64.5t-49 -53.5t-22.5 -56.5q0 -32 24 -50t66 -18q55 0 121 32v-105q-67 -31 -141 -31q-91 0 -146 44t-55 118zM190 449q0 37 24 61t61 24q36 0 60.5 -24 t24.5 -61t-24.5 -61t-60.5 -24q-37 0 -61 24t-24 61z" />
<glyph unicode="&#xc0;" horiz-adv-x="662" d="M1 0l286 704h88l286 -704h-135l-51 132h-289l-51 -132h-134zM159 937h164l119 -147h-109zM222 229h216l-107 282z" />
<glyph unicode="&#xc1;" horiz-adv-x="662" d="M1 0l286 704h88l286 -704h-135l-51 132h-289l-51 -132h-134zM219 790l119 147h164l-174 -147h-109zM222 229h216l-107 282z" />
<glyph unicode="&#xc2;" horiz-adv-x="662" d="M1 0l286 704h88l286 -704h-135l-51 132h-289l-51 -132h-134zM147 790l122 152h124l122 -152h-109l-75 86l-75 -86h-109zM222 229h216l-107 282z" />
<glyph unicode="&#xc3;" horiz-adv-x="662" d="M1 0l286 704h88l286 -704h-135l-51 132h-289l-51 -132h-134zM132 797q0 64 30.5 111.5t90.5 47.5q34 0 61.5 -18t49 -36t41.5 -18q45 0 47 71h77q0 -66 -30.5 -112.5t-92.5 -46.5q-36 0 -63 18t-48 36t-42 18q-42 0 -44 -71h-77zM222 229h216l-107 282z" />
<glyph unicode="&#xc4;" horiz-adv-x="662" d="M1 0l286 704h88l286 -704h-135l-51 132h-289l-51 -132h-134zM161 853q0 28 18.5 46.5t46.5 18.5t46 -18.5t18 -46.5t-18 -46.5t-46 -18.5t-46.5 18.5t-18.5 46.5zM222 229h216l-107 282zM370 853q0 28 19 46.5t47 18.5q27 0 45.5 -18.5t18.5 -46.5t-18.5 -46.5 t-45.5 -18.5q-28 0 -47 18.5t-19 46.5z" />
<glyph unicode="&#xc5;" horiz-adv-x="662" d="M1 0l272 670q-33 15 -52.5 46t-19.5 72q0 57 36.5 92.5t93.5 35.5t93.5 -35.5t36.5 -92.5q0 -41 -19.5 -72t-52.5 -46l272 -670h-135l-51 132h-289l-51 -132h-134zM222 229h216l-107 282zM276 788q0 -28 15 -44.5t40 -16.5t40 16.5t15 44.5q0 26 -15 42.5t-40 16.5 t-40 -16.5t-15 -42.5z" />
<glyph unicode="&#xc6;" horiz-adv-x="948" d="M1 0l427 700h462v-105h-293v-175h253v-105h-253v-210h293v-105h-420v132h-245l-79 -132h-145zM283 229h187v311z" />
<glyph unicode="&#xc7;" horiz-adv-x="643" d="M50 350q0 160 97 262t248 102q107 0 193 -46v-130q-85 65 -182 65q-102 0 -162 -69t-60 -184t60 -184t162 -69q99 0 182 64v-129q-72 -40 -169 -45l-31 -49q41 -9 66 -33t25 -60q0 -49 -40.5 -76.5t-96.5 -27.5q-19 0 -38.5 3t-29.5 6l-10 3v68q33 -17 70 -17q15 0 26 5 t16.5 14.5t5.5 21.5q0 24 -27 38t-74 14l53 94q-128 20 -206 118t-78 241z" />
<glyph unicode="&#xc8;" horiz-adv-x="577" d="M92 0v700h420v-105h-293v-175h253v-105h-253v-210h293v-105h-420zM115 933h164l119 -147h-109z" />
<glyph unicode="&#xc9;" horiz-adv-x="577" d="M92 0v700h420v-105h-293v-175h253v-105h-253v-210h293v-105h-420zM190 786l119 147h164l-174 -147h-109z" />
<glyph unicode="&#xca;" horiz-adv-x="577" d="M92 0v700h420v-105h-293v-175h253v-105h-253v-210h293v-105h-420zM113 786l122 152h124l122 -152h-109l-75 86l-75 -86h-109z" />
<glyph unicode="&#xcb;" horiz-adv-x="577" d="M92 0v700h420v-105h-293v-175h253v-105h-253v-210h293v-105h-420zM133 849q0 28 18.5 46.5t46.5 18.5t46 -18.5t18 -46.5t-18 -46.5t-46 -18.5t-46.5 18.5t-18.5 46.5zM342 849q0 28 19 46.5t47 18.5q27 0 45.5 -18.5t18.5 -46.5t-18.5 -46.5t-45.5 -18.5q-28 0 -47 18.5 t-19 46.5z" />
<glyph unicode="&#xcc;" horiz-adv-x="312" d="M-20 933h164l119 -147h-109zM92 0v700h127v-700h-127z" />
<glyph unicode="&#xcd;" horiz-adv-x="312" d="M45 786l119 147h164l-174 -147h-109zM92 0v700h127v-700h-127z" />
<glyph unicode="&#xce;" horiz-adv-x="312" d="M-28 786l122 152h124l122 -152h-109l-75 86l-75 -86h-109zM92 0v700h127v-700h-127z" />
<glyph unicode="&#xcf;" horiz-adv-x="312" d="M-13 849q0 28 18.5 46.5t46.5 18.5t46 -18.5t18 -46.5t-18 -46.5t-46 -18.5t-46.5 18.5t-18.5 46.5zM92 0v700h127v-700h-127zM196 849q0 28 19 46.5t47 18.5q27 0 45.5 -18.5t18.5 -46.5t-18.5 -46.5t-45.5 -18.5q-28 0 -47 18.5t-19 46.5z" />
<glyph unicode="&#xd0;" horiz-adv-x="722" d="M15 274v85h83v341h174q200 0 300 -94.5t100 -255.5t-100 -255.5t-300 -94.5h-174v274h-83zM225 105h47q133 0 199.5 63t66.5 182t-66.5 182t-199.5 63h-47v-236h129v-85h-129v-169z" />
<glyph unicode="&#xd1;" horiz-adv-x="797" d="M92 0v704h85l400 -475v471h127v-704h-85l-400 474v-470h-127zM195 791q0 64 30.5 111.5t90.5 47.5q34 0 61.5 -18t49 -36t41.5 -18q45 0 47 71h77q0 -66 -30.5 -112.5t-92.5 -46.5q-36 0 -63 18t-48 36t-42 18q-42 0 -44 -71h-77z" />
<glyph unicode="&#xd2;" horiz-adv-x="808" d="M50 350q0 161 98.5 262.5t255.5 101.5t255.5 -101.5t98.5 -262.5t-98.5 -262.5t-255.5 -101.5t-255.5 101.5t-98.5 262.5zM184 350q0 -115 60.5 -184.5t159.5 -69.5t159.5 69.5t60.5 184.5t-60.5 184t-159.5 69t-159.5 -69t-60.5 -184zM217 940h164l119 -147h-109z" />
<glyph unicode="&#xd3;" horiz-adv-x="808" d="M50 350q0 161 98.5 262.5t255.5 101.5t255.5 -101.5t98.5 -262.5t-98.5 -262.5t-255.5 -101.5t-255.5 101.5t-98.5 262.5zM184 350q0 -115 60.5 -184.5t159.5 -69.5t159.5 69.5t60.5 184.5t-60.5 184t-159.5 69t-159.5 -69t-60.5 -184zM297 793l119 147h164l-174 -147 h-109z" />
<glyph unicode="&#xd4;" horiz-adv-x="808" d="M50 350q0 161 98.5 262.5t255.5 101.5t255.5 -101.5t98.5 -262.5t-98.5 -262.5t-255.5 -101.5t-255.5 101.5t-98.5 262.5zM184 350q0 -115 60.5 -184.5t159.5 -69.5t159.5 69.5t60.5 184.5t-60.5 184t-159.5 69t-159.5 -69t-60.5 -184zM219 793l122 152h124l122 -152 h-109l-75 86l-75 -86h-109z" />
<glyph unicode="&#xd5;" horiz-adv-x="808" d="M50 350q0 161 98.5 262.5t255.5 101.5t255.5 -101.5t98.5 -262.5t-98.5 -262.5t-255.5 -101.5t-255.5 101.5t-98.5 262.5zM184 350q0 -115 60.5 -184.5t159.5 -69.5t159.5 69.5t60.5 184.5t-60.5 184t-159.5 69t-159.5 -69t-60.5 -184zM204 800q0 64 30.5 111.5 t90.5 47.5q34 0 61.5 -18t49 -36t41.5 -18q45 0 47 71h77q0 -66 -30.5 -112.5t-92.5 -46.5q-36 0 -63 18t-48 36t-42 18q-42 0 -44 -71h-77z" />
<glyph unicode="&#xd6;" horiz-adv-x="808" d="M50 350q0 161 98.5 262.5t255.5 101.5t255.5 -101.5t98.5 -262.5t-98.5 -262.5t-255.5 -101.5t-255.5 101.5t-98.5 262.5zM184 350q0 -115 60.5 -184.5t159.5 -69.5t159.5 69.5t60.5 184.5t-60.5 184t-159.5 69t-159.5 -69t-60.5 -184zM239 856q0 28 18.5 46.5t46.5 18.5 t46 -18.5t18 -46.5t-18 -46.5t-46 -18.5t-46.5 18.5t-18.5 46.5zM448 856q0 28 19 46.5t47 18.5q27 0 45.5 -18.5t18.5 -46.5t-18.5 -46.5t-45.5 -18.5q-28 0 -47 18.5t-19 46.5z" />
<glyph unicode="&#xd7;" horiz-adv-x="661" d="M55 88l200 200l-200 201l75 75l200 -201l201 201l75 -75l-201 -201l201 -200l-75 -75l-201 200l-200 -200z" />
<glyph unicode="&#xd8;" horiz-adv-x="803" d="M47 -14l91 110q-91 100 -91 254q0 161 98.5 262.5t255.5 101.5q110 0 198 -56l46 56h110l-90 -111q90 -99 90 -253q0 -161 -98.5 -262.5t-255.5 -101.5q-114 0 -198 55l-46 -55h-110zM181 350q0 -90 39 -154l304 370q-52 37 -123 37q-99 0 -159.5 -69t-60.5 -184z M278 133q52 -37 123 -37q99 0 159.5 69.5t60.5 184.5q0 89 -39 153z" />
<glyph unicode="&#xd9;" horiz-adv-x="745" d="M87 264v436h127v-437q0 -168 158 -168t158 168v437h127v-436q0 -138 -76.5 -208t-208.5 -70t-208.5 69t-76.5 209zM181 933h164l119 -147h-109z" />
<glyph unicode="&#xda;" horiz-adv-x="745" d="M87 264v436h127v-437q0 -168 158 -168t158 168v437h127v-436q0 -138 -76.5 -208t-208.5 -70t-208.5 69t-76.5 209zM271 786l119 147h164l-174 -147h-109z" />
<glyph unicode="&#xdb;" horiz-adv-x="745" d="M87 264v436h127v-437q0 -168 158 -168t158 168v437h127v-436q0 -138 -76.5 -208t-208.5 -70t-208.5 69t-76.5 209zM188 786l122 152h124l122 -152h-109l-75 86l-75 -86h-109z" />
<glyph unicode="&#xdc;" horiz-adv-x="750" d="M89 264v436h127v-437q0 -168 158 -168t158 168v437h127v-436q0 -138 -76.5 -208t-208.5 -70t-208.5 69t-76.5 209zM205 853q0 28 18.5 46.5t46.5 18.5t46 -18.5t18 -46.5t-18 -46.5t-46 -18.5t-46.5 18.5t-18.5 46.5zM414 853q0 28 19 46.5t47 18.5q27 0 45.5 -18.5 t18.5 -46.5t-18.5 -46.5t-45.5 -18.5q-28 0 -47 18.5t-19 46.5z" />
<glyph unicode="&#xdd;" horiz-adv-x="581" d="M-2 700h140l152 -305l152 305h141l-229 -428v-272h-127v272zM214 786l119 147h164l-174 -147h-109z" />
<glyph unicode="&#xde;" horiz-adv-x="617" d="M95 0v700h127v-112h92q126 0 195 -62t69 -160t-69 -160.5t-195 -62.5h-92v-143h-127zM222 248h82q140 0 140 118q0 117 -140 117h-82v-235z" />
<glyph unicode="&#xdf;" horiz-adv-x="655" d="M85 0v533q0 89 61.5 143t166.5 54q100 0 159 -43t59 -109q0 -42 -20 -74t-44 -47t-44 -34t-20 -38q0 -21 23 -38t55.5 -32t65 -33.5t55.5 -52t23 -78.5q0 -75 -56 -120t-146 -45q-89 0 -150 39v99q26 -18 70 -32t79 -14q40 0 61.5 20.5t21.5 49.5q0 27 -23 47t-56 34 t-66 30t-56 45t-23 69q0 31 12.5 54t30.5 36.5t36.5 26.5t31 30.5t12.5 41.5q0 37 -28.5 57t-65.5 20q-41 0 -74 -27.5t-33 -77.5v-534h-118z" />
<glyph unicode="&#xe0;" horiz-adv-x="549" d="M40 148q0 72 56.5 119.5t154.5 47.5q36 0 91 -11v37q0 95 -110 95q-81 0 -154 -42v106q85 34 176 34q100 0 154 -45t54 -130v-218q0 -56 45 -56l22 5v-82q-26 -13 -75 -13q-42 0 -67.5 20t-33.5 49q-57 -78 -151 -78q-73 0 -117.5 43t-44.5 119zM92 760h164l119 -147 h-109zM162 154q0 -32 20.5 -51.5t59.5 -19.5q67 0 100 56v87q-35 10 -69 10q-50 0 -80.5 -23t-30.5 -59z" />
<glyph unicode="&#xe1;" horiz-adv-x="549" d="M40 148q0 72 56.5 119.5t154.5 47.5q36 0 91 -11v37q0 95 -110 95q-81 0 -154 -42v106q85 34 176 34q100 0 154 -45t54 -130v-218q0 -56 45 -56l22 5v-82q-26 -13 -75 -13q-42 0 -67.5 20t-33.5 49q-57 -78 -151 -78q-73 0 -117.5 43t-44.5 119zM147 613l119 147h164 l-174 -147h-109zM162 154q0 -32 20.5 -51.5t59.5 -19.5q67 0 100 56v87q-35 10 -69 10q-50 0 -80.5 -23t-30.5 -59z" />
<glyph unicode="&#xe2;" horiz-adv-x="549" d="M40 148q0 72 56.5 119.5t154.5 47.5q36 0 91 -11v37q0 95 -110 95q-81 0 -154 -42v106q85 34 176 34q100 0 154 -45t54 -130v-218q0 -56 45 -56l22 5v-82q-26 -13 -75 -13q-42 0 -67.5 20t-33.5 49q-57 -78 -151 -78q-73 0 -117.5 43t-44.5 119zM82 613l122 152h124 l122 -152h-109l-75 86l-75 -86h-109zM162 154q0 -32 20.5 -51.5t59.5 -19.5q67 0 100 56v87q-35 10 -69 10q-50 0 -80.5 -23t-30.5 -59z" />
<glyph unicode="&#xe3;" horiz-adv-x="549" d="M40 148q0 72 56.5 119.5t154.5 47.5q36 0 91 -11v37q0 95 -110 95q-81 0 -154 -42v106q85 34 176 34q100 0 154 -45t54 -130v-218q0 -56 45 -56l22 5v-82q-26 -13 -75 -13q-42 0 -67.5 20t-33.5 49q-57 -78 -151 -78q-73 0 -117.5 43t-44.5 119zM58 626q0 64 30.5 111.5 t90.5 47.5q34 0 61.5 -18t49 -36t41.5 -18q45 0 47 71h77q0 -66 -30.5 -112.5t-92.5 -46.5q-36 0 -63 18t-48 36t-42 18q-42 0 -44 -71h-77zM162 154q0 -32 20.5 -51.5t59.5 -19.5q67 0 100 56v87q-35 10 -69 10q-50 0 -80.5 -23t-30.5 -59z" />
<glyph unicode="&#xe4;" horiz-adv-x="549" d="M40 148q0 72 56.5 119.5t154.5 47.5q36 0 91 -11v37q0 95 -110 95q-81 0 -154 -42v106q85 34 176 34q100 0 154 -45t54 -130v-218q0 -56 45 -56l22 5v-82q-26 -13 -75 -13q-42 0 -67.5 20t-33.5 49q-57 -78 -151 -78q-73 0 -117.5 43t-44.5 119zM95 677q0 28 18.5 46.5 t46.5 18.5t46 -18.5t18 -46.5t-18 -46.5t-46 -18.5t-46.5 18.5t-18.5 46.5zM162 154q0 -32 20.5 -51.5t59.5 -19.5q67 0 100 56v87q-35 10 -69 10q-50 0 -80.5 -23t-30.5 -59zM304 677q0 28 19 46.5t47 18.5q27 0 45.5 -18.5t18.5 -46.5t-18.5 -46.5t-45.5 -18.5 q-28 0 -47 18.5t-19 46.5z" />
<glyph unicode="&#xe5;" horiz-adv-x="549" d="M40 148q0 72 56.5 119.5t154.5 47.5q36 0 91 -11v37q0 95 -110 95q-81 0 -154 -42v106q85 34 176 34q100 0 154 -45t54 -130v-218q0 -56 45 -56l22 5v-82q-26 -13 -75 -13q-42 0 -67.5 20t-33.5 49q-57 -78 -151 -78q-73 0 -117.5 43t-44.5 119zM129 718q0 57 36.5 92.5 t93.5 35.5t93.5 -35.5t36.5 -92.5q0 -58 -36.5 -94t-93.5 -36t-93.5 36t-36.5 94zM162 154q0 -32 20.5 -51.5t59.5 -19.5q67 0 100 56v87q-35 10 -69 10q-50 0 -80.5 -23t-30.5 -59zM204 718q0 -28 15 -44.5t40 -16.5t40 16.5t15 44.5q0 26 -15 42.5t-40 16.5t-40 -16.5 t-15 -42.5z" />
<glyph unicode="&#xe6;" horiz-adv-x="891" d="M47 148q0 75 58 123.5t159 48.5q36 0 91 -11v31q0 95 -111 95q-78 0 -159 -47v107q97 39 181 39q121 0 172 -67q70 67 172 67q104 0 169 -65.5t65 -173.5l-3 -61h-360q11 -151 165 -151q92 0 173 53v-100q-78 -50 -191 -50q-134 0 -208 85q-46 -46 -92.5 -65.5 t-108.5 -19.5q-79 0 -125.5 43t-46.5 119zM169 153q0 -32 22.5 -52t63.5 -20q66 0 100 57v91q-41 11 -69 11q-53 0 -85 -24t-32 -63zM484 318h236q0 58 -30 90.5t-80 32.5q-53 0 -86 -34t-40 -89z" />
<glyph unicode="&#xe7;" horiz-adv-x="512" d="M47 260q0 124 76 199t196 75q83 0 143 -31v-108q-60 41 -130 41q-75 0 -118 -47t-43 -129t43 -129t118 -47q68 0 130 40v-108q-54 -26 -127 -30l-30 -48q41 -9 66 -33t25 -60q0 -49 -40.5 -76.5t-96.5 -27.5q-19 0 -38.5 3t-29.5 6l-10 3v68q33 -17 70 -17q22 0 35 11 t13 30q0 24 -27 38t-74 14l54 96q-62 13 -108 48.5t-71.5 92t-25.5 126.5z" />
<glyph unicode="&#xe8;" horiz-adv-x="584" d="M47 260q0 120 72 197t184 77q104 0 168.5 -65t64.5 -174l-3 -61h-359q5 -73 46.5 -112t118.5 -39q92 0 172 53v-100q-78 -50 -191 -50q-123 0 -198 75.5t-75 198.5zM125 760h164l119 -147h-109zM176 318h237q1 58 -30 90.5t-81 32.5q-52 0 -85 -34t-41 -89z" />
<glyph unicode="&#xe9;" horiz-adv-x="584" d="M47 260q0 120 72 197t184 77q104 0 168.5 -65t64.5 -174l-3 -61h-359q5 -73 46.5 -112t118.5 -39q92 0 172 53v-100q-78 -50 -191 -50q-123 0 -198 75.5t-75 198.5zM176 318h237q1 58 -30 90.5t-81 32.5q-52 0 -85 -34t-41 -89zM180 613l119 147h164l-174 -147h-109z" />
<glyph unicode="&#xea;" horiz-adv-x="584" d="M47 260q0 120 72 197t184 77q104 0 168.5 -65t64.5 -174l-3 -61h-359q5 -73 46.5 -112t118.5 -39q92 0 172 53v-100q-78 -50 -191 -50q-123 0 -198 75.5t-75 198.5zM117 613l122 152h124l122 -152h-109l-75 86l-75 -86h-109zM176 318h237q1 58 -30 90.5t-81 32.5 q-52 0 -85 -34t-41 -89z" />
<glyph unicode="&#xeb;" horiz-adv-x="584" d="M47 260q0 120 72 197t184 77q104 0 168.5 -65t64.5 -174l-3 -61h-359q5 -73 46.5 -112t118.5 -39q92 0 172 53v-100q-78 -50 -191 -50q-123 0 -198 75.5t-75 198.5zM132 677q0 28 18.5 46.5t46.5 18.5t46 -18.5t18 -46.5t-18 -46.5t-46 -18.5t-46.5 18.5t-18.5 46.5z M176 318h237q1 58 -30 90.5t-81 32.5q-52 0 -85 -34t-41 -89zM341 677q0 28 19 46.5t47 18.5q27 0 45.5 -18.5t18.5 -46.5t-18.5 -46.5t-45.5 -18.5q-28 0 -47 18.5t-19 46.5z" />
<glyph unicode="&#xec;" horiz-adv-x="285" d="M-24 760h164l119 -147h-109zM82 0v520h120v-520h-120z" />
<glyph unicode="&#xed;" horiz-adv-x="285" d="M31 613l119 147h164l-174 -147h-109zM82 0v520h120v-520h-120z" />
<glyph unicode="&#xee;" horiz-adv-x="285" d="M-41 613l122 152h124l122 -152h-109l-75 86l-75 -86h-109zM82 0v520h120v-520h-120z" />
<glyph unicode="&#xef;" horiz-adv-x="285" d="M-26 677q0 28 18.5 46.5t46.5 18.5t46 -18.5t18 -46.5t-18 -46.5t-46 -18.5t-46.5 18.5t-18.5 46.5zM82 0v520h120v-520h-120zM183 677q0 28 19 46.5t47 18.5q27 0 45.5 -18.5t18.5 -46.5t-18.5 -46.5t-45.5 -18.5q-28 0 -47 18.5t-19 46.5z" />
<glyph unicode="&#xf0;" horiz-adv-x="614" d="M47 239q0 109 68 180.5t171 71.5q71 0 131 -47q-20 63 -72 131l-114 -52l-22 48l101 45q-28 30 -60 52l50 62q48 -31 93 -76l106 49l22 -47l-91 -42q64 -76 100 -167t36 -182q0 -129 -71.5 -204t-189.5 -75q-113 0 -185.5 71t-72.5 182zM172 240q0 -73 37 -114.5 t98 -41.5t97.5 41.5t36.5 114.5t-36.5 114.5t-97.5 41.5t-98 -41.5t-37 -114.5z" />
<glyph unicode="&#xf1;" d="M75 520h110q7 -30 12 -74q74 88 172 88q65 0 107.5 -31t57.5 -72.5t15 -91.5v-339h-120v321q0 55 -28 83.5t-77 28.5q-37 0 -69.5 -19t-52.5 -41v-373h-120v388q0 34 -2 67t-4 49zM116 626q0 64 30.5 111.5t90.5 47.5q34 0 61.5 -18t49 -36t41.5 -18q45 0 47 71h77 q0 -66 -30.5 -112.5t-92.5 -46.5q-36 0 -63 18t-48 36t-42 18q-42 0 -44 -71h-77z" />
<glyph unicode="&#xf2;" horiz-adv-x="624" d="M47 260q0 121 74 197.5t191 76.5t190.5 -76.5t73.5 -197.5t-73.5 -197.5t-190.5 -76.5t-191 76.5t-74 197.5zM130 760h164l119 -147h-109zM172 260q0 -82 38 -129t102 -47t101.5 47t37.5 129t-37.5 129t-101.5 47t-102 -47t-38 -129z" />
<glyph unicode="&#xf3;" horiz-adv-x="624" d="M47 260q0 121 74 197.5t191 76.5t190.5 -76.5t73.5 -197.5t-73.5 -197.5t-190.5 -76.5t-191 76.5t-74 197.5zM172 260q0 -82 38 -129t102 -47t101.5 47t37.5 129t-37.5 129t-101.5 47t-102 -47t-38 -129zM190 613l119 147h164l-174 -147h-109z" />
<glyph unicode="&#xf4;" horiz-adv-x="624" d="M47 260q0 121 74 197.5t191 76.5t190.5 -76.5t73.5 -197.5t-73.5 -197.5t-190.5 -76.5t-191 76.5t-74 197.5zM127 613l122 152h124l122 -152h-109l-75 86l-75 -86h-109zM172 260q0 -82 38 -129t102 -47t101.5 47t37.5 129t-37.5 129t-101.5 47t-102 -47t-38 -129z" />
<glyph unicode="&#xf5;" horiz-adv-x="624" d="M47 260q0 121 74 197.5t191 76.5t190.5 -76.5t73.5 -197.5t-73.5 -197.5t-190.5 -76.5t-191 76.5t-74 197.5zM113 626q0 64 30.5 111.5t90.5 47.5q34 0 61.5 -18t49 -36t41.5 -18q45 0 47 71h77q0 -66 -30.5 -112.5t-92.5 -46.5q-36 0 -63 18t-48 36t-42 18 q-42 0 -44 -71h-77zM172 260q0 -82 38 -129t102 -47t101.5 47t37.5 129t-37.5 129t-101.5 47t-102 -47t-38 -129z" />
<glyph unicode="&#xf6;" horiz-adv-x="624" d="M47 260q0 121 74 197.5t191 76.5t190.5 -76.5t73.5 -197.5t-73.5 -197.5t-190.5 -76.5t-191 76.5t-74 197.5zM142 677q0 28 18.5 46.5t46.5 18.5t46 -18.5t18 -46.5t-18 -46.5t-46 -18.5t-46.5 18.5t-18.5 46.5zM172 260q0 -82 38 -129t102 -47t101.5 47t37.5 129 t-37.5 129t-101.5 47t-102 -47t-38 -129zM351 677q0 28 19 46.5t47 18.5q27 0 45.5 -18.5t18.5 -46.5t-18.5 -46.5t-45.5 -18.5q-28 0 -47 18.5t-19 46.5z" />
<glyph unicode="&#xf7;" horiz-adv-x="611" d="M55 237v103h501v-103h-501zM220 93q0 34 24.5 56.5t60.5 22.5q37 0 61 -22.5t24 -56.5q0 -35 -24 -57.5t-61 -22.5q-36 0 -60.5 23t-24.5 57zM220 485q0 34 24.5 57t60.5 23q37 0 61 -22.5t24 -57.5t-24 -57.5t-61 -22.5q-36 0 -60.5 23t-24.5 57z" />
<glyph unicode="&#xf8;" horiz-adv-x="624" d="M47 -14l67 83q-67 75 -67 191q0 121 74 197.5t191 76.5q77 0 142 -38l30 38h92l-67 -84q67 -75 67 -190q0 -121 -73.5 -197.5t-190.5 -76.5q-82 0 -143 38l-30 -38h-92zM172 260q0 -56 18 -95l197 248q-31 23 -75 23q-64 0 -102 -47t-38 -129zM235 106q32 -22 77 -22 q64 0 101.5 47t37.5 129q0 54 -18 95z" />
<glyph unicode="&#xf9;" d="M78 181v339h120v-322q0 -55 28.5 -83.5t77.5 -28.5q37 0 70 19.5t51 40.5v374h120v-388q0 -34 1.5 -67t3.5 -49l2 -16h-110q-7 29 -12 73q-73 -87 -171 -87q-95 0 -138 57.5t-43 137.5zM117 760h164l119 -147h-109z" />
<glyph unicode="&#xfa;" d="M78 181v339h120v-322q0 -55 28.5 -83.5t77.5 -28.5q37 0 70 19.5t51 40.5v374h120v-388q0 -34 1.5 -67t3.5 -49l2 -16h-110q-7 29 -12 73q-73 -87 -171 -87q-95 0 -138 57.5t-43 137.5zM202 613l119 147h164l-174 -147h-109z" />
<glyph unicode="&#xfb;" d="M78 181v339h120v-322q0 -55 28.5 -83.5t77.5 -28.5q37 0 70 19.5t51 40.5v374h120v-388q0 -34 1.5 -67t3.5 -49l2 -16h-110q-7 29 -12 73q-73 -87 -171 -87q-95 0 -138 57.5t-43 137.5zM129 613l122 152h124l122 -152h-109l-75 86l-75 -86h-109z" />
<glyph unicode="&#xfc;" d="M78 181v339h120v-322q0 -55 28.5 -83.5t77.5 -28.5q37 0 70 19.5t51 40.5v374h120v-388q0 -34 1.5 -67t3.5 -49l2 -16h-110q-7 29 -12 73q-73 -87 -171 -87q-95 0 -138 57.5t-43 137.5zM144 677q0 28 18.5 46.5t46.5 18.5t46 -18.5t18 -46.5t-18 -46.5t-46 -18.5 t-46.5 18.5t-18.5 46.5zM353 677q0 28 19 46.5t47 18.5q27 0 45.5 -18.5t18.5 -46.5t-18.5 -46.5t-45.5 -18.5q-28 0 -47 18.5t-19 46.5z" />
<glyph unicode="&#xfd;" horiz-adv-x="516" d="M3 -130q24 -10 54 -10q95 0 143 142l6 19l-202 499h128l131 -352l117 352h126l-185 -517q-46 -132 -107 -192.5t-147 -60.5q-16 0 -32 3t-24 6l-8 3v108zM165 613l119 147h164l-174 -147h-109z" />
<glyph unicode="&#xfe;" horiz-adv-x="647" d="M85 -250v950h120v-227q65 61 154 61q105 0 171.5 -77.5t66.5 -196.5t-66.5 -196.5t-171.5 -77.5q-86 0 -154 53v-289h-120zM205 132q52 -49 120 -49q66 0 107 46.5t41 130.5q0 82 -39.5 126.5t-106.5 44.5q-69 0 -122 -48v-251z" />
<glyph unicode="&#xff;" horiz-adv-x="516" d="M3 -130q24 -10 54 -10q95 0 143 142l6 19l-202 499h128l131 -352l117 352h126l-185 -517q-46 -132 -107 -192.5t-147 -60.5q-16 0 -32 3t-24 6l-8 3v108zM95 672q0 28 18.5 46.5t46.5 18.5t46 -18.5t18 -46.5t-18 -46.5t-46 -18.5t-46.5 18.5t-18.5 46.5zM304 672 q0 28 19 46.5t47 18.5q27 0 45.5 -18.5t18.5 -46.5t-18.5 -46.5t-45.5 -18.5q-28 0 -47 18.5t-19 46.5z" />
<glyph unicode="&#x100;" horiz-adv-x="662" d="M1 0l286 704h88l286 -704h-135l-51 132h-289l-51 -132h-134zM179 815v91h304v-91h-304zM222 229h216l-107 282z" />
<glyph unicode="&#x101;" horiz-adv-x="549" d="M40 148q0 72 56.5 119.5t154.5 47.5q36 0 91 -11v37q0 95 -110 95q-81 0 -154 -42v106q85 34 176 34q100 0 154 -45t54 -130v-218q0 -56 45 -56l22 5v-82q-26 -13 -75 -13q-42 0 -67.5 20t-33.5 49q-57 -78 -151 -78q-73 0 -117.5 43t-44.5 119zM107 643v91h304v-91h-304 zM162 154q0 -32 20.5 -51.5t59.5 -19.5q67 0 100 56v87q-35 10 -69 10q-50 0 -80.5 -23t-30.5 -59z" />
<glyph unicode="&#x102;" horiz-adv-x="662" d="M1 0l286 704h88l286 -704h-135l-51 132h-289l-51 -132h-134zM157 967h87q14 -93 86 -93t86 93h88q-4 -78 -48.5 -127.5t-125.5 -49.5q-80 0 -124.5 49.5t-48.5 127.5zM222 229h216l-107 282z" />
<glyph unicode="&#x103;" horiz-adv-x="549" d="M40 148q0 72 56.5 119.5t154.5 47.5q36 0 91 -11v37q0 95 -110 95q-81 0 -154 -42v106q85 34 176 34q100 0 154 -45t54 -130v-218q0 -56 45 -56l22 5v-82q-26 -13 -75 -13q-42 0 -67.5 20t-33.5 49q-57 -78 -151 -78q-73 0 -117.5 43t-44.5 119zM87 794h87q14 -93 86 -93 t86 93h88q-4 -78 -48.5 -127.5t-125.5 -49.5q-80 0 -124.5 49.5t-48.5 127.5zM162 154q0 -32 20.5 -51.5t59.5 -19.5q67 0 100 56v87q-35 10 -69 10q-50 0 -80.5 -23t-30.5 -59z" />
<glyph unicode="&#x104;" horiz-adv-x="662" d="M1 0l286 704h88l286 -704q-7 -8 -17 -20.5t-27 -46.5t-17 -60q0 -30 19.5 -43.5t44.5 -13.5q14 0 29 4t23 8l8 3v-74q-30 -21 -95 -21q-59 0 -94 27.5t-35 83.5q0 40 19.5 78t38.5 57l20 18h-52l-51 132h-289l-51 -132h-134zM222 229h216l-107 282z" />
<glyph unicode="&#x105;" horiz-adv-x="549" d="M40 148q0 72 56.5 119.5t154.5 47.5q36 0 91 -11v37q0 46 -25.5 70.5t-84.5 24.5q-81 0 -154 -42v106q85 34 176 34q100 0 154 -45t54 -130v-218q0 -56 45 -56q5 0 10.5 1.5t8.5 2.5l3 1v-82q-7 -8 -17 -20.5t-27 -46.5t-17 -60q0 -30 19.5 -43.5t44.5 -13.5q14 0 29 4 t23 7l8 4v-74q-30 -21 -95 -21q-59 0 -94 27.5t-35 83.5q0 75 66 141q-33 5 -53.5 24t-27.5 44q-57 -78 -151 -78q-73 0 -117.5 43t-44.5 119zM162 154q0 -32 20.5 -51.5t59.5 -19.5q33 0 59 15.5t41 40.5v87q-35 10 -69 10q-50 0 -80.5 -23t-30.5 -59z" />
<glyph unicode="&#x106;" horiz-adv-x="643" d="M50 350q0 160 97 262t248 102q107 0 193 -46v-130q-85 65 -182 65q-102 0 -162 -69t-60 -184t60 -184t162 -69q99 0 182 64v-129q-82 -46 -193 -46q-151 0 -248 101.5t-97 262.5zM250 793l119 147h164l-174 -147h-109z" />
<glyph unicode="&#x107;" horiz-adv-x="515" d="M47 260q0 124 76 199t196 75q83 0 143 -31v-108q-60 41 -130 41q-75 0 -118 -47t-43 -129t43 -129t118 -47q68 0 130 40v-108q-62 -30 -143 -30q-120 0 -196 75t-76 199zM174 613l119 147h164l-174 -147h-109z" />
<glyph unicode="&#x10c;" horiz-adv-x="643" d="M50 350q0 160 97 262t248 102q107 0 193 -46v-130q-85 65 -182 65q-102 0 -162 -69t-60 -184t60 -184t162 -69q99 0 182 64v-129q-82 -46 -193 -46q-151 0 -248 101.5t-97 262.5zM177 945h109l75 -86l75 86h109l-122 -152h-124z" />
<glyph unicode="&#x10d;" horiz-adv-x="515" d="M47 260q0 124 76 199t196 75q83 0 143 -31v-108q-60 41 -130 41q-75 0 -118 -47t-43 -129t43 -129t118 -47q68 0 130 40v-108q-62 -30 -143 -30q-120 0 -196 75t-76 199zM96 765h109l75 -86l75 86h109l-122 -152h-124z" />
<glyph unicode="&#x10e;" horiz-adv-x="716" d="M92 0v700h174q200 0 300 -94.5t100 -255.5t-100 -255.5t-300 -94.5h-174zM150 938h109l75 -86l75 86h109l-122 -152h-124zM219 105h47q133 0 199.5 63t66.5 182t-66.5 182t-199.5 63h-47v-490z" />
<glyph unicode="&#x10f;" horiz-adv-x="841" d="M47 260q0 118 67 196t171 78q88 0 155 -55v251h120v-598q0 -34 2 -67t4 -49l1 -16h-98q-7 29 -12 57q-28 -29 -73.5 -50t-98.5 -21q-105 0 -171.5 77.5t-66.5 196.5zM171 260q0 -82 40 -127t106 -45q67 0 123 48v251q-52 49 -120 49q-66 0 -107.5 -46.5t-41.5 -129.5z M657 630q0 37 24 60.5t61 23.5q38 0 62.5 -27.5t24.5 -76.5q0 -57 -33.5 -117t-96.5 -107l-39 42q31 27 52 58.5t24 58.5q-34 2 -56.5 26t-22.5 59z" />
<glyph unicode="&#x110;" horiz-adv-x="722" d="M15 274v85h83v341h174q200 0 300 -94.5t100 -255.5t-100 -255.5t-300 -94.5h-174v274h-83zM225 105h47q133 0 199.5 63t66.5 182t-66.5 182t-199.5 63h-47v-236h129v-85h-129v-169z" />
<glyph unicode="&#x111;" horiz-adv-x="645" d="M47 260q0 118 67 196t171 78q88 0 155 -55v96h-150v83h150v72h120v-72h69v-83h-69v-443q0 -34 2 -67t4 -49l1 -16h-98q-7 29 -12 57q-28 -29 -73.5 -50t-98.5 -21q-105 0 -171.5 77.5t-66.5 196.5zM171 260q0 -82 40 -127t106 -45q67 0 123 48v251q-52 49 -120 49 q-66 0 -107.5 -46.5t-41.5 -129.5z" />
<glyph unicode="&#x112;" horiz-adv-x="577" d="M92 0v700h420v-105h-293v-175h253v-105h-253v-210h293v-105h-420zM150 821v91h304v-91h-304z" />
<glyph unicode="&#x113;" horiz-adv-x="584" d="M47 260q0 120 72 197t184 77q104 0 168.5 -65t64.5 -174l-3 -61h-359q5 -73 46.5 -112t118.5 -39q92 0 172 53v-100q-78 -50 -191 -50q-123 0 -198 75.5t-75 198.5zM149 643v91h304v-91h-304zM176 318h237q1 58 -30 90.5t-81 32.5q-52 0 -85 -34t-41 -89z" />
<glyph unicode="&#x116;" horiz-adv-x="577" d="M92 0v700h420v-105h-293v-175h253v-105h-253v-210h293v-105h-420zM222 868q0 34 22 56t56 22t56 -22t22 -56t-22 -56t-56 -22t-56 22t-22 56z" />
<glyph unicode="&#x117;" horiz-adv-x="584" d="M47 260q0 120 72 197t184 77q104 0 168.5 -65t64.5 -174l-3 -61h-359q5 -73 46.5 -112t118.5 -39q92 0 172 53v-100q-78 -50 -191 -50q-123 0 -198 75.5t-75 198.5zM176 318h237q1 58 -30 90.5t-81 32.5q-52 0 -85 -34t-41 -89zM222 690q0 34 22 56t56 22t56 -22t22 -56 t-22 -56t-56 -22t-56 22t-22 56z" />
<glyph unicode="&#x118;" horiz-adv-x="577" d="M92 0v700h420v-105h-293v-175h253v-105h-253v-210h293v-105h-2q-7 -8 -17 -20.5t-27 -46.5t-17 -60q0 -30 19.5 -43.5t44.5 -13.5q14 0 29 4t23 8l8 3v-74q-30 -21 -95 -21q-59 0 -94 27.5t-35 83.5q0 40 19.5 78t39.5 57l19 18h-335z" />
<glyph unicode="&#x119;" horiz-adv-x="586" d="M47 260q0 120 72 197t184 77q104 0 168.5 -65t64.5 -174l-3 -61h-359q3 -48 22 -81.5t55.5 -51.5t87.5 -18q92 0 172 53v-100q-35 -23 -86 -36q-9 -10 -19.5 -23.5t-26 -46t-15.5 -57.5q0 -30 19.5 -43.5t44.5 -13.5q14 0 29 4t23 8l8 3v-74q-30 -21 -95 -21 q-59 0 -94 27.5t-35 83.5q0 73 63 139h-7q-123 0 -198 75.5t-75 198.5zM176 318h237q1 58 -30 90.5t-81 32.5q-52 0 -85 -34t-41 -89z" />
<glyph unicode="&#x11a;" horiz-adv-x="577" d="M92 0v700h420v-105h-293v-175h253v-105h-253v-210h293v-105h-420zM115 938h109l75 -86l75 86h109l-122 -152h-124z" />
<glyph unicode="&#x11b;" horiz-adv-x="584" d="M47 260q0 120 72 197t184 77q104 0 168.5 -65t64.5 -174l-3 -61h-359q5 -73 46.5 -112t118.5 -39q92 0 172 53v-100q-78 -50 -191 -50q-123 0 -198 75.5t-75 198.5zM110 765h109l75 -86l75 86h109l-122 -152h-124zM176 318h237q1 58 -30 90.5t-81 32.5q-52 0 -85 -34 t-41 -89z" />
<glyph unicode="&#x11e;" horiz-adv-x="711" d="M50 350q0 160 99.5 262t255.5 102q117 0 213 -46v-125q-91 60 -202 60q-107 0 -169.5 -69t-62.5 -184t63 -184t170 -69q50 0 92 12v145h-108v98h235v-320q-98 -46 -229 -46q-157 0 -257 101.5t-100 262.5zM203 975h87q14 -93 86 -93t86 93h88q-4 -78 -48.5 -127.5 t-125.5 -49.5q-80 0 -124.5 49.5t-48.5 127.5z" />
<glyph unicode="&#x11f;" horiz-adv-x="643" d="M47 266q0 118 65 193t169 75q105 0 177 -72l12 58h97q-7 -55 -7 -132v-383q0 -119 -74 -187t-195 -68q-68 0 -123 19t-83 40v110q31 -25 83 -48t114 -23q75 0 116.5 39t41.5 113v43q-65 -47 -147 -47q-111 0 -178.5 75t-67.5 195zM156 794h87q14 -93 86 -93t86 93h88 q-4 -78 -48.5 -127.5t-125.5 -49.5q-80 0 -124.5 49.5t-48.5 127.5zM171 264q0 -79 38.5 -124.5t104.5 -45.5q76 0 126 50v236q-57 51 -128 51q-64 0 -102.5 -43.5t-38.5 -123.5z" />
<glyph unicode="&#x122;" horiz-adv-x="711" d="M50 350q0 160 99.5 262t255.5 102q117 0 213 -46v-125q-91 60 -202 60q-107 0 -169.5 -69t-62.5 -184t63 -184t170 -69q50 0 92 12v145h-108v98h235v-320q-98 -46 -229 -46q-157 0 -257 101.5t-100 262.5zM328 -180q0 37 24 60.5t61 23.5q38 0 62.5 -27.5t24.5 -76.5 q0 -57 -33.5 -117t-96.5 -107l-39 42q31 27 52 58.5t24 58.5q-34 2 -56.5 26t-22.5 59z" />
<glyph unicode="&#x123;" horiz-adv-x="643" d="M47 266q0 118 65 193t169 75q105 0 177 -72l12 58h97q-7 -55 -7 -132v-383q0 -119 -74 -187t-195 -68q-68 0 -123 19t-83 40v110q31 -25 83 -48t114 -23q75 0 116.5 39t41.5 113v43q-65 -47 -147 -47q-111 0 -178.5 75t-67.5 195zM171 264q0 -79 38.5 -124.5t104.5 -45.5 q76 0 126 50v236q-57 51 -128 51q-64 0 -102.5 -43.5t-38.5 -123.5zM215 724q0 57 34 117t96 108l39 -43q-70 -60 -76 -116q35 -2 57.5 -26t22.5 -59q0 -37 -24.5 -60.5t-60.5 -23.5q-39 0 -63.5 27t-24.5 76z" />
<glyph unicode="&#x12a;" horiz-adv-x="312" d="M4 821v91h304v-91h-304zM92 0v700h127v-700h-127z" />
<glyph unicode="&#x12b;" horiz-adv-x="285" d="M-9 643v91h304v-91h-304zM82 0v520h120v-520h-120z" />
<glyph unicode="&#x12e;" horiz-adv-x="312" d="M58 -153q0 40 19.5 78t38.5 57l20 18h-44v700h127v-700q-7 -8 -17 -20.5t-27 -46.5t-17 -60q0 -30 19.5 -43.5t44.5 -13.5q14 0 29 4t23 8l8 3v-74q-30 -21 -95 -21q-59 0 -94 27.5t-35 83.5z" />
<glyph unicode="&#x12f;" horiz-adv-x="285" d="M42 -153q0 40 19.5 78t38.5 57l20 18h-38v520h120v-520h1q-7 -8 -17 -20.5t-27 -46.5t-17 -60q0 -30 19.5 -43.5t44.5 -13.5q14 0 29 4t23 8l8 3v-74q-30 -21 -95 -21q-59 0 -94 27.5t-35 83.5zM72 666q0 30 19.5 48t50.5 18t50.5 -18t19.5 -48t-19.5 -47.5t-50.5 -17.5 t-50.5 17.5t-19.5 47.5z" />
<glyph unicode="&#x130;" horiz-adv-x="312" d="M77 873q0 34 22 56t56 22t56 -22t22 -56t-22 -56t-56 -22t-56 22t-22 56zM92 0v700h127v-700h-127z" />
<glyph unicode="&#x131;" horiz-adv-x="285" d="M82 0v520h120v-520h-120z" />
<glyph unicode="&#x136;" horiz-adv-x="656" d="M92 0v700h127v-335l263 335h161l-256 -313l273 -387h-157l-194 291l-90 -80v-211h-127zM256 -154q0 37 24 60.5t61 23.5q38 0 62.5 -27.5t24.5 -76.5q0 -57 -33.5 -117t-96.5 -107l-39 42q31 27 52 58.5t24 58.5q-34 2 -56.5 26t-22.5 59z" />
<glyph unicode="&#x137;" horiz-adv-x="561" d="M82 0v730h120v-452l196 242h144l-188 -220l207 -300h-139l-140 220l-80 -69v-151h-120zM215 -159q0 37 24 60.5t61 23.5q38 0 62.5 -27.5t24.5 -76.5q0 -57 -33.5 -117t-96.5 -107l-39 42q31 27 52 58.5t24 58.5q-34 2 -56.5 26t-22.5 59z" />
<glyph unicode="&#x139;" horiz-adv-x="517" d="M92 0v700h127v-595h293v-105h-420zM117 786l119 147h164l-174 -147h-109z" />
<glyph unicode="&#x13a;" horiz-adv-x="339" d="M76 811l119 147h164l-174 -147h-109zM82 166v564h120v-568q0 -40 17 -56t51 -16q14 0 27.5 2t20.5 4l6 3v-101q-40 -12 -86 -12q-81 0 -118.5 43.5t-37.5 136.5z" />
<glyph unicode="&#x13b;" horiz-adv-x="517" d="M92 0v700h127v-595h293v-105h-420zM215 -184q0 37 24 60.5t61 23.5q38 0 62.5 -27.5t24.5 -76.5q0 -57 -33.5 -117t-96.5 -107l-39 42q31 27 52 58.5t24 58.5q-34 2 -56.5 26t-22.5 59z" />
<glyph unicode="&#x13c;" horiz-adv-x="341" d="M84 166v564h120v-568q0 -40 17 -56t51 -16q14 0 27.5 2t20.5 4l6 3v-101q-40 -12 -86 -12q-81 0 -118.5 43.5t-37.5 136.5zM116 -181q0 37 24 60.5t61 23.5q38 0 62.5 -27.5t24.5 -76.5q0 -57 -33.5 -117t-96.5 -107l-39 42q31 27 52 58.5t24 58.5q-34 2 -56.5 26 t-22.5 59z" />
<glyph unicode="&#x13d;" horiz-adv-x="518" d="M92 0v700h127v-595h293v-105h-420zM317 630q0 37 24 60.5t61 23.5q38 0 62.5 -27.5t24.5 -76.5q0 -57 -33.5 -117t-96.5 -107l-39 42q31 27 52 58.5t24 58.5q-34 2 -56.5 26t-22.5 59z" />
<glyph unicode="&#x13e;" horiz-adv-x="487" d="M82 166v564h120v-568q0 -40 17 -56t51 -16q14 0 27.5 2t20.5 4l6 3v-101q-40 -12 -86 -12q-81 0 -118.5 43.5t-37.5 136.5zM309 630q0 37 24 60.5t61 23.5q38 0 62.5 -27.5t24.5 -76.5q0 -57 -33.5 -117t-96.5 -107l-39 42q31 27 52 58.5t24 58.5q-34 2 -56.5 26 t-22.5 59z" />
<glyph unicode="&#x141;" horiz-adv-x="523" d="M15 209v98l83 39v354h127v-294l134 65v-98l-134 -64v-204h293v-105h-420v249z" />
<glyph unicode="&#x142;" horiz-adv-x="340" d="M0 209v98l83 41v382h120v-323l121 59v-98l-121 -59v-147q0 -40 17 -56t51 -16q14 0 27.5 2t19.5 4l7 3v-101q-40 -12 -86 -12q-81 0 -118.5 43.5t-37.5 136.5v84z" />
<glyph unicode="&#x143;" horiz-adv-x="797" d="M92 0v704h85l400 -475v471h127v-704h-85l-400 474v-470h-127zM302 780l119 147h164l-174 -147h-109z" />
<glyph unicode="&#x144;" d="M75 520h110q7 -30 12 -74q74 88 172 88q65 0 107.5 -31t57.5 -72.5t15 -91.5v-339h-120v321q0 55 -28 83.5t-77 28.5q-37 0 -69.5 -19t-52.5 -41v-373h-120v388q0 34 -2 67t-4 49zM203 613l119 147h164l-174 -147h-109z" />
<glyph unicode="&#x145;" horiz-adv-x="797" d="M92 0v704h85l400 -475v471h127v-704h-85l-400 474v-470h-127zM321 -169q0 37 24 60.5t61 23.5q38 0 62.5 -27.5t24.5 -76.5q0 -57 -33.5 -117t-96.5 -107l-39 42q31 27 52 58.5t24 58.5q-34 2 -56.5 26t-22.5 59z" />
<glyph unicode="&#x146;" d="M75 520h110q7 -30 12 -74q74 88 172 88q65 0 107.5 -31t57.5 -72.5t15 -91.5v-339h-120v321q0 55 -28 83.5t-77 28.5q-37 0 -69.5 -19t-52.5 -41v-373h-120v388q0 34 -2 67t-4 49zM230 -169q0 37 24 60.5t61 23.5q38 0 62.5 -27.5t24.5 -76.5q0 -57 -33.5 -117 t-96.5 -107l-39 42q31 27 52 58.5t24 58.5q-34 2 -56.5 26t-22.5 59z" />
<glyph unicode="&#x147;" horiz-adv-x="797" d="M92 0v704h85l400 -475v471h127v-704h-85l-400 474v-470h-127zM214 938h109l75 -86l75 86h109l-122 -152h-124z" />
<glyph unicode="&#x148;" d="M75 520h110q7 -30 12 -74q74 88 172 88q65 0 107.5 -31t57.5 -72.5t15 -91.5v-339h-120v321q0 55 -28 83.5t-77 28.5q-37 0 -69.5 -19t-52.5 -41v-373h-120v388q0 34 -2 67t-4 49zM130 765h109l75 -86l75 86h109l-122 -152h-124z" />
<glyph unicode="&#x14c;" horiz-adv-x="808" d="M50 350q0 161 98.5 262.5t255.5 101.5t255.5 -101.5t98.5 -262.5t-98.5 -262.5t-255.5 -101.5t-255.5 101.5t-98.5 262.5zM184 350q0 -115 60.5 -184.5t159.5 -69.5t159.5 69.5t60.5 184.5t-60.5 184t-159.5 69t-159.5 -69t-60.5 -184zM252 823v91h304v-91h-304z" />
<glyph unicode="&#x14d;" horiz-adv-x="624" d="M47 260q0 121 74 197.5t191 76.5t190.5 -76.5t73.5 -197.5t-73.5 -197.5t-190.5 -76.5t-191 76.5t-74 197.5zM160 643v91h304v-91h-304zM172 260q0 -82 38 -129t102 -47t101.5 47t37.5 129t-37.5 129t-101.5 47t-102 -47t-38 -129z" />
<glyph unicode="&#x150;" horiz-adv-x="808" d="M50 350q0 161 98.5 262.5t255.5 101.5t255.5 -101.5t98.5 -262.5t-98.5 -262.5t-255.5 -101.5t-255.5 101.5t-98.5 262.5zM184 350q0 -115 60.5 -184.5t159.5 -69.5t159.5 69.5t60.5 184.5t-60.5 184t-159.5 69t-159.5 -69t-60.5 -184zM186 793l119 147h164l-174 -147 h-109zM409 793l119 147h164l-174 -147h-109z" />
<glyph unicode="&#x151;" horiz-adv-x="624" d="M47 260q0 121 74 197.5t191 76.5t190.5 -76.5t73.5 -197.5t-73.5 -197.5t-190.5 -76.5t-191 76.5t-74 197.5zM99 613l119 147h164l-174 -147h-109zM172 260q0 -82 38 -129t102 -47t101.5 47t37.5 129t-37.5 129t-101.5 47t-102 -47t-38 -129zM322 613l119 147h164 l-174 -147h-109z" />
<glyph unicode="&#x152;" horiz-adv-x="983" d="M50 350q0 160 98.5 262t250.5 102q50 0 106 -14h420v-105h-293v-175h253v-105h-253v-210h293v-105h-419q-50 -14 -107 -14q-152 0 -250.5 102t-98.5 262zM184 350q0 -115 61 -184t164 -69q52 0 96 19v467q-43 20 -96 20q-103 0 -164 -69.5t-61 -183.5z" />
<glyph unicode="&#x153;" horiz-adv-x="988" d="M47 260q0 121 74 197.5t191 76.5q127 0 201 -92q73 92 194 92q104 0 168.5 -65t64.5 -174l-3 -61h-359q5 -73 46.5 -112t118.5 -39q93 0 172 53v-100q-78 -50 -191 -50q-137 0 -211 91q-73 -91 -201 -91q-117 0 -191 76.5t-74 197.5zM172 260q0 -82 38 -129t102 -47 t101.5 47t37.5 129t-37.5 129t-101.5 47t-102 -47t-38 -129zM580 318h237q1 58 -30 90.5t-81 32.5q-52 0 -85 -34t-41 -89z" />
<glyph unicode="&#x154;" horiz-adv-x="642" d="M92 0v700h221q121 0 189.5 -62.5t68.5 -159.5q0 -65 -32 -115.5t-91 -77.5l198 -285h-151l-170 257h-106v-257h-127zM193 786l119 147h164l-174 -147h-109zM219 362h79q139 0 139 116q0 117 -139 117h-79v-233z" />
<glyph unicode="&#x155;" horiz-adv-x="411" d="M75 520h110q9 -39 12 -81h2q57 95 147 95q15 0 29.5 -3t21.5 -5l7 -3v-114q-30 11 -76 11q-36 0 -67.5 -13t-44.5 -26l-14 -13v-368h-120v388q0 34 -2 67t-4 49zM129 613l119 147h164l-174 -147h-109z" />
<glyph unicode="&#x156;" horiz-adv-x="642" d="M92 0v700h221q121 0 189.5 -62.5t68.5 -159.5q0 -65 -32 -115.5t-91 -77.5l198 -285h-151l-170 257h-106v-257h-127zM219 362h79q139 0 139 116q0 117 -139 117h-79v-233zM246 -169q0 37 24 60.5t61 23.5q38 0 62.5 -27.5t24.5 -76.5q0 -57 -33.5 -117t-96.5 -107l-39 42 q31 27 52 58.5t24 58.5q-34 2 -56.5 26t-22.5 59z" />
<glyph unicode="&#x157;" horiz-adv-x="411" d="M75 520h110q9 -39 12 -81h2q57 95 147 95q15 0 29.5 -3t21.5 -5l7 -3v-114q-30 11 -76 11q-36 0 -67.5 -13t-44.5 -26l-14 -13v-368h-120v388q0 34 -2 67t-4 49zM130 -174q0 37 24 60.5t61 23.5q38 0 62.5 -27.5t24.5 -76.5q0 -57 -33.5 -117t-96.5 -107l-39 42 q31 27 52 58.5t24 58.5q-34 2 -56.5 26t-22.5 59z" />
<glyph unicode="&#x158;" horiz-adv-x="642" d="M92 0v700h221q121 0 189.5 -62.5t68.5 -159.5q0 -65 -32 -115.5t-91 -77.5l198 -285h-151l-170 257h-106v-257h-127zM120 938h109l75 -86l75 86h109l-122 -152h-124zM219 362h79q139 0 139 116q0 117 -139 117h-79v-233z" />
<glyph unicode="&#x159;" horiz-adv-x="411" d="M38 765h109l75 -86l75 86h109l-122 -152h-124zM75 520h110q9 -39 12 -81h2q57 95 147 95q15 0 29.5 -3t21.5 -5l7 -3v-114q-30 11 -76 11q-36 0 -67.5 -13t-44.5 -26l-14 -13v-368h-120v388q0 34 -2 67t-4 49z" />
<glyph unicode="&#x15a;" horiz-adv-x="537" d="M55 32v125q75 -60 174 -60q58 0 91.5 26t33.5 67q0 35 -30.5 62t-73.5 48t-86.5 46t-74 68.5t-30.5 102.5q0 92 64.5 144.5t169.5 52.5q97 0 164 -40v-123q-74 54 -157 54q-50 0 -79.5 -22.5t-29.5 -58.5q0 -33 30.5 -60t74 -48.5t87 -47t74 -69.5t30.5 -103 q0 -97 -71 -153.5t-179 -56.5q-106 0 -182 46zM167 793l119 147h164l-174 -147h-109z" />
<glyph unicode="&#x15b;" horiz-adv-x="472" d="M55 28v106q72 -51 160 -51q41 0 64.5 16.5t23.5 42.5q0 25 -25 43t-60.5 32t-71.5 31.5t-61 50.5t-25 80q0 71 53 113t138 42q88 0 145 -35v-107q-58 43 -140 45q-37 0 -57 -14.5t-20 -36.5q0 -23 25 -40t60.5 -31.5t71.5 -32.5t61 -53t25 -83q0 -73 -56.5 -116.5 t-147.5 -43.5q-49 0 -94.5 13t-68.5 29zM134 613l119 147h164l-174 -147h-109z" />
<glyph unicode="&#x15e;" horiz-adv-x="537" d="M55 32v125q21 -17 47.5 -30t60 -21.5t66.5 -8.5q58 0 91.5 26t33.5 67q0 23 -12.5 42.5t-33.5 33t-47.5 28.5t-54 28t-54 32t-47.5 40t-33.5 53t-12.5 70q0 92 64.5 144.5t169.5 52.5q97 0 164 -40v-123q-74 54 -157 54q-33 0 -58 -10.5t-38 -28.5t-13 -42 q0 -25 16.5 -45.5t42.5 -36.5t57.5 -31.5t63 -35t57.5 -42.5t42.5 -58.5t16.5 -78.5q0 -75 -43 -126.5t-116 -71.5l-38 -60q27 -6 47 -18t32 -31.5t12 -43.5q0 -49 -40.5 -76.5t-96.5 -27.5q-9 0 -17.5 0.5t-16 1.5t-14.5 2.5t-12.5 3t-9.5 2.5t-6 1l-2 1v68q33 -17 70 -17 q15 0 26 5t16.5 14.5t5.5 21.5q0 24 -27 38t-74 14l50 89q-53 1 -101 14.5t-77 31.5z" />
<glyph unicode="&#x15f;" horiz-adv-x="472" d="M55 28v106q33 -23 77 -37t83 -14q21 0 38 4.5t27.5 12.5t16.5 19t6 23q0 21 -18 37.5t-45 27t-58.5 25t-58.5 31t-45 46.5t-18 70q0 71 53 113t138 42q45 0 83.5 -10.5t61.5 -24.5v-107q-26 19 -65 31.5t-75 13.5q-37 0 -57 -14.5t-20 -36.5q0 -19 18 -35t45 -26 t58.5 -25.5t58.5 -32.5t45 -48.5t18 -72.5q0 -55 -33 -94t-90 -55l-37 -59q41 -9 66 -33t25 -60q0 -49 -40.5 -76.5t-96.5 -27.5q-19 0 -38.5 3t-29.5 6l-10 3v68q33 -17 70 -17q22 0 35 11t13 30q0 24 -27 38t-74 14l50 89q-46 2 -87.5 14.5t-62.5 27.5z" />
<glyph unicode="&#x160;" horiz-adv-x="537" d="M55 32v125q75 -60 174 -60q58 0 91.5 26t33.5 67q0 35 -30.5 62t-73.5 48t-86.5 46t-74 68.5t-30.5 102.5q0 92 64.5 144.5t169.5 52.5q97 0 164 -40v-123q-74 54 -157 54q-50 0 -79.5 -22.5t-29.5 -58.5q0 -33 30.5 -60t74 -48.5t87 -47t74 -69.5t30.5 -103 q0 -97 -71 -153.5t-179 -56.5q-106 0 -182 46zM80 945h109l75 -86l75 86h109l-122 -152h-124z" />
<glyph unicode="&#x161;" horiz-adv-x="473" d="M49 765h109l75 -86l75 86h109l-122 -152h-124zM56 28v106q72 -51 160 -51q41 0 64.5 16.5t23.5 42.5q0 25 -25 43t-60.5 32t-71.5 31.5t-61 50.5t-25 80q0 71 53 113t138 42q88 0 145 -35v-107q-58 43 -140 45q-37 0 -57 -14.5t-20 -36.5q0 -23 25 -40t60.5 -31.5 t71.5 -32.5t61 -53t25 -83q0 -73 -56.5 -116.5t-147.5 -43.5q-49 0 -94.5 13t-68.5 29z" />
<glyph unicode="&#x162;" horiz-adv-x="554" d="M2 595v105h549v-105h-211v-595l-39 -62q41 -9 66 -33t25 -60q0 -49 -40.5 -76.5t-96.5 -27.5q-19 0 -38.5 3t-29.5 6l-10 3v68q33 -17 70 -17q22 0 35 11t13 30q0 24 -27 38t-74 14l58 103h-39v595h-211z" />
<glyph unicode="&#x163;" horiz-adv-x="384" d="M22 423v97h85v117l120 25v-142h123v-97h-123v-261q0 -73 67 -73q14 0 29 2.5t23 4.5l8 2v-100v-1h-1l-38 -61q41 -9 66 -33t25 -60q0 -49 -40.5 -76.5t-96.5 -27.5q-19 0 -38.5 3t-29.5 6l-10 3v68q33 -17 70 -17q22 0 35 11t13 30q0 24 -27 38t-74 14l51 91 q-152 4 -152 178v259h-85z" />
<glyph unicode="&#x164;" horiz-adv-x="554" d="M2 595v105h549v-105h-211v-595h-127v595h-211zM93 938h109l75 -86l75 86h109l-122 -152h-124z" />
<glyph unicode="&#x165;" horiz-adv-x="422" d="M22 423v97h85v117l120 25v-142h123v-97h-123v-261q0 -73 67 -73q14 0 29 2.5t23 4.5l8 2v-101q-42 -11 -88 -11q-159 0 -159 178v259h-85zM308 849q0 37 24 60.5t61 23.5q38 0 62.5 -27.5t24.5 -76.5q0 -57 -33.5 -117t-96.5 -107l-39 42q31 27 52 58.5t24 58.5 q-34 2 -56.5 26t-22.5 59z" />
<glyph unicode="&#x16a;" horiz-adv-x="745" d="M87 264v436h127v-437q0 -168 158 -168t158 168v437h127v-436q0 -138 -76.5 -208t-208.5 -70t-208.5 69t-76.5 209zM220 821v91h304v-91h-304z" />
<glyph unicode="&#x16b;" d="M78 181v339h120v-322q0 -55 28.5 -83.5t77.5 -28.5q37 0 70 19.5t51 40.5v374h120v-388q0 -34 1.5 -67t3.5 -49l2 -16h-110q-7 29 -12 73q-73 -87 -171 -87q-95 0 -138 57.5t-43 137.5zM161 643v91h304v-91h-304z" />
<glyph unicode="&#x16e;" horiz-adv-x="745" d="M87 264v436h127v-437q0 -168 158 -168t158 168v437h127v-436q0 -138 -76.5 -208t-208.5 -70t-208.5 69t-76.5 209zM242 896q0 57 36.5 92.5t93.5 35.5t93.5 -35.5t36.5 -92.5q0 -58 -36.5 -94t-93.5 -36t-93.5 36t-36.5 94zM317 896q0 -28 15 -44.5t40 -16.5t40 16.5 t15 44.5q0 26 -15 42.5t-40 16.5t-40 -16.5t-15 -42.5z" />
<glyph unicode="&#x16f;" d="M78 181v339h120v-322q0 -55 28.5 -83.5t77.5 -28.5q37 0 70 19.5t51 40.5v374h120v-388q0 -34 1.5 -67t3.5 -49l2 -16h-110q-7 29 -12 73q-73 -87 -171 -87q-95 0 -138 57.5t-43 137.5zM184 718q0 57 36.5 92.5t93.5 35.5t93.5 -35.5t36.5 -92.5q0 -58 -36.5 -94 t-93.5 -36t-93.5 36t-36.5 94zM259 718q0 -28 15 -44.5t40 -16.5t40 16.5t15 44.5q0 26 -15 42.5t-40 16.5t-40 -16.5t-15 -42.5z" />
<glyph unicode="&#x170;" horiz-adv-x="745" d="M87 264v436h127v-437q0 -168 158 -168t158 168v437h127v-436q0 -138 -76.5 -208t-208.5 -70t-208.5 69t-76.5 209zM159 786l119 147h164l-174 -147h-109zM382 786l119 147h164l-174 -147h-109z" />
<glyph unicode="&#x171;" d="M78 181v339h120v-322q0 -55 28.5 -83.5t77.5 -28.5q37 0 70 19.5t51 40.5v374h120v-388q0 -34 1.5 -67t3.5 -49l2 -16h-110q-7 29 -12 73q-73 -87 -171 -87q-95 0 -138 57.5t-43 137.5zM100 613l119 147h164l-174 -147h-109zM323 613l119 147h164l-174 -147h-109z" />
<glyph unicode="&#x172;" horiz-adv-x="745" d="M87 264v436h127v-437q0 -89 41 -128.5t117 -39.5t117 39.5t41 128.5v437h127v-436q0 -109 -49 -176t-137 -90q-59 -69 -59 -125q0 -30 19.5 -43.5t44.5 -13.5q14 0 29 4t23 7l8 4v-74q-30 -21 -95 -21q-59 0 -94 27.5t-35 83.5q0 73 63 139h-3q-132 0 -208.5 69 t-76.5 209z" />
<glyph unicode="&#x173;" d="M78 181v339h120v-322q0 -55 28.5 -83.5t77.5 -28.5q37 0 70 19.5t51 40.5v374h120v-388q0 -34 1.5 -67t3.5 -49l2 -16h-3q-7 -8 -17 -20.5t-27 -46.5t-17 -60q0 -30 19.5 -43.5t44.5 -13.5q14 0 29 4t23 8l8 3v-74q-30 -21 -95 -21q-59 0 -94 27.5t-35 83.5q0 40 19.5 78 t38.5 57l20 18h-24q-7 29 -12 73q-73 -87 -171 -87q-95 0 -138 57.5t-43 137.5z" />
<glyph unicode="&#x178;" horiz-adv-x="587" d="M1 700h140l152 -305l152 305h141l-229 -428v-272h-127v272zM124 849q0 28 18.5 46.5t46.5 18.5t46 -18.5t18 -46.5t-18 -46.5t-46 -18.5t-46.5 18.5t-18.5 46.5zM333 849q0 28 19 46.5t47 18.5q27 0 45.5 -18.5t18.5 -46.5t-18.5 -46.5t-45.5 -18.5q-28 0 -47 18.5 t-19 46.5z" />
<glyph unicode="&#x179;" horiz-adv-x="573" d="M39 0v70l314 525h-304v105h470v-70l-315 -525h330v-105h-495zM189 786l119 147h164l-174 -147h-109z" />
<glyph unicode="&#x17a;" horiz-adv-x="472" d="M25 0v57l246 369h-236v94h397v-57l-246 -369h256v-94h-417zM138 613l119 147h164l-174 -147h-109z" />
<glyph unicode="&#x17b;" horiz-adv-x="573" d="M39 0v70l314 525h-304v105h470v-70l-315 -525h330v-105h-495zM207 868q0 34 22 56t56 22t56 -22t22 -56t-22 -56t-56 -22t-56 22t-22 56z" />
<glyph unicode="&#x17c;" horiz-adv-x="472" d="M25 0v57l246 369h-236v94h397v-57l-246 -369h256v-94h-417zM156 690q0 34 22 56t56 22t56 -22t22 -56t-22 -56t-56 -22t-56 22t-22 56z" />
<glyph unicode="&#x17d;" horiz-adv-x="573" d="M39 0v70l314 525h-304v105h470v-70l-315 -525h330v-105h-495zM103 940h109l75 -86l75 86h109l-122 -152h-124z" />
<glyph unicode="&#x17e;" horiz-adv-x="472" d="M25 0v57l246 369h-236v94h397v-57l-246 -369h256v-94h-417zM48 765h109l75 -86l75 86h109l-122 -152h-124z" />
<glyph unicode="&#x192;" horiz-adv-x="487" d="M0 -237l14 98q29 -13 61 -13q53 0 61 55l64 460h-96l13 97h97l13 93q16 90 56 133.5t117 43.5q60 0 86 -13l-14 -98q-29 13 -61 13q-53 0 -61 -55q-12 -78 -17 -117h105l-13 -97h-105l-62 -435q-22 -178 -172 -178q-60 0 -86 13z" />
<glyph unicode="&#x218;" horiz-adv-x="537" d="M55 32v125q75 -60 174 -60q58 0 91.5 26t33.5 67q0 35 -30.5 62t-73.5 48t-86.5 46t-74 68.5t-30.5 102.5q0 92 64.5 144.5t169.5 52.5q97 0 164 -40v-123q-74 54 -157 54q-50 0 -79.5 -22.5t-29.5 -58.5q0 -33 30.5 -60t74 -48.5t87 -47t74 -69.5t30.5 -103 q0 -97 -71 -153.5t-179 -56.5q-106 0 -182 46zM181 -188q0 37 24 60.5t61 23.5q38 0 62.5 -27.5t24.5 -76.5q0 -57 -33.5 -117t-96.5 -107l-39 42q31 27 52 58.5t24 58.5q-34 2 -56.5 26t-22.5 59z" />
<glyph unicode="&#x219;" horiz-adv-x="472" d="M55 28v106q72 -51 160 -51q41 0 64.5 16.5t23.5 42.5q0 25 -25 43t-60.5 32t-71.5 31.5t-61 50.5t-25 80q0 71 53 113t138 42q88 0 145 -35v-107q-58 43 -140 45q-37 0 -57 -14.5t-20 -36.5q0 -23 25 -40t60.5 -31.5t71.5 -32.5t61 -53t25 -83q0 -73 -56.5 -116.5 t-147.5 -43.5q-49 0 -94.5 13t-68.5 29zM152 -181q0 37 24 60.5t61 23.5q38 0 62.5 -27.5t24.5 -76.5q0 -57 -33.5 -117t-96.5 -107l-39 42q31 27 52 58.5t24 58.5q-34 2 -56.5 26t-22.5 59z" />
<glyph unicode="&#x21a;" horiz-adv-x="554" d="M2 595v105h549v-105h-211v-595h-127v595h-211zM191 -181q0 37 24 60.5t61 23.5q38 0 62.5 -27.5t24.5 -76.5q0 -57 -33.5 -117t-96.5 -107l-39 42q31 27 52 58.5t24 58.5q-34 2 -56.5 26t-22.5 59z" />
<glyph unicode="&#x21b;" horiz-adv-x="386" d="M22 423v97h85v117l120 25v-142h123v-97h-123v-261q0 -73 67 -73q14 0 29 2.5t23 4.5l8 2v-101q-42 -11 -88 -11q-159 0 -159 178v259h-85zM129 -181q0 37 24 60.5t61 23.5q38 0 62.5 -27.5t24.5 -76.5q0 -57 -33.5 -117t-96.5 -107l-39 42q31 27 52 58.5t24 58.5 q-34 2 -56.5 26t-22.5 59z" />
<glyph unicode="&#x2c6;" horiz-adv-x="478" d="M55 613l122 152h124l122 -152h-109l-75 86l-75 -86h-109z" />
<glyph unicode="&#x2c7;" horiz-adv-x="478" d="M55 765h109l75 -86l75 86h109l-122 -152h-124z" />
<glyph unicode="&#x2d8;" horiz-adv-x="457" d="M55 784h87q14 -93 86 -93t86 93h88q-4 -78 -48.5 -127.5t-125.5 -49.5q-80 0 -124.5 49.5t-48.5 127.5z" />
<glyph unicode="&#x2d9;" horiz-adv-x="266" d="M55 690q0 34 22 56t56 22t56 -22t22 -56t-22 -56t-56 -22t-56 22t-22 56z" />
<glyph unicode="&#x2da;" horiz-adv-x="370" d="M55 718q0 57 36.5 92.5t93.5 35.5t93.5 -35.5t36.5 -92.5q0 -58 -36.5 -94t-93.5 -36t-93.5 36t-36.5 94zM130 718q0 -28 15 -44.5t40 -16.5t40 16.5t15 44.5q0 26 -15 42.5t-40 16.5t-40 -16.5t-15 -42.5z" />
<glyph unicode="&#x2db;" horiz-adv-x="314" d="M45 -153q0 40 19.5 78t39.5 57l19 18h83q-7 -8 -17 -20.5t-27 -46.5t-17 -60q0 -30 19.5 -43.5t44.5 -13.5q14 0 29 4t23 8l8 3v-74q-30 -21 -95 -21q-59 0 -94 27.5t-35 83.5z" />
<glyph unicode="&#x2dc;" horiz-adv-x="507" d="M55 626q0 64 30.5 111.5t90.5 47.5q34 0 61.5 -18t49 -36t41.5 -18q45 0 47 71h77q0 -66 -30.5 -112.5t-92.5 -46.5q-36 0 -63 18t-48 36t-42 18q-42 0 -44 -71h-77z" />
<glyph unicode="&#x2dd;" horiz-adv-x="616" d="M55 613l119 147h164l-174 -147h-109zM278 613l119 147h164l-174 -147h-109z" />
<glyph unicode="&#x3c0;" horiz-adv-x="762" d="M75 423v97h612v-97h-108v-259q0 -67 62 -67q12 0 23.5 1.5t16.5 3.5l5 2v-100q-26 -11 -76 -11q-151 0 -151 167v263h-157v-423h-120v423h-107z" />
<glyph unicode="&#x2013;" horiz-adv-x="638" d="M55 248v103h528v-103h-528z" />
<glyph unicode="&#x2014;" horiz-adv-x="1115" d="M55 248v103h1005v-103h-1005z" />
<glyph unicode="&#x2018;" horiz-adv-x="267" d="M39 489q0 57 34 117t96 108l39 -43q-70 -60 -76 -116q35 -2 57.5 -26t22.5 -59q0 -37 -24.5 -60.5t-60.5 -23.5q-39 0 -63.5 27t-24.5 76z" />
<glyph unicode="&#x2019;" horiz-adv-x="266" d="M55 630q0 37 24 60.5t61 23.5q38 0 62.5 -27.5t24.5 -76.5q0 -57 -33.5 -117t-96.5 -107l-39 42q31 27 52 58.5t24 58.5q-34 2 -56.5 26t-22.5 59z" />
<glyph unicode="&#x201a;" horiz-adv-x="250" d="M39 71q0 37 24 60.5t61 23.5q38 0 62.5 -27t24.5 -76q0 -57 -33.5 -117t-96.5 -108l-39 43q70 60 76 116q-34 2 -56.5 26t-22.5 59z" />
<glyph unicode="&#x201c;" horiz-adv-x="475" d="M39 489q0 57 33.5 117t96.5 108l39 -43q-70 -60 -76 -116q34 -2 56.5 -26t22.5 -59q0 -37 -24 -60.5t-61 -23.5q-38 0 -62.5 27t-24.5 76zM247 489q0 57 34 117t96 108l39 -43q-70 -60 -76 -116q35 -2 57.5 -26t22.5 -59q0 -37 -24.5 -60.5t-60.5 -23.5q-39 0 -63.5 27 t-24.5 76z" />
<glyph unicode="&#x201d;" horiz-adv-x="475" d="M55 630q0 37 24 60.5t61 23.5q38 0 62.5 -27.5t24.5 -76.5q0 -57 -33.5 -117t-96.5 -107l-39 42q31 27 52 58.5t24 58.5q-34 2 -56.5 26t-22.5 59zM263 630q0 36 24.5 60t60.5 24q39 0 63.5 -27.5t24.5 -76.5q0 -56 -34 -116t-96 -108l-39 42q31 27 52 58.5t24 58.5 q-35 2 -57.5 26t-22.5 59z" />
<glyph unicode="&#x201e;" horiz-adv-x="459" d="M39 71q0 37 24 60.5t61 23.5q38 0 62.5 -27t24.5 -76q0 -57 -33.5 -117t-96.5 -108l-39 43q70 60 76 116q-34 2 -56.5 26t-22.5 59zM247 71q0 37 24.5 60.5t60.5 23.5q39 0 63.5 -27t24.5 -76q0 -57 -34 -117t-96 -108l-39 43q70 60 76 116q-35 2 -57.5 26t-22.5 59z" />
<glyph unicode="&#x2020;" horiz-adv-x="582" d="M55 397v100l181 -9l-7 226h124l-7 -226l181 9v-100l-181 6l7 -554h-124l7 554z" />
<glyph unicode="&#x2021;" horiz-adv-x="622" d="M75 66v100l181 -6l-4 124l4 119l-181 -6v100l181 -9l-7 226h124l-7 -226l181 9v-100l-181 6l4 -119l-4 -124l181 6v-100l-181 9l7 -226h-124l7 226z" />
<glyph unicode="&#x2022;" horiz-adv-x="403" d="M75 328q0 54 36 90.5t90 36.5q53 0 90 -37t37 -90t-37 -89.5t-90 -36.5q-54 0 -90 36.5t-36 89.5z" />
<glyph unicode="&#x2026;" horiz-adv-x="772" d="M39 71q0 37 24 60.5t61 23.5q36 0 60 -23.5t24 -60.5t-24 -61t-60 -24q-37 0 -61 24t-24 61zM301 71q0 36 24.5 60t60.5 24q37 0 61 -23.5t24 -60.5t-24 -61t-61 -24q-36 0 -60.5 24t-24.5 61zM564 71q0 37 24 60.5t61 23.5q36 0 60 -23.5t24 -60.5t-24 -61t-60 -24 q-37 0 -61 24t-24 61z" />
<glyph unicode="&#x2030;" horiz-adv-x="1345" d="M55 501q0 89 49.5 144t127.5 55t127.5 -55t49.5 -144t-49.5 -144t-127.5 -55t-127.5 55t-49.5 144zM152 501q0 -53 22 -84t58 -31t57.5 31t21.5 84q0 52 -21.5 83.5t-57.5 31.5t-58 -31.5t-22 -83.5zM240 -14l359 728h104l-359 -728h-104zM535 199q0 89 49.5 144 t127.5 55t127.5 -55t49.5 -144t-49.5 -144t-127.5 -55t-127.5 55t-49.5 144zM632 199q0 -53 22 -84t58 -31t57.5 31t21.5 84q0 52 -21.5 83.5t-57.5 31.5t-58 -31.5t-22 -83.5zM936 199q0 89 49.5 144t127.5 55t127.5 -55t49.5 -144t-49.5 -144t-127.5 -55t-127.5 55 t-49.5 144zM1034 199q0 -53 21.5 -84t57.5 -31t58 31t22 84q0 52 -22 83.5t-58 31.5t-57.5 -31.5t-21.5 -83.5z" />
<glyph unicode="&#x2039;" horiz-adv-x="368" d="M40 210v107l233 200v-109l-136 -145l136 -144v-109z" />
<glyph unicode="&#x203a;" horiz-adv-x="368" d="M95 10v109l136 144l-136 145v109l233 -200v-107z" />
<glyph unicode="&#x2044;" horiz-adv-x="470" d="M15 -14l344 728h96l-344 -728h-96z" />
<glyph unicode="&#x20ac;" horiz-adv-x="737" d="M55 235v80h79q-2 12 -2 35q0 22 2 36h-79v80h92q32 113 121 180.5t210 67.5q112 0 204 -53l-52 -98q-66 40 -142 40q-72 0 -124.5 -36t-77.5 -101h294q-5 -9 -19 -37t-22 -43h-271q-2 -14 -2 -36q0 -23 2 -35h233q-5 -9 -19 -37t-22 -43h-174q25 -66 77 -102t125 -36 q78 0 142 39l52 -98q-92 -52 -204 -52q-122 0 -210.5 67t-120.5 182h-92z" />
<glyph unicode="&#x2113;" horiz-adv-x="463" d="M55 210q0 121 30.5 239.5t88.5 199.5t127 81q48 0 77.5 -28.5t29.5 -71.5q0 -96 -69.5 -197.5t-154.5 -163.5q-4 -42 -4 -71q0 -163 92 -163q25 0 50.5 11.5t38.5 23.5l13 12l16 -19q-84 -77 -187 -77q-148 0 -148 224zM187 314q66 58 115 142t49 160q0 42 -26 42 q-31 0 -62 -63.5t-49.5 -138.5t-26.5 -142z" />
<glyph unicode="&#x2117;" horiz-adv-x="858" d="M65 350q0 151 106.5 257.5t257.5 106.5t257.5 -106.5t106.5 -257.5t-106.5 -257.5t-257.5 -106.5t-257.5 106.5t-106.5 257.5zM152 350q0 -121 80.5 -204t196.5 -83q115 0 195.5 82.5t80.5 204.5q0 121 -80.5 204t-195.5 83t-196 -83t-81 -204zM321 154v387h125 q67 0 105.5 -34.5t38.5 -89.5t-38.5 -89.5t-105.5 -34.5h-46v-139h-79zM400 359h38q69 0 69 58t-69 58h-38v-116z" />
<glyph unicode="&#x2120;" horiz-adv-x="901" d="M50 324v85q49 -40 101 -40q28 0 44.5 12.5t16.5 32.5t-25 37.5t-55 30.5t-55 41.5t-25 67.5q0 53 37 83.5t97 30.5q57 0 95 -24v-85q-48 37 -91 37q-24 0 -38 -10.5t-14 -27.5q0 -19 25 -36.5t55.5 -30.5t55.5 -42t25 -69q0 -55 -41 -88t-102 -33q-57 0 -106 28zM362 302 v401h57l167 -223l166 223h56v-401h-85v242l-125 -168h-25l-125 168v-242h-86z" />
<glyph unicode="&#x2122;" horiz-adv-x="976" d="M35 630v70h349v-70h-132v-328h-86v328h-131zM437 302v401h57l167 -223l166 223h56v-401h-85v242l-125 -168h-25l-125 168v-242h-86z" />
<glyph unicode="&#x2126;" horiz-adv-x="886" d="M65 360q0 152 108.5 253t269.5 101t269.5 -101t108.5 -253q0 -165 -136 -259h131v-101h-318v107q82 22 136.5 90t54.5 163q0 108 -71 178t-175 70q-106 0 -176 -69.5t-70 -178.5q0 -96 54 -163.5t137 -89.5v-107h-318v101h130q-135 93 -135 259z" />
<glyph unicode="&#x212e;" horiz-adv-x="678" d="M55 260q0 119 80.5 196.5t203.5 77.5t203.5 -77.5t80.5 -196.5v-10h-429v-165q59 -48 145 -48q106 0 172 77h73q-38 -61 -102.5 -94.5t-142.5 -33.5q-123 0 -203.5 77.5t-80.5 196.5zM194 305h290v129q-62 48 -145 48q-84 0 -145 -48v-129z" />
<glyph unicode="&#x2202;" horiz-adv-x="665" d="M55 190q0 102 79.5 175.5t185.5 73.5q104 0 160 -86q6 33 6 70q0 95 -30.5 146.5t-83.5 51.5q-77 0 -130 -96h-125q44 90 112.5 139.5t154.5 49.5q107 0 166.5 -75.5t59.5 -213.5q0 -187 -99 -313t-236 -126q-97 0 -158.5 59.5t-61.5 144.5zM175 200q0 -51 29.5 -82.5 t75.5 -31.5q52 0 99.5 45t76.5 121q-55 87 -140 87q-56 0 -98.5 -37.5t-42.5 -101.5z" />
<glyph unicode="&#x2206;" horiz-adv-x="723" d="M6 0l339 708h32l339 -708h-710zM185 105h351l-175 378z" />
<glyph unicode="&#x220f;" horiz-adv-x="811" d="M55 598v102h701v-102h-103v-598h-124v598h-249v-598h-124v598h-101z" />
<glyph unicode="&#x2211;" horiz-adv-x="694" d="M75 0v77l262 273l-262 273v77h544v-102h-368l224 -233v-30l-224 -234h368v-101h-544z" />
<glyph unicode="&#x2212;" horiz-adv-x="613" d="M55 236v106h503v-106h-503z" />
<glyph unicode="&#x221a;" horiz-adv-x="724" d="M50 316v101h186l83 -214l233 594h122l-326 -805h-58l-134 324h-106z" />
<glyph unicode="&#x221e;" horiz-adv-x="824" d="M55 317q0 69 48 117t118 48q92 0 190 -98q101 98 191 98q70 0 118.5 -47.5t48.5 -117.5q0 -69 -49 -117.5t-118 -48.5q-83 0 -191 100q-54 -50 -98 -75t-92 -25q-69 0 -117.5 48.5t-48.5 117.5zM150 317q0 -29 20.5 -49.5t50.5 -20.5q46 0 122 71q-73 68 -122 68 q-30 0 -50.5 -19.5t-20.5 -49.5zM480 318q75 -71 122 -71q31 0 51.5 20.5t20.5 49.5q0 30 -20.5 49.5t-51.5 19.5q-48 0 -122 -68z" />
<glyph unicode="&#x222b;" horiz-adv-x="487" d="M0 -237l14 98q29 -13 61 -13q53 0 61 55l94 671q10 76 55 116t115 40q60 0 86 -13l-14 -98q-29 13 -61 13q-54 0 -61 -55l-95 -671q-11 -76 -55.5 -116t-113.5 -40q-60 0 -86 13z" />
<glyph unicode="&#x2248;" horiz-adv-x="733" d="M95 95q0 80 43 130.5t115 50.5q34 0 67 -14t55.5 -30.5t51 -30.5t53.5 -14q35 0 55.5 21.5t20.5 57.5h82q0 -80 -44 -130.5t-116 -50.5q-40 0 -81 22.5t-77.5 44.5t-66.5 22q-35 0 -55.5 -21.5t-20.5 -57.5h-82zM95 317q0 80 43 130.5t115 50.5q34 0 67 -14t55.5 -30.5 t51 -30.5t53.5 -14q35 0 55.5 21.5t20.5 57.5h82q0 -80 -44 -130.5t-116 -50.5q-40 0 -81 22.5t-77.5 44.5t-66.5 22q-35 0 -55.5 -21.5t-20.5 -57.5h-82z" />
<glyph unicode="&#x2260;" horiz-adv-x="743" d="M95 0l90 116h-90v106h171l104 133h-275v106h356l91 116h106l-91 -116h91v-106h-172l-104 -133h276v-106h-357l-90 -116h-106z" />
<glyph unicode="&#x2264;" horiz-adv-x="698" d="M95 0v101h507v-101h-507zM95 302v107l508 168v-105l-377 -117l377 -116v-105z" />
<glyph unicode="&#x2265;" horiz-adv-x="698" d="M95 134v105l377 116l-377 117v105l508 -168v-107zM96 0v101h507v-101h-507z" />
<glyph unicode="&#x250c;" horiz-adv-x="708" d="M282 -305v681h438v-114h-324v-567h-114z" />
<glyph unicode="&#x2510;" horiz-adv-x="708" d="M-11 262v114h437v-681h-114v567h-323z" />
<glyph unicode="&#x2514;" horiz-adv-x="708" d="M282 231v681h114v-567h324v-114h-438z" />
<glyph unicode="&#x2518;" horiz-adv-x="708" d="M-11 231v114h323v567h114v-681h-437z" />
<glyph unicode="&#x2588;" horiz-adv-x="708" d="M-11 -303v1213h730v-1213h-730z" />
<glyph unicode="&#x25ca;" horiz-adv-x="658" d="M55 350l250 358h48l250 -358l-250 -358h-48zM183 350l146 -209l146 209l-146 208z" />
<glyph unicode="&#x266a;" horiz-adv-x="531" d="M22 105q0 51 39.5 86.5t97.5 35.5q51 0 89 -23v496h51q89 0 149.5 -49t60.5 -122v-86h-59v27q0 50 -38 81.5t-99 31.5h-6v-466q0 -58 -42.5 -94.5t-105.5 -36.5q-58 0 -97.5 34.5t-39.5 84.5z" />
<glyph unicode="&#x266b;" horiz-adv-x="751" d="M22 57q0 51 39.5 86.5t97.5 35.5q51 0 89 -23v464l403 125v-578q0 -58 -42.5 -94.5t-105.5 -36.5q-58 0 -97.5 34.5t-39.5 84.5q0 51 39.5 87t97.5 36q49 0 89 -24v340l-285 -90v-435q0 -58 -42.5 -94.5t-105.5 -36.5q-58 0 -97.5 34.5t-39.5 84.5z" />
<glyph unicode="&#xe000;" horiz-adv-x="520" d="M0 0v520h520v-520h-520z" />
<glyph unicode="&#xf6c3;" horiz-adv-x="282" d="M55 -164q0 37 24 60.5t61 23.5q38 0 62.5 -27.5t24.5 -76.5q0 -57 -33.5 -117t-96.5 -107l-39 42q31 27 52 58.5t24 58.5q-34 2 -56.5 26t-22.5 59z" />
<glyph unicode="&#xfb01;" horiz-adv-x="657" d="M20 423v97h85v49q0 78 40.5 119.5t112.5 41.5q64 0 93 -13v-98q-34 13 -69 13q-58 0 -58 -60v-52h121v-97h-121v-423h-119v423h-85zM442 666q0 30 19.5 48t50.5 18t50.5 -18t19.5 -48t-19.5 -47.5t-50.5 -17.5t-50.5 17.5t-19.5 47.5zM452 0v520h120v-520h-120z" />
<glyph unicode="&#xfb02;" horiz-adv-x="711" d="M20 423v97h85v49q0 78 40.5 119.5t112.5 41.5q64 0 93 -13v-98q-34 13 -69 13q-58 0 -58 -60v-52h121v-97h-121v-423h-119v423h-85zM452 166v564h120v-568q0 -40 17 -56t51 -16q14 0 27.5 2t20.5 4l6 3v-101q-40 -12 -86 -12q-81 0 -118.5 43.5t-37.5 136.5z" />
</font>
</defs>
</svg>
