<?xml version="1.0" standalone="no"?>
<!DOCTYPE svg PUBLIC "-//W3C//DTD SVG 1.1//EN" "http://www.w3.org/Graphics/SVG/1.1/DTD/svg11.dtd" >
<svg xmlns="http://www.w3.org/2000/svg">
<metadata></metadata>
<defs>
<font id="MatterhornBoldItalic" horiz-adv-x="529" >
<font-face units-per-em="1000" ascent="750" descent="-250" />
<missing-glyph horiz-adv-x="270" />
<glyph unicode=" "  horiz-adv-x="270" />
<glyph unicode="&#x09;" horiz-adv-x="270" />
<glyph unicode="&#xa0;" horiz-adv-x="270" />
<glyph unicode="!" horiz-adv-x="276" d="M12 52q0 42 31.5 72.5t73.5 30.5q31 0 50 -18t19 -47q0 -43 -31.5 -73.5t-72.5 -30.5q-31 0 -50.5 18.5t-19.5 47.5zM80 243l85 457h136l-109 -457h-112z" />
<glyph unicode="&#x22;" horiz-adv-x="427" d="M92 427l57 287h125l-77 -287h-105zM304 427l57 287h125l-77 -287h-105z" />
<glyph unicode="#" horiz-adv-x="669" d="M43 183l19 88h110l55 158h-100l19 88h111l63 183h99l-62 -183h117l63 183h99l-62 -183h99l-19 -88h-111l-54 -158h100l-19 -88h-111l-62 -183h-100l63 183h-118l-62 -183h-100l63 183h-100zM272 271h117l55 158h-118z" />
<glyph unicode="$" horiz-adv-x="522" d="M3 33l25 114q81 -50 165 -50q52 0 89.5 26t37.5 74q0 31 -21.5 58.5t-52 50.5t-61 48.5t-52 64t-21.5 86.5q0 86 56 140.5t147 65.5l19 88h101l-19 -90q70 -10 112 -35l-24 -115q-73 46 -150 46q-47 0 -77 -24t-30 -63q0 -30 21.5 -57t51.5 -50t60.5 -49.5t52 -66.5 t21.5 -90q0 -84 -52.5 -140t-139.5 -73l-23 -110h-101l23 105q-99 7 -158 46z" />
<glyph unicode="%" horiz-adv-x="953" d="M101 446q0 103 66.5 178.5t158.5 75.5q65 0 103 -39t38 -106q0 -102 -66.5 -177.5t-158.5 -75.5q-65 0 -103 39t-38 105zM202 460q0 -74 58 -74q45 0 76 47t31 108q0 75 -58 75q-46 0 -76.5 -47.5t-30.5 -108.5zM203 -14l498 728h98l-498 -728h-98zM535 144 q0 103 66.5 178.5t158.5 75.5q65 0 102.5 -39.5t37.5 -105.5q0 -103 -66 -178t-158 -75q-65 0 -103 39t-38 105zM635 158q0 -74 58 -74q45 0 76 47t31 108q0 35 -15 55t-43 20q-46 0 -76.5 -47t-30.5 -109z" />
<glyph unicode="&#x26;" horiz-adv-x="654" d="M32 132q0 83 52.5 143t140.5 113q-36 62 -36 124q0 84 61.5 143t159.5 59q64 0 105.5 -32.5t41.5 -86.5q0 -39 -16 -73t-48.5 -62.5t-59 -46.5t-69.5 -43l87 -132q29 48 51 102h99q-40 -107 -97 -183l104 -157h-132l-48 74q-99 -88 -222 -88q-80 0 -127 40.5t-47 105.5z M159 171q-4 -39 19 -61.5t64 -22.5q72 0 137 63l-108 168q-106 -72 -112 -147zM297 516q0 -37 22 -76q60 35 93 65.5t36 67.5q2 26 -12.5 42.5t-40.5 16.5q-42 0 -70 -36t-28 -80z" />
<glyph unicode="'" horiz-adv-x="215" d="M92 427l57 287h125l-77 -287h-105z" />
<glyph unicode="(" horiz-adv-x="393" d="M73 165q0 170 74 331t203 294h131q-121 -113 -201 -277.5t-80 -347.5t84 -310h-131q-80 139 -80 310z" />
<glyph unicode=")" horiz-adv-x="398" d="M-49 -145q121 114 201.5 277.5t80.5 346.5q0 182 -84 311h132q78 -140 78 -311t-73.5 -332t-203.5 -292h-131z" />
<glyph unicode="*" horiz-adv-x="536" d="M107 532l52 98l135 -58l24 158h103l-44 -158l161 58l10 -98l-161 -39l75 -122l-97 -62l-56 135l-112 -135l-71 62l126 122z" />
<glyph unicode="+" horiz-adv-x="601" d="M52 236v106h203v228h107v-228h204v-106h-204v-229h-107v229h-203z" />
<glyph unicode="," horiz-adv-x="245" d="M-40 -130q82 60 101 116q-29 2 -46.5 20t-17.5 45q0 42 30.5 73t73.5 31q32 0 52.5 -20t20.5 -54q0 -67 -52 -134t-130 -120z" />
<glyph unicode="-" horiz-adv-x="370" d="M58 248l22 103h259l-22 -103h-259z" />
<glyph unicode="." horiz-adv-x="241" d="M-3 52q0 42 31.5 72.5t73.5 30.5q31 0 50 -18t19 -47q0 -43 -31.5 -73.5t-72.5 -30.5q-31 0 -50.5 18.5t-19.5 47.5z" />
<glyph unicode="/" horiz-adv-x="377" d="M-54 -74l417 848h116l-417 -848h-116z" />
<glyph unicode="0" horiz-adv-x="635" d="M67 238q0 59 12.5 122.5t40.5 127t66.5 113.5t96 81.5t123.5 31.5q99 0 153 -68.5t54 -183.5q0 -59 -12.5 -123t-40 -127t-66.5 -113.5t-96 -81.5t-124 -31q-99 0 -153 68.5t-54 183.5zM200 231q0 -66 21 -102.5t62 -36.5q50 0 96.5 56t74 143t27.5 177q0 66 -21.5 103 t-62.5 37q-75 0 -136 -119t-61 -258z" />
<glyph unicode="1" horiz-adv-x="359" d="M85 0l127 598h-117l21 102h243l-148 -700h-126z" />
<glyph unicode="2" horiz-adv-x="531" d="M-18 0l10 47l230 232q94 96 131.5 148.5t36.5 103.5q0 35 -26 56.5t-70 21.5q-85 0 -182 -64l25 118q90 51 180 51q91 0 147 -46t56 -122q0 -71 -44.5 -137.5t-131.5 -151.5l-156 -154h265l-22 -103h-449z" />
<glyph unicode="3" horiz-adv-x="525" d="M1 20l23 109q62 -37 141 -37q72 0 121.5 38.5t49.5 103.5q0 48 -37.5 78.5t-107.5 30.5l-30 -2l12 57l182 200h-229l21 102h402l-10 -48l-212 -230q59 -15 99.5 -60t40.5 -109q0 -115 -87 -191t-223 -76q-90 0 -156 34z" />
<glyph unicode="4" horiz-adv-x="576" d="M-5 139l15 66l474 502h66l-100 -469h89l-21 -99h-89l-29 -139h-123l29 139h-311zM153 238h174l52 246z" />
<glyph unicode="5" horiz-adv-x="543" d="M11 21q16 72 23 109q71 -40 150 -40q72 0 124.5 43.5t52.5 109.5q0 46 -32 72.5t-88 26.5q-63 0 -146 -30q61 224 104 388h362l-21 -102h-255q-34 -124 -46 -163q1 0 15.5 2.5t26.5 2.5q92 0 150.5 -48t58.5 -130q0 -118 -89 -197t-226 -79q-96 0 -164 35z" />
<glyph unicode="6" horiz-adv-x="589" d="M30 170q0 105 89 206l290 324h151l-231 -249q13 2 27 2q84 0 138 -53t54 -135q0 -119 -88 -199t-211 -80q-98 0 -157.5 51t-61.5 133zM160 189q0 -46 29 -74t76 -28q60 0 106 47.5t46 116.5q0 46 -28.5 74t-75.5 28q-62 0 -107.5 -49.5t-45.5 -114.5z" />
<glyph unicode="7" horiz-adv-x="503" d="M15 0l390 598h-306l21 102h464l-10 -48l-423 -652h-136z" />
<glyph unicode="8" horiz-adv-x="597" d="M39 144q0 83 54.5 139t128.5 82q-85 49 -85 125q0 99 80.5 161.5t182.5 62.5q83 0 135 -38t52 -101q0 -72 -47 -124.5t-111 -80.5q50 -27 79.5 -61t29.5 -86q0 -107 -85 -172t-204 -65q-95 0 -152.5 44t-57.5 114zM170 163q0 -37 26.5 -60t72.5 -23q53 0 95.5 36t42.5 91 q0 21 -8 38t-27.5 32.5t-32 23t-41.5 22.5q-17 -8 -34 -18.5t-41 -30t-38.5 -48.5t-14.5 -63zM268 513q0 -33 22 -55.5t65 -45.5q38 19 71 54.5t33 85.5q0 30 -20.5 49t-55.5 19q-44 0 -79.5 -30t-35.5 -77z" />
<glyph unicode="9" horiz-adv-x="589" d="M76 0l231 248q-13 -1 -27 -1q-84 0 -138 53t-54 134q0 120 88 200t211 80q97 0 157 -51t62 -133q0 -105 -89 -206l-290 -324h-151zM219 448q0 -46 28.5 -73.5t75.5 -27.5q62 0 107.5 49t45.5 114q0 47 -29 74.5t-76 27.5q-60 0 -106 -47t-46 -117z" />
<glyph unicode=":" horiz-adv-x="271" d="M13 52q0 42 31.5 72.5t73.5 30.5q31 0 50 -18t19 -47q0 -43 -31.5 -73.5t-72.5 -30.5q-31 0 -50.5 18.5t-19.5 47.5zM87 398q0 42 31.5 72.5t73.5 30.5q31 0 50 -18t19 -47q0 -43 -32 -73.5t-73 -30.5q-31 0 -50 18.5t-19 47.5z" />
<glyph unicode=";" horiz-adv-x="274" d="M-24 -130q82 60 101 116q-29 2 -46.5 20t-17.5 45q0 41 30.5 72.5t73.5 31.5q32 0 52.5 -20t20.5 -54q0 -67 -52 -134t-130 -120zM87 398q0 42 31.5 72.5t73.5 30.5q31 0 50 -18t19 -47q0 -43 -32 -73.5t-73 -30.5q-31 0 -50 18.5t-19 47.5z" />
<glyph unicode="&#x3c;" horiz-adv-x="585" d="M52 235v107l501 235v-120l-372 -169l372 -168v-120z" />
<glyph unicode="=" horiz-adv-x="708" d="M97 116v106h543v-106h-543zM97 355v106h543v-106h-543z" />
<glyph unicode="&#x3e;" horiz-adv-x="585" d="M62 0v120l372 168l-372 169v120l500 -235v-107z" />
<glyph unicode="?" horiz-adv-x="409" d="M37 52q0 42 31.5 72.5t73.5 30.5q31 0 50 -18t19 -47q0 -43 -31.5 -73.5t-72.5 -30.5q-31 0 -50.5 18.5t-19.5 47.5zM108 243q3 50 25 91.5t51 69t57 51.5t47.5 50t19.5 52q0 53 -74 53q-56 0 -125 -30l23 106q65 28 146 28q74 0 120 -36t46 -95q0 -47 -21.5 -85 t-53.5 -65t-65 -52.5t-59 -60.5t-31 -77h-106z" />
<glyph unicode="@" horiz-adv-x="888" d="M46 175q0 133 69 257t191.5 203t265.5 79q135 0 218 -76t83 -199q0 -84 -32.5 -164t-94.5 -133t-137 -53q-24 0 -43 6t-29 15t-17 18t-10 15l-2 6q-72 -48 -136 -48q-54 0 -82.5 31t-28.5 87q0 105 70.5 199.5t160.5 94.5q55 0 87 -43l13 39h94l-85 -277q-9 -28 0 -44.5 t34 -16.5q54 0 96.5 78t42.5 177q0 95 -58 149.5t-159 54.5q-106 0 -201.5 -63.5t-151.5 -165.5t-56 -211q0 -99 61.5 -152t167.5 -53q104 0 193 49l28 -73q-118 -62 -248 -62q-139 0 -221.5 74t-82.5 202zM370 252q0 -60 47 -60q42 0 84 27l56 176q-25 28 -66 28 q-54 0 -87.5 -55.5t-33.5 -115.5z" />
<glyph unicode="A" horiz-adv-x="627" d="M-57 0l425 704h92l127 -704h-129l-20 132h-272l-76 -132h-147zM220 229h204l-43 280z" />
<glyph unicode="B" horiz-adv-x="628" d="M42 0l148 700h223q99 0 149.5 -38.5t50.5 -103.5q0 -62 -41 -111.5t-109 -68.5v-2q56 -12 87 -51.5t31 -93.5q0 -104 -91.5 -167.5t-217.5 -63.5h-230zM193 102h88q80 0 124.5 37.5t44.5 95.5q0 42 -30 66t-92 24h-88zM261 425h83q65 0 97.5 31t32.5 71q0 71 -93 71h-83z " />
<glyph unicode="C" horiz-adv-x="619" d="M61 266q0 84 30.5 164.5t84.5 143.5t135 101.5t174 38.5q102 0 174 -47l-27 -116q-69 50 -160 50q-112 0 -193 -94.5t-81 -228.5q0 -86 41.5 -133t122.5 -47q95 0 187 60l-25 -127q-77 -45 -193 -45q-121 0 -195.5 79.5t-74.5 200.5z" />
<glyph unicode="D" horiz-adv-x="698" d="M42 0l148 700h166q163 0 245 -72.5t82 -196.5q0 -192 -129 -311.5t-346 -119.5h-166zM193 105h36q135 0 225.5 88t90.5 234q0 168 -212 168h-36z" />
<glyph unicode="E" horiz-adv-x="556" d="M42 0l148 700h401l-22 -105h-272l-37 -175h232l-22 -105h-232l-45 -210h272l-22 -105h-401z" />
<glyph unicode="F" horiz-adv-x="521" d="M42 0l148 700h386l-22 -105h-257l-41 -194h227l-22 -105h-227l-63 -296h-129z" />
<glyph unicode="G" horiz-adv-x="686" d="M61 265q0 117 53 219t153.5 166t227.5 64q110 0 194 -46l-25 -112q-85 46 -182 46q-119 0 -201.5 -94t-82.5 -227q0 -89 44.5 -136.5t133.5 -47.5q42 0 83 13l31 144h-97l21 98h226l-68 -320q-92 -46 -215 -46q-137 0 -216.5 77t-79.5 202z" />
<glyph unicode="H" horiz-adv-x="735" d="M42 0l148 700h129l-58 -278h292l58 278h129l-148 -700h-129l67 317h-292l-67 -317h-129z" />
<glyph unicode="I" horiz-adv-x="314" d="M42 0l148 700h129l-148 -700h-129z" />
<glyph unicode="J" horiz-adv-x="422" d="M-42 7l24 112q39 -23 92 -23q47 0 80 29t44 77l106 498h129l-106 -497q-23 -109 -87.5 -163t-162.5 -54q-79 0 -119 21z" />
<glyph unicode="K" horiz-adv-x="644" d="M42 0l148 700h129l-70 -331l323 331h162l-319 -323l178 -377h-140l-133 301l-104 -89l-45 -212h-129z" />
<glyph unicode="L" horiz-adv-x="497" d="M42 0l148 700h129l-126 -595h272l-22 -105h-401z" />
<glyph unicode="M" horiz-adv-x="907" d="M42 0l149 704h85l185 -380l346 380h106l-149 -704h-129l96 454l-272 -299h-49l-144 295l-95 -450h-129z" />
<glyph unicode="N" horiz-adv-x="779" d="M42 0l149 704h86l278 -477l100 473h129l-149 -704h-86l-278 476l-100 -472h-129z" />
<glyph unicode="O" horiz-adv-x="790" d="M65 285q0 110 48 207t142.5 159.5t214.5 62.5q134 0 216.5 -83.5t82.5 -216.5q0 -110 -48 -206.5t-142.5 -159t-214.5 -62.5q-134 0 -216.5 83t-82.5 216zM201 288q0 -85 44 -138t128 -53q113 0 186 95.5t73 218.5q0 86 -43.5 139t-127.5 53q-112 0 -186 -96t-74 -219z " />
<glyph unicode="P" horiz-adv-x="600" d="M42 0l148 700h205q108 0 163 -49t55 -133q0 -122 -87.5 -202.5t-223.5 -80.5h-81l-50 -235h-129zM243 340h67q73 0 119.5 44t46.5 117q0 94 -107 94h-72z" />
<glyph unicode="Q" horiz-adv-x="790" d="M65 285q0 110 48 207t142.5 159.5t214.5 62.5q134 0 216.5 -83.5t82.5 -216.5q0 -92 -35.5 -177.5t-100.5 -146.5l89 -132h-136l-46 68q-78 -40 -176 -40q-134 0 -216.5 83t-82.5 216zM201 288q0 -85 44 -138t128 -53q57 0 104 26l-78 118l91 62l72 -107q70 94 70 215 q0 86 -43.5 139t-127.5 53q-112 0 -186 -96t-74 -219z" />
<glyph unicode="R" horiz-adv-x="634" d="M42 0l148 700h209q101 0 156 -48.5t55 -128.5q0 -76 -44.5 -139.5t-116.5 -96.5l134 -287h-141l-111 257h-106l-54 -257h-129zM248 362h68q67 0 112 39t45 108q0 86 -108 86h-68z" />
<glyph unicode="S" horiz-adv-x="522" d="M3 33l25 114q81 -50 165 -50q52 0 89.5 26t37.5 74q0 31 -21.5 58.5t-52 50.5t-61 48.5t-52 64t-21.5 86.5q0 96 68.5 152.5t176.5 56.5q106 0 171 -40l-24 -115q-73 46 -150 46q-47 0 -77 -24t-30 -63q0 -30 21.5 -57t51.5 -50t60.5 -49.5t52 -66.5t21.5 -90 q0 -100 -74.5 -159.5t-187.5 -59.5q-60 0 -111 15t-78 32z" />
<glyph unicode="T" horiz-adv-x="543" d="M85 595l22 105h530l-22 -105h-201l-126 -595h-129l126 595h-200z" />
<glyph unicode="U" horiz-adv-x="722" d="M88 264l93 436h129l-93 -437q-34 -168 109 -168q71 0 119.5 43t65.5 125l93 437h129l-93 -436q-29 -140 -115.5 -209t-214.5 -69q-125 0 -186.5 77t-35.5 201z" />
<glyph unicode="V" horiz-adv-x="620" d="M96 700h129l69 -503l279 503h147l-415 -704h-92z" />
<glyph unicode="W" horiz-adv-x="947" d="M99 700h129l31 -473l261 477h95l58 -477l233 473h137l-356 -704h-98l-60 501l-274 -501h-98z" />
<glyph unicode="X" horiz-adv-x="616" d="M-36 0l303 366l-137 334h137l87 -227l177 227h155l-284 -345l146 -355h-136l-97 247l-193 -247h-158z" />
<glyph unicode="Y" horiz-adv-x="554" d="M91 700h135l78 -297l198 297h156l-309 -428l-58 -272h-129l58 272z" />
<glyph unicode="Z" horiz-adv-x="549" d="M-14 0l15 70l402 525h-281l22 105h451l-14 -70l-403 -525h306l-22 -105h-476z" />
<glyph unicode="[" horiz-adv-x="429" d="M34 -145l198 935h249l-22 -104h-121l-155 -727h121l-21 -104h-249z" />
<glyph unicode="\" horiz-adv-x="378" d="M129 774h111l57 -848h-111z" />
<glyph unicode="]" horiz-adv-x="429" d="M-16 -145l21 104h121l155 727h-121l22 104h249l-198 -935h-249z" />
<glyph unicode="^" horiz-adv-x="540" d="M83 369l159 345h123l159 -345h-119l-102 244l-101 -244h-119z" />
<glyph unicode="_" horiz-adv-x="577" d="M-108 -250l20 90h605l-20 -90h-605z" />
<glyph unicode="`" horiz-adv-x="380" d="M153 760h162l90 -147h-106z" />
<glyph unicode="a" d="M19 115q0 87 69.5 143.5t174.5 56.5q31 0 78 -11q10 45 10 55v13q0 64 -85 64q-83 0 -149 -30q16 78 22 104q60 24 161 24q77 0 126.5 -38.5t49.5 -108.5q0 -18 -5 -45l-43 -201q-3 -13 -3 -24q0 -32 35 -32l23 5q-6 -33 -17 -82q-2 -2 -10.5 -5t-24.5 -5.5t-32 -2.5 q-86 0 -96 68q-64 -77 -147 -77q-60 0 -98.5 35.5t-38.5 93.5zM145 136q0 -24 15.5 -40t43.5 -16q59 0 103 61l18 85q-33 11 -59 11q-51 0 -86 -28.5t-35 -72.5z" />
<glyph unicode="b" horiz-adv-x="629" d="M40 40q98 460 146 690h121l-51 -241q67 45 137 45q93 0 145 -59.5t52 -156.5q0 -135 -94.5 -233.5t-243.5 -98.5q-62 0 -120.5 17t-91.5 37zM175 105q40 -19 91 -19q87 0 142.5 70t55.5 160q0 57 -29.5 88.5t-79.5 31.5q-64 0 -120 -45z" />
<glyph unicode="c" horiz-adv-x="501" d="M44 199q0 138 88.5 236.5t231.5 98.5q80 0 135 -31l-21 -100q-53 30 -115 30q-83 0 -138 -64t-55 -158q0 -60 32.5 -91.5t92.5 -31.5q59 0 123 34l-23 -108q-62 -28 -133 -28q-98 0 -158 57.5t-60 155.5z" />
<glyph unicode="d" horiz-adv-x="624" d="M44 201q0 136 92 234.5t241 98.5q59 0 104 -18q33 158 46 214h122l-127 -598q-8 -35 -13 -67.5t-7 -48.5t-1 -16h-99q-1 15 -1 36v17q-75 -67 -165 -67t-141 59.5t-51 155.5zM171 203q0 -57 28.5 -87.5t78.5 -30.5q37 0 70.5 16.5t52.5 36.5l60 282q-40 18 -91 18 q-84 0 -141.5 -68.5t-57.5 -166.5z" />
<glyph unicode="e" horiz-adv-x="568" d="M44 204q0 137 88 233.5t215 96.5q85 0 137.5 -48t52.5 -128q0 -66 -23 -124h-340q-3 -9 -3 -30q0 -121 127 -121q82 0 173 53l-22 -104q-77 -46 -180 -46q-106 0 -165.5 58.5t-59.5 159.5zM191 318h221q4 12 4 39q0 40 -21 61.5t-59 21.5q-48 0 -87 -34t-58 -88z" />
<glyph unicode="f" horiz-adv-x="347" d="M47 0l90 423h-77q3 17 10 49t10 48h77q2 8 5.5 24.5t5.5 24.5q34 161 180 161q65 0 88 -13l-20 -96q-37 11 -60 11q-53 0 -67 -62l-11 -50h111l-21 -97h-110l-90 -423h-121z" />
<glyph unicode="g" horiz-adv-x="623" d="M-8 -191l23 107q71 -68 173 -68q70 0 118 39.5t63 112.5l9 43q-66 -42 -137 -42q-92 0 -144.5 58.5t-52.5 154.5q0 132 93.5 226t242.5 94q62 0 120 -17.5t92 -37.5l-100 -474q-27 -126 -109 -190.5t-207 -64.5q-64 0 -112.5 19t-71.5 40zM171 216q0 -57 29.5 -88.5 t79.5 -31.5q63 0 119 45l59 273q-36 19 -91 19q-87 0 -141.5 -64.5t-54.5 -152.5z" />
<glyph unicode="h" horiz-adv-x="608" d="M32 0l155 730h122l-59 -274q84 78 165 78q88 0 121.5 -57.5t16.5 -137.5l-72 -339h-122l68 321q23 112 -71 112q-61 0 -124 -63l-78 -370h-122z" />
<glyph unicode="i" horiz-adv-x="287" d="M31 0l110 520h122l-110 -520h-122zM161 652q0 35 26 57.5t60 22.5q27 0 43 -14t16 -37q0 -35 -26 -57.5t-61 -22.5q-27 0 -42.5 13.5t-15.5 37.5z" />
<glyph unicode="j" horiz-adv-x="290" d="M-108 -242l21 96q14 -6 37 -6q27 0 42.5 16t23.5 56l128 600h122l-127 -596q-19 -90 -63 -132.5t-120 -42.5q-16 0 -32 2.5t-24 4.5zM163 652q0 35 26 57.5t61 22.5q26 0 42 -14t16 -37q0 -35 -26 -57.5t-60 -22.5q-27 0 -43 13.5t-16 37.5z" />
<glyph unicode="k" horiz-adv-x="536" d="M32 0l155 730h122l-94 -442l218 232h151l-225 -221l134 -299h-135l-84 223l-88 -70l-32 -153h-122z" />
<glyph unicode="l" horiz-adv-x="317" d="M60 154l123 576h122l-121 -570q-9 -39 0.5 -55.5t44.5 -16.5q23 0 47 8l-22 -101q-31 -9 -67 -9q-78 0 -111 45t-16 123z" />
<glyph unicode="m" horiz-adv-x="900" d="M32 0l82 388q7 34 12.5 67t7.5 49l1 16h112q1 -29 -3 -71q80 85 165 85q106 0 128 -95q89 95 181 95q82 0 113.5 -55.5t13.5 -139.5l-72 -339h-122l68 321q21 112 -61 112q-31 0 -64 -22t-54 -48q-1 -2 -2.5 -11.5t-1.5 -12.5l-72 -339h-122l67 321q21 112 -61 112 q-31 0 -63.5 -20.5t-51.5 -41.5l-79 -371h-122z" />
<glyph unicode="n" horiz-adv-x="608" d="M32 0l82 388q7 34 12.5 67t7.5 49l1 16h112q1 -28 -3 -71q82 85 171 85q88 0 121.5 -57.5t16.5 -137.5l-72 -339h-122l68 321q23 112 -71 112q-61 0 -123 -62l-79 -371h-122z" />
<glyph unicode="o" horiz-adv-x="607" d="M44 207q0 131 88.5 229t219.5 98q99 0 158 -61.5t59 -159.5q0 -131 -88 -229t-220 -98q-99 0 -158 61t-59 160zM170 207q0 -59 27.5 -91.5t73.5 -32.5q74 0 122.5 70.5t48.5 159.5q0 58 -27 90.5t-73 32.5q-74 0 -123 -70.5t-49 -158.5z" />
<glyph unicode="p" horiz-adv-x="630" d="M-22 -250l136 638q8 34 13 67t7 49l1 16h99l1 -54q74 68 165 68q90 0 141 -59.5t51 -156.5q0 -136 -92 -234t-241 -98q-53 0 -104 17l-55 -253h-122zM175 100q40 -18 91 -18q84 0 141.5 68t57.5 166q0 57 -28.5 87.5t-78.5 30.5q-37 0 -70.5 -16.5t-52.5 -36.5z" />
<glyph unicode="q" horiz-adv-x="625" d="M44 201q0 135 95 234t243 99q62 0 120 -17.5t92 -37.5l-154 -729h-121l59 281q-63 -45 -137 -45q-92 0 -144.5 59.5t-52.5 155.5zM171 203q0 -57 29.5 -88.5t79.5 -31.5q62 0 119 46l61 285q-36 19 -91 19q-87 0 -142.5 -69.5t-55.5 -160.5z" />
<glyph unicode="r" horiz-adv-x="396" d="M32 0l82 388q7 34 12.5 67t7.5 49l1 16h112q1 -39 -5 -81h2q73 95 155 95q13 0 24.5 -3t16.5 -5l6 -3l-24 -114q-24 11 -66 11q-32 0 -63 -13t-46 -26l-15 -13l-78 -368h-122z" />
<glyph unicode="s" horiz-adv-x="448" d="M8 28l22 100q24 -18 62.5 -32t74.5 -14q38 0 65.5 16.5t27.5 47.5q0 22 -18 41t-44 35t-52 35t-44 49t-18 68q0 73 57 116.5t141 43.5q93 0 149 -35l-22 -101q-53 40 -118 40q-38 0 -59.5 -16t-21.5 -41q0 -24 27.5 -48t60 -43t60 -55t27.5 -81q0 -76 -60 -122t-146 -46 q-53 0 -101.5 13t-69.5 29z" />
<glyph unicode="t" horiz-adv-x="366" d="M61 423l21 97h79l25 117l128 25l-31 -142h110l-20 -97h-110l-56 -261q-15 -73 44 -73q13 0 27 2.5t22 4.5l7 2l-21 -101q-40 -11 -80 -11q-80 0 -109.5 48t-10.5 130l55 259h-80z" />
<glyph unicode="u" horiz-adv-x="609" d="M66 181l72 339h122l-68 -322q-11 -52 6.5 -82t64.5 -30q34 0 67.5 20t55.5 43l79 371h122l-82 -388q-7 -34 -12.5 -67t-6.5 -49l-2 -16h-112q-1 28 3 70q-84 -84 -171 -84q-88 0 -121.5 57.5t-16.5 137.5z" />
<glyph unicode="v" horiz-adv-x="509" d="M55 520h116l57 -337l195 337h134l-327 -524h-71z" />
<glyph unicode="w" horiz-adv-x="801" d="M55 520h112l43 -325l193 329h81l55 -329l179 325h128l-299 -524h-73l-60 352l-208 -352h-74z" />
<glyph unicode="x" horiz-adv-x="501" d="M-54 0l241 271l-116 249h125l66 -161l127 161h148l-224 -253l125 -267h-126l-75 179l-144 -179h-147z" />
<glyph unicode="y" horiz-adv-x="492" d="M-110 -239l23 107q18 -7 45 -7q98 0 177 141l11 20l-86 498h122l47 -346l178 346h137l-284 -517q-141 -253 -310 -253q-16 0 -31 3t-22 5z" />
<glyph unicode="z" horiz-adv-x="456" d="M-23 0l12 57l301 369h-212l20 94h378l-12 -57l-302 -369h233l-19 -94h-399z" />
<glyph unicode="{" horiz-adv-x="399" d="M63 278l19 89q64 1 91.5 30t30.5 97q1 15 0 46t-1 43q0 103 55 154.5t193 52.5l-19 -90q-51 0 -73 -19.5t-27 -67.5q-3 -20 -2.5 -68t-2.5 -71q-6 -61 -42.5 -100.5t-94.5 -47.5l-2 -7q86 -13 86 -90q0 -40 -35.5 -121.5t-39.5 -110.5q-3 -29 14 -40.5t59 -11.5l-19 -90 q-101 0 -145 25.5t-44 76.5q0 43 39.5 128.5t43.5 124.5q5 35 -15 51.5t-69 16.5z" />
<glyph unicode="|" horiz-adv-x="358" d="M134 -170v980h128v-980h-128z" />
<glyph unicode="}" horiz-adv-x="399" d="M-16 -145l19 90q50 0 73 19.5t27 67.5q2 18 1.5 68t3.5 71q11 128 136 148l2 7q-86 12 -86 89q0 39 35.5 121.5t39.5 112.5q3 28 -14 39.5t-58 11.5l19 90q100 0 144 -25.5t44 -76.5q0 -43 -39.5 -129t-43.5 -124q-5 -35 15 -51.5t69 -16.5l-19 -89q-66 -1 -93 -31 t-29 -105q0 -12 0.5 -39t0.5 -42q0 -102 -55 -153.5t-192 -52.5z" />
<glyph unicode="~" horiz-adv-x="693" d="M82 209q0 87 43 140.5t119 53.5q42 0 83 -20.5t76.5 -41.5t63.5 -21q33 0 51.5 23t18.5 61h98q0 -87 -43.5 -140.5t-119.5 -53.5q-50 0 -120.5 41t-101.5 41q-33 0 -51 -22.5t-18 -60.5h-99z" />
<glyph unicode="&#xa1;" horiz-adv-x="279" d="M-19 -180l109 457h112l-85 -457h-136zM96 429q0 43 32 74t73 31q31 0 50 -18.5t19 -47.5q0 -42 -31.5 -73t-73.5 -31q-31 0 -50 18t-19 47z" />
<glyph unicode="&#xa2;" horiz-adv-x="501" d="M44 199q0 136 86 233t226 101l44 111h93l-49 -120q34 -9 55 -21l-21 -100q-53 30 -115 30q-83 0 -138 -64t-55 -158q0 -60 32.5 -91.5t92.5 -31.5q59 0 123 34l-23 -108q-62 -28 -133 -28q-11 0 -33 2l-39 -98h-92l49 123q-103 55 -103 186z" />
<glyph unicode="&#xa3;" horiz-adv-x="543" d="M25 52q65 30 103 85t38 128q0 30 -1 42h-88l17 80h65q0 39 6 71q10 123 78.5 189.5t172.5 66.5q36 0 69.5 -8t48.5 -16l16 -9l-21 -104q-47 35 -109 35q-57 0 -90 -41.5t-38 -119.5q-6 -31 -6 -64h153l-17 -80h-134q-2 -74 -28.5 -125.5t-64.5 -72.5l2 -4q18 6 45 6 q22 0 60.5 -7.5t61.5 -7.5q28 0 54.5 8.5t39.5 17.5l12 8l-22 -107q-37 -37 -96 -37q-47 0 -99 20t-86 20q-24 0 -53 -9.5t-46 -19.5l-17 -10z" />
<glyph unicode="&#xa4;" horiz-adv-x="639" d="M75 136l72 73q-35 56 -35 123q0 69 35 122l-72 73l69 69l72 -73q55 36 123 36q67 0 122 -36l74 73l69 -69l-73 -73q35 -56 35 -122q0 -67 -35 -123l73 -73l-69 -69l-73 73q-55 -35 -123 -35q-66 0 -123 34l-72 -72zM215 332q0 -59 35 -97.5t89 -38.5q55 0 90 38.5 t35 97.5t-35 97.5t-90 38.5q-54 0 -89 -38.5t-35 -97.5z" />
<glyph unicode="&#xa5;" horiz-adv-x="554" d="M31 122l17 77h156l14 66h-156l16 77h120l-107 358h135l78 -297l198 297h156l-259 -358h122l-16 -77h-158l-14 -66h158l-17 -77h-157l-26 -122h-129l26 122h-157z" />
<glyph unicode="&#xa6;" horiz-adv-x="357" d="M134 -170v435h127v-435h-127zM134 375v435h127v-435h-127z" />
<glyph unicode="&#xa7;" horiz-adv-x="582" d="M-19 -169l25 103q82 -44 173 -44q52 0 91.5 23t39.5 65q0 27 -23 51t-56 43.5t-66.5 41.5t-56.5 56t-23 76q0 117 126 164q-64 52 -64 119q0 85 73 135t186 50q103 0 173 -36l-24 -104q-75 40 -155 40q-49 0 -80.5 -20t-31.5 -55q0 -22 16.5 -42.5t41.5 -36t54.5 -35.5 t54.5 -40t41.5 -51.5t16.5 -68.5q0 -56 -31.5 -98.5t-87.5 -66.5q57 -52 57 -118q0 -88 -78 -140.5t-195 -52.5q-121 0 -197 42zM219 258q0 -26 18.5 -45.5t57.5 -45.5q37 11 60.5 34.5t23.5 57.5q0 41 -64 84q-42 -4 -69 -27.5t-27 -57.5z" />
<glyph unicode="&#xa8;" horiz-adv-x="449" d="M147 672q6 28 28.5 46.5t50.5 18.5q26 0 40.5 -16.5t10.5 -42.5q-3 -30 -26 -50.5t-52 -20.5q-28 0 -42.5 19t-9.5 46zM357 672q5 28 28 46.5t51 18.5q25 0 39.5 -16.5t11.5 -42.5q-4 -30 -27 -50.5t-52 -20.5q-28 0 -42.5 19t-8.5 46z" />
<glyph unicode="&#xa9;" horiz-adv-x="848" d="M85 350q0 151 106.5 257.5t257.5 106.5t257.5 -106.5t106.5 -257.5t-106.5 -257.5t-257.5 -106.5t-257.5 106.5t-106.5 257.5zM172 350q0 -122 80.5 -204.5t196.5 -82.5t196 82.5t80 204.5t-80 204.5t-196 82.5t-196.5 -82.5t-80.5 -204.5zM268 350q0 89 54 145.5 t139 56.5q61 0 109 -27v-85q-54 42 -103 42q-54 0 -85 -36t-31 -96t31 -96t85 -36q51 0 103 42v-85q-45 -27 -109 -27q-85 0 -139 56t-54 146z" />
<glyph unicode="&#xaa;" horiz-adv-x="433" d="M54 218q6 24 13 64h329q-7 -40 -13 -64h-329zM103 440q0 56 48 95t120 39q33 0 53 -6q0 4 2.5 14t2.5 14v8q0 41 -57 41q-43 0 -108 -29l17 75q54 23 114 23q57 0 88.5 -24.5t31.5 -69.5q0 -15 -3 -30l-29 -135q-1 -5 -1 -12q0 -22 20 -22l17 3l-11 -57q-15 -10 -53 -10 q-52 0 -57 44q-47 -49 -104 -49q-42 0 -66.5 23.5t-24.5 64.5zM189 453q0 -36 42 -36q41 0 69 38l12 57q-18 6 -38 6q-36 0 -60.5 -19t-24.5 -46z" />
<glyph unicode="&#xab;" horiz-adv-x="598" d="M34 210l23 107l275 200l-25 -118l-166 -145l105 -144l-21 -100zM264 210l23 107l275 200l-25 -118l-166 -145l105 -144l-21 -100z" />
<glyph unicode="&#xac;" horiz-adv-x="680" d="M71 328v108h561v-299h-109v191h-452z" />
<glyph unicode="&#xae;" horiz-adv-x="848" d="M85 350q0 151 106.5 257.5t257.5 106.5t257.5 -106.5t106.5 -257.5t-106.5 -257.5t-257.5 -106.5t-257.5 106.5t-106.5 257.5zM172 350q0 -121 80.5 -204t196.5 -83q115 0 195.5 82.5t80.5 204.5q0 121 -80.5 204t-195.5 83t-196 -83t-81 -204zM321 154v387h125 q67 0 105.5 -34.5t38.5 -89.5q0 -72 -64 -106l109 -157h-96l-88 139h-51v-139h-79zM400 359h38q69 0 69 58t-69 58h-38v-116z" />
<glyph unicode="&#xaf;" horiz-adv-x="395" d="M138 638l19 91h289l-19 -91h-289z" />
<glyph unicode="&#xb0;" horiz-adv-x="400" d="M96 511q0 78 61.5 140.5t143.5 62.5q59 0 96.5 -37.5t37.5 -94.5q0 -78 -61.5 -140t-143.5 -62q-59 0 -96.5 37t-37.5 94zM190 536q-4 -31 11.5 -50.5t46.5 -19.5q34 0 62 27.5t32 63.5q3 31 -12.5 50.5t-46.5 19.5q-34 0 -62 -27t-31 -64z" />
<glyph unicode="&#xb1;" horiz-adv-x="693" d="M105 0v101h513v-101h-513zM105 321v101h205v154h101v-154h207v-101h-207v-160h-101v160h-205z" />
<glyph unicode="&#xb2;" horiz-adv-x="362" d="M75 332l9 41l122 116q75 72 78 108q1 15 -9 23.5t-29 8.5q-39 0 -109 -45l19 90q57 33 115 33q52 0 80.5 -28t23.5 -73q-7 -63 -94 -144l-58 -54h122l-17 -76h-253z" />
<glyph unicode="&#xb3;" horiz-adv-x="350" d="M76 344l17 80q49 -21 92 -21q26 0 46 14.5t21 36.5q3 45 -93 45l8 36l85 89h-115l16 76h233l-8 -41l-95 -99q68 -25 59 -98q-5 -58 -53 -97.5t-118 -39.5q-53 0 -95 19z" />
<glyph unicode="&#xb4;" horiz-adv-x="393" d="M141 613l140 147h167l-196 -147h-111z" />
<glyph unicode="&#xb5;" horiz-adv-x="647" d="M-6 -179q98 466 148 699h121l-68 -322q-4 -16 -4 -34q0 -78 81 -78q62 0 128 60l79 374h121l-78 -368q-3 -12 -3 -22q0 -40 42 -40q7 0 15 2t12 4l5 1l-21 -95q-36 -12 -74 -12q-48 0 -75.5 22.5t-29.5 62.5h-2q-79 -89 -181 -89q-35 0 -59 11q-9 -46 -38 -176h-119z" />
<glyph unicode="&#xb6;" horiz-adv-x="727" d="M91 405q0 124 87.5 209.5t222.5 85.5h333l-201 -950h-114l181 850h-101l-181 -850h-114l102 481h-5q-102 0 -156 46.5t-54 127.5z" />
<glyph unicode="&#xb7;" horiz-adv-x="319" d="M96 333q4 38 34.5 65t68.5 27q35 0 53.5 -21t14.5 -55q-4 -39 -34 -66t-69 -27q-34 0 -53.5 21.5t-14.5 55.5z" />
<glyph unicode="&#xb8;" horiz-adv-x="317" d="M-48 -247l14 68q28 -17 62 -17q47 0 57 41q5 24 -18 38t-67 14l80 103h88l-52 -62q36 -9 54.5 -33t11.5 -60q-11 -49 -57.5 -76.5t-102.5 -27.5q-17 0 -34.5 3t-26.5 6z" />
<glyph unicode="&#xb9;" horiz-adv-x="258" d="M136 332l62 292h-62l16 76h149l-78 -368h-87z" />
<glyph unicode="&#xba;" horiz-adv-x="477" d="M59 216l13 66h350l-14 -66h-349zM119 493q0 88 62 154.5t150 66.5q65 0 105 -39t40 -101q0 -89 -61.5 -153.5t-150.5 -67.5q-66 0 -105.5 39t-39.5 101zM207 496q0 -75 67 -75q50 0 82 45.5t32 104.5q0 75 -68 75q-50 0 -81.5 -45.5t-31.5 -104.5z" />
<glyph unicode="&#xbb;" horiz-adv-x="598" d="M46 10l25 118l167 144l-106 145l22 100l191 -200l-23 -107zM276 10l25 118l167 144l-106 145l22 100l191 -200l-23 -107z" />
<glyph unicode="&#xbc;" horiz-adv-x="755" d="M85 -14l498 728h97l-498 -728h-97zM136 332l62 292h-62l16 76h149l-78 -368h-87zM373 69l10 46l250 256h49l-49 -229h47l-16 -73h-47l-14 -69h-86l14 69h-158zM474 142h73l20 95z" />
<glyph unicode="&#xbd;" horiz-adv-x="794" d="M85 -14l498 728h97l-498 -728h-97zM136 624l16 76h150l-78 -368h-87l62 292h-63zM437 0l8 41l122 116q75 72 78 108q3 32 -37 32q-38 0 -110 -45l19 90q58 33 115 33q52 0 80.5 -28.5t23.5 -73.5q-5 -61 -93 -143l-58 -54h121l-16 -76h-253z" />
<glyph unicode="&#xbe;" horiz-adv-x="818" d="M76 344l17 80q49 -21 92 -21q26 0 46 14.5t21 36.5q3 45 -93 45l8 36l85 89h-115l16 76h233l-8 -41l-95 -99q68 -25 59 -98q-5 -58 -53 -97.5t-118 -39.5q-53 0 -95 19zM148 -14l498 728h98l-498 -728h-98zM436 69l10 46l250 256h50l-49 -229h47l-16 -73h-47l-14 -69h-86 l14 69h-159zM537 142h74l20 95z" />
<glyph unicode="&#xbf;" horiz-adv-x="447" d="M-4 -63q0 47 21.5 85t53.5 65t64.5 52.5t58.5 60.5t31 77h106q-3 -50 -25 -92t-51 -69.5t-57 -51.5t-47.5 -49.5t-19.5 -51.5q0 -53 74 -53q56 0 125 30l-23 -106q-65 -28 -146 -28q-74 0 -119.5 36t-45.5 95zM228 429q0 43 31.5 74t72.5 31q31 0 50.5 -18.5t19.5 -47.5 q0 -42 -31.5 -73t-73.5 -31q-31 0 -50 18t-19 47z" />
<glyph unicode="&#xc0;" horiz-adv-x="627" d="M-57 0l425 704h92l127 -704h-129l-20 132h-272l-76 -132h-147zM220 229h204l-43 280zM283 937h162l90 -147h-106z" />
<glyph unicode="&#xc1;" horiz-adv-x="627" d="M-57 0l425 704h92l127 -704h-129l-20 132h-272l-76 -132h-147zM220 229h204l-43 280zM321 790l140 147h167l-196 -147h-111z" />
<glyph unicode="&#xc2;" horiz-adv-x="627" d="M-57 0l425 704h92l127 -704h-129l-20 132h-272l-76 -132h-147zM220 229h204l-43 280zM247 790l146 152h126l83 -152h-110l-50 86l-85 -86h-110z" />
<glyph unicode="&#xc3;" horiz-adv-x="627" d="M-57 0l425 704h92l127 -704h-129l-20 132h-272l-76 -132h-147zM220 229h204l-43 280zM231 797q13 65 50.5 112t97.5 47q26 0 46.5 -11t31 -25t24.5 -25t29 -11q43 0 60 71h78q-14 -67 -52 -113t-98 -46q-27 0 -47.5 11t-30.5 25t-24.5 25t-30.5 11q-41 0 -56 -71h-78z " />
<glyph unicode="&#xc4;" horiz-adv-x="627" d="M-57 0l425 704h92l127 -704h-129l-20 132h-272l-76 -132h-147zM220 229h204l-43 280zM271 853q6 28 28.5 46.5t50.5 18.5q26 0 40.5 -16.5t10.5 -42.5q-3 -30 -26 -50.5t-52 -20.5q-28 0 -42.5 19t-9.5 46zM481 853q5 28 28 46.5t51 18.5q25 0 39.5 -16.5t11.5 -42.5 q-4 -30 -27 -50.5t-52 -20.5q-28 0 -42.5 19t-8.5 46z" />
<glyph unicode="&#xc5;" horiz-adv-x="627" d="M-57 0l404 669q-51 25 -51 87q0 65 46.5 112.5t110.5 47.5q47 0 74.5 -26.5t27.5 -70.5q0 -31 -11.5 -59.5t-31.5 -50.5t-47 -35l122 -674h-129l-20 132h-272l-76 -132h-147zM220 229h204l-43 280zM374 779q-3 -24 7.5 -38t30.5 -14q25 0 43 19t21 50q3 23 -7.5 37 t-30.5 14q-24 0 -42.5 -19t-21.5 -49z" />
<glyph unicode="&#xc6;" horiz-adv-x="926" d="M-57 0l566 700h450l-22 -105h-278l-37 -175h238l-23 -105h-238l-44 -210h278l-22 -105h-405l27 132h-236l-105 -132h-149zM274 229h180l66 311z" />
<glyph unicode="&#xc7;" horiz-adv-x="619" d="M61 266q0 67 19 132.5t56.5 122t88 100t118 68.5t142.5 25q52 0 98 -14t76 -33l-27 -116q-69 50 -160 50q-112 0 -193 -94.5t-81 -228.5q0 -86 41.5 -133t122.5 -47q95 0 187 60l-25 -127q-68 -39 -170 -44l-41 -49q36 -9 54.5 -33t11.5 -60q-11 -49 -57.5 -76.5 t-102.5 -27.5q-17 0 -34.5 3t-26.5 6l-9 3l14 68q28 -17 62 -17q22 0 37 11t20 30q3 16 -6 27.5t-29 18t-50 6.5l74 95q-97 19 -153.5 94t-56.5 180z" />
<glyph unicode="&#xc8;" horiz-adv-x="556" d="M55 0l148 700h401l-22 -105h-272l-37 -175h232l-22 -105h-232l-45 -210h272l-22 -105h-401zM237 933h162l90 -147h-106z" />
<glyph unicode="&#xc9;" horiz-adv-x="556" d="M42 0l148 700h401l-22 -105h-272l-37 -175h232l-22 -105h-232l-45 -210h272l-22 -105h-401zM288 786l140 147h167l-196 -147h-111z" />
<glyph unicode="&#xca;" horiz-adv-x="556" d="M55 0l148 700h401l-22 -105h-272l-37 -175h232l-22 -105h-232l-45 -210h272l-22 -105h-401zM219 786l146 152h126l83 -152h-110l-50 86l-85 -86h-110z" />
<glyph unicode="&#xcb;" horiz-adv-x="556" d="M55 0l148 700h401l-22 -105h-272l-37 -175h232l-22 -105h-232l-45 -210h272l-22 -105h-401zM250 849q6 28 28.5 46.5t50.5 18.5q26 0 40.5 -16.5t10.5 -42.5q-3 -30 -26 -50.5t-52 -20.5q-28 0 -42.5 19t-9.5 46zM460 849q5 28 28 46.5t51 18.5q25 0 39.5 -16.5 t11.5 -42.5q-4 -30 -27 -50.5t-52 -20.5q-28 0 -42.5 19t-8.5 46z" />
<glyph unicode="&#xcc;" horiz-adv-x="314" d="M42 0l148 700h129l-148 -700h-129zM119 933h162l90 -147h-106z" />
<glyph unicode="&#xcd;" horiz-adv-x="314" d="M42 0l148 700h129l-148 -700h-129zM166 786l140 147h167l-196 -147h-111z" />
<glyph unicode="&#xce;" horiz-adv-x="314" d="M42 0l148 700h129l-148 -700h-129zM93 786l146 152h126l83 -152h-110l-50 86l-85 -86h-110z" />
<glyph unicode="&#xcf;" horiz-adv-x="314" d="M42 0l148 700h129l-148 -700h-129zM116 849q6 28 28.5 46.5t50.5 18.5q26 0 40.5 -16.5t10.5 -42.5q-3 -30 -26 -50.5t-52 -20.5q-28 0 -42.5 19t-9.5 46zM326 849q5 28 28 46.5t51 18.5q25 0 39.5 -16.5t11.5 -42.5q-4 -30 -27 -50.5t-52 -20.5q-28 0 -42.5 19t-8.5 46z " />
<glyph unicode="&#xd0;" horiz-adv-x="699" d="M18 274l18 85h83l72 341h165q164 0 246 -69t82 -190q0 -195 -132.5 -318t-343.5 -123h-165l58 274h-83zM194 105h36q138 0 227 87.5t89 234.5q0 168 -212 168h-36l-50 -236h118l-18 -85h-118z" />
<glyph unicode="&#xd1;" horiz-adv-x="779" d="M42 0l149 704h86l278 -477l100 473h129l-149 -704h-86l-278 476l-100 -472h-129zM292 791q13 65 50.5 112t97.5 47q26 0 46.5 -11t31 -25t24.5 -25t29 -11q43 0 60 71h78q-14 -67 -52 -113t-98 -46q-27 0 -47.5 11t-30.5 25t-24.5 25t-30.5 11q-41 0 -56 -71h-78z" />
<glyph unicode="&#xd2;" horiz-adv-x="790" d="M65 285q0 110 48 207t142.5 159.5t214.5 62.5q134 0 216.5 -83.5t82.5 -216.5q0 -110 -48 -206.5t-142.5 -159t-214.5 -62.5q-134 0 -216.5 83t-82.5 216zM201 288q0 -85 44 -138t128 -53q113 0 186 95.5t73 218.5q0 86 -43.5 139t-127.5 53q-112 0 -186 -96t-74 -219z M340 940h162l90 -147h-106z" />
<glyph unicode="&#xd3;" horiz-adv-x="790" d="M65 285q0 110 48 207t142.5 159.5t214.5 62.5q134 0 216.5 -83.5t82.5 -216.5q0 -110 -48 -206.5t-142.5 -159t-214.5 -62.5q-134 0 -216.5 83t-82.5 216zM201 288q0 -85 44 -138t128 -53q113 0 186 95.5t73 218.5q0 86 -43.5 139t-127.5 53q-112 0 -186 -96t-74 -219z M399 793l140 147h167l-196 -147h-111z" />
<glyph unicode="&#xd4;" horiz-adv-x="790" d="M65 285q0 110 48 207t142.5 159.5t214.5 62.5q134 0 216.5 -83.5t82.5 -216.5q0 -110 -48 -206.5t-142.5 -159t-214.5 -62.5q-134 0 -216.5 83t-82.5 216zM201 288q0 -85 44 -138t128 -53q113 0 186 95.5t73 218.5q0 86 -43.5 139t-127.5 53q-112 0 -186 -96t-74 -219z M322 793l146 152h126l83 -152h-110l-50 86l-85 -86h-110z" />
<glyph unicode="&#xd5;" horiz-adv-x="790" d="M65 285q0 110 48 207t142.5 159.5t214.5 62.5q134 0 216.5 -83.5t82.5 -216.5q0 -110 -48 -206.5t-142.5 -159t-214.5 -62.5q-134 0 -216.5 83t-82.5 216zM201 288q0 -85 44 -138t128 -53q113 0 186 95.5t73 218.5q0 86 -43.5 139t-127.5 53q-112 0 -186 -96t-74 -219z M303 800q13 65 50.5 112t97.5 47q26 0 46.5 -11.5t31 -24.5t24.5 -24.5t29 -11.5q43 0 60 71h78q-14 -67 -52 -113t-98 -46q-27 0 -47.5 11.5t-30.5 24.5t-24.5 24.5t-30.5 11.5q-41 0 -56 -71h-78z" />
<glyph unicode="&#xd6;" horiz-adv-x="794" d="M69 285q0 110 48 207t142.5 159.5t214.5 62.5q134 0 216.5 -83.5t82.5 -216.5q0 -110 -48 -206.5t-142.5 -159t-214.5 -62.5q-134 0 -216.5 83t-82.5 216zM205 288q0 -85 44 -138t128 -53q113 0 186 95.5t73 218.5q0 86 -43.5 139t-127.5 53q-112 0 -186 -96t-74 -219z M351 856q6 28 28.5 46.5t50.5 18.5q26 0 40.5 -16.5t10.5 -42.5q-3 -30 -26 -50.5t-52 -20.5q-28 0 -42.5 19t-9.5 46zM561 856q5 28 28 46.5t51 18.5q25 0 39.5 -16.5t11.5 -42.5q-4 -30 -27 -50.5t-52 -20.5q-28 0 -42.5 19t-8.5 46z" />
<glyph unicode="&#xd7;" horiz-adv-x="661" d="M72 88l201 200l-201 201l75 75l201 -201l200 201l75 -75l-200 -201l200 -200l-75 -75l-200 200l-201 -200z" />
<glyph unicode="&#xd8;" horiz-adv-x="790" d="M-10 -14l125 122q-50 75 -50 177q0 110 48 207t142.5 159.5t214.5 62.5q115 0 196 -65l66 65h110l-124 -122q51 -74 51 -178q0 -110 -48 -206.5t-142.5 -159t-214.5 -62.5q-118 0 -197 65l-67 -65h-110zM201 288q0 -47 13 -83l363 357q-46 41 -116 41q-112 0 -186 -96 t-74 -219zM256 138q43 -41 117 -41q113 0 186 95.5t73 218.5q0 48 -13 83z" />
<glyph unicode="&#xd9;" horiz-adv-x="722" d="M88 264l93 436h129l-93 -437q-34 -168 109 -168q71 0 119.5 43t65.5 125l93 437h129l-93 -436q-29 -140 -115.5 -209t-214.5 -69q-125 0 -186.5 77t-35.5 201zM303 933h162l90 -147h-106z" />
<glyph unicode="&#xda;" horiz-adv-x="722" d="M88 264l93 436h129l-93 -437q-34 -168 109 -168q71 0 119.5 43t65.5 125l93 437h129l-93 -436q-29 -140 -115.5 -209t-214.5 -69q-125 0 -186.5 77t-35.5 201zM372 786l140 147h167l-196 -147h-111z" />
<glyph unicode="&#xdb;" horiz-adv-x="722" d="M88 264l93 436h129l-93 -437q-34 -168 109 -168q71 0 119.5 43t65.5 125l93 437h129l-93 -436q-29 -140 -115.5 -209t-214.5 -69q-125 0 -186.5 77t-35.5 201zM290 786l146 152h126l83 -152h-110l-50 86l-85 -86h-110z" />
<glyph unicode="&#xdc;" horiz-adv-x="722" d="M88 264l93 436h129l-93 -437q-34 -168 109 -168q71 0 119.5 43t65.5 125l93 437h129l-93 -436q-29 -140 -115.5 -209t-214.5 -69q-125 0 -186.5 77t-35.5 201zM311 853q6 28 28.5 46.5t50.5 18.5q26 0 40.5 -16.5t10.5 -42.5q-3 -30 -26 -50.5t-52 -20.5q-28 0 -42.5 19 t-9.5 46zM521 853q5 28 28 46.5t51 18.5q25 0 39.5 -16.5t11.5 -42.5q-4 -30 -27 -50.5t-52 -20.5q-28 0 -42.5 19t-8.5 46z" />
<glyph unicode="&#xdd;" horiz-adv-x="554" d="M91 700h135l78 -297l198 297h156l-309 -428l-58 -272h-129l58 272zM320 786l140 147h167l-196 -147h-111z" />
<glyph unicode="&#xde;" horiz-adv-x="602" d="M42 0l148 700h128l-23 -112h82q103 0 158 -46.5t55 -124.5q0 -117 -88.5 -195.5t-219.5 -78.5h-82l-30 -143h-128zM222 248h73q69 0 114 40t45 110q0 85 -109 85h-73z" />
<glyph unicode="&#xdf;" horiz-adv-x="647" d="M35 0l113 533q19 91 89 144t174 53q83 0 135 -40t52 -100q0 -47 -27 -82.5t-59 -52.5t-59 -37.5t-27 -41.5q0 -15 13 -30t32.5 -26.5t42.5 -27.5t42.5 -32.5t32.5 -42t13 -56.5q0 -77 -66 -126t-160 -49q-49 0 -90.5 12.5t-61.5 26.5l21 99q23 -17 64 -31t76 -14 q42 0 67.5 21t25.5 49q0 23 -18.5 42t-45 34t-53 31.5t-45 42t-18.5 58.5q0 43 26.5 74t58 46.5t58 41.5t26.5 60q0 29 -22 44.5t-54 15.5q-40 0 -77 -27.5t-47 -77.5l-113 -534h-119z" />
<glyph unicode="&#xe0;" d="M19 115q0 87 69.5 143.5t174.5 56.5q31 0 78 -11q10 45 10 55v13q0 64 -85 64q-83 0 -149 -30q16 78 22 104q60 24 161 24q77 0 126.5 -38.5t49.5 -108.5q0 -18 -5 -45l-43 -201q-3 -13 -3 -24q0 -32 35 -32l23 5q-6 -33 -17 -82q-2 -2 -10.5 -5t-24.5 -5.5t-32 -2.5 q-86 0 -96 68q-64 -77 -147 -77q-60 0 -98.5 35.5t-38.5 93.5zM145 136q0 -24 15.5 -40t43.5 -16q59 0 103 61l18 85q-33 11 -59 11q-51 0 -86 -28.5t-35 -72.5zM177 760h162l90 -147h-106z" />
<glyph unicode="&#xe1;" d="M19 115q0 87 69.5 143.5t174.5 56.5q31 0 78 -11q10 45 10 55v13q0 64 -85 64q-83 0 -149 -30q16 78 22 104q60 24 161 24q77 0 126.5 -38.5t49.5 -108.5q0 -18 -5 -45l-43 -201q-3 -13 -3 -24q0 -32 35 -32l23 5q-6 -33 -17 -82q-2 -2 -10.5 -5t-24.5 -5.5t-32 -2.5 q-86 0 -96 68q-64 -77 -147 -77q-60 0 -98.5 35.5t-38.5 93.5zM145 136q0 -24 15.5 -40t43.5 -16q59 0 103 61l18 85q-33 11 -59 11q-51 0 -86 -28.5t-35 -72.5zM211 613l140 147h167l-196 -147h-111z" />
<glyph unicode="&#xe2;" d="M19 115q0 87 69.5 143.5t174.5 56.5q31 0 78 -11q10 45 10 55v13q0 64 -85 64q-83 0 -149 -30q16 78 22 104q60 24 161 24q77 0 126.5 -38.5t49.5 -108.5q0 -18 -5 -45l-43 -201q-3 -13 -3 -24q0 -32 35 -32l23 5q-6 -33 -17 -82q-2 -2 -10.5 -5t-24.5 -5.5t-32 -2.5 q-86 0 -96 68q-64 -77 -147 -77q-60 0 -98.5 35.5t-38.5 93.5zM145 136q0 -24 15.5 -40t43.5 -16q59 0 103 61l18 85q-33 11 -59 11q-51 0 -86 -28.5t-35 -72.5zM146 613l146 152h126l83 -152h-110l-50 86l-85 -86h-110z" />
<glyph unicode="&#xe3;" d="M19 115q0 87 69.5 143.5t174.5 56.5q31 0 78 -11q10 45 10 55v13q0 64 -85 64q-83 0 -149 -30q16 78 22 104q60 24 161 24q77 0 126.5 -38.5t49.5 -108.5q0 -18 -5 -45l-43 -201q-3 -13 -3 -24q0 -32 35 -32l23 5q-6 -33 -17 -82q-2 -2 -10.5 -5t-24.5 -5.5t-32 -2.5 q-86 0 -96 68q-64 -77 -147 -77q-60 0 -98.5 35.5t-38.5 93.5zM120 626q13 65 50.5 112t97.5 47q26 0 46.5 -11.5t31 -24.5t24.5 -24.5t29 -11.5q43 0 60 71h78q-14 -67 -52 -113t-98 -46q-27 0 -47.5 11.5t-30.5 24.5t-24.5 24.5t-30.5 11.5q-41 0 -56 -71h-78zM145 136 q0 -24 15.5 -40t43.5 -16q59 0 103 61l18 85q-33 11 -59 11q-51 0 -86 -28.5t-35 -72.5z" />
<glyph unicode="&#xe4;" d="M19 115q0 87 69.5 143.5t174.5 56.5q31 0 78 -11q10 45 10 55v13q0 64 -85 64q-83 0 -149 -30q16 78 22 104q60 24 161 24q77 0 126.5 -38.5t49.5 -108.5q0 -18 -5 -45l-43 -201q-3 -13 -3 -24q0 -32 35 -32l23 5q-6 -33 -17 -82q-2 -2 -10.5 -5t-24.5 -5.5t-32 -2.5 q-86 0 -96 68q-64 -77 -147 -77q-60 0 -98.5 35.5t-38.5 93.5zM145 136q0 -24 15.5 -40t43.5 -16q59 0 103 61l18 85q-33 11 -59 11q-51 0 -86 -28.5t-35 -72.5zM165 677q6 28 28.5 46.5t50.5 18.5q26 0 40.5 -16.5t10.5 -42.5q-3 -30 -26 -50.5t-52 -20.5q-28 0 -42.5 19 t-9.5 46zM375 677q5 28 28 46.5t51 18.5q25 0 39.5 -16.5t11.5 -42.5q-4 -30 -27 -50.5t-52 -20.5q-28 0 -42.5 19t-8.5 46z" />
<glyph unicode="&#xe5;" d="M19 115q0 87 69.5 143.5t174.5 56.5q31 0 78 -11q10 45 10 55v13q0 64 -85 64q-83 0 -149 -30q16 78 22 104q60 24 161 24q77 0 126.5 -38.5t49.5 -108.5q0 -18 -5 -45l-43 -201q-3 -13 -3 -24q0 -32 35 -32l23 5q-6 -33 -17 -82q-2 -2 -10.5 -5t-24.5 -5.5t-32 -2.5 q-86 0 -96 68q-64 -77 -147 -77q-60 0 -98.5 35.5t-38.5 93.5zM145 136q0 -24 15.5 -40t43.5 -16q59 0 103 61l18 85q-33 11 -59 11q-51 0 -86 -28.5t-35 -72.5zM214 686q0 65 46.5 112.5t110.5 47.5q47 0 74.5 -26.5t27.5 -70.5q0 -66 -47 -113.5t-110 -47.5q-46 0 -74 27 t-28 71zM292 709q-3 -24 7.5 -38t30.5 -14q25 0 43 19t21 50q3 23 -7.5 37t-30.5 14q-24 0 -42.5 -19t-21.5 -49z" />
<glyph unicode="&#xe6;" horiz-adv-x="849" d="M19 115q0 87 69.5 143.5t174.5 56.5q31 0 78 -11q11 48 11 66q0 66 -86 66q-83 0 -149 -30q16 78 22 104q60 24 161 24q45 0 86 -17.5t63 -47.5q78 65 179 65q85 0 137.5 -48t52.5 -128q0 -66 -23 -124h-340q-2 -14 -2 -31q0 -120 126 -120q82 0 173 53l-22 -104 q-77 -46 -180 -46q-138 0 -195 98q-93 -98 -199 -98q-60 0 -98.5 35.5t-38.5 93.5zM145 136q0 -24 15.5 -40t43.5 -16q59 0 103 61l18 85q-33 11 -59 11q-51 0 -86 -28.5t-35 -72.5zM472 318h221q4 12 4 39q0 40 -21 61.5t-59 21.5q-48 0 -87 -34t-58 -88z" />
<glyph unicode="&#xe7;" horiz-adv-x="501" d="M44 199q0 90 38.5 165.5t112.5 122.5t169 47q80 0 135 -31l-21 -100q-53 30 -115 30q-83 0 -138 -64t-55 -158q0 -60 32.5 -91.5t92.5 -31.5q59 0 123 34l-23 -108q-55 -25 -119 -28l-41 -48q36 -9 54.5 -33t11.5 -60q-11 -49 -57.5 -76.5t-102.5 -27.5q-11 0 -22 1 t-19.5 3t-15 4t-10.5 3l-3 1l14 68q28 -17 62 -17q22 0 37 11t20 30q3 16 -6 27.5t-29 18t-50 6.5l75 97q-69 18 -109.5 72t-40.5 133z" />
<glyph unicode="&#xe8;" horiz-adv-x="568" d="M44 204q0 137 88 233.5t215 96.5q85 0 137.5 -48t52.5 -128q0 -66 -23 -124h-340q-3 -9 -3 -30q0 -121 127 -121q82 0 173 53l-22 -104q-77 -46 -180 -46q-106 0 -165.5 58.5t-59.5 159.5zM191 318h221q4 12 4 39q0 40 -21 61.5t-59 21.5q-48 0 -87 -34t-58 -88zM214 760 h162l90 -147h-106z" />
<glyph unicode="&#xe9;" horiz-adv-x="568" d="M44 204q0 137 88 233.5t215 96.5q85 0 137.5 -48t52.5 -128q0 -66 -23 -124h-340q-3 -9 -3 -30q0 -121 127 -121q82 0 173 53l-22 -104q-77 -46 -180 -46q-106 0 -165.5 58.5t-59.5 159.5zM191 318h221q4 12 4 39q0 40 -21 61.5t-59 21.5q-48 0 -87 -34t-58 -88zM247 613 l140 147h167l-196 -147h-111z" />
<glyph unicode="&#xea;" horiz-adv-x="568" d="M44 204q0 137 88 233.5t215 96.5q85 0 137.5 -48t52.5 -128q0 -66 -23 -124h-340q-3 -9 -3 -30q0 -121 127 -121q82 0 173 53l-22 -104q-77 -46 -180 -46q-106 0 -165.5 58.5t-59.5 159.5zM180 613l146 152h126l83 -152h-110l-50 86l-85 -86h-110zM191 318h221q4 12 4 39 q0 40 -21 61.5t-59 21.5q-48 0 -87 -34t-58 -88z" />
<glyph unicode="&#xeb;" horiz-adv-x="568" d="M44 204q0 137 88 233.5t215 96.5q85 0 137.5 -48t52.5 -128q0 -66 -23 -124h-340q-3 -9 -3 -30q0 -121 127 -121q82 0 173 53l-22 -104q-77 -46 -180 -46q-106 0 -165.5 58.5t-59.5 159.5zM191 318h221q4 12 4 39q0 40 -21 61.5t-59 21.5q-48 0 -87 -34t-58 -88zM204 677 q6 28 28.5 46.5t50.5 18.5q26 0 40.5 -16.5t10.5 -42.5q-3 -30 -26 -50.5t-52 -20.5q-28 0 -42.5 19t-9.5 46zM414 677q5 28 28 46.5t51 18.5q25 0 39.5 -16.5t11.5 -42.5q-4 -30 -27 -50.5t-52 -20.5q-28 0 -42.5 19t-8.5 46z" />
<glyph unicode="&#xec;" horiz-adv-x="285" d="M31 0l110 520h120l-110 -520h-120zM83 760h162l90 -147h-106z" />
<glyph unicode="&#xed;" horiz-adv-x="285" d="M31 0l110 520h120l-110 -520h-120zM116 613l140 147h167l-196 -147h-111z" />
<glyph unicode="&#xee;" horiz-adv-x="285" d="M31 0l110 520h120l-110 -520h-120zM44 613l146 152h126l83 -152h-110l-50 86l-85 -86h-110z" />
<glyph unicode="&#xef;" horiz-adv-x="285" d="M31 0l110 520h120l-110 -520h-120zM66 677q6 28 28.5 46.5t50.5 18.5q26 0 40.5 -16.5t10.5 -42.5q-3 -30 -26 -50.5t-52 -20.5q-28 0 -42.5 19t-9.5 46zM276 677q5 28 28 46.5t51 18.5q25 0 39.5 -16.5t11.5 -42.5q-4 -30 -27 -50.5t-52 -20.5q-28 0 -42.5 19t-8.5 46z " />
<glyph unicode="&#xf0;" horiz-adv-x="602" d="M47 184q0 124 82.5 215.5t200.5 91.5q73 0 124 -47q-8 64 -45 131l-124 -52l-12 48l110 45q-23 30 -49 52l64 62q43 -33 76 -76l118 50l12 -47l-101 -43q68 -113 68 -247q0 -164 -89 -272.5t-230 -108.5q-94 0 -149.5 55t-55.5 143zM173 191q0 -49 26.5 -78t74.5 -29 q66 0 113.5 61.5t47.5 141.5q0 51 -28 80t-76 29q-71 0 -114.5 -62.5t-43.5 -142.5z" />
<glyph unicode="&#xf1;" horiz-adv-x="608" d="M32 0l82 388q7 34 12.5 67t7.5 49l1 16h112q1 -28 -3 -71q82 85 171 85q88 0 121.5 -57.5t16.5 -137.5l-72 -339h-122l68 321q23 112 -71 112q-61 0 -123 -62l-79 -371h-122zM184 626q13 65 50.5 112t97.5 47q26 0 46.5 -11.5t31 -24.5t24.5 -24.5t29 -11.5q43 0 60 71 h78q-14 -67 -52 -113t-98 -46q-27 0 -47.5 11.5t-30.5 24.5t-24.5 24.5t-30.5 11.5q-41 0 -56 -71h-78z" />
<glyph unicode="&#xf2;" horiz-adv-x="607" d="M44 207q0 131 88.5 229t219.5 98q99 0 158 -61.5t59 -159.5q0 -131 -88 -229t-220 -98q-99 0 -158 61t-59 160zM170 207q0 -59 27.5 -91.5t73.5 -32.5q74 0 122.5 70.5t48.5 159.5q0 58 -27 90.5t-73 32.5q-74 0 -123 -70.5t-49 -158.5zM221 760h162l90 -147h-106z" />
<glyph unicode="&#xf3;" horiz-adv-x="607" d="M44 207q0 131 88.5 229t219.5 98q99 0 158 -61.5t59 -159.5q0 -131 -88 -229t-220 -98q-99 0 -158 61t-59 160zM170 207q0 -59 27.5 -91.5t73.5 -32.5q74 0 122.5 70.5t48.5 159.5q0 58 -27 90.5t-73 32.5q-74 0 -123 -70.5t-49 -158.5zM260 613l140 147h167l-196 -147 h-111z" />
<glyph unicode="&#xf4;" horiz-adv-x="607" d="M44 207q0 131 88.5 229t219.5 98q99 0 158 -61.5t59 -159.5q0 -131 -88 -229t-220 -98q-99 0 -158 61t-59 160zM170 207q0 -59 27.5 -91.5t73.5 -32.5q74 0 122.5 70.5t48.5 159.5q0 58 -27 90.5t-73 32.5q-74 0 -123 -70.5t-49 -158.5zM192 613l146 152h126l83 -152 h-110l-50 86l-85 -86h-110z" />
<glyph unicode="&#xf5;" horiz-adv-x="607" d="M44 207q0 131 88.5 229t219.5 98q99 0 158 -61.5t59 -159.5q0 -131 -88 -229t-220 -98q-99 0 -158 61t-59 160zM170 207q0 -59 27.5 -91.5t73.5 -32.5q74 0 122.5 70.5t48.5 159.5q0 58 -27 90.5t-73 32.5q-74 0 -123 -70.5t-49 -158.5zM181 626q13 65 50.5 112t97.5 47 q26 0 46.5 -11.5t31 -24.5t24.5 -24.5t29 -11.5q43 0 60 71h78q-14 -67 -52 -113t-98 -46q-27 0 -47.5 11.5t-30.5 24.5t-24.5 24.5t-30.5 11.5q-41 0 -56 -71h-78z" />
<glyph unicode="&#xf6;" horiz-adv-x="607" d="M44 207q0 131 88.5 229t219.5 98q99 0 158 -61.5t59 -159.5q0 -131 -88 -229t-220 -98q-99 0 -158 61t-59 160zM170 207q0 -59 27.5 -91.5t73.5 -32.5q74 0 122.5 70.5t48.5 159.5q0 58 -27 90.5t-73 32.5q-74 0 -123 -70.5t-49 -158.5zM218 677q6 28 28.5 46.5 t50.5 18.5q26 0 40.5 -16.5t10.5 -42.5q-3 -30 -26 -50.5t-52 -20.5q-28 0 -42.5 19t-9.5 46zM428 677q5 28 28 46.5t51 18.5q25 0 39.5 -16.5t11.5 -42.5q-4 -30 -27 -50.5t-52 -20.5q-28 0 -42.5 19t-8.5 46z" />
<glyph unicode="&#xf7;" horiz-adv-x="601" d="M65 237v103h501v-103h-501zM230 93q0 34 24.5 56.5t60.5 22.5q37 0 61 -22.5t24 -56.5q0 -35 -24 -57.5t-61 -22.5q-36 0 -60.5 23t-24.5 57zM230 485q0 34 24.5 57t60.5 23q37 0 61 -22.5t24 -57.5t-24 -57.5t-61 -22.5q-36 0 -60.5 23t-24.5 57z" />
<glyph unicode="&#xf8;" horiz-adv-x="606" d="M-15 -14l94 92q-34 53 -34 129q0 131 88 229t220 98q82 0 139 -46l46 46h92l-95 -94q34 -54 34 -127q0 -131 -88 -229t-220 -98q-84 0 -139 44l-45 -44h-92zM171 207q0 -23 3 -35l237 236q-26 28 -69 28q-74 0 -122.5 -70t-48.5 -159zM203 110q25 -27 69 -27 q74 0 122.5 70.5t48.5 159.5q0 12 -4 32z" />
<glyph unicode="&#xf9;" horiz-adv-x="609" d="M66 181l72 339h122l-68 -322q-11 -52 6.5 -82t64.5 -30q34 0 67.5 20t55.5 43l79 371h122l-82 -388q-7 -34 -12.5 -67t-6.5 -49l-2 -16h-112q-1 28 3 70q-84 -84 -171 -84q-88 0 -121.5 57.5t-16.5 137.5zM213 760h162l90 -147h-106z" />
<glyph unicode="&#xfa;" horiz-adv-x="609" d="M66 181l72 339h122l-68 -322q-11 -52 6.5 -82t64.5 -30q34 0 67.5 20t55.5 43l79 371h122l-82 -388q-7 -34 -12.5 -67t-6.5 -49l-2 -16h-112q-1 28 3 70q-84 -84 -171 -84q-88 0 -121.5 57.5t-16.5 137.5zM276 613l140 147h167l-196 -147h-111z" />
<glyph unicode="&#xfb;" horiz-adv-x="609" d="M66 181l72 339h122l-68 -322q-11 -52 6.5 -82t64.5 -30q34 0 67.5 20t55.5 43l79 371h122l-82 -388q-7 -34 -12.5 -67t-6.5 -49l-2 -16h-112q-1 28 3 70q-84 -84 -171 -84q-88 0 -121.5 57.5t-16.5 137.5zM194 613l146 152h126l83 -152h-110l-50 86l-85 -86h-110z" />
<glyph unicode="&#xfc;" horiz-adv-x="609" d="M66 181l72 339h122l-68 -322q-11 -52 6.5 -82t64.5 -30q34 0 67.5 20t55.5 43l79 371h122l-82 -388q-7 -34 -12.5 -67t-6.5 -49l-2 -16h-112q-1 28 3 70q-84 -84 -171 -84q-88 0 -121.5 57.5t-16.5 137.5zM216 677q6 28 28.5 46.5t50.5 18.5q26 0 40.5 -16.5t10.5 -42.5 q-3 -30 -26 -50.5t-52 -20.5q-28 0 -42.5 19t-9.5 46zM426 677q5 28 28 46.5t51 18.5q25 0 39.5 -16.5t11.5 -42.5q-4 -30 -27 -50.5t-52 -20.5q-28 0 -42.5 19t-8.5 46z" />
<glyph unicode="&#xfd;" horiz-adv-x="492" d="M-110 -239l23 107q18 -7 45 -7q98 0 177 141l11 20l-86 498h122l47 -346l178 346h137l-284 -517q-141 -253 -310 -253q-16 0 -31 3t-22 5zM242 613l140 147h167l-196 -147h-111z" />
<glyph unicode="&#xfe;" horiz-adv-x="629" d="M-21 -250q39 188 115 545.5t86 404.5h122l-46 -216q69 50 143 50q90 0 141 -59.5t51 -156.5q0 -136 -92 -234t-241 -98q-53 0 -104 17q-36 -168 -55 -253h-120zM174 100q40 -18 91 -18q84 0 141.5 68t57.5 166q0 57 -28.5 87.5t-78.5 30.5q-37 0 -70.5 -16.5t-52.5 -36.5 z" />
<glyph unicode="&#xff;" horiz-adv-x="492" d="M-110 -239l23 107q18 -7 45 -7q98 0 177 141l11 20l-86 498h122l47 -346l178 346h137l-284 -517q-141 -253 -310 -253q-16 0 -31 3t-22 5zM160 672q6 28 28.5 46.5t50.5 18.5q26 0 40.5 -16.5t10.5 -42.5q-3 -30 -26 -50.5t-52 -20.5q-28 0 -42.5 19t-9.5 46zM370 672 q5 28 28 46.5t51 18.5q25 0 39.5 -16.5t11.5 -42.5q-4 -30 -27 -50.5t-52 -20.5q-28 0 -42.5 19t-8.5 46z" />
<glyph unicode="&#x100;" horiz-adv-x="627" d="M-57 0l425 704h92l127 -704h-129l-20 132h-272l-76 -132h-147zM220 229h204l-43 280zM290 815l19 91h289l-19 -91h-289z" />
<glyph unicode="&#x101;" d="M19 115q0 87 69.5 143.5t174.5 56.5q31 0 78 -11q10 45 10 55v13q0 64 -85 64q-83 0 -149 -30q16 78 22 104q60 24 161 24q77 0 126.5 -38.5t49.5 -108.5q0 -18 -5 -45l-43 -201q-3 -13 -3 -24q0 -32 35 -32l23 5q-6 -33 -17 -82q-2 -2 -10.5 -5t-24.5 -5.5t-32 -2.5 q-86 0 -96 68q-64 -77 -147 -77q-60 0 -98.5 35.5t-38.5 93.5zM145 136q0 -24 15.5 -40t43.5 -16q59 0 103 61l18 85q-33 11 -59 11q-51 0 -86 -28.5t-35 -72.5zM180 643l19 91h289l-19 -91h-289z" />
<glyph unicode="&#x102;" horiz-adv-x="629" d="M-56 0l425 704h92l127 -704h-129l-20 132h-272l-76 -132h-147zM221 229h204l-43 280zM289 926q0 22 4 41h88q0 -48 11.5 -70.5t47.5 -22.5q37 0 59 23t39 70h89q-21 -79 -73.5 -128t-131.5 -49q-68 0 -100.5 36.5t-32.5 99.5z" />
<glyph unicode="&#x103;" d="M19 115q0 87 69.5 143.5t174.5 56.5q31 0 78 -11q10 45 10 55v13q0 64 -85 64q-83 0 -149 -30q16 78 22 104q60 24 161 24q77 0 126.5 -38.5t49.5 -108.5q0 -18 -5 -45l-43 -201q-3 -13 -3 -24q0 -32 35 -32l23 5q-6 -33 -17 -82q-2 -2 -10.5 -5t-24.5 -5.5t-32 -2.5 q-86 0 -96 68q-64 -77 -147 -77q-60 0 -98.5 35.5t-38.5 93.5zM145 136q0 -24 15.5 -40t43.5 -16q59 0 103 61l18 85q-33 11 -59 11q-51 0 -86 -28.5t-35 -72.5zM190 753q0 22 4 41h88q0 -48 11.5 -70.5t47.5 -22.5q37 0 59 23t39 70h89q-21 -79 -73.5 -128t-131.5 -49 q-68 0 -100.5 36.5t-32.5 99.5z" />
<glyph unicode="&#x104;" horiz-adv-x="627" d="M-57 0l425 704h92l127 -704q-9 -8 -21.5 -20.5t-37 -46.5t-29.5 -60q-6 -30 8.5 -43.5t35.5 -13.5q14 0 29 4t23 8l8 3l-15 -74q-34 -21 -98 -21q-50 0 -77 24t-22 72q7 53 42.5 98t70.5 70h-46l-20 132h-272l-76 -132h-147zM220 229h204l-43 280z" />
<glyph unicode="&#x105;" d="M19 115q0 87 69.5 143.5t174.5 56.5q31 0 78 -11q10 45 10 55v13q0 64 -85 64q-83 0 -149 -30q16 78 22 104q60 24 161 24q77 0 126.5 -38.5t49.5 -108.5q0 -18 -5 -45l-43 -201q-3 -13 -3 -24q0 -32 35 -32l23 5q-6 -33 -17 -82q-9 -8 -21.5 -20.5t-37 -46.5t-29.5 -60 q-6 -30 8.5 -43.5t35.5 -13.5q14 0 29 4t23 8l8 3l-15 -74q-34 -21 -98 -21q-50 0 -77 24t-22 72q6 47 35.5 88t64.5 70q-59 11 -67 65q-64 -77 -147 -77q-60 0 -98.5 35.5t-38.5 93.5zM145 136q0 -24 15.5 -40t43.5 -16q59 0 103 61l18 85q-33 11 -59 11q-51 0 -86 -28.5 t-35 -72.5z" />
<glyph unicode="&#x106;" horiz-adv-x="619" d="M61 266q0 84 30.5 164.5t84.5 143.5t135 101.5t174 38.5q102 0 174 -47l-27 -116q-69 50 -160 50q-112 0 -193 -94.5t-81 -228.5q0 -86 41.5 -133t122.5 -47q95 0 187 60l-25 -127q-77 -45 -193 -45q-121 0 -195.5 79.5t-74.5 200.5zM357 793l140 147h167l-196 -147h-111 z" />
<glyph unicode="&#x107;" horiz-adv-x="501" d="M44 199q0 138 88.5 236.5t231.5 98.5q80 0 135 -31l-21 -100q-53 30 -115 30q-83 0 -138 -64t-55 -158q0 -60 32.5 -91.5t92.5 -31.5q59 0 123 34l-23 -108q-62 -28 -133 -28q-98 0 -158 57.5t-60 155.5zM247 613l140 147h167l-196 -147h-111z" />
<glyph unicode="&#x10c;" horiz-adv-x="619" d="M61 266q0 84 30.5 164.5t84.5 143.5t135 101.5t174 38.5q102 0 174 -47l-27 -116q-69 50 -160 50q-112 0 -193 -94.5t-81 -228.5q0 -86 41.5 -133t122.5 -47q95 0 187 60l-25 -127q-77 -45 -193 -45q-121 0 -195.5 79.5t-74.5 200.5zM312 945h110l49 -86l86 86h110 l-147 -152h-126z" />
<glyph unicode="&#x10d;" horiz-adv-x="501" d="M44 199q0 138 88.5 236.5t231.5 98.5q80 0 135 -31l-21 -100q-53 30 -115 30q-83 0 -138 -64t-55 -158q0 -60 32.5 -91.5t92.5 -31.5q59 0 123 34l-23 -108q-62 -28 -133 -28q-98 0 -158 57.5t-60 155.5zM197 765h110l49 -86l86 86h110l-147 -152h-126z" />
<glyph unicode="&#x10e;" horiz-adv-x="698" d="M42 0l148 700h166q163 0 245 -72.5t82 -196.5q0 -192 -129 -311.5t-346 -119.5h-166zM193 105h36q135 0 225.5 88t90.5 234q0 168 -212 168h-36zM283 938h110l49 -86l86 86h110l-147 -152h-126z" />
<glyph unicode="&#x10f;" horiz-adv-x="809" d="M44 201q0 136 92 234.5t241 98.5q59 0 104 -18q33 158 46 214h122l-127 -598q-8 -35 -13 -67.5t-7 -48.5t-1 -16h-99q-1 15 -1 36v17q-75 -67 -165 -67t-141 59.5t-51 155.5zM171 203q0 -57 28.5 -87.5t78.5 -30.5q37 0 70.5 16.5t52.5 36.5l60 282q-40 18 -91 18 q-84 0 -141.5 -68.5t-57.5 -166.5zM684 428q82 60 101 117q-32 2 -49.5 23.5t-13.5 53.5q4 39 34.5 65.5t69.5 26.5q31 0 50 -19t19 -54q0 -67 -52 -135.5t-129 -119.5z" />
<glyph unicode="&#x110;" horiz-adv-x="699" d="M18 274l18 85h83l72 341h165q179 0 259 -82t63 -225q-17 -177 -144.5 -285t-325.5 -108h-165l58 274h-83zM193 105h37q133 0 215.5 73.5t96.5 203.5q27 213 -208 213h-37l-50 -236h119l-18 -85h-119z" />
<glyph unicode="&#x111;" horiz-adv-x="634" d="M48 226q13 123 96 215.5t199 92.5q85 0 138 -55l20 96h-145l18 83h145l15 72h120l-15 -72h69l-18 -83h-69l-94 -443q-7 -34 -12.5 -67t-6.5 -49l-2 -16h-97l-1 57q-81 -71 -182 -71q-93 0 -141.5 67t-36.5 173zM173 237q-9 -70 20 -109.5t87 -39.5q64 0 128 48l53 251 q-40 49 -105 49q-73 0 -123.5 -57t-59.5 -142z" />
<glyph unicode="&#x112;" horiz-adv-x="556" d="M55 0l148 700h401l-22 -105h-272l-37 -175h232l-22 -105h-232l-45 -210h272l-22 -105h-401zM266 821l19 91h289l-19 -91h-289z" />
<glyph unicode="&#x113;" horiz-adv-x="568" d="M44 204q0 137 88 233.5t215 96.5q85 0 137.5 -48t52.5 -128q0 -66 -23 -124h-340q-3 -9 -3 -30q0 -121 127 -121q82 0 173 53l-22 -104q-77 -46 -180 -46q-106 0 -165.5 58.5t-59.5 159.5zM191 318h221q4 12 4 39q0 40 -21 61.5t-59 21.5q-48 0 -87 -34t-58 -88zM219 643 l19 91h289l-19 -91h-289z" />
<glyph unicode="&#x116;" horiz-adv-x="556" d="M55 0l148 700h401l-22 -105h-272l-37 -175h232l-22 -105h-232l-45 -210h272l-22 -105h-401zM342 860q4 36 32 61t65 25q31 0 49 -19.5t14 -49.5q-4 -36 -32.5 -61.5t-64.5 -25.5q-31 0 -49 19.5t-14 50.5z" />
<glyph unicode="&#x117;" horiz-adv-x="568" d="M44 204q0 137 88 233.5t215 96.5q85 0 137.5 -48t52.5 -128q0 -66 -23 -124h-340q-3 -9 -3 -30q0 -121 127 -121q82 0 173 53l-22 -104q-77 -46 -180 -46q-106 0 -165.5 58.5t-59.5 159.5zM191 318h221q4 12 4 39q0 40 -21 61.5t-59 21.5q-48 0 -87 -34t-58 -88zM298 682 q4 36 32 61t65 25q31 0 49 -19.5t14 -49.5q-4 -36 -32.5 -61.5t-64.5 -25.5q-31 0 -49 19.5t-14 50.5z" />
<glyph unicode="&#x118;" horiz-adv-x="556" d="M55 0l148 700h401l-22 -105h-272l-37 -175h232l-22 -105h-232l-45 -210h272l-22 -105h-13q-9 -8 -21.5 -20.5t-37 -46.5t-29.5 -60q-6 -30 8.5 -43.5t35.5 -13.5q14 0 29 4t23 8l8 3l-15 -74q-34 -21 -98 -21q-50 0 -77 24t-22 72q7 53 42.5 98t70.5 70h-305z" />
<glyph unicode="&#x119;" horiz-adv-x="568" d="M44 204q0 89 39.5 165t109.5 120.5t154 44.5q85 0 137.5 -48t52.5 -128q0 -67 -23 -124h-340q-3 -9 -3 -30q0 -121 127 -121q82 0 173 53l-22 -104q-42 -25 -97 -37q-72 -69 -83 -122q-4 -21 3 -34.5t17.5 -18t23.5 -4.5q9 0 18 1.5t16.5 4l13.5 4.5l9 3l3 2l-15 -74 q-34 -21 -98 -21q-50 0 -77 24t-22 72q10 81 96 154q-101 4 -157 62.5t-56 155.5zM191 318h221q4 12 4 39q0 26 -9.5 45t-27.5 28.5t-43 9.5q-32 0 -61 -16t-50.5 -43.5t-33.5 -62.5z" />
<glyph unicode="&#x11a;" horiz-adv-x="556" d="M55 0l148 700h401l-22 -105h-272l-37 -175h232l-22 -105h-232l-45 -210h272l-22 -105h-401zM253 938h110l49 -86l86 86h110l-147 -152h-126z" />
<glyph unicode="&#x11b;" horiz-adv-x="568" d="M44 204q0 137 88 233.5t215 96.5q85 0 137.5 -48t52.5 -128q0 -66 -23 -124h-340q-3 -9 -3 -30q0 -121 127 -121q82 0 173 53l-22 -104q-77 -46 -180 -46q-106 0 -165.5 58.5t-59.5 159.5zM191 318h221q4 12 4 39q0 40 -21 61.5t-59 21.5q-48 0 -87 -34t-58 -88zM205 765 h110l49 -86l86 86h110l-147 -152h-126z" />
<glyph unicode="&#x11e;" horiz-adv-x="686" d="M61 265q0 117 53 219t153.5 166t227.5 64q110 0 194 -46l-25 -112q-85 46 -182 46q-119 0 -201.5 -94t-82.5 -227q0 -89 44.5 -136.5t133.5 -47.5q42 0 83 13l31 144h-97l21 98h226l-68 -320q-92 -46 -215 -46q-137 0 -216.5 77t-79.5 202zM341 934q0 22 4 41h88 q0 -48 11.5 -70.5t47.5 -22.5q37 0 59 23t39 70h89q-21 -79 -73.5 -128t-131.5 -49q-68 0 -100.5 36.5t-32.5 99.5z" />
<glyph unicode="&#x11f;" horiz-adv-x="623" d="M-8 -191l23 107q71 -68 173 -68q70 0 118 39.5t63 112.5l9 43q-66 -42 -137 -42q-92 0 -144.5 58.5t-52.5 154.5q0 132 93.5 226t242.5 94q62 0 120 -17.5t92 -37.5l-100 -474q-27 -126 -109 -190.5t-207 -64.5q-64 0 -112.5 19t-71.5 40zM171 216q0 -57 29.5 -88.5 t79.5 -31.5q63 0 119 45l59 273q-36 19 -91 19q-87 0 -141.5 -64.5t-54.5 -152.5zM254 753q0 22 4 41h88q0 -48 11.5 -70.5t47.5 -22.5q37 0 59 23t39 70h89q-21 -79 -73.5 -128t-131.5 -49q-68 0 -100.5 36.5t-32.5 99.5z" />
<glyph unicode="&#x122;" horiz-adv-x="686" d="M61 265q0 117 53 219t153.5 166t227.5 64q110 0 194 -46l-25 -112q-85 46 -182 46q-119 0 -201.5 -94t-82.5 -227q0 -89 44.5 -136.5t133.5 -47.5q42 0 83 13l31 144h-97l21 98h226l-68 -320q-92 -46 -215 -46q-137 0 -216.5 77t-79.5 202zM207 -382q37 27 64.5 59 t35.5 58q-30 2 -48 22.5t-14 50.5q3 39 32.5 67.5t69.5 28.5q35 0 55.5 -23.5t15.5 -64.5q-5 -65 -55.5 -128t-124.5 -112z" />
<glyph unicode="&#x123;" horiz-adv-x="623" d="M-8 -191l23 107q71 -68 173 -68q70 0 118 39.5t63 112.5l9 43q-66 -42 -137 -42q-92 0 -144.5 58.5t-52.5 154.5q0 132 93.5 226t242.5 94q62 0 120 -17.5t92 -37.5l-100 -474q-27 -126 -109 -190.5t-207 -64.5q-64 0 -112.5 19t-71.5 40zM171 216q0 -57 29.5 -88.5 t79.5 -31.5q63 0 119 45l59 273q-36 19 -91 19q-87 0 -141.5 -64.5t-54.5 -152.5zM317 693q0 67 52 135.5t129 120.5l31 -43q-84 -60 -101 -116q32 -2 49 -24t13 -54q-4 -38 -34.5 -64.5t-69.5 -26.5q-32 0 -50.5 18.5t-18.5 53.5z" />
<glyph unicode="&#x12a;" horiz-adv-x="314" d="M42 0l148 700h129l-148 -700h-129zM130 821l19 91h289l-19 -91h-289z" />
<glyph unicode="&#x12b;" horiz-adv-x="286" d="M31 0l110 520h120l-110 -520h-120zM79 643l19 91h289l-19 -91h-289z" />
<glyph unicode="&#x12e;" horiz-adv-x="314" d="M-26 -168q7 53 42.5 98t70.5 70h-45l148 700h129l-148 -700h-1q-9 -8 -21.5 -20.5t-37 -46.5t-29.5 -60q-6 -30 8.5 -43.5t35.5 -13.5q14 0 29 4t23 8l8 3l-15 -74q-34 -21 -98 -21q-50 0 -77 24t-22 72z" />
<glyph unicode="&#x12f;" horiz-adv-x="287" d="M-43 -168q7 53 42.5 98t70.5 70h-39l110 520h122l-110 -520q-9 -8 -21.5 -20.5t-37 -46.5t-29.5 -60q-6 -30 8.5 -43.5t35.5 -13.5q14 0 29 4t23 8l8 3l-15 -74q-34 -21 -98 -21q-50 0 -77 24t-22 72zM161 652q0 35 26 57.5t60 22.5q27 0 43 -14t16 -37q0 -35 -26 -57.5 t-61 -22.5q-27 0 -42.5 13.5t-15.5 37.5z" />
<glyph unicode="&#x130;" horiz-adv-x="313" d="M28 0l148 700h129l-148 -700h-129zM197 865q4 36 32 61t65 25q31 0 49 -19.5t14 -49.5q-4 -36 -32.5 -61.5t-64.5 -25.5q-31 0 -49 19.5t-14 50.5z" />
<glyph unicode="&#x131;" horiz-adv-x="285" d="M31 0l110 520h120l-110 -520h-120z" />
<glyph unicode="&#x136;" horiz-adv-x="644" d="M42 0l148 700h129l-70 -331l323 331h162l-319 -323l178 -377h-140l-133 301l-104 -89l-45 -212h-129zM157 -356q37 27 64.5 59t35.5 58q-30 2 -48 22.5t-14 50.5q3 39 32.5 67.5t69.5 28.5q35 0 55.5 -23.5t15.5 -64.5q-5 -65 -55.5 -128t-124.5 -112z" />
<glyph unicode="&#x137;" horiz-adv-x="536" d="M32 0l155 730h122l-94 -442l218 232h151l-225 -221l134 -299h-135l-84 223l-88 -70l-32 -153h-122zM109 -361q37 27 64.5 59t35.5 58q-30 2 -48 22.5t-14 50.5q3 39 32.5 67.5t69.5 28.5q35 0 55.5 -23.5t15.5 -64.5q-5 -65 -55.5 -128t-124.5 -112z" />
<glyph unicode="&#x139;" horiz-adv-x="497" d="M42 0l148 700h129l-126 -595h272l-22 -105h-401zM228 786l140 147h167l-196 -147h-111z" />
<glyph unicode="&#x13a;" horiz-adv-x="317" d="M60 154l123 576h122l-121 -570q-9 -39 0.5 -55.5t44.5 -16.5q23 0 47 8l-22 -101q-31 -9 -67 -9q-78 0 -111 45t-16 123zM191 811l140 147h167l-196 -147h-111z" />
<glyph unicode="&#x13b;" horiz-adv-x="497" d="M42 0l148 700h129l-126 -595h272l-22 -105h-401zM102 -386q37 27 64.5 59t35.5 58q-30 2 -48 22.5t-14 50.5q3 39 32.5 67.5t69.5 28.5q35 0 55.5 -23.5t15.5 -64.5q-5 -65 -55.5 -128t-124.5 -112z" />
<glyph unicode="&#x13c;" horiz-adv-x="317" d="M1 -383q37 27 64.5 59t35.5 58q-30 2 -48 22.5t-14 50.5q3 39 32.5 67.5t69.5 28.5q35 0 55.5 -23.5t15.5 -64.5q-5 -65 -55.5 -128t-124.5 -112zM60 154l123 576h122l-121 -570q-9 -39 0.5 -55.5t44.5 -16.5q23 0 47 8l-22 -101q-31 -9 -67 -9q-78 0 -111 45t-16 123z " />
<glyph unicode="&#x13d;" horiz-adv-x="513" d="M42 0l148 700h129l-126 -595h272l-22 -105h-401zM349 428q82 60 101 117q-32 2 -49.5 23.5t-13.5 53.5q4 39 34.5 65.5t69.5 26.5q31 0 50 -19t19 -54q0 -67 -52 -135.5t-129 -119.5z" />
<glyph unicode="&#x13e;" horiz-adv-x="486" d="M60 154l123 576h122l-121 -570q-9 -39 0.5 -55.5t44.5 -16.5q23 0 47 8l-22 -101q-31 -9 -67 -9q-78 0 -111 45t-16 123zM341 428q82 60 101 117q-32 2 -49.5 23.5t-13.5 53.5q4 39 34.5 65.5t69.5 26.5q31 0 50 -19t19 -54q0 -67 -52 -135.5t-129 -119.5z" />
<glyph unicode="&#x141;" horiz-adv-x="499" d="M4 209l21 98l92 40l75 353h129l-62 -293l146 64l-20 -98l-147 -64l-43 -204h272l-22 -105h-401l52 249z" />
<glyph unicode="&#x142;" horiz-adv-x="327" d="M-5 211l21 98l86 38l82 383h122l-69 -323l126 57l-20 -98l-127 -57l-32 -149q-8 -38 2.5 -55t44.5 -17q12 0 24.5 2t18.5 4l7 3l-21 -101q-37 -10 -77 -10q-157 0 -120 178l18 86z" />
<glyph unicode="&#x143;" horiz-adv-x="779" d="M42 0l149 704h86l278 -477l100 473h129l-149 -704h-86l-278 476l-100 -472h-129zM411 780l140 147h167l-196 -147h-111z" />
<glyph unicode="&#x144;" horiz-adv-x="608" d="M32 0l82 388q7 34 12.5 67t7.5 49l1 16h112q1 -28 -3 -71q82 85 171 85q88 0 121.5 -57.5t16.5 -137.5l-72 -339h-122l68 321q23 112 -71 112q-61 0 -123 -62l-79 -371h-122zM277 613l140 147h167l-196 -147h-111z" />
<glyph unicode="&#x145;" horiz-adv-x="779" d="M42 0l149 704h86l278 -477l100 473h129l-149 -704h-86l-278 476l-100 -472h-129zM207 -371q37 27 64.5 59t35.5 58q-30 2 -48 22.5t-14 50.5q3 39 32.5 67.5t69.5 28.5q35 0 55.5 -23.5t15.5 -64.5q-5 -65 -55.5 -128t-124.5 -112z" />
<glyph unicode="&#x146;" horiz-adv-x="608" d="M32 0l82 388q7 34 12.5 67t7.5 49l1 16h112q1 -28 -3 -71q82 85 171 85q88 0 121.5 -57.5t16.5 -137.5l-72 -339h-122l68 321q23 112 -71 112q-61 0 -123 -62l-79 -371h-122zM111 -371q37 27 64.5 59t35.5 58q-30 2 -48 22.5t-14 50.5q3 39 32.5 67.5t69.5 28.5 q35 0 55.5 -23.5t15.5 -64.5q-5 -65 -55.5 -128t-124.5 -112z" />
<glyph unicode="&#x147;" horiz-adv-x="779" d="M42 0l149 704h86l278 -477l100 473h129l-149 -704h-86l-278 476l-100 -472h-129zM353 938h110l49 -86l86 86h110l-147 -152h-126z" />
<glyph unicode="&#x148;" horiz-adv-x="608" d="M32 0l82 388q7 34 12.5 67t7.5 49l1 16h112q1 -28 -3 -71q82 85 171 85q88 0 121.5 -57.5t16.5 -137.5l-72 -339h-122l68 321q23 112 -71 112q-61 0 -123 -62l-79 -371h-122zM232 765h110l49 -86l86 86h110l-147 -152h-126z" />
<glyph unicode="&#x14c;" horiz-adv-x="790" d="M65 285q0 110 48 207t142.5 159.5t214.5 62.5q134 0 216.5 -83.5t82.5 -216.5q0 -110 -48 -206.5t-142.5 -159t-214.5 -62.5q-134 0 -216.5 83t-82.5 216zM201 288q0 -85 44 -138t128 -53q113 0 186 95.5t73 218.5q0 86 -43.5 139t-127.5 53q-112 0 -186 -96t-74 -219z M361 823l19 91h289l-19 -91h-289z" />
<glyph unicode="&#x14d;" horiz-adv-x="607" d="M44 207q0 131 88.5 229t219.5 98q99 0 158 -61.5t59 -159.5q0 -131 -88 -229t-220 -98q-99 0 -158 61t-59 160zM170 207q0 -59 27.5 -91.5t73.5 -32.5q74 0 122.5 70.5t48.5 159.5q0 58 -27 90.5t-73 32.5q-74 0 -123 -70.5t-49 -158.5zM232 643l19 91h289l-19 -91h-289z " />
<glyph unicode="&#x150;" horiz-adv-x="790" d="M65 285q0 110 48 207t142.5 159.5t214.5 62.5q134 0 216.5 -83.5t82.5 -216.5q0 -110 -48 -206.5t-142.5 -159t-214.5 -62.5q-134 0 -216.5 83t-82.5 216zM201 288q0 -85 44 -138t128 -53q113 0 186 95.5t73 218.5q0 86 -43.5 139t-127.5 53q-112 0 -186 -96t-74 -219z M282 793l140 147h164l-195 -147h-109zM495 793l140 147h164l-195 -147h-109z" />
<glyph unicode="&#x151;" horiz-adv-x="607" d="M44 207q0 131 88.5 229t219.5 98q99 0 158 -61.5t59 -159.5q0 -131 -88 -229t-220 -98q-99 0 -158 61t-59 160zM162 613l140 147h164l-195 -147h-109zM170 207q0 -59 27.5 -91.5t73.5 -32.5q74 0 122.5 70.5t48.5 159.5q0 58 -27 90.5t-73 32.5q-74 0 -123 -70.5 t-49 -158.5zM375 613l140 147h164l-195 -147h-109z" />
<glyph unicode="&#x152;" horiz-adv-x="935" d="M65 285q0 110 48 207t142.5 159.5t214.5 62.5q52 0 99 -14h402l-22 -105h-272l-37 -175h232l-23 -105h-232l-44 -210h272l-22 -105h-352q-51 -14 -107 -14q-134 0 -216.5 83t-82.5 216zM201 288q0 -85 44 -138t128 -53q38 0 71 12l100 475q-36 19 -83 19q-112 0 -186 -96 t-74 -219z" />
<glyph unicode="&#x153;" horiz-adv-x="958" d="M44 207q0 131 88.5 229t219.5 98q120 0 178 -89q86 89 207 89q85 0 137.5 -48t52.5 -128q0 -66 -23 -124h-308q-12 0 -23.5 -10.5t-11.5 -24.5q0 -116 127 -116q82 0 173 53l-22 -104q-77 -46 -180 -46q-131 0 -189 89q-86 -89 -209 -89q-99 0 -158 61t-59 160zM170 207 q0 -59 27.5 -91.5t73.5 -32.5q74 0 122.5 70.5t48.5 159.5q0 58 -27 90.5t-73 32.5q-74 0 -123 -70.5t-49 -158.5zM581 318h221q4 12 4 39q0 40 -21 61.5t-59 21.5q-48 0 -87 -34t-58 -88z" />
<glyph unicode="&#x154;" horiz-adv-x="634" d="M42 0l148 700h209q101 0 156 -48.5t55 -128.5q0 -76 -44.5 -139.5t-116.5 -96.5l134 -287h-141l-111 257h-106l-54 -257h-129zM248 362h68q67 0 112 39t45 108q0 86 -108 86h-68zM304 786l140 147h167l-196 -147h-111z" />
<glyph unicode="&#x155;" horiz-adv-x="396" d="M32 0l82 388q7 34 12.5 67t7.5 49l1 16h112q1 -39 -5 -81h2q73 95 155 95q13 0 24.5 -3t16.5 -5l6 -3l-24 -114q-24 11 -66 11q-32 0 -63 -13t-46 -26l-15 -13l-78 -368h-122zM203 613l140 147h167l-196 -147h-111z" />
<glyph unicode="&#x156;" horiz-adv-x="634" d="M42 0l148 700h209q101 0 156 -48.5t55 -128.5q0 -76 -44.5 -139.5t-116.5 -96.5l134 -287h-141l-111 257h-106l-54 -257h-129zM137 -371q37 27 64.5 59t35.5 58q-30 2 -48 22.5t-14 50.5q3 39 32.5 67.5t69.5 28.5q35 0 55.5 -23.5t15.5 -64.5q-5 -65 -55.5 -128 t-124.5 -112zM248 362h68q67 0 112 39t45 108q0 86 -108 86h-68z" />
<glyph unicode="&#x157;" horiz-adv-x="396" d="M14 -376q37 27 64.5 59t35.5 58q-30 2 -48 22.5t-14 50.5q3 39 32.5 67.5t69.5 28.5q35 0 55.5 -23.5t15.5 -64.5q-5 -65 -55.5 -128t-124.5 -112zM32 0l82 388q7 34 12.5 67t7.5 49l1 16h112q1 -39 -5 -81h2q73 95 155 95q13 0 24.5 -3t16.5 -5l6 -3l-24 -114 q-24 11 -66 11q-32 0 -63 -13t-46 -26l-15 -13l-78 -368h-122z" />
<glyph unicode="&#x158;" horiz-adv-x="634" d="M42 0l148 700h209q101 0 156 -48.5t55 -128.5q0 -76 -44.5 -139.5t-116.5 -96.5l134 -287h-141l-111 257h-106l-54 -257h-129zM248 362h68q67 0 112 39t45 108q0 86 -108 86h-68zM254 938h110l49 -86l86 86h110l-147 -152h-126z" />
<glyph unicode="&#x159;" horiz-adv-x="396" d="M32 0l82 388q7 34 12.5 67t7.5 49l1 16h112q1 -39 -5 -81h2q73 95 155 95q13 0 24.5 -3t16.5 -5l6 -3l-24 -114q-24 11 -66 11q-32 0 -63 -13t-46 -26l-15 -13l-78 -368h-122zM139 765h110l49 -86l86 86h110l-147 -152h-126z" />
<glyph unicode="&#x15a;" horiz-adv-x="522" d="M3 33l25 114q81 -50 165 -50q52 0 89.5 26t37.5 74q0 31 -21.5 58.5t-52 50.5t-61 48.5t-52 64t-21.5 86.5q0 96 68.5 152.5t176.5 56.5q106 0 171 -40l-24 -115q-73 46 -150 46q-47 0 -77 -24t-30 -63q0 -30 21.5 -57t51.5 -50t60.5 -49.5t52 -66.5t21.5 -90 q0 -100 -74.5 -159.5t-187.5 -59.5q-60 0 -111 15t-78 32zM274 793l140 147h167l-196 -147h-111z" />
<glyph unicode="&#x15b;" horiz-adv-x="448" d="M8 28l22 100q24 -18 62.5 -32t74.5 -14q38 0 65.5 16.5t27.5 47.5q0 22 -18 41t-44 35t-52 35t-44 49t-18 68q0 73 57 116.5t141 43.5q93 0 149 -35l-22 -101q-53 40 -118 40q-38 0 -59.5 -16t-21.5 -41q0 -24 27.5 -48t60 -43t60 -55t27.5 -81q0 -76 -60 -122t-146 -46 q-53 0 -101.5 13t-69.5 29zM208 613l140 147h167l-196 -147h-111z" />
<glyph unicode="&#x15e;" horiz-adv-x="522" d="M3 33l25 114q81 -50 165 -50q24 0 46.5 6t40.5 18t29 31.5t11 44.5q0 27 -15.5 51t-38.5 41.5t-50 40t-50 44.5t-38.5 56t-15.5 75q0 64 32 112t87 72.5t126 24.5q52 0 98.5 -12t72.5 -28l-24 -115q-73 46 -150 46q-47 0 -77 -24t-30 -63q0 -22 11.5 -42.5t29.5 -37 t40.5 -33.5t44.5 -36.5t40 -42t29.5 -54t11.5 -67.5q0 -84 -53 -140t-140 -73l-46 -54q36 -9 54.5 -33t11.5 -60q-11 -49 -57.5 -76.5t-102.5 -27.5q-17 0 -34.5 3t-26.5 6l-9 3l14 68q28 -17 62 -17q22 0 37 11t20 30q3 16 -6 27.5t-29 18t-50 6.5l70 90q-54 3 -98 17 t-68 29z" />
<glyph unicode="&#x15f;" horiz-adv-x="448" d="M8 28l22 100q24 -18 62.5 -32t74.5 -14q38 0 65.5 16.5t27.5 47.5q0 19 -13 35.5t-32.5 28.5t-42.5 28.5t-42.5 33t-32.5 43.5t-13 59q0 73 57 116.5t141 43.5q48 0 87.5 -10.5t61.5 -24.5l-22 -101q-21 16 -54 28t-64 12q-38 0 -59.5 -16t-21.5 -41q0 -20 18 -38.5 t44 -35.5t51.5 -36t43.5 -49.5t18 -67.5q0 -62 -41 -105t-107 -57l-45 -54q36 -9 54.5 -33t11.5 -60q-11 -49 -57.5 -76.5t-102.5 -27.5q-17 0 -34.5 3t-26.5 6l-9 3l14 68q28 -17 62 -17q22 0 37 11t20 30q3 16 -6 27.5t-29 18t-50 6.5l70 90q-44 4 -82.5 16t-55.5 25z" />
<glyph unicode="&#x160;" horiz-adv-x="522" d="M3 33l25 114q81 -50 165 -50q52 0 89.5 26t37.5 74q0 31 -21.5 58.5t-52 50.5t-61 48.5t-52 64t-21.5 86.5q0 96 68.5 152.5t176.5 56.5q106 0 171 -40l-24 -115q-73 46 -150 46q-47 0 -77 -24t-30 -63q0 -30 21.5 -57t51.5 -50t60.5 -49.5t52 -66.5t21.5 -90 q0 -100 -74.5 -159.5t-187.5 -59.5q-60 0 -111 15t-78 32zM214 945h110l49 -86l86 86h110l-147 -152h-126z" />
<glyph unicode="&#x161;" horiz-adv-x="448" d="M8 28l22 100q24 -18 62.5 -32t74.5 -14q38 0 65.5 16.5t27.5 47.5q0 22 -18 41t-44 35t-52 35t-44 49t-18 68q0 73 57 116.5t141 43.5q93 0 149 -35l-22 -101q-53 40 -118 40q-38 0 -59.5 -16t-21.5 -41q0 -24 27.5 -48t60 -43t60 -55t27.5 -81q0 -76 -60 -122t-146 -46 q-53 0 -101.5 13t-69.5 29zM149 765h110l49 -86l86 86h110l-147 -152h-126z" />
<glyph unicode="&#x162;" horiz-adv-x="543" d="M72 -247l14 68q28 -17 62 -17q47 0 57 41q5 24 -18 38t-67 14l80 103h-41l126 595h-200l22 105h530l-22 -105h-201l-126 -595l-52 -62q36 -9 54.5 -33t11.5 -60q-11 -49 -57.5 -76.5t-102.5 -27.5q-17 0 -34.5 3t-26.5 6z" />
<glyph unicode="&#x163;" horiz-adv-x="366" d="M61 423l21 97h79l25 117l128 25l-31 -142h110l-20 -97h-110l-56 -261q-15 -73 44 -73q13 0 27 2.5t21 4.5l8 2l-21 -101l-52 -62q36 -9 54.5 -33t11.5 -60q-11 -49 -57.5 -76.5t-102.5 -27.5q-17 0 -34.5 3t-26.5 6l-9 3l14 68q28 -17 62 -17q22 0 37 11t20 30 q3 16 -6 27.5t-29 18t-50 6.5l72 93q-71 5 -96.5 52t-7.5 125l55 259h-80z" />
<glyph unicode="&#x164;" horiz-adv-x="543" d="M85 595l22 105h530l-22 -105h-201l-126 -595h-129l126 595h-200zM235 938h110l49 -86l86 86h110l-147 -152h-126z" />
<glyph unicode="&#x165;" horiz-adv-x="399" d="M61 423l21 97h79l25 117l128 25l-31 -142h110l-20 -97h-110l-56 -261q-15 -73 44 -73q13 0 27 2.5t22 4.5l7 2l-21 -101q-40 -11 -80 -11q-80 0 -109.5 48t-10.5 130l55 259h-80zM386 647q82 60 101 117q-32 2 -49.5 23.5t-13.5 53.5q4 39 34.5 65.5t69.5 26.5 q31 0 50 -19t19 -54q0 -67 -52 -135.5t-129 -119.5z" />
<glyph unicode="&#x16a;" horiz-adv-x="722" d="M88 264l93 436h129l-93 -437q-34 -168 109 -168q71 0 119.5 43t65.5 125l93 437h129l-93 -436q-29 -140 -115.5 -209t-214.5 -69q-125 0 -186.5 77t-35.5 201zM327 821l19 91h289l-19 -91h-289z" />
<glyph unicode="&#x16b;" horiz-adv-x="609" d="M66 181l72 339h122l-68 -322q-11 -52 6.5 -82t64.5 -30q34 0 67.5 20t55.5 43l79 371h122l-82 -388q-7 -34 -12.5 -67t-6.5 -49l-2 -16h-112q-1 28 3 70q-84 -84 -171 -84q-88 0 -121.5 57.5t-16.5 137.5zM233 643l19 91h289l-19 -91h-289z" />
<glyph unicode="&#x16e;" horiz-adv-x="722" d="M88 264l93 436h129l-93 -437q-34 -168 109 -168q71 0 119.5 43t65.5 125l93 437h129l-93 -436q-29 -140 -115.5 -209t-214.5 -69q-125 0 -186.5 77t-35.5 201zM357 864q0 65 46.5 112.5t110.5 47.5q47 0 74.5 -26.5t27.5 -70.5q0 -66 -47 -113.5t-110 -47.5q-46 0 -74 27 t-28 71zM435 887q-3 -24 7.5 -38t30.5 -14q25 0 43 19t21 50q3 23 -7.5 37t-30.5 14q-24 0 -42.5 -19t-21.5 -49z" />
<glyph unicode="&#x16f;" horiz-adv-x="609" d="M66 181l72 339h122l-68 -322q-11 -52 6.5 -82t64.5 -30q34 0 67.5 20t55.5 43l79 371h122l-82 -388q-7 -34 -12.5 -67t-6.5 -49l-2 -16h-112q-1 28 3 70q-84 -84 -171 -84q-88 0 -121.5 57.5t-16.5 137.5zM265 686q0 65 46.5 112.5t110.5 47.5q47 0 74.5 -26.5 t27.5 -70.5q0 -66 -47 -113.5t-110 -47.5q-46 0 -74 27t-28 71zM343 709q-3 -24 7.5 -38t30.5 -14q25 0 43 19t21 50q3 23 -7.5 37t-30.5 14q-24 0 -42.5 -19t-21.5 -49z" />
<glyph unicode="&#x170;" horiz-adv-x="722" d="M88 264l93 436h129l-93 -437q-34 -168 109 -168q71 0 119.5 43t65.5 125l93 437h129l-93 -436q-29 -140 -115.5 -209t-214.5 -69q-125 0 -186.5 77t-35.5 201zM254 786l140 147h164l-195 -147h-109zM467 786l140 147h164l-195 -147h-109z" />
<glyph unicode="&#x171;" horiz-adv-x="609" d="M66 181l72 339h122l-68 -322q-11 -52 6.5 -82t64.5 -30q34 0 67.5 20t55.5 43l79 371h122l-82 -388q-7 -34 -12.5 -67t-6.5 -49l-2 -16h-112q-1 28 3 70q-84 -84 -171 -84q-88 0 -121.5 57.5t-16.5 137.5zM169 613l140 147h164l-195 -147h-109zM382 613l140 147h164 l-195 -147h-109z" />
<glyph unicode="&#x172;" horiz-adv-x="722" d="M88 264l93 436h129l-93 -437q-17 -82 10.5 -125t98.5 -43t119.5 43t65.5 125l93 437h129l-93 -436q-24 -116 -87 -183t-158 -87q-71 -68 -82 -121q-4 -21 3 -34.5t17.5 -18t23.5 -4.5q9 0 18 1.5t16.5 4l13.5 4.5l9 3l3 2l-15 -74q-34 -21 -98 -21q-50 0 -77 24t-22 72 q10 81 95 154q-120 3 -178.5 80t-33.5 198z" />
<glyph unicode="&#x173;" horiz-adv-x="609" d="M66 181l72 339h122l-68 -322q-11 -52 6.5 -82t64.5 -30q34 0 67.5 20t55.5 43l79 371h122l-82 -388q-7 -34 -12.5 -67t-6.5 -49l-2 -16q-9 -8 -21.5 -20.5t-37 -46.5t-29.5 -60q-6 -30 8.5 -43.5t35.5 -13.5q14 0 29 4t23 8l8 3l-15 -74q-34 -21 -98 -21q-50 0 -77 24 t-22 72q7 53 42.5 98t70.5 70h-29q-1 28 3 70q-84 -84 -171 -84q-88 0 -121.5 57.5t-16.5 137.5z" />
<glyph unicode="&#x178;" horiz-adv-x="554" d="M91 700h135l78 -297l198 297h156l-309 -428l-58 -272h-129l58 272zM228 849q6 28 28.5 46.5t50.5 18.5q26 0 40.5 -16.5t10.5 -42.5q-3 -30 -26 -50.5t-52 -20.5q-28 0 -42.5 19t-9.5 46zM438 849q5 28 28 46.5t51 18.5q25 0 39.5 -16.5t11.5 -42.5q-4 -30 -27 -50.5 t-52 -20.5q-28 0 -42.5 19t-8.5 46z" />
<glyph unicode="&#x179;" horiz-adv-x="549" d="M-14 0l15 70l402 525h-281l22 105h451l-14 -70l-403 -525h306l-22 -105h-476zM300 786l140 147h167l-196 -147h-111z" />
<glyph unicode="&#x17a;" horiz-adv-x="456" d="M-23 0l12 57l301 369h-212l20 94h378l-12 -57l-302 -369h233l-19 -94h-399zM222 613l140 147h167l-196 -147h-111z" />
<glyph unicode="&#x17b;" horiz-adv-x="549" d="M-14 0l15 70l402 525h-281l22 105h451l-14 -70l-403 -525h306l-22 -105h-476zM327 860q4 36 32 61t65 25q31 0 49 -19.5t14 -49.5q-4 -36 -32.5 -61.5t-64.5 -25.5q-31 0 -49 19.5t-14 50.5z" />
<glyph unicode="&#x17c;" horiz-adv-x="456" d="M-23 0l12 57l301 369h-212l20 94h378l-12 -57l-302 -369h233l-19 -94h-399zM249 682q4 36 32 61t65 25q31 0 49 -19.5t14 -49.5q-4 -36 -32.5 -61.5t-64.5 -25.5q-31 0 -49 19.5t-14 50.5z" />
<glyph unicode="&#x17d;" horiz-adv-x="549" d="M-14 0l15 70l402 525h-281l22 105h451l-14 -70l-403 -525h306l-22 -105h-476zM231 940h110l49 -86l86 86h110l-147 -152h-126z" />
<glyph unicode="&#x17e;" horiz-adv-x="456" d="M-23 0l12 57l301 369h-212l20 94h378l-12 -57l-302 -369h233l-19 -94h-399zM155 765h110l49 -86l86 86h110l-147 -152h-126z" />
<glyph unicode="&#x192;" horiz-adv-x="487" d="M-114 -237l35 98q26 -13 57 -13q53 0 72 55l162 460h-96l33 97h97l33 93q62 176 211 177q60 0 83 -13l-35 -98q-26 13 -58 13q-53 0 -73 -55l-42 -117h105l-33 -97h-105l-155 -435q-63 -178 -210 -178q-58 0 -81 13z" />
<glyph unicode="&#x218;" horiz-adv-x="522" d="M3 33l25 114q81 -50 165 -50q52 0 89.5 26t37.5 74q0 31 -21.5 58.5t-52 50.5t-61 48.5t-52 64t-21.5 86.5q0 96 68.5 152.5t176.5 56.5q106 0 171 -40l-24 -115q-73 46 -150 46q-47 0 -77 -24t-30 -63q0 -30 21.5 -57t51.5 -50t60.5 -49.5t52 -66.5t21.5 -90 q0 -100 -74.5 -159.5t-187.5 -59.5q-60 0 -111 15t-78 32zM36 -390q37 27 64.5 59t35.5 58q-30 2 -48 22.5t-14 50.5q3 39 32.5 67.5t69.5 28.5q35 0 55.5 -23.5t15.5 -64.5q-5 -65 -55.5 -128t-124.5 -112z" />
<glyph unicode="&#x219;" horiz-adv-x="448" d="M8 28l22 100q24 -18 62.5 -32t74.5 -14q38 0 65.5 16.5t27.5 47.5q0 22 -18 41t-44 35t-52 35t-44 49t-18 68q0 73 57 116.5t141 43.5q93 0 149 -35l-22 -101q-53 40 -118 40q-38 0 -59.5 -16t-21.5 -41q0 -24 27.5 -48t60 -43t60 -55t27.5 -81q0 -76 -60 -122t-146 -46 q-53 0 -101.5 13t-69.5 29zM20 -383q37 27 64.5 59t35.5 58q-30 2 -48 22.5t-14 50.5q3 39 32.5 67.5t69.5 28.5q35 0 55.5 -23.5t15.5 -64.5q-5 -65 -55.5 -128t-124.5 -112z" />
<glyph unicode="&#x21a;" horiz-adv-x="543" d="M57 -383q37 27 64.5 59t35.5 58q-30 2 -48 22.5t-14 50.5q3 39 32.5 67.5t69.5 28.5q35 0 55.5 -23.5t15.5 -64.5q-5 -65 -55.5 -128t-124.5 -112zM85 595l22 105h530l-22 -105h-201l-126 -595h-129l126 595h-200z" />
<glyph unicode="&#x21b;" horiz-adv-x="366" d="M22 -383q37 27 64.5 59t35.5 58q-30 2 -48 22.5t-14 50.5q3 39 32.5 67.5t69.5 28.5q35 0 55.5 -23.5t15.5 -64.5q-5 -65 -55.5 -128t-124.5 -112zM61 423l21 97h79l25 117l128 25l-31 -142h110l-20 -97h-110l-56 -261q-15 -73 44 -73q13 0 27 2.5t22 4.5l7 2l-21 -101 q-40 -11 -80 -11q-80 0 -109.5 48t-10.5 130l55 259h-80z" />
<glyph unicode="&#x2c6;" horiz-adv-x="459" d="M132 613l146 152h126l83 -152h-110l-50 86l-85 -86h-110z" />
<glyph unicode="&#x2c7;" horiz-adv-x="469" d="M169 765h110l49 -86l86 86h110l-147 -152h-126z" />
<glyph unicode="&#x2d8;" horiz-adv-x="438" d="M164 743q0 22 4 41h88q0 -48 11.5 -70.5t47.5 -22.5q37 0 59 23t39 70h89q-21 -79 -73.5 -128t-131.5 -49q-68 0 -100.5 36.5t-32.5 99.5z" />
<glyph unicode="&#x2d9;" horiz-adv-x="267" d="M150 682q4 36 32 61t65 25q31 0 49 -19.5t14 -49.5q-4 -36 -32.5 -61.5t-64.5 -25.5q-31 0 -49 19.5t-14 50.5z" />
<glyph unicode="&#x2da;" horiz-adv-x="361" d="M153 686q0 65 46.5 112.5t110.5 47.5q47 0 74.5 -26.5t27.5 -70.5q0 -66 -47 -113.5t-110 -47.5q-46 0 -74 27t-28 71zM231 709q-3 -24 7.5 -38t30.5 -14q25 0 43 19t21 50q3 23 -7.5 37t-30.5 14q-24 0 -42.5 -19t-21.5 -49z" />
<glyph unicode="&#x2db;" horiz-adv-x="304" d="M-40 -168q7 53 42.5 98t70.5 70h83q-9 -8 -21.5 -20.5t-37 -46.5t-29.5 -60q-6 -30 8.5 -43.5t35.5 -13.5q14 0 29 4t23 8l8 3l-15 -74q-34 -21 -98 -21q-50 0 -77 24t-22 72z" />
<glyph unicode="&#x2dc;" horiz-adv-x="583" d="M135 626q13 65 50.5 112t97.5 47q26 0 46.5 -11.5t31 -24.5t24.5 -24.5t29 -11.5q43 0 60 71h78q-14 -67 -52 -113t-98 -46q-27 0 -47.5 11.5t-30.5 24.5t-24.5 24.5t-30.5 11.5q-41 0 -56 -71h-78z" />
<glyph unicode="&#x2dd;" horiz-adv-x="606" d="M135 613l140 147h164l-195 -147h-109zM348 613l140 147h164l-195 -147h-109z" />
<glyph unicode="&#x3c0;" horiz-adv-x="742" d="M114 423l21 97h592l-21 -97h-102q-22 -101 -55 -259q-3 -15 -3 -26q0 -41 48 -41q12 0 23 1.5t16 3.5l5 2l-21 -100q-33 -11 -77 -11q-119 0 -119 101q0 35 12 93l51 236h-147l-90 -423h-120l90 423h-103z" />
<glyph unicode="&#x2013;" horiz-adv-x="618" d="M57 248l22 103h508l-22 -103h-508z" />
<glyph unicode="&#x2014;" horiz-adv-x="1095" d="M57 248l22 103h985l-22 -103h-985z" />
<glyph unicode="&#x2018;" horiz-adv-x="267" d="M89 458q0 67 52 135.5t129 120.5l31 -43q-84 -60 -101 -116q32 -2 49 -24t13 -54q-4 -38 -34.5 -64.5t-69.5 -26.5q-32 0 -50.5 19t-18.5 53z" />
<glyph unicode="&#x2019;" horiz-adv-x="266" d="M99 428q82 60 101 117q-32 2 -49.5 23.5t-13.5 53.5q4 39 34.5 65.5t69.5 26.5q31 0 50 -19t19 -54q0 -67 -52 -135.5t-129 -119.5z" />
<glyph unicode="&#x201a;" horiz-adv-x="250" d="M-35 -130q81 60 100 117q-29 2 -46 19.5t-17 44.5q0 44 31 74t73 30q32 0 51 -19t19 -54q0 -59 -49 -129.5t-133 -124.5z" />
<glyph unicode="&#x201c;" horiz-adv-x="475" d="M89 458q0 67 52 135.5t129 120.5l30 -43q-82 -60 -101 -116q32 -2 49.5 -24t13.5 -54q-4 -38 -35 -64.5t-69 -26.5q-32 0 -50.5 19t-18.5 53zM297 458q0 67 52 135.5t129 120.5l31 -43q-84 -60 -101 -116q32 -2 49 -24t13 -54q-4 -38 -34.5 -64.5t-69.5 -26.5 q-32 0 -50.5 19t-18.5 53z" />
<glyph unicode="&#x201d;" horiz-adv-x="475" d="M99 428q82 60 101 117q-32 2 -49.5 23.5t-13.5 53.5q4 39 34.5 65.5t69.5 26.5q31 0 50 -19t19 -54q0 -67 -52 -135.5t-129 -119.5zM307 428q83 60 101 117q-32 2 -49 23.5t-13 53.5q4 39 34.5 65.5t68.5 26.5q31 0 50.5 -19t19.5 -54q0 -67 -52.5 -135.5t-129.5 -119.5z " />
<glyph unicode="&#x201e;" horiz-adv-x="459" d="M-36 -130q82 60 101 116q-32 2 -49 23.5t-13 53.5q4 40 34.5 66t68.5 26q32 0 51 -19t19 -54q0 -67 -52 -134.5t-130 -120.5zM173 -130q82 60 101 116q-32 2 -49.5 23.5t-13.5 53.5q4 40 34.5 66t69.5 26q32 0 50.5 -19t18.5 -54q0 -67 -52 -135t-130 -120z" />
<glyph unicode="&#x2020;" horiz-adv-x="563" d="M89 397l21 100l169 -9l41 226h125l-55 -226l173 9l-21 -100l-170 6l-111 -554h-125l125 554z" />
<glyph unicode="&#x2021;" horiz-adv-x="602" d="M38 66l22 100l169 -6l23 124l29 119l-172 -6l21 100l169 -9l41 226h124l-55 -226l173 9l-21 -100l-170 6l-21 -119l-31 -124l173 6l-22 -100l-169 9l-41 -226h-124l55 226z" />
<glyph unicode="&#x2022;" horiz-adv-x="403" d="M96 328q0 53 36.5 90t90.5 37q53 0 90 -37t37 -90t-37 -89.5t-90 -36.5q-54 0 -90.5 36.5t-36.5 89.5z" />
<glyph unicode="&#x2026;" horiz-adv-x="767" d="M-1 63q5 38 35 65t69 27q34 0 52.5 -21t14.5 -55q-4 -39 -34 -66t-69 -27q-34 0 -53 21.5t-15 55.5zM261 63q5 38 35 65t69 27q35 0 53.5 -21t14.5 -55q-4 -39 -34.5 -66t-68.5 -27q-35 0 -54 21.5t-15 55.5zM524 63q5 38 35 65t69 27q34 0 52.5 -21t14.5 -55 q-4 -39 -34 -66t-69 -27q-34 0 -53 21.5t-15 55.5z" />
<glyph unicode="&#x2030;" horiz-adv-x="1339" d="M100 446q0 103 67 178.5t159 75.5q65 0 103.5 -39t38.5 -106q0 -102 -67 -177.5t-159 -75.5q-65 0 -103.5 39t-38.5 105zM183 -14l513 728h105l-513 -728h-105zM200 460q0 -35 16 -54.5t44 -19.5q45 0 76.5 47.5t31.5 107.5q0 35 -15.5 55t-43.5 20q-46 0 -77.5 -47.5 t-31.5 -108.5zM516 144q0 103 67 178.5t159 75.5q66 0 104 -39.5t38 -105.5q0 -103 -67 -178t-159 -75q-65 0 -103.5 39t-38.5 105zM616 158q0 -35 16 -54.5t44 -19.5q45 0 76.5 47t31.5 108q0 35 -15.5 55t-43.5 20q-46 0 -77.5 -47.5t-31.5 -108.5zM919 144q0 102 67 178 t160 76q65 0 103.5 -39.5t38.5 -105.5q0 -103 -67 -178t-159 -75q-65 0 -104 39t-39 105zM1020 158q0 -35 15.5 -54.5t43.5 -19.5q45 0 77 47t32 108q0 35 -16 55t-44 20q-46 0 -77 -47.5t-31 -108.5z" />
<glyph unicode="&#x2039;" horiz-adv-x="368" d="M34 210l23 107l275 200l-25 -118l-166 -145l105 -144l-21 -100z" />
<glyph unicode="&#x203a;" horiz-adv-x="368" d="M46 10l25 118l167 144l-106 145l22 100l191 -200l-23 -107z" />
<glyph unicode="&#x2044;" horiz-adv-x="460" d="M-38 -14l488 728h96l-488 -728h-96z" />
<glyph unicode="&#x20ac;" horiz-adv-x="728" d="M54 235l17 80h79q5 38 15 71h-79l17 80h92q55 115 156.5 181.5t222.5 66.5q114 0 189 -53l-72 -98q-56 40 -130 40q-69 0 -129 -37.5t-97 -99.5h290l-59 -80h-266q-8 -22 -15 -71h229l-59 -80h-169q10 -66 53.5 -102t114.5 -36q75 0 146 39l30 -98q-98 -52 -210 -52 q-117 0 -191.5 69t-82.5 180h-92z" />
<glyph unicode="&#x2113;" horiz-adv-x="463" d="M66 163q0 119 44.5 251.5t117 224t145.5 91.5q45 0 71.5 -24t26.5 -62q0 -96 -84 -203.5t-180 -171.5q-16 -64 -16 -110q0 -124 79 -124q25 0 51.5 11.5t40.5 23.5l15 12l14 -19q-91 -77 -195 -77q-130 0 -130 177zM215 314q70 54 133.5 146.5t63.5 163.5q0 34 -23 34 q-31 0 -69 -63t-64 -139t-41 -142z" />
<glyph unicode="&#x2117;" horiz-adv-x="848" d="M85 350q0 151 106.5 257.5t257.5 106.5t257.5 -106.5t106.5 -257.5t-106.5 -257.5t-257.5 -106.5t-257.5 106.5t-106.5 257.5zM172 350q0 -121 80.5 -204t196.5 -83q115 0 195.5 82.5t80.5 204.5q0 121 -80.5 204t-195.5 83t-196 -83t-81 -204zM341 154v387h125 q67 0 105.5 -34.5t38.5 -89.5t-38.5 -89.5t-105.5 -34.5h-46v-139h-79zM420 359h38q69 0 69 58t-69 58h-38v-116z" />
<glyph unicode="&#x2120;" horiz-adv-x="888" d="M100 324v85q49 -40 101 -40q28 0 44.5 12.5t16.5 32.5t-25 37.5t-55 30.5t-55 41.5t-25 67.5q0 53 37 83.5t97 30.5q57 0 95 -24v-85q-48 37 -91 37q-24 0 -38 -10.5t-14 -27.5q0 -19 25 -36.5t55.5 -30.5t55.5 -42t25 -69q0 -55 -41 -88t-102 -33q-57 0 -106 28z M412 302v401h57l167 -223l166 223h56v-401h-85v242l-125 -168h-25l-125 168v-242h-86z" />
<glyph unicode="&#x2122;" horiz-adv-x="951" d="M97 630v70h339v-70h-127v-328h-86v328h-126zM490 302v401h56l162 -223l162 223h56v-401h-85v242l-120 -168h-25l-120 168v-242h-86z" />
<glyph unicode="&#x2126;" horiz-adv-x="866" d="M20 0l21 101h130q-88 70 -88 188q0 113 64.5 212t168.5 156t218 57q135 0 218 -77.5t83 -201.5q0 -103 -54 -189.5t-145 -144.5h131l-21 -101h-313l22 107q102 27 174 114.5t72 196.5q0 85 -52.5 137.5t-137.5 52.5q-117 0 -206 -92t-89 -217q0 -72 38.5 -123t100.5 -69 l-22 -107h-313z" />
<glyph unicode="&#x212e;" horiz-adv-x="678" d="M65 260q0 119 80.5 196.5t203.5 77.5t203.5 -77.5t80.5 -196.5v-10h-429v-165q59 -48 145 -48q106 0 172 77h73q-38 -61 -102.5 -94.5t-142.5 -33.5q-123 0 -203.5 77.5t-80.5 196.5zM204 305h290v129q-62 48 -145 48q-84 0 -145 -48v-129z" />
<glyph unicode="&#x2202;" horiz-adv-x="660" d="M40 147q0 114 99.5 203t218.5 89q103 0 142 -86q30 85 30 155q0 55 -21.5 84t-60.5 29q-75 0 -145 -96h-125q130 189 302 189q85 0 130.5 -49t45.5 -141q0 -122 -61 -247t-164 -208t-214 -83q-82 0 -129.5 45.5t-47.5 115.5zM165 182q-5 -44 16.5 -70t61.5 -26 q52 0 109.5 45t101.5 121q-36 87 -122 87q-56 0 -108.5 -43t-58.5 -114z" />
<glyph unicode="&#x2206;" horiz-adv-x="713" d="M-44 0l484 708h22l184 -708h-690zM162 105h331l-85 378z" />
<glyph unicode="&#x220f;" horiz-adv-x="791" d="M106 0l127 598h-101l21 102h681l-21 -102h-103l-127 -598h-124l127 598h-229l-127 -598h-124z" />
<glyph unicode="&#x2211;" horiz-adv-x="674" d="M25 0l17 82l305 273l-189 273l15 72h524l-21 -102h-354l165 -241l-7 -31l-248 -225h338l-21 -101h-524z" />
<glyph unicode="&#x2212;" horiz-adv-x="603" d="M65 236v106h494v-106h-494z" />
<glyph unicode="&#x221a;" horiz-adv-x="714" d="M95 316v101h181l83 -214l228 594h122l-321 -805h-58l-134 324h-101z" />
<glyph unicode="&#x221e;" horiz-adv-x="804" d="M68 317q0 69 48 117t118 48q89 0 185 -98q100 98 186 98q70 0 118.5 -47.5t48.5 -117.5q0 -69 -49 -117.5t-118 -48.5q-81 0 -186 100q-52 -50 -94.5 -75t-90.5 -25q-68 0 -117 48.5t-49 117.5zM163 317q0 -29 20.5 -49.5t50.5 -20.5q44 0 117 71q-72 68 -117 68 q-30 0 -50.5 -19.5t-20.5 -49.5zM488 318q73 -71 117 -71q31 0 51.5 20.5t20.5 49.5q0 30 -20.5 49.5t-51.5 19.5q-45 0 -117 -68z" />
<glyph unicode="&#x222b;" horiz-adv-x="487" d="M-99 -237l35 98q26 -13 57 -13q52 0 72 55q188 532 226 639q33 94 84.5 141t129.5 47q60 0 83 -13l-35 -98q-26 13 -58 13q-53 0 -73 -55l-226 -639q-34 -93 -86 -140.5t-128 -47.5q-58 0 -81 13z" />
<glyph unicode="&#x2248;" horiz-adv-x="703" d="M103 95q0 80 43 130.5t115 50.5q41 0 79.5 -22t73 -44.5t64.5 -22.5q35 0 55.5 21.5t20.5 57.5h82q0 -80 -44 -130.5t-116 -50.5q-48 0 -115 44.5t-100 44.5q-35 0 -55.5 -21.5t-20.5 -57.5h-82zM103 317q0 80 43 130.5t115 50.5q41 0 79.5 -22t73 -44.5t64.5 -22.5 q35 0 55.5 21.5t20.5 57.5h82q0 -80 -44 -130.5t-116 -50.5q-48 0 -115 44.5t-100 44.5q-35 0 -55.5 -21.5t-20.5 -57.5h-82z" />
<glyph unicode="&#x2260;" horiz-adv-x="743" d="M105 0l90 116h-90v106h171l104 133h-275v106h356l91 116h106l-91 -116h91v-106h-172l-104 -133h276v-106h-357l-90 -116h-106z" />
<glyph unicode="&#x2264;" horiz-adv-x="668" d="M105 0v101h487v-101h-487zM105 302v107l488 168v-105l-357 -117l357 -116v-105z" />
<glyph unicode="&#x2265;" horiz-adv-x="668" d="M105 134v105l357 116l-357 117v105l488 -168v-107zM106 0v101h487v-101h-487z" />
<glyph unicode="&#x250c;" horiz-adv-x="708" d="M282 -305v681h438v-114h-324v-567h-114z" />
<glyph unicode="&#x2510;" horiz-adv-x="708" d="M-11 262v114h437v-681h-114v567h-323z" />
<glyph unicode="&#x2514;" horiz-adv-x="708" d="M282 231v681h114v-567h324v-114h-438z" />
<glyph unicode="&#x2518;" horiz-adv-x="708" d="M-11 231v114h323v567h114v-681h-437z" />
<glyph unicode="&#x2588;" horiz-adv-x="708" d="M-11 -303v1213h730v-1213h-730z" />
<glyph unicode="&#x25ca;" horiz-adv-x="648" d="M79 350l321 358h48l169 -358l-321 -358h-48zM207 350l96 -209l186 209l-97 208z" />
<glyph unicode="&#x266a;" horiz-adv-x="531" d="M22 105q0 51 39.5 86.5t97.5 35.5q51 0 89 -23v496h51q89 0 149.5 -49t60.5 -122v-86h-59v27q0 50 -38 81.5t-99 31.5h-6v-466q0 -58 -42.5 -94.5t-105.5 -36.5q-58 0 -97.5 34.5t-39.5 84.5z" />
<glyph unicode="&#x266b;" horiz-adv-x="751" d="M22 57q0 51 39.5 86.5t97.5 35.5q51 0 89 -23v464l403 125v-578q0 -58 -42.5 -94.5t-105.5 -36.5q-58 0 -97.5 34.5t-39.5 84.5q0 51 39.5 87t97.5 36q49 0 89 -24v340l-285 -90v-435q0 -58 -42.5 -94.5t-105.5 -36.5q-58 0 -97.5 34.5t-39.5 84.5z" />
<glyph unicode="&#xe000;" horiz-adv-x="520" d="M0 0v520h520v-520h-520z" />
<glyph unicode="&#xf6c3;" horiz-adv-x="282" d="M-16 -366q37 27 64.5 59t35.5 58q-30 2 -48 22.5t-14 50.5q3 39 32.5 67.5t69.5 28.5q35 0 55.5 -23.5t15.5 -64.5q-5 -65 -55.5 -128t-124.5 -112z" />
<glyph unicode="&#xfb01;" horiz-adv-x="635" d="M47 0l90 423h-77q3 17 10 49t10 48h77q2 8 5.5 24.5t5.5 24.5q34 161 180 161q65 0 88 -13l-20 -96q-37 11 -60 11q-53 0 -67 -62l-11 -50h111l-21 -97h-110l-90 -423h-121zM378 0l110 520h122l-110 -520h-122zM508 652q0 35 26 57.5t60 22.5q27 0 43 -14t16 -37 q0 -35 -26 -57.5t-61 -22.5q-27 0 -42.5 13.5t-15.5 37.5z" />
<glyph unicode="&#xfb02;" horiz-adv-x="664" d="M47 0l90 423h-77q3 17 10 49t10 48h77q2 8 5.5 24.5t5.5 24.5q34 161 180 161q65 0 88 -13l-20 -96q-37 11 -60 11q-53 0 -67 -62l-11 -50h111l-21 -97h-110l-90 -423h-121zM407 154l123 576h122l-121 -570q-9 -39 0.5 -55.5t44.5 -16.5q23 0 47 8l-22 -101 q-31 -9 -67 -9q-78 0 -111 45t-16 123z" />
</font>
</defs>
</svg>
